M48
INCH,TZ
T1C0.0157
T2C0.0287
T3C0.0295
T4C0.0315
T5C0.0354
T6C0.0394
T7C0.0433
T8C0.0504
T9C0.0512
T10C0.0551
%
G90
G05
T1
X23388Y-46187
X26574Y-37984
X31469Y-49154
X35435Y-46231
X35859Y-37517
X36474Y-49249
X40402Y-38019
X41122Y-43613
X42187Y-43008
X42583Y-45469
X42600Y-43757
X42826Y-43052
X42827Y-40592
X43108Y-36085
X43227Y-44382
X43237Y-43624
X43322Y-44820
X43351Y-45320
X43575Y-33608
X43857Y-43888
X44656Y-38937
X45288Y-45471
X47133Y-44246
X47142Y-46203
X48612Y-47349
X48664Y-48737
X49234Y-45668
X49324Y-38845
X49324Y-39686
X49424Y-47418
X49520Y-42897
X50518Y-47497
X51150Y-45158
X52145Y-42769
X52247Y-45668
X52319Y-40677
X52833Y-37901
X52981Y-43158
X53100Y-41460
X53190Y-38682
X54342Y-40612
X59924Y-40599
X60590Y-41103
X60880Y-40217
X69054Y-37050
T2
X24638Y-42110
X24638Y-43110
X24638Y-44110
X24638Y-45110
X27764Y-42110
X27764Y-43110
X27764Y-44110
X27764Y-45110
T3
X25509Y-34408
X29721Y-34408
X30344Y-32211
X30344Y-32711
X30344Y-33211
X31144Y-40820
X31644Y-40820
X32144Y-40820
X33348Y-40818
X33848Y-40818
X34348Y-40818
X35551Y-40813
X36051Y-40813
X36551Y-40813
X37566Y-34424
X37769Y-40813
X38269Y-40813
X38769Y-40813
X41779Y-34424
X41997Y-32185
X41997Y-32685
X41997Y-33185
X49200Y-34424
X53413Y-34424
X54151Y-32214
X54151Y-32714
X54151Y-33214
X61639Y-34293
X65852Y-34293
X66019Y-32104
X66019Y-32604
X66019Y-33104
T4
X22791Y-45106
X23791Y-45106
X26611Y-35557
X27611Y-35557
X28661Y-35557
X28753Y-41586
X28888Y-42821
X29661Y-35557
X29753Y-41586
X29866Y-43909
X29866Y-44909
X29888Y-42821
X30700Y-35557
X31115Y-44150
X31115Y-45150
X31643Y-42796
X31700Y-35557
X32643Y-42796
X33001Y-44150
X33001Y-45150
X33019Y-36974
X33852Y-42826
X34019Y-36974
X34852Y-42826
X34887Y-44150
X34887Y-45150
X35082Y-27425
X35082Y-29394
X36053Y-42795
X36773Y-44150
X36773Y-45150
X37053Y-42795
X38097Y-42796
X38358Y-35557
X38627Y-44176
X38627Y-45176
X39097Y-42796
X39358Y-35557
X40174Y-40331
X40174Y-42171
X40395Y-35548
X40458Y-44158
X40458Y-45158
X41174Y-40331
X41174Y-42171
X41395Y-35548
X42443Y-35546
X42510Y-41686
X43443Y-35546
X43510Y-41686
X44615Y-36902
X45615Y-36902
X45791Y-38131
X45791Y-39131
X45791Y-40131
X45791Y-41131
X45791Y-42131
X45791Y-43131
X45791Y-44131
X45791Y-45131
X45791Y-46131
X47027Y-25522
X47027Y-27490
X48791Y-38131
X48791Y-39131
X48791Y-40131
X48791Y-41131
X48791Y-42131
X48791Y-43131
X48791Y-44131
X48791Y-45131
X48791Y-46131
X49848Y-35588
X50848Y-35588
X51881Y-35585
X52881Y-35585
X53927Y-35593
X54927Y-35593
X55022Y-39059
X55022Y-40944
X55022Y-42830
X55022Y-44716
X55965Y-36864
X56022Y-39059
X56022Y-40944
X56022Y-42830
X56022Y-44716
X56965Y-36864
X59166Y-39615
X59571Y-31447
X59571Y-33415
X59590Y-26236
X59590Y-28204
X60166Y-39615
X61062Y-35441
X61166Y-39615
X62062Y-35441
X63173Y-35422
X64173Y-35422
X65915Y-41405
X66915Y-41405
X70611Y-32218
X71611Y-32218
X74933Y-31534
X74933Y-32534
T5
X49737Y-48531
X50737Y-48531
T6
X23310Y-33949
X23310Y-34949
X23310Y-35949
X26000Y-38500
X26000Y-47500
X26000Y-48500
X27000Y-38500
X27000Y-47500
X27000Y-48500
X28000Y-38500
X28000Y-47500
X28000Y-48500
X29000Y-38500
X29000Y-47500
X29000Y-48500
X30000Y-38500
X30000Y-47500
X30000Y-48500
X31000Y-38500
X31000Y-47500
X31000Y-48500
X32000Y-38500
X32000Y-47500
X32000Y-48500
X33000Y-38500
X33000Y-47500
X33000Y-48500
X34000Y-38500
X34000Y-47500
X34000Y-48500
X35000Y-38500
X35000Y-47500
X35000Y-48500
X36000Y-38500
X36000Y-47500
X36000Y-48500
X37000Y-38500
X37000Y-47500
X37000Y-48500
X38000Y-38500
X38000Y-47500
X38000Y-48500
X39000Y-38500
X39000Y-47500
X39000Y-48500
X40000Y-38500
X40000Y-47500
X40000Y-48500
X41000Y-38500
X41000Y-47500
X41000Y-48500
X42000Y-38500
X42000Y-47500
X42000Y-48500
X43000Y-38500
X43000Y-47500
X43000Y-48500
X44000Y-38500
X44000Y-47500
X44000Y-48500
X45518Y-47450
X45518Y-49222
X48077Y-47450
X48077Y-49222
X54067Y-47654
X54067Y-48654
X55067Y-47654
X55067Y-48654
X56067Y-47654
X56067Y-48654
X57067Y-47654
X57067Y-48654
X58067Y-47654
X58067Y-48654
X59067Y-47654
X59067Y-48654
X60067Y-47654
X60067Y-48654
X61067Y-47654
X61067Y-48654
X61259Y-37533
X62067Y-47654
X62067Y-48654
X63067Y-47654
X63067Y-48654
X64067Y-47654
X64067Y-48654
X65067Y-47654
X65067Y-48654
X66067Y-47654
X66067Y-48654
X67067Y-47654
X67067Y-48654
T7
X32968Y-35606
X36968Y-35606
X44550Y-35633
X48550Y-35633
X55918Y-35590
X59918Y-35590
X73054Y-29994
X73054Y-33994
T8
X26224Y-32433
X27224Y-32433
X28224Y-32433
X37807Y-32389
X38807Y-32389
X39807Y-32389
X49609Y-32389
X50609Y-32389
X51609Y-32389
X61870Y-32389
X62870Y-32389
X63870Y-32389
X68638Y-41403
X69638Y-41403
X70638Y-41403
T9
X25951Y-27988
X27951Y-27988
X29951Y-27988
X32701Y-27488
X32701Y-33488
X37951Y-27988
X39951Y-27988
X41951Y-27988
X44701Y-27488
X44701Y-33488
X49951Y-27988
X51951Y-27988
X53951Y-27988
X56701Y-27488
X56701Y-33488
X61951Y-27988
X63951Y-27988
X65951Y-27988
X68701Y-27488
X68701Y-33488
X70128Y-35976
X70128Y-37976
T10
X64952Y-43229
X64952Y-44213
X66330Y-43229
X66330Y-44213
X68614Y-43229
X68614Y-44213
X69991Y-43229
X69991Y-44213
T0
M30
