%TF.GenerationSoftware,KiCad,Pcbnew,(6.0.0)*%
%TF.CreationDate,2023-01-04T20:07:59-08:00*%
%TF.ProjectId,MakeItRain,4d616b65-4974-4526-9169-6e2e6b696361,rev?*%
%TF.SameCoordinates,Original*%
%TF.FileFunction,Copper,L2,Inr*%
%TF.FilePolarity,Positive*%
%FSLAX46Y46*%
G04 Gerber Fmt 4.6, Leading zero omitted, Abs format (unit mm)*
G04 Created by KiCad (PCBNEW (6.0.0)) date 2023-01-04 20:07:59*
%MOMM*%
%LPD*%
G01*
G04 APERTURE LIST*
%TA.AperFunction,ComponentPad*%
%ADD10R,1.150000X1.150000*%
%TD*%
%TA.AperFunction,ComponentPad*%
%ADD11C,1.150000*%
%TD*%
%TA.AperFunction,ComponentPad*%
%ADD12R,1.500000X1.500000*%
%TD*%
%TA.AperFunction,ComponentPad*%
%ADD13C,1.500000*%
%TD*%
%TA.AperFunction,ComponentPad*%
%ADD14C,1.600000*%
%TD*%
%TA.AperFunction,ComponentPad*%
%ADD15R,2.600000X2.600000*%
%TD*%
%TA.AperFunction,ComponentPad*%
%ADD16O,2.600000X2.600000*%
%TD*%
%TA.AperFunction,ComponentPad*%
%ADD17R,1.800000X1.800000*%
%TD*%
%TA.AperFunction,ComponentPad*%
%ADD18C,1.800000*%
%TD*%
%TA.AperFunction,ComponentPad*%
%ADD19R,1.700000X1.700000*%
%TD*%
%TA.AperFunction,ComponentPad*%
%ADD20O,1.700000X1.700000*%
%TD*%
%TA.AperFunction,ComponentPad*%
%ADD21C,2.600000*%
%TD*%
%TA.AperFunction,ComponentPad*%
%ADD22R,1.920000X1.920000*%
%TD*%
%TA.AperFunction,ComponentPad*%
%ADD23C,1.920000*%
%TD*%
%TA.AperFunction,ComponentPad*%
%ADD24R,1.050000X1.500000*%
%TD*%
%TA.AperFunction,ComponentPad*%
%ADD25O,1.050000X1.500000*%
%TD*%
%TA.AperFunction,ComponentPad*%
%ADD26O,1.600000X1.600000*%
%TD*%
%TA.AperFunction,ComponentPad*%
%ADD27R,1.500000X1.050000*%
%TD*%
%TA.AperFunction,ComponentPad*%
%ADD28O,1.500000X1.050000*%
%TD*%
%TA.AperFunction,ComponentPad*%
%ADD29C,1.440000*%
%TD*%
%TA.AperFunction,ComponentPad*%
%ADD30R,1.600000X1.600000*%
%TD*%
%TA.AperFunction,ComponentPad*%
%ADD31R,2.200000X2.200000*%
%TD*%
%TA.AperFunction,ComponentPad*%
%ADD32O,2.200000X2.200000*%
%TD*%
%TA.AperFunction,ComponentPad*%
%ADD33C,2.100000*%
%TD*%
%TA.AperFunction,ComponentPad*%
%ADD34R,1.130000X1.130000*%
%TD*%
%TA.AperFunction,ComponentPad*%
%ADD35C,1.130000*%
%TD*%
%TA.AperFunction,ViaPad*%
%ADD36C,0.800000*%
%TD*%
%TA.AperFunction,Conductor*%
%ADD37C,0.250000*%
%TD*%
%TA.AperFunction,Conductor*%
%ADD38C,0.508000*%
%TD*%
%TA.AperFunction,Conductor*%
%ADD39C,1.524000*%
%TD*%
%TA.AperFunction,Conductor*%
%ADD40C,1.016000*%
%TD*%
G04 APERTURE END LIST*
D10*
%TO.N,+VDC*%
%TO.C,Z8*%
X156564300Y-87104200D03*
D11*
%TO.N,Net-(Q12-Pad1)*%
X167264300Y-87104200D03*
%TD*%
D10*
%TO.N,+VDC*%
%TO.C,Z7*%
X124968600Y-87436000D03*
D11*
%TO.N,Net-(Q9-Pad1)*%
X135668600Y-87436000D03*
%TD*%
D10*
%TO.N,+VDC*%
%TO.C,Z6*%
X95418500Y-87436000D03*
D11*
%TO.N,Net-(Q6-Pad1)*%
X106118500Y-87436000D03*
%TD*%
D10*
%TO.N,+VDC*%
%TO.C,Z5*%
X64792500Y-87395400D03*
D11*
%TO.N,Net-(Q3-Pad1)*%
X75492500Y-87395400D03*
%TD*%
D12*
%TO.N,unconnected-(S1-Pad1)*%
%TO.C,S1*%
X115616200Y-120523800D03*
D13*
%TO.N,+3V3*%
X122116200Y-120523800D03*
%TO.N,unconnected-(S1-Pad3)*%
X115616200Y-125023800D03*
%TO.N,D25*%
X122116200Y-125023800D03*
%TD*%
D14*
%TO.N,/Zone1IO/ZoneInput*%
%TO.C,C2*%
X89109000Y-69659700D03*
%TO.N,GND*%
X89109000Y-74659700D03*
%TD*%
%TO.N,/Zone2IO/ZoneInput*%
%TO.C,C3*%
X119449600Y-64825000D03*
%TO.N,GND*%
X119449600Y-69825000D03*
%TD*%
%TO.N,/Zone3IO/ZoneInput*%
%TO.C,C4*%
X151357900Y-66638300D03*
%TO.N,GND*%
X151357900Y-71638300D03*
%TD*%
D15*
%TO.N,/Zone1IO/ZoneOutput*%
%TO.C,D3*%
X83061000Y-85060000D03*
D16*
%TO.N,GND*%
X83061000Y-69820000D03*
%TD*%
D15*
%TO.N,/Zone2IO/ZoneOutput*%
%TO.C,D5*%
X113541000Y-85060000D03*
D16*
%TO.N,GND*%
X113541000Y-69820000D03*
%TD*%
D15*
%TO.N,/Zone4IO/ZoneOutput*%
%TO.C,D7*%
X174501000Y-85060000D03*
D16*
%TO.N,GND*%
X174501000Y-69820000D03*
%TD*%
D15*
%TO.N,/Zone3IO/ZoneOutput*%
%TO.C,D9*%
X144021000Y-85060000D03*
D16*
%TO.N,GND*%
X144021000Y-69820000D03*
%TD*%
D17*
%TO.N,Net-(D1-Pad1)*%
%TO.C,D1*%
X128872900Y-123268200D03*
D18*
%TO.N,D27*%
X126332900Y-123268200D03*
%TD*%
D19*
%TO.N,+3V3*%
%TO.C,J2*%
X66040000Y-120650000D03*
D20*
X66040000Y-123190000D03*
%TO.N,EN*%
X68580000Y-120650000D03*
X68580000Y-123190000D03*
%TO.N,D36*%
X71120000Y-120650000D03*
X71120000Y-123190000D03*
%TO.N,D39*%
X73660000Y-120650000D03*
X73660000Y-123190000D03*
%TO.N,D34*%
X76200000Y-120650000D03*
X76200000Y-123190000D03*
%TO.N,D35*%
X78740000Y-120650000D03*
X78740000Y-123190000D03*
%TO.N,D32*%
X81280000Y-120650000D03*
X81280000Y-123190000D03*
%TO.N,D33*%
X83820000Y-120650000D03*
X83820000Y-123190000D03*
%TO.N,D25*%
X86360000Y-120650000D03*
X86360000Y-123190000D03*
%TO.N,D26*%
X88900000Y-120650000D03*
X88900000Y-123190000D03*
%TO.N,D27*%
X91440000Y-120650000D03*
X91440000Y-123190000D03*
%TO.N,D14*%
X93980000Y-120650000D03*
X93980000Y-123190000D03*
%TO.N,D12*%
X96520000Y-120650000D03*
X96520000Y-123190000D03*
%TO.N,GND*%
X99060000Y-120650000D03*
X99060000Y-123190000D03*
%TO.N,unconnected-(J2-Pad29)*%
X101600000Y-120650000D03*
%TO.N,unconnected-(J2-Pad30)*%
X101600000Y-123190000D03*
%TO.N,unconnected-(J2-Pad31)*%
X104140000Y-120650000D03*
%TO.N,unconnected-(J2-Pad32)*%
X104140000Y-123190000D03*
%TO.N,unconnected-(J2-Pad33)*%
X106680000Y-120650000D03*
%TO.N,unconnected-(J2-Pad34)*%
X106680000Y-123190000D03*
%TO.N,unconnected-(J2-Pad35)*%
X109220000Y-120650000D03*
%TO.N,unconnected-(J2-Pad36)*%
X109220000Y-123190000D03*
%TO.N,Net-(J2-Pad37)*%
X111760000Y-120650000D03*
X111760000Y-123190000D03*
%TD*%
D19*
%TO.N,GND*%
%TO.C,J3*%
X66040000Y-97790000D03*
D20*
%TO.N,D23*%
X68580000Y-97790000D03*
%TO.N,D22*%
X71120000Y-97790000D03*
%TO.N,TX*%
X73660000Y-97790000D03*
%TO.N,RX*%
X76200000Y-97790000D03*
%TO.N,D21*%
X78740000Y-97790000D03*
%TO.N,GND*%
X81280000Y-97790000D03*
%TO.N,D19*%
X83820000Y-97790000D03*
%TO.N,D18*%
X86360000Y-97790000D03*
%TO.N,D5*%
X88900000Y-97790000D03*
%TO.N,D17*%
X91440000Y-97790000D03*
%TO.N,D16*%
X93980000Y-97790000D03*
%TO.N,D4*%
X96520000Y-97790000D03*
%TO.N,D0*%
X99060000Y-97790000D03*
%TO.N,D2*%
X101600000Y-97790000D03*
%TO.N,D15*%
X104140000Y-97790000D03*
%TO.N,/SD1*%
X106680000Y-97790000D03*
%TO.N,/SDD*%
X109220000Y-97790000D03*
%TO.N,/CLK*%
X111760000Y-97790000D03*
%TD*%
D15*
%TO.N,Net-(P1-Pad1)*%
%TO.C,P1*%
X178125700Y-96457800D03*
D21*
%TO.N,GND*%
X178125700Y-91377800D03*
%TD*%
D22*
%TO.N,Net-(Q3-Pad1)*%
%TO.C,Q3*%
X71689700Y-82379600D03*
D23*
%TO.N,/Zone1IO/ZoneOutput*%
X69149700Y-82379600D03*
%TO.N,+VDC*%
X66609700Y-82379600D03*
%TD*%
D22*
%TO.N,Net-(Q6-Pad1)*%
%TO.C,Q6*%
X101108600Y-82267600D03*
D23*
%TO.N,/Zone2IO/ZoneOutput*%
X98568600Y-82267600D03*
%TO.N,+VDC*%
X96028600Y-82267600D03*
%TD*%
D24*
%TO.N,GND*%
%TO.C,Q7*%
X90300800Y-103664300D03*
D25*
%TO.N,Net-(D6-Pad2)*%
X91570800Y-103664300D03*
%TO.N,/InputIsolation/3in*%
X92840800Y-103664300D03*
%TD*%
D22*
%TO.N,Net-(Q9-Pad1)*%
%TO.C,Q9*%
X131085700Y-82267600D03*
D23*
%TO.N,/Zone3IO/ZoneOutput*%
X128545700Y-82267600D03*
%TO.N,+VDC*%
X126005700Y-82267600D03*
%TD*%
D22*
%TO.N,Net-(Q12-Pad1)*%
%TO.C,Q12*%
X162229200Y-82267600D03*
D23*
%TO.N,/Zone4IO/ZoneOutput*%
X159689200Y-82267600D03*
%TO.N,+VDC*%
X157149200Y-82267600D03*
%TD*%
D22*
%TO.N,Net-(Q13-Pad1)*%
%TO.C,Q13*%
X174341600Y-105164100D03*
D23*
%TO.N,Net-(P1-Pad1)*%
X176881600Y-105164100D03*
%TO.N,Net-(Q13-Pad3)*%
X179421600Y-105164100D03*
%TD*%
D15*
%TO.N,/Zone2IO/ZoneInput*%
%TO.C,Z2*%
X106556000Y-71090000D03*
D21*
%TO.N,/Zone2IO/ZoneOutput*%
X101476000Y-71090000D03*
%TO.N,GND*%
X96396000Y-71090000D03*
%TD*%
D15*
%TO.N,/Zone3IO/ZoneInput*%
%TO.C,Z3*%
X137036000Y-71090000D03*
D21*
%TO.N,/Zone3IO/ZoneOutput*%
X131956000Y-71090000D03*
%TO.N,GND*%
X126876000Y-71090000D03*
%TD*%
D15*
%TO.N,/Zone4IO/ZoneInput*%
%TO.C,Z4*%
X167516000Y-71090000D03*
D21*
%TO.N,/Zone4IO/ZoneOutput*%
X162436000Y-71090000D03*
%TO.N,GND*%
X157356000Y-71090000D03*
%TD*%
D15*
%TO.N,/Zone1IO/ZoneInput*%
%TO.C,Z1*%
X76076000Y-71090000D03*
D21*
%TO.N,/Zone1IO/ZoneOutput*%
X70996000Y-71090000D03*
%TO.N,GND*%
X65916000Y-71090000D03*
%TD*%
D19*
%TO.N,+VDC*%
%TO.C,J1*%
X170349000Y-121042300D03*
D20*
%TO.N,D22*%
X170349000Y-123582300D03*
%TO.N,+VDC*%
X167809000Y-121042300D03*
%TO.N,D21*%
X167809000Y-123582300D03*
%TO.N,+VDC*%
X165269000Y-121042300D03*
%TO.N,Z8*%
X165269000Y-123582300D03*
%TO.N,+VDC*%
X162729000Y-121042300D03*
%TO.N,Z7*%
X162729000Y-123582300D03*
%TO.N,+VDC*%
X160189000Y-121042300D03*
%TO.N,Z6*%
X160189000Y-123582300D03*
%TO.N,+3V3*%
X157649000Y-121042300D03*
%TO.N,Z5*%
X157649000Y-123582300D03*
%TO.N,+3V3*%
X155109000Y-121042300D03*
%TO.N,D26*%
X155109000Y-123582300D03*
%TO.N,+3V3*%
X152569000Y-121042300D03*
%TO.N,D23*%
X152569000Y-123582300D03*
%TO.N,+3V3*%
X150029000Y-121042300D03*
%TO.N,D19*%
X150029000Y-123582300D03*
%TO.N,GND*%
X147489000Y-121042300D03*
%TO.N,D18*%
X147489000Y-123582300D03*
%TO.N,GND*%
X144949000Y-121042300D03*
%TO.N,D17*%
X144949000Y-123582300D03*
%TO.N,GND*%
X142409000Y-121042300D03*
%TO.N,D16*%
X142409000Y-123582300D03*
%TO.N,GND*%
X139869000Y-121042300D03*
%TO.N,TX*%
X139869000Y-123582300D03*
%TO.N,GND*%
X137329000Y-121042300D03*
%TO.N,RX*%
X137329000Y-123582300D03*
%TD*%
D24*
%TO.N,GND*%
%TO.C,Q4*%
X84702900Y-103677400D03*
D25*
%TO.N,Net-(D4-Pad2)*%
X85972900Y-103677400D03*
%TO.N,/InputIsolation/2in*%
X87242900Y-103677400D03*
%TD*%
D14*
%TO.N,+VDC*%
%TO.C,R23*%
X75572300Y-105627200D03*
D26*
%TO.N,Net-(IC3-Pad3)*%
X73032300Y-105627200D03*
%TD*%
D14*
%TO.N,+3V3*%
%TO.C,R31*%
X83822200Y-112140600D03*
D26*
%TO.N,D35*%
X83822200Y-114680600D03*
%TD*%
D14*
%TO.N,Net-(Q9-Pad1)*%
%TO.C,R16*%
X131777400Y-90385900D03*
D26*
%TO.N,Net-(Q8-Pad3)*%
X134317400Y-90385900D03*
%TD*%
D27*
%TO.N,GND*%
%TO.C,Q2*%
X77074800Y-81816600D03*
D28*
%TO.N,Z1*%
X77074800Y-83086600D03*
%TO.N,Net-(Q2-Pad3)*%
X77074800Y-84356600D03*
%TD*%
D14*
%TO.N,Net-(IC3-Pad3)*%
%TO.C,R24*%
X73376700Y-108765100D03*
D26*
%TO.N,GND*%
X75916700Y-108765100D03*
%TD*%
D14*
%TO.N,Net-(D2-Pad2)*%
%TO.C,R5*%
X80372200Y-108702600D03*
D26*
%TO.N,GND*%
X82912200Y-108702600D03*
%TD*%
D29*
%TO.N,AuxVoltage*%
%TO.C,RV1*%
X150281700Y-100622000D03*
%TO.N,Net-(IC3-Pad5)*%
X152821700Y-100622000D03*
%TO.N,GND*%
X155361700Y-100622000D03*
%TD*%
D19*
%TO.N,AuxVoltage*%
%TO.C,J4*%
X155598900Y-95333800D03*
%TD*%
D14*
%TO.N,+VDC*%
%TO.C,R15*%
X126614500Y-90392400D03*
D26*
%TO.N,Net-(Q9-Pad1)*%
X129154500Y-90392400D03*
%TD*%
D14*
%TO.N,Net-(D8-Pad2)*%
%TO.C,R17*%
X96767000Y-108701700D03*
D26*
%TO.N,GND*%
X99307000Y-108701700D03*
%TD*%
D19*
%TO.N,+VDC*%
%TO.C,J5*%
X59207700Y-91310200D03*
D20*
%TO.N,+3V3*%
X59207700Y-88770200D03*
%TO.N,GND*%
X59207700Y-86230200D03*
%TD*%
D14*
%TO.N,Net-(D1-Pad1)*%
%TO.C,R4*%
X98113700Y-112207200D03*
D26*
%TO.N,GND*%
X98113700Y-114747200D03*
%TD*%
D14*
%TO.N,Z4*%
%TO.C,R18*%
X179350700Y-81833100D03*
D26*
%TO.N,GND*%
X181890700Y-81833100D03*
%TD*%
D14*
%TO.N,+3V3*%
%TO.C,R29*%
X142295000Y-113577700D03*
D26*
%TO.N,Net-(IC4-Pad1)*%
X139755000Y-113577700D03*
%TD*%
D14*
%TO.N,D33*%
%TO.C,R25*%
X75859900Y-114068500D03*
D26*
%TO.N,GND*%
X75859900Y-111528500D03*
%TD*%
D14*
%TO.N,+3V3*%
%TO.C,R33*%
X93402900Y-112140600D03*
D26*
%TO.N,D39*%
X93402900Y-114680600D03*
%TD*%
D14*
%TO.N,/Zone2IO/ZoneInput*%
%TO.C,R2*%
X113321700Y-93731200D03*
D26*
%TO.N,Net-(D4-Pad2)*%
X115861700Y-93731200D03*
%TD*%
D14*
%TO.N,Z3*%
%TO.C,R14*%
X136973400Y-90405200D03*
D26*
%TO.N,GND*%
X139513400Y-90405200D03*
%TD*%
D27*
%TO.N,GND*%
%TO.C,Q11*%
X167687500Y-81543000D03*
D28*
%TO.N,Z4*%
X167687500Y-82813000D03*
%TO.N,Net-(Q11-Pad3)*%
X167687500Y-84083000D03*
%TD*%
D14*
%TO.N,+3V3*%
%TO.C,R27*%
X142295000Y-103999000D03*
D26*
%TO.N,Net-(IC4-Pad5)*%
X139755000Y-103999000D03*
%TD*%
D30*
%TO.N,D22*%
%TO.C,U1*%
X116307900Y-96853800D03*
D26*
%TO.N,D21*%
X116307900Y-99393800D03*
%TO.N,GND*%
X116307900Y-101933800D03*
X116307900Y-104473800D03*
X116307900Y-107013800D03*
%TO.N,Net-(IC1-Pad6)*%
X116307900Y-109553800D03*
%TO.N,unconnected-(U1-Pad7)*%
X116307900Y-112093800D03*
%TO.N,unconnected-(U1-Pad8)*%
X116307900Y-114633800D03*
%TO.N,GND*%
X116307900Y-117173800D03*
%TO.N,Z1*%
X123927900Y-117173800D03*
%TO.N,Z2*%
X123927900Y-114633800D03*
%TO.N,Z3*%
X123927900Y-112093800D03*
%TO.N,Z4*%
X123927900Y-109553800D03*
%TO.N,Z5*%
X123927900Y-107013800D03*
%TO.N,Z6*%
X123927900Y-104473800D03*
%TO.N,Z7*%
X123927900Y-101933800D03*
%TO.N,Z8*%
X123927900Y-99393800D03*
%TO.N,+3V3*%
X123927900Y-96853800D03*
%TD*%
D31*
%TO.N,/Zone2IO/ZoneInput*%
%TO.C,D4*%
X113156300Y-90507700D03*
D32*
%TO.N,Net-(D4-Pad2)*%
X123316300Y-90507700D03*
%TD*%
D31*
%TO.N,/Zone1IO/ZoneInput*%
%TO.C,D2*%
X83739400Y-90439100D03*
D32*
%TO.N,Net-(D2-Pad2)*%
X93899400Y-90439100D03*
%TD*%
D14*
%TO.N,Net-(D4-Pad2)*%
%TO.C,R9*%
X85984200Y-108777600D03*
D26*
%TO.N,GND*%
X88524200Y-108777600D03*
%TD*%
D14*
%TO.N,Net-(D6-Pad2)*%
%TO.C,R13*%
X91573600Y-108698400D03*
D26*
%TO.N,GND*%
X94113600Y-108698400D03*
%TD*%
D14*
%TO.N,Z1*%
%TO.C,R6*%
X77976900Y-90313600D03*
D26*
%TO.N,GND*%
X80516900Y-90313600D03*
%TD*%
D14*
%TO.N,+VDC*%
%TO.C,R11*%
X97428100Y-90313600D03*
D26*
%TO.N,Net-(Q6-Pad1)*%
X99968100Y-90313600D03*
%TD*%
D14*
%TO.N,+VDC*%
%TO.C,R7*%
X67592100Y-90313600D03*
D26*
%TO.N,Net-(Q3-Pad1)*%
X70132100Y-90313600D03*
%TD*%
D14*
%TO.N,+3V3*%
%TO.C,R37*%
X102042400Y-102441800D03*
D26*
%TO.N,D21*%
X104582400Y-102441800D03*
%TD*%
D33*
%TO.N,+VDC*%
%TO.C,U2*%
X164978400Y-112300500D03*
X168478400Y-112300500D03*
%TO.N,Net-(Q13-Pad3)*%
X174278400Y-112300500D03*
X177778400Y-112300500D03*
X177778400Y-109800500D03*
X174278400Y-109800500D03*
%TO.N,+VDC*%
X168478400Y-109800500D03*
X164978400Y-109800500D03*
%TD*%
D24*
%TO.N,GND*%
%TO.C,Q10*%
X95932600Y-103664300D03*
D25*
%TO.N,Net-(D8-Pad2)*%
X97202600Y-103664300D03*
%TO.N,/InputIsolation/4in*%
X98472600Y-103664300D03*
%TD*%
D31*
%TO.N,/Zone4IO/ZoneInput*%
%TO.C,D8*%
X185558100Y-76184700D03*
D32*
%TO.N,Net-(D8-Pad2)*%
X185558100Y-86344700D03*
%TD*%
D34*
%TO.N,D33*%
%TO.C,IC3*%
X70520600Y-114579500D03*
D35*
X70520600Y-112039500D03*
%TO.N,Net-(IC3-Pad3)*%
X70520600Y-109499500D03*
%TO.N,GND*%
X70520600Y-106959500D03*
%TO.N,Net-(IC3-Pad5)*%
X62580600Y-106959500D03*
%TO.N,D32*%
X62580600Y-109499500D03*
X62580600Y-112039500D03*
%TO.N,+3V3*%
X62580600Y-114579500D03*
%TD*%
D24*
%TO.N,GND*%
%TO.C,Q1*%
X79106900Y-103682000D03*
D25*
%TO.N,Net-(D2-Pad2)*%
X80376900Y-103682000D03*
%TO.N,/InputIsolation/1in*%
X81646900Y-103682000D03*
%TD*%
D14*
%TO.N,+3V3*%
%TO.C,R26*%
X142295000Y-99209700D03*
D26*
%TO.N,Net-(IC4-Pad7)*%
X139755000Y-99209700D03*
%TD*%
D14*
%TO.N,+3V3*%
%TO.C,R36*%
X110516400Y-105882500D03*
D26*
%TO.N,Net-(IC1-Pad6)*%
X107976400Y-105882500D03*
%TD*%
D14*
%TO.N,/Zone1IO/ZoneInput*%
%TO.C,R1*%
X83868300Y-93912900D03*
D26*
%TO.N,Net-(D2-Pad2)*%
X86408300Y-93912900D03*
%TD*%
D14*
%TO.N,Net-(Q3-Pad1)*%
%TO.C,R8*%
X72798600Y-90313600D03*
D26*
%TO.N,Net-(Q2-Pad3)*%
X75338600Y-90313600D03*
%TD*%
D27*
%TO.N,GND*%
%TO.C,Q8*%
X137542600Y-81822900D03*
D28*
%TO.N,Z3*%
X137542600Y-83092900D03*
%TO.N,Net-(Q8-Pad3)*%
X137542600Y-84362900D03*
%TD*%
D27*
%TO.N,GND*%
%TO.C,Q5*%
X106673400Y-81749200D03*
D28*
%TO.N,Z2*%
X106673400Y-83019200D03*
%TO.N,Net-(Q5-Pad3)*%
X106673400Y-84289200D03*
%TD*%
D14*
%TO.N,/Zone4IO/ZoneInput*%
%TO.C,C5*%
X151310400Y-84874400D03*
%TO.N,GND*%
X151310400Y-79874400D03*
%TD*%
%TO.N,Net-(Q13-Pad1)*%
%TO.C,R21*%
X167425100Y-105167700D03*
D26*
%TO.N,GND*%
X169965100Y-105167700D03*
%TD*%
D14*
%TO.N,D25*%
%TO.C,R3*%
X102762800Y-112161900D03*
D26*
%TO.N,GND*%
X102762800Y-114701900D03*
%TD*%
D14*
%TO.N,+3V3*%
%TO.C,R30*%
X79031800Y-112140600D03*
D26*
%TO.N,D34*%
X79031800Y-114680600D03*
%TD*%
D14*
%TO.N,Net-(Q6-Pad1)*%
%TO.C,R12*%
X102602700Y-90291400D03*
D26*
%TO.N,Net-(Q5-Pad3)*%
X105142700Y-90291400D03*
%TD*%
D14*
%TO.N,/Zone3IO/ZoneInput*%
%TO.C,R22*%
X142150900Y-93635300D03*
D26*
%TO.N,Net-(D6-Pad2)*%
X144690900Y-93635300D03*
%TD*%
D14*
%TO.N,+3V3*%
%TO.C,R28*%
X142295000Y-108788400D03*
D26*
%TO.N,Net-(IC4-Pad3)*%
X139755000Y-108788400D03*
%TD*%
D14*
%TO.N,Net-(Q12-Pad1)*%
%TO.C,R20*%
X160459300Y-89971000D03*
D26*
%TO.N,Net-(Q11-Pad3)*%
X162999300Y-89971000D03*
%TD*%
D14*
%TO.N,+VDC*%
%TO.C,R19*%
X155096800Y-90020800D03*
D26*
%TO.N,Net-(Q12-Pad1)*%
X157636800Y-90020800D03*
%TD*%
D14*
%TO.N,/Zone4IO/ZoneInput*%
%TO.C,R35*%
X190329000Y-80096300D03*
D26*
%TO.N,Net-(D8-Pad2)*%
X190329000Y-82636300D03*
%TD*%
D14*
%TO.N,Z2*%
%TO.C,R10*%
X107804100Y-90285900D03*
D26*
%TO.N,GND*%
X110344100Y-90285900D03*
%TD*%
D31*
%TO.N,/Zone3IO/ZoneInput*%
%TO.C,D6*%
X142032800Y-90398200D03*
D32*
%TO.N,Net-(D6-Pad2)*%
X152192800Y-90398200D03*
%TD*%
D14*
%TO.N,+3V3*%
%TO.C,R32*%
X88612600Y-112140600D03*
D26*
%TO.N,D36*%
X88612600Y-114680600D03*
%TD*%
D14*
%TO.N,+3V3*%
%TO.C,R38*%
X102042400Y-107114000D03*
D26*
%TO.N,D22*%
X104582400Y-107114000D03*
%TD*%
D14*
%TO.N,D32*%
%TO.C,R34*%
X57889400Y-114568900D03*
D26*
%TO.N,GND*%
X60429400Y-114568900D03*
%TD*%
D36*
%TO.N,GND*%
X175398000Y-94105800D03*
X125284100Y-98667300D03*
X125284100Y-100801900D03*
X115030600Y-115495900D03*
X110681000Y-85364200D03*
%TO.N,+VDC*%
X67496700Y-96478900D03*
%TO.N,+3V3*%
X107153900Y-109240800D03*
%TO.N,/InputIsolation/1in*%
X123475000Y-120266400D03*
X90004700Y-117427600D03*
X132708600Y-115996500D03*
X125054800Y-115996500D03*
%TO.N,/InputIsolation/3in*%
X132890900Y-103319900D03*
X138028300Y-103153700D03*
%TO.N,/InputIsolation/4in*%
X134195600Y-96269700D03*
%TO.N,D21*%
X102620300Y-96568600D03*
X108780100Y-103103500D03*
X108779000Y-109352300D03*
X109822200Y-110805700D03*
%TO.N,D22*%
X113425700Y-98899100D03*
%TO.N,D36*%
X119739455Y-117355526D03*
X119718899Y-112385721D03*
%TO.N,Net-(IC4-Pad3)*%
X134572300Y-109621100D03*
%TO.N,Net-(IC4-Pad5)*%
X134872900Y-105307300D03*
%TO.N,Net-(IC4-Pad7)*%
X135103600Y-98252600D03*
%TO.N,D23*%
X59405200Y-117314900D03*
%TO.N,D19*%
X91082000Y-95292200D03*
%TO.N,D18*%
X108160700Y-115490300D03*
%TO.N,D35*%
X125538200Y-120441600D03*
X125779900Y-108959600D03*
%TO.N,Net-(D8-Pad2)*%
X154634400Y-102151900D03*
%TO.N,RX*%
X109495100Y-91655700D03*
%TO.N,D34*%
X92644600Y-125091200D03*
X123605500Y-123791600D03*
X129920800Y-114701100D03*
X79931300Y-124851400D03*
%TO.N,D17*%
X128316400Y-120643300D03*
%TO.N,Z3*%
X153899200Y-104401300D03*
X110110722Y-115112344D03*
%TO.N,Z4*%
X152205800Y-103122600D03*
X110038196Y-113843478D03*
%TO.N,Z5*%
X109797799Y-112729606D03*
%TO.N,Z6*%
X111397062Y-111476356D03*
%TO.N,Z7*%
X108203776Y-111142231D03*
%TO.N,Z8*%
X104450300Y-110778200D03*
X132447500Y-108633500D03*
%TD*%
D37*
%TO.N,GND*%
X106817000Y-107915500D02*
X114281100Y-107915500D01*
D38*
X169965000Y-102353000D02*
X169965000Y-99538400D01*
D37*
X101592400Y-114747200D02*
X101637700Y-114701900D01*
D38*
X169965000Y-105168000D02*
X169965000Y-103760500D01*
D37*
X125284100Y-98667300D02*
X125284100Y-100801900D01*
X116307900Y-107013800D02*
X115182800Y-107013800D01*
X125284100Y-100801900D02*
X123114800Y-100801900D01*
D38*
X175398000Y-94105800D02*
X178126000Y-91377800D01*
X169965000Y-103760500D02*
X169965000Y-102353000D01*
D37*
X169965000Y-103760500D02*
X169965100Y-103760600D01*
X121982900Y-101933800D02*
X116307900Y-101933800D01*
X100432100Y-108701700D02*
X100489500Y-108759100D01*
D38*
X169965000Y-99538400D02*
X175398000Y-94105800D01*
D37*
X169965000Y-102353000D02*
X169965000Y-103760500D01*
X99307000Y-108701700D02*
X100432100Y-108701700D01*
X102762800Y-114701900D02*
X101637700Y-114701900D01*
X105973400Y-108759100D02*
X106817000Y-107915500D01*
X123114800Y-100801900D02*
X121982900Y-101933800D01*
X98113700Y-114747200D02*
X101592400Y-114747200D01*
X114281100Y-107915500D02*
X115182800Y-107013800D01*
X169965100Y-103760600D02*
X169965100Y-105167700D01*
X100489500Y-108759100D02*
X105973400Y-108759100D01*
X169965000Y-103760500D02*
X169965000Y-105168000D01*
%TO.N,+VDC*%
X162729000Y-121042300D02*
X160189000Y-121042300D01*
X165269000Y-121042300D02*
X162729000Y-121042300D01*
X170349000Y-121042300D02*
X167809000Y-121042300D01*
X167809000Y-121042300D02*
X165269000Y-121042300D01*
D39*
%TO.N,/Zone1IO/ZoneOutput*%
X69149700Y-82379600D02*
X69149700Y-81021900D01*
X69841600Y-80330100D02*
X78331100Y-80330100D01*
X78331100Y-80330100D02*
X83061000Y-85060000D01*
X69149700Y-81021900D02*
X69841600Y-80330100D01*
%TO.N,/Zone2IO/ZoneOutput*%
X98568600Y-82267600D02*
X98568600Y-80964600D01*
X108744000Y-80262700D02*
X113541000Y-85060000D01*
X99270500Y-80262700D02*
X108744000Y-80262700D01*
X98568600Y-80964600D02*
X99270500Y-80262700D01*
%TO.N,/Zone4IO/ZoneOutput*%
X159689000Y-82267600D02*
X159689000Y-82002600D01*
X159689000Y-80909900D02*
X160543000Y-80056500D01*
X159689000Y-81737500D02*
X159689000Y-80909900D01*
D37*
X159689000Y-82002600D02*
X159689200Y-82002800D01*
X159689200Y-82002800D02*
X159689200Y-82267600D01*
D39*
X159689000Y-82002600D02*
X159689000Y-81737700D01*
D37*
X159689000Y-81737500D02*
X159689000Y-81737700D01*
D39*
X159689000Y-81737700D02*
X159689000Y-81737500D01*
D37*
X159689000Y-81737700D02*
X159689000Y-82002600D01*
D39*
X169497000Y-80056500D02*
X174501000Y-85060000D01*
D37*
X159689000Y-82002600D02*
X159689000Y-82267600D01*
D39*
X160543000Y-80056500D02*
X169497000Y-80056500D01*
%TO.N,/Zone3IO/ZoneOutput*%
X139297000Y-80336400D02*
X144021000Y-85060000D01*
D37*
X128546000Y-81737800D02*
X128546000Y-82002700D01*
D39*
X128546000Y-82002700D02*
X128546000Y-81737800D01*
D37*
X128546000Y-81737500D02*
X128546000Y-81737800D01*
D39*
X129119000Y-80336400D02*
X139297000Y-80336400D01*
X128546000Y-81737800D02*
X128546000Y-81737500D01*
D37*
X128546000Y-82002700D02*
X128546000Y-82267600D01*
D39*
X128546000Y-80909900D02*
X129119000Y-80336400D01*
X128546000Y-82267600D02*
X128546000Y-82002700D01*
X128546000Y-81737500D02*
X128546000Y-80909900D01*
D37*
X128545700Y-82003000D02*
X128545700Y-82267600D01*
X128546000Y-82002700D02*
X128545700Y-82003000D01*
%TO.N,+3V3*%
X102042400Y-102441800D02*
X103710600Y-104110000D01*
X155109000Y-121042300D02*
X157649000Y-121042300D01*
X94908400Y-110635100D02*
X93402900Y-112140600D01*
X106341600Y-110053100D02*
X100896600Y-110053100D01*
X88612600Y-112140600D02*
X83822200Y-112140600D01*
X123927900Y-96853800D02*
X125053000Y-96853800D01*
X152569000Y-121042300D02*
X155109000Y-121042300D01*
X103710600Y-104110000D02*
X110516400Y-104110000D01*
X78229100Y-112943300D02*
X79031800Y-112140600D01*
X115777900Y-100663800D02*
X118992800Y-100663800D01*
X150029000Y-121042300D02*
X152569000Y-121042300D01*
X125053000Y-96853800D02*
X125194000Y-96994800D01*
X100896600Y-110053100D02*
X100314700Y-110635000D01*
X125194000Y-96994800D02*
X140080100Y-96994800D01*
X112331700Y-104110000D02*
X115777900Y-100663800D01*
X110516400Y-105882500D02*
X110516400Y-104110000D01*
X79031800Y-112140600D02*
X83822200Y-112140600D01*
X118992800Y-100663800D02*
X122802800Y-96853800D01*
X140080100Y-96994800D02*
X142295000Y-99209700D01*
X62580600Y-114579500D02*
X64216800Y-112943300D01*
X123927900Y-96853800D02*
X122802800Y-96853800D01*
X94908400Y-110635000D02*
X94908400Y-110635100D01*
X88612600Y-112140600D02*
X93402900Y-112140600D01*
X64216800Y-112943300D02*
X78229100Y-112943300D01*
X107153900Y-109240800D02*
X106341600Y-110053100D01*
X110516400Y-104110000D02*
X112331700Y-104110000D01*
X100314700Y-110635000D02*
X94908400Y-110635000D01*
%TO.N,Net-(D2-Pad2)*%
X83311800Y-96117400D02*
X85283200Y-94146000D01*
X85283200Y-94146000D02*
X85283200Y-93912900D01*
X80376900Y-103682000D02*
X80376900Y-101327000D01*
X86408300Y-93912900D02*
X85283200Y-93912900D01*
X80376900Y-101327000D02*
X77560700Y-98510800D01*
X77560700Y-97283000D02*
X78726300Y-96117400D01*
X77560700Y-98510800D02*
X77560700Y-97283000D01*
X78726300Y-96117400D02*
X83311800Y-96117400D01*
%TO.N,Net-(D4-Pad2)*%
X110219600Y-92593300D02*
X113831800Y-92593300D01*
X85972900Y-103677400D02*
X85972900Y-102602300D01*
X102870000Y-97361000D02*
X107400100Y-92830900D01*
X114736600Y-93498100D02*
X114736600Y-93731200D01*
X107400100Y-92830900D02*
X109982000Y-92830900D01*
X113831800Y-92593300D02*
X114736600Y-93498100D01*
X101794400Y-99318700D02*
X102870000Y-98243100D01*
X102870000Y-98243100D02*
X102870000Y-97361000D01*
X89256500Y-99318700D02*
X101794400Y-99318700D01*
X85972900Y-102602300D02*
X89256500Y-99318700D01*
X109982000Y-92830900D02*
X110219600Y-92593300D01*
X115861700Y-93731200D02*
X114736600Y-93731200D01*
%TO.N,Net-(D6-Pad2)*%
X110490000Y-97335500D02*
X110490000Y-98252200D01*
X93347900Y-100812100D02*
X91570800Y-102589200D01*
X91570800Y-103664300D02*
X91570800Y-102589200D01*
X143565800Y-93916600D02*
X142307300Y-95175100D01*
X143565800Y-93635300D02*
X143565800Y-93916600D01*
X107930100Y-100812100D02*
X93347900Y-100812100D01*
X142307300Y-95175100D02*
X112650400Y-95175100D01*
X144690900Y-93635300D02*
X143565800Y-93635300D01*
X112650400Y-95175100D02*
X110490000Y-97335500D01*
X110490000Y-98252200D02*
X107930100Y-100812100D01*
%TO.N,/InputIsolation/1in*%
X122615400Y-119406800D02*
X91983900Y-119406800D01*
X132708600Y-115996500D02*
X125054800Y-115996500D01*
X91983900Y-119406800D02*
X90004700Y-117427600D01*
X123475000Y-120266400D02*
X122615400Y-119406800D01*
%TO.N,/InputIsolation/3in*%
X109246400Y-105520000D02*
X108465800Y-104739400D01*
X114935300Y-103319900D02*
X111240000Y-107015200D01*
X110045900Y-107015200D02*
X109246400Y-106215700D01*
X94766000Y-104739400D02*
X93690900Y-103664300D01*
X108465800Y-104739400D02*
X94766000Y-104739400D01*
X111240000Y-107015200D02*
X110045900Y-107015200D01*
X132890900Y-103319900D02*
X114935300Y-103319900D01*
X109246400Y-106215700D02*
X109246400Y-105520000D01*
X92840800Y-103664300D02*
X93690900Y-103664300D01*
%TO.N,/InputIsolation/4in*%
X113118300Y-98124500D02*
X109942300Y-101300500D01*
X134195600Y-96269700D02*
X133582200Y-95656300D01*
X101542100Y-101300500D02*
X99322700Y-103519900D01*
X133582200Y-95656300D02*
X123092500Y-95656300D01*
X98472600Y-103664300D02*
X99322700Y-103664300D01*
X120624300Y-98124500D02*
X113118300Y-98124500D01*
X109942300Y-101300500D02*
X101542100Y-101300500D01*
X123092500Y-95656300D02*
X120624300Y-98124500D01*
X99322700Y-103519900D02*
X99322700Y-103664300D01*
%TO.N,D39*%
X74835100Y-122822700D02*
X74835100Y-123190000D01*
X91726400Y-114680600D02*
X88920700Y-117486300D01*
X85241200Y-117486300D02*
X82550000Y-120177500D01*
X92277800Y-114680600D02*
X91726400Y-114680600D01*
X82550000Y-121080900D02*
X81616000Y-122014900D01*
X81616000Y-122014900D02*
X75642900Y-122014900D01*
X93402900Y-114680600D02*
X92277800Y-114680600D01*
X73660000Y-123190000D02*
X74835100Y-123190000D01*
X75642900Y-122014900D02*
X74835100Y-122822700D01*
X82550000Y-120177500D02*
X82550000Y-121080900D01*
X88920700Y-117486300D02*
X85241200Y-117486300D01*
%TO.N,D21*%
X116307900Y-99393800D02*
X115182800Y-99393800D01*
X79915100Y-97424700D02*
X80771200Y-96568600D01*
X108779000Y-109352300D02*
X108779000Y-109762500D01*
X104582400Y-102441800D02*
X105707500Y-102441800D01*
X108780100Y-103103500D02*
X108780100Y-102441800D01*
X112134800Y-102441800D02*
X115182800Y-99393800D01*
X80771200Y-96568600D02*
X102620300Y-96568600D01*
X108780100Y-102441800D02*
X105707500Y-102441800D01*
X79915100Y-97790000D02*
X79915100Y-97424700D01*
X108780100Y-102441800D02*
X112134800Y-102441800D01*
X108779000Y-109762500D02*
X109822200Y-110805700D01*
X78740000Y-97790000D02*
X79915100Y-97790000D01*
%TO.N,/Zone4IO/ZoneInput*%
X174235800Y-76184700D02*
X169141100Y-71090000D01*
X185558100Y-76184700D02*
X174235800Y-76184700D01*
X167516000Y-71090000D02*
X169141100Y-71090000D01*
%TO.N,D22*%
X72295100Y-98621000D02*
X79663000Y-105988900D01*
X102613600Y-105988900D02*
X103457300Y-106832600D01*
X71120000Y-97790000D02*
X72295100Y-97790000D01*
X103457300Y-106832600D02*
X103457300Y-107114000D01*
X72295100Y-97790000D02*
X72295100Y-98621000D01*
X104582400Y-107114000D02*
X103457300Y-107114000D01*
X79663000Y-105988900D02*
X102613600Y-105988900D01*
%TO.N,Net-(IC3-Pad3)*%
X72642300Y-109499500D02*
X73376700Y-108765100D01*
X70520600Y-109499500D02*
X72642300Y-109499500D01*
%TO.N,Net-(IC4-Pad5)*%
X137321600Y-105307300D02*
X138629900Y-103999000D01*
X134872900Y-105307300D02*
X137321600Y-105307300D01*
X139755000Y-103999000D02*
X138629900Y-103999000D01*
%TO.N,Net-(IC4-Pad7)*%
X137672800Y-98252600D02*
X138629900Y-99209700D01*
X139755000Y-99209700D02*
X138629900Y-99209700D01*
X135103600Y-98252600D02*
X137672800Y-98252600D01*
%TO.N,D27*%
X93437900Y-124380000D02*
X92615100Y-123557200D01*
X126332900Y-123268200D02*
X126131200Y-123066500D01*
X113817300Y-123066500D02*
X112503800Y-124380000D01*
X126131200Y-123066500D02*
X113817300Y-123066500D01*
X92615100Y-123557200D02*
X92615100Y-123190000D01*
X112503800Y-124380000D02*
X93437900Y-124380000D01*
X91440000Y-123190000D02*
X92615100Y-123190000D01*
%TO.N,D26*%
X92664100Y-126144300D02*
X90075100Y-123555300D01*
X90075100Y-123555300D02*
X90075100Y-123190000D01*
X153933900Y-123949500D02*
X151739100Y-126144300D01*
X153933900Y-123582300D02*
X153933900Y-123949500D01*
X155109000Y-123582300D02*
X153933900Y-123582300D01*
X151739100Y-126144300D02*
X92664100Y-126144300D01*
X88900000Y-123190000D02*
X90075100Y-123190000D01*
%TO.N,D23*%
X153747800Y-126611700D02*
X67729900Y-126611700D01*
X156327300Y-123099700D02*
X156327300Y-124032200D01*
X153744200Y-122407100D02*
X155634700Y-122407100D01*
X152569000Y-123582300D02*
X153744200Y-122407100D01*
X59405200Y-118287000D02*
X59405200Y-117314900D01*
X156327300Y-124032200D02*
X153747800Y-126611700D01*
X67729900Y-126611700D02*
X59405200Y-118287000D01*
X155634700Y-122407100D02*
X156327300Y-123099700D01*
%TO.N,D19*%
X148835800Y-111350600D02*
X148835800Y-121581200D01*
X148405800Y-92141500D02*
X156431200Y-100166900D01*
X109795500Y-92380800D02*
X110034800Y-92141500D01*
X91082000Y-95292200D02*
X93993400Y-92380800D01*
X148835800Y-121581200D02*
X149661800Y-122407200D01*
X149661800Y-122407200D02*
X150029000Y-122407200D01*
X93993400Y-92380800D02*
X109795500Y-92380800D01*
X156431200Y-100166900D02*
X156431200Y-103755200D01*
X150029000Y-123582300D02*
X150029000Y-122407200D01*
X110034800Y-92141500D02*
X148405800Y-92141500D01*
X156431200Y-103755200D02*
X148835800Y-111350600D01*
%TO.N,D18*%
X111176800Y-118506400D02*
X108160700Y-115490300D01*
X146313900Y-123582300D02*
X146313900Y-123949500D01*
X128133100Y-121488000D02*
X126713400Y-120068300D01*
X126713400Y-119954700D02*
X125265100Y-118506400D01*
X146313900Y-123949500D02*
X145030300Y-125233100D01*
X147489000Y-123582300D02*
X146313900Y-123582300D01*
X134138400Y-125233100D02*
X130393300Y-121488000D01*
X130393300Y-121488000D02*
X128133100Y-121488000D01*
X126713400Y-120068300D02*
X126713400Y-119954700D01*
X145030300Y-125233100D02*
X134138400Y-125233100D01*
X125265100Y-118506400D02*
X111176800Y-118506400D01*
%TO.N,Net-(D1-Pad1)*%
X126263300Y-120141200D02*
X125078600Y-118956500D01*
X127647800Y-123268200D02*
X127647800Y-121886900D01*
X109131000Y-118956500D02*
X103606400Y-113431900D01*
X127647800Y-121886900D02*
X126263300Y-120502400D01*
X125078600Y-118956500D02*
X109131000Y-118956500D01*
X126263300Y-120502400D02*
X126263300Y-120141200D01*
X128872900Y-123268200D02*
X127647800Y-123268200D01*
X103606400Y-113431900D02*
X99338400Y-113431900D01*
X99338400Y-113431900D02*
X98113700Y-112207200D01*
%TO.N,D35*%
X79915100Y-123555300D02*
X80743500Y-124383700D01*
X79915100Y-123190000D02*
X79915100Y-123555300D01*
X87630000Y-122795900D02*
X88600700Y-121825200D01*
X88600700Y-121825200D02*
X124154600Y-121825200D01*
X87630000Y-123678700D02*
X87630000Y-122795900D01*
X86925000Y-124383700D02*
X87630000Y-123678700D01*
X80743500Y-124383700D02*
X86925000Y-124383700D01*
X78740000Y-123190000D02*
X79915100Y-123190000D01*
X124154600Y-121825200D02*
X125538200Y-120441600D01*
%TO.N,D32*%
X60130300Y-116809800D02*
X57889400Y-114568900D01*
X80104900Y-120650000D02*
X80104900Y-120282700D01*
X76632000Y-116809800D02*
X60130300Y-116809800D01*
X80104900Y-120282700D02*
X76632000Y-116809800D01*
X81280000Y-120650000D02*
X80104900Y-120650000D01*
%TO.N,D33*%
X70520600Y-114579500D02*
X75348900Y-114579500D01*
X75348900Y-114579500D02*
X75859900Y-114068500D01*
%TO.N,Net-(D8-Pad2)*%
X137381000Y-106080200D02*
X131900300Y-106080200D01*
X137831100Y-105630100D02*
X137381000Y-106080200D01*
X100710100Y-109603000D02*
X100477300Y-109835800D01*
X148450300Y-105630100D02*
X137831100Y-105630100D01*
X125348500Y-108365600D02*
X107003500Y-108365600D01*
X105766100Y-109603000D02*
X100710100Y-109603000D01*
X125479600Y-108234500D02*
X125348500Y-108365600D01*
X100477300Y-109835800D02*
X97901100Y-109835800D01*
X131900300Y-106080200D02*
X129746000Y-108234500D01*
X151928500Y-102151900D02*
X148450300Y-105630100D01*
X97901100Y-109835800D02*
X96767000Y-108701700D01*
X129746000Y-108234500D02*
X125479600Y-108234500D01*
X154634400Y-102151900D02*
X151928500Y-102151900D01*
X107003500Y-108365600D02*
X105766100Y-109603000D01*
%TO.N,RX*%
X88267100Y-88990500D02*
X85076900Y-92180700D01*
X109495100Y-91655700D02*
X99668300Y-91655700D01*
X85076900Y-92180700D02*
X81809300Y-92180700D01*
X97748500Y-88990500D02*
X88267100Y-88990500D01*
X99668300Y-91655700D02*
X98698100Y-90685500D01*
X81809300Y-92180700D02*
X76200000Y-97790000D01*
X98698100Y-90685500D02*
X98698100Y-89940100D01*
X98698100Y-89940100D02*
X97748500Y-88990500D01*
%TO.N,D34*%
X114028400Y-125091200D02*
X92644600Y-125091200D01*
X123605500Y-123791600D02*
X115328000Y-123791600D01*
X79931300Y-124851400D02*
X78671200Y-124851400D01*
X78671200Y-124851400D02*
X77375100Y-123555300D01*
X115328000Y-123791600D02*
X114028400Y-125091200D01*
X77375100Y-123555300D02*
X77375100Y-123190000D01*
X76200000Y-123190000D02*
X77375100Y-123190000D01*
%TO.N,D17*%
X143773900Y-123949500D02*
X142958100Y-124765300D01*
X142958100Y-124765300D02*
X134839000Y-124765300D01*
X130717000Y-120643300D02*
X128316400Y-120643300D01*
X144949000Y-123582300D02*
X143773900Y-123582300D01*
X134839000Y-124765300D02*
X130717000Y-120643300D01*
X143773900Y-123582300D02*
X143773900Y-123949500D01*
D38*
%TO.N,Net-(Q3-Pad1)*%
X72798600Y-90089300D02*
X75492500Y-87395400D01*
X75492500Y-87395400D02*
X75492500Y-86182400D01*
X75492500Y-86182400D02*
X71689700Y-82379600D01*
D40*
X70132100Y-90313600D02*
X72798600Y-90313600D01*
D38*
X72798600Y-90313600D02*
X72798600Y-90089300D01*
%TO.N,Net-(Q6-Pad1)*%
X101109000Y-82346800D02*
X101109000Y-82346400D01*
X101109000Y-82426100D02*
X101109000Y-82346800D01*
D40*
X99968100Y-90313600D02*
X102580000Y-90313600D01*
D38*
X103263000Y-90291400D02*
X106118000Y-87436000D01*
D40*
X102580000Y-90313600D02*
X102603000Y-90291400D01*
D38*
X101109000Y-82346400D02*
X101109000Y-82307000D01*
X106118000Y-87436000D02*
X101109000Y-82426100D01*
D37*
X102603000Y-90291400D02*
X102602700Y-90291400D01*
X101109000Y-82307000D02*
X101109000Y-82267600D01*
X101109000Y-82346800D02*
X101109000Y-82346400D01*
X101109000Y-82346400D02*
X101109000Y-82307000D01*
X101109000Y-82307000D02*
X101108600Y-82306600D01*
D38*
X101109000Y-82307000D02*
X101109000Y-82267600D01*
D37*
X106118500Y-87436000D02*
X106118000Y-87436000D01*
D38*
X102603000Y-90291400D02*
X103263000Y-90291400D01*
D37*
X101108600Y-82306600D02*
X101108600Y-82267600D01*
D38*
%TO.N,Net-(Q9-Pad1)*%
X135668600Y-87436000D02*
X135669000Y-87436000D01*
D37*
X131086000Y-82413800D02*
X131085700Y-82413500D01*
D38*
X131086000Y-82853100D02*
X131086000Y-82560300D01*
D40*
X129154500Y-90392400D02*
X131771000Y-90392400D01*
D38*
X134727000Y-87436000D02*
X135668600Y-87436000D01*
X131086000Y-82560000D02*
X131086000Y-82413800D01*
D37*
X131777400Y-90385900D02*
X131777000Y-90385900D01*
D40*
X131771000Y-90392400D02*
X131777000Y-90385900D01*
D37*
X131086000Y-82560000D02*
X131086000Y-82413800D01*
D38*
X131086000Y-82560300D02*
X131086000Y-82560000D01*
D37*
X131085700Y-82413500D02*
X131085700Y-82267600D01*
D38*
X131777000Y-90385900D02*
X134727000Y-87436000D01*
X135669000Y-87436000D02*
X131086000Y-82853100D01*
D37*
X131086000Y-82560300D02*
X131086000Y-82560000D01*
D38*
X131086000Y-82413800D02*
X131086000Y-82267600D01*
D37*
X131086000Y-82413800D02*
X131086000Y-82267600D01*
D38*
%TO.N,Net-(Q12-Pad1)*%
X166423000Y-87104200D02*
X167264000Y-87104200D01*
D37*
X166423000Y-87104200D02*
X167264000Y-87104200D01*
D38*
X160459000Y-89971000D02*
X163326000Y-87104200D01*
X164632700Y-84472600D02*
X162428000Y-82267600D01*
D37*
X162229200Y-82267600D02*
X163514300Y-82267600D01*
D38*
X163326000Y-87104200D02*
X165582000Y-87104200D01*
D37*
X167264000Y-87104200D02*
X167264300Y-87104200D01*
X165582000Y-87104200D02*
X166423000Y-87104200D01*
D38*
X165582000Y-87104200D02*
X166423000Y-87104200D01*
X167264000Y-87104200D02*
X164632700Y-84472600D01*
D40*
X157637000Y-90020800D02*
X160409000Y-90020800D01*
D37*
X164632700Y-84472600D02*
X164434200Y-84472600D01*
X164434200Y-84472600D02*
X163514300Y-83552700D01*
X163514300Y-83552700D02*
X163514300Y-82267600D01*
X160459300Y-89971000D02*
X160459000Y-89971000D01*
D40*
X160409000Y-90020800D02*
X160459000Y-89971000D01*
D37*
X157637000Y-90020800D02*
X157636800Y-90020800D01*
%TO.N,Net-(IC3-Pad5)*%
X71168400Y-107882300D02*
X71522200Y-107528500D01*
X63503400Y-107882300D02*
X71168400Y-107882300D01*
X111464800Y-107465400D02*
X113298900Y-105631300D01*
X151015100Y-102428600D02*
X152821700Y-100622000D01*
X62580600Y-106959500D02*
X63503400Y-107882300D01*
X134823200Y-102428600D02*
X151015100Y-102428600D01*
X131620500Y-105631300D02*
X134823200Y-102428600D01*
X100953100Y-108267400D02*
X105828400Y-108267400D01*
X100214200Y-107528500D02*
X100953100Y-108267400D01*
X113298900Y-105631300D02*
X131620500Y-105631300D01*
X105828400Y-108267400D02*
X106630400Y-107465400D01*
X106630400Y-107465400D02*
X111464800Y-107465400D01*
X71522200Y-107528500D02*
X100214200Y-107528500D01*
%TO.N,Z3*%
X134054800Y-112093800D02*
X139618300Y-106530300D01*
X123927900Y-112093800D02*
X122802800Y-112093800D01*
X151770200Y-106530300D02*
X153899200Y-104401300D01*
X123927900Y-112093800D02*
X134054800Y-112093800D01*
X111899566Y-113323500D02*
X112054107Y-113323500D01*
X139618300Y-106530300D02*
X151770200Y-106530300D01*
X121573100Y-113323500D02*
X122802800Y-112093800D01*
X110110722Y-115112344D02*
X111899566Y-113323500D01*
X112054107Y-113323500D02*
X121573100Y-113323500D01*
%TO.N,Z4*%
X129352700Y-109684700D02*
X125183900Y-109684700D01*
X125183900Y-109684700D02*
X125053000Y-109553800D01*
X131259200Y-107778200D02*
X129352700Y-109684700D01*
X123927900Y-109553800D02*
X125053000Y-109553800D01*
X152205800Y-103122600D02*
X149248200Y-106080200D01*
X149248200Y-106080200D02*
X138017600Y-106080200D01*
X136319600Y-107778200D02*
X131259200Y-107778200D01*
X138017600Y-106080200D02*
X136319600Y-107778200D01*
%TO.N,Z8*%
X115177800Y-110679100D02*
X113563900Y-112293000D01*
X104450300Y-110778200D02*
X105472237Y-111800137D01*
X105472237Y-111814668D02*
X105524311Y-111866742D01*
X113563900Y-112293000D02*
X110764257Y-112293000D01*
X110337999Y-111866742D02*
X110764257Y-112293000D01*
X132447500Y-108633500D02*
X130401900Y-110679100D01*
X130401900Y-110679100D02*
X115177800Y-110679100D01*
X105472237Y-111800137D02*
X105472237Y-111814668D01*
X105524311Y-111866742D02*
X110337999Y-111866742D01*
%TD*%
M02*
