%TF.GenerationSoftware,KiCad,Pcbnew,7.0.1*%
%TF.CreationDate,2023-05-06T14:55:35-07:00*%
%TF.ProjectId,MakeItRain,4d616b65-4974-4526-9169-6e2e6b696361,rev?*%
%TF.SameCoordinates,Original*%
%TF.FileFunction,Copper,L2,Inr*%
%TF.FilePolarity,Positive*%
%FSLAX46Y46*%
G04 Gerber Fmt 4.6, Leading zero omitted, Abs format (unit mm)*
G04 Created by KiCad (PCBNEW 7.0.1) date 2023-05-06 14:55:35*
%MOMM*%
%LPD*%
G01*
G04 APERTURE LIST*
%TA.AperFunction,ComponentPad*%
%ADD10C,1.600000*%
%TD*%
%TA.AperFunction,ComponentPad*%
%ADD11R,2.600000X2.600000*%
%TD*%
%TA.AperFunction,ComponentPad*%
%ADD12O,2.600000X2.600000*%
%TD*%
%TA.AperFunction,ComponentPad*%
%ADD13R,1.800000X1.800000*%
%TD*%
%TA.AperFunction,ComponentPad*%
%ADD14C,1.800000*%
%TD*%
%TA.AperFunction,ComponentPad*%
%ADD15R,1.700000X1.700000*%
%TD*%
%TA.AperFunction,ComponentPad*%
%ADD16O,1.700000X1.700000*%
%TD*%
%TA.AperFunction,ComponentPad*%
%ADD17C,2.600000*%
%TD*%
%TA.AperFunction,ComponentPad*%
%ADD18R,1.920000X1.920000*%
%TD*%
%TA.AperFunction,ComponentPad*%
%ADD19C,1.920000*%
%TD*%
%TA.AperFunction,ComponentPad*%
%ADD20R,1.050000X1.500000*%
%TD*%
%TA.AperFunction,ComponentPad*%
%ADD21O,1.050000X1.500000*%
%TD*%
%TA.AperFunction,ComponentPad*%
%ADD22R,1.150000X1.150000*%
%TD*%
%TA.AperFunction,ComponentPad*%
%ADD23C,1.150000*%
%TD*%
%TA.AperFunction,ComponentPad*%
%ADD24O,1.600000X1.600000*%
%TD*%
%TA.AperFunction,ComponentPad*%
%ADD25R,1.500000X1.050000*%
%TD*%
%TA.AperFunction,ComponentPad*%
%ADD26O,1.500000X1.050000*%
%TD*%
%TA.AperFunction,ComponentPad*%
%ADD27C,1.440000*%
%TD*%
%TA.AperFunction,ComponentPad*%
%ADD28R,1.600000X1.600000*%
%TD*%
%TA.AperFunction,ComponentPad*%
%ADD29R,2.200000X2.200000*%
%TD*%
%TA.AperFunction,ComponentPad*%
%ADD30O,2.200000X2.200000*%
%TD*%
%TA.AperFunction,ComponentPad*%
%ADD31R,1.500000X1.500000*%
%TD*%
%TA.AperFunction,ComponentPad*%
%ADD32C,1.500000*%
%TD*%
%TA.AperFunction,ComponentPad*%
%ADD33C,2.100000*%
%TD*%
%TA.AperFunction,ViaPad*%
%ADD34C,0.800000*%
%TD*%
%TA.AperFunction,Conductor*%
%ADD35C,0.508000*%
%TD*%
%TA.AperFunction,Conductor*%
%ADD36C,0.250000*%
%TD*%
%TA.AperFunction,Conductor*%
%ADD37C,1.524000*%
%TD*%
%TA.AperFunction,Conductor*%
%ADD38C,0.762000*%
%TD*%
%TA.AperFunction,Conductor*%
%ADD39C,0.889000*%
%TD*%
%TA.AperFunction,Conductor*%
%ADD40C,1.016000*%
%TD*%
G04 APERTURE END LIST*
D10*
%TO.N,/Zone1IO/ZoneInput*%
%TO.C,C2*%
X89109000Y-69659700D03*
%TO.N,GND*%
X89109000Y-74659700D03*
%TD*%
%TO.N,/Zone2IO/ZoneInput*%
%TO.C,C3*%
X119449600Y-64825000D03*
%TO.N,GND*%
X119449600Y-69825000D03*
%TD*%
%TO.N,/Zone3IO/ZoneInput*%
%TO.C,C4*%
X151357900Y-66638300D03*
%TO.N,GND*%
X151357900Y-71638300D03*
%TD*%
D11*
%TO.N,/Zone1IO/ZoneOutput*%
%TO.C,D3*%
X83061000Y-85060000D03*
D12*
%TO.N,GND*%
X83061000Y-69820000D03*
%TD*%
D11*
%TO.N,/Zone2IO/ZoneOutput*%
%TO.C,D5*%
X113541000Y-85060000D03*
D12*
%TO.N,GND*%
X113541000Y-69820000D03*
%TD*%
D11*
%TO.N,/Zone4IO/ZoneOutput*%
%TO.C,D7*%
X174501000Y-85060000D03*
D12*
%TO.N,GND*%
X174501000Y-69820000D03*
%TD*%
D11*
%TO.N,/Zone3IO/ZoneOutput*%
%TO.C,D9*%
X144021000Y-85060000D03*
D12*
%TO.N,GND*%
X144021000Y-69820000D03*
%TD*%
D13*
%TO.N,Net-(D1-K)*%
%TO.C,D1*%
X128872900Y-123268200D03*
D14*
%TO.N,D27*%
X126332900Y-123268200D03*
%TD*%
D15*
%TO.N,+3V3*%
%TO.C,J2*%
X66040000Y-120650000D03*
D16*
X66040000Y-123190000D03*
%TO.N,EN*%
X68580000Y-120650000D03*
X68580000Y-123190000D03*
%TO.N,D36*%
X71120000Y-120650000D03*
X71120000Y-123190000D03*
%TO.N,D39*%
X73660000Y-120650000D03*
X73660000Y-123190000D03*
%TO.N,D34*%
X76200000Y-120650000D03*
X76200000Y-123190000D03*
%TO.N,D35*%
X78740000Y-120650000D03*
X78740000Y-123190000D03*
%TO.N,D32*%
X81280000Y-120650000D03*
X81280000Y-123190000D03*
%TO.N,D33*%
X83820000Y-120650000D03*
X83820000Y-123190000D03*
%TO.N,D25*%
X86360000Y-120650000D03*
X86360000Y-123190000D03*
%TO.N,D26*%
X88900000Y-120650000D03*
X88900000Y-123190000D03*
%TO.N,D27*%
X91440000Y-120650000D03*
X91440000Y-123190000D03*
%TO.N,D14*%
X93980000Y-120650000D03*
X93980000Y-123190000D03*
%TO.N,D12*%
X96520000Y-120650000D03*
X96520000Y-123190000D03*
%TO.N,GND*%
X99060000Y-120650000D03*
X99060000Y-123190000D03*
%TO.N,unconnected-(J2-Pin_29-Pad29)*%
X101600000Y-120650000D03*
%TO.N,unconnected-(J2-Pin_30-Pad30)*%
X101600000Y-123190000D03*
%TO.N,unconnected-(J2-Pin_31-Pad31)*%
X104140000Y-120650000D03*
%TO.N,unconnected-(J2-Pin_32-Pad32)*%
X104140000Y-123190000D03*
%TO.N,unconnected-(J2-Pin_33-Pad33)*%
X106680000Y-120650000D03*
%TO.N,unconnected-(J2-Pin_34-Pad34)*%
X106680000Y-123190000D03*
%TO.N,unconnected-(J2-Pin_35-Pad35)*%
X109220000Y-120650000D03*
%TO.N,unconnected-(J2-Pin_36-Pad36)*%
X109220000Y-123190000D03*
%TO.N,Net-(J2-Pin_37)*%
X111760000Y-120650000D03*
X111760000Y-123190000D03*
%TD*%
D15*
%TO.N,GND*%
%TO.C,J3*%
X66040000Y-97790000D03*
D16*
%TO.N,D23*%
X68580000Y-97790000D03*
%TO.N,D22*%
X71120000Y-97790000D03*
%TO.N,TX*%
X73660000Y-97790000D03*
%TO.N,RX*%
X76200000Y-97790000D03*
%TO.N,D21*%
X78740000Y-97790000D03*
%TO.N,GND*%
X81280000Y-97790000D03*
%TO.N,D19*%
X83820000Y-97790000D03*
%TO.N,D18*%
X86360000Y-97790000D03*
%TO.N,D5*%
X88900000Y-97790000D03*
%TO.N,D17*%
X91440000Y-97790000D03*
%TO.N,D16*%
X93980000Y-97790000D03*
%TO.N,D4*%
X96520000Y-97790000D03*
%TO.N,D0*%
X99060000Y-97790000D03*
%TO.N,D2*%
X101600000Y-97790000D03*
%TO.N,D15*%
X104140000Y-97790000D03*
%TO.N,/SD1*%
X106680000Y-97790000D03*
%TO.N,/SDD*%
X109220000Y-97790000D03*
%TO.N,/CLK*%
X111760000Y-97790000D03*
%TD*%
D11*
%TO.N,Net-(P1-Pin_1)*%
%TO.C,P1*%
X178125700Y-96457800D03*
D17*
%TO.N,GND*%
X178125700Y-91377800D03*
%TD*%
D18*
%TO.N,Net-(Q3-Pad1)*%
%TO.C,Q3*%
X71689700Y-82379600D03*
D19*
%TO.N,/Zone1IO/ZoneOutput*%
X69149700Y-82379600D03*
%TO.N,+VDC*%
X66609700Y-82379600D03*
%TD*%
D18*
%TO.N,Net-(Q6-Pad1)*%
%TO.C,Q6*%
X101108600Y-82267600D03*
D19*
%TO.N,/Zone2IO/ZoneOutput*%
X98568600Y-82267600D03*
%TO.N,+VDC*%
X96028600Y-82267600D03*
%TD*%
D20*
%TO.N,GND*%
%TO.C,Q7*%
X90300800Y-103664300D03*
D21*
%TO.N,Net-(D6-A)*%
X91570800Y-103664300D03*
%TO.N,/InputIsolation/3in*%
X92840800Y-103664300D03*
%TD*%
D18*
%TO.N,Net-(Q9-Pad1)*%
%TO.C,Q9*%
X131085700Y-82267600D03*
D19*
%TO.N,/Zone3IO/ZoneOutput*%
X128545700Y-82267600D03*
%TO.N,+VDC*%
X126005700Y-82267600D03*
%TD*%
D18*
%TO.N,Net-(Q12-Pad1)*%
%TO.C,Q12*%
X162229200Y-82267600D03*
D19*
%TO.N,/Zone4IO/ZoneOutput*%
X159689200Y-82267600D03*
%TO.N,+VDC*%
X157149200Y-82267600D03*
%TD*%
D18*
%TO.N,Net-(Q13-Pad1)*%
%TO.C,Q13*%
X174341600Y-105164100D03*
D19*
%TO.N,Net-(P1-Pin_1)*%
X176881600Y-105164100D03*
%TO.N,Net-(Q13-Pad3)*%
X179421600Y-105164100D03*
%TD*%
D11*
%TO.N,/Zone2IO/ZoneInput*%
%TO.C,Z2*%
X106556000Y-71090000D03*
D17*
%TO.N,/Zone2IO/ZoneOutput*%
X101476000Y-71090000D03*
%TO.N,GND*%
X96396000Y-71090000D03*
%TD*%
D11*
%TO.N,/Zone3IO/ZoneInput*%
%TO.C,Z3*%
X137036000Y-71090000D03*
D17*
%TO.N,/Zone3IO/ZoneOutput*%
X131956000Y-71090000D03*
%TO.N,GND*%
X126876000Y-71090000D03*
%TD*%
D11*
%TO.N,/Zone4IO/ZoneInput*%
%TO.C,Z4*%
X167516000Y-71090000D03*
D17*
%TO.N,/Zone4IO/ZoneOutput*%
X162436000Y-71090000D03*
%TO.N,GND*%
X157356000Y-71090000D03*
%TD*%
D11*
%TO.N,/Zone1IO/ZoneInput*%
%TO.C,Z1*%
X76076000Y-71090000D03*
D17*
%TO.N,/Zone1IO/ZoneOutput*%
X70996000Y-71090000D03*
%TO.N,GND*%
X65916000Y-71090000D03*
%TD*%
D15*
%TO.N,+VDC*%
%TO.C,J1*%
X170349000Y-121042300D03*
D16*
%TO.N,TX*%
X170349000Y-123582300D03*
%TO.N,+VDC*%
X167809000Y-121042300D03*
%TO.N,RX*%
X167809000Y-123582300D03*
%TO.N,+VDC*%
X165269000Y-121042300D03*
%TO.N,Z8*%
X165269000Y-123582300D03*
%TO.N,+VDC*%
X162729000Y-121042300D03*
%TO.N,Z7*%
X162729000Y-123582300D03*
%TO.N,+VDC*%
X160189000Y-121042300D03*
%TO.N,Z6*%
X160189000Y-123582300D03*
%TO.N,+3V3*%
X157649000Y-121042300D03*
%TO.N,Z5*%
X157649000Y-123582300D03*
%TO.N,+3V3*%
X155109000Y-121042300D03*
%TO.N,D26*%
X155109000Y-123582300D03*
%TO.N,+3V3*%
X152569000Y-121042300D03*
%TO.N,D23*%
X152569000Y-123582300D03*
%TO.N,+3V3*%
X150029000Y-121042300D03*
%TO.N,D19*%
X150029000Y-123582300D03*
%TO.N,GND*%
X147489000Y-121042300D03*
%TO.N,D18*%
X147489000Y-123582300D03*
%TO.N,GND*%
X144949000Y-121042300D03*
%TO.N,D17*%
X144949000Y-123582300D03*
%TO.N,GND*%
X142409000Y-121042300D03*
%TO.N,D16*%
X142409000Y-123582300D03*
%TO.N,GND*%
X139869000Y-121042300D03*
%TO.N,D22*%
X139869000Y-123582300D03*
%TO.N,GND*%
X137329000Y-121042300D03*
%TO.N,D21*%
X137329000Y-123582300D03*
%TD*%
D22*
%TO.N,+VDC*%
%TO.C,Z5*%
X64792500Y-87395400D03*
D23*
%TO.N,Net-(Q3-Pad1)*%
X75492500Y-87395400D03*
%TD*%
D22*
%TO.N,+VDC*%
%TO.C,Z6*%
X95418500Y-87436000D03*
D23*
%TO.N,Net-(Q6-Pad1)*%
X106118500Y-87436000D03*
%TD*%
D22*
%TO.N,+VDC*%
%TO.C,Z8*%
X156564300Y-87104200D03*
D23*
%TO.N,Net-(Q12-Pad1)*%
X167264300Y-87104200D03*
%TD*%
D20*
%TO.N,GND*%
%TO.C,Q4*%
X84702900Y-103677400D03*
D21*
%TO.N,Net-(D4-A)*%
X85972900Y-103677400D03*
%TO.N,/InputIsolation/2in*%
X87242900Y-103677400D03*
%TD*%
D10*
%TO.N,+VDC*%
%TO.C,R23*%
X75572300Y-105627200D03*
D24*
%TO.N,Net-(IC1-+IN_A)*%
X73032300Y-105627200D03*
%TD*%
D10*
%TO.N,+3V3*%
%TO.C,R31*%
X83822200Y-112140600D03*
D24*
%TO.N,D35*%
X83822200Y-114680600D03*
%TD*%
D10*
%TO.N,Net-(Q9-Pad1)*%
%TO.C,R16*%
X131777400Y-90385900D03*
D24*
%TO.N,Net-(Q8-D)*%
X134317400Y-90385900D03*
%TD*%
D25*
%TO.N,GND*%
%TO.C,Q2*%
X77074800Y-81816600D03*
D26*
%TO.N,Z1*%
X77074800Y-83086600D03*
%TO.N,Net-(Q2-D)*%
X77074800Y-84356600D03*
%TD*%
D10*
%TO.N,Net-(IC1-+IN_A)*%
%TO.C,R24*%
X73376700Y-108765100D03*
D24*
%TO.N,GND*%
X75916700Y-108765100D03*
%TD*%
D10*
%TO.N,Net-(D2-A)*%
%TO.C,R5*%
X80372200Y-108702600D03*
D24*
%TO.N,GND*%
X82912200Y-108702600D03*
%TD*%
D27*
%TO.N,AuxVoltage*%
%TO.C,RV1*%
X150281700Y-100622000D03*
%TO.N,Net-(IC1-+INB)*%
X152821700Y-100622000D03*
%TO.N,GND*%
X155361700Y-100622000D03*
%TD*%
D15*
%TO.N,AuxVoltage*%
%TO.C,J4*%
X155598900Y-95333800D03*
%TD*%
D10*
%TO.N,+VDC*%
%TO.C,R15*%
X126614500Y-90392400D03*
D24*
%TO.N,Net-(Q9-Pad1)*%
X129154500Y-90392400D03*
%TD*%
D10*
%TO.N,Net-(D8-A)*%
%TO.C,R17*%
X96767000Y-108701700D03*
D24*
%TO.N,GND*%
X99307000Y-108701700D03*
%TD*%
D15*
%TO.N,+VDC*%
%TO.C,J5*%
X59207700Y-91310200D03*
D16*
%TO.N,+3V3*%
X59207700Y-88770200D03*
%TO.N,GND*%
X59207700Y-86230200D03*
%TD*%
D10*
%TO.N,Net-(D1-K)*%
%TO.C,R4*%
X98113700Y-112207200D03*
D24*
%TO.N,GND*%
X98113700Y-114747200D03*
%TD*%
D10*
%TO.N,Z4*%
%TO.C,R18*%
X179350700Y-81833100D03*
D24*
%TO.N,GND*%
X181890700Y-81833100D03*
%TD*%
D10*
%TO.N,+3V3*%
%TO.C,R29*%
X142295000Y-113577700D03*
D24*
%TO.N,Net-(IC2-A_1)*%
X139755000Y-113577700D03*
%TD*%
D10*
%TO.N,D33*%
%TO.C,R25*%
X75859900Y-114068500D03*
D24*
%TO.N,GND*%
X75859900Y-111528500D03*
%TD*%
D10*
%TO.N,+3V3*%
%TO.C,R33*%
X93402900Y-112140600D03*
D24*
%TO.N,D39*%
X93402900Y-114680600D03*
%TD*%
D10*
%TO.N,/Zone2IO/ZoneInput*%
%TO.C,R2*%
X113321700Y-93731200D03*
D24*
%TO.N,Net-(D4-A)*%
X115861700Y-93731200D03*
%TD*%
D10*
%TO.N,Z3*%
%TO.C,R14*%
X136973400Y-90405200D03*
D24*
%TO.N,GND*%
X139513400Y-90405200D03*
%TD*%
D25*
%TO.N,GND*%
%TO.C,Q11*%
X167687500Y-81543000D03*
D26*
%TO.N,Z4*%
X167687500Y-82813000D03*
%TO.N,Net-(Q11-D)*%
X167687500Y-84083000D03*
%TD*%
D10*
%TO.N,+3V3*%
%TO.C,R27*%
X142295000Y-103999000D03*
D24*
%TO.N,Net-(IC2-A_3)*%
X139755000Y-103999000D03*
%TD*%
D28*
%TO.N,D22*%
%TO.C,U1*%
X116307900Y-96853800D03*
D24*
%TO.N,D21*%
X116307900Y-99393800D03*
%TO.N,GND*%
X116307900Y-101933800D03*
X116307900Y-104473800D03*
X116307900Y-107013800D03*
%TO.N,Net-(U1-~{RESET})*%
X116307900Y-109553800D03*
%TO.N,unconnected-(U1-NC-Pad7)*%
X116307900Y-112093800D03*
%TO.N,unconnected-(U1-INT-Pad8)*%
X116307900Y-114633800D03*
%TO.N,GND*%
X116307900Y-117173800D03*
%TO.N,Z1*%
X123927900Y-117173800D03*
%TO.N,Z2*%
X123927900Y-114633800D03*
%TO.N,Z3*%
X123927900Y-112093800D03*
%TO.N,Z4*%
X123927900Y-109553800D03*
%TO.N,Z5*%
X123927900Y-107013800D03*
%TO.N,Z6*%
X123927900Y-104473800D03*
%TO.N,Z7*%
X123927900Y-101933800D03*
%TO.N,Z8*%
X123927900Y-99393800D03*
%TO.N,+3V3*%
X123927900Y-96853800D03*
%TD*%
D29*
%TO.N,/Zone2IO/ZoneInput*%
%TO.C,D4*%
X113156300Y-90507700D03*
D30*
%TO.N,Net-(D4-A)*%
X123316300Y-90507700D03*
%TD*%
D29*
%TO.N,/Zone1IO/ZoneInput*%
%TO.C,D2*%
X83739400Y-90439100D03*
D30*
%TO.N,Net-(D2-A)*%
X93899400Y-90439100D03*
%TD*%
D31*
%TO.N,unconnected-(S1-NO_1-Pad1)*%
%TO.C,S1*%
X115616200Y-120523800D03*
D32*
%TO.N,+3V3*%
X122116200Y-120523800D03*
%TO.N,unconnected-(S1-COM_1-Pad3)*%
X115616200Y-125023800D03*
%TO.N,D25*%
X122116200Y-125023800D03*
%TD*%
D10*
%TO.N,Net-(D4-A)*%
%TO.C,R9*%
X85984200Y-108777600D03*
D24*
%TO.N,GND*%
X88524200Y-108777600D03*
%TD*%
D10*
%TO.N,Net-(D6-A)*%
%TO.C,R13*%
X91573600Y-108698400D03*
D24*
%TO.N,GND*%
X94113600Y-108698400D03*
%TD*%
D10*
%TO.N,Z1*%
%TO.C,R6*%
X77976900Y-90313600D03*
D24*
%TO.N,GND*%
X80516900Y-90313600D03*
%TD*%
D10*
%TO.N,+VDC*%
%TO.C,R11*%
X97428100Y-90313600D03*
D24*
%TO.N,Net-(Q6-Pad1)*%
X99968100Y-90313600D03*
%TD*%
D10*
%TO.N,+VDC*%
%TO.C,R7*%
X67592100Y-90313600D03*
D24*
%TO.N,Net-(Q3-Pad1)*%
X70132100Y-90313600D03*
%TD*%
D10*
%TO.N,+3V3*%
%TO.C,R37*%
X110974300Y-107478900D03*
D24*
%TO.N,D21*%
X113514300Y-107478900D03*
%TD*%
D33*
%TO.N,+VDC*%
%TO.C,U2*%
X164978400Y-112300500D03*
X168478400Y-112300500D03*
%TO.N,Net-(Q13-Pad3)*%
X174278400Y-112300500D03*
X177778400Y-112300500D03*
X177778400Y-109800500D03*
X174278400Y-109800500D03*
%TO.N,+VDC*%
X168478400Y-109800500D03*
X164978400Y-109800500D03*
%TD*%
D20*
%TO.N,GND*%
%TO.C,Q10*%
X95932600Y-103664300D03*
D21*
%TO.N,Net-(D8-A)*%
X97202600Y-103664300D03*
%TO.N,/InputIsolation/4in*%
X98472600Y-103664300D03*
%TD*%
D29*
%TO.N,/Zone4IO/ZoneInput*%
%TO.C,D8*%
X185558100Y-76184700D03*
D30*
%TO.N,Net-(D8-A)*%
X185558100Y-86344700D03*
%TD*%
D20*
%TO.N,GND*%
%TO.C,Q1*%
X79106900Y-103682000D03*
D21*
%TO.N,Net-(D2-A)*%
X80376900Y-103682000D03*
%TO.N,/InputIsolation/1in*%
X81646900Y-103682000D03*
%TD*%
D10*
%TO.N,+3V3*%
%TO.C,R26*%
X142295000Y-99209700D03*
D24*
%TO.N,Net-(IC2-A_4)*%
X139755000Y-99209700D03*
%TD*%
D10*
%TO.N,+3V3*%
%TO.C,R36*%
X110974300Y-112149500D03*
D24*
%TO.N,Net-(U1-~{RESET})*%
X113514300Y-112149500D03*
%TD*%
D10*
%TO.N,/Zone1IO/ZoneInput*%
%TO.C,R1*%
X83868300Y-93912900D03*
D24*
%TO.N,Net-(D2-A)*%
X86408300Y-93912900D03*
%TD*%
D10*
%TO.N,Net-(Q3-Pad1)*%
%TO.C,R8*%
X72798600Y-90313600D03*
D24*
%TO.N,Net-(Q2-D)*%
X75338600Y-90313600D03*
%TD*%
D25*
%TO.N,GND*%
%TO.C,Q8*%
X137542600Y-81822900D03*
D26*
%TO.N,Z3*%
X137542600Y-83092900D03*
%TO.N,Net-(Q8-D)*%
X137542600Y-84362900D03*
%TD*%
D25*
%TO.N,GND*%
%TO.C,Q5*%
X106673400Y-81749200D03*
D26*
%TO.N,Z2*%
X106673400Y-83019200D03*
%TO.N,Net-(Q5-D)*%
X106673400Y-84289200D03*
%TD*%
D10*
%TO.N,/Zone4IO/ZoneInput*%
%TO.C,C5*%
X151310400Y-84874400D03*
%TO.N,GND*%
X151310400Y-79874400D03*
%TD*%
%TO.N,Net-(Q13-Pad1)*%
%TO.C,R21*%
X167425100Y-105167700D03*
D24*
%TO.N,GND*%
X169965100Y-105167700D03*
%TD*%
D10*
%TO.N,D25*%
%TO.C,R3*%
X102762800Y-112161900D03*
D24*
%TO.N,GND*%
X102762800Y-114701900D03*
%TD*%
D10*
%TO.N,+3V3*%
%TO.C,R30*%
X79031800Y-112140600D03*
D24*
%TO.N,D34*%
X79031800Y-114680600D03*
%TD*%
D10*
%TO.N,Net-(Q6-Pad1)*%
%TO.C,R12*%
X102602700Y-90291400D03*
D24*
%TO.N,Net-(Q5-D)*%
X105142700Y-90291400D03*
%TD*%
D10*
%TO.N,/Zone3IO/ZoneInput*%
%TO.C,R22*%
X142150900Y-93635300D03*
D24*
%TO.N,Net-(D6-A)*%
X144690900Y-93635300D03*
%TD*%
D10*
%TO.N,+3V3*%
%TO.C,R28*%
X142295000Y-108788400D03*
D24*
%TO.N,Net-(IC2-A_2)*%
X139755000Y-108788400D03*
%TD*%
D10*
%TO.N,Net-(Q12-Pad1)*%
%TO.C,R20*%
X160459300Y-89971000D03*
D24*
%TO.N,Net-(Q11-D)*%
X162999300Y-89971000D03*
%TD*%
D10*
%TO.N,+VDC*%
%TO.C,R19*%
X155096800Y-90020800D03*
D24*
%TO.N,Net-(Q12-Pad1)*%
X157636800Y-90020800D03*
%TD*%
D10*
%TO.N,/Zone4IO/ZoneInput*%
%TO.C,R35*%
X190329000Y-80096300D03*
D24*
%TO.N,Net-(D8-A)*%
X190329000Y-82636300D03*
%TD*%
D10*
%TO.N,Z2*%
%TO.C,R10*%
X107804100Y-90285900D03*
D24*
%TO.N,GND*%
X110344100Y-90285900D03*
%TD*%
D29*
%TO.N,/Zone3IO/ZoneInput*%
%TO.C,D6*%
X142032800Y-90398200D03*
D30*
%TO.N,Net-(D6-A)*%
X152192800Y-90398200D03*
%TD*%
D10*
%TO.N,+3V3*%
%TO.C,R32*%
X88612600Y-112140600D03*
D24*
%TO.N,D36*%
X88612600Y-114680600D03*
%TD*%
D22*
%TO.N,+VDC*%
%TO.C,Z7*%
X124968600Y-87436000D03*
D23*
%TO.N,Net-(Q9-Pad1)*%
X135668600Y-87436000D03*
%TD*%
D10*
%TO.N,+3V3*%
%TO.C,R38*%
X110974300Y-102808300D03*
D24*
%TO.N,D22*%
X113514300Y-102808300D03*
%TD*%
D10*
%TO.N,D32*%
%TO.C,R34*%
X57889400Y-114568900D03*
D24*
%TO.N,GND*%
X60429400Y-114568900D03*
%TD*%
D34*
%TO.N,GND*%
X80837100Y-100469000D03*
X175398000Y-94105800D03*
X129390000Y-109740000D03*
X110681000Y-85364200D03*
%TO.N,/InputIsolation/1in*%
X137818300Y-111079100D03*
%TO.N,/InputIsolation/2in*%
X133840000Y-105610900D03*
%TO.N,/InputIsolation/3in*%
X133664700Y-103059000D03*
%TO.N,D39*%
X133143700Y-99829700D03*
%TO.N,D23*%
X89762800Y-117396000D03*
%TO.N,D19*%
X119870000Y-125819000D03*
X80741100Y-101478000D03*
%TO.N,Net-(IC1-+INB)*%
X147554000Y-92434500D03*
X62580600Y-106960000D03*
%TO.N,D18*%
X84955500Y-100441000D03*
%TO.N,D32*%
X62842900Y-111931000D03*
%TO.N,TX*%
X146448000Y-94037500D03*
%TO.N,RX*%
X138918000Y-93019500D03*
%TO.N,D34*%
X125351000Y-113490000D03*
%TO.N,D17*%
X87086200Y-100467000D03*
%TO.N,D16*%
X101409000Y-106528000D03*
X127416000Y-125023000D03*
X123531000Y-122380000D03*
X113240000Y-119240000D03*
%TO.N,Net-(D1-K)*%
X116821000Y-124038000D03*
%TO.N,D33*%
X84764700Y-121920000D03*
%TO.N,D25*%
X118581700Y-125023800D03*
%TO.N,/InputIsolation/4in*%
X133931800Y-96478900D03*
X131239200Y-98903400D03*
%TD*%
D35*
%TO.N,GND*%
X169965000Y-104464000D02*
X169965000Y-103761000D01*
D36*
X81280000Y-97790000D02*
X81280000Y-100026000D01*
D35*
X169965000Y-103760000D02*
X169965000Y-102353000D01*
D36*
X169965000Y-103760000D02*
X169965000Y-103761000D01*
X169965000Y-104464000D02*
X169965000Y-104465000D01*
D35*
X169965000Y-103761000D02*
X169965000Y-103760000D01*
X169965000Y-99538400D02*
X175398000Y-94105800D01*
D36*
X116308100Y-107014000D02*
X117433000Y-107014000D01*
D35*
X169965000Y-104816000D02*
X169965000Y-104465000D01*
D36*
X117433000Y-107014000D02*
X118703000Y-108284000D01*
X127933000Y-108284000D02*
X129390000Y-109740000D01*
X169965000Y-102353000D02*
X169965000Y-103760000D01*
X118703000Y-108284000D02*
X127933000Y-108284000D01*
X169965000Y-104465000D02*
X169965000Y-104816000D01*
D35*
X169965000Y-102353000D02*
X169965000Y-99538400D01*
D36*
X169965000Y-103761000D02*
X169965000Y-104464000D01*
D35*
X175398000Y-94105800D02*
X178126000Y-91377800D01*
X169965000Y-104465000D02*
X169965000Y-104464000D01*
D36*
X81280000Y-100026000D02*
X80837100Y-100469000D01*
D37*
%TO.N,/Zone1IO/ZoneOutput*%
X69149700Y-81021900D02*
X69841600Y-80330100D01*
X69149700Y-82379600D02*
X69149700Y-81021900D01*
X78331100Y-80330100D02*
X83061000Y-85060000D01*
X69841600Y-80330100D02*
X78331100Y-80330100D01*
%TO.N,/Zone2IO/ZoneOutput*%
X108744000Y-80262700D02*
X113541000Y-85060000D01*
X98568600Y-80964600D02*
X99270500Y-80262700D01*
X98568600Y-82267600D02*
X98568600Y-80964600D01*
X99270500Y-80262700D02*
X108744000Y-80262700D01*
%TO.N,/Zone4IO/ZoneOutput*%
X159689000Y-82002600D02*
X159689000Y-81737500D01*
X159689000Y-81737500D02*
X159689000Y-80909900D01*
X160543000Y-80056500D02*
X169497000Y-80056500D01*
X159689000Y-80909900D02*
X160543000Y-80056500D01*
X169497000Y-80056500D02*
X174501000Y-85060000D01*
X159689000Y-82135100D02*
X159689000Y-82002600D01*
%TO.N,/Zone3IO/ZoneOutput*%
X139297000Y-80336400D02*
X144021000Y-85060000D01*
X128546000Y-82002700D02*
X128546000Y-81737800D01*
X128546000Y-81737800D02*
X128546000Y-81737500D01*
X129119000Y-80336400D02*
X139297000Y-80336400D01*
X128546000Y-82135300D02*
X128546000Y-82003000D01*
X128546000Y-80909900D02*
X129119000Y-80336400D01*
X128546000Y-82003000D02*
X128546000Y-82002700D01*
X128546000Y-81737500D02*
X128546000Y-80909900D01*
D38*
%TO.N,+3V3*%
X142295000Y-113577700D02*
X142295000Y-117631000D01*
X142295000Y-117631000D02*
X142252000Y-117674000D01*
X142295000Y-99209700D02*
X142295000Y-103999000D01*
D39*
X79031800Y-112140600D02*
X83822200Y-112140600D01*
D38*
X142252000Y-117674000D02*
X136605000Y-117674000D01*
X150029000Y-121042000D02*
X146661000Y-117674000D01*
X133755000Y-120524000D02*
X122116200Y-120524000D01*
X142295000Y-103999000D02*
X142295000Y-108788400D01*
X136605000Y-117674000D02*
X133755000Y-120524000D01*
X142295000Y-108788400D02*
X142295000Y-113577700D01*
D39*
X88612600Y-112140600D02*
X93402900Y-112140600D01*
X88612600Y-112140600D02*
X83822200Y-112140600D01*
D38*
X146661000Y-117674000D02*
X142252000Y-117674000D01*
D36*
%TO.N,Net-(D2-A)*%
X86408300Y-93912900D02*
X86408300Y-95038000D01*
X80376900Y-102607000D02*
X80376900Y-103682000D01*
X85090000Y-98214300D02*
X80697400Y-102607000D01*
X85090000Y-96356300D02*
X85090000Y-98214300D01*
X86408300Y-95038000D02*
X85090000Y-96356300D01*
X80697400Y-102607000D02*
X80376900Y-102607000D01*
%TO.N,Net-(D4-A)*%
X114733000Y-95732700D02*
X115609000Y-94856300D01*
X115862000Y-94856300D02*
X115862000Y-94293700D01*
X85972900Y-102602000D02*
X87486300Y-102602000D01*
X115609000Y-94856300D02*
X115862000Y-94856300D01*
X85972900Y-103677000D02*
X85972900Y-102602000D01*
X111838000Y-99415300D02*
X114733000Y-96520900D01*
X87486300Y-102602000D02*
X90673300Y-99415300D01*
X114733000Y-96520900D02*
X114733000Y-95732700D01*
X90673300Y-99415300D02*
X111838000Y-99415300D01*
%TO.N,/InputIsolation/1in*%
X101406000Y-107550500D02*
X104755800Y-110900300D01*
X137639500Y-110900300D02*
X137818300Y-111079100D01*
X85550800Y-109955600D02*
X88965700Y-109955600D01*
X90208200Y-108472500D02*
X91130200Y-107550500D01*
X82497000Y-103682000D02*
X82497000Y-104532100D01*
X104755800Y-110900300D02*
X137639500Y-110900300D01*
X91130200Y-107550500D02*
X101406000Y-107550500D01*
X84859000Y-109263800D02*
X85550800Y-109955600D01*
X84859000Y-106894100D02*
X84859000Y-109263800D01*
X81646900Y-103682000D02*
X82497000Y-103682000D01*
X88965700Y-109955600D02*
X90208200Y-108713100D01*
X90208200Y-108713100D02*
X90208200Y-108472500D01*
X82497000Y-104532100D02*
X84859000Y-106894100D01*
%TO.N,/InputIsolation/2in*%
X90026500Y-105610900D02*
X88093000Y-103677400D01*
X133840000Y-105610900D02*
X90026500Y-105610900D01*
X87242900Y-103677400D02*
X88093000Y-103677400D01*
%TO.N,/InputIsolation/3in*%
X92840800Y-103664300D02*
X93690900Y-103664300D01*
X133664700Y-103059000D02*
X114854700Y-103059000D01*
X113174200Y-104739500D02*
X94766100Y-104739500D01*
X94766100Y-104739500D02*
X93690900Y-103664300D01*
X114854700Y-103059000D02*
X113174200Y-104739500D01*
%TO.N,D39*%
X93402900Y-114680600D02*
X90612900Y-114680600D01*
X90612900Y-114680600D02*
X86341300Y-118952200D01*
X76167600Y-118952200D02*
X74835100Y-120284700D01*
X93402900Y-114680600D02*
X94528000Y-114680600D01*
X138553700Y-111374600D02*
X134055900Y-115872400D01*
X138553700Y-105239700D02*
X138553700Y-111374600D01*
X74835100Y-120284700D02*
X74835100Y-120650000D01*
X86341300Y-118952200D02*
X76167600Y-118952200D01*
X133143700Y-99829700D02*
X138553700Y-105239700D01*
X95719800Y-115872400D02*
X94528000Y-114680600D01*
X134055900Y-115872400D02*
X95719800Y-115872400D01*
X73660000Y-120650000D02*
X74835100Y-120650000D01*
%TO.N,/Zone4IO/ZoneInput*%
X167516000Y-71090000D02*
X169141000Y-71090000D01*
X174236000Y-76184700D02*
X185558000Y-76184700D01*
X169141000Y-71090000D02*
X174236000Y-76184700D01*
%TO.N,D27*%
X92615100Y-123190000D02*
X92615100Y-123557000D01*
X113616000Y-123268000D02*
X126332700Y-123268000D01*
X92615100Y-123557000D02*
X93468200Y-124410000D01*
X112474000Y-124410000D02*
X113616000Y-123268000D01*
X93468200Y-124410000D02*
X112474000Y-124410000D01*
X91440000Y-123190000D02*
X92615100Y-123190000D01*
%TO.N,D26*%
X151305000Y-126576000D02*
X153934000Y-123948000D01*
X153934000Y-123948000D02*
X153934000Y-123582000D01*
X88900000Y-123190000D02*
X90075100Y-123190000D01*
X93094100Y-126576000D02*
X151305000Y-126576000D01*
X90075100Y-123190000D02*
X90075100Y-123557000D01*
X153934000Y-123582000D02*
X155108700Y-123582000D01*
X90075100Y-123557000D02*
X93094100Y-126576000D01*
%TO.N,D23*%
X150586000Y-122407000D02*
X133981000Y-122407000D01*
X152568700Y-123582000D02*
X151394000Y-123582000D01*
X116810000Y-118631000D02*
X116174000Y-118631000D01*
X114939000Y-117396000D02*
X89762800Y-117396000D01*
X151394000Y-123582000D02*
X151394000Y-123215000D01*
X133225000Y-121651000D02*
X119830000Y-121651000D01*
X151394000Y-123215000D02*
X150586000Y-122407000D01*
X116174000Y-118631000D02*
X114939000Y-117396000D01*
X133981000Y-122407000D02*
X133225000Y-121651000D01*
X119830000Y-121651000D02*
X116810000Y-118631000D01*
%TO.N,D19*%
X80781900Y-96612800D02*
X80062300Y-97332400D01*
X81834900Y-96612800D02*
X80781900Y-96612800D01*
X148854000Y-123950000D02*
X146677000Y-126126000D01*
X148854000Y-123582000D02*
X148854000Y-123950000D01*
X146677000Y-126126000D02*
X120176000Y-126126000D01*
X80062300Y-100799000D02*
X80741100Y-101478000D01*
X80062300Y-97332400D02*
X80062300Y-100799000D01*
X82644900Y-97422800D02*
X81834900Y-96612800D01*
X150028700Y-123582000D02*
X148854000Y-123582000D01*
X83820000Y-97790000D02*
X82644900Y-97790000D01*
X120176000Y-126126000D02*
X119870000Y-125819000D01*
X82644900Y-97790000D02*
X82644900Y-97422800D01*
%TO.N,Net-(IC1-+INB)*%
X118951000Y-88632400D02*
X122276000Y-91956700D01*
X107818000Y-88632400D02*
X118951000Y-88632400D01*
X106473000Y-90612100D02*
X106473000Y-89977000D01*
X106473000Y-89977000D02*
X107818000Y-88632400D01*
X146964000Y-91844100D02*
X147554000Y-92434500D01*
X72842400Y-91864400D02*
X105221000Y-91864400D01*
X105221000Y-91864400D02*
X106473000Y-90612100D01*
X124638000Y-91956700D02*
X124751000Y-91844100D01*
X62580600Y-106960000D02*
X67215200Y-102325000D01*
X122276000Y-91956700D02*
X124638000Y-91956700D01*
X67215200Y-97491600D02*
X72842400Y-91864400D01*
X124751000Y-91844100D02*
X146964000Y-91844100D01*
X67215200Y-102325000D02*
X67215200Y-97491600D01*
%TO.N,D18*%
X86360000Y-99036200D02*
X84955500Y-100441000D01*
X86360000Y-97790000D02*
X86360000Y-99036200D01*
%TO.N,D32*%
X69850000Y-121081000D02*
X69850000Y-120177000D01*
X60286600Y-116966000D02*
X57889400Y-114569000D01*
X66638700Y-116966000D02*
X60286600Y-116966000D01*
X80104900Y-122823000D02*
X79297100Y-122015000D01*
D35*
X60527100Y-111931000D02*
X57889400Y-114568900D01*
D36*
X81280000Y-123190000D02*
X80104900Y-123190000D01*
D35*
X62842900Y-111931000D02*
X60527100Y-111931000D01*
D36*
X69850000Y-120177000D02*
X66638700Y-116966000D01*
X80104900Y-123190000D02*
X80104900Y-122823000D01*
X79297100Y-122015000D02*
X70784000Y-122015000D01*
X70784000Y-122015000D02*
X69850000Y-121081000D01*
%TO.N,TX*%
X73660000Y-97790000D02*
X74835100Y-97790000D01*
X146448000Y-93759300D02*
X146448000Y-94037500D01*
X121864000Y-92406800D02*
X125050000Y-92406800D01*
X125162000Y-92294300D02*
X144983000Y-92294300D01*
X74835100Y-97790000D02*
X74835100Y-97424700D01*
X111731000Y-90507800D02*
X111731000Y-89273100D01*
X74835100Y-97424700D02*
X79945300Y-92314500D01*
X118540000Y-89082600D02*
X121864000Y-92406800D01*
X111922000Y-89082600D02*
X118540000Y-89082600D01*
X109924000Y-92314500D02*
X111731000Y-90507800D01*
X79945300Y-92314500D02*
X109924000Y-92314500D01*
X125050000Y-92406800D02*
X125162000Y-92294300D01*
X111731000Y-89273100D02*
X111922000Y-89082600D01*
X144983000Y-92294300D02*
X146448000Y-93759300D01*
%TO.N,RX*%
X77375100Y-97424700D02*
X82035200Y-92764600D01*
X112235000Y-92119300D02*
X120940000Y-92119300D01*
X120940000Y-92119300D02*
X121713000Y-92891800D01*
X111590000Y-92764600D02*
X112235000Y-92119300D01*
X77375100Y-97790000D02*
X77375100Y-97424700D01*
X121713000Y-92891800D02*
X138791000Y-92891800D01*
X82035200Y-92764600D02*
X111590000Y-92764600D01*
X138791000Y-92891800D02*
X138918000Y-93019500D01*
X76200000Y-97790000D02*
X77375100Y-97790000D01*
%TO.N,D34*%
X81347500Y-113490000D02*
X125351000Y-113490000D01*
X79031800Y-114680600D02*
X80156900Y-114680600D01*
X80156900Y-114680600D02*
X81347500Y-113490000D01*
%TO.N,D17*%
X87086200Y-100467000D02*
X87953100Y-100467000D01*
X90264900Y-97790000D02*
X91440000Y-97790000D01*
X87953100Y-100467000D02*
X90264900Y-98155200D01*
X90264900Y-98155200D02*
X90264900Y-97790000D01*
%TO.N,D16*%
X92804900Y-97424800D02*
X92804900Y-97790000D01*
X101409000Y-106528000D02*
X85815500Y-106528000D01*
X85815500Y-106528000D02*
X83821300Y-104534000D01*
X123531000Y-122380000D02*
X119604000Y-122380000D01*
X141234000Y-123950000D02*
X140161000Y-125023000D01*
X87630000Y-98821900D02*
X87630000Y-97333500D01*
X91935200Y-96555100D02*
X92804900Y-97424800D01*
X140161000Y-125023000D02*
X127416000Y-125023000D01*
X92804900Y-97790000D02*
X93980000Y-97790000D01*
X116465000Y-119240000D02*
X113240000Y-119240000D01*
X87630000Y-97333500D02*
X88408400Y-96555100D01*
X83821300Y-104534000D02*
X83821300Y-102631000D01*
X88408400Y-96555100D02*
X91935200Y-96555100D01*
X119604000Y-122380000D02*
X116465000Y-119240000D01*
X83821300Y-102631000D02*
X87630000Y-98821900D01*
X141234000Y-123582000D02*
X141234000Y-123950000D01*
X142408700Y-123582000D02*
X141234000Y-123582000D01*
D40*
%TO.N,Net-(Q3-Pad1)*%
X70132100Y-90313600D02*
X72798600Y-90313600D01*
D35*
X75492500Y-87395400D02*
X75492500Y-86182400D01*
X72798600Y-90089300D02*
X75492500Y-87395400D01*
X75492500Y-86182400D02*
X71689700Y-82379600D01*
%TO.N,Net-(Q6-Pad1)*%
X102603000Y-90291400D02*
X103263000Y-90291400D01*
D40*
X99968100Y-90313600D02*
X102580000Y-90313600D01*
D36*
X105143600Y-88410900D02*
X106118500Y-87436000D01*
D35*
X106118000Y-87436000D02*
X101109000Y-82426100D01*
D36*
X105143200Y-88410900D02*
X105143600Y-88410900D01*
D35*
X105143200Y-88410900D02*
X106118000Y-87436000D01*
X103263000Y-90291400D02*
X105143200Y-88410900D01*
%TO.N,Net-(Q9-Pad1)*%
X134727000Y-87436000D02*
X135668600Y-87436000D01*
X131777000Y-90385900D02*
X134727000Y-87436000D01*
X135669000Y-87436000D02*
X131086000Y-82853100D01*
D40*
X129154500Y-90392400D02*
X131771000Y-90392400D01*
D35*
%TO.N,Net-(Q12-Pad1)*%
X167264000Y-87104200D02*
X164633000Y-84472600D01*
D36*
X164633000Y-84472600D02*
X164434000Y-84472600D01*
D35*
X163326000Y-87104200D02*
X165582000Y-87104200D01*
D36*
X163514000Y-83552700D02*
X163514000Y-83353600D01*
D35*
X166423000Y-87104200D02*
X167264000Y-87104200D01*
X160459000Y-89971000D02*
X163326000Y-87104200D01*
D36*
X166423000Y-87104200D02*
X167264000Y-87104200D01*
D35*
X165582000Y-87104200D02*
X166423000Y-87104200D01*
D36*
X165582000Y-87104200D02*
X166423000Y-87104200D01*
D35*
X163514000Y-83353600D02*
X162428000Y-82267600D01*
X164633000Y-84472600D02*
X163514000Y-83353600D01*
D40*
X157637000Y-90020800D02*
X160409000Y-90020800D01*
D36*
X164434000Y-84472600D02*
X163514000Y-83552700D01*
%TO.N,Net-(D1-K)*%
X127648000Y-123728000D02*
X126882000Y-124493000D01*
X126882000Y-124493000D02*
X125340000Y-124493000D01*
X124790000Y-123944000D02*
X116915000Y-123944000D01*
X116915000Y-123944000D02*
X116821000Y-124038000D01*
X128872700Y-123268000D02*
X127648000Y-123268000D01*
X127648000Y-123268000D02*
X127648000Y-123728000D01*
X125340000Y-124493000D02*
X124790000Y-123944000D01*
%TO.N,Net-(D6-A)*%
X111739000Y-100206000D02*
X93953500Y-100206000D01*
X115183000Y-95919200D02*
X115183000Y-96763000D01*
X141754000Y-95728700D02*
X115373000Y-95728700D01*
X93953500Y-100206000D02*
X91570800Y-102589000D01*
X143566000Y-93916700D02*
X141754000Y-95728700D01*
X143566000Y-93635300D02*
X143566000Y-93916700D01*
X115183000Y-96763000D02*
X111739000Y-100206000D01*
X91570800Y-102589000D02*
X91570800Y-103664000D01*
X115373000Y-95728700D02*
X115183000Y-95919200D01*
X144690900Y-93635300D02*
X143566000Y-93635300D01*
%TO.N,Net-(D8-A)*%
X97202600Y-102589000D02*
X97202600Y-103664000D01*
X125544000Y-97448000D02*
X124723000Y-98268700D01*
X161596000Y-97448000D02*
X125544000Y-97448000D01*
X115842000Y-98268700D02*
X113406000Y-100704000D01*
X172109000Y-86935300D02*
X161596000Y-97448000D01*
X184133000Y-86344700D02*
X183542000Y-86935300D01*
X124723000Y-98268700D02*
X115842000Y-98268700D01*
X99087300Y-100704000D02*
X97202600Y-102589000D01*
X113406000Y-100704000D02*
X99087300Y-100704000D01*
X185558000Y-86344700D02*
X184133000Y-86344700D01*
X183542000Y-86935300D02*
X172109000Y-86935300D01*
%TO.N,D33*%
X83820000Y-123190000D02*
X83820000Y-120650000D01*
%TO.N,D25*%
X122116200Y-125023800D02*
X118581700Y-125023800D01*
%TO.N,/InputIsolation/4in*%
X131239200Y-98903400D02*
X129478800Y-100663800D01*
X113635300Y-101259300D02*
X101727700Y-101259300D01*
X114230800Y-100663800D02*
X113635300Y-101259300D01*
X101727700Y-101259300D02*
X99322700Y-103664300D01*
X98472600Y-103664300D02*
X99322700Y-103664300D01*
X129478800Y-100663800D02*
X114230800Y-100663800D01*
%TD*%
M02*
