%TF.GenerationSoftware,KiCad,Pcbnew,7.0.1*%
%TF.CreationDate,2023-06-01T20:04:05-07:00*%
%TF.ProjectId,MakeItRain,4d616b65-4974-4526-9169-6e2e6b696361,rev?*%
%TF.SameCoordinates,Original*%
%TF.FileFunction,Soldermask,Top*%
%TF.FilePolarity,Negative*%
%FSLAX46Y46*%
G04 Gerber Fmt 4.6, Leading zero omitted, Abs format (unit mm)*
G04 Created by KiCad (PCBNEW 7.0.1) date 2023-06-01 20:04:05*
%MOMM*%
%LPD*%
G01*
G04 APERTURE LIST*
%ADD10C,1.600000*%
%ADD11R,2.600000X2.600000*%
%ADD12O,2.600000X2.600000*%
%ADD13R,1.800000X1.800000*%
%ADD14C,1.800000*%
%ADD15R,1.700000X1.700000*%
%ADD16O,1.700000X1.700000*%
%ADD17C,2.600000*%
%ADD18R,1.920000X1.920000*%
%ADD19C,1.920000*%
%ADD20R,1.150000X1.150000*%
%ADD21C,1.150000*%
%ADD22O,1.600000X1.600000*%
%ADD23R,1.500000X1.050000*%
%ADD24O,1.500000X1.050000*%
%ADD25C,1.440000*%
%ADD26R,1.050000X1.500000*%
%ADD27O,1.050000X1.500000*%
%ADD28R,1.500000X0.650000*%
%ADD29R,1.600000X1.600000*%
%ADD30R,1.500000X1.500000*%
%ADD31C,1.500000*%
%ADD32C,2.400000*%
%ADD33C,2.100000*%
%ADD34R,2.100000X1.450000*%
G04 APERTURE END LIST*
D10*
%TO.C,C2*%
X89109000Y-69659700D03*
X89109000Y-74659700D03*
%TD*%
%TO.C,C3*%
X119449600Y-64825000D03*
X119449600Y-69825000D03*
%TD*%
%TO.C,C4*%
X151357900Y-66638300D03*
X151357900Y-71638300D03*
%TD*%
D11*
%TO.C,D3*%
X83061000Y-85060000D03*
D12*
X83061000Y-69820000D03*
%TD*%
D11*
%TO.C,D5*%
X113541000Y-85060000D03*
D12*
X113541000Y-69820000D03*
%TD*%
D11*
%TO.C,D7*%
X174501000Y-85060000D03*
D12*
X174501000Y-69820000D03*
%TD*%
D11*
%TO.C,D9*%
X144021000Y-85060000D03*
D12*
X144021000Y-69820000D03*
%TD*%
D13*
%TO.C,D1*%
X128872900Y-123268200D03*
D14*
X126332900Y-123268200D03*
%TD*%
D15*
%TO.C,J2*%
X66040000Y-120650000D03*
D16*
X66040000Y-123190000D03*
X68580000Y-120650000D03*
X68580000Y-123190000D03*
X71120000Y-120650000D03*
X71120000Y-123190000D03*
X73660000Y-120650000D03*
X73660000Y-123190000D03*
X76200000Y-120650000D03*
X76200000Y-123190000D03*
X78740000Y-120650000D03*
X78740000Y-123190000D03*
X81280000Y-120650000D03*
X81280000Y-123190000D03*
X83820000Y-120650000D03*
X83820000Y-123190000D03*
X86360000Y-120650000D03*
X86360000Y-123190000D03*
X88900000Y-120650000D03*
X88900000Y-123190000D03*
X91440000Y-120650000D03*
X91440000Y-123190000D03*
X93980000Y-120650000D03*
X93980000Y-123190000D03*
X96520000Y-120650000D03*
X96520000Y-123190000D03*
X99060000Y-120650000D03*
X99060000Y-123190000D03*
X101600000Y-120650000D03*
X101600000Y-123190000D03*
X104140000Y-120650000D03*
X104140000Y-123190000D03*
X106680000Y-120650000D03*
X106680000Y-123190000D03*
X109220000Y-120650000D03*
X109220000Y-123190000D03*
X111760000Y-120650000D03*
X111760000Y-123190000D03*
%TD*%
D15*
%TO.C,J3*%
X66040000Y-97790000D03*
D16*
X68580000Y-97790000D03*
X71120000Y-97790000D03*
X73660000Y-97790000D03*
X76200000Y-97790000D03*
X78740000Y-97790000D03*
X81280000Y-97790000D03*
X83820000Y-97790000D03*
X86360000Y-97790000D03*
X88900000Y-97790000D03*
X91440000Y-97790000D03*
X93980000Y-97790000D03*
X96520000Y-97790000D03*
X99060000Y-97790000D03*
X101600000Y-97790000D03*
X104140000Y-97790000D03*
X106680000Y-97790000D03*
X109220000Y-97790000D03*
X111760000Y-97790000D03*
%TD*%
D11*
%TO.C,P1*%
X178125700Y-96457800D03*
D17*
X178125700Y-91377800D03*
%TD*%
D18*
%TO.C,Q3*%
X71689700Y-82379600D03*
D19*
X69149700Y-82379600D03*
X66609700Y-82379600D03*
%TD*%
D18*
%TO.C,Q6*%
X101108600Y-82267600D03*
D19*
X98568600Y-82267600D03*
X96028600Y-82267600D03*
%TD*%
D18*
%TO.C,Q9*%
X131085700Y-82267600D03*
D19*
X128545700Y-82267600D03*
X126005700Y-82267600D03*
%TD*%
D18*
%TO.C,Q12*%
X162229200Y-82267600D03*
D19*
X159689200Y-82267600D03*
X157149200Y-82267600D03*
%TD*%
D18*
%TO.C,Q13*%
X174341600Y-105164100D03*
D19*
X176881600Y-105164100D03*
X179421600Y-105164100D03*
%TD*%
D11*
%TO.C,Z2*%
X106556000Y-71090000D03*
D17*
X101476000Y-71090000D03*
X96396000Y-71090000D03*
%TD*%
D11*
%TO.C,Z3*%
X137036000Y-71090000D03*
D17*
X131956000Y-71090000D03*
X126876000Y-71090000D03*
%TD*%
D11*
%TO.C,Z4*%
X167516000Y-71090000D03*
D17*
X162436000Y-71090000D03*
X157356000Y-71090000D03*
%TD*%
D11*
%TO.C,Z1*%
X76076000Y-71090000D03*
D17*
X70996000Y-71090000D03*
X65916000Y-71090000D03*
%TD*%
D15*
%TO.C,J1*%
X170349000Y-121042300D03*
D16*
X170349000Y-123582300D03*
X167809000Y-121042300D03*
X167809000Y-123582300D03*
X165269000Y-121042300D03*
X165269000Y-123582300D03*
X162729000Y-121042300D03*
X162729000Y-123582300D03*
X160189000Y-121042300D03*
X160189000Y-123582300D03*
X157649000Y-121042300D03*
X157649000Y-123582300D03*
X155109000Y-121042300D03*
X155109000Y-123582300D03*
X152569000Y-121042300D03*
X152569000Y-123582300D03*
X150029000Y-121042300D03*
X150029000Y-123582300D03*
X147489000Y-121042300D03*
X147489000Y-123582300D03*
X144949000Y-121042300D03*
X144949000Y-123582300D03*
X142409000Y-121042300D03*
X142409000Y-123582300D03*
X139869000Y-121042300D03*
X139869000Y-123582300D03*
X137329000Y-121042300D03*
X137329000Y-123582300D03*
%TD*%
D20*
%TO.C,Z5*%
X64792500Y-87395400D03*
D21*
X75492500Y-87395400D03*
%TD*%
D20*
%TO.C,Z6*%
X95418500Y-87436000D03*
D21*
X106118500Y-87436000D03*
%TD*%
D20*
%TO.C,Z8*%
X156564300Y-87104200D03*
D21*
X167264300Y-87104200D03*
%TD*%
D10*
%TO.C,R23*%
X75572300Y-105627200D03*
D22*
X73032300Y-105627200D03*
%TD*%
D10*
%TO.C,R31*%
X83822200Y-112140600D03*
D22*
X83822200Y-114680600D03*
%TD*%
D10*
%TO.C,R16*%
X131777400Y-90385900D03*
D22*
X134317400Y-90385900D03*
%TD*%
D23*
%TO.C,Q2*%
X77074800Y-81816600D03*
D24*
X77074800Y-83086600D03*
X77074800Y-84356600D03*
%TD*%
D10*
%TO.C,R24*%
X73376700Y-108765100D03*
D22*
X75916700Y-108765100D03*
%TD*%
D25*
%TO.C,RV1*%
X150281700Y-100622000D03*
X152821700Y-100622000D03*
X155361700Y-100622000D03*
%TD*%
D15*
%TO.C,J4*%
X155598900Y-95333800D03*
%TD*%
D26*
%TO.C,Q17*%
X166969300Y-94364700D03*
D27*
X168239300Y-94364700D03*
X169509300Y-94364700D03*
%TD*%
D10*
%TO.C,R15*%
X126614500Y-90392400D03*
D22*
X129154500Y-90392400D03*
%TD*%
D10*
%TO.C,R42*%
X142407900Y-98464700D03*
D22*
X139867900Y-98464700D03*
%TD*%
D15*
%TO.C,J5*%
X59207700Y-91310200D03*
D16*
X59207700Y-88770200D03*
X59207700Y-86230200D03*
%TD*%
D10*
%TO.C,R4*%
X98113700Y-112207200D03*
D22*
X98113700Y-114747200D03*
%TD*%
D10*
%TO.C,R18*%
X179350700Y-81833100D03*
D22*
X181890700Y-81833100D03*
%TD*%
D10*
%TO.C,R29*%
X142407900Y-104638100D03*
D22*
X139867900Y-104638100D03*
%TD*%
D26*
%TO.C,Q15*%
X113342900Y-90892300D03*
D27*
X114612900Y-90892300D03*
X115882900Y-90892300D03*
%TD*%
D10*
%TO.C,R25*%
X75859900Y-114068500D03*
D22*
X75859900Y-111528500D03*
%TD*%
D10*
%TO.C,R40*%
X142407900Y-113984100D03*
D22*
X139867900Y-113984100D03*
%TD*%
D10*
%TO.C,R33*%
X93402900Y-112140600D03*
D22*
X93402900Y-114680600D03*
%TD*%
D28*
%TO.C,IC1*%
X70402500Y-113220900D03*
X70402500Y-111950900D03*
X70402500Y-110680900D03*
X70402500Y-109410900D03*
X65002500Y-109410900D03*
X65002500Y-110680900D03*
X65002500Y-111950900D03*
X65002500Y-113220900D03*
%TD*%
D10*
%TO.C,R14*%
X136973400Y-90405200D03*
D22*
X139513400Y-90405200D03*
%TD*%
D23*
%TO.C,Q11*%
X167687500Y-81543000D03*
D24*
X167687500Y-82813000D03*
X167687500Y-84083000D03*
%TD*%
D10*
%TO.C,R27*%
X142407900Y-109312000D03*
D22*
X139867900Y-109312000D03*
%TD*%
D29*
%TO.C,U1*%
X116307900Y-96853800D03*
D22*
X116307900Y-99393800D03*
X116307900Y-101933800D03*
X116307900Y-104473800D03*
X116307900Y-107013800D03*
X116307900Y-109553800D03*
X116307900Y-112093800D03*
X116307900Y-114633800D03*
X116307900Y-117173800D03*
X123927900Y-117173800D03*
X123927900Y-114633800D03*
X123927900Y-112093800D03*
X123927900Y-109553800D03*
X123927900Y-107013800D03*
X123927900Y-104473800D03*
X123927900Y-101933800D03*
X123927900Y-99393800D03*
X123927900Y-96853800D03*
%TD*%
D30*
%TO.C,S1*%
X115616200Y-120523800D03*
D31*
X122116200Y-120523800D03*
X115616200Y-125023800D03*
X122116200Y-125023800D03*
%TD*%
D10*
%TO.C,R39*%
X90678000Y-88920900D03*
D22*
X90678000Y-86380900D03*
%TD*%
D26*
%TO.C,Q14*%
X83603600Y-90279500D03*
D27*
X84873600Y-90279500D03*
X86143600Y-90279500D03*
%TD*%
D10*
%TO.C,R6*%
X77976900Y-90313600D03*
D22*
X80516900Y-90313600D03*
%TD*%
D10*
%TO.C,R11*%
X97428100Y-90313600D03*
D22*
X99968100Y-90313600D03*
%TD*%
D10*
%TO.C,R7*%
X67592100Y-90313600D03*
D22*
X70132100Y-90313600D03*
%TD*%
D10*
%TO.C,R37*%
X110974300Y-107478900D03*
D22*
X113514300Y-107478900D03*
%TD*%
D32*
%TO.C,U2*%
X171378400Y-111050500D03*
D33*
X164978400Y-112300500D03*
X168478400Y-112300500D03*
X174278400Y-112300500D03*
X177778400Y-112300500D03*
X177778400Y-109800500D03*
X174278400Y-109800500D03*
X168478400Y-109800500D03*
X164978400Y-109800500D03*
%TD*%
D34*
%TO.C,IC2*%
X136439900Y-114870500D03*
X136439900Y-112330500D03*
X136439900Y-109790500D03*
X136439900Y-107250500D03*
X136439900Y-104710500D03*
X136439900Y-102170500D03*
X136439900Y-99630500D03*
X136439900Y-97090500D03*
X127339900Y-97090500D03*
X127339900Y-99630500D03*
X127339900Y-102170500D03*
X127339900Y-104710500D03*
X127339900Y-107250500D03*
X127339900Y-109790500D03*
X127339900Y-112330500D03*
X127339900Y-114870500D03*
%TD*%
D10*
%TO.C,R26*%
X122404600Y-89835700D03*
D22*
X122404600Y-87295700D03*
%TD*%
D10*
%TO.C,R36*%
X110974300Y-112149500D03*
D22*
X113514300Y-112149500D03*
%TD*%
D10*
%TO.C,R8*%
X72798600Y-90313600D03*
D22*
X75338600Y-90313600D03*
%TD*%
D23*
%TO.C,Q8*%
X137542600Y-81822900D03*
D24*
X137542600Y-83092900D03*
X137542600Y-84362900D03*
%TD*%
D23*
%TO.C,Q5*%
X106673400Y-81749200D03*
D24*
X106673400Y-83019200D03*
X106673400Y-84289200D03*
%TD*%
D10*
%TO.C,R41*%
X167722300Y-90027800D03*
D22*
X170262300Y-90027800D03*
%TD*%
D10*
%TO.C,R21*%
X167425100Y-105167700D03*
D22*
X169965100Y-105167700D03*
%TD*%
D10*
%TO.C,C1*%
X89195800Y-93955100D03*
X94195800Y-93955100D03*
%TD*%
%TO.C,R3*%
X102762800Y-112161900D03*
D22*
X102762800Y-114701900D03*
%TD*%
D10*
%TO.C,R30*%
X79031800Y-112140600D03*
D22*
X79031800Y-114680600D03*
%TD*%
D10*
%TO.C,R12*%
X102602700Y-90291400D03*
D22*
X105142700Y-90291400D03*
%TD*%
D10*
%TO.C,R28*%
X144200900Y-94255400D03*
D22*
X141660900Y-94255400D03*
%TD*%
D10*
%TO.C,R20*%
X160459300Y-89971000D03*
D22*
X162999300Y-89971000D03*
%TD*%
D10*
%TO.C,R19*%
X155096800Y-90020800D03*
D22*
X157636800Y-90020800D03*
%TD*%
D10*
%TO.C,R10*%
X107804100Y-90285900D03*
D22*
X110344100Y-90285900D03*
%TD*%
D10*
%TO.C,R32*%
X88612600Y-112140600D03*
D22*
X88612600Y-114680600D03*
%TD*%
D20*
%TO.C,Z7*%
X124968600Y-87436000D03*
D21*
X135668600Y-87436000D03*
%TD*%
D10*
%TO.C,R38*%
X110974300Y-102808300D03*
D22*
X113514300Y-102808300D03*
%TD*%
D10*
%TO.C,R34*%
X57889400Y-114568900D03*
D22*
X60429400Y-114568900D03*
%TD*%
D26*
%TO.C,Q16*%
X142102800Y-90291000D03*
D27*
X143372800Y-90291000D03*
X144642800Y-90291000D03*
%TD*%
M02*
