%TF.GenerationSoftware,KiCad,Pcbnew,7.0.1*%
%TF.CreationDate,2023-05-06T14:55:35-07:00*%
%TF.ProjectId,MakeItRain,4d616b65-4974-4526-9169-6e2e6b696361,rev?*%
%TF.SameCoordinates,Original*%
%TF.FileFunction,Copper,L3,Inr*%
%TF.FilePolarity,Positive*%
%FSLAX46Y46*%
G04 Gerber Fmt 4.6, Leading zero omitted, Abs format (unit mm)*
G04 Created by KiCad (PCBNEW 7.0.1) date 2023-05-06 14:55:35*
%MOMM*%
%LPD*%
G01*
G04 APERTURE LIST*
%TA.AperFunction,ComponentPad*%
%ADD10C,1.600000*%
%TD*%
%TA.AperFunction,ComponentPad*%
%ADD11R,2.600000X2.600000*%
%TD*%
%TA.AperFunction,ComponentPad*%
%ADD12O,2.600000X2.600000*%
%TD*%
%TA.AperFunction,ComponentPad*%
%ADD13R,1.800000X1.800000*%
%TD*%
%TA.AperFunction,ComponentPad*%
%ADD14C,1.800000*%
%TD*%
%TA.AperFunction,ComponentPad*%
%ADD15R,1.700000X1.700000*%
%TD*%
%TA.AperFunction,ComponentPad*%
%ADD16O,1.700000X1.700000*%
%TD*%
%TA.AperFunction,ComponentPad*%
%ADD17C,2.600000*%
%TD*%
%TA.AperFunction,ComponentPad*%
%ADD18R,1.920000X1.920000*%
%TD*%
%TA.AperFunction,ComponentPad*%
%ADD19C,1.920000*%
%TD*%
%TA.AperFunction,ComponentPad*%
%ADD20R,1.050000X1.500000*%
%TD*%
%TA.AperFunction,ComponentPad*%
%ADD21O,1.050000X1.500000*%
%TD*%
%TA.AperFunction,ComponentPad*%
%ADD22R,1.150000X1.150000*%
%TD*%
%TA.AperFunction,ComponentPad*%
%ADD23C,1.150000*%
%TD*%
%TA.AperFunction,ComponentPad*%
%ADD24O,1.600000X1.600000*%
%TD*%
%TA.AperFunction,ComponentPad*%
%ADD25R,1.500000X1.050000*%
%TD*%
%TA.AperFunction,ComponentPad*%
%ADD26O,1.500000X1.050000*%
%TD*%
%TA.AperFunction,ComponentPad*%
%ADD27C,1.440000*%
%TD*%
%TA.AperFunction,ComponentPad*%
%ADD28R,1.600000X1.600000*%
%TD*%
%TA.AperFunction,ComponentPad*%
%ADD29R,2.200000X2.200000*%
%TD*%
%TA.AperFunction,ComponentPad*%
%ADD30O,2.200000X2.200000*%
%TD*%
%TA.AperFunction,ComponentPad*%
%ADD31R,1.500000X1.500000*%
%TD*%
%TA.AperFunction,ComponentPad*%
%ADD32C,1.500000*%
%TD*%
%TA.AperFunction,ComponentPad*%
%ADD33C,2.100000*%
%TD*%
%TA.AperFunction,ViaPad*%
%ADD34C,0.800000*%
%TD*%
%TA.AperFunction,Conductor*%
%ADD35C,0.250000*%
%TD*%
%TA.AperFunction,Conductor*%
%ADD36C,1.524000*%
%TD*%
%TA.AperFunction,Conductor*%
%ADD37C,0.889000*%
%TD*%
%TA.AperFunction,Conductor*%
%ADD38C,0.508000*%
%TD*%
G04 APERTURE END LIST*
D10*
%TO.N,/Zone1IO/ZoneInput*%
%TO.C,C2*%
X89109000Y-69659700D03*
%TO.N,GND*%
X89109000Y-74659700D03*
%TD*%
%TO.N,/Zone2IO/ZoneInput*%
%TO.C,C3*%
X119449600Y-64825000D03*
%TO.N,GND*%
X119449600Y-69825000D03*
%TD*%
%TO.N,/Zone3IO/ZoneInput*%
%TO.C,C4*%
X151357900Y-66638300D03*
%TO.N,GND*%
X151357900Y-71638300D03*
%TD*%
D11*
%TO.N,/Zone1IO/ZoneOutput*%
%TO.C,D3*%
X83061000Y-85060000D03*
D12*
%TO.N,GND*%
X83061000Y-69820000D03*
%TD*%
D11*
%TO.N,/Zone2IO/ZoneOutput*%
%TO.C,D5*%
X113541000Y-85060000D03*
D12*
%TO.N,GND*%
X113541000Y-69820000D03*
%TD*%
D11*
%TO.N,/Zone4IO/ZoneOutput*%
%TO.C,D7*%
X174501000Y-85060000D03*
D12*
%TO.N,GND*%
X174501000Y-69820000D03*
%TD*%
D11*
%TO.N,/Zone3IO/ZoneOutput*%
%TO.C,D9*%
X144021000Y-85060000D03*
D12*
%TO.N,GND*%
X144021000Y-69820000D03*
%TD*%
D13*
%TO.N,Net-(D1-K)*%
%TO.C,D1*%
X128872900Y-123268200D03*
D14*
%TO.N,D27*%
X126332900Y-123268200D03*
%TD*%
D15*
%TO.N,+3V3*%
%TO.C,J2*%
X66040000Y-120650000D03*
D16*
X66040000Y-123190000D03*
%TO.N,EN*%
X68580000Y-120650000D03*
X68580000Y-123190000D03*
%TO.N,D36*%
X71120000Y-120650000D03*
X71120000Y-123190000D03*
%TO.N,D39*%
X73660000Y-120650000D03*
X73660000Y-123190000D03*
%TO.N,D34*%
X76200000Y-120650000D03*
X76200000Y-123190000D03*
%TO.N,D35*%
X78740000Y-120650000D03*
X78740000Y-123190000D03*
%TO.N,D32*%
X81280000Y-120650000D03*
X81280000Y-123190000D03*
%TO.N,D33*%
X83820000Y-120650000D03*
X83820000Y-123190000D03*
%TO.N,D25*%
X86360000Y-120650000D03*
X86360000Y-123190000D03*
%TO.N,D26*%
X88900000Y-120650000D03*
X88900000Y-123190000D03*
%TO.N,D27*%
X91440000Y-120650000D03*
X91440000Y-123190000D03*
%TO.N,D14*%
X93980000Y-120650000D03*
X93980000Y-123190000D03*
%TO.N,D12*%
X96520000Y-120650000D03*
X96520000Y-123190000D03*
%TO.N,GND*%
X99060000Y-120650000D03*
X99060000Y-123190000D03*
%TO.N,unconnected-(J2-Pin_29-Pad29)*%
X101600000Y-120650000D03*
%TO.N,unconnected-(J2-Pin_30-Pad30)*%
X101600000Y-123190000D03*
%TO.N,unconnected-(J2-Pin_31-Pad31)*%
X104140000Y-120650000D03*
%TO.N,unconnected-(J2-Pin_32-Pad32)*%
X104140000Y-123190000D03*
%TO.N,unconnected-(J2-Pin_33-Pad33)*%
X106680000Y-120650000D03*
%TO.N,unconnected-(J2-Pin_34-Pad34)*%
X106680000Y-123190000D03*
%TO.N,unconnected-(J2-Pin_35-Pad35)*%
X109220000Y-120650000D03*
%TO.N,unconnected-(J2-Pin_36-Pad36)*%
X109220000Y-123190000D03*
%TO.N,Net-(J2-Pin_37)*%
X111760000Y-120650000D03*
X111760000Y-123190000D03*
%TD*%
D15*
%TO.N,GND*%
%TO.C,J3*%
X66040000Y-97790000D03*
D16*
%TO.N,D23*%
X68580000Y-97790000D03*
%TO.N,D22*%
X71120000Y-97790000D03*
%TO.N,TX*%
X73660000Y-97790000D03*
%TO.N,RX*%
X76200000Y-97790000D03*
%TO.N,D21*%
X78740000Y-97790000D03*
%TO.N,GND*%
X81280000Y-97790000D03*
%TO.N,D19*%
X83820000Y-97790000D03*
%TO.N,D18*%
X86360000Y-97790000D03*
%TO.N,D5*%
X88900000Y-97790000D03*
%TO.N,D17*%
X91440000Y-97790000D03*
%TO.N,D16*%
X93980000Y-97790000D03*
%TO.N,D4*%
X96520000Y-97790000D03*
%TO.N,D0*%
X99060000Y-97790000D03*
%TO.N,D2*%
X101600000Y-97790000D03*
%TO.N,D15*%
X104140000Y-97790000D03*
%TO.N,/SD1*%
X106680000Y-97790000D03*
%TO.N,/SDD*%
X109220000Y-97790000D03*
%TO.N,/CLK*%
X111760000Y-97790000D03*
%TD*%
D11*
%TO.N,Net-(P1-Pin_1)*%
%TO.C,P1*%
X178125700Y-96457800D03*
D17*
%TO.N,GND*%
X178125700Y-91377800D03*
%TD*%
D18*
%TO.N,Net-(Q3-Pad1)*%
%TO.C,Q3*%
X71689700Y-82379600D03*
D19*
%TO.N,/Zone1IO/ZoneOutput*%
X69149700Y-82379600D03*
%TO.N,+VDC*%
X66609700Y-82379600D03*
%TD*%
D18*
%TO.N,Net-(Q6-Pad1)*%
%TO.C,Q6*%
X101108600Y-82267600D03*
D19*
%TO.N,/Zone2IO/ZoneOutput*%
X98568600Y-82267600D03*
%TO.N,+VDC*%
X96028600Y-82267600D03*
%TD*%
D20*
%TO.N,GND*%
%TO.C,Q7*%
X90300800Y-103664300D03*
D21*
%TO.N,Net-(D6-A)*%
X91570800Y-103664300D03*
%TO.N,/InputIsolation/3in*%
X92840800Y-103664300D03*
%TD*%
D18*
%TO.N,Net-(Q9-Pad1)*%
%TO.C,Q9*%
X131085700Y-82267600D03*
D19*
%TO.N,/Zone3IO/ZoneOutput*%
X128545700Y-82267600D03*
%TO.N,+VDC*%
X126005700Y-82267600D03*
%TD*%
D18*
%TO.N,Net-(Q12-Pad1)*%
%TO.C,Q12*%
X162229200Y-82267600D03*
D19*
%TO.N,/Zone4IO/ZoneOutput*%
X159689200Y-82267600D03*
%TO.N,+VDC*%
X157149200Y-82267600D03*
%TD*%
D18*
%TO.N,Net-(Q13-Pad1)*%
%TO.C,Q13*%
X174341600Y-105164100D03*
D19*
%TO.N,Net-(P1-Pin_1)*%
X176881600Y-105164100D03*
%TO.N,Net-(Q13-Pad3)*%
X179421600Y-105164100D03*
%TD*%
D11*
%TO.N,/Zone2IO/ZoneInput*%
%TO.C,Z2*%
X106556000Y-71090000D03*
D17*
%TO.N,/Zone2IO/ZoneOutput*%
X101476000Y-71090000D03*
%TO.N,GND*%
X96396000Y-71090000D03*
%TD*%
D11*
%TO.N,/Zone3IO/ZoneInput*%
%TO.C,Z3*%
X137036000Y-71090000D03*
D17*
%TO.N,/Zone3IO/ZoneOutput*%
X131956000Y-71090000D03*
%TO.N,GND*%
X126876000Y-71090000D03*
%TD*%
D11*
%TO.N,/Zone4IO/ZoneInput*%
%TO.C,Z4*%
X167516000Y-71090000D03*
D17*
%TO.N,/Zone4IO/ZoneOutput*%
X162436000Y-71090000D03*
%TO.N,GND*%
X157356000Y-71090000D03*
%TD*%
D11*
%TO.N,/Zone1IO/ZoneInput*%
%TO.C,Z1*%
X76076000Y-71090000D03*
D17*
%TO.N,/Zone1IO/ZoneOutput*%
X70996000Y-71090000D03*
%TO.N,GND*%
X65916000Y-71090000D03*
%TD*%
D15*
%TO.N,+VDC*%
%TO.C,J1*%
X170349000Y-121042300D03*
D16*
%TO.N,TX*%
X170349000Y-123582300D03*
%TO.N,+VDC*%
X167809000Y-121042300D03*
%TO.N,RX*%
X167809000Y-123582300D03*
%TO.N,+VDC*%
X165269000Y-121042300D03*
%TO.N,Z8*%
X165269000Y-123582300D03*
%TO.N,+VDC*%
X162729000Y-121042300D03*
%TO.N,Z7*%
X162729000Y-123582300D03*
%TO.N,+VDC*%
X160189000Y-121042300D03*
%TO.N,Z6*%
X160189000Y-123582300D03*
%TO.N,+3V3*%
X157649000Y-121042300D03*
%TO.N,Z5*%
X157649000Y-123582300D03*
%TO.N,+3V3*%
X155109000Y-121042300D03*
%TO.N,D26*%
X155109000Y-123582300D03*
%TO.N,+3V3*%
X152569000Y-121042300D03*
%TO.N,D23*%
X152569000Y-123582300D03*
%TO.N,+3V3*%
X150029000Y-121042300D03*
%TO.N,D19*%
X150029000Y-123582300D03*
%TO.N,GND*%
X147489000Y-121042300D03*
%TO.N,D18*%
X147489000Y-123582300D03*
%TO.N,GND*%
X144949000Y-121042300D03*
%TO.N,D17*%
X144949000Y-123582300D03*
%TO.N,GND*%
X142409000Y-121042300D03*
%TO.N,D16*%
X142409000Y-123582300D03*
%TO.N,GND*%
X139869000Y-121042300D03*
%TO.N,D22*%
X139869000Y-123582300D03*
%TO.N,GND*%
X137329000Y-121042300D03*
%TO.N,D21*%
X137329000Y-123582300D03*
%TD*%
D22*
%TO.N,+VDC*%
%TO.C,Z5*%
X64792500Y-87395400D03*
D23*
%TO.N,Net-(Q3-Pad1)*%
X75492500Y-87395400D03*
%TD*%
D22*
%TO.N,+VDC*%
%TO.C,Z6*%
X95418500Y-87436000D03*
D23*
%TO.N,Net-(Q6-Pad1)*%
X106118500Y-87436000D03*
%TD*%
D22*
%TO.N,+VDC*%
%TO.C,Z8*%
X156564300Y-87104200D03*
D23*
%TO.N,Net-(Q12-Pad1)*%
X167264300Y-87104200D03*
%TD*%
D20*
%TO.N,GND*%
%TO.C,Q4*%
X84702900Y-103677400D03*
D21*
%TO.N,Net-(D4-A)*%
X85972900Y-103677400D03*
%TO.N,/InputIsolation/2in*%
X87242900Y-103677400D03*
%TD*%
D10*
%TO.N,+VDC*%
%TO.C,R23*%
X75572300Y-105627200D03*
D24*
%TO.N,Net-(IC1-+IN_A)*%
X73032300Y-105627200D03*
%TD*%
D10*
%TO.N,+3V3*%
%TO.C,R31*%
X83822200Y-112140600D03*
D24*
%TO.N,D35*%
X83822200Y-114680600D03*
%TD*%
D10*
%TO.N,Net-(Q9-Pad1)*%
%TO.C,R16*%
X131777400Y-90385900D03*
D24*
%TO.N,Net-(Q8-D)*%
X134317400Y-90385900D03*
%TD*%
D25*
%TO.N,GND*%
%TO.C,Q2*%
X77074800Y-81816600D03*
D26*
%TO.N,Z1*%
X77074800Y-83086600D03*
%TO.N,Net-(Q2-D)*%
X77074800Y-84356600D03*
%TD*%
D10*
%TO.N,Net-(IC1-+IN_A)*%
%TO.C,R24*%
X73376700Y-108765100D03*
D24*
%TO.N,GND*%
X75916700Y-108765100D03*
%TD*%
D10*
%TO.N,Net-(D2-A)*%
%TO.C,R5*%
X80372200Y-108702600D03*
D24*
%TO.N,GND*%
X82912200Y-108702600D03*
%TD*%
D27*
%TO.N,AuxVoltage*%
%TO.C,RV1*%
X150281700Y-100622000D03*
%TO.N,Net-(IC1-+INB)*%
X152821700Y-100622000D03*
%TO.N,GND*%
X155361700Y-100622000D03*
%TD*%
D15*
%TO.N,AuxVoltage*%
%TO.C,J4*%
X155598900Y-95333800D03*
%TD*%
D10*
%TO.N,+VDC*%
%TO.C,R15*%
X126614500Y-90392400D03*
D24*
%TO.N,Net-(Q9-Pad1)*%
X129154500Y-90392400D03*
%TD*%
D10*
%TO.N,Net-(D8-A)*%
%TO.C,R17*%
X96767000Y-108701700D03*
D24*
%TO.N,GND*%
X99307000Y-108701700D03*
%TD*%
D15*
%TO.N,+VDC*%
%TO.C,J5*%
X59207700Y-91310200D03*
D16*
%TO.N,+3V3*%
X59207700Y-88770200D03*
%TO.N,GND*%
X59207700Y-86230200D03*
%TD*%
D10*
%TO.N,Net-(D1-K)*%
%TO.C,R4*%
X98113700Y-112207200D03*
D24*
%TO.N,GND*%
X98113700Y-114747200D03*
%TD*%
D10*
%TO.N,Z4*%
%TO.C,R18*%
X179350700Y-81833100D03*
D24*
%TO.N,GND*%
X181890700Y-81833100D03*
%TD*%
D10*
%TO.N,+3V3*%
%TO.C,R29*%
X142295000Y-113577700D03*
D24*
%TO.N,Net-(IC2-A_1)*%
X139755000Y-113577700D03*
%TD*%
D10*
%TO.N,D33*%
%TO.C,R25*%
X75859900Y-114068500D03*
D24*
%TO.N,GND*%
X75859900Y-111528500D03*
%TD*%
D10*
%TO.N,+3V3*%
%TO.C,R33*%
X93402900Y-112140600D03*
D24*
%TO.N,D39*%
X93402900Y-114680600D03*
%TD*%
D10*
%TO.N,/Zone2IO/ZoneInput*%
%TO.C,R2*%
X113321700Y-93731200D03*
D24*
%TO.N,Net-(D4-A)*%
X115861700Y-93731200D03*
%TD*%
D10*
%TO.N,Z3*%
%TO.C,R14*%
X136973400Y-90405200D03*
D24*
%TO.N,GND*%
X139513400Y-90405200D03*
%TD*%
D25*
%TO.N,GND*%
%TO.C,Q11*%
X167687500Y-81543000D03*
D26*
%TO.N,Z4*%
X167687500Y-82813000D03*
%TO.N,Net-(Q11-D)*%
X167687500Y-84083000D03*
%TD*%
D10*
%TO.N,+3V3*%
%TO.C,R27*%
X142295000Y-103999000D03*
D24*
%TO.N,Net-(IC2-A_3)*%
X139755000Y-103999000D03*
%TD*%
D28*
%TO.N,D22*%
%TO.C,U1*%
X116307900Y-96853800D03*
D24*
%TO.N,D21*%
X116307900Y-99393800D03*
%TO.N,GND*%
X116307900Y-101933800D03*
X116307900Y-104473800D03*
X116307900Y-107013800D03*
%TO.N,Net-(U1-~{RESET})*%
X116307900Y-109553800D03*
%TO.N,unconnected-(U1-NC-Pad7)*%
X116307900Y-112093800D03*
%TO.N,unconnected-(U1-INT-Pad8)*%
X116307900Y-114633800D03*
%TO.N,GND*%
X116307900Y-117173800D03*
%TO.N,Z1*%
X123927900Y-117173800D03*
%TO.N,Z2*%
X123927900Y-114633800D03*
%TO.N,Z3*%
X123927900Y-112093800D03*
%TO.N,Z4*%
X123927900Y-109553800D03*
%TO.N,Z5*%
X123927900Y-107013800D03*
%TO.N,Z6*%
X123927900Y-104473800D03*
%TO.N,Z7*%
X123927900Y-101933800D03*
%TO.N,Z8*%
X123927900Y-99393800D03*
%TO.N,+3V3*%
X123927900Y-96853800D03*
%TD*%
D29*
%TO.N,/Zone2IO/ZoneInput*%
%TO.C,D4*%
X113156300Y-90507700D03*
D30*
%TO.N,Net-(D4-A)*%
X123316300Y-90507700D03*
%TD*%
D29*
%TO.N,/Zone1IO/ZoneInput*%
%TO.C,D2*%
X83739400Y-90439100D03*
D30*
%TO.N,Net-(D2-A)*%
X93899400Y-90439100D03*
%TD*%
D31*
%TO.N,unconnected-(S1-NO_1-Pad1)*%
%TO.C,S1*%
X115616200Y-120523800D03*
D32*
%TO.N,+3V3*%
X122116200Y-120523800D03*
%TO.N,unconnected-(S1-COM_1-Pad3)*%
X115616200Y-125023800D03*
%TO.N,D25*%
X122116200Y-125023800D03*
%TD*%
D10*
%TO.N,Net-(D4-A)*%
%TO.C,R9*%
X85984200Y-108777600D03*
D24*
%TO.N,GND*%
X88524200Y-108777600D03*
%TD*%
D10*
%TO.N,Net-(D6-A)*%
%TO.C,R13*%
X91573600Y-108698400D03*
D24*
%TO.N,GND*%
X94113600Y-108698400D03*
%TD*%
D10*
%TO.N,Z1*%
%TO.C,R6*%
X77976900Y-90313600D03*
D24*
%TO.N,GND*%
X80516900Y-90313600D03*
%TD*%
D10*
%TO.N,+VDC*%
%TO.C,R11*%
X97428100Y-90313600D03*
D24*
%TO.N,Net-(Q6-Pad1)*%
X99968100Y-90313600D03*
%TD*%
D10*
%TO.N,+VDC*%
%TO.C,R7*%
X67592100Y-90313600D03*
D24*
%TO.N,Net-(Q3-Pad1)*%
X70132100Y-90313600D03*
%TD*%
D10*
%TO.N,+3V3*%
%TO.C,R37*%
X110974300Y-107478900D03*
D24*
%TO.N,D21*%
X113514300Y-107478900D03*
%TD*%
D33*
%TO.N,+VDC*%
%TO.C,U2*%
X164978400Y-112300500D03*
X168478400Y-112300500D03*
%TO.N,Net-(Q13-Pad3)*%
X174278400Y-112300500D03*
X177778400Y-112300500D03*
X177778400Y-109800500D03*
X174278400Y-109800500D03*
%TO.N,+VDC*%
X168478400Y-109800500D03*
X164978400Y-109800500D03*
%TD*%
D20*
%TO.N,GND*%
%TO.C,Q10*%
X95932600Y-103664300D03*
D21*
%TO.N,Net-(D8-A)*%
X97202600Y-103664300D03*
%TO.N,/InputIsolation/4in*%
X98472600Y-103664300D03*
%TD*%
D29*
%TO.N,/Zone4IO/ZoneInput*%
%TO.C,D8*%
X185558100Y-76184700D03*
D30*
%TO.N,Net-(D8-A)*%
X185558100Y-86344700D03*
%TD*%
D20*
%TO.N,GND*%
%TO.C,Q1*%
X79106900Y-103682000D03*
D21*
%TO.N,Net-(D2-A)*%
X80376900Y-103682000D03*
%TO.N,/InputIsolation/1in*%
X81646900Y-103682000D03*
%TD*%
D10*
%TO.N,+3V3*%
%TO.C,R26*%
X142295000Y-99209700D03*
D24*
%TO.N,Net-(IC2-A_4)*%
X139755000Y-99209700D03*
%TD*%
D10*
%TO.N,+3V3*%
%TO.C,R36*%
X110974300Y-112149500D03*
D24*
%TO.N,Net-(U1-~{RESET})*%
X113514300Y-112149500D03*
%TD*%
D10*
%TO.N,/Zone1IO/ZoneInput*%
%TO.C,R1*%
X83868300Y-93912900D03*
D24*
%TO.N,Net-(D2-A)*%
X86408300Y-93912900D03*
%TD*%
D10*
%TO.N,Net-(Q3-Pad1)*%
%TO.C,R8*%
X72798600Y-90313600D03*
D24*
%TO.N,Net-(Q2-D)*%
X75338600Y-90313600D03*
%TD*%
D25*
%TO.N,GND*%
%TO.C,Q8*%
X137542600Y-81822900D03*
D26*
%TO.N,Z3*%
X137542600Y-83092900D03*
%TO.N,Net-(Q8-D)*%
X137542600Y-84362900D03*
%TD*%
D25*
%TO.N,GND*%
%TO.C,Q5*%
X106673400Y-81749200D03*
D26*
%TO.N,Z2*%
X106673400Y-83019200D03*
%TO.N,Net-(Q5-D)*%
X106673400Y-84289200D03*
%TD*%
D10*
%TO.N,/Zone4IO/ZoneInput*%
%TO.C,C5*%
X151310400Y-84874400D03*
%TO.N,GND*%
X151310400Y-79874400D03*
%TD*%
%TO.N,Net-(Q13-Pad1)*%
%TO.C,R21*%
X167425100Y-105167700D03*
D24*
%TO.N,GND*%
X169965100Y-105167700D03*
%TD*%
D10*
%TO.N,D25*%
%TO.C,R3*%
X102762800Y-112161900D03*
D24*
%TO.N,GND*%
X102762800Y-114701900D03*
%TD*%
D10*
%TO.N,+3V3*%
%TO.C,R30*%
X79031800Y-112140600D03*
D24*
%TO.N,D34*%
X79031800Y-114680600D03*
%TD*%
D10*
%TO.N,Net-(Q6-Pad1)*%
%TO.C,R12*%
X102602700Y-90291400D03*
D24*
%TO.N,Net-(Q5-D)*%
X105142700Y-90291400D03*
%TD*%
D10*
%TO.N,/Zone3IO/ZoneInput*%
%TO.C,R22*%
X142150900Y-93635300D03*
D24*
%TO.N,Net-(D6-A)*%
X144690900Y-93635300D03*
%TD*%
D10*
%TO.N,+3V3*%
%TO.C,R28*%
X142295000Y-108788400D03*
D24*
%TO.N,Net-(IC2-A_2)*%
X139755000Y-108788400D03*
%TD*%
D10*
%TO.N,Net-(Q12-Pad1)*%
%TO.C,R20*%
X160459300Y-89971000D03*
D24*
%TO.N,Net-(Q11-D)*%
X162999300Y-89971000D03*
%TD*%
D10*
%TO.N,+VDC*%
%TO.C,R19*%
X155096800Y-90020800D03*
D24*
%TO.N,Net-(Q12-Pad1)*%
X157636800Y-90020800D03*
%TD*%
D10*
%TO.N,/Zone4IO/ZoneInput*%
%TO.C,R35*%
X190329000Y-80096300D03*
D24*
%TO.N,Net-(D8-A)*%
X190329000Y-82636300D03*
%TD*%
D10*
%TO.N,Z2*%
%TO.C,R10*%
X107804100Y-90285900D03*
D24*
%TO.N,GND*%
X110344100Y-90285900D03*
%TD*%
D29*
%TO.N,/Zone3IO/ZoneInput*%
%TO.C,D6*%
X142032800Y-90398200D03*
D30*
%TO.N,Net-(D6-A)*%
X152192800Y-90398200D03*
%TD*%
D10*
%TO.N,+3V3*%
%TO.C,R32*%
X88612600Y-112140600D03*
D24*
%TO.N,D36*%
X88612600Y-114680600D03*
%TD*%
D22*
%TO.N,+VDC*%
%TO.C,Z7*%
X124968600Y-87436000D03*
D23*
%TO.N,Net-(Q9-Pad1)*%
X135668600Y-87436000D03*
%TD*%
D10*
%TO.N,+3V3*%
%TO.C,R38*%
X110974300Y-102808300D03*
D24*
%TO.N,D22*%
X113514300Y-102808300D03*
%TD*%
D10*
%TO.N,D32*%
%TO.C,R34*%
X57889400Y-114568900D03*
D24*
%TO.N,GND*%
X60429400Y-114568900D03*
%TD*%
D34*
%TO.N,GND*%
X80837100Y-100469000D03*
X175398000Y-94105800D03*
X129390000Y-109740000D03*
X110681000Y-85364200D03*
%TO.N,/InputIsolation/1in*%
X137818300Y-111079100D03*
%TO.N,/InputIsolation/2in*%
X133840000Y-105610900D03*
%TO.N,/InputIsolation/3in*%
X133664700Y-103059000D03*
%TO.N,D39*%
X133143700Y-99829700D03*
%TO.N,D23*%
X89762800Y-117396000D03*
%TO.N,D19*%
X119870000Y-125819000D03*
X80741100Y-101478000D03*
%TO.N,Net-(IC1-+INB)*%
X147554000Y-92434500D03*
X62580600Y-106960000D03*
%TO.N,D18*%
X84955500Y-100441000D03*
%TO.N,D32*%
X62842900Y-111931000D03*
%TO.N,TX*%
X146448000Y-94037500D03*
%TO.N,RX*%
X138918000Y-93019500D03*
%TO.N,D34*%
X125351000Y-113490000D03*
%TO.N,D17*%
X87086200Y-100467000D03*
%TO.N,D16*%
X101409000Y-106528000D03*
X127416000Y-125023000D03*
X123531000Y-122380000D03*
X113240000Y-119240000D03*
%TO.N,Net-(D1-K)*%
X116821000Y-124038000D03*
%TO.N,D33*%
X84764700Y-121920000D03*
%TO.N,D25*%
X118581700Y-125023800D03*
%TO.N,/InputIsolation/4in*%
X133931800Y-96478900D03*
X131239200Y-98903400D03*
%TD*%
D35*
%TO.N,GND*%
X81280000Y-92201800D02*
X81280000Y-97790000D01*
X138618000Y-81822900D02*
X139513000Y-82718400D01*
X139513000Y-82718400D02*
X139513000Y-89695500D01*
X110681000Y-85364200D02*
X110681000Y-88823500D01*
X80516900Y-90313600D02*
X80516900Y-91438700D01*
X137543000Y-81822900D02*
X138618000Y-81822900D01*
X80837100Y-100469000D02*
X80724100Y-100469000D01*
X80516900Y-91438700D02*
X81280000Y-92201800D01*
X139513000Y-89695500D02*
X139513400Y-89695900D01*
X110344000Y-89442000D02*
X110344000Y-89723200D01*
X139513400Y-89695900D02*
X139513400Y-90405200D01*
X80724100Y-100469000D02*
X79106900Y-102087000D01*
X139513000Y-89695500D02*
X139513000Y-90405200D01*
X110681000Y-88823500D02*
X110344000Y-89160600D01*
X110344000Y-89441900D02*
X110344000Y-89442000D01*
X110344000Y-89160600D02*
X110344000Y-89441900D01*
X79106900Y-102087000D02*
X79106900Y-103682000D01*
%TO.N,+VDC*%
X75572300Y-105627000D02*
X69903700Y-99958600D01*
X70152000Y-92925500D02*
X70152000Y-92324700D01*
X69903700Y-99958600D02*
X69903700Y-93173800D01*
X70152000Y-92324700D02*
X68140900Y-90313600D01*
X69903700Y-93173800D02*
X70152000Y-92925500D01*
D36*
%TO.N,/Zone1IO/ZoneOutput*%
X69149700Y-72936300D02*
X70996000Y-71090000D01*
X69149700Y-82379600D02*
X69149700Y-72936300D01*
%TO.N,/Zone2IO/ZoneOutput*%
X98568600Y-82267600D02*
X98568600Y-73997400D01*
X98568600Y-73997400D02*
X101476000Y-71090000D01*
D35*
%TO.N,/Zone4IO/ZoneOutput*%
X159689000Y-78052200D02*
X159689000Y-78052400D01*
D36*
X159689000Y-78052200D02*
X159689000Y-73836800D01*
X159689000Y-78052400D02*
X159689000Y-78052200D01*
D35*
X159689000Y-78052400D02*
X159689000Y-80160000D01*
D36*
X159689000Y-80160200D02*
X159689000Y-80160000D01*
D35*
X159689000Y-81214100D02*
X159689000Y-81740800D01*
D36*
X159689000Y-82004200D02*
X159689000Y-81740800D01*
D35*
X159689000Y-80160200D02*
X159689000Y-81213900D01*
D36*
X159689000Y-81213900D02*
X159689000Y-80160200D01*
X159689000Y-81214100D02*
X159689000Y-81213900D01*
X159689000Y-81740800D02*
X159689000Y-81214100D01*
D35*
X159689000Y-80160000D02*
X159689000Y-80160200D01*
X159689000Y-81213900D02*
X159689000Y-81214100D01*
D36*
X159689000Y-80160000D02*
X159689000Y-78052400D01*
X159689000Y-73836800D02*
X162436000Y-71090000D01*
%TO.N,/Zone3IO/ZoneOutput*%
X128546000Y-81782400D02*
X128546000Y-81297200D01*
X128546000Y-82025100D02*
X128546000Y-81782700D01*
X128546000Y-81296900D02*
X128546000Y-80326200D01*
D35*
X128546000Y-80326200D02*
X128546000Y-81296900D01*
X128546000Y-81297200D02*
X128546000Y-81782400D01*
D36*
X128546000Y-80325900D02*
X128546000Y-78384200D01*
X128546000Y-82146300D02*
X128546000Y-82025100D01*
X128546000Y-80326200D02*
X128546000Y-80325900D01*
D35*
X128546000Y-80325900D02*
X128546000Y-80326200D01*
D36*
X128546000Y-74500300D02*
X131956000Y-71090000D01*
X128546000Y-78384200D02*
X128546000Y-78383900D01*
D35*
X128546000Y-78384200D02*
X128546000Y-80325900D01*
D36*
X128546000Y-81297200D02*
X128546000Y-81296900D01*
X128546000Y-78383900D02*
X128546000Y-74500300D01*
D35*
X128546000Y-78383900D02*
X128546000Y-78384200D01*
D36*
X128546000Y-81782700D02*
X128546000Y-81782400D01*
D35*
X128546000Y-81296900D02*
X128546000Y-81297200D01*
D37*
%TO.N,+3V3*%
X110974000Y-111516000D02*
X110974300Y-111516300D01*
X110974000Y-112150000D02*
X110974000Y-111516000D01*
X110974000Y-109275400D02*
X110974300Y-109275100D01*
X110974300Y-109275100D02*
X110974300Y-107478900D01*
D38*
X117419000Y-115888000D02*
X117480000Y-115888000D01*
D37*
X110974000Y-107034900D02*
X110974300Y-107034600D01*
X110974300Y-107034600D02*
X110974300Y-102808300D01*
X152569300Y-121042000D02*
X150029000Y-121042000D01*
X155109200Y-121042000D02*
X152569300Y-121042000D01*
D38*
X117480000Y-115888000D02*
X122116000Y-120524000D01*
D37*
X110974000Y-111516000D02*
X110974000Y-109275400D01*
D38*
X110975000Y-112150000D02*
X114713000Y-115888000D01*
X114713000Y-115888000D02*
X117419000Y-115888000D01*
D37*
X157648700Y-121042000D02*
X155109200Y-121042000D01*
X110974000Y-107034900D02*
X110974000Y-102808000D01*
X110974300Y-111516300D02*
X110974300Y-112149500D01*
D35*
X110974000Y-102809000D02*
X110974000Y-107035000D01*
D37*
X110974000Y-109275400D02*
X110974000Y-107034900D01*
D38*
X117419000Y-115888000D02*
X117450000Y-115857000D01*
D35*
%TO.N,Net-(D2-A)*%
X87533400Y-93912900D02*
X91007200Y-90439100D01*
X86408300Y-93912900D02*
X87533400Y-93912900D01*
X91007200Y-90439100D02*
X93899400Y-90439100D01*
%TO.N,Net-(D4-A)*%
X121891000Y-90507700D02*
X118668000Y-93731200D01*
X123316000Y-90507700D02*
X121891000Y-90507700D01*
X118668000Y-93731200D02*
X115862000Y-93731200D01*
%TO.N,/Zone1IO/ZoneInput*%
X83739400Y-90439100D02*
X83739400Y-89014000D01*
X76076000Y-71090000D02*
X77701100Y-71090000D01*
X77701100Y-71090000D02*
X80032300Y-73421200D01*
X85347500Y-73421200D02*
X89109000Y-69659700D01*
X84694200Y-88059200D02*
X84694200Y-73421200D01*
X80032300Y-73421200D02*
X84694200Y-73421200D01*
X83739400Y-89014000D02*
X84694200Y-88059200D01*
X84694200Y-73421200D02*
X85347500Y-73421200D01*
%TO.N,/Zone2IO/ZoneInput*%
X106556000Y-71090000D02*
X106556000Y-72715100D01*
X113156000Y-89082600D02*
X111892000Y-87818400D01*
X116851000Y-67423200D02*
X118150500Y-66124100D01*
X111892000Y-87818400D02*
X111892000Y-77890300D01*
X111892000Y-77890300D02*
X116851000Y-72931000D01*
X118150500Y-66124100D02*
X119449600Y-64825000D01*
X113156000Y-90507700D02*
X113156000Y-89082600D01*
X118150500Y-66124100D02*
X119450000Y-64825000D01*
X106556000Y-72715100D02*
X111731000Y-77890300D01*
X116851000Y-72931000D02*
X116851000Y-67423200D01*
X111731000Y-77890300D02*
X111892000Y-77890300D01*
%TO.N,/Zone3IO/ZoneInput*%
X142033000Y-75963400D02*
X142621000Y-75375200D01*
X138661000Y-71090000D02*
X138661000Y-71415300D01*
X142033000Y-89988600D02*
X142033000Y-75963400D01*
X142621000Y-75375200D02*
X151357900Y-66638300D01*
X137036000Y-71090000D02*
X138661000Y-71090000D01*
X142033000Y-93517200D02*
X142033000Y-89988600D01*
X138661000Y-71415300D02*
X142621000Y-75375200D01*
%TO.N,/Zone4IO/ZoneInput*%
X165891000Y-71090000D02*
X164265000Y-69463800D01*
X153247500Y-82937000D02*
X151310400Y-84874100D01*
X155185000Y-75988600D02*
X155185000Y-80999600D01*
X167516000Y-71090000D02*
X165891000Y-71090000D01*
X161710000Y-69463800D02*
X155185000Y-75988600D01*
X153247500Y-82937000D02*
X151310000Y-84874400D01*
X164265000Y-69463800D02*
X161710000Y-69463800D01*
X155185000Y-80999600D02*
X153247500Y-82937000D01*
%TO.N,D23*%
X84467800Y-113411000D02*
X88453600Y-117396000D01*
X68580000Y-97790000D02*
X68580000Y-99583800D01*
X75580200Y-107249000D02*
X77278500Y-107249000D01*
X83440000Y-113411000D02*
X84467800Y-113411000D01*
X68580000Y-99583800D02*
X74302300Y-105306000D01*
X74302300Y-105306000D02*
X74302300Y-105971000D01*
X74302300Y-105971000D02*
X75580200Y-107249000D01*
X88453600Y-117396000D02*
X89762800Y-117396000D01*
X77278500Y-107249000D02*
X83440000Y-113411000D01*
%TO.N,D19*%
X119870000Y-125819000D02*
X119870000Y-122753000D01*
X101259000Y-105353000D02*
X95790800Y-105353000D01*
X115355000Y-119449000D02*
X101259000Y-105353000D01*
X94546000Y-104108000D02*
X94546000Y-103898000D01*
X116565000Y-119449000D02*
X115355000Y-119449000D01*
X81756900Y-102494000D02*
X80741100Y-101478000D01*
X95790800Y-105353000D02*
X94546000Y-104108000D01*
X119870000Y-122753000D02*
X116565000Y-119449000D01*
X94546000Y-103898000D02*
X93142100Y-102494000D01*
X93142100Y-102494000D02*
X81756900Y-102494000D01*
%TO.N,Net-(IC1-+INB)*%
X152822000Y-100622000D02*
X152822000Y-97702300D01*
X152822000Y-97702300D02*
X147554000Y-92434500D01*
%TO.N,D18*%
X146314000Y-123582000D02*
X146314000Y-123950000D01*
X97739600Y-101197000D02*
X86332800Y-101197000D01*
X147488700Y-123582000D02*
X146314000Y-123582000D01*
X121886000Y-126348000D02*
X120348000Y-124810000D01*
X120348000Y-122544000D02*
X116577000Y-118773000D01*
X86332800Y-101197000D02*
X85576800Y-100441000D01*
X115316000Y-118773000D02*
X97739600Y-101197000D01*
X143916000Y-126348000D02*
X121886000Y-126348000D01*
X116577000Y-118773000D02*
X115316000Y-118773000D01*
X120348000Y-124810000D02*
X120348000Y-122544000D01*
X146314000Y-123950000D02*
X143916000Y-126348000D01*
X85576800Y-100441000D02*
X84955500Y-100441000D01*
%TO.N,D35*%
X84268800Y-124405700D02*
X85090000Y-123584500D01*
X80763600Y-124405700D02*
X84268800Y-124405700D01*
X87537000Y-119520500D02*
X83822200Y-115805700D01*
X79915100Y-123557200D02*
X80763600Y-124405700D01*
X87537000Y-121173900D02*
X87537000Y-119520500D01*
X86885700Y-121825200D02*
X87537000Y-121173900D01*
X83822200Y-114680600D02*
X83822200Y-115805700D01*
X85090000Y-122709100D02*
X85973900Y-121825200D01*
X79915100Y-123190000D02*
X79915100Y-123557200D01*
X85973900Y-121825200D02*
X86885700Y-121825200D01*
X85090000Y-123584500D02*
X85090000Y-122709100D01*
X78740000Y-123190000D02*
X79915100Y-123190000D01*
%TO.N,TX*%
X151552000Y-102954000D02*
X151552000Y-99140900D01*
X151552000Y-99140900D02*
X146448000Y-94037500D01*
X169541000Y-122407000D02*
X169174000Y-122040000D01*
X169174000Y-120576000D02*
X151552000Y-102954000D01*
X170349000Y-122407000D02*
X169541000Y-122407000D01*
X169174000Y-122040000D02*
X169174000Y-120576000D01*
X170349000Y-123582000D02*
X170349000Y-122407000D01*
%TO.N,RX*%
X167809000Y-122407000D02*
X167442000Y-122407000D01*
X167809000Y-123582000D02*
X167809000Y-122407000D01*
X167442000Y-122407000D02*
X166634000Y-121599000D01*
X166634000Y-120735000D02*
X138918000Y-93019500D01*
X166634000Y-121599000D02*
X166634000Y-120735000D01*
%TO.N,D34*%
X76200000Y-118637500D02*
X76200000Y-120650000D01*
X79031800Y-114680600D02*
X79031800Y-115805700D01*
X79031800Y-115805700D02*
X76200000Y-118637500D01*
%TO.N,D17*%
X118315000Y-118323000D02*
X115528000Y-118323000D01*
X125882000Y-125890000D02*
X118315000Y-118323000D01*
X144948700Y-123582000D02*
X143774000Y-123582000D01*
X115528000Y-118323000D02*
X97671600Y-100467000D01*
X97671600Y-100467000D02*
X87086200Y-100467000D01*
X143774000Y-123582000D02*
X143774000Y-123950000D01*
X141834000Y-125890000D02*
X125882000Y-125890000D01*
X143774000Y-123950000D02*
X141834000Y-125890000D01*
%TO.N,D16*%
X127416000Y-125023000D02*
X126174000Y-125023000D01*
X113240000Y-118359000D02*
X101409000Y-106528000D01*
X126174000Y-125023000D02*
X123531000Y-122380000D01*
X113240000Y-119240000D02*
X113240000Y-118359000D01*
%TO.N,Net-(Q2-D)*%
X75338600Y-89188500D02*
X77074800Y-87452300D01*
X77074800Y-87452300D02*
X77074800Y-84356600D01*
X75338600Y-90313600D02*
X75338600Y-89188500D01*
%TO.N,Net-(Q5-D)*%
X106673000Y-84714300D02*
X106673400Y-84713900D01*
X105142700Y-88656400D02*
X105142700Y-90291400D01*
X106673000Y-84714300D02*
X106673000Y-85139500D01*
X106673000Y-84289200D02*
X106673000Y-84714300D01*
X106673000Y-85139500D02*
X105143000Y-86670200D01*
X105143000Y-86670200D02*
X105143000Y-88656100D01*
X106673400Y-84713900D02*
X106673400Y-84289200D01*
X105143000Y-88656100D02*
X105142700Y-88656400D01*
%TO.N,Net-(Q8-D)*%
X134317000Y-89823200D02*
X134317000Y-89542300D01*
X134317000Y-89541900D02*
X134317000Y-89260600D01*
X137542600Y-85213000D02*
X137543000Y-85213400D01*
X134317000Y-89542300D02*
X134317000Y-89541900D01*
X135161000Y-89260600D02*
X137543000Y-86879400D01*
X137543000Y-86879400D02*
X137543000Y-85213400D01*
X134317000Y-89260600D02*
X135161000Y-89260600D01*
X137542600Y-84362900D02*
X137542600Y-85213000D01*
%TO.N,Net-(Q11-D)*%
X163244000Y-88845900D02*
X167688000Y-84401800D01*
X162999000Y-88845900D02*
X163244000Y-88845900D01*
X162999000Y-89408400D02*
X162999000Y-88845900D01*
%TO.N,Z1*%
X77074800Y-83086600D02*
X78149900Y-83086600D01*
X80963400Y-89149200D02*
X78149900Y-89149200D01*
X83466700Y-91919700D02*
X82490700Y-91919700D01*
X82490700Y-91919700D02*
X81714600Y-91143600D01*
X117218000Y-95632600D02*
X86513200Y-95632600D01*
X81714600Y-89900400D02*
X80963400Y-89149200D01*
X123928000Y-116049000D02*
X123647000Y-116049000D01*
X85138300Y-94257700D02*
X85138300Y-93591300D01*
X86513200Y-95632600D02*
X85138300Y-94257700D01*
X78149900Y-89149200D02*
X78149900Y-90140600D01*
X123928000Y-116611500D02*
X123928000Y-116049000D01*
X85138300Y-93591300D02*
X83466700Y-91919700D01*
X118522000Y-96936300D02*
X117218000Y-95632600D01*
X78149900Y-83086600D02*
X78149900Y-89149200D01*
X118522000Y-110924000D02*
X118522000Y-96936300D01*
X123647000Y-116049000D02*
X118522000Y-110924000D01*
X81714600Y-91143600D02*
X81714600Y-89900400D01*
%TO.N,Z2*%
X107748000Y-83019200D02*
X106673400Y-83019200D01*
X107748000Y-90230300D02*
X107748000Y-83019200D01*
X112615000Y-95097200D02*
X107804000Y-90285900D01*
X123928000Y-113509000D02*
X123723000Y-113509000D01*
X119203000Y-108988000D02*
X119203000Y-96980600D01*
X119203000Y-96980600D02*
X117319000Y-95097200D01*
X117319000Y-95097200D02*
X112615000Y-95097200D01*
X123928000Y-114633800D02*
X123928000Y-113509000D01*
X123723000Y-113509000D02*
X119203000Y-108988000D01*
%TO.N,Z3*%
X137678000Y-89700500D02*
X136973400Y-90405100D01*
X123647000Y-110969000D02*
X122313000Y-109635000D01*
X122313000Y-109635000D02*
X122313000Y-96828700D01*
X123928000Y-111531500D02*
X123928000Y-110969000D01*
X122313000Y-96828700D02*
X126286000Y-92855400D01*
X138618000Y-88760900D02*
X138618000Y-83092900D01*
X126286000Y-92855400D02*
X134523000Y-92855400D01*
X136973000Y-90405200D02*
X137678000Y-89700500D01*
X123928000Y-110969000D02*
X123647000Y-110969000D01*
X134523000Y-92855400D02*
X136973000Y-90405200D01*
X137678000Y-89700500D02*
X138618000Y-88760900D01*
X138618000Y-83092900D02*
X137543000Y-83092900D01*
%TO.N,Z4*%
X123928000Y-108429000D02*
X123647000Y-108429000D01*
X136503000Y-92258100D02*
X139182000Y-92258100D01*
X123484000Y-98197700D02*
X130564000Y-98197700D01*
X167687500Y-82813000D02*
X178371000Y-82813000D01*
X178371000Y-82813000D02*
X179350800Y-81833200D01*
X123928000Y-108991500D02*
X123928000Y-108429000D01*
X142624000Y-94765500D02*
X143458000Y-93931200D01*
X143458000Y-93220700D02*
X147833000Y-88845800D01*
X139182000Y-92258100D02*
X141690000Y-94765500D01*
X147833000Y-88845800D02*
X159617000Y-88845800D01*
X143458000Y-93931200D02*
X143458000Y-93220700D01*
X130564000Y-98197700D02*
X136503000Y-92258100D01*
X122763000Y-107545000D02*
X122763000Y-98918700D01*
X122763000Y-98918700D02*
X123484000Y-98197700D01*
X159617000Y-88845800D02*
X165650000Y-82813000D01*
X165650000Y-82813000D02*
X167687500Y-82813000D01*
X141690000Y-94765500D02*
X142624000Y-94765500D01*
X123647000Y-108429000D02*
X122763000Y-107545000D01*
%TO.N,Z5*%
X123928100Y-107014000D02*
X125053000Y-107014000D01*
X148854000Y-120687000D02*
X148854000Y-121601000D01*
X125053000Y-107014000D02*
X137200000Y-119160000D01*
X156474000Y-123582000D02*
X157648700Y-123582000D01*
X148854000Y-121601000D02*
X149565000Y-122312000D01*
X147327000Y-119160000D02*
X148854000Y-120687000D01*
X149565000Y-122312000D02*
X155569000Y-122312000D01*
X155569000Y-122312000D02*
X156474000Y-123217000D01*
X137200000Y-119160000D02*
X147327000Y-119160000D01*
X156474000Y-123217000D02*
X156474000Y-123582000D01*
%TO.N,Z6*%
X138981000Y-118158000D02*
X125297000Y-104474000D01*
X160189000Y-123582000D02*
X160189000Y-122407000D01*
X156439000Y-118158000D02*
X138981000Y-118158000D01*
X158919000Y-121502000D02*
X158919000Y-120638000D01*
X159824000Y-122407000D02*
X158919000Y-121502000D01*
X160189000Y-122407000D02*
X159824000Y-122407000D01*
X158919000Y-120638000D02*
X156439000Y-118158000D01*
X125297000Y-104474000D02*
X123928100Y-104474000D01*
%TO.N,Z7*%
X125053000Y-101934000D02*
X125278000Y-101709000D01*
X162729000Y-122407000D02*
X162729000Y-123582000D01*
X162364000Y-122407000D02*
X162729000Y-122407000D01*
X125278000Y-101709000D02*
X143297000Y-101709000D01*
X123928100Y-101934000D02*
X125053000Y-101934000D01*
X143297000Y-101709000D02*
X161459000Y-119870000D01*
X161459000Y-119870000D02*
X161459000Y-121502000D01*
X161459000Y-121502000D02*
X162364000Y-122407000D01*
%TO.N,Z8*%
X143940000Y-100564000D02*
X164094000Y-120718000D01*
X126223000Y-100564000D02*
X143940000Y-100564000D01*
X164902000Y-122407000D02*
X165269000Y-122407000D01*
X165269000Y-122407000D02*
X165269000Y-123582000D01*
X125053000Y-99393800D02*
X126223000Y-100564000D01*
X123928000Y-99393800D02*
X125053000Y-99393800D01*
X164094000Y-120718000D02*
X164094000Y-121599000D01*
X164094000Y-121599000D02*
X164902000Y-122407000D01*
D37*
%TO.N,Net-(U1-~{RESET})*%
X113712000Y-112150000D02*
X116307900Y-109554100D01*
D35*
%TO.N,Net-(D1-K)*%
X99310600Y-111010000D02*
X103793000Y-111010000D01*
X98113700Y-112207000D02*
X99310600Y-111010000D01*
X103793000Y-111010000D02*
X116821000Y-124038000D01*
%TO.N,Net-(D6-A)*%
X145816000Y-93146700D02*
X148564000Y-90398200D01*
X144691000Y-93635300D02*
X145816000Y-93635300D01*
X145816000Y-93635300D02*
X145816000Y-93146700D01*
X148564000Y-90398200D02*
X152192800Y-90398200D01*
%TO.N,D33*%
X84764700Y-121920000D02*
X85027300Y-121657000D01*
X84138500Y-119306000D02*
X83820000Y-119306000D01*
X85027300Y-121657000D02*
X85027300Y-120195000D01*
X85027300Y-120195000D02*
X84138500Y-119306000D01*
X79487200Y-113493000D02*
X76435600Y-113493000D01*
X83820000Y-117825600D02*
X79487200Y-113492800D01*
X83820000Y-120650000D02*
X83820000Y-117825600D01*
X76435600Y-113493000D02*
X75859900Y-114068000D01*
D37*
%TO.N,D22*%
X117752000Y-113041000D02*
X123427000Y-118715000D01*
X123427000Y-118715000D02*
X127409000Y-118715000D01*
X117752000Y-98298300D02*
X117752000Y-113041000D01*
X113514000Y-99647400D02*
X116307900Y-96853800D01*
X113514000Y-102808000D02*
X113514000Y-99647400D01*
X127409000Y-118715000D02*
X133770000Y-125077000D01*
X113151000Y-99284500D02*
X113514000Y-99647400D01*
X133770000Y-125077000D02*
X138374000Y-125077000D01*
X138374000Y-125077000D02*
X139868900Y-123582100D01*
X72614500Y-99284500D02*
X113151000Y-99284500D01*
X71120000Y-97790000D02*
X72614500Y-99284500D01*
X116308000Y-96853800D02*
X117752000Y-98298300D01*
D35*
%TO.N,D25*%
X88342900Y-122015000D02*
X89236000Y-122015000D01*
X111460700Y-122014800D02*
X112318500Y-122014800D01*
X117493800Y-126111700D02*
X118581700Y-125023800D01*
X87535100Y-122823000D02*
X88342900Y-122015000D01*
X86360000Y-123190000D02*
X87535100Y-123190000D01*
X115156400Y-126111700D02*
X117493800Y-126111700D01*
X113429200Y-124384500D02*
X115156400Y-126111700D01*
X102763000Y-112162000D02*
X110490000Y-119889000D01*
X87535100Y-123190000D02*
X87535100Y-122823000D01*
X89236000Y-122015000D02*
X90200000Y-121051000D01*
X113429200Y-123125500D02*
X113429200Y-124384500D01*
X110490000Y-119889000D02*
X110490000Y-121044100D01*
X90200000Y-120209000D02*
X92193700Y-118216000D01*
X92193700Y-118216000D02*
X96709200Y-118216000D01*
X90200000Y-121051000D02*
X90200000Y-120209000D01*
X110490000Y-121044100D02*
X111460700Y-122014800D01*
X96709200Y-118216000D02*
X102763000Y-112162000D01*
X112318500Y-122014800D02*
X113429200Y-123125500D01*
%TO.N,/InputIsolation/4in*%
X133931800Y-96478900D02*
X133663700Y-96478900D01*
X133663700Y-96478900D02*
X131239200Y-98903400D01*
%TD*%
M02*
