%TF.GenerationSoftware,KiCad,Pcbnew,7.0.1*%
%TF.CreationDate,2023-06-01T20:04:05-07:00*%
%TF.ProjectId,MakeItRain,4d616b65-4974-4526-9169-6e2e6b696361,rev?*%
%TF.SameCoordinates,Original*%
%TF.FileFunction,Copper,L2,Inr*%
%TF.FilePolarity,Positive*%
%FSLAX46Y46*%
G04 Gerber Fmt 4.6, Leading zero omitted, Abs format (unit mm)*
G04 Created by KiCad (PCBNEW 7.0.1) date 2023-06-01 20:04:05*
%MOMM*%
%LPD*%
G01*
G04 APERTURE LIST*
%TA.AperFunction,ComponentPad*%
%ADD10C,1.600000*%
%TD*%
%TA.AperFunction,ComponentPad*%
%ADD11R,2.600000X2.600000*%
%TD*%
%TA.AperFunction,ComponentPad*%
%ADD12O,2.600000X2.600000*%
%TD*%
%TA.AperFunction,ComponentPad*%
%ADD13R,1.800000X1.800000*%
%TD*%
%TA.AperFunction,ComponentPad*%
%ADD14C,1.800000*%
%TD*%
%TA.AperFunction,ComponentPad*%
%ADD15R,1.700000X1.700000*%
%TD*%
%TA.AperFunction,ComponentPad*%
%ADD16O,1.700000X1.700000*%
%TD*%
%TA.AperFunction,ComponentPad*%
%ADD17C,2.600000*%
%TD*%
%TA.AperFunction,ComponentPad*%
%ADD18R,1.920000X1.920000*%
%TD*%
%TA.AperFunction,ComponentPad*%
%ADD19C,1.920000*%
%TD*%
%TA.AperFunction,ComponentPad*%
%ADD20R,1.150000X1.150000*%
%TD*%
%TA.AperFunction,ComponentPad*%
%ADD21C,1.150000*%
%TD*%
%TA.AperFunction,ComponentPad*%
%ADD22O,1.600000X1.600000*%
%TD*%
%TA.AperFunction,ComponentPad*%
%ADD23R,1.500000X1.050000*%
%TD*%
%TA.AperFunction,ComponentPad*%
%ADD24O,1.500000X1.050000*%
%TD*%
%TA.AperFunction,ComponentPad*%
%ADD25C,1.440000*%
%TD*%
%TA.AperFunction,ComponentPad*%
%ADD26R,1.050000X1.500000*%
%TD*%
%TA.AperFunction,ComponentPad*%
%ADD27O,1.050000X1.500000*%
%TD*%
%TA.AperFunction,ComponentPad*%
%ADD28R,1.600000X1.600000*%
%TD*%
%TA.AperFunction,ComponentPad*%
%ADD29R,1.500000X1.500000*%
%TD*%
%TA.AperFunction,ComponentPad*%
%ADD30C,1.500000*%
%TD*%
%TA.AperFunction,ComponentPad*%
%ADD31C,2.100000*%
%TD*%
%TA.AperFunction,ViaPad*%
%ADD32C,0.800000*%
%TD*%
%TA.AperFunction,Conductor*%
%ADD33C,0.250000*%
%TD*%
%TA.AperFunction,Conductor*%
%ADD34C,0.508000*%
%TD*%
%TA.AperFunction,Conductor*%
%ADD35C,1.524000*%
%TD*%
%TA.AperFunction,Conductor*%
%ADD36C,0.762000*%
%TD*%
%TA.AperFunction,Conductor*%
%ADD37C,1.016000*%
%TD*%
G04 APERTURE END LIST*
D10*
%TO.N,/InputIsolation/2in*%
%TO.C,C2*%
X89109000Y-69659700D03*
%TO.N,GND*%
X89109000Y-74659700D03*
%TD*%
%TO.N,/InputIsolation/3in*%
%TO.C,C3*%
X119449600Y-64825000D03*
%TO.N,GND*%
X119449600Y-69825000D03*
%TD*%
%TO.N,/InputIsolation/4in*%
%TO.C,C4*%
X151357900Y-66638300D03*
%TO.N,GND*%
X151357900Y-71638300D03*
%TD*%
D11*
%TO.N,/Zone1IO/ZoneOutput*%
%TO.C,D3*%
X83061000Y-85060000D03*
D12*
%TO.N,GND*%
X83061000Y-69820000D03*
%TD*%
D11*
%TO.N,/Zone2IO/ZoneOutput*%
%TO.C,D5*%
X113541000Y-85060000D03*
D12*
%TO.N,GND*%
X113541000Y-69820000D03*
%TD*%
D11*
%TO.N,/Zone4IO/ZoneOutput*%
%TO.C,D7*%
X174501000Y-85060000D03*
D12*
%TO.N,GND*%
X174501000Y-69820000D03*
%TD*%
D11*
%TO.N,/Zone3IO/ZoneOutput*%
%TO.C,D9*%
X144021000Y-85060000D03*
D12*
%TO.N,GND*%
X144021000Y-69820000D03*
%TD*%
D13*
%TO.N,Net-(D1-K)*%
%TO.C,D1*%
X128872900Y-123268200D03*
D14*
%TO.N,D27*%
X126332900Y-123268200D03*
%TD*%
D15*
%TO.N,+3V3*%
%TO.C,J2*%
X66040000Y-120650000D03*
D16*
X66040000Y-123190000D03*
%TO.N,EN*%
X68580000Y-120650000D03*
X68580000Y-123190000D03*
%TO.N,D36*%
X71120000Y-120650000D03*
X71120000Y-123190000D03*
%TO.N,D39*%
X73660000Y-120650000D03*
X73660000Y-123190000D03*
%TO.N,D34*%
X76200000Y-120650000D03*
X76200000Y-123190000D03*
%TO.N,D35*%
X78740000Y-120650000D03*
X78740000Y-123190000D03*
%TO.N,D32*%
X81280000Y-120650000D03*
X81280000Y-123190000D03*
%TO.N,D33*%
X83820000Y-120650000D03*
X83820000Y-123190000D03*
%TO.N,D25*%
X86360000Y-120650000D03*
X86360000Y-123190000D03*
%TO.N,D26*%
X88900000Y-120650000D03*
X88900000Y-123190000D03*
%TO.N,D27*%
X91440000Y-120650000D03*
X91440000Y-123190000D03*
%TO.N,D14*%
X93980000Y-120650000D03*
X93980000Y-123190000D03*
%TO.N,D12*%
X96520000Y-120650000D03*
X96520000Y-123190000D03*
%TO.N,GND*%
X99060000Y-120650000D03*
X99060000Y-123190000D03*
%TO.N,unconnected-(J2-Pin_29-Pad29)*%
X101600000Y-120650000D03*
%TO.N,unconnected-(J2-Pin_30-Pad30)*%
X101600000Y-123190000D03*
%TO.N,unconnected-(J2-Pin_31-Pad31)*%
X104140000Y-120650000D03*
%TO.N,unconnected-(J2-Pin_32-Pad32)*%
X104140000Y-123190000D03*
%TO.N,unconnected-(J2-Pin_33-Pad33)*%
X106680000Y-120650000D03*
%TO.N,unconnected-(J2-Pin_34-Pad34)*%
X106680000Y-123190000D03*
%TO.N,unconnected-(J2-Pin_35-Pad35)*%
X109220000Y-120650000D03*
%TO.N,unconnected-(J2-Pin_36-Pad36)*%
X109220000Y-123190000D03*
%TO.N,Net-(J2-Pin_37)*%
X111760000Y-120650000D03*
X111760000Y-123190000D03*
%TD*%
D15*
%TO.N,GND*%
%TO.C,J3*%
X66040000Y-97790000D03*
D16*
%TO.N,D23*%
X68580000Y-97790000D03*
%TO.N,D22*%
X71120000Y-97790000D03*
%TO.N,TX*%
X73660000Y-97790000D03*
%TO.N,RX*%
X76200000Y-97790000D03*
%TO.N,D21*%
X78740000Y-97790000D03*
%TO.N,GND*%
X81280000Y-97790000D03*
%TO.N,D19*%
X83820000Y-97790000D03*
%TO.N,D18*%
X86360000Y-97790000D03*
%TO.N,D5*%
X88900000Y-97790000D03*
%TO.N,D17*%
X91440000Y-97790000D03*
%TO.N,D16*%
X93980000Y-97790000D03*
%TO.N,D4*%
X96520000Y-97790000D03*
%TO.N,D0*%
X99060000Y-97790000D03*
%TO.N,D2*%
X101600000Y-97790000D03*
%TO.N,D15*%
X104140000Y-97790000D03*
%TO.N,/SD1*%
X106680000Y-97790000D03*
%TO.N,/SDD*%
X109220000Y-97790000D03*
%TO.N,/CLK*%
X111760000Y-97790000D03*
%TD*%
D11*
%TO.N,Net-(P1-Pin_1)*%
%TO.C,P1*%
X178125700Y-96457800D03*
D17*
%TO.N,GND*%
X178125700Y-91377800D03*
%TD*%
D18*
%TO.N,Net-(Q3-Pad1)*%
%TO.C,Q3*%
X71689700Y-82379600D03*
D19*
%TO.N,/Zone1IO/ZoneOutput*%
X69149700Y-82379600D03*
%TO.N,+VDC*%
X66609700Y-82379600D03*
%TD*%
D18*
%TO.N,Net-(Q6-Pad1)*%
%TO.C,Q6*%
X101108600Y-82267600D03*
D19*
%TO.N,/Zone2IO/ZoneOutput*%
X98568600Y-82267600D03*
%TO.N,+VDC*%
X96028600Y-82267600D03*
%TD*%
D18*
%TO.N,Net-(Q9-Pad1)*%
%TO.C,Q9*%
X131085700Y-82267600D03*
D19*
%TO.N,/Zone3IO/ZoneOutput*%
X128545700Y-82267600D03*
%TO.N,+VDC*%
X126005700Y-82267600D03*
%TD*%
D18*
%TO.N,Net-(Q12-Pad1)*%
%TO.C,Q12*%
X162229200Y-82267600D03*
D19*
%TO.N,/Zone4IO/ZoneOutput*%
X159689200Y-82267600D03*
%TO.N,+VDC*%
X157149200Y-82267600D03*
%TD*%
D18*
%TO.N,Net-(Q13-Pad1)*%
%TO.C,Q13*%
X174341600Y-105164100D03*
D19*
%TO.N,Net-(P1-Pin_1)*%
X176881600Y-105164100D03*
%TO.N,Net-(Q13-Pad3)*%
X179421600Y-105164100D03*
%TD*%
D11*
%TO.N,/InputIsolation/2in*%
%TO.C,Z2*%
X106556000Y-71090000D03*
D17*
%TO.N,/Zone2IO/ZoneOutput*%
X101476000Y-71090000D03*
%TO.N,GND*%
X96396000Y-71090000D03*
%TD*%
D11*
%TO.N,/InputIsolation/3in*%
%TO.C,Z3*%
X137036000Y-71090000D03*
D17*
%TO.N,/Zone3IO/ZoneOutput*%
X131956000Y-71090000D03*
%TO.N,GND*%
X126876000Y-71090000D03*
%TD*%
D11*
%TO.N,/InputIsolation/4in*%
%TO.C,Z4*%
X167516000Y-71090000D03*
D17*
%TO.N,/Zone4IO/ZoneOutput*%
X162436000Y-71090000D03*
%TO.N,GND*%
X157356000Y-71090000D03*
%TD*%
D11*
%TO.N,/InputIsolation/1in*%
%TO.C,Z1*%
X76076000Y-71090000D03*
D17*
%TO.N,/Zone1IO/ZoneOutput*%
X70996000Y-71090000D03*
%TO.N,GND*%
X65916000Y-71090000D03*
%TD*%
D15*
%TO.N,+VDC*%
%TO.C,J1*%
X170349000Y-121042300D03*
D16*
%TO.N,TX*%
X170349000Y-123582300D03*
%TO.N,+VDC*%
X167809000Y-121042300D03*
%TO.N,RX*%
X167809000Y-123582300D03*
%TO.N,+VDC*%
X165269000Y-121042300D03*
%TO.N,Z8*%
X165269000Y-123582300D03*
%TO.N,+VDC*%
X162729000Y-121042300D03*
%TO.N,Z7*%
X162729000Y-123582300D03*
%TO.N,+VDC*%
X160189000Y-121042300D03*
%TO.N,Z6*%
X160189000Y-123582300D03*
%TO.N,+3V3*%
X157649000Y-121042300D03*
%TO.N,Z5*%
X157649000Y-123582300D03*
%TO.N,+3V3*%
X155109000Y-121042300D03*
%TO.N,D26*%
X155109000Y-123582300D03*
%TO.N,+3V3*%
X152569000Y-121042300D03*
%TO.N,D23*%
X152569000Y-123582300D03*
%TO.N,+3V3*%
X150029000Y-121042300D03*
%TO.N,D19*%
X150029000Y-123582300D03*
%TO.N,GND*%
X147489000Y-121042300D03*
%TO.N,D18*%
X147489000Y-123582300D03*
%TO.N,GND*%
X144949000Y-121042300D03*
%TO.N,D17*%
X144949000Y-123582300D03*
%TO.N,GND*%
X142409000Y-121042300D03*
%TO.N,D16*%
X142409000Y-123582300D03*
%TO.N,GND*%
X139869000Y-121042300D03*
%TO.N,D22*%
X139869000Y-123582300D03*
%TO.N,GND*%
X137329000Y-121042300D03*
%TO.N,D21*%
X137329000Y-123582300D03*
%TD*%
D20*
%TO.N,+VDC*%
%TO.C,Z5*%
X64792500Y-87395400D03*
D21*
%TO.N,Net-(Q3-Pad1)*%
X75492500Y-87395400D03*
%TD*%
D20*
%TO.N,+VDC*%
%TO.C,Z6*%
X95418500Y-87436000D03*
D21*
%TO.N,Net-(Q6-Pad1)*%
X106118500Y-87436000D03*
%TD*%
D20*
%TO.N,+VDC*%
%TO.C,Z8*%
X156564300Y-87104200D03*
D21*
%TO.N,Net-(Q12-Pad1)*%
X167264300Y-87104200D03*
%TD*%
D10*
%TO.N,+VDC*%
%TO.C,R23*%
X75572300Y-105627200D03*
D22*
%TO.N,Net-(IC1-+IN_A)*%
X73032300Y-105627200D03*
%TD*%
D10*
%TO.N,D36*%
%TO.C,R31*%
X83822200Y-112140600D03*
D22*
%TO.N,GND*%
X83822200Y-114680600D03*
%TD*%
D10*
%TO.N,Net-(Q9-Pad1)*%
%TO.C,R16*%
X131777400Y-90385900D03*
D22*
%TO.N,Net-(Q8-D)*%
X134317400Y-90385900D03*
%TD*%
D23*
%TO.N,GND*%
%TO.C,Q2*%
X77074800Y-81816600D03*
D24*
%TO.N,Z1*%
X77074800Y-83086600D03*
%TO.N,Net-(Q2-D)*%
X77074800Y-84356600D03*
%TD*%
D10*
%TO.N,Net-(IC1-+IN_A)*%
%TO.C,R24*%
X73376700Y-108765100D03*
D22*
%TO.N,GND*%
X75916700Y-108765100D03*
%TD*%
D25*
%TO.N,AuxVoltage*%
%TO.C,RV1*%
X150281700Y-100622000D03*
%TO.N,Net-(IC1-+INB)*%
X152821700Y-100622000D03*
%TO.N,GND*%
X155361700Y-100622000D03*
%TD*%
D15*
%TO.N,AuxVoltage*%
%TO.C,J4*%
X155598900Y-95333800D03*
%TD*%
D26*
%TO.N,Net-(Q17-D)*%
%TO.C,Q17*%
X166969300Y-94364700D03*
D27*
%TO.N,Net-(Q17-G)*%
X168239300Y-94364700D03*
%TO.N,/InputIsolation/4in*%
X169509300Y-94364700D03*
%TD*%
D10*
%TO.N,+VDC*%
%TO.C,R15*%
X126614500Y-90392400D03*
D22*
%TO.N,Net-(Q9-Pad1)*%
X129154500Y-90392400D03*
%TD*%
D10*
%TO.N,Net-(Q17-D)*%
%TO.C,R42*%
X142407900Y-98464700D03*
D22*
%TO.N,Net-(IC2-A_4)*%
X139867900Y-98464700D03*
%TD*%
D15*
%TO.N,+VDC*%
%TO.C,J5*%
X59207700Y-91310200D03*
D16*
%TO.N,+3V3*%
X59207700Y-88770200D03*
%TO.N,GND*%
X59207700Y-86230200D03*
%TD*%
D10*
%TO.N,Net-(D1-K)*%
%TO.C,R4*%
X98113700Y-112207200D03*
D22*
%TO.N,GND*%
X98113700Y-114747200D03*
%TD*%
D10*
%TO.N,Z4*%
%TO.C,R18*%
X179350700Y-81833100D03*
D22*
%TO.N,GND*%
X181890700Y-81833100D03*
%TD*%
D10*
%TO.N,Net-(Q16-D)*%
%TO.C,R29*%
X142407900Y-104638100D03*
D22*
%TO.N,Net-(IC2-A_3)*%
X139867900Y-104638100D03*
%TD*%
D26*
%TO.N,Net-(Q15-D)*%
%TO.C,Q15*%
X113342900Y-90892300D03*
D27*
%TO.N,Net-(Q15-G)*%
X114612900Y-90892300D03*
%TO.N,/InputIsolation/2in*%
X115882900Y-90892300D03*
%TD*%
D10*
%TO.N,D33*%
%TO.C,R25*%
X75859900Y-114068500D03*
D22*
%TO.N,GND*%
X75859900Y-111528500D03*
%TD*%
D10*
%TO.N,Net-(Q14-D)*%
%TO.C,R40*%
X142407900Y-113984100D03*
D22*
%TO.N,Net-(IC2-A_1)*%
X139867900Y-113984100D03*
%TD*%
D10*
%TO.N,D35*%
%TO.C,R33*%
X93402900Y-112140600D03*
D22*
%TO.N,GND*%
X93402900Y-114680600D03*
%TD*%
D10*
%TO.N,Z3*%
%TO.C,R14*%
X136973400Y-90405200D03*
D22*
%TO.N,GND*%
X139513400Y-90405200D03*
%TD*%
D23*
%TO.N,GND*%
%TO.C,Q11*%
X167687500Y-81543000D03*
D24*
%TO.N,Z4*%
X167687500Y-82813000D03*
%TO.N,Net-(Q11-D)*%
X167687500Y-84083000D03*
%TD*%
D10*
%TO.N,Net-(Q15-D)*%
%TO.C,R27*%
X142407900Y-109312000D03*
D22*
%TO.N,Net-(IC2-A_2)*%
X139867900Y-109312000D03*
%TD*%
D28*
%TO.N,D22*%
%TO.C,U1*%
X116307900Y-96853800D03*
D22*
%TO.N,D21*%
X116307900Y-99393800D03*
%TO.N,GND*%
X116307900Y-101933800D03*
X116307900Y-104473800D03*
X116307900Y-107013800D03*
%TO.N,Net-(U1-~{RESET})*%
X116307900Y-109553800D03*
%TO.N,unconnected-(U1-NC-Pad7)*%
X116307900Y-112093800D03*
%TO.N,unconnected-(U1-INT-Pad8)*%
X116307900Y-114633800D03*
%TO.N,GND*%
X116307900Y-117173800D03*
%TO.N,Z1*%
X123927900Y-117173800D03*
%TO.N,Z2*%
X123927900Y-114633800D03*
%TO.N,Z3*%
X123927900Y-112093800D03*
%TO.N,Z4*%
X123927900Y-109553800D03*
%TO.N,Z5*%
X123927900Y-107013800D03*
%TO.N,Z6*%
X123927900Y-104473800D03*
%TO.N,Z7*%
X123927900Y-101933800D03*
%TO.N,Z8*%
X123927900Y-99393800D03*
%TO.N,+3V3*%
X123927900Y-96853800D03*
%TD*%
D29*
%TO.N,unconnected-(S1-NO_1-Pad1)*%
%TO.C,S1*%
X115616200Y-120523800D03*
D30*
%TO.N,+3V3*%
X122116200Y-120523800D03*
%TO.N,unconnected-(S1-COM_1-Pad3)*%
X115616200Y-125023800D03*
%TO.N,D25*%
X122116200Y-125023800D03*
%TD*%
D10*
%TO.N,Net-(Q14-G)*%
%TO.C,R39*%
X90678000Y-88920900D03*
D22*
%TO.N,GND*%
X90678000Y-86380900D03*
%TD*%
D26*
%TO.N,Net-(Q14-D)*%
%TO.C,Q14*%
X83603600Y-90279500D03*
D27*
%TO.N,Net-(Q14-G)*%
X84873600Y-90279500D03*
%TO.N,/InputIsolation/1in*%
X86143600Y-90279500D03*
%TD*%
D10*
%TO.N,Z1*%
%TO.C,R6*%
X77976900Y-90313600D03*
D22*
%TO.N,GND*%
X80516900Y-90313600D03*
%TD*%
D10*
%TO.N,+VDC*%
%TO.C,R11*%
X97428100Y-90313600D03*
D22*
%TO.N,Net-(Q6-Pad1)*%
X99968100Y-90313600D03*
%TD*%
D10*
%TO.N,+VDC*%
%TO.C,R7*%
X67592100Y-90313600D03*
D22*
%TO.N,Net-(Q3-Pad1)*%
X70132100Y-90313600D03*
%TD*%
D10*
%TO.N,+3V3*%
%TO.C,R37*%
X110974300Y-107478900D03*
D22*
%TO.N,D21*%
X113514300Y-107478900D03*
%TD*%
D31*
%TO.N,+VDC*%
%TO.C,U2*%
X164978400Y-112300500D03*
X168478400Y-112300500D03*
%TO.N,Net-(Q13-Pad3)*%
X174278400Y-112300500D03*
X177778400Y-112300500D03*
X177778400Y-109800500D03*
X174278400Y-109800500D03*
%TO.N,+VDC*%
X168478400Y-109800500D03*
X164978400Y-109800500D03*
%TD*%
D10*
%TO.N,Net-(Q15-G)*%
%TO.C,R26*%
X122404600Y-89835700D03*
D22*
%TO.N,GND*%
X122404600Y-87295700D03*
%TD*%
D10*
%TO.N,+3V3*%
%TO.C,R36*%
X110974300Y-112149500D03*
D22*
%TO.N,Net-(U1-~{RESET})*%
X113514300Y-112149500D03*
%TD*%
D10*
%TO.N,Net-(Q3-Pad1)*%
%TO.C,R8*%
X72798600Y-90313600D03*
D22*
%TO.N,Net-(Q2-D)*%
X75338600Y-90313600D03*
%TD*%
D23*
%TO.N,GND*%
%TO.C,Q8*%
X137542600Y-81822900D03*
D24*
%TO.N,Z3*%
X137542600Y-83092900D03*
%TO.N,Net-(Q8-D)*%
X137542600Y-84362900D03*
%TD*%
D23*
%TO.N,GND*%
%TO.C,Q5*%
X106673400Y-81749200D03*
D24*
%TO.N,Z2*%
X106673400Y-83019200D03*
%TO.N,Net-(Q5-D)*%
X106673400Y-84289200D03*
%TD*%
D10*
%TO.N,Net-(Q17-G)*%
%TO.C,R41*%
X167722300Y-90027800D03*
D22*
%TO.N,GND*%
X170262300Y-90027800D03*
%TD*%
D10*
%TO.N,Net-(Q13-Pad1)*%
%TO.C,R21*%
X167425100Y-105167700D03*
D22*
%TO.N,GND*%
X169965100Y-105167700D03*
%TD*%
D10*
%TO.N,/InputIsolation/1in*%
%TO.C,C1*%
X89195800Y-93955100D03*
%TO.N,GND*%
X94195800Y-93955100D03*
%TD*%
%TO.N,D25*%
%TO.C,R3*%
X102762800Y-112161900D03*
D22*
%TO.N,GND*%
X102762800Y-114701900D03*
%TD*%
D10*
%TO.N,D39*%
%TO.C,R30*%
X79031800Y-112140600D03*
D22*
%TO.N,GND*%
X79031800Y-114680600D03*
%TD*%
D10*
%TO.N,Net-(Q6-Pad1)*%
%TO.C,R12*%
X102602700Y-90291400D03*
D22*
%TO.N,Net-(Q5-D)*%
X105142700Y-90291400D03*
%TD*%
D10*
%TO.N,Net-(Q16-G)*%
%TO.C,R28*%
X144200900Y-94255400D03*
D22*
%TO.N,GND*%
X141660900Y-94255400D03*
%TD*%
D10*
%TO.N,Net-(Q12-Pad1)*%
%TO.C,R20*%
X160459300Y-89971000D03*
D22*
%TO.N,Net-(Q11-D)*%
X162999300Y-89971000D03*
%TD*%
D10*
%TO.N,+VDC*%
%TO.C,R19*%
X155096800Y-90020800D03*
D22*
%TO.N,Net-(Q12-Pad1)*%
X157636800Y-90020800D03*
%TD*%
D10*
%TO.N,Z2*%
%TO.C,R10*%
X107804100Y-90285900D03*
D22*
%TO.N,GND*%
X110344100Y-90285900D03*
%TD*%
D10*
%TO.N,D34*%
%TO.C,R32*%
X88612600Y-112140600D03*
D22*
%TO.N,GND*%
X88612600Y-114680600D03*
%TD*%
D20*
%TO.N,+VDC*%
%TO.C,Z7*%
X124968600Y-87436000D03*
D21*
%TO.N,Net-(Q9-Pad1)*%
X135668600Y-87436000D03*
%TD*%
D10*
%TO.N,+3V3*%
%TO.C,R38*%
X110974300Y-102808300D03*
D22*
%TO.N,D22*%
X113514300Y-102808300D03*
%TD*%
D10*
%TO.N,D32*%
%TO.C,R34*%
X57889400Y-114568900D03*
D22*
%TO.N,GND*%
X60429400Y-114568900D03*
%TD*%
D26*
%TO.N,Net-(Q16-D)*%
%TO.C,Q16*%
X142102800Y-90291000D03*
D27*
%TO.N,Net-(Q16-G)*%
X143372800Y-90291000D03*
%TO.N,/InputIsolation/3in*%
X144642800Y-90291000D03*
%TD*%
D32*
%TO.N,GND*%
X129390000Y-109740000D03*
X110681000Y-85364200D03*
X83300600Y-81350100D03*
X81460100Y-88612300D03*
X91871500Y-114680600D03*
X96062800Y-93214800D03*
X175398000Y-94105800D03*
%TO.N,+3V3*%
X64952200Y-114151600D03*
%TO.N,Net-(Q14-D)*%
X85031000Y-96930500D03*
%TO.N,/InputIsolation/3in*%
X143499500Y-88098900D03*
%TO.N,D39*%
X127444600Y-94963500D03*
X81309600Y-110235600D03*
X86992000Y-103236800D03*
%TO.N,Net-(Q16-D)*%
X143833900Y-98940900D03*
%TO.N,D36*%
X88320900Y-103977000D03*
X128993000Y-103059000D03*
%TO.N,D23*%
X89762800Y-117396000D03*
%TO.N,D19*%
X80741100Y-101478000D03*
X119870000Y-125819000D03*
%TO.N,Net-(IC1-+INB)*%
X62580600Y-106960000D03*
X147554000Y-92434500D03*
%TO.N,D18*%
X84955500Y-100441000D03*
%TO.N,D35*%
X94763800Y-105802900D03*
X128735300Y-105938600D03*
%TO.N,D32*%
X62842900Y-111931000D03*
%TO.N,TX*%
X146448000Y-94037500D03*
%TO.N,D34*%
X127222690Y-117120863D03*
X127240596Y-112303811D03*
X95682871Y-116052931D03*
%TO.N,D17*%
X87086200Y-100467000D03*
%TO.N,D16*%
X127416000Y-125023000D03*
X113240000Y-119240000D03*
X123531000Y-122380000D03*
X101409000Y-106528000D03*
%TO.N,Net-(D1-K)*%
X116821000Y-124038000D03*
%TO.N,D33*%
X84764700Y-121920000D03*
%TO.N,D25*%
X118582000Y-125024000D03*
%TD*%
D33*
%TO.N,GND*%
X169965000Y-104464000D02*
X169965000Y-104465000D01*
X118703000Y-108284000D02*
X127933000Y-108284000D01*
X169965000Y-104465000D02*
X169965000Y-104640500D01*
X93402900Y-114680600D02*
X94528000Y-114680600D01*
D34*
X169965000Y-103761000D02*
X169965000Y-103760000D01*
D33*
X94594600Y-114747200D02*
X94528000Y-114680600D01*
D34*
X169965000Y-102353000D02*
X169965000Y-99538400D01*
D33*
X96062800Y-93214800D02*
X94936100Y-93214800D01*
X80883900Y-89188500D02*
X80516900Y-89188500D01*
D34*
X169965000Y-104640500D02*
X169965000Y-104465000D01*
D33*
X169965000Y-103761000D02*
X169965000Y-104464000D01*
X93402900Y-114680600D02*
X91871500Y-114680600D01*
X98113700Y-114747200D02*
X94594600Y-114747200D01*
X80516900Y-90313600D02*
X80516900Y-89188500D01*
D34*
X169965000Y-99538400D02*
X175398000Y-94105800D01*
D33*
X169965000Y-102353000D02*
X169965000Y-103760000D01*
X94936100Y-93214800D02*
X94195800Y-93955100D01*
X127933000Y-108284000D02*
X129390000Y-109740000D01*
D34*
X175398000Y-94105800D02*
X178126000Y-91377800D01*
D33*
X117433000Y-107014000D02*
X118703000Y-108284000D01*
D34*
X169965000Y-103760000D02*
X169965000Y-102353000D01*
X169965000Y-104464000D02*
X169965000Y-103761000D01*
D33*
X81460100Y-88612300D02*
X80883900Y-89188500D01*
D34*
X169965000Y-104465000D02*
X169965000Y-104464000D01*
D33*
X169965000Y-103760000D02*
X169965000Y-103761000D01*
X116308100Y-107014000D02*
X117433000Y-107014000D01*
D35*
%TO.N,/Zone1IO/ZoneOutput*%
X78331100Y-80330100D02*
X83061000Y-85060000D01*
X69149700Y-81021900D02*
X69841600Y-80330100D01*
X69149700Y-82379600D02*
X69149700Y-81021900D01*
X69841600Y-80330100D02*
X78331100Y-80330100D01*
%TO.N,/Zone2IO/ZoneOutput*%
X98568600Y-80964600D02*
X99270500Y-80262700D01*
X99270500Y-80262700D02*
X108744000Y-80262700D01*
X98568600Y-82267600D02*
X98568600Y-80964600D01*
X108744000Y-80262700D02*
X113541000Y-85060000D01*
%TO.N,/Zone4IO/ZoneOutput*%
X160543000Y-80056500D02*
X169497000Y-80056500D01*
X159689000Y-80909900D02*
X160543000Y-80056500D01*
X159689000Y-81671300D02*
X159689000Y-80909900D01*
X169497000Y-80056500D02*
X174501000Y-85060000D01*
X159689000Y-82135100D02*
X159689000Y-81671300D01*
%TO.N,/Zone3IO/ZoneOutput*%
X139297000Y-80336400D02*
X144021000Y-85060000D01*
X128546000Y-81671400D02*
X128546000Y-80909900D01*
X129119000Y-80336400D02*
X139297000Y-80336400D01*
X128546000Y-82135300D02*
X128546000Y-81671400D01*
X128546000Y-80909900D02*
X129119000Y-80336400D01*
D36*
%TO.N,+3V3*%
X150029000Y-121042000D02*
X146661000Y-117674000D01*
X136605000Y-117674000D02*
X133755000Y-120524000D01*
X133755000Y-120524000D02*
X122116400Y-120524000D01*
X146661000Y-117674000D02*
X136605000Y-117674000D01*
D33*
X64952200Y-114151600D02*
X66220600Y-112883200D01*
X112974000Y-100809000D02*
X110974000Y-102808000D01*
X83096400Y-111003200D02*
X109828000Y-111003200D01*
X119973000Y-100809000D02*
X112974000Y-100809000D01*
X109828000Y-111003200D02*
X110974300Y-112149500D01*
X123928000Y-96853800D02*
X119973000Y-100809000D01*
X66220600Y-112883200D02*
X76602500Y-112883200D01*
X76602500Y-112883200D02*
X76998000Y-113278700D01*
X80820900Y-113278700D02*
X83096400Y-111003200D01*
X76998000Y-113278700D02*
X80820900Y-113278700D01*
%TO.N,Net-(Q14-D)*%
X83345100Y-104751900D02*
X87197300Y-108604100D01*
X83345100Y-100341900D02*
X83345100Y-104751900D01*
X139102800Y-110679000D02*
X142407900Y-113984100D01*
X85031000Y-98656000D02*
X83345100Y-100341900D01*
X85031000Y-96930500D02*
X85031000Y-98656000D01*
X114847800Y-110679000D02*
X139102800Y-110679000D01*
X87197300Y-108604100D02*
X112772900Y-108604100D01*
X112772900Y-108604100D02*
X114847800Y-110679000D01*
%TO.N,Net-(Q14-G)*%
X84873600Y-90279500D02*
X84873600Y-89204400D01*
X84873600Y-89204400D02*
X90394500Y-89204400D01*
%TO.N,/InputIsolation/2in*%
X104930900Y-71090000D02*
X103278700Y-69437800D01*
X106556000Y-71090000D02*
X104930900Y-71090000D01*
X103278700Y-69437800D02*
X89330900Y-69437800D01*
%TO.N,/InputIsolation/3in*%
X144642800Y-89215900D02*
X144616500Y-89215900D01*
X135410900Y-71090000D02*
X129145900Y-64825000D01*
X144642800Y-90291000D02*
X144642800Y-89215900D01*
X129145900Y-64825000D02*
X119449600Y-64825000D01*
X144616500Y-89215900D02*
X143499500Y-88098900D01*
X137036000Y-71090000D02*
X135410900Y-71090000D01*
%TO.N,D39*%
X92807600Y-103236800D02*
X86992000Y-103236800D01*
X97790000Y-98254400D02*
X92807600Y-103236800D01*
X100166800Y-94963500D02*
X97790000Y-97340300D01*
X127444600Y-94963500D02*
X100166800Y-94963500D01*
X81309600Y-110235600D02*
X79404600Y-112140600D01*
X97790000Y-97340300D02*
X97790000Y-98254400D01*
%TO.N,Net-(Q15-D)*%
X127368600Y-93862000D02*
X115237500Y-93862000D01*
X115237500Y-93862000D02*
X113342900Y-91967400D01*
X113342900Y-90892300D02*
X113342900Y-91967400D01*
X142407900Y-108901300D02*
X127368600Y-93862000D01*
%TO.N,Net-(Q16-D)*%
X142407900Y-104638100D02*
X142407900Y-100366900D01*
X142407900Y-100366900D02*
X143833900Y-98940900D01*
%TO.N,D36*%
X76487900Y-119474900D02*
X83822200Y-112140600D01*
X71120000Y-120650000D02*
X72295100Y-120650000D01*
X72295100Y-120650000D02*
X72295100Y-120282700D01*
X115571100Y-103059000D02*
X114653100Y-103977000D01*
X114653100Y-103977000D02*
X88320900Y-103977000D01*
X72295100Y-120282700D02*
X73102900Y-119474900D01*
X73102900Y-119474900D02*
X76487900Y-119474900D01*
X128993000Y-103059000D02*
X115571100Y-103059000D01*
%TO.N,D27*%
X91440000Y-123190000D02*
X92615100Y-123190000D01*
X93468200Y-124410000D02*
X112474000Y-124410000D01*
X113616000Y-123268000D02*
X126332700Y-123268000D01*
X92615100Y-123557000D02*
X93468200Y-124410000D01*
X112474000Y-124410000D02*
X113616000Y-123268000D01*
X92615100Y-123190000D02*
X92615100Y-123557000D01*
%TO.N,D26*%
X151305000Y-126576000D02*
X153934000Y-123948000D01*
X93094100Y-126576000D02*
X151305000Y-126576000D01*
X153934000Y-123948000D02*
X153934000Y-123582000D01*
X153934000Y-123582000D02*
X155108700Y-123582000D01*
X90075100Y-123557000D02*
X93094100Y-126576000D01*
X90075100Y-123190000D02*
X90075100Y-123557000D01*
X88900000Y-123190000D02*
X90075100Y-123190000D01*
%TO.N,D23*%
X133225000Y-121651000D02*
X119830000Y-121651000D01*
X151394000Y-123215000D02*
X150586000Y-122407000D01*
X119830000Y-121651000D02*
X116810000Y-118631000D01*
X152568700Y-123582000D02*
X151394000Y-123582000D01*
X151394000Y-123582000D02*
X151394000Y-123215000D01*
X133981000Y-122407000D02*
X133225000Y-121651000D01*
X116810000Y-118631000D02*
X116174000Y-118631000D01*
X116174000Y-118631000D02*
X114939000Y-117396000D01*
X150586000Y-122407000D02*
X133981000Y-122407000D01*
X114939000Y-117396000D02*
X89762800Y-117396000D01*
%TO.N,D19*%
X148854000Y-123950000D02*
X146677000Y-126126000D01*
X80062300Y-97332400D02*
X80062300Y-100799000D01*
X82644900Y-97790000D02*
X82644900Y-97422800D01*
X148854000Y-123582000D02*
X148854000Y-123950000D01*
X146677000Y-126126000D02*
X120176000Y-126126000D01*
X120176000Y-126126000D02*
X119870000Y-125819000D01*
X150028700Y-123582000D02*
X148854000Y-123582000D01*
X80781900Y-96612800D02*
X80062300Y-97332400D01*
X81834900Y-96612800D02*
X80781900Y-96612800D01*
X83820000Y-97790000D02*
X82644900Y-97790000D01*
X82644900Y-97422800D02*
X81834900Y-96612800D01*
X80062300Y-100799000D02*
X80741100Y-101478000D01*
%TO.N,Net-(IC1-+INB)*%
X107818000Y-88632400D02*
X118951000Y-88632400D01*
X106473000Y-90612100D02*
X106473000Y-89977000D01*
X122276000Y-91956700D02*
X124638000Y-91956700D01*
X105221000Y-91864400D02*
X106473000Y-90612100D01*
X72842400Y-91864400D02*
X105221000Y-91864400D01*
X62580600Y-106960000D02*
X67215200Y-102325000D01*
X67215200Y-97491600D02*
X72842400Y-91864400D01*
X124638000Y-91956700D02*
X124751000Y-91844100D01*
X67215200Y-102325000D02*
X67215200Y-97491600D01*
X124751000Y-91844100D02*
X146964000Y-91844100D01*
X146964000Y-91844100D02*
X147554000Y-92434500D01*
X106473000Y-89977000D02*
X107818000Y-88632400D01*
X118951000Y-88632400D02*
X122276000Y-91956700D01*
%TO.N,D18*%
X86360000Y-99036200D02*
X84955500Y-100441000D01*
X86360000Y-97790000D02*
X86360000Y-99036200D01*
%TO.N,D35*%
X128599600Y-105802900D02*
X94763800Y-105802900D01*
X79915100Y-120278000D02*
X79915100Y-120650000D01*
X93386200Y-112140600D02*
X86051900Y-119474900D01*
X80718200Y-119474900D02*
X79915100Y-120278000D01*
X128735300Y-105938600D02*
X128599600Y-105802900D01*
X86051900Y-119474900D02*
X80718200Y-119474900D01*
X78740000Y-120650000D02*
X79915100Y-120650000D01*
D34*
%TO.N,D32*%
X62842900Y-111931000D02*
X60527100Y-111931000D01*
D33*
X66638700Y-116966000D02*
X60286600Y-116966000D01*
X69850000Y-121081000D02*
X69850000Y-120177000D01*
X80104900Y-123190000D02*
X80104900Y-122823000D01*
X69850000Y-120177000D02*
X66638700Y-116966000D01*
X80104900Y-122823000D02*
X79297100Y-122015000D01*
X81280000Y-123190000D02*
X80104900Y-123190000D01*
X60286600Y-116966000D02*
X57889400Y-114569000D01*
X79297100Y-122015000D02*
X70784000Y-122015000D01*
D34*
X60527100Y-111931000D02*
X57889400Y-114568900D01*
D33*
X70784000Y-122015000D02*
X69850000Y-121081000D01*
%TO.N,TX*%
X73660000Y-97790000D02*
X74835100Y-97790000D01*
X109924000Y-92314500D02*
X111731000Y-90507800D01*
X144983000Y-92294300D02*
X146448000Y-93759300D01*
X111922000Y-89082600D02*
X118540000Y-89082600D01*
X79945300Y-92314500D02*
X109924000Y-92314500D01*
X146448000Y-93759300D02*
X146448000Y-94037500D01*
X74835100Y-97424700D02*
X79945300Y-92314500D01*
X74835100Y-97790000D02*
X74835100Y-97424700D01*
X111731000Y-89273100D02*
X111922000Y-89082600D01*
X121864000Y-92406800D02*
X125050000Y-92406800D01*
X125162000Y-92294300D02*
X144983000Y-92294300D01*
X118540000Y-89082600D02*
X121864000Y-92406800D01*
X125050000Y-92406800D02*
X125162000Y-92294300D01*
X111731000Y-90507800D02*
X111731000Y-89273100D01*
%TO.N,RX*%
X87516000Y-110281100D02*
X113269500Y-110281100D01*
X165826100Y-122407200D02*
X166633900Y-123215000D01*
X115949000Y-113363800D02*
X126412100Y-113363800D01*
X126412100Y-113363800D02*
X128356900Y-115308600D01*
X164933000Y-122407200D02*
X165826100Y-122407200D01*
X114883300Y-111894900D02*
X114883300Y-112298100D01*
X163999000Y-120569800D02*
X163999000Y-121473200D01*
X158737800Y-115308600D02*
X163999000Y-120569800D01*
X76200000Y-98965100D02*
X87516000Y-110281100D01*
X163999000Y-121473200D02*
X164933000Y-122407200D01*
X114883300Y-112298100D02*
X115949000Y-113363800D01*
X167809000Y-123582300D02*
X166633900Y-123582300D01*
X113269500Y-110281100D02*
X114883300Y-111894900D01*
X166633900Y-123215000D02*
X166633900Y-123582300D01*
X76200000Y-97790000D02*
X76200000Y-98965100D01*
X128356900Y-115308600D02*
X158737800Y-115308600D01*
%TO.N,D34*%
X127222690Y-117120863D02*
X126150627Y-116048800D01*
X88612600Y-112140600D02*
X81728400Y-119024800D01*
X76200000Y-120650000D02*
X77375100Y-120650000D01*
X126150627Y-116048800D02*
X95687002Y-116048800D01*
X78633000Y-119024800D02*
X77375100Y-120282700D01*
X77375100Y-120282700D02*
X77375100Y-120650000D01*
X81728400Y-119024800D02*
X78633000Y-119024800D01*
%TO.N,D17*%
X87086200Y-100467000D02*
X87953100Y-100467000D01*
X87953100Y-100467000D02*
X90264900Y-98155200D01*
X90264900Y-98155200D02*
X90264900Y-97790000D01*
X90264900Y-97790000D02*
X91440000Y-97790000D01*
%TO.N,D16*%
X116465000Y-119240000D02*
X113240000Y-119240000D01*
X85815500Y-106528000D02*
X83821300Y-104534000D01*
X101409000Y-106528000D02*
X85815500Y-106528000D01*
X119604000Y-122380000D02*
X116465000Y-119240000D01*
X83821300Y-102631000D02*
X87630000Y-98821900D01*
X91935200Y-96555100D02*
X92804900Y-97424800D01*
X142408700Y-123582000D02*
X141234000Y-123582000D01*
X87630000Y-97333500D02*
X88408400Y-96555100D01*
X92804900Y-97424800D02*
X92804900Y-97790000D01*
X88408400Y-96555100D02*
X91935200Y-96555100D01*
X92804900Y-97790000D02*
X93980000Y-97790000D01*
X123531000Y-122380000D02*
X119604000Y-122380000D01*
X140161000Y-125023000D02*
X127416000Y-125023000D01*
X83821300Y-104534000D02*
X83821300Y-102631000D01*
X141234000Y-123582000D02*
X141234000Y-123950000D01*
X141234000Y-123950000D02*
X140161000Y-125023000D01*
X87630000Y-98821900D02*
X87630000Y-97333500D01*
D37*
%TO.N,Net-(Q3-Pad1)*%
X70132100Y-90313600D02*
X72798600Y-90313600D01*
D34*
X75492500Y-86182400D02*
X71689700Y-82379600D01*
X75492500Y-87395400D02*
X75492500Y-86182400D01*
X72798600Y-90089300D02*
X75492500Y-87395400D01*
%TO.N,Net-(Q6-Pad1)*%
X103263000Y-90291400D02*
X105143000Y-88410900D01*
D37*
X99968100Y-90313600D02*
X102580000Y-90313600D01*
D33*
X105631000Y-87923400D02*
X106118000Y-87436000D01*
X105143000Y-88410900D02*
X105144000Y-88410900D01*
D34*
X103335200Y-84652700D02*
X101109000Y-82426100D01*
X106118000Y-87436000D02*
X103335200Y-84652700D01*
X102603000Y-90291400D02*
X103263000Y-90291400D01*
D33*
X105144000Y-88410900D02*
X105631000Y-87923400D01*
X105631000Y-87923400D02*
X105631100Y-87923400D01*
D34*
X105143000Y-88410900D02*
X106118000Y-87436000D01*
D33*
X105631100Y-87923400D02*
X106118500Y-87436000D01*
D34*
%TO.N,Net-(Q9-Pad1)*%
X135669000Y-87436000D02*
X131086000Y-82853100D01*
X131777000Y-90385900D02*
X134727000Y-87436000D01*
D37*
X129154500Y-90392400D02*
X131770900Y-90392400D01*
D34*
X134727000Y-87436000D02*
X135668600Y-87436000D01*
%TO.N,Net-(Q12-Pad1)*%
X166423000Y-87104200D02*
X166843500Y-87104200D01*
X163326000Y-87104200D02*
X165582000Y-87104200D01*
X167264000Y-87104200D02*
X164633000Y-84472600D01*
X166843500Y-87104200D02*
X167264000Y-87104200D01*
D33*
X163514000Y-83552700D02*
X163514000Y-83353600D01*
D34*
X165582000Y-87104200D02*
X166423000Y-87104200D01*
X160459000Y-89971000D02*
X163326000Y-87104200D01*
D33*
X164633000Y-84472600D02*
X164434000Y-84472600D01*
D34*
X162971000Y-82810600D02*
X162428000Y-82267600D01*
X164633000Y-84472600D02*
X163514000Y-83353600D01*
D33*
X166423000Y-87104200D02*
X166843500Y-87104200D01*
X164434000Y-84472600D02*
X163514000Y-83552700D01*
D37*
X157637000Y-90020800D02*
X160409000Y-90020800D01*
D34*
X163514000Y-83353600D02*
X162971000Y-82810600D01*
D33*
X165582000Y-87104200D02*
X166423000Y-87104200D01*
%TO.N,Net-(D1-K)*%
X126882000Y-124493000D02*
X125340000Y-124493000D01*
X127648000Y-123268000D02*
X127648000Y-123728000D01*
X127648000Y-123728000D02*
X126882000Y-124493000D01*
X116915000Y-123944000D02*
X116821000Y-124038000D01*
X124790000Y-123944000D02*
X116915000Y-123944000D01*
X125340000Y-124493000D02*
X124790000Y-123944000D01*
X128872700Y-123268000D02*
X127648000Y-123268000D01*
%TO.N,D33*%
X83820000Y-123190000D02*
X83820000Y-120650000D01*
%TO.N,D25*%
X122116000Y-125024000D02*
X118582000Y-125024000D01*
%TO.N,/InputIsolation/4in*%
X161439200Y-66638300D02*
X151357900Y-66638300D01*
X165890900Y-71090000D02*
X161439200Y-66638300D01*
X167516000Y-71090000D02*
X165890900Y-71090000D01*
%TD*%
M02*
