M48
; DRILL file {KiCad 7.0.1} date Sat May  6 14:51:23 2023
; FORMAT={-:-/ absolute / inch / decimal}
; #@! TF.CreationDate,2023-05-06T14:51:23-07:00
; #@! TF.GenerationSoftware,Kicad,Pcbnew,7.0.1
; #@! TF.FileFunction,Plated,1,4,PTH
FMAT,2
INCH
; #@! TA.AperFunction,Plated,PTH,ViaDrill
T1C0.0157
; #@! TA.AperFunction,Plated,PTH,ComponentDrill
T2C0.0295
; #@! TA.AperFunction,Plated,PTH,ComponentDrill
T3C0.0315
; #@! TA.AperFunction,Plated,PTH,ComponentDrill
T4C0.0354
; #@! TA.AperFunction,Plated,PTH,ComponentDrill
T5C0.0394
; #@! TA.AperFunction,Plated,PTH,ComponentDrill
T6C0.0433
; #@! TA.AperFunction,Plated,PTH,ComponentDrill
T7C0.0504
; #@! TA.AperFunction,Plated,PTH,ComponentDrill
T8C0.0512
; #@! TA.AperFunction,Plated,PTH,ComponentDrill
T9C0.0551
%
G90
G05
T1
X2.4638Y-4.211
X2.4741Y-4.4067
X3.1788Y-3.9952
X3.1826Y-3.9555
X3.3372Y-4.8
X3.3447Y-3.9544
X3.4286Y-3.9554
X3.534Y-4.6219
X3.9925Y-4.194
X4.3575Y-3.3608
X4.4583Y-4.6945
X4.5993Y-4.8834
X4.6686Y-4.9222
X4.7193Y-4.9535
X4.8634Y-4.8181
X4.9351Y-4.4681
X5.0164Y-4.9222
X5.0941Y-4.3205
X5.1669Y-3.8938
X5.2419Y-3.9303
X5.2624Y-4.0574
X5.2693Y-4.1579
X5.2729Y-3.7984
X5.4259Y-4.3732
X5.4692Y-3.6622
X5.7657Y-3.7023
X5.8092Y-3.6392
X6.9054Y-3.705
T2
X2.5509Y-3.4408
X2.9721Y-3.4408
X3.0344Y-3.2211
X3.0344Y-3.2711
X3.0344Y-3.3211
X3.1144Y-4.082
X3.1644Y-4.082
X3.2144Y-4.082
X3.3348Y-4.0818
X3.3848Y-4.0818
X3.4348Y-4.0818
X3.5551Y-4.0813
X3.6051Y-4.0813
X3.6551Y-4.0813
X3.7566Y-3.4424
X3.7769Y-4.0813
X3.8269Y-4.0813
X3.8769Y-4.0813
X4.1779Y-3.4424
X4.1997Y-3.2185
X4.1997Y-3.2685
X4.1997Y-3.3185
X4.92Y-3.4424
X5.3413Y-3.4424
X5.4151Y-3.2214
X5.4151Y-3.2714
X5.4151Y-3.3214
X6.1639Y-3.4293
X6.5852Y-3.4293
X6.6019Y-3.2104
X6.6019Y-3.2604
X6.6019Y-3.3104
T3
X2.2791Y-4.5106
X2.3791Y-4.5106
X2.6611Y-3.5557
X2.7611Y-3.5557
X2.8661Y-3.5557
X2.8753Y-4.1586
X2.8888Y-4.2821
X2.9661Y-3.5557
X2.9753Y-4.1586
X2.9866Y-4.3909
X2.9866Y-4.4909
X2.9888Y-4.2821
X3.07Y-3.5557
X3.1115Y-4.415
X3.1115Y-4.515
X3.1643Y-4.2796
X3.17Y-3.5557
X3.2643Y-4.2796
X3.3001Y-4.415
X3.3001Y-4.515
X3.3019Y-3.6974
X3.3852Y-4.2826
X3.4019Y-3.6974
X3.4852Y-4.2826
X3.4887Y-4.415
X3.4887Y-4.515
X3.5082Y-2.7425
X3.5082Y-2.9394
X3.6053Y-4.2795
X3.6773Y-4.415
X3.6773Y-4.515
X3.7053Y-4.2795
X3.8097Y-4.2796
X3.8358Y-3.5557
X3.8627Y-4.4176
X3.8627Y-4.5176
X3.9097Y-4.2796
X3.9358Y-3.5557
X4.0395Y-3.5548
X4.0458Y-4.4158
X4.0458Y-4.5158
X4.1395Y-3.5548
X4.2443Y-3.5546
X4.3443Y-3.5546
X4.3691Y-4.0476
X4.3691Y-4.2315
X4.3691Y-4.4153
X4.4615Y-3.6902
X4.4691Y-4.0476
X4.4691Y-4.2315
X4.4691Y-4.4153
X4.5615Y-3.6902
X4.5791Y-3.8131
X4.5791Y-3.9131
X4.5791Y-4.0131
X4.5791Y-4.1131
X4.5791Y-4.2131
X4.5791Y-4.3131
X4.5791Y-4.4131
X4.5791Y-4.5131
X4.5791Y-4.6131
X4.7027Y-2.5522
X4.7027Y-2.749
X4.8791Y-3.8131
X4.8791Y-3.9131
X4.8791Y-4.0131
X4.8791Y-4.1131
X4.8791Y-4.2131
X4.8791Y-4.3131
X4.8791Y-4.4131
X4.8791Y-4.5131
X4.8791Y-4.6131
X4.9848Y-3.5588
X5.0848Y-3.5588
X5.1881Y-3.5585
X5.2881Y-3.5585
X5.3927Y-3.5593
X5.4927Y-3.5593
X5.5022Y-3.9059
X5.5022Y-4.0944
X5.5022Y-4.283
X5.5022Y-4.4716
X5.5965Y-3.6864
X5.6022Y-3.9059
X5.6022Y-4.0944
X5.6022Y-4.283
X5.6022Y-4.4716
X5.6965Y-3.6864
X5.9166Y-3.9615
X5.9571Y-3.1447
X5.9571Y-3.3415
X5.959Y-2.6236
X5.959Y-2.8204
X6.0166Y-3.9615
X6.1062Y-3.5441
X6.1166Y-3.9615
X6.2062Y-3.5441
X6.3173Y-3.5422
X6.4173Y-3.5422
X6.5915Y-4.1405
X6.6915Y-4.1405
X7.0611Y-3.2218
X7.1611Y-3.2218
X7.4933Y-3.1534
X7.4933Y-3.2534
T4
X4.9737Y-4.8531
X5.0737Y-4.8531
T5
X2.331Y-3.3949
X2.331Y-3.4949
X2.331Y-3.5949
X2.6Y-3.85
X2.6Y-4.75
X2.6Y-4.85
X2.7Y-3.85
X2.7Y-4.75
X2.7Y-4.85
X2.8Y-3.85
X2.8Y-4.75
X2.8Y-4.85
X2.9Y-3.85
X2.9Y-4.75
X2.9Y-4.85
X3.0Y-3.85
X3.0Y-4.75
X3.0Y-4.85
X3.1Y-3.85
X3.1Y-4.75
X3.1Y-4.85
X3.2Y-3.85
X3.2Y-4.75
X3.2Y-4.85
X3.3Y-3.85
X3.3Y-4.75
X3.3Y-4.85
X3.4Y-3.85
X3.4Y-4.75
X3.4Y-4.85
X3.5Y-3.85
X3.5Y-4.75
X3.5Y-4.85
X3.6Y-3.85
X3.6Y-4.75
X3.6Y-4.85
X3.7Y-3.85
X3.7Y-4.75
X3.7Y-4.85
X3.8Y-3.85
X3.8Y-4.75
X3.8Y-4.85
X3.9Y-3.85
X3.9Y-4.75
X3.9Y-4.85
X4.0Y-3.85
X4.0Y-4.75
X4.0Y-4.85
X4.1Y-3.85
X4.1Y-4.75
X4.1Y-4.85
X4.2Y-3.85
X4.2Y-4.75
X4.2Y-4.85
X4.3Y-3.85
X4.3Y-4.75
X4.3Y-4.85
X4.4Y-3.85
X4.4Y-4.75
X4.4Y-4.85
X4.5518Y-4.745
X4.5518Y-4.9222
X4.8077Y-4.745
X4.8077Y-4.9222
X5.4067Y-4.7654
X5.4067Y-4.8654
X5.5067Y-4.7654
X5.5067Y-4.8654
X5.6067Y-4.7654
X5.6067Y-4.8654
X5.7067Y-4.7654
X5.7067Y-4.8654
X5.8067Y-4.7654
X5.8067Y-4.8654
X5.9067Y-4.7654
X5.9067Y-4.8654
X6.0067Y-4.7654
X6.0067Y-4.8654
X6.1067Y-4.7654
X6.1067Y-4.8654
X6.1259Y-3.7533
X6.2067Y-4.7654
X6.2067Y-4.8654
X6.3067Y-4.7654
X6.3067Y-4.8654
X6.4067Y-4.7654
X6.4067Y-4.8654
X6.5067Y-4.7654
X6.5067Y-4.8654
X6.6067Y-4.7654
X6.6067Y-4.8654
X6.7067Y-4.7654
X6.7067Y-4.8654
T6
X3.2968Y-3.5606
X3.6968Y-3.5606
X4.455Y-3.5633
X4.855Y-3.5633
X5.5918Y-3.559
X5.9918Y-3.559
X7.3054Y-2.9994
X7.3054Y-3.3994
T7
X2.6224Y-3.2433
X2.7224Y-3.2433
X2.8224Y-3.2433
X3.7807Y-3.2389
X3.8807Y-3.2389
X3.9807Y-3.2389
X4.9609Y-3.2389
X5.0609Y-3.2389
X5.1609Y-3.2389
X6.187Y-3.2389
X6.287Y-3.2389
X6.387Y-3.2389
X6.8638Y-4.1403
X6.9638Y-4.1403
X7.0638Y-4.1403
T8
X2.5951Y-2.7988
X2.7951Y-2.7988
X2.9951Y-2.7988
X3.2701Y-2.7488
X3.2701Y-3.3488
X3.7951Y-2.7988
X3.9951Y-2.7988
X4.1951Y-2.7988
X4.4701Y-2.7488
X4.4701Y-3.3488
X4.9951Y-2.7988
X5.1951Y-2.7988
X5.3951Y-2.7988
X5.6701Y-2.7488
X5.6701Y-3.3488
X6.1951Y-2.7988
X6.3951Y-2.7988
X6.5951Y-2.7988
X6.8701Y-2.7488
X6.8701Y-3.3488
X7.0128Y-3.5976
X7.0128Y-3.7976
T9
X6.4952Y-4.3229
X6.4952Y-4.4213
X6.633Y-4.3229
X6.633Y-4.4213
X6.8614Y-4.3229
X6.8614Y-4.4213
X6.9991Y-4.3229
X6.9991Y-4.4213
T0
M30
