%TF.GenerationSoftware,KiCad,Pcbnew,7.0.1*%
%TF.CreationDate,2023-05-06T14:51:25-07:00*%
%TF.ProjectId,MakeItRain,4d616b65-4974-4526-9169-6e2e6b696361,rev?*%
%TF.SameCoordinates,Original*%
%TF.FileFunction,Copper,L1,Top*%
%TF.FilePolarity,Positive*%
%FSLAX46Y46*%
G04 Gerber Fmt 4.6, Leading zero omitted, Abs format (unit mm)*
G04 Created by KiCad (PCBNEW 7.0.1) date 2023-05-06 14:51:25*
%MOMM*%
%LPD*%
G01*
G04 APERTURE LIST*
%TA.AperFunction,ComponentPad*%
%ADD10C,1.600000*%
%TD*%
%TA.AperFunction,ComponentPad*%
%ADD11R,2.600000X2.600000*%
%TD*%
%TA.AperFunction,ComponentPad*%
%ADD12O,2.600000X2.600000*%
%TD*%
%TA.AperFunction,ComponentPad*%
%ADD13R,1.800000X1.800000*%
%TD*%
%TA.AperFunction,ComponentPad*%
%ADD14C,1.800000*%
%TD*%
%TA.AperFunction,ComponentPad*%
%ADD15R,1.700000X1.700000*%
%TD*%
%TA.AperFunction,ComponentPad*%
%ADD16O,1.700000X1.700000*%
%TD*%
%TA.AperFunction,ComponentPad*%
%ADD17C,2.600000*%
%TD*%
%TA.AperFunction,ComponentPad*%
%ADD18R,1.920000X1.920000*%
%TD*%
%TA.AperFunction,ComponentPad*%
%ADD19C,1.920000*%
%TD*%
%TA.AperFunction,ComponentPad*%
%ADD20R,1.050000X1.500000*%
%TD*%
%TA.AperFunction,ComponentPad*%
%ADD21O,1.050000X1.500000*%
%TD*%
%TA.AperFunction,ComponentPad*%
%ADD22R,1.150000X1.150000*%
%TD*%
%TA.AperFunction,ComponentPad*%
%ADD23C,1.150000*%
%TD*%
%TA.AperFunction,ComponentPad*%
%ADD24O,1.600000X1.600000*%
%TD*%
%TA.AperFunction,ComponentPad*%
%ADD25R,1.500000X1.050000*%
%TD*%
%TA.AperFunction,ComponentPad*%
%ADD26O,1.500000X1.050000*%
%TD*%
%TA.AperFunction,ComponentPad*%
%ADD27C,1.440000*%
%TD*%
%TA.AperFunction,SMDPad,CuDef*%
%ADD28R,1.528000X0.650000*%
%TD*%
%TA.AperFunction,ComponentPad*%
%ADD29R,1.600000X1.600000*%
%TD*%
%TA.AperFunction,ComponentPad*%
%ADD30R,2.200000X2.200000*%
%TD*%
%TA.AperFunction,ComponentPad*%
%ADD31O,2.200000X2.200000*%
%TD*%
%TA.AperFunction,ComponentPad*%
%ADD32R,1.500000X1.500000*%
%TD*%
%TA.AperFunction,ComponentPad*%
%ADD33C,1.500000*%
%TD*%
%TA.AperFunction,ComponentPad*%
%ADD34C,2.100000*%
%TD*%
%TA.AperFunction,SMDPad,CuDef*%
%ADD35R,2.100000X1.450000*%
%TD*%
%TA.AperFunction,ViaPad*%
%ADD36C,0.800000*%
%TD*%
%TA.AperFunction,Conductor*%
%ADD37C,0.250000*%
%TD*%
%TA.AperFunction,Conductor*%
%ADD38C,0.508000*%
%TD*%
%TA.AperFunction,Conductor*%
%ADD39C,0.762000*%
%TD*%
%TA.AperFunction,Conductor*%
%ADD40C,2.032000*%
%TD*%
%TA.AperFunction,Conductor*%
%ADD41C,1.524000*%
%TD*%
%TA.AperFunction,Conductor*%
%ADD42C,1.016000*%
%TD*%
%TA.AperFunction,Conductor*%
%ADD43C,2.540000*%
%TD*%
G04 APERTURE END LIST*
D10*
%TO.P,C2,1*%
%TO.N,/Zone1IO/ZoneInput*%
X89109000Y-69659700D03*
%TO.P,C2,2*%
%TO.N,GND*%
X89109000Y-74659700D03*
%TD*%
%TO.P,C3,1*%
%TO.N,/Zone2IO/ZoneInput*%
X119449600Y-64825000D03*
%TO.P,C3,2*%
%TO.N,GND*%
X119449600Y-69825000D03*
%TD*%
%TO.P,C4,1*%
%TO.N,/Zone3IO/ZoneInput*%
X151357900Y-66638300D03*
%TO.P,C4,2*%
%TO.N,GND*%
X151357900Y-71638300D03*
%TD*%
D11*
%TO.P,D3,1,K*%
%TO.N,/Zone1IO/ZoneOutput*%
X83061000Y-85060000D03*
D12*
%TO.P,D3,2,A*%
%TO.N,GND*%
X83061000Y-69820000D03*
%TD*%
D11*
%TO.P,D5,1,K*%
%TO.N,/Zone2IO/ZoneOutput*%
X113541000Y-85060000D03*
D12*
%TO.P,D5,2,A*%
%TO.N,GND*%
X113541000Y-69820000D03*
%TD*%
D11*
%TO.P,D7,1,K*%
%TO.N,/Zone4IO/ZoneOutput*%
X174501000Y-85060000D03*
D12*
%TO.P,D7,2,A*%
%TO.N,GND*%
X174501000Y-69820000D03*
%TD*%
D11*
%TO.P,D9,1,K*%
%TO.N,/Zone3IO/ZoneOutput*%
X144021000Y-85060000D03*
D12*
%TO.P,D9,2,A*%
%TO.N,GND*%
X144021000Y-69820000D03*
%TD*%
D13*
%TO.P,D1,1,K*%
%TO.N,Net-(D1-K)*%
X128872900Y-123268200D03*
D14*
%TO.P,D1,2,A*%
%TO.N,D27*%
X126332900Y-123268200D03*
%TD*%
D15*
%TO.P,J2,1,Pin_1*%
%TO.N,+3V3*%
X66040000Y-120650000D03*
D16*
%TO.P,J2,2,Pin_2*%
X66040000Y-123190000D03*
%TO.P,J2,3,Pin_3*%
%TO.N,EN*%
X68580000Y-120650000D03*
%TO.P,J2,4,Pin_4*%
X68580000Y-123190000D03*
%TO.P,J2,5,Pin_5*%
%TO.N,D36*%
X71120000Y-120650000D03*
%TO.P,J2,6,Pin_6*%
X71120000Y-123190000D03*
%TO.P,J2,7,Pin_7*%
%TO.N,D39*%
X73660000Y-120650000D03*
%TO.P,J2,8,Pin_8*%
X73660000Y-123190000D03*
%TO.P,J2,9,Pin_9*%
%TO.N,D34*%
X76200000Y-120650000D03*
%TO.P,J2,10,Pin_10*%
X76200000Y-123190000D03*
%TO.P,J2,11,Pin_11*%
%TO.N,D35*%
X78740000Y-120650000D03*
%TO.P,J2,12,Pin_12*%
X78740000Y-123190000D03*
%TO.P,J2,13,Pin_13*%
%TO.N,D32*%
X81280000Y-120650000D03*
%TO.P,J2,14,Pin_14*%
X81280000Y-123190000D03*
%TO.P,J2,15,Pin_15*%
%TO.N,D33*%
X83820000Y-120650000D03*
%TO.P,J2,16,Pin_16*%
X83820000Y-123190000D03*
%TO.P,J2,17,Pin_17*%
%TO.N,D25*%
X86360000Y-120650000D03*
%TO.P,J2,18,Pin_18*%
X86360000Y-123190000D03*
%TO.P,J2,19,Pin_19*%
%TO.N,D26*%
X88900000Y-120650000D03*
%TO.P,J2,20,Pin_20*%
X88900000Y-123190000D03*
%TO.P,J2,21,Pin_21*%
%TO.N,D27*%
X91440000Y-120650000D03*
%TO.P,J2,22,Pin_22*%
X91440000Y-123190000D03*
%TO.P,J2,23,Pin_23*%
%TO.N,D14*%
X93980000Y-120650000D03*
%TO.P,J2,24,Pin_24*%
X93980000Y-123190000D03*
%TO.P,J2,25,Pin_25*%
%TO.N,D12*%
X96520000Y-120650000D03*
%TO.P,J2,26,Pin_26*%
X96520000Y-123190000D03*
%TO.P,J2,27,Pin_27*%
%TO.N,GND*%
X99060000Y-120650000D03*
%TO.P,J2,28,Pin_28*%
X99060000Y-123190000D03*
%TO.P,J2,29,Pin_29*%
%TO.N,unconnected-(J2-Pin_29-Pad29)*%
X101600000Y-120650000D03*
%TO.P,J2,30,Pin_30*%
%TO.N,unconnected-(J2-Pin_30-Pad30)*%
X101600000Y-123190000D03*
%TO.P,J2,31,Pin_31*%
%TO.N,unconnected-(J2-Pin_31-Pad31)*%
X104140000Y-120650000D03*
%TO.P,J2,32,Pin_32*%
%TO.N,unconnected-(J2-Pin_32-Pad32)*%
X104140000Y-123190000D03*
%TO.P,J2,33,Pin_33*%
%TO.N,unconnected-(J2-Pin_33-Pad33)*%
X106680000Y-120650000D03*
%TO.P,J2,34,Pin_34*%
%TO.N,unconnected-(J2-Pin_34-Pad34)*%
X106680000Y-123190000D03*
%TO.P,J2,35,Pin_35*%
%TO.N,unconnected-(J2-Pin_35-Pad35)*%
X109220000Y-120650000D03*
%TO.P,J2,36,Pin_36*%
%TO.N,unconnected-(J2-Pin_36-Pad36)*%
X109220000Y-123190000D03*
%TO.P,J2,37,Pin_37*%
%TO.N,Net-(J2-Pin_37)*%
X111760000Y-120650000D03*
%TO.P,J2,38,Pin_38*%
X111760000Y-123190000D03*
%TD*%
D15*
%TO.P,J3,1,Pin_1*%
%TO.N,GND*%
X66040000Y-97790000D03*
D16*
%TO.P,J3,2,Pin_2*%
%TO.N,D23*%
X68580000Y-97790000D03*
%TO.P,J3,3,Pin_3*%
%TO.N,D22*%
X71120000Y-97790000D03*
%TO.P,J3,4,Pin_4*%
%TO.N,TX*%
X73660000Y-97790000D03*
%TO.P,J3,5,Pin_5*%
%TO.N,RX*%
X76200000Y-97790000D03*
%TO.P,J3,6,Pin_6*%
%TO.N,D21*%
X78740000Y-97790000D03*
%TO.P,J3,7,Pin_7*%
%TO.N,GND*%
X81280000Y-97790000D03*
%TO.P,J3,8,Pin_8*%
%TO.N,D19*%
X83820000Y-97790000D03*
%TO.P,J3,9,Pin_9*%
%TO.N,D18*%
X86360000Y-97790000D03*
%TO.P,J3,10,Pin_10*%
%TO.N,D5*%
X88900000Y-97790000D03*
%TO.P,J3,11,Pin_11*%
%TO.N,D17*%
X91440000Y-97790000D03*
%TO.P,J3,12,Pin_12*%
%TO.N,D16*%
X93980000Y-97790000D03*
%TO.P,J3,13,Pin_13*%
%TO.N,D4*%
X96520000Y-97790000D03*
%TO.P,J3,14,Pin_14*%
%TO.N,D0*%
X99060000Y-97790000D03*
%TO.P,J3,15,Pin_15*%
%TO.N,D2*%
X101600000Y-97790000D03*
%TO.P,J3,16,Pin_16*%
%TO.N,D15*%
X104140000Y-97790000D03*
%TO.P,J3,17,Pin_17*%
%TO.N,/SD1*%
X106680000Y-97790000D03*
%TO.P,J3,18,Pin_18*%
%TO.N,/SDD*%
X109220000Y-97790000D03*
%TO.P,J3,19,Pin_19*%
%TO.N,/CLK*%
X111760000Y-97790000D03*
%TD*%
D11*
%TO.P,P1,1,Pin_1*%
%TO.N,Net-(P1-Pin_1)*%
X178125700Y-96457800D03*
D17*
%TO.P,P1,2,Pin_2*%
%TO.N,GND*%
X178125700Y-91377800D03*
%TD*%
D18*
%TO.P,Q3,1*%
%TO.N,Net-(Q3-Pad1)*%
X71689700Y-82379600D03*
D19*
%TO.P,Q3,2*%
%TO.N,/Zone1IO/ZoneOutput*%
X69149700Y-82379600D03*
%TO.P,Q3,3*%
%TO.N,+VDC*%
X66609700Y-82379600D03*
%TD*%
D18*
%TO.P,Q6,1*%
%TO.N,Net-(Q6-Pad1)*%
X101108600Y-82267600D03*
D19*
%TO.P,Q6,2*%
%TO.N,/Zone2IO/ZoneOutput*%
X98568600Y-82267600D03*
%TO.P,Q6,3*%
%TO.N,+VDC*%
X96028600Y-82267600D03*
%TD*%
D20*
%TO.P,Q7,1,S*%
%TO.N,GND*%
X90300800Y-103664300D03*
D21*
%TO.P,Q7,2,G*%
%TO.N,Net-(D6-A)*%
X91570800Y-103664300D03*
%TO.P,Q7,3,D*%
%TO.N,/InputIsolation/3in*%
X92840800Y-103664300D03*
%TD*%
D18*
%TO.P,Q9,1*%
%TO.N,Net-(Q9-Pad1)*%
X131085700Y-82267600D03*
D19*
%TO.P,Q9,2*%
%TO.N,/Zone3IO/ZoneOutput*%
X128545700Y-82267600D03*
%TO.P,Q9,3*%
%TO.N,+VDC*%
X126005700Y-82267600D03*
%TD*%
D18*
%TO.P,Q12,1*%
%TO.N,Net-(Q12-Pad1)*%
X162229200Y-82267600D03*
D19*
%TO.P,Q12,2*%
%TO.N,/Zone4IO/ZoneOutput*%
X159689200Y-82267600D03*
%TO.P,Q12,3*%
%TO.N,+VDC*%
X157149200Y-82267600D03*
%TD*%
D18*
%TO.P,Q13,1*%
%TO.N,Net-(Q13-Pad1)*%
X174341600Y-105164100D03*
D19*
%TO.P,Q13,2*%
%TO.N,Net-(P1-Pin_1)*%
X176881600Y-105164100D03*
%TO.P,Q13,3*%
%TO.N,Net-(Q13-Pad3)*%
X179421600Y-105164100D03*
%TD*%
D11*
%TO.P,Z2,1,Pin_1*%
%TO.N,/Zone2IO/ZoneInput*%
X106556000Y-71090000D03*
D17*
%TO.P,Z2,2,Pin_2*%
%TO.N,/Zone2IO/ZoneOutput*%
X101476000Y-71090000D03*
%TO.P,Z2,3,Pin_3*%
%TO.N,GND*%
X96396000Y-71090000D03*
%TD*%
D11*
%TO.P,Z3,1,Pin_1*%
%TO.N,/Zone3IO/ZoneInput*%
X137036000Y-71090000D03*
D17*
%TO.P,Z3,2,Pin_2*%
%TO.N,/Zone3IO/ZoneOutput*%
X131956000Y-71090000D03*
%TO.P,Z3,3,Pin_3*%
%TO.N,GND*%
X126876000Y-71090000D03*
%TD*%
D11*
%TO.P,Z4,1,Pin_1*%
%TO.N,/Zone4IO/ZoneInput*%
X167516000Y-71090000D03*
D17*
%TO.P,Z4,2,Pin_2*%
%TO.N,/Zone4IO/ZoneOutput*%
X162436000Y-71090000D03*
%TO.P,Z4,3,Pin_3*%
%TO.N,GND*%
X157356000Y-71090000D03*
%TD*%
D11*
%TO.P,Z1,1,Pin_1*%
%TO.N,/Zone1IO/ZoneInput*%
X76076000Y-71090000D03*
D17*
%TO.P,Z1,2,Pin_2*%
%TO.N,/Zone1IO/ZoneOutput*%
X70996000Y-71090000D03*
%TO.P,Z1,3,Pin_3*%
%TO.N,GND*%
X65916000Y-71090000D03*
%TD*%
D15*
%TO.P,J1,1,Pin_1*%
%TO.N,+VDC*%
X170349000Y-121042300D03*
D16*
%TO.P,J1,2,Pin_2*%
%TO.N,TX*%
X170349000Y-123582300D03*
%TO.P,J1,3,Pin_3*%
%TO.N,+VDC*%
X167809000Y-121042300D03*
%TO.P,J1,4,Pin_4*%
%TO.N,RX*%
X167809000Y-123582300D03*
%TO.P,J1,5,Pin_5*%
%TO.N,+VDC*%
X165269000Y-121042300D03*
%TO.P,J1,6,Pin_6*%
%TO.N,Z8*%
X165269000Y-123582300D03*
%TO.P,J1,7,Pin_7*%
%TO.N,+VDC*%
X162729000Y-121042300D03*
%TO.P,J1,8,Pin_8*%
%TO.N,Z7*%
X162729000Y-123582300D03*
%TO.P,J1,9,Pin_9*%
%TO.N,+VDC*%
X160189000Y-121042300D03*
%TO.P,J1,10,Pin_10*%
%TO.N,Z6*%
X160189000Y-123582300D03*
%TO.P,J1,11,Pin_11*%
%TO.N,+3V3*%
X157649000Y-121042300D03*
%TO.P,J1,12,Pin_12*%
%TO.N,Z5*%
X157649000Y-123582300D03*
%TO.P,J1,13,Pin_13*%
%TO.N,+3V3*%
X155109000Y-121042300D03*
%TO.P,J1,14,Pin_14*%
%TO.N,D26*%
X155109000Y-123582300D03*
%TO.P,J1,15,Pin_15*%
%TO.N,+3V3*%
X152569000Y-121042300D03*
%TO.P,J1,16,Pin_16*%
%TO.N,D23*%
X152569000Y-123582300D03*
%TO.P,J1,17,Pin_17*%
%TO.N,+3V3*%
X150029000Y-121042300D03*
%TO.P,J1,18,Pin_18*%
%TO.N,D19*%
X150029000Y-123582300D03*
%TO.P,J1,19,Pin_19*%
%TO.N,GND*%
X147489000Y-121042300D03*
%TO.P,J1,20,Pin_20*%
%TO.N,D18*%
X147489000Y-123582300D03*
%TO.P,J1,21,Pin_21*%
%TO.N,GND*%
X144949000Y-121042300D03*
%TO.P,J1,22,Pin_22*%
%TO.N,D17*%
X144949000Y-123582300D03*
%TO.P,J1,23,Pin_23*%
%TO.N,GND*%
X142409000Y-121042300D03*
%TO.P,J1,24,Pin_24*%
%TO.N,D16*%
X142409000Y-123582300D03*
%TO.P,J1,25,Pin_25*%
%TO.N,GND*%
X139869000Y-121042300D03*
%TO.P,J1,26,Pin_26*%
%TO.N,D22*%
X139869000Y-123582300D03*
%TO.P,J1,27,Pin_27*%
%TO.N,GND*%
X137329000Y-121042300D03*
%TO.P,J1,28,Pin_28*%
%TO.N,D21*%
X137329000Y-123582300D03*
%TD*%
D22*
%TO.P,Z5,1*%
%TO.N,+VDC*%
X64792500Y-87395400D03*
D23*
%TO.P,Z5,2*%
%TO.N,Net-(Q3-Pad1)*%
X75492500Y-87395400D03*
%TD*%
D22*
%TO.P,Z6,1*%
%TO.N,+VDC*%
X95418500Y-87436000D03*
D23*
%TO.P,Z6,2*%
%TO.N,Net-(Q6-Pad1)*%
X106118500Y-87436000D03*
%TD*%
D22*
%TO.P,Z8,1*%
%TO.N,+VDC*%
X156564300Y-87104200D03*
D23*
%TO.P,Z8,2*%
%TO.N,Net-(Q12-Pad1)*%
X167264300Y-87104200D03*
%TD*%
D20*
%TO.P,Q4,1,S*%
%TO.N,GND*%
X84702900Y-103677400D03*
D21*
%TO.P,Q4,2,G*%
%TO.N,Net-(D4-A)*%
X85972900Y-103677400D03*
%TO.P,Q4,3,D*%
%TO.N,/InputIsolation/2in*%
X87242900Y-103677400D03*
%TD*%
D10*
%TO.P,R23,1*%
%TO.N,+VDC*%
X75572300Y-105627200D03*
D24*
%TO.P,R23,2*%
%TO.N,Net-(IC1-+IN_A)*%
X73032300Y-105627200D03*
%TD*%
D10*
%TO.P,R31,1*%
%TO.N,+3V3*%
X83822200Y-112140600D03*
D24*
%TO.P,R31,2*%
%TO.N,D35*%
X83822200Y-114680600D03*
%TD*%
D10*
%TO.P,R16,1*%
%TO.N,Net-(Q9-Pad1)*%
X131777400Y-90385900D03*
D24*
%TO.P,R16,2*%
%TO.N,Net-(Q8-D)*%
X134317400Y-90385900D03*
%TD*%
D25*
%TO.P,Q2,1,S*%
%TO.N,GND*%
X77074800Y-81816600D03*
D26*
%TO.P,Q2,2,G*%
%TO.N,Z1*%
X77074800Y-83086600D03*
%TO.P,Q2,3,D*%
%TO.N,Net-(Q2-D)*%
X77074800Y-84356600D03*
%TD*%
D10*
%TO.P,R24,1*%
%TO.N,Net-(IC1-+IN_A)*%
X73376700Y-108765100D03*
D24*
%TO.P,R24,2*%
%TO.N,GND*%
X75916700Y-108765100D03*
%TD*%
D10*
%TO.P,R5,1*%
%TO.N,Net-(D2-A)*%
X80372200Y-108702600D03*
D24*
%TO.P,R5,2*%
%TO.N,GND*%
X82912200Y-108702600D03*
%TD*%
D27*
%TO.P,RV1,1,1*%
%TO.N,AuxVoltage*%
X150281700Y-100622000D03*
%TO.P,RV1,2,2*%
%TO.N,Net-(IC1-+INB)*%
X152821700Y-100622000D03*
%TO.P,RV1,3,3*%
%TO.N,GND*%
X155361700Y-100622000D03*
%TD*%
D15*
%TO.P,J4,1,Pin_1*%
%TO.N,AuxVoltage*%
X155598900Y-95333800D03*
%TD*%
D10*
%TO.P,R15,1*%
%TO.N,+VDC*%
X126614500Y-90392400D03*
D24*
%TO.P,R15,2*%
%TO.N,Net-(Q9-Pad1)*%
X129154500Y-90392400D03*
%TD*%
D10*
%TO.P,R17,1*%
%TO.N,Net-(D8-A)*%
X96767000Y-108701700D03*
D24*
%TO.P,R17,2*%
%TO.N,GND*%
X99307000Y-108701700D03*
%TD*%
D15*
%TO.P,J5,1,Pin_1*%
%TO.N,+VDC*%
X59207700Y-91310200D03*
D16*
%TO.P,J5,2,Pin_2*%
%TO.N,+3V3*%
X59207700Y-88770200D03*
%TO.P,J5,3,Pin_3*%
%TO.N,GND*%
X59207700Y-86230200D03*
%TD*%
D10*
%TO.P,R4,1*%
%TO.N,Net-(D1-K)*%
X98113700Y-112207200D03*
D24*
%TO.P,R4,2*%
%TO.N,GND*%
X98113700Y-114747200D03*
%TD*%
D10*
%TO.P,R18,1*%
%TO.N,Z4*%
X179350700Y-81833100D03*
D24*
%TO.P,R18,2*%
%TO.N,GND*%
X181890700Y-81833100D03*
%TD*%
D10*
%TO.P,R29,1*%
%TO.N,+3V3*%
X142295000Y-113577700D03*
D24*
%TO.P,R29,2*%
%TO.N,Net-(IC2-A_1)*%
X139755000Y-113577700D03*
%TD*%
D10*
%TO.P,R25,1*%
%TO.N,D33*%
X75859900Y-114068500D03*
D24*
%TO.P,R25,2*%
%TO.N,GND*%
X75859900Y-111528500D03*
%TD*%
D10*
%TO.P,R33,1*%
%TO.N,+3V3*%
X93402900Y-112140600D03*
D24*
%TO.P,R33,2*%
%TO.N,D39*%
X93402900Y-114680600D03*
%TD*%
D28*
%TO.P,IC1,1,OUT_A*%
%TO.N,D33*%
X70413500Y-113220900D03*
%TO.P,IC1,2,-INA*%
X70413500Y-111950900D03*
%TO.P,IC1,3,+IN_A*%
%TO.N,Net-(IC1-+IN_A)*%
X70413500Y-110680900D03*
%TO.P,IC1,4,V-*%
%TO.N,GND*%
X70413500Y-109410900D03*
%TO.P,IC1,5,+INB*%
%TO.N,Net-(IC1-+INB)*%
X64991500Y-109410900D03*
%TO.P,IC1,6,-IN_B*%
%TO.N,D32*%
X64991500Y-110680900D03*
%TO.P,IC1,7,OUTB*%
X64991500Y-111950900D03*
%TO.P,IC1,8,V+*%
%TO.N,+3V3*%
X64991500Y-113220900D03*
%TD*%
D10*
%TO.P,R2,1*%
%TO.N,/Zone2IO/ZoneInput*%
X113321700Y-93731200D03*
D24*
%TO.P,R2,2*%
%TO.N,Net-(D4-A)*%
X115861700Y-93731200D03*
%TD*%
D10*
%TO.P,R14,1*%
%TO.N,Z3*%
X136973400Y-90405200D03*
D24*
%TO.P,R14,2*%
%TO.N,GND*%
X139513400Y-90405200D03*
%TD*%
D25*
%TO.P,Q11,1,S*%
%TO.N,GND*%
X167687500Y-81543000D03*
D26*
%TO.P,Q11,2,G*%
%TO.N,Z4*%
X167687500Y-82813000D03*
%TO.P,Q11,3,D*%
%TO.N,Net-(Q11-D)*%
X167687500Y-84083000D03*
%TD*%
D10*
%TO.P,R27,1*%
%TO.N,+3V3*%
X142295000Y-103999000D03*
D24*
%TO.P,R27,2*%
%TO.N,Net-(IC2-A_3)*%
X139755000Y-103999000D03*
%TD*%
D29*
%TO.P,U1,1,SCL*%
%TO.N,D22*%
X116307900Y-96853800D03*
D24*
%TO.P,U1,2,SDA*%
%TO.N,D21*%
X116307900Y-99393800D03*
%TO.P,U1,3,A2*%
%TO.N,GND*%
X116307900Y-101933800D03*
%TO.P,U1,4,A1*%
X116307900Y-104473800D03*
%TO.P,U1,5,A0*%
X116307900Y-107013800D03*
%TO.P,U1,6,~{RESET}*%
%TO.N,Net-(U1-~{RESET})*%
X116307900Y-109553800D03*
%TO.P,U1,7,NC*%
%TO.N,unconnected-(U1-NC-Pad7)*%
X116307900Y-112093800D03*
%TO.P,U1,8,INT*%
%TO.N,unconnected-(U1-INT-Pad8)*%
X116307900Y-114633800D03*
%TO.P,U1,9,VSS*%
%TO.N,GND*%
X116307900Y-117173800D03*
%TO.P,U1,10,GP0*%
%TO.N,Z1*%
X123927900Y-117173800D03*
%TO.P,U1,11,GP1*%
%TO.N,Z2*%
X123927900Y-114633800D03*
%TO.P,U1,12,GP2*%
%TO.N,Z3*%
X123927900Y-112093800D03*
%TO.P,U1,13,GP3*%
%TO.N,Z4*%
X123927900Y-109553800D03*
%TO.P,U1,14,GP4*%
%TO.N,Z5*%
X123927900Y-107013800D03*
%TO.P,U1,15,GP5*%
%TO.N,Z6*%
X123927900Y-104473800D03*
%TO.P,U1,16,GP6*%
%TO.N,Z7*%
X123927900Y-101933800D03*
%TO.P,U1,17,GP7*%
%TO.N,Z8*%
X123927900Y-99393800D03*
%TO.P,U1,18,VDD*%
%TO.N,+3V3*%
X123927900Y-96853800D03*
%TD*%
D30*
%TO.P,D4,1,K*%
%TO.N,/Zone2IO/ZoneInput*%
X113156300Y-90507700D03*
D31*
%TO.P,D4,2,A*%
%TO.N,Net-(D4-A)*%
X123316300Y-90507700D03*
%TD*%
D30*
%TO.P,D2,1,K*%
%TO.N,/Zone1IO/ZoneInput*%
X83739400Y-90439100D03*
D31*
%TO.P,D2,2,A*%
%TO.N,Net-(D2-A)*%
X93899400Y-90439100D03*
%TD*%
D32*
%TO.P,S1,1,NO_1*%
%TO.N,unconnected-(S1-NO_1-Pad1)*%
X115616200Y-120523800D03*
D33*
%TO.P,S1,2,NO_2*%
%TO.N,+3V3*%
X122116200Y-120523800D03*
%TO.P,S1,3,COM_1*%
%TO.N,unconnected-(S1-COM_1-Pad3)*%
X115616200Y-125023800D03*
%TO.P,S1,4,COM_2*%
%TO.N,D25*%
X122116200Y-125023800D03*
%TD*%
D10*
%TO.P,R9,1*%
%TO.N,Net-(D4-A)*%
X85984200Y-108777600D03*
D24*
%TO.P,R9,2*%
%TO.N,GND*%
X88524200Y-108777600D03*
%TD*%
D10*
%TO.P,R13,1*%
%TO.N,Net-(D6-A)*%
X91573600Y-108698400D03*
D24*
%TO.P,R13,2*%
%TO.N,GND*%
X94113600Y-108698400D03*
%TD*%
D10*
%TO.P,R6,1*%
%TO.N,Z1*%
X77976900Y-90313600D03*
D24*
%TO.P,R6,2*%
%TO.N,GND*%
X80516900Y-90313600D03*
%TD*%
D10*
%TO.P,R11,1*%
%TO.N,+VDC*%
X97428100Y-90313600D03*
D24*
%TO.P,R11,2*%
%TO.N,Net-(Q6-Pad1)*%
X99968100Y-90313600D03*
%TD*%
D10*
%TO.P,R7,1*%
%TO.N,+VDC*%
X67592100Y-90313600D03*
D24*
%TO.P,R7,2*%
%TO.N,Net-(Q3-Pad1)*%
X70132100Y-90313600D03*
%TD*%
D10*
%TO.P,R37,1*%
%TO.N,+3V3*%
X110974300Y-107478900D03*
D24*
%TO.P,R37,2*%
%TO.N,D21*%
X113514300Y-107478900D03*
%TD*%
D34*
%TO.P,U2,1,1*%
%TO.N,+VDC*%
X164978400Y-112300500D03*
%TO.P,U2,2,2*%
X168478400Y-112300500D03*
%TO.P,U2,3,3*%
%TO.N,Net-(Q13-Pad3)*%
X174278400Y-112300500D03*
%TO.P,U2,4,4*%
X177778400Y-112300500D03*
%TO.P,U2,5,5*%
X177778400Y-109800500D03*
%TO.P,U2,6,6*%
X174278400Y-109800500D03*
%TO.P,U2,7,7*%
%TO.N,+VDC*%
X168478400Y-109800500D03*
%TO.P,U2,8,8*%
X164978400Y-109800500D03*
%TD*%
D35*
%TO.P,IC2,1,A_1*%
%TO.N,Net-(IC2-A_1)*%
X136439900Y-114870500D03*
%TO.P,IC2,2,K_1*%
%TO.N,/InputIsolation/1in*%
X136439900Y-112330500D03*
%TO.P,IC2,3,A_2*%
%TO.N,Net-(IC2-A_2)*%
X136439900Y-109790500D03*
%TO.P,IC2,4,K_2*%
%TO.N,/InputIsolation/2in*%
X136439900Y-107250500D03*
%TO.P,IC2,5,A_3*%
%TO.N,Net-(IC2-A_3)*%
X136439900Y-104710500D03*
%TO.P,IC2,6,K_3*%
%TO.N,/InputIsolation/3in*%
X136439900Y-102170500D03*
%TO.P,IC2,7,A_4*%
%TO.N,Net-(IC2-A_4)*%
X136439900Y-99630500D03*
%TO.P,IC2,8,K_4*%
%TO.N,/InputIsolation/4in*%
X136439900Y-97090500D03*
%TO.P,IC2,9,E_4*%
%TO.N,GND*%
X127339900Y-97090500D03*
%TO.P,IC2,10,C_4*%
%TO.N,D39*%
X127339900Y-99630500D03*
%TO.P,IC2,11,E_3*%
%TO.N,GND*%
X127339900Y-102170500D03*
%TO.P,IC2,12,C_3*%
%TO.N,D36*%
X127339900Y-104710500D03*
%TO.P,IC2,13,E_2*%
%TO.N,GND*%
X127339900Y-107250500D03*
%TO.P,IC2,14,C-2*%
%TO.N,D35*%
X127339900Y-109790500D03*
%TO.P,IC2,15,E_1*%
%TO.N,GND*%
X127339900Y-112330500D03*
%TO.P,IC2,16,C_1*%
%TO.N,D34*%
X127339900Y-114870500D03*
%TD*%
D20*
%TO.P,Q10,1,S*%
%TO.N,GND*%
X95932600Y-103664300D03*
D21*
%TO.P,Q10,2,G*%
%TO.N,Net-(D8-A)*%
X97202600Y-103664300D03*
%TO.P,Q10,3,D*%
%TO.N,/InputIsolation/4in*%
X98472600Y-103664300D03*
%TD*%
D30*
%TO.P,D8,1,K*%
%TO.N,/Zone4IO/ZoneInput*%
X185558100Y-76184700D03*
D31*
%TO.P,D8,2,A*%
%TO.N,Net-(D8-A)*%
X185558100Y-86344700D03*
%TD*%
D20*
%TO.P,Q1,1,S*%
%TO.N,GND*%
X79106900Y-103682000D03*
D21*
%TO.P,Q1,2,G*%
%TO.N,Net-(D2-A)*%
X80376900Y-103682000D03*
%TO.P,Q1,3,D*%
%TO.N,/InputIsolation/1in*%
X81646900Y-103682000D03*
%TD*%
D10*
%TO.P,R26,1*%
%TO.N,+3V3*%
X142295000Y-99209700D03*
D24*
%TO.P,R26,2*%
%TO.N,Net-(IC2-A_4)*%
X139755000Y-99209700D03*
%TD*%
D10*
%TO.P,R36,1*%
%TO.N,+3V3*%
X110974300Y-112149500D03*
D24*
%TO.P,R36,2*%
%TO.N,Net-(U1-~{RESET})*%
X113514300Y-112149500D03*
%TD*%
D10*
%TO.P,R1,1*%
%TO.N,/Zone1IO/ZoneInput*%
X83868300Y-93912900D03*
D24*
%TO.P,R1,2*%
%TO.N,Net-(D2-A)*%
X86408300Y-93912900D03*
%TD*%
D10*
%TO.P,R8,1*%
%TO.N,Net-(Q3-Pad1)*%
X72798600Y-90313600D03*
D24*
%TO.P,R8,2*%
%TO.N,Net-(Q2-D)*%
X75338600Y-90313600D03*
%TD*%
D25*
%TO.P,Q8,1,S*%
%TO.N,GND*%
X137542600Y-81822900D03*
D26*
%TO.P,Q8,2,G*%
%TO.N,Z3*%
X137542600Y-83092900D03*
%TO.P,Q8,3,D*%
%TO.N,Net-(Q8-D)*%
X137542600Y-84362900D03*
%TD*%
D25*
%TO.P,Q5,1,S*%
%TO.N,GND*%
X106673400Y-81749200D03*
D26*
%TO.P,Q5,2,G*%
%TO.N,Z2*%
X106673400Y-83019200D03*
%TO.P,Q5,3,D*%
%TO.N,Net-(Q5-D)*%
X106673400Y-84289200D03*
%TD*%
D10*
%TO.P,C5,1*%
%TO.N,/Zone4IO/ZoneInput*%
X151310400Y-84874400D03*
%TO.P,C5,2*%
%TO.N,GND*%
X151310400Y-79874400D03*
%TD*%
%TO.P,R21,1*%
%TO.N,Net-(Q13-Pad1)*%
X167425100Y-105167700D03*
D24*
%TO.P,R21,2*%
%TO.N,GND*%
X169965100Y-105167700D03*
%TD*%
D10*
%TO.P,R3,1*%
%TO.N,D25*%
X102762800Y-112161900D03*
D24*
%TO.P,R3,2*%
%TO.N,GND*%
X102762800Y-114701900D03*
%TD*%
D10*
%TO.P,R30,1*%
%TO.N,+3V3*%
X79031800Y-112140600D03*
D24*
%TO.P,R30,2*%
%TO.N,D34*%
X79031800Y-114680600D03*
%TD*%
D10*
%TO.P,R12,1*%
%TO.N,Net-(Q6-Pad1)*%
X102602700Y-90291400D03*
D24*
%TO.P,R12,2*%
%TO.N,Net-(Q5-D)*%
X105142700Y-90291400D03*
%TD*%
D10*
%TO.P,R22,1*%
%TO.N,/Zone3IO/ZoneInput*%
X142150900Y-93635300D03*
D24*
%TO.P,R22,2*%
%TO.N,Net-(D6-A)*%
X144690900Y-93635300D03*
%TD*%
D10*
%TO.P,R28,1*%
%TO.N,+3V3*%
X142295000Y-108788400D03*
D24*
%TO.P,R28,2*%
%TO.N,Net-(IC2-A_2)*%
X139755000Y-108788400D03*
%TD*%
D10*
%TO.P,R20,1*%
%TO.N,Net-(Q12-Pad1)*%
X160459300Y-89971000D03*
D24*
%TO.P,R20,2*%
%TO.N,Net-(Q11-D)*%
X162999300Y-89971000D03*
%TD*%
D10*
%TO.P,R19,1*%
%TO.N,+VDC*%
X155096800Y-90020800D03*
D24*
%TO.P,R19,2*%
%TO.N,Net-(Q12-Pad1)*%
X157636800Y-90020800D03*
%TD*%
D10*
%TO.P,R35,1*%
%TO.N,/Zone4IO/ZoneInput*%
X190329000Y-80096300D03*
D24*
%TO.P,R35,2*%
%TO.N,Net-(D8-A)*%
X190329000Y-82636300D03*
%TD*%
D10*
%TO.P,R10,1*%
%TO.N,Z2*%
X107804100Y-90285900D03*
D24*
%TO.P,R10,2*%
%TO.N,GND*%
X110344100Y-90285900D03*
%TD*%
D30*
%TO.P,D6,1,K*%
%TO.N,/Zone3IO/ZoneInput*%
X142032800Y-90398200D03*
D31*
%TO.P,D6,2,A*%
%TO.N,Net-(D6-A)*%
X152192800Y-90398200D03*
%TD*%
D10*
%TO.P,R32,1*%
%TO.N,+3V3*%
X88612600Y-112140600D03*
D24*
%TO.P,R32,2*%
%TO.N,D36*%
X88612600Y-114680600D03*
%TD*%
D22*
%TO.P,Z7,1*%
%TO.N,+VDC*%
X124968600Y-87436000D03*
D23*
%TO.P,Z7,2*%
%TO.N,Net-(Q9-Pad1)*%
X135668600Y-87436000D03*
%TD*%
D10*
%TO.P,R38,1*%
%TO.N,+3V3*%
X110974300Y-102808300D03*
D24*
%TO.P,R38,2*%
%TO.N,D22*%
X113514300Y-102808300D03*
%TD*%
D10*
%TO.P,R34,1*%
%TO.N,D32*%
X57889400Y-114568900D03*
D24*
%TO.P,R34,2*%
%TO.N,GND*%
X60429400Y-114568900D03*
%TD*%
D36*
%TO.N,GND*%
X80837100Y-100469000D03*
X175398000Y-94105800D03*
X129390000Y-109740000D03*
X110681000Y-85364200D03*
%TO.N,/InputIsolation/1in*%
X137818300Y-111079100D03*
%TO.N,/InputIsolation/2in*%
X133840000Y-105610900D03*
%TO.N,/InputIsolation/3in*%
X133664700Y-103059000D03*
%TO.N,D39*%
X133143700Y-99829700D03*
%TO.N,D23*%
X89762800Y-117396000D03*
%TO.N,D19*%
X119870000Y-125819000D03*
X80741100Y-101478000D03*
%TO.N,Net-(IC1-+INB)*%
X147554000Y-92434500D03*
X62580600Y-106960000D03*
%TO.N,D18*%
X84955500Y-100441000D03*
%TO.N,D32*%
X62842900Y-111931000D03*
%TO.N,TX*%
X146448000Y-94037500D03*
%TO.N,RX*%
X138918000Y-93019500D03*
%TO.N,D34*%
X125351000Y-113490000D03*
%TO.N,D17*%
X87086200Y-100467000D03*
%TO.N,D16*%
X101409000Y-106528000D03*
X127416000Y-125023000D03*
X123531000Y-122380000D03*
X113240000Y-119240000D03*
%TO.N,Net-(D1-K)*%
X116821000Y-124038000D03*
%TO.N,D33*%
X84764700Y-121920000D03*
%TO.N,D25*%
X118581700Y-125023800D03*
%TO.N,/InputIsolation/4in*%
X133931800Y-96478900D03*
X131239200Y-98903400D03*
%TD*%
D37*
%TO.N,GND*%
X128769118Y-102170500D02*
X130629639Y-104031021D01*
D38*
X70413500Y-106862000D02*
X66040000Y-102488000D01*
D39*
X99060000Y-115694000D02*
X98113900Y-114747100D01*
D37*
X116308000Y-103203900D02*
X116308000Y-104473800D01*
X131984000Y-120980000D02*
X131922000Y-121042000D01*
X116308000Y-104473800D02*
X116308000Y-107013800D01*
X129390000Y-111711200D02*
X129334300Y-111711200D01*
X75859900Y-109947000D02*
X75859900Y-111528000D01*
X127339900Y-102170500D02*
X125706775Y-102170500D01*
D39*
X99060000Y-118405000D02*
X102762800Y-114702200D01*
D37*
X130629639Y-108500361D02*
X129390000Y-109740000D01*
X130629639Y-104031021D02*
X130629639Y-108500361D01*
X75916700Y-109890000D02*
X75859900Y-109947000D01*
D38*
X66040000Y-102488000D02*
X66040000Y-97790000D01*
D37*
X129390000Y-109300600D02*
X129390000Y-109740000D01*
D40*
X139869200Y-121042000D02*
X137329300Y-121042000D01*
X147489000Y-121042000D02*
X147488700Y-121042000D01*
D37*
X125675972Y-97090500D02*
X127339900Y-97090500D01*
X129390000Y-112807000D02*
X131984000Y-115401000D01*
D40*
X144949000Y-121042000D02*
X142409000Y-121042000D01*
D38*
X70413500Y-109410900D02*
X70413500Y-106862000D01*
D40*
X147488700Y-121042000D02*
X144949000Y-121042000D01*
D39*
X116307900Y-117173900D02*
X118063000Y-118929000D01*
D37*
X129390000Y-109740000D02*
X129390000Y-111711200D01*
D39*
X125843000Y-121042000D02*
X131922000Y-121042000D01*
D37*
X129334300Y-111711200D02*
X128715000Y-112330500D01*
X131984000Y-115401000D02*
X131984000Y-120980000D01*
X116308000Y-101934000D02*
X116308000Y-103203900D01*
D40*
X137329300Y-121042000D02*
X137329000Y-121042000D01*
D37*
X125519310Y-97247162D02*
X125675972Y-97090500D01*
X125519310Y-101983035D02*
X125519310Y-97247162D01*
D39*
X123730000Y-118929000D02*
X125843000Y-121042000D01*
X137329000Y-121042000D02*
X131922000Y-121042000D01*
D37*
X127339900Y-112330500D02*
X128715000Y-112330500D01*
X129390000Y-111711200D02*
X129390000Y-112807000D01*
X116308000Y-103203900D02*
X116307900Y-103203800D01*
X127339900Y-107250500D02*
X129390000Y-109300600D01*
X75916700Y-108765100D02*
X75916700Y-109890000D01*
D40*
X142409000Y-121042000D02*
X139869200Y-121042000D01*
D39*
X99060000Y-120650000D02*
X99060000Y-118405000D01*
X113836000Y-114702000D02*
X116307900Y-117173900D01*
D37*
X125706775Y-102170500D02*
X125519310Y-101983035D01*
X127339900Y-102170500D02*
X128769118Y-102170500D01*
D39*
X102763000Y-114702000D02*
X113836000Y-114702000D01*
D37*
X116307900Y-103203800D02*
X116307900Y-101933800D01*
D39*
X99060000Y-118405000D02*
X99060000Y-115694000D01*
X118063000Y-118929000D02*
X123730000Y-118929000D01*
D41*
%TO.N,+VDC*%
X167809200Y-121042000D02*
X165269300Y-121042000D01*
X170348700Y-121042000D02*
X167809200Y-121042000D01*
X162729300Y-121042000D02*
X160189300Y-121042000D01*
D38*
X156564000Y-87104200D02*
X156564000Y-88553300D01*
D41*
X160189000Y-121042000D02*
X160189000Y-117090000D01*
D38*
X156564000Y-88553300D02*
X155097000Y-90020800D01*
X95418500Y-88304000D02*
X97428100Y-90313600D01*
X124969000Y-87436000D02*
X124969000Y-88746500D01*
X124969000Y-88746500D02*
X126614000Y-90392400D01*
D41*
X160189000Y-117090000D02*
X164978000Y-112300000D01*
D38*
X64792500Y-87514000D02*
X67592100Y-90313600D01*
X95418500Y-87436000D02*
X95418500Y-88304000D01*
D41*
X165269300Y-121042000D02*
X162729300Y-121042000D01*
D42*
%TO.N,+3V3*%
X61307493Y-110453651D02*
X61307493Y-113306393D01*
D38*
X64991400Y-113221000D02*
X63939200Y-113221000D01*
D39*
X106813000Y-110224000D02*
X97540500Y-110224000D01*
X97540500Y-110224000D02*
X95624000Y-112141000D01*
D38*
X63939200Y-113221000D02*
X62580600Y-114580000D01*
D39*
X110974000Y-112150000D02*
X108738000Y-112150000D01*
X108738000Y-112150000D02*
X106813000Y-110224000D01*
D42*
X57649700Y-89126119D02*
X57649700Y-106795858D01*
X57649700Y-106795858D02*
X61307493Y-110453651D01*
D39*
X126153000Y-94628900D02*
X137714000Y-94628900D01*
D42*
X62580600Y-117190600D02*
X66040000Y-120650000D01*
D39*
X95624000Y-112141000D02*
X93403300Y-112141000D01*
D42*
X59207700Y-88770200D02*
X58005619Y-88770200D01*
D39*
X137714000Y-94628900D02*
X142295000Y-99209700D01*
D42*
X62580600Y-114579500D02*
X62580600Y-117190600D01*
X61307493Y-113306393D02*
X62580600Y-114579500D01*
X58005619Y-88770200D02*
X57649700Y-89126119D01*
D39*
X123928000Y-96853800D02*
X126153000Y-94628900D01*
D37*
%TO.N,Net-(D2-A)*%
X80376900Y-108698000D02*
X80376900Y-103682000D01*
%TO.N,Net-(D4-A)*%
X85972900Y-108766000D02*
X85972900Y-103677400D01*
%TO.N,/InputIsolation/1in*%
X137815000Y-112330500D02*
X137815000Y-111082400D01*
X137815000Y-111082400D02*
X137818300Y-111079100D01*
X136439900Y-112330500D02*
X137815000Y-112330500D01*
%TO.N,/InputIsolation/2in*%
X135064800Y-107250500D02*
X135064800Y-106835700D01*
X135064800Y-106835700D02*
X133840000Y-105610900D01*
X136439900Y-107250500D02*
X135064800Y-107250500D01*
%TO.N,/InputIsolation/3in*%
X136439900Y-102170500D02*
X134553200Y-102170500D01*
X134553200Y-102170500D02*
X133664700Y-103059000D01*
%TO.N,D39*%
X132944500Y-99630500D02*
X133143700Y-99829700D01*
X73660000Y-120650000D02*
X73660000Y-123190000D01*
X127339900Y-99630500D02*
X132944500Y-99630500D01*
%TO.N,/Zone1IO/ZoneInput*%
X83868300Y-91993100D02*
X83868300Y-93912900D01*
X83739400Y-91864200D02*
X83868300Y-91993100D01*
X83739400Y-90439100D02*
X83739400Y-91864200D01*
%TO.N,/Zone2IO/ZoneInput*%
X113322000Y-92098200D02*
X113322000Y-92914700D01*
X113156000Y-91220200D02*
X113156000Y-91932800D01*
X113322000Y-92914700D02*
X113321700Y-92915000D01*
X113156000Y-91932800D02*
X113322000Y-92098200D01*
X113321700Y-92915000D02*
X113321700Y-93731200D01*
X113322000Y-92914700D02*
X113322000Y-93731200D01*
%TO.N,/Zone4IO/ZoneInput*%
X186983000Y-76184700D02*
X185558100Y-76184700D01*
X190329000Y-80096300D02*
X186983000Y-76750500D01*
X186983000Y-76750500D02*
X186983000Y-76184700D01*
%TO.N,D36*%
X91265154Y-100774946D02*
X89340238Y-102699862D01*
X87109200Y-108601609D02*
X87109200Y-110444591D01*
X89340238Y-102699862D02*
X89340238Y-106370571D01*
X116944876Y-100774946D02*
X91265154Y-100774946D01*
X87109200Y-110444591D02*
X84011019Y-113542772D01*
X86565231Y-116727969D02*
X75042031Y-116727969D01*
X127339900Y-104710500D02*
X125978200Y-103348800D01*
X88612600Y-114680600D02*
X86565231Y-116727969D01*
X89340238Y-106370571D02*
X87109200Y-108601609D01*
X119518730Y-103348800D02*
X116944876Y-100774946D01*
X71120000Y-123190000D02*
X71120000Y-120650000D01*
X75042031Y-116727969D02*
X71120000Y-120650000D01*
X84011019Y-113542772D02*
X78227228Y-113542772D01*
X78227228Y-113542772D02*
X75042031Y-116727969D01*
X125978200Y-103348800D02*
X119518730Y-103348800D01*
D38*
%TO.N,Net-(IC1-+IN_A)*%
X70413600Y-110681000D02*
X71460900Y-110681000D01*
D37*
X73032300Y-108421000D02*
X73032300Y-105627200D01*
D38*
X71460900Y-110681000D02*
X72418800Y-109723000D01*
X72418800Y-109723000D02*
X73376700Y-108765000D01*
D37*
X72418800Y-109723000D02*
X73376700Y-108765100D01*
%TO.N,Net-(Q13-Pad1)*%
X168052000Y-104541000D02*
X167738000Y-104854000D01*
D38*
X168052000Y-104541000D02*
X167738000Y-104854000D01*
X173092000Y-103914000D02*
X168679000Y-103914000D01*
X168679000Y-103914000D02*
X168052000Y-104541000D01*
X174341600Y-105163600D02*
X173092000Y-103914000D01*
D37*
%TO.N,Net-(IC1-+INB)*%
X63570900Y-109409000D02*
X63572500Y-109411000D01*
X63572500Y-109411000D02*
X64991400Y-109411000D01*
X62580600Y-106960000D02*
X62580600Y-108933000D01*
X62580600Y-108933000D02*
X63056600Y-109409000D01*
X63056600Y-109409000D02*
X63570900Y-109409000D01*
%TO.N,D35*%
X116520103Y-113472588D02*
X85030212Y-113472588D01*
X127339900Y-109790500D02*
X126451600Y-110678800D01*
X119313891Y-110678800D02*
X116520103Y-113472588D01*
X126451600Y-110678800D02*
X119313891Y-110678800D01*
X85030212Y-113472588D02*
X83822200Y-114680600D01*
D38*
%TO.N,D32*%
X64991500Y-111951000D02*
X62862600Y-111951000D01*
X62862600Y-111951000D02*
X62842900Y-111931000D01*
X64991500Y-110681000D02*
X64991500Y-111950900D01*
D37*
%TO.N,D34*%
X125964800Y-114870500D02*
X125964800Y-114103800D01*
X125964800Y-114103800D02*
X125351000Y-113490000D01*
X127339900Y-114870500D02*
X125964800Y-114870500D01*
X76200000Y-123190000D02*
X76200000Y-120650000D01*
D43*
%TO.N,Net-(P1-Pin_1)*%
X176882000Y-105164000D02*
X176882000Y-97701900D01*
X176882000Y-97701900D02*
X178126000Y-96458200D01*
D37*
%TO.N,Net-(D6-A)*%
X91480700Y-103754000D02*
X91480700Y-108606000D01*
%TO.N,Net-(D8-A)*%
X97202600Y-108266000D02*
X97202600Y-103664300D01*
X189566000Y-83761400D02*
X186983000Y-86344700D01*
X190329000Y-82636300D02*
X190329000Y-83761400D01*
X190329000Y-83761400D02*
X189566000Y-83761400D01*
X186983000Y-86344700D02*
X185558100Y-86344700D01*
D38*
%TO.N,D33*%
X75012300Y-113221000D02*
X75436100Y-113644500D01*
X70413500Y-111951000D02*
X70413500Y-113220900D01*
X70413500Y-113221000D02*
X75012300Y-113221000D01*
X75436100Y-113644500D02*
X75859900Y-114068000D01*
D37*
%TO.N,/InputIsolation/4in*%
X136439900Y-97090500D02*
X134543400Y-97090500D01*
X134543400Y-97090500D02*
X133931800Y-96478900D01*
%TO.N,Net-(IC2-A_1)*%
X139755000Y-113577700D02*
X136682600Y-113577700D01*
X136439900Y-114870500D02*
X136439900Y-113820400D01*
X136682600Y-113577700D02*
X136439900Y-113820400D01*
%TO.N,Net-(IC2-A_2)*%
X139755000Y-108788400D02*
X138629900Y-108788400D01*
X138629900Y-108788400D02*
X138629900Y-108975600D01*
X138629900Y-108975600D02*
X137815000Y-109790500D01*
X136439900Y-109790500D02*
X137815000Y-109790500D01*
%TO.N,Net-(IC2-A_3)*%
X138526500Y-103999000D02*
X137815000Y-104710500D01*
X139755000Y-103999000D02*
X138526500Y-103999000D01*
X136439900Y-104710500D02*
X137815000Y-104710500D01*
%TO.N,Net-(IC2-A_4)*%
X139755000Y-99209700D02*
X138235800Y-99209700D01*
X138235800Y-99209700D02*
X137815000Y-99630500D01*
X136439900Y-99630500D02*
X137815000Y-99630500D01*
%TD*%
%TA.AperFunction,Conductor*%
%TO.N,+VDC*%
G36*
X165910507Y-79914213D02*
G01*
X165956725Y-79960315D01*
X165973669Y-80023358D01*
X165988165Y-107386925D01*
X165988165Y-107386926D01*
X169732272Y-107372254D01*
X169795508Y-107388985D01*
X169841835Y-107435166D01*
X169858766Y-107498348D01*
X169852896Y-115252302D01*
X169835983Y-115315262D01*
X169789868Y-115361342D01*
X169726896Y-115378207D01*
X158974569Y-115378207D01*
X158911524Y-115361300D01*
X158865398Y-115315118D01*
X158848569Y-115252052D01*
X158879049Y-90456733D01*
X158883339Y-90424303D01*
X158924176Y-90271900D01*
X158933016Y-90238913D01*
X158965628Y-90182430D01*
X159022112Y-90149819D01*
X159087334Y-90149820D01*
X159143818Y-90182431D01*
X159176429Y-90238915D01*
X159225015Y-90420243D01*
X159321777Y-90627750D01*
X159453104Y-90815303D01*
X159614996Y-90977195D01*
X159802549Y-91108522D01*
X160010056Y-91205284D01*
X160069314Y-91221162D01*
X160231213Y-91264543D01*
X160459300Y-91284498D01*
X160687387Y-91264543D01*
X160908543Y-91205284D01*
X161116049Y-91108523D01*
X161303600Y-90977198D01*
X161465498Y-90815300D01*
X161596823Y-90627749D01*
X161615104Y-90588543D01*
X161661600Y-90535525D01*
X161729300Y-90515792D01*
X161797000Y-90535525D01*
X161843495Y-90588543D01*
X161861776Y-90627748D01*
X161993104Y-90815303D01*
X162154996Y-90977195D01*
X162342549Y-91108522D01*
X162550056Y-91205284D01*
X162609314Y-91221162D01*
X162771213Y-91264543D01*
X162999300Y-91284498D01*
X163227387Y-91264543D01*
X163448543Y-91205284D01*
X163656049Y-91108523D01*
X163843600Y-90977198D01*
X164005498Y-90815300D01*
X164136823Y-90627749D01*
X164233584Y-90420243D01*
X164292843Y-90199087D01*
X164312798Y-89971000D01*
X164292843Y-89742913D01*
X164246928Y-89571557D01*
X164233584Y-89521756D01*
X164136822Y-89314249D01*
X164027496Y-89158116D01*
X164005498Y-89126700D01*
X164005497Y-89126699D01*
X164005495Y-89126696D01*
X163843603Y-88964804D01*
X163656050Y-88833477D01*
X163448543Y-88736715D01*
X163227387Y-88677457D01*
X162999300Y-88657502D01*
X162771212Y-88677457D01*
X162550056Y-88736715D01*
X162342549Y-88833477D01*
X162154996Y-88964804D01*
X161993104Y-89126696D01*
X161861777Y-89314250D01*
X161843495Y-89353457D01*
X161797000Y-89406474D01*
X161729300Y-89426207D01*
X161661600Y-89406474D01*
X161615105Y-89353457D01*
X161613194Y-89349359D01*
X161596823Y-89314251D01*
X161465498Y-89126700D01*
X161465497Y-89126699D01*
X161465495Y-89126696D01*
X161303603Y-88964804D01*
X161116050Y-88833477D01*
X160908543Y-88736715D01*
X160687387Y-88677457D01*
X160459300Y-88657502D01*
X160231212Y-88677457D01*
X160010056Y-88736715D01*
X159802549Y-88833477D01*
X159614996Y-88964804D01*
X159453104Y-89126696D01*
X159321777Y-89314249D01*
X159225015Y-89521756D01*
X159163085Y-89752885D01*
X159130473Y-89809369D01*
X159073989Y-89841981D01*
X159008767Y-89841981D01*
X158952283Y-89809370D01*
X158919672Y-89752886D01*
X158884410Y-89621289D01*
X158880116Y-89588529D01*
X158881166Y-88735146D01*
X158881164Y-88735146D01*
X158881165Y-88735145D01*
X157912918Y-88735664D01*
X157880241Y-88731371D01*
X157864887Y-88727257D01*
X157636800Y-88707302D01*
X157408710Y-88727257D01*
X157392246Y-88731668D01*
X157359709Y-88735959D01*
X135909417Y-88747446D01*
X135849790Y-88732480D01*
X135804341Y-88691081D01*
X135783891Y-88633105D01*
X135793307Y-88572353D01*
X135830350Y-88523288D01*
X135886195Y-88497592D01*
X135966384Y-88482603D01*
X136153627Y-88410065D01*
X136324352Y-88304356D01*
X136472747Y-88169077D01*
X136593757Y-88008833D01*
X136683262Y-87829082D01*
X136738214Y-87635946D01*
X136756742Y-87436000D01*
X136738214Y-87236054D01*
X136683262Y-87042918D01*
X136593757Y-86863167D01*
X136472747Y-86702923D01*
X136428211Y-86662323D01*
X136324354Y-86567645D01*
X136153628Y-86461935D01*
X136048826Y-86421335D01*
X136016051Y-86408638D01*
X142212500Y-86408638D01*
X142219011Y-86469200D01*
X142270111Y-86606205D01*
X142357738Y-86723261D01*
X142474794Y-86810888D01*
X142474795Y-86810888D01*
X142474796Y-86810889D01*
X142611799Y-86861989D01*
X142672362Y-86868500D01*
X145369638Y-86868500D01*
X145430201Y-86861989D01*
X145567204Y-86810889D01*
X145684261Y-86723261D01*
X145771889Y-86606204D01*
X145822989Y-86469201D01*
X145829500Y-86408638D01*
X145829500Y-84874400D01*
X149996902Y-84874400D01*
X150016857Y-85102487D01*
X150076115Y-85323643D01*
X150172877Y-85531150D01*
X150304204Y-85718703D01*
X150466096Y-85880595D01*
X150653649Y-86011922D01*
X150653650Y-86011922D01*
X150653651Y-86011923D01*
X150679851Y-86024140D01*
X150861156Y-86108684D01*
X150920414Y-86124562D01*
X151082313Y-86167943D01*
X151310400Y-86187898D01*
X151538487Y-86167943D01*
X151759643Y-86108684D01*
X151967149Y-86011923D01*
X152154700Y-85880598D01*
X152316598Y-85718700D01*
X152447923Y-85531149D01*
X152544684Y-85323643D01*
X152603943Y-85102487D01*
X152623898Y-84874400D01*
X152603943Y-84646313D01*
X152544684Y-84425157D01*
X152515653Y-84362900D01*
X152447922Y-84217649D01*
X152316595Y-84030096D01*
X152154703Y-83868204D01*
X151967150Y-83736877D01*
X151759643Y-83640115D01*
X151538487Y-83580857D01*
X151310400Y-83560902D01*
X151082312Y-83580857D01*
X150861156Y-83640115D01*
X150653649Y-83736877D01*
X150466096Y-83868204D01*
X150304204Y-84030096D01*
X150172877Y-84217649D01*
X150076115Y-84425156D01*
X150016857Y-84646312D01*
X149996902Y-84874400D01*
X145829500Y-84874400D01*
X145829500Y-83711362D01*
X145822989Y-83650799D01*
X145771889Y-83513796D01*
X145766083Y-83506040D01*
X145684261Y-83396738D01*
X145567205Y-83309111D01*
X145479069Y-83276238D01*
X145430201Y-83258011D01*
X145369638Y-83251500D01*
X142672362Y-83251500D01*
X142611799Y-83258011D01*
X142474794Y-83309111D01*
X142357738Y-83396738D01*
X142270111Y-83513794D01*
X142219011Y-83650799D01*
X142212500Y-83711362D01*
X142212500Y-86408638D01*
X136016051Y-86408638D01*
X135966384Y-86389397D01*
X135769001Y-86352500D01*
X135568199Y-86352500D01*
X135468574Y-86371123D01*
X135370816Y-86389397D01*
X135183571Y-86461935D01*
X135012845Y-86567645D01*
X134864454Y-86702921D01*
X134743444Y-86863165D01*
X134653937Y-87042919D01*
X134598985Y-87236056D01*
X134580457Y-87435999D01*
X134598985Y-87635943D01*
X134642385Y-87788480D01*
X134653938Y-87829082D01*
X134743443Y-88008833D01*
X134833793Y-88128477D01*
X134864454Y-88169078D01*
X135012845Y-88304354D01*
X135012847Y-88304355D01*
X135012848Y-88304356D01*
X135183573Y-88410065D01*
X135370816Y-88482603D01*
X135452379Y-88497849D01*
X135508208Y-88523531D01*
X135545250Y-88572569D01*
X135554691Y-88633295D01*
X135534284Y-88691263D01*
X135488884Y-88732684D01*
X135429292Y-88747703D01*
X106274420Y-88763316D01*
X106214793Y-88748350D01*
X106169344Y-88706951D01*
X106148894Y-88648975D01*
X106158310Y-88588223D01*
X106195352Y-88539159D01*
X106251196Y-88513462D01*
X106416284Y-88482603D01*
X106603527Y-88410065D01*
X106774252Y-88304356D01*
X106922647Y-88169077D01*
X107043657Y-88008833D01*
X107133162Y-87829082D01*
X107188114Y-87635946D01*
X107206642Y-87436000D01*
X107188114Y-87236054D01*
X107133162Y-87042918D01*
X107043657Y-86863167D01*
X106922647Y-86702923D01*
X106878111Y-86662323D01*
X106774254Y-86567645D01*
X106603528Y-86461935D01*
X106498726Y-86421335D01*
X106416284Y-86389397D01*
X106218901Y-86352500D01*
X106018099Y-86352500D01*
X105918474Y-86371123D01*
X105820716Y-86389397D01*
X105633471Y-86461935D01*
X105462745Y-86567645D01*
X105314354Y-86702921D01*
X105193344Y-86863165D01*
X105103837Y-87042919D01*
X105048885Y-87236056D01*
X105030357Y-87435999D01*
X105048885Y-87635943D01*
X105092285Y-87788480D01*
X105103838Y-87829082D01*
X105193343Y-88008833D01*
X105283693Y-88128477D01*
X105314354Y-88169078D01*
X105462745Y-88304354D01*
X105462747Y-88304355D01*
X105462748Y-88304356D01*
X105633473Y-88410065D01*
X105820716Y-88482603D01*
X105986689Y-88513628D01*
X106042520Y-88539312D01*
X106079561Y-88588349D01*
X106089002Y-88649075D01*
X106068595Y-88707043D01*
X106023195Y-88748464D01*
X105963603Y-88763483D01*
X62167924Y-88786936D01*
X62104785Y-88770014D01*
X62058621Y-88723734D01*
X62041858Y-88660552D01*
X62045714Y-87395400D01*
X74404357Y-87395400D01*
X74422885Y-87595343D01*
X74422886Y-87595346D01*
X74477838Y-87788482D01*
X74567343Y-87968233D01*
X74598003Y-88008834D01*
X74688354Y-88128478D01*
X74836745Y-88263754D01*
X74836747Y-88263755D01*
X74836748Y-88263756D01*
X75007473Y-88369465D01*
X75194716Y-88442003D01*
X75392099Y-88478900D01*
X75592900Y-88478900D01*
X75592901Y-88478900D01*
X75790284Y-88442003D01*
X75977527Y-88369465D01*
X76148252Y-88263756D01*
X76296647Y-88128477D01*
X76417657Y-87968233D01*
X76507162Y-87788482D01*
X76562114Y-87595346D01*
X76580642Y-87395400D01*
X76562114Y-87195454D01*
X76507162Y-87002318D01*
X76417657Y-86822567D01*
X76296647Y-86662323D01*
X76296645Y-86662321D01*
X76148254Y-86527045D01*
X75977528Y-86421335D01*
X75944753Y-86408638D01*
X81252500Y-86408638D01*
X81259011Y-86469200D01*
X81310111Y-86606205D01*
X81397738Y-86723261D01*
X81514794Y-86810888D01*
X81514795Y-86810888D01*
X81514796Y-86810889D01*
X81651799Y-86861989D01*
X81712362Y-86868500D01*
X84409638Y-86868500D01*
X84470201Y-86861989D01*
X84607204Y-86810889D01*
X84724261Y-86723261D01*
X84811889Y-86606204D01*
X84862989Y-86469201D01*
X84869500Y-86408638D01*
X84869500Y-85364200D01*
X109767496Y-85364200D01*
X109787458Y-85554129D01*
X109846472Y-85735756D01*
X109941958Y-85901142D01*
X109941960Y-85901144D01*
X110069747Y-86043066D01*
X110224248Y-86155318D01*
X110398712Y-86232994D01*
X110585513Y-86272700D01*
X110776485Y-86272700D01*
X110776487Y-86272700D01*
X110963288Y-86232994D01*
X111137752Y-86155318D01*
X111292253Y-86043066D01*
X111420040Y-85901144D01*
X111497380Y-85767186D01*
X111543500Y-85721067D01*
X111606500Y-85704186D01*
X111669500Y-85721067D01*
X111715619Y-85767186D01*
X111732500Y-85830186D01*
X111732500Y-86408638D01*
X111739011Y-86469200D01*
X111790111Y-86606205D01*
X111877738Y-86723261D01*
X111994794Y-86810888D01*
X111994795Y-86810888D01*
X111994796Y-86810889D01*
X112131799Y-86861989D01*
X112192362Y-86868500D01*
X114889638Y-86868500D01*
X114950201Y-86861989D01*
X115087204Y-86810889D01*
X115204261Y-86723261D01*
X115291889Y-86606204D01*
X115342989Y-86469201D01*
X115349500Y-86408638D01*
X115349500Y-84362899D01*
X136279098Y-84362899D01*
X136299053Y-84565496D01*
X136299053Y-84565498D01*
X136299054Y-84565501D01*
X136356239Y-84754017D01*
X136358151Y-84760319D01*
X136454119Y-84939863D01*
X136583268Y-85097231D01*
X136740636Y-85226380D01*
X136740640Y-85226382D01*
X136920183Y-85322350D01*
X137114999Y-85381446D01*
X137201756Y-85389991D01*
X137266822Y-85396400D01*
X137266825Y-85396400D01*
X137818375Y-85396400D01*
X137818378Y-85396400D01*
X137882338Y-85390100D01*
X137970201Y-85381446D01*
X138165017Y-85322350D01*
X138344560Y-85226382D01*
X138344561Y-85226380D01*
X138344563Y-85226380D01*
X138501931Y-85097231D01*
X138631080Y-84939863D01*
X138631082Y-84939860D01*
X138727050Y-84760317D01*
X138786146Y-84565501D01*
X138806101Y-84362900D01*
X138786146Y-84160299D01*
X138727050Y-83965483D01*
X138675052Y-83868202D01*
X138631807Y-83787295D01*
X138616929Y-83727899D01*
X138631807Y-83668503D01*
X138634449Y-83663560D01*
X138727050Y-83490317D01*
X138786146Y-83295501D01*
X138806101Y-83092900D01*
X138786146Y-82890299D01*
X138728417Y-82699992D01*
X138724897Y-82641597D01*
X138737970Y-82611381D01*
X138737157Y-82611078D01*
X138743487Y-82594106D01*
X138743489Y-82594104D01*
X138794589Y-82457101D01*
X138801100Y-82396538D01*
X138801100Y-82267600D01*
X158215667Y-82267600D01*
X158235764Y-82510136D01*
X158235764Y-82510139D01*
X158235765Y-82510140D01*
X158295505Y-82746050D01*
X158393265Y-82968923D01*
X158526375Y-83172663D01*
X158677474Y-83336800D01*
X158691203Y-83351713D01*
X158740343Y-83389960D01*
X158883255Y-83501193D01*
X159058739Y-83596160D01*
X159097289Y-83617022D01*
X159327469Y-83696043D01*
X159567517Y-83736100D01*
X159810880Y-83736100D01*
X159810883Y-83736100D01*
X160050931Y-83696043D01*
X160281111Y-83617022D01*
X160495146Y-83501192D01*
X160495145Y-83501192D01*
X160495148Y-83501191D01*
X160618059Y-83405525D01*
X160671332Y-83381286D01*
X160729809Y-83383731D01*
X160780873Y-83412334D01*
X160813505Y-83460921D01*
X160818310Y-83473804D01*
X160905938Y-83590861D01*
X161022994Y-83678488D01*
X161022995Y-83678488D01*
X161022996Y-83678489D01*
X161159999Y-83729589D01*
X161220562Y-83736100D01*
X163237838Y-83736100D01*
X163298401Y-83729589D01*
X163435404Y-83678489D01*
X163552461Y-83590861D01*
X163640089Y-83473804D01*
X163691189Y-83336801D01*
X163697700Y-83276238D01*
X163697700Y-81258962D01*
X163691189Y-81198399D01*
X163640089Y-81061396D01*
X163640088Y-81061394D01*
X163552461Y-80944338D01*
X163435405Y-80856711D01*
X163366902Y-80831161D01*
X163298401Y-80805611D01*
X163237838Y-80799100D01*
X161220562Y-80799100D01*
X161159999Y-80805611D01*
X161022994Y-80856711D01*
X160905938Y-80944338D01*
X160818309Y-81061397D01*
X160813504Y-81074279D01*
X160780872Y-81122866D01*
X160729809Y-81151468D01*
X160671332Y-81153913D01*
X160618059Y-81129675D01*
X160495144Y-81034006D01*
X160281110Y-80918177D01*
X160102064Y-80856711D01*
X160050931Y-80839157D01*
X159810883Y-80799100D01*
X159567517Y-80799100D01*
X159327469Y-80839157D01*
X159327466Y-80839157D01*
X159327466Y-80839158D01*
X159097289Y-80918177D01*
X158883255Y-81034006D01*
X158691202Y-81183487D01*
X158526375Y-81362536D01*
X158393265Y-81566276D01*
X158295505Y-81789149D01*
X158235765Y-82025059D01*
X158235764Y-82025064D01*
X158215667Y-82267600D01*
X138801100Y-82267600D01*
X138801100Y-81249262D01*
X138794589Y-81188699D01*
X138743489Y-81051696D01*
X138738773Y-81045396D01*
X138655861Y-80934638D01*
X138538805Y-80847011D01*
X138427807Y-80805611D01*
X138401801Y-80795911D01*
X138341238Y-80789400D01*
X136743962Y-80789400D01*
X136683399Y-80795911D01*
X136546394Y-80847011D01*
X136429338Y-80934638D01*
X136341711Y-81051694D01*
X136296319Y-81173396D01*
X136290611Y-81188699D01*
X136284100Y-81249262D01*
X136284100Y-82396538D01*
X136290611Y-82457101D01*
X136310394Y-82510140D01*
X136348042Y-82611078D01*
X136347229Y-82611381D01*
X136360303Y-82641605D01*
X136356781Y-82699995D01*
X136299053Y-82890301D01*
X136279098Y-83092900D01*
X136299053Y-83295496D01*
X136299053Y-83295498D01*
X136299054Y-83295501D01*
X136358150Y-83490317D01*
X136358151Y-83490319D01*
X136453392Y-83668503D01*
X136468270Y-83727899D01*
X136453392Y-83787294D01*
X136358152Y-83965477D01*
X136358150Y-83965482D01*
X136358150Y-83965483D01*
X136321411Y-84086599D01*
X136299053Y-84160303D01*
X136279098Y-84362899D01*
X115349500Y-84362899D01*
X115349500Y-83711362D01*
X115342989Y-83650799D01*
X115291889Y-83513796D01*
X115286083Y-83506040D01*
X115204261Y-83396738D01*
X115087205Y-83309111D01*
X114999069Y-83276238D01*
X114950201Y-83258011D01*
X114889638Y-83251500D01*
X112192362Y-83251500D01*
X112131799Y-83258011D01*
X111994794Y-83309111D01*
X111877738Y-83396738D01*
X111790111Y-83513794D01*
X111739011Y-83650799D01*
X111732500Y-83711362D01*
X111732500Y-84898214D01*
X111715619Y-84961214D01*
X111669500Y-85007333D01*
X111606500Y-85024214D01*
X111543500Y-85007333D01*
X111497381Y-84961214D01*
X111420041Y-84827257D01*
X111292252Y-84685333D01*
X111137753Y-84573083D01*
X111137752Y-84573082D01*
X110963288Y-84495406D01*
X110776487Y-84455700D01*
X110585513Y-84455700D01*
X110469229Y-84480417D01*
X110398711Y-84495406D01*
X110224246Y-84573083D01*
X110069747Y-84685333D01*
X109941958Y-84827257D01*
X109846472Y-84992643D01*
X109787458Y-85174270D01*
X109767496Y-85364200D01*
X84869500Y-85364200D01*
X84869500Y-84289199D01*
X105409898Y-84289199D01*
X105429853Y-84491796D01*
X105429853Y-84491798D01*
X105429854Y-84491801D01*
X105476724Y-84646312D01*
X105488951Y-84686619D01*
X105584919Y-84866163D01*
X105714068Y-85023531D01*
X105871436Y-85152680D01*
X105871440Y-85152682D01*
X106050983Y-85248650D01*
X106245799Y-85307746D01*
X106332556Y-85316291D01*
X106397622Y-85322700D01*
X106397625Y-85322700D01*
X106949175Y-85322700D01*
X106949178Y-85322700D01*
X107006109Y-85317092D01*
X107101001Y-85307746D01*
X107295817Y-85248650D01*
X107475360Y-85152682D01*
X107475361Y-85152680D01*
X107475363Y-85152680D01*
X107632731Y-85023531D01*
X107761880Y-84866163D01*
X107782676Y-84827257D01*
X107857850Y-84686617D01*
X107916946Y-84491801D01*
X107936901Y-84289200D01*
X107916946Y-84086599D01*
X107857850Y-83891783D01*
X107775051Y-83736877D01*
X107762607Y-83713596D01*
X107747729Y-83654200D01*
X107762607Y-83594804D01*
X107803913Y-83517525D01*
X107857850Y-83416617D01*
X107916946Y-83221801D01*
X107936901Y-83019200D01*
X107916946Y-82816599D01*
X107859217Y-82626292D01*
X107855697Y-82567897D01*
X107868770Y-82537681D01*
X107867957Y-82537378D01*
X107874287Y-82520406D01*
X107874289Y-82520404D01*
X107925389Y-82383401D01*
X107931900Y-82322838D01*
X107931900Y-82267600D01*
X127072167Y-82267600D01*
X127092264Y-82510136D01*
X127092264Y-82510139D01*
X127092265Y-82510140D01*
X127152005Y-82746050D01*
X127249765Y-82968923D01*
X127382875Y-83172663D01*
X127533974Y-83336800D01*
X127547703Y-83351713D01*
X127596843Y-83389960D01*
X127739755Y-83501193D01*
X127915239Y-83596160D01*
X127953789Y-83617022D01*
X128183969Y-83696043D01*
X128424017Y-83736100D01*
X128667380Y-83736100D01*
X128667383Y-83736100D01*
X128907431Y-83696043D01*
X129137611Y-83617022D01*
X129351646Y-83501192D01*
X129351645Y-83501192D01*
X129351648Y-83501191D01*
X129474559Y-83405525D01*
X129527832Y-83381286D01*
X129586309Y-83383731D01*
X129637373Y-83412334D01*
X129670005Y-83460921D01*
X129674810Y-83473804D01*
X129762438Y-83590861D01*
X129879494Y-83678488D01*
X129879495Y-83678488D01*
X129879496Y-83678489D01*
X130016499Y-83729589D01*
X130077062Y-83736100D01*
X132094338Y-83736100D01*
X132154901Y-83729589D01*
X132291904Y-83678489D01*
X132408961Y-83590861D01*
X132496589Y-83473804D01*
X132547689Y-83336801D01*
X132554200Y-83276238D01*
X132554200Y-81258962D01*
X132547689Y-81198399D01*
X132496589Y-81061396D01*
X132496588Y-81061394D01*
X132408961Y-80944338D01*
X132291905Y-80856711D01*
X132223402Y-80831161D01*
X132154901Y-80805611D01*
X132094338Y-80799100D01*
X130077062Y-80799100D01*
X130016499Y-80805611D01*
X129879494Y-80856711D01*
X129762438Y-80944338D01*
X129674809Y-81061397D01*
X129670004Y-81074279D01*
X129637372Y-81122866D01*
X129586309Y-81151468D01*
X129527832Y-81153913D01*
X129474559Y-81129675D01*
X129351644Y-81034006D01*
X129137610Y-80918177D01*
X128958564Y-80856711D01*
X128907431Y-80839157D01*
X128667383Y-80799100D01*
X128424017Y-80799100D01*
X128183969Y-80839157D01*
X128183966Y-80839157D01*
X128183966Y-80839158D01*
X127953789Y-80918177D01*
X127739755Y-81034006D01*
X127547702Y-81183487D01*
X127382875Y-81362536D01*
X127249765Y-81566276D01*
X127152005Y-81789149D01*
X127092265Y-82025059D01*
X127092264Y-82025064D01*
X127072167Y-82267600D01*
X107931900Y-82267600D01*
X107931900Y-81175562D01*
X107925389Y-81114999D01*
X107874289Y-80977996D01*
X107867826Y-80969362D01*
X107786661Y-80860938D01*
X107669605Y-80773311D01*
X107601102Y-80747761D01*
X107532601Y-80722211D01*
X107472038Y-80715700D01*
X105874762Y-80715700D01*
X105814199Y-80722211D01*
X105677194Y-80773311D01*
X105560138Y-80860938D01*
X105472511Y-80977994D01*
X105436599Y-81074279D01*
X105421411Y-81114999D01*
X105414900Y-81175562D01*
X105414900Y-82322838D01*
X105421411Y-82383401D01*
X105448900Y-82457101D01*
X105478842Y-82537378D01*
X105478029Y-82537681D01*
X105491103Y-82567905D01*
X105487581Y-82626295D01*
X105429853Y-82816601D01*
X105409898Y-83019200D01*
X105429853Y-83221796D01*
X105429853Y-83221798D01*
X105429854Y-83221801D01*
X105487651Y-83412334D01*
X105488952Y-83416622D01*
X105584192Y-83594805D01*
X105599070Y-83654200D01*
X105584192Y-83713595D01*
X105488952Y-83891777D01*
X105488950Y-83891782D01*
X105488950Y-83891783D01*
X105466596Y-83965477D01*
X105429853Y-84086603D01*
X105409898Y-84289199D01*
X84869500Y-84289199D01*
X84869500Y-83711362D01*
X84862989Y-83650799D01*
X84811889Y-83513796D01*
X84806083Y-83506040D01*
X84724261Y-83396738D01*
X84607205Y-83309111D01*
X84519069Y-83276238D01*
X84470201Y-83258011D01*
X84409638Y-83251500D01*
X81712362Y-83251500D01*
X81651799Y-83258011D01*
X81514794Y-83309111D01*
X81397738Y-83396738D01*
X81310111Y-83513794D01*
X81259011Y-83650799D01*
X81252500Y-83711362D01*
X81252500Y-86408638D01*
X75944753Y-86408638D01*
X75847914Y-86371123D01*
X75790284Y-86348797D01*
X75592901Y-86311900D01*
X75392099Y-86311900D01*
X75194715Y-86348797D01*
X75194716Y-86348797D01*
X75007471Y-86421335D01*
X74836745Y-86527045D01*
X74688354Y-86662321D01*
X74567344Y-86822565D01*
X74477837Y-87002319D01*
X74422885Y-87195456D01*
X74404357Y-87395400D01*
X62045714Y-87395400D01*
X62054976Y-84356599D01*
X75811298Y-84356599D01*
X75831253Y-84559196D01*
X75831253Y-84559198D01*
X75831254Y-84559201D01*
X75890350Y-84754017D01*
X75890351Y-84754019D01*
X75986319Y-84933563D01*
X76115468Y-85090931D01*
X76272836Y-85220080D01*
X76272840Y-85220082D01*
X76452383Y-85316050D01*
X76647199Y-85375146D01*
X76733956Y-85383691D01*
X76799022Y-85390100D01*
X76799025Y-85390100D01*
X77350575Y-85390100D01*
X77350578Y-85390100D01*
X77407509Y-85384492D01*
X77502401Y-85375146D01*
X77697217Y-85316050D01*
X77876760Y-85220082D01*
X77876761Y-85220080D01*
X77876763Y-85220080D01*
X78034131Y-85090931D01*
X78163280Y-84933563D01*
X78163282Y-84933560D01*
X78259250Y-84754017D01*
X78318346Y-84559201D01*
X78338301Y-84356600D01*
X78318346Y-84153999D01*
X78259250Y-83959183D01*
X78169081Y-83790489D01*
X78164007Y-83780996D01*
X78149129Y-83721600D01*
X78164007Y-83662204D01*
X78200033Y-83594804D01*
X78259250Y-83484017D01*
X78318346Y-83289201D01*
X78338301Y-83086600D01*
X78318346Y-82883999D01*
X78260617Y-82693692D01*
X78257097Y-82635297D01*
X78270170Y-82605081D01*
X78269357Y-82604778D01*
X78275687Y-82587806D01*
X78275689Y-82587804D01*
X78326789Y-82450801D01*
X78333300Y-82390238D01*
X78333300Y-82267600D01*
X97095067Y-82267600D01*
X97115164Y-82510136D01*
X97115164Y-82510139D01*
X97115165Y-82510140D01*
X97174905Y-82746050D01*
X97272665Y-82968923D01*
X97405775Y-83172663D01*
X97556874Y-83336800D01*
X97570603Y-83351713D01*
X97619743Y-83389960D01*
X97762655Y-83501193D01*
X97938139Y-83596160D01*
X97976689Y-83617022D01*
X98206869Y-83696043D01*
X98446917Y-83736100D01*
X98690280Y-83736100D01*
X98690283Y-83736100D01*
X98930331Y-83696043D01*
X99160511Y-83617022D01*
X99374546Y-83501192D01*
X99374545Y-83501192D01*
X99374548Y-83501191D01*
X99497459Y-83405525D01*
X99550732Y-83381286D01*
X99609209Y-83383731D01*
X99660273Y-83412334D01*
X99692905Y-83460921D01*
X99697710Y-83473804D01*
X99785338Y-83590861D01*
X99902394Y-83678488D01*
X99902395Y-83678488D01*
X99902396Y-83678489D01*
X100039399Y-83729589D01*
X100099962Y-83736100D01*
X102117238Y-83736100D01*
X102177801Y-83729589D01*
X102314804Y-83678489D01*
X102431861Y-83590861D01*
X102519489Y-83473804D01*
X102570589Y-83336801D01*
X102577100Y-83276238D01*
X102577100Y-81258962D01*
X102570589Y-81198399D01*
X102519489Y-81061396D01*
X102519488Y-81061394D01*
X102431861Y-80944338D01*
X102314805Y-80856711D01*
X102246302Y-80831161D01*
X102177801Y-80805611D01*
X102117238Y-80799100D01*
X100099962Y-80799100D01*
X100039399Y-80805611D01*
X99902394Y-80856711D01*
X99785338Y-80944338D01*
X99697709Y-81061397D01*
X99692904Y-81074279D01*
X99660272Y-81122866D01*
X99609209Y-81151468D01*
X99550732Y-81153913D01*
X99497459Y-81129675D01*
X99374544Y-81034006D01*
X99160510Y-80918177D01*
X98981464Y-80856711D01*
X98930331Y-80839157D01*
X98690283Y-80799100D01*
X98446917Y-80799100D01*
X98206869Y-80839157D01*
X98206866Y-80839157D01*
X98206866Y-80839158D01*
X97976689Y-80918177D01*
X97762655Y-81034006D01*
X97570602Y-81183487D01*
X97405775Y-81362536D01*
X97272665Y-81566276D01*
X97174905Y-81789149D01*
X97115165Y-82025059D01*
X97115164Y-82025064D01*
X97095067Y-82267600D01*
X78333300Y-82267600D01*
X78333300Y-81242962D01*
X78326789Y-81182399D01*
X78275689Y-81045396D01*
X78275688Y-81045394D01*
X78188061Y-80928338D01*
X78071005Y-80840711D01*
X77976898Y-80805611D01*
X77934001Y-80789611D01*
X77873438Y-80783100D01*
X76276162Y-80783100D01*
X76215599Y-80789611D01*
X76078594Y-80840711D01*
X75961538Y-80928338D01*
X75873911Y-81045394D01*
X75847950Y-81114999D01*
X75822811Y-81182399D01*
X75816300Y-81242962D01*
X75816300Y-82390238D01*
X75822811Y-82450801D01*
X75873911Y-82587804D01*
X75880242Y-82604778D01*
X75879429Y-82605081D01*
X75892503Y-82635305D01*
X75888981Y-82693695D01*
X75831253Y-82884001D01*
X75811298Y-83086600D01*
X75831253Y-83289196D01*
X75831253Y-83289198D01*
X75831254Y-83289201D01*
X75890350Y-83484017D01*
X75890352Y-83484022D01*
X75985592Y-83662205D01*
X76000470Y-83721600D01*
X75985592Y-83780995D01*
X75890352Y-83959177D01*
X75831253Y-84154003D01*
X75811298Y-84356599D01*
X62054976Y-84356599D01*
X62061001Y-82379600D01*
X67676167Y-82379600D01*
X67696264Y-82622136D01*
X67696264Y-82622139D01*
X67696265Y-82622140D01*
X67756005Y-82858050D01*
X67756006Y-82858053D01*
X67756007Y-82858055D01*
X67770151Y-82890301D01*
X67853765Y-83080923D01*
X67986875Y-83284663D01*
X68137974Y-83448800D01*
X68151703Y-83463713D01*
X68206085Y-83506040D01*
X68343755Y-83613193D01*
X68529282Y-83713595D01*
X68557789Y-83729022D01*
X68787969Y-83808043D01*
X69028017Y-83848100D01*
X69271380Y-83848100D01*
X69271383Y-83848100D01*
X69511431Y-83808043D01*
X69741611Y-83729022D01*
X69955646Y-83613192D01*
X69955645Y-83613192D01*
X69955648Y-83613191D01*
X70078559Y-83517525D01*
X70131832Y-83493286D01*
X70190309Y-83495731D01*
X70241373Y-83524334D01*
X70274005Y-83572921D01*
X70278810Y-83585804D01*
X70366438Y-83702861D01*
X70483494Y-83790488D01*
X70483495Y-83790488D01*
X70483496Y-83790489D01*
X70620499Y-83841589D01*
X70681062Y-83848100D01*
X72698338Y-83848100D01*
X72758901Y-83841589D01*
X72895904Y-83790489D01*
X73012961Y-83702861D01*
X73100589Y-83585804D01*
X73151689Y-83448801D01*
X73158200Y-83388238D01*
X73158200Y-81370962D01*
X73151689Y-81310399D01*
X73100589Y-81173396D01*
X73096507Y-81167943D01*
X73012961Y-81056338D01*
X72895905Y-80968711D01*
X72804554Y-80934639D01*
X72758901Y-80917611D01*
X72698338Y-80911100D01*
X70681062Y-80911100D01*
X70620499Y-80917611D01*
X70483494Y-80968711D01*
X70366438Y-81056338D01*
X70278809Y-81173397D01*
X70274004Y-81186279D01*
X70241372Y-81234866D01*
X70190309Y-81263468D01*
X70131832Y-81265913D01*
X70078559Y-81241675D01*
X69955644Y-81146006D01*
X69741610Y-81030177D01*
X69562564Y-80968711D01*
X69511431Y-80951157D01*
X69271383Y-80911100D01*
X69028017Y-80911100D01*
X68787969Y-80951157D01*
X68787966Y-80951157D01*
X68787966Y-80951158D01*
X68557789Y-81030177D01*
X68343755Y-81146006D01*
X68151702Y-81295487D01*
X67986875Y-81474536D01*
X67853765Y-81678276D01*
X67756005Y-81901149D01*
X67696265Y-82137059D01*
X67696264Y-82137064D01*
X67676167Y-82379600D01*
X62061001Y-82379600D01*
X62067565Y-80225927D01*
X62084532Y-80163165D01*
X62130532Y-80117214D01*
X62193314Y-80100315D01*
X149885946Y-79928668D01*
X149945845Y-79943684D01*
X149991417Y-79985360D01*
X150011711Y-80043685D01*
X150016855Y-80102482D01*
X150076115Y-80323643D01*
X150172877Y-80531150D01*
X150304204Y-80718703D01*
X150466096Y-80880595D01*
X150653649Y-81011922D01*
X150861156Y-81108684D01*
X150920415Y-81124562D01*
X151082313Y-81167943D01*
X151310400Y-81187898D01*
X151538487Y-81167943D01*
X151759643Y-81108684D01*
X151967149Y-81011923D01*
X152154700Y-80880598D01*
X152316598Y-80718700D01*
X152447923Y-80531149D01*
X152544684Y-80323643D01*
X152603943Y-80102487D01*
X152609575Y-80038106D01*
X152629778Y-79979923D01*
X152675150Y-79938264D01*
X152734843Y-79923092D01*
X165847425Y-79897425D01*
X165910507Y-79914213D01*
G37*
%TD.AperFunction*%
%TD*%
M02*
