%TF.GenerationSoftware,KiCad,Pcbnew,(6.0.0)*%
%TF.CreationDate,2022-12-13T19:56:49-08:00*%
%TF.ProjectId,MakeItRain,4d616b65-4974-4526-9169-6e2e6b696361,rev?*%
%TF.SameCoordinates,Original*%
%TF.FileFunction,Copper,L3,Inr*%
%TF.FilePolarity,Positive*%
%FSLAX46Y46*%
G04 Gerber Fmt 4.6, Leading zero omitted, Abs format (unit mm)*
G04 Created by KiCad (PCBNEW (6.0.0)) date 2022-12-13 19:56:49*
%MOMM*%
%LPD*%
G01*
G04 APERTURE LIST*
%TA.AperFunction,ComponentPad*%
%ADD10C,1.600000*%
%TD*%
%TA.AperFunction,ComponentPad*%
%ADD11R,2.600000X2.600000*%
%TD*%
%TA.AperFunction,ComponentPad*%
%ADD12O,2.600000X2.600000*%
%TD*%
%TA.AperFunction,ComponentPad*%
%ADD13R,1.800000X1.800000*%
%TD*%
%TA.AperFunction,ComponentPad*%
%ADD14C,1.800000*%
%TD*%
%TA.AperFunction,ComponentPad*%
%ADD15R,1.700000X1.700000*%
%TD*%
%TA.AperFunction,ComponentPad*%
%ADD16O,1.700000X1.700000*%
%TD*%
%TA.AperFunction,ComponentPad*%
%ADD17C,2.600000*%
%TD*%
%TA.AperFunction,ComponentPad*%
%ADD18R,1.920000X1.920000*%
%TD*%
%TA.AperFunction,ComponentPad*%
%ADD19C,1.920000*%
%TD*%
%TA.AperFunction,ComponentPad*%
%ADD20R,1.050000X1.500000*%
%TD*%
%TA.AperFunction,ComponentPad*%
%ADD21O,1.050000X1.500000*%
%TD*%
%TA.AperFunction,ComponentPad*%
%ADD22R,1.150000X1.150000*%
%TD*%
%TA.AperFunction,ComponentPad*%
%ADD23C,1.150000*%
%TD*%
%TA.AperFunction,ComponentPad*%
%ADD24O,1.600000X1.600000*%
%TD*%
%TA.AperFunction,ComponentPad*%
%ADD25R,1.500000X1.050000*%
%TD*%
%TA.AperFunction,ComponentPad*%
%ADD26O,1.500000X1.050000*%
%TD*%
%TA.AperFunction,ComponentPad*%
%ADD27C,1.440000*%
%TD*%
%TA.AperFunction,ComponentPad*%
%ADD28R,1.600000X1.600000*%
%TD*%
%TA.AperFunction,ComponentPad*%
%ADD29R,2.200000X2.200000*%
%TD*%
%TA.AperFunction,ComponentPad*%
%ADD30O,2.200000X2.200000*%
%TD*%
%TA.AperFunction,ComponentPad*%
%ADD31R,1.500000X1.500000*%
%TD*%
%TA.AperFunction,ComponentPad*%
%ADD32C,1.500000*%
%TD*%
%TA.AperFunction,ComponentPad*%
%ADD33C,2.100000*%
%TD*%
%TA.AperFunction,ComponentPad*%
%ADD34R,1.130000X1.130000*%
%TD*%
%TA.AperFunction,ComponentPad*%
%ADD35C,1.130000*%
%TD*%
%TA.AperFunction,ViaPad*%
%ADD36C,0.800000*%
%TD*%
%TA.AperFunction,Conductor*%
%ADD37C,0.250000*%
%TD*%
%TA.AperFunction,Conductor*%
%ADD38C,1.524000*%
%TD*%
G04 APERTURE END LIST*
D10*
%TO.N,/Zone1IO/ZoneInput*%
%TO.C,C2*%
X89109000Y-69659700D03*
%TO.N,GND*%
X89109000Y-74659700D03*
%TD*%
%TO.N,/Zone2IO/ZoneInput*%
%TO.C,C3*%
X119449600Y-64825000D03*
%TO.N,GND*%
X119449600Y-69825000D03*
%TD*%
%TO.N,/Zone3IO/ZoneInput*%
%TO.C,C4*%
X151357900Y-66638300D03*
%TO.N,GND*%
X151357900Y-71638300D03*
%TD*%
D11*
%TO.N,/Zone1IO/ZoneOutput*%
%TO.C,D3*%
X83061000Y-85060000D03*
D12*
%TO.N,GND*%
X83061000Y-69820000D03*
%TD*%
D11*
%TO.N,/Zone2IO/ZoneOutput*%
%TO.C,D5*%
X113541000Y-85060000D03*
D12*
%TO.N,GND*%
X113541000Y-69820000D03*
%TD*%
D11*
%TO.N,/Zone4IO/ZoneOutput*%
%TO.C,D7*%
X174501000Y-85060000D03*
D12*
%TO.N,GND*%
X174501000Y-69820000D03*
%TD*%
D11*
%TO.N,/Zone3IO/ZoneOutput*%
%TO.C,D9*%
X144021000Y-85060000D03*
D12*
%TO.N,GND*%
X144021000Y-69820000D03*
%TD*%
D13*
%TO.N,Net-(D1-Pad1)*%
%TO.C,D1*%
X128872900Y-123268200D03*
D14*
%TO.N,D27*%
X126332900Y-123268200D03*
%TD*%
D15*
%TO.N,+3V3*%
%TO.C,J2*%
X66040000Y-120650000D03*
D16*
X66040000Y-123190000D03*
%TO.N,EN*%
X68580000Y-120650000D03*
X68580000Y-123190000D03*
%TO.N,D36*%
X71120000Y-120650000D03*
X71120000Y-123190000D03*
%TO.N,D39*%
X73660000Y-120650000D03*
X73660000Y-123190000D03*
%TO.N,D34*%
X76200000Y-120650000D03*
X76200000Y-123190000D03*
%TO.N,D35*%
X78740000Y-120650000D03*
X78740000Y-123190000D03*
%TO.N,D32*%
X81280000Y-120650000D03*
X81280000Y-123190000D03*
%TO.N,D33*%
X83820000Y-120650000D03*
X83820000Y-123190000D03*
%TO.N,D25*%
X86360000Y-120650000D03*
X86360000Y-123190000D03*
%TO.N,D26*%
X88900000Y-120650000D03*
X88900000Y-123190000D03*
%TO.N,D27*%
X91440000Y-120650000D03*
X91440000Y-123190000D03*
%TO.N,D14*%
X93980000Y-120650000D03*
X93980000Y-123190000D03*
%TO.N,D12*%
X96520000Y-120650000D03*
X96520000Y-123190000D03*
%TO.N,GND*%
X99060000Y-120650000D03*
X99060000Y-123190000D03*
%TO.N,unconnected-(J2-Pad29)*%
X101600000Y-120650000D03*
%TO.N,unconnected-(J2-Pad30)*%
X101600000Y-123190000D03*
%TO.N,unconnected-(J2-Pad31)*%
X104140000Y-120650000D03*
%TO.N,unconnected-(J2-Pad32)*%
X104140000Y-123190000D03*
%TO.N,unconnected-(J2-Pad33)*%
X106680000Y-120650000D03*
%TO.N,unconnected-(J2-Pad34)*%
X106680000Y-123190000D03*
%TO.N,GND*%
X109220000Y-120650000D03*
X109220000Y-123190000D03*
%TO.N,Net-(J2-Pad37)*%
X111760000Y-120650000D03*
X111760000Y-123190000D03*
%TD*%
D15*
%TO.N,GND*%
%TO.C,J3*%
X66040000Y-97790000D03*
D16*
%TO.N,D23*%
X68580000Y-97790000D03*
%TO.N,D22*%
X71120000Y-97790000D03*
%TO.N,TX*%
X73660000Y-97790000D03*
%TO.N,RX*%
X76200000Y-97790000D03*
%TO.N,D21*%
X78740000Y-97790000D03*
%TO.N,GND*%
X81280000Y-97790000D03*
%TO.N,D19*%
X83820000Y-97790000D03*
%TO.N,D18*%
X86360000Y-97790000D03*
%TO.N,D5*%
X88900000Y-97790000D03*
%TO.N,D17*%
X91440000Y-97790000D03*
%TO.N,D16*%
X93980000Y-97790000D03*
%TO.N,D4*%
X96520000Y-97790000D03*
%TO.N,D0*%
X99060000Y-97790000D03*
%TO.N,D2*%
X101600000Y-97790000D03*
%TO.N,D15*%
X104140000Y-97790000D03*
%TO.N,/SD1*%
X106680000Y-97790000D03*
%TO.N,/SDD*%
X109220000Y-97790000D03*
%TO.N,/CLK*%
X111760000Y-97790000D03*
%TD*%
D11*
%TO.N,Net-(P1-Pad1)*%
%TO.C,P1*%
X178125700Y-96457800D03*
D17*
%TO.N,GND*%
X178125700Y-91377800D03*
%TD*%
D18*
%TO.N,Net-(Q3-Pad1)*%
%TO.C,Q3*%
X71689700Y-82379600D03*
D19*
%TO.N,/Zone1IO/ZoneOutput*%
X69149700Y-82379600D03*
%TO.N,+VDC*%
X66609700Y-82379600D03*
%TD*%
D18*
%TO.N,Net-(Q6-Pad1)*%
%TO.C,Q6*%
X101108600Y-82267600D03*
D19*
%TO.N,/Zone2IO/ZoneOutput*%
X98568600Y-82267600D03*
%TO.N,+VDC*%
X96028600Y-82267600D03*
%TD*%
D20*
%TO.N,GND*%
%TO.C,Q7*%
X90300800Y-103664300D03*
D21*
%TO.N,Net-(D6-Pad2)*%
X91570800Y-103664300D03*
%TO.N,/InputIsolation/3in*%
X92840800Y-103664300D03*
%TD*%
D18*
%TO.N,Net-(Q9-Pad1)*%
%TO.C,Q9*%
X131085700Y-82267600D03*
D19*
%TO.N,/Zone3IO/ZoneOutput*%
X128545700Y-82267600D03*
%TO.N,+VDC*%
X126005700Y-82267600D03*
%TD*%
D18*
%TO.N,Net-(Q12-Pad1)*%
%TO.C,Q12*%
X162229200Y-82267600D03*
D19*
%TO.N,/Zone4IO/ZoneOutput*%
X159689200Y-82267600D03*
%TO.N,+VDC*%
X157149200Y-82267600D03*
%TD*%
D18*
%TO.N,Net-(Q13-Pad1)*%
%TO.C,Q13*%
X174341600Y-105164100D03*
D19*
%TO.N,Net-(P1-Pad1)*%
X176881600Y-105164100D03*
%TO.N,Net-(Q13-Pad3)*%
X179421600Y-105164100D03*
%TD*%
D11*
%TO.N,/Zone2IO/ZoneInput*%
%TO.C,Z2*%
X106556000Y-71090000D03*
D17*
%TO.N,/Zone2IO/ZoneOutput*%
X101476000Y-71090000D03*
%TO.N,GND*%
X96396000Y-71090000D03*
%TD*%
D11*
%TO.N,/Zone3IO/ZoneInput*%
%TO.C,Z3*%
X137036000Y-71090000D03*
D17*
%TO.N,/Zone3IO/ZoneOutput*%
X131956000Y-71090000D03*
%TO.N,GND*%
X126876000Y-71090000D03*
%TD*%
D11*
%TO.N,/Zone4IO/ZoneInput*%
%TO.C,Z4*%
X167516000Y-71090000D03*
D17*
%TO.N,/Zone4IO/ZoneOutput*%
X162436000Y-71090000D03*
%TO.N,GND*%
X157356000Y-71090000D03*
%TD*%
D11*
%TO.N,/Zone1IO/ZoneInput*%
%TO.C,Z1*%
X76076000Y-71090000D03*
D17*
%TO.N,/Zone1IO/ZoneOutput*%
X70996000Y-71090000D03*
%TO.N,GND*%
X65916000Y-71090000D03*
%TD*%
D15*
%TO.N,+VDC*%
%TO.C,J1*%
X170349000Y-121042300D03*
D16*
%TO.N,D22*%
X170349000Y-123582300D03*
%TO.N,+VDC*%
X167809000Y-121042300D03*
%TO.N,D21*%
X167809000Y-123582300D03*
%TO.N,+VDC*%
X165269000Y-121042300D03*
%TO.N,Z8*%
X165269000Y-123582300D03*
%TO.N,+VDC*%
X162729000Y-121042300D03*
%TO.N,Z7*%
X162729000Y-123582300D03*
%TO.N,+VDC*%
X160189000Y-121042300D03*
%TO.N,Z6*%
X160189000Y-123582300D03*
%TO.N,+3V3*%
X157649000Y-121042300D03*
%TO.N,Z5*%
X157649000Y-123582300D03*
%TO.N,+3V3*%
X155109000Y-121042300D03*
%TO.N,D26*%
X155109000Y-123582300D03*
%TO.N,+3V3*%
X152569000Y-121042300D03*
%TO.N,D23*%
X152569000Y-123582300D03*
%TO.N,+3V3*%
X150029000Y-121042300D03*
%TO.N,D19*%
X150029000Y-123582300D03*
%TO.N,GND*%
X147489000Y-121042300D03*
%TO.N,D18*%
X147489000Y-123582300D03*
%TO.N,GND*%
X144949000Y-121042300D03*
%TO.N,D17*%
X144949000Y-123582300D03*
%TO.N,GND*%
X142409000Y-121042300D03*
%TO.N,D16*%
X142409000Y-123582300D03*
%TO.N,GND*%
X139869000Y-121042300D03*
%TO.N,TX*%
X139869000Y-123582300D03*
%TO.N,GND*%
X137329000Y-121042300D03*
%TO.N,RX*%
X137329000Y-123582300D03*
%TD*%
D22*
%TO.N,+VDC*%
%TO.C,Z5*%
X64792500Y-87395400D03*
D23*
%TO.N,Net-(Q3-Pad1)*%
X75492500Y-87395400D03*
%TD*%
D22*
%TO.N,+VDC*%
%TO.C,Z6*%
X95418500Y-87436000D03*
D23*
%TO.N,Net-(Q6-Pad1)*%
X106118500Y-87436000D03*
%TD*%
D22*
%TO.N,+VDC*%
%TO.C,Z8*%
X156564300Y-87104200D03*
D23*
%TO.N,Net-(Q12-Pad1)*%
X167264300Y-87104200D03*
%TD*%
D20*
%TO.N,GND*%
%TO.C,Q4*%
X84702900Y-103677400D03*
D21*
%TO.N,Net-(D4-Pad2)*%
X85972900Y-103677400D03*
%TO.N,/InputIsolation/2in*%
X87242900Y-103677400D03*
%TD*%
D10*
%TO.N,+VDC*%
%TO.C,R23*%
X75572300Y-105627200D03*
D24*
%TO.N,Net-(IC3-Pad3)*%
X73032300Y-105627200D03*
%TD*%
D10*
%TO.N,+3V3*%
%TO.C,R31*%
X83822200Y-112140600D03*
D24*
%TO.N,D35*%
X83822200Y-114680600D03*
%TD*%
D10*
%TO.N,Net-(Q9-Pad1)*%
%TO.C,R16*%
X131777400Y-90385900D03*
D24*
%TO.N,Net-(Q8-Pad3)*%
X134317400Y-90385900D03*
%TD*%
D25*
%TO.N,GND*%
%TO.C,Q2*%
X77074800Y-81816600D03*
D26*
%TO.N,Z1*%
X77074800Y-83086600D03*
%TO.N,Net-(Q2-Pad3)*%
X77074800Y-84356600D03*
%TD*%
D10*
%TO.N,Net-(IC3-Pad3)*%
%TO.C,R24*%
X73376700Y-108765100D03*
D24*
%TO.N,GND*%
X75916700Y-108765100D03*
%TD*%
D10*
%TO.N,Net-(D2-Pad2)*%
%TO.C,R5*%
X80372200Y-108702600D03*
D24*
%TO.N,GND*%
X82912200Y-108702600D03*
%TD*%
D27*
%TO.N,AuxVoltage*%
%TO.C,RV1*%
X150281700Y-100622000D03*
%TO.N,Net-(IC3-Pad5)*%
X152821700Y-100622000D03*
%TO.N,GND*%
X155361700Y-100622000D03*
%TD*%
D15*
%TO.N,AuxVoltage*%
%TO.C,J4*%
X155598900Y-95333800D03*
%TD*%
D10*
%TO.N,+VDC*%
%TO.C,R15*%
X126614500Y-90392400D03*
D24*
%TO.N,Net-(Q9-Pad1)*%
X129154500Y-90392400D03*
%TD*%
D10*
%TO.N,Net-(D8-Pad2)*%
%TO.C,R17*%
X96767000Y-108701700D03*
D24*
%TO.N,GND*%
X99307000Y-108701700D03*
%TD*%
D15*
%TO.N,+VDC*%
%TO.C,J5*%
X59207700Y-91310200D03*
D16*
%TO.N,+3V3*%
X59207700Y-88770200D03*
%TO.N,GND*%
X59207700Y-86230200D03*
%TD*%
D10*
%TO.N,Net-(D1-Pad1)*%
%TO.C,R4*%
X98113700Y-112207200D03*
D24*
%TO.N,GND*%
X98113700Y-114747200D03*
%TD*%
D10*
%TO.N,Z4*%
%TO.C,R18*%
X179350700Y-81833100D03*
D24*
%TO.N,GND*%
X181890700Y-81833100D03*
%TD*%
D10*
%TO.N,+3V3*%
%TO.C,R29*%
X142295000Y-113577700D03*
D24*
%TO.N,Net-(IC4-Pad1)*%
X139755000Y-113577700D03*
%TD*%
D10*
%TO.N,D33*%
%TO.C,R25*%
X75859900Y-114068500D03*
D24*
%TO.N,GND*%
X75859900Y-111528500D03*
%TD*%
D10*
%TO.N,+3V3*%
%TO.C,R33*%
X93402900Y-112140600D03*
D24*
%TO.N,D39*%
X93402900Y-114680600D03*
%TD*%
D10*
%TO.N,/Zone2IO/ZoneInput*%
%TO.C,R2*%
X113321700Y-93731200D03*
D24*
%TO.N,Net-(D4-Pad2)*%
X115861700Y-93731200D03*
%TD*%
D10*
%TO.N,Z3*%
%TO.C,R14*%
X136973400Y-90405200D03*
D24*
%TO.N,GND*%
X139513400Y-90405200D03*
%TD*%
D25*
%TO.N,GND*%
%TO.C,Q11*%
X167687500Y-81543000D03*
D26*
%TO.N,Z4*%
X167687500Y-82813000D03*
%TO.N,Net-(Q11-Pad3)*%
X167687500Y-84083000D03*
%TD*%
D10*
%TO.N,+3V3*%
%TO.C,R27*%
X142295000Y-103999000D03*
D24*
%TO.N,Net-(IC4-Pad5)*%
X139755000Y-103999000D03*
%TD*%
D28*
%TO.N,D22*%
%TO.C,U1*%
X116307900Y-96853800D03*
D24*
%TO.N,D21*%
X116307900Y-99393800D03*
%TO.N,GND*%
X116307900Y-101933800D03*
X116307900Y-104473800D03*
X116307900Y-107013800D03*
%TO.N,Net-(IC1-Pad6)*%
X116307900Y-109553800D03*
%TO.N,unconnected-(U1-Pad7)*%
X116307900Y-112093800D03*
%TO.N,unconnected-(U1-Pad8)*%
X116307900Y-114633800D03*
%TO.N,GND*%
X116307900Y-117173800D03*
%TO.N,Z1*%
X123927900Y-117173800D03*
%TO.N,Z2*%
X123927900Y-114633800D03*
%TO.N,Z3*%
X123927900Y-112093800D03*
%TO.N,Z4*%
X123927900Y-109553800D03*
%TO.N,Z5*%
X123927900Y-107013800D03*
%TO.N,Z6*%
X123927900Y-104473800D03*
%TO.N,Z7*%
X123927900Y-101933800D03*
%TO.N,Z8*%
X123927900Y-99393800D03*
%TO.N,+3V3*%
X123927900Y-96853800D03*
%TD*%
D29*
%TO.N,/Zone2IO/ZoneInput*%
%TO.C,D4*%
X113156300Y-90507700D03*
D30*
%TO.N,Net-(D4-Pad2)*%
X123316300Y-90507700D03*
%TD*%
D29*
%TO.N,/Zone1IO/ZoneInput*%
%TO.C,D2*%
X83739400Y-90439100D03*
D30*
%TO.N,Net-(D2-Pad2)*%
X93899400Y-90439100D03*
%TD*%
D31*
%TO.N,unconnected-(S1-Pad1)*%
%TO.C,S1*%
X115616200Y-120523800D03*
D32*
%TO.N,+3V3*%
X122116200Y-120523800D03*
%TO.N,unconnected-(S1-Pad3)*%
X115616200Y-125023800D03*
%TO.N,D25*%
X122116200Y-125023800D03*
%TD*%
D10*
%TO.N,Net-(D4-Pad2)*%
%TO.C,R9*%
X85984200Y-108777600D03*
D24*
%TO.N,GND*%
X88524200Y-108777600D03*
%TD*%
D10*
%TO.N,Net-(D6-Pad2)*%
%TO.C,R13*%
X91573600Y-108698400D03*
D24*
%TO.N,GND*%
X94113600Y-108698400D03*
%TD*%
D10*
%TO.N,Z1*%
%TO.C,R6*%
X77976900Y-90313600D03*
D24*
%TO.N,GND*%
X80516900Y-90313600D03*
%TD*%
D10*
%TO.N,+VDC*%
%TO.C,R11*%
X97428100Y-90313600D03*
D24*
%TO.N,Net-(Q6-Pad1)*%
X99968100Y-90313600D03*
%TD*%
D10*
%TO.N,+VDC*%
%TO.C,R7*%
X67592100Y-90313600D03*
D24*
%TO.N,Net-(Q3-Pad1)*%
X70132100Y-90313600D03*
%TD*%
D10*
%TO.N,+3V3*%
%TO.C,R37*%
X102042400Y-102441800D03*
D24*
%TO.N,D21*%
X104582400Y-102441800D03*
%TD*%
D33*
%TO.N,+VDC*%
%TO.C,U2*%
X164978400Y-112300500D03*
X168478400Y-112300500D03*
%TO.N,Net-(Q13-Pad3)*%
X174278400Y-112300500D03*
X177778400Y-112300500D03*
X177778400Y-109800500D03*
X174278400Y-109800500D03*
%TO.N,+VDC*%
X168478400Y-109800500D03*
X164978400Y-109800500D03*
%TD*%
D20*
%TO.N,GND*%
%TO.C,Q10*%
X95932600Y-103664300D03*
D21*
%TO.N,Net-(D8-Pad2)*%
X97202600Y-103664300D03*
%TO.N,/InputIsolation/4in*%
X98472600Y-103664300D03*
%TD*%
D29*
%TO.N,/Zone4IO/ZoneInput*%
%TO.C,D8*%
X185558100Y-76184700D03*
D30*
%TO.N,Net-(D8-Pad2)*%
X185558100Y-86344700D03*
%TD*%
D34*
%TO.N,D33*%
%TO.C,IC3*%
X70520600Y-114579500D03*
D35*
X70520600Y-112039500D03*
%TO.N,Net-(IC3-Pad3)*%
X70520600Y-109499500D03*
%TO.N,GND*%
X70520600Y-106959500D03*
%TO.N,Net-(IC3-Pad5)*%
X62580600Y-106959500D03*
%TO.N,D32*%
X62580600Y-109499500D03*
X62580600Y-112039500D03*
%TO.N,+3V3*%
X62580600Y-114579500D03*
%TD*%
D20*
%TO.N,GND*%
%TO.C,Q1*%
X79106900Y-103682000D03*
D21*
%TO.N,Net-(D2-Pad2)*%
X80376900Y-103682000D03*
%TO.N,/InputIsolation/1in*%
X81646900Y-103682000D03*
%TD*%
D10*
%TO.N,+3V3*%
%TO.C,R26*%
X142295000Y-99209700D03*
D24*
%TO.N,Net-(IC4-Pad7)*%
X139755000Y-99209700D03*
%TD*%
D10*
%TO.N,+3V3*%
%TO.C,R36*%
X110516400Y-105882500D03*
D24*
%TO.N,Net-(IC1-Pad6)*%
X107976400Y-105882500D03*
%TD*%
D10*
%TO.N,/Zone1IO/ZoneInput*%
%TO.C,R1*%
X83868300Y-93912900D03*
D24*
%TO.N,Net-(D2-Pad2)*%
X86408300Y-93912900D03*
%TD*%
D10*
%TO.N,Net-(Q3-Pad1)*%
%TO.C,R8*%
X72798600Y-90313600D03*
D24*
%TO.N,Net-(Q2-Pad3)*%
X75338600Y-90313600D03*
%TD*%
D25*
%TO.N,GND*%
%TO.C,Q8*%
X137542600Y-81822900D03*
D26*
%TO.N,Z3*%
X137542600Y-83092900D03*
%TO.N,Net-(Q8-Pad3)*%
X137542600Y-84362900D03*
%TD*%
D25*
%TO.N,GND*%
%TO.C,Q5*%
X106673400Y-81749200D03*
D26*
%TO.N,Z2*%
X106673400Y-83019200D03*
%TO.N,Net-(Q5-Pad3)*%
X106673400Y-84289200D03*
%TD*%
D10*
%TO.N,/Zone4IO/ZoneInput*%
%TO.C,C5*%
X151310400Y-84874400D03*
%TO.N,GND*%
X151310400Y-79874400D03*
%TD*%
%TO.N,Net-(Q13-Pad1)*%
%TO.C,R21*%
X167425100Y-105167700D03*
D24*
%TO.N,GND*%
X169965100Y-105167700D03*
%TD*%
D10*
%TO.N,D25*%
%TO.C,R3*%
X102762800Y-112161900D03*
D24*
%TO.N,GND*%
X102762800Y-114701900D03*
%TD*%
D10*
%TO.N,+3V3*%
%TO.C,R30*%
X79031800Y-112140600D03*
D24*
%TO.N,D34*%
X79031800Y-114680600D03*
%TD*%
D10*
%TO.N,Net-(Q6-Pad1)*%
%TO.C,R12*%
X102602700Y-90291400D03*
D24*
%TO.N,Net-(Q5-Pad3)*%
X105142700Y-90291400D03*
%TD*%
D10*
%TO.N,/Zone3IO/ZoneInput*%
%TO.C,R22*%
X142150900Y-93635300D03*
D24*
%TO.N,Net-(D6-Pad2)*%
X144690900Y-93635300D03*
%TD*%
D10*
%TO.N,+3V3*%
%TO.C,R28*%
X142295000Y-108788400D03*
D24*
%TO.N,Net-(IC4-Pad3)*%
X139755000Y-108788400D03*
%TD*%
D10*
%TO.N,Net-(Q12-Pad1)*%
%TO.C,R20*%
X160459300Y-89971000D03*
D24*
%TO.N,Net-(Q11-Pad3)*%
X162999300Y-89971000D03*
%TD*%
D10*
%TO.N,+VDC*%
%TO.C,R19*%
X155096800Y-90020800D03*
D24*
%TO.N,Net-(Q12-Pad1)*%
X157636800Y-90020800D03*
%TD*%
D10*
%TO.N,/Zone4IO/ZoneInput*%
%TO.C,R35*%
X190329000Y-80096300D03*
D24*
%TO.N,Net-(D8-Pad2)*%
X190329000Y-82636300D03*
%TD*%
D10*
%TO.N,Z2*%
%TO.C,R10*%
X107804100Y-90285900D03*
D24*
%TO.N,GND*%
X110344100Y-90285900D03*
%TD*%
D29*
%TO.N,/Zone3IO/ZoneInput*%
%TO.C,D6*%
X142032800Y-90398200D03*
D30*
%TO.N,Net-(D6-Pad2)*%
X152192800Y-90398200D03*
%TD*%
D10*
%TO.N,+3V3*%
%TO.C,R32*%
X88612600Y-112140600D03*
D24*
%TO.N,D36*%
X88612600Y-114680600D03*
%TD*%
D22*
%TO.N,+VDC*%
%TO.C,Z7*%
X124968600Y-87436000D03*
D23*
%TO.N,Net-(Q9-Pad1)*%
X135668600Y-87436000D03*
%TD*%
D10*
%TO.N,+3V3*%
%TO.C,R38*%
X102042400Y-107114000D03*
D24*
%TO.N,D22*%
X104582400Y-107114000D03*
%TD*%
D10*
%TO.N,D32*%
%TO.C,R34*%
X57889400Y-114568900D03*
D24*
%TO.N,GND*%
X60429400Y-114568900D03*
%TD*%
D36*
%TO.N,D36*%
X119739455Y-117355526D03*
X119718899Y-112385721D03*
%TO.N,Z7*%
X108203776Y-111142231D03*
%TO.N,GND*%
X175398000Y-94105800D03*
X125284100Y-98667300D03*
X125284100Y-100801900D03*
X115030600Y-115495900D03*
X110681000Y-85364200D03*
%TO.N,+VDC*%
X67496700Y-96478900D03*
%TO.N,+3V3*%
X107153900Y-109240800D03*
%TO.N,/InputIsolation/1in*%
X123475000Y-120266400D03*
X90004700Y-117427600D03*
X132708600Y-115996500D03*
X125054800Y-115996500D03*
%TO.N,/InputIsolation/3in*%
X132890900Y-103319900D03*
X138028300Y-103153700D03*
%TO.N,/InputIsolation/4in*%
X134195600Y-96269700D03*
%TO.N,D21*%
X102620300Y-96568600D03*
X108780100Y-103103500D03*
X108779000Y-109352300D03*
X109822200Y-110805700D03*
%TO.N,D22*%
X113425700Y-98899100D03*
%TO.N,Net-(IC4-Pad3)*%
X134572300Y-109621100D03*
%TO.N,Net-(IC4-Pad5)*%
X134872900Y-105307300D03*
%TO.N,Net-(IC4-Pad7)*%
X135103600Y-98252600D03*
%TO.N,D23*%
X59405200Y-117314900D03*
%TO.N,D19*%
X91082000Y-95292200D03*
%TO.N,D18*%
X108160700Y-115490300D03*
%TO.N,D35*%
X125538200Y-120441600D03*
X125779900Y-108959600D03*
%TO.N,Net-(D8-Pad2)*%
X154634400Y-102151900D03*
%TO.N,RX*%
X109495100Y-91655700D03*
%TO.N,D34*%
X92644600Y-125091200D03*
X123605500Y-123791600D03*
X129920800Y-114701100D03*
X79931300Y-124851400D03*
%TO.N,D17*%
X128316400Y-120643300D03*
%TO.N,Z3*%
X153899200Y-104401300D03*
X110110722Y-115112344D03*
%TO.N,Z4*%
X152205800Y-103122600D03*
X110038196Y-113843478D03*
%TO.N,Z5*%
X109797799Y-112729606D03*
%TO.N,Z6*%
X111397062Y-111476356D03*
%TO.N,Z8*%
X104450300Y-110778200D03*
X132447500Y-108633500D03*
%TD*%
D37*
%TO.N,D17*%
X125146200Y-121166800D02*
X127792900Y-121166800D01*
X124696100Y-121616900D02*
X125146200Y-121166800D01*
X121631700Y-121616900D02*
X124696100Y-121616900D01*
X118429200Y-118414400D02*
X121631700Y-121616900D01*
X118429200Y-112547900D02*
X118429200Y-118414400D01*
X114778127Y-110812000D02*
X116693300Y-110812000D01*
X114043527Y-110077400D02*
X114778127Y-110812000D01*
X108478700Y-110077400D02*
X114043527Y-110077400D01*
X108053900Y-109051800D02*
X108053900Y-109652600D01*
X107246100Y-108244000D02*
X108053900Y-109051800D01*
X104108400Y-108244000D02*
X107246100Y-108244000D01*
X103312400Y-107448000D02*
X104108400Y-108244000D01*
X103312400Y-105752200D02*
X103312400Y-107448000D01*
X116693300Y-110812000D02*
X118429200Y-112547900D01*
X95863900Y-101404100D02*
X98964300Y-101404100D01*
X98964300Y-101404100D02*
X103312400Y-105752200D01*
X92615100Y-98155300D02*
X95863900Y-101404100D01*
X108053900Y-109652600D02*
X108478700Y-110077400D01*
X92615100Y-97790000D02*
X92615100Y-98155300D01*
X91440000Y-97790000D02*
X92615100Y-97790000D01*
X127792900Y-121166800D02*
X128316400Y-120643300D01*
%TO.N,D16*%
X103159616Y-109852516D02*
X103137316Y-109830216D01*
X105311130Y-109852516D02*
X103159616Y-109852516D01*
X103137316Y-109830216D02*
X99772800Y-106465700D01*
X107325356Y-111866742D02*
X105311130Y-109852516D01*
X108503879Y-111866742D02*
X107325356Y-111866742D01*
X108630337Y-111740284D02*
X108503879Y-111866742D01*
X109879693Y-111740284D02*
X108630337Y-111740284D01*
X111328100Y-113188691D02*
X109879693Y-111740284D01*
X111328100Y-113363800D02*
X111328100Y-113188691D01*
X123546000Y-124757500D02*
X117979100Y-119190600D01*
X117979100Y-119190600D02*
X117979100Y-114676600D01*
X140423900Y-124757500D02*
X123546000Y-124757500D01*
X117979100Y-114676600D02*
X116666300Y-113363800D01*
X141233900Y-123582300D02*
X141233900Y-123947500D01*
X141233900Y-123947500D02*
X140423900Y-124757500D01*
X116666300Y-113363800D02*
X111328100Y-113363800D01*
X142409000Y-123582300D02*
X141233900Y-123582300D01*
%TO.N,D36*%
X119739455Y-117355526D02*
X119718899Y-117334970D01*
X119718899Y-117334970D02*
X119718899Y-112385721D01*
%TO.N,GND*%
X109220000Y-120650000D02*
X110395100Y-120650000D01*
X93943600Y-104803200D02*
X93943600Y-106153900D01*
X95082500Y-103664300D02*
X93943600Y-104803200D01*
X97912200Y-113622100D02*
X94113600Y-109823500D01*
X66040000Y-98965300D02*
X69731000Y-102656000D01*
X110344000Y-89723200D02*
X110344000Y-90285900D01*
X81280000Y-97748100D02*
X81280000Y-92202000D01*
X110344000Y-89160600D02*
X110344000Y-89723200D01*
X87508600Y-106636900D02*
X83852800Y-106636900D01*
X98113700Y-113622100D02*
X97912200Y-113622100D01*
X80516900Y-91438900D02*
X80516900Y-90313600D01*
X74791400Y-108484000D02*
X73267100Y-106960000D01*
X70520600Y-106959500D02*
X70521100Y-106960000D01*
X81280000Y-97790000D02*
X81280000Y-97748100D01*
X103887900Y-114701900D02*
X108660900Y-119474900D01*
X138618000Y-81822900D02*
X139513000Y-82718400D01*
X75916700Y-107640000D02*
X76748700Y-107640000D01*
X60429500Y-114569000D02*
X61554700Y-114569000D01*
X61554700Y-114569000D02*
X61554700Y-114346000D01*
X93943600Y-106153900D02*
X93943600Y-107403300D01*
X137543000Y-81822900D02*
X137542600Y-81822900D01*
X61554700Y-114346000D02*
X69731000Y-106170000D01*
X66040000Y-97790000D02*
X66040000Y-98965300D01*
X79106900Y-103682000D02*
X78256800Y-103682000D01*
X81280000Y-92202000D02*
X80516900Y-91438900D01*
X79744100Y-99325900D02*
X81280000Y-97790000D01*
X139513400Y-90405200D02*
X139513000Y-90405200D01*
X89450700Y-106153900D02*
X88238200Y-107366400D01*
X102762800Y-114701900D02*
X103887900Y-114701900D01*
X89450700Y-103664300D02*
X89450700Y-106153900D01*
X93943600Y-107403300D02*
X94113600Y-107573300D01*
X75859900Y-109271000D02*
X75859900Y-111528000D01*
X108660900Y-119474900D02*
X109220000Y-119474900D01*
X88524200Y-107765000D02*
X88524200Y-107652500D01*
X110681000Y-85364200D02*
X110681000Y-88823500D01*
X95932600Y-103664300D02*
X95082500Y-103664300D01*
X110395100Y-120284700D02*
X110395100Y-120650000D01*
X93943600Y-106153900D02*
X89450700Y-106153900D01*
X99307000Y-112661900D02*
X98346800Y-113622100D01*
X98113700Y-114747200D02*
X98113700Y-113622100D01*
X70521200Y-106960000D02*
X70520600Y-106960000D01*
X78256800Y-103682000D02*
X78256800Y-106131900D01*
X75916700Y-108765100D02*
X75916700Y-108765000D01*
X110344000Y-89723200D02*
X110344100Y-89723300D01*
X98346800Y-113622100D02*
X98113700Y-113622100D01*
X88238200Y-107366400D02*
X87508600Y-106636900D01*
X79106900Y-99963100D02*
X79106900Y-103682000D01*
X75354100Y-108765000D02*
X75916700Y-108765000D01*
X82912200Y-108702600D02*
X82912200Y-107577500D01*
X78256800Y-106131900D02*
X76748700Y-107640000D01*
X116307900Y-117173800D02*
X113506000Y-117173800D01*
X84702900Y-103677400D02*
X83852800Y-103677400D01*
X90300800Y-103664300D02*
X89450700Y-103664300D01*
X113506000Y-117173800D02*
X110395100Y-120284700D01*
X81280000Y-97748100D02*
X83852800Y-100320900D01*
X60429500Y-114569000D02*
X60429400Y-114568900D01*
X94113600Y-108698400D02*
X94113600Y-107573300D01*
X83852800Y-106636900D02*
X82912200Y-107577500D01*
X88524200Y-108777600D02*
X88524200Y-107765000D01*
X75916700Y-108765000D02*
X75916700Y-107640000D01*
X60429400Y-114569000D02*
X60429500Y-114569000D01*
X88524200Y-107652500D02*
X88238200Y-107366400D01*
X83852800Y-103677400D02*
X83852800Y-106636900D01*
X70521100Y-106960000D02*
X70521200Y-106960000D01*
X69731000Y-102656000D02*
X69731000Y-106170000D01*
X110344100Y-89723300D02*
X110344100Y-90285900D01*
X110681000Y-88823500D02*
X110344000Y-89160600D01*
X139513000Y-82718400D02*
X139513000Y-90405200D01*
X70520600Y-106960000D02*
X69731000Y-106170000D01*
X73267100Y-106960000D02*
X70521200Y-106960000D01*
X94113600Y-108698400D02*
X94113600Y-109823500D01*
X74791400Y-108765000D02*
X74791400Y-108484000D01*
X83852800Y-100320900D02*
X83852800Y-103677400D01*
X109220000Y-120650000D02*
X109220000Y-119474900D01*
X75859900Y-111528000D02*
X75859900Y-111528500D01*
X79744100Y-99325900D02*
X79106900Y-99963100D01*
X75354100Y-108765000D02*
X74791400Y-108765000D01*
X99307000Y-108701700D02*
X99307000Y-112661900D01*
X75354100Y-108765000D02*
X75859900Y-109271000D01*
X137543000Y-81822900D02*
X138618000Y-81822900D01*
%TO.N,+VDC*%
X67356000Y-98250600D02*
X74732600Y-105627000D01*
X75572100Y-105627000D02*
X75572300Y-105627000D01*
X75572100Y-105627000D02*
X75572300Y-105627200D01*
X74732600Y-105627000D02*
X75572100Y-105627000D01*
X67496700Y-96478900D02*
X67356000Y-96619600D01*
X67356000Y-96619600D02*
X67356000Y-98250600D01*
D38*
%TO.N,/Zone1IO/ZoneOutput*%
X69149700Y-72936300D02*
X70996000Y-71090000D01*
X69149700Y-82379600D02*
X69149700Y-72936300D01*
%TO.N,/Zone2IO/ZoneOutput*%
X98568600Y-73997400D02*
X101476000Y-71090000D01*
X98568600Y-82267600D02*
X98568600Y-73997400D01*
D37*
%TO.N,/Zone4IO/ZoneOutput*%
X159689000Y-78052400D02*
X159689000Y-80160000D01*
D38*
X159689000Y-82267600D02*
X159689000Y-80160000D01*
X159689000Y-73836800D02*
X162436000Y-71090000D01*
D37*
X159689200Y-80160200D02*
X159689200Y-82267600D01*
D38*
X159689000Y-78052400D02*
X159689000Y-78052200D01*
D37*
X159689000Y-80160000D02*
X159689200Y-80160200D01*
X159689000Y-80160000D02*
X159689000Y-82267600D01*
D38*
X159689000Y-78052200D02*
X159689000Y-73836800D01*
D37*
X159689000Y-78052200D02*
X159689000Y-78052400D01*
D38*
X159689000Y-80160000D02*
X159689000Y-78052400D01*
%TO.N,/Zone3IO/ZoneOutput*%
X128546000Y-82267600D02*
X128546000Y-80325900D01*
X128546000Y-78383900D02*
X128546000Y-74500300D01*
D37*
X128545700Y-80326200D02*
X128545700Y-82267600D01*
X128546000Y-80325900D02*
X128546000Y-82267600D01*
D38*
X128546000Y-80325900D02*
X128546000Y-78384200D01*
D37*
X128546000Y-80325900D02*
X128545700Y-80326200D01*
X128546000Y-78384200D02*
X128546000Y-80325900D01*
D38*
X128546000Y-78384200D02*
X128546000Y-78383900D01*
D37*
X128546000Y-78383900D02*
X128546000Y-78384200D01*
D38*
X128546000Y-74500300D02*
X131956000Y-71090000D01*
D37*
%TO.N,+3V3*%
X59207700Y-88770200D02*
X59207700Y-89945300D01*
X58032500Y-90312600D02*
X58032500Y-102330100D01*
X104169200Y-109240800D02*
X107153900Y-109240800D01*
X116685700Y-108283800D02*
X112917700Y-108283800D01*
X150029000Y-121042300D02*
X148853900Y-121042300D01*
X122116200Y-113714300D02*
X116685700Y-108283800D01*
X58032500Y-102330100D02*
X58366700Y-102664300D01*
X142295000Y-113577700D02*
X148853900Y-120136600D01*
X58366700Y-110818500D02*
X55824100Y-113361100D01*
X63591700Y-123190000D02*
X64864900Y-123190000D01*
X59207700Y-89945300D02*
X58399800Y-89945300D01*
X55824100Y-113361100D02*
X55824100Y-115422400D01*
X122116200Y-120523800D02*
X122116200Y-113714300D01*
X58366700Y-102664300D02*
X58366700Y-110818500D01*
X55824100Y-115422400D02*
X63591700Y-123190000D01*
X66040000Y-123190000D02*
X64864900Y-123190000D01*
X148853900Y-120136600D02*
X148853900Y-121042300D01*
X102042400Y-107114000D02*
X104169200Y-109240800D01*
X58399800Y-89945300D02*
X58032500Y-90312600D01*
X112917700Y-108283800D02*
X110516400Y-105882500D01*
%TO.N,Net-(D2-Pad2)*%
X86970900Y-93912900D02*
X86408300Y-93912900D01*
X80376900Y-104757100D02*
X80372200Y-104761800D01*
X80376900Y-103682000D02*
X80376900Y-104757100D01*
X93899400Y-90439100D02*
X91007200Y-90439100D01*
X91007200Y-90439100D02*
X87533400Y-93912900D01*
X86970900Y-93912900D02*
X87533400Y-93912900D01*
X80372200Y-104761800D02*
X80372200Y-108702600D01*
%TO.N,Net-(D4-Pad2)*%
X121891200Y-90507700D02*
X118667700Y-93731200D01*
X123316300Y-90507700D02*
X121891200Y-90507700D01*
X118667700Y-93731200D02*
X115861700Y-93731200D01*
%TO.N,Net-(D6-Pad2)*%
X150767700Y-90398200D02*
X147530600Y-93635300D01*
X147530600Y-93635300D02*
X144690900Y-93635300D01*
X152192800Y-90398200D02*
X150767700Y-90398200D01*
%TO.N,/InputIsolation/1in*%
X90004700Y-117427600D02*
X90004700Y-114452600D01*
X82906300Y-110337200D02*
X81646900Y-109077800D01*
X90004700Y-114452600D02*
X88869400Y-113317300D01*
X123475000Y-120266400D02*
X125054800Y-118686600D01*
X125054800Y-118686600D02*
X125054800Y-115996500D01*
X88178500Y-113317300D02*
X85198400Y-110337200D01*
X85198400Y-110337200D02*
X82906300Y-110337200D01*
X88869400Y-113317300D02*
X88178500Y-113317300D01*
X81646900Y-109077800D02*
X81646900Y-103682000D01*
%TO.N,/InputIsolation/3in*%
X133057100Y-103153700D02*
X132890900Y-103319900D01*
X138028300Y-103153700D02*
X133057100Y-103153700D01*
%TO.N,D21*%
X167441700Y-122407200D02*
X167809000Y-122407200D01*
X102895600Y-96843900D02*
X102620300Y-96568600D01*
X116307900Y-99393800D02*
X117433000Y-99393800D01*
X106842100Y-106778700D02*
X108779000Y-108715600D01*
X121282200Y-95544600D02*
X140947300Y-95544600D01*
X108780100Y-103103500D02*
X106842100Y-105041500D01*
X166633900Y-121599400D02*
X167441700Y-122407200D01*
X167809000Y-123582300D02*
X167809000Y-122407200D01*
X166633900Y-120734200D02*
X166633900Y-121599400D01*
X145886700Y-99987000D02*
X166633900Y-120734200D01*
X104582400Y-102441800D02*
X104582400Y-101316700D01*
X117433000Y-99393800D02*
X121282200Y-95544600D01*
X140947300Y-95544600D02*
X145389700Y-99987000D01*
X106842100Y-105041500D02*
X106842100Y-106778700D01*
X108779000Y-108715600D02*
X108779000Y-109352300D01*
X145389700Y-99987000D02*
X145886700Y-99987000D01*
X104582400Y-101316700D02*
X102895600Y-99629900D01*
X102895600Y-99629900D02*
X102895600Y-96843900D01*
%TO.N,Net-(Q2-Pad3)*%
X75338600Y-89188300D02*
X77074800Y-87452100D01*
X77074800Y-87452100D02*
X77074800Y-84356600D01*
X75338600Y-90313600D02*
X75338600Y-89188300D01*
%TO.N,/Zone1IO/ZoneInput*%
X76076000Y-71090000D02*
X77701100Y-71090000D01*
X83739400Y-90439100D02*
X83739400Y-89014000D01*
X84694200Y-88059200D02*
X84694200Y-73421200D01*
X77701100Y-71090000D02*
X80032300Y-73421200D01*
X83739400Y-89014000D02*
X84694200Y-88059200D01*
X84694200Y-73421200D02*
X85347500Y-73421200D01*
X85347500Y-73421200D02*
X89109000Y-69659700D01*
X80032300Y-73421200D02*
X84694200Y-73421200D01*
%TO.N,/Zone2IO/ZoneInput*%
X116851400Y-72931000D02*
X116851400Y-67423200D01*
X106556000Y-72715100D02*
X111731200Y-77890300D01*
X116851400Y-67423200D02*
X119449600Y-64825000D01*
X111731200Y-77890300D02*
X111892100Y-77890300D01*
X113156300Y-89082600D02*
X111892100Y-87818400D01*
X106556000Y-71090000D02*
X106556000Y-72715100D01*
X113156300Y-90507700D02*
X113156300Y-89082600D01*
X111892100Y-77890300D02*
X116851400Y-72931000D01*
X111892100Y-87818400D02*
X111892100Y-77890300D01*
%TO.N,/Zone3IO/ZoneInput*%
X138661100Y-71415300D02*
X142621000Y-75375200D01*
X142621000Y-75375200D02*
X151357900Y-66638300D01*
X142032800Y-75963400D02*
X142621000Y-75375200D01*
X142150900Y-93635300D02*
X142032800Y-93517200D01*
X138661100Y-71090000D02*
X138661100Y-71415300D01*
X142032800Y-90398200D02*
X142032800Y-75963400D01*
X137036000Y-71090000D02*
X138661100Y-71090000D01*
X142032800Y-93517200D02*
X142032800Y-90398200D01*
%TO.N,/Zone4IO/ZoneInput*%
X157234700Y-73993000D02*
X161762800Y-69464900D01*
X161762800Y-69464900D02*
X164265800Y-69464900D01*
X151310400Y-84874400D02*
X157234700Y-78950100D01*
X167516000Y-71090000D02*
X165890900Y-71090000D01*
X157234700Y-78950100D02*
X157234700Y-73993000D01*
X164265800Y-69464900D02*
X165890900Y-71090000D01*
%TO.N,D22*%
X145576200Y-99536900D02*
X146212800Y-99536900D01*
X169541100Y-122407200D02*
X170349000Y-122407200D01*
X113425700Y-98899100D02*
X109946400Y-102378400D01*
X169173900Y-122040000D02*
X169541100Y-122407200D01*
X151401800Y-104725900D02*
X153188800Y-104725900D01*
X141133800Y-95094500D02*
X145576200Y-99536900D01*
X116307900Y-96853800D02*
X117433000Y-96853800D01*
X105707500Y-105150700D02*
X105707500Y-107114000D01*
X146212800Y-99536900D02*
X151401800Y-104725900D01*
X109946400Y-102378400D02*
X108479800Y-102378400D01*
X104582400Y-107114000D02*
X105707500Y-107114000D01*
X117433000Y-96853800D02*
X119192300Y-95094500D01*
X108479800Y-102378400D02*
X105707500Y-105150700D01*
X119192300Y-95094500D02*
X141133800Y-95094500D01*
X170349000Y-123582300D02*
X170349000Y-122407200D01*
X169173900Y-120711000D02*
X169173900Y-122040000D01*
X153188800Y-104725900D02*
X169173900Y-120711000D01*
%TO.N,D36*%
X87487500Y-114214300D02*
X87487500Y-114680600D01*
X88612600Y-114680600D02*
X87487500Y-114680600D01*
X71120000Y-120650000D02*
X71120000Y-117143500D01*
X84251500Y-110978300D02*
X87487500Y-114214300D01*
X75448100Y-112815400D02*
X76189200Y-112815400D01*
X78026300Y-110978300D02*
X84251500Y-110978300D01*
X71120000Y-117143500D02*
X75448100Y-112815400D01*
X76189200Y-112815400D02*
X78026300Y-110978300D01*
%TO.N,Net-(IC4-Pad3)*%
X134572300Y-109621000D02*
X134572300Y-109621100D01*
X138629900Y-108788400D02*
X137797300Y-109621000D01*
X139755000Y-108788400D02*
X138629900Y-108788400D01*
X137797300Y-109621000D02*
X134572300Y-109621000D01*
%TO.N,D23*%
X56724300Y-115049400D02*
X58989800Y-117314900D01*
X61268100Y-100399600D02*
X61268100Y-109190300D01*
X68580000Y-96506800D02*
X67823700Y-95750500D01*
X67823700Y-95750500D02*
X65917200Y-95750500D01*
X68580000Y-97790000D02*
X68580000Y-96506800D01*
X65917200Y-95750500D02*
X61268100Y-100399600D01*
X61268100Y-109190300D02*
X56724300Y-113734100D01*
X56724300Y-113734100D02*
X56724300Y-115049400D01*
X58989800Y-117314900D02*
X59405200Y-117314900D01*
%TO.N,D19*%
X86292800Y-96127000D02*
X84995100Y-97424700D01*
X91082000Y-95292200D02*
X90247200Y-96127000D01*
X83820000Y-97790000D02*
X84995100Y-97790000D01*
X84995100Y-97424700D02*
X84995100Y-97790000D01*
X90247200Y-96127000D02*
X86292800Y-96127000D01*
%TO.N,Net-(Q5-Pad3)*%
X105142700Y-89201500D02*
X105142700Y-90291400D01*
X106673400Y-84289200D02*
X106673000Y-84289200D01*
X105143000Y-89201200D02*
X105142700Y-89201500D01*
X106673000Y-85139500D02*
X105143000Y-86670200D01*
X105143000Y-89201200D02*
X105143000Y-90291400D01*
X105143000Y-86670200D02*
X105143000Y-89201200D01*
X106673000Y-84289200D02*
X106673000Y-85139500D01*
%TO.N,Net-(Q11-Pad3)*%
X162999000Y-89408300D02*
X162999300Y-89408600D01*
X162999000Y-89408300D02*
X162999000Y-88845700D01*
X162999300Y-89408600D02*
X162999300Y-89971000D01*
X167688000Y-84508100D02*
X167688000Y-84083000D01*
X163775000Y-88845700D02*
X167688000Y-84933300D01*
X167688000Y-84508100D02*
X167687500Y-84507600D01*
X162999000Y-89971000D02*
X162999000Y-89408300D01*
X167688000Y-84933300D02*
X167688000Y-84508100D01*
X167687500Y-84507600D02*
X167687500Y-84083000D01*
X162999000Y-88845700D02*
X163775000Y-88845700D01*
%TO.N,Net-(Q8-Pad3)*%
X134317000Y-89823200D02*
X134317000Y-90385900D01*
X134317000Y-89823200D02*
X134317400Y-89823600D01*
X137543000Y-85561900D02*
X137543000Y-86879400D01*
X134317000Y-89260600D02*
X134317000Y-89823200D01*
X137543000Y-84362900D02*
X137543000Y-85561900D01*
X137542600Y-85561500D02*
X137542600Y-84362900D01*
X134317400Y-89823600D02*
X134317400Y-90385900D01*
X137543000Y-85561900D02*
X137542600Y-85561500D01*
X137543000Y-86879400D02*
X135161000Y-89260600D01*
X135161000Y-89260600D02*
X134317000Y-89260600D01*
%TO.N,D18*%
X87535100Y-98155300D02*
X91876100Y-102496300D01*
X87535100Y-97790000D02*
X87535100Y-98155300D01*
X104173700Y-111503300D02*
X108160700Y-115490300D01*
X103725200Y-111054800D02*
X103725200Y-111078500D01*
X98783300Y-102496300D02*
X99322700Y-103035700D01*
X99322700Y-103035700D02*
X99322700Y-106652300D01*
X99322700Y-106652300D02*
X103725200Y-111054800D01*
X91876100Y-102496300D02*
X98783300Y-102496300D01*
X104150000Y-111503300D02*
X104173700Y-111503300D01*
X86360000Y-97790000D02*
X87535100Y-97790000D01*
X103725200Y-111078500D02*
X104150000Y-111503300D01*
%TO.N,D35*%
X79915100Y-122822700D02*
X80722900Y-122014900D01*
X85028800Y-117012300D02*
X83822200Y-115805700D01*
X85028800Y-121142100D02*
X85028800Y-117012300D01*
X78740000Y-123190000D02*
X79915100Y-123190000D01*
X125779900Y-120199900D02*
X125538200Y-120441600D01*
X84156000Y-122014900D02*
X85028800Y-121142100D01*
X125779900Y-108959600D02*
X125779900Y-120199900D01*
X80722900Y-122014900D02*
X84156000Y-122014900D01*
X83822200Y-114680600D02*
X83822200Y-115805700D01*
X79915100Y-123190000D02*
X79915100Y-122822700D01*
%TO.N,D32*%
X57889400Y-114568900D02*
X60418800Y-112039500D01*
X60418800Y-112039500D02*
X62580600Y-112039500D01*
%TO.N,D33*%
X79487200Y-113492800D02*
X76435600Y-113492800D01*
X76435600Y-113492800D02*
X75859900Y-114068500D01*
X83820000Y-117825600D02*
X79487200Y-113492800D01*
X83820000Y-120650000D02*
X83820000Y-117825600D01*
%TO.N,Net-(D8-Pad2)*%
X185558100Y-85632100D02*
X185558100Y-84919600D01*
X97202600Y-108266100D02*
X96767000Y-108701700D01*
X185558100Y-85632100D02*
X177423100Y-85632100D01*
X177423100Y-85632100D02*
X160903300Y-102151900D01*
X160903300Y-102151900D02*
X154634400Y-102151900D01*
X186920600Y-84919600D02*
X185558100Y-84919600D01*
X185558100Y-86344700D02*
X185558100Y-85632100D01*
X189203900Y-82636300D02*
X186920600Y-84919600D01*
X97202600Y-103664300D02*
X97202600Y-108266100D01*
X190329000Y-82636300D02*
X189203900Y-82636300D01*
%TO.N,D25*%
X117495800Y-120403400D02*
X122116200Y-125023800D01*
X115509400Y-116042600D02*
X116808400Y-116042600D01*
X87535100Y-120321800D02*
X89067600Y-118789300D01*
X116808400Y-116042600D02*
X117495800Y-116730000D01*
X106821900Y-116221000D02*
X115331000Y-116221000D01*
X96374200Y-118789300D02*
X102762800Y-112400700D01*
X87535100Y-120650000D02*
X87535100Y-120321800D01*
X102762800Y-112400700D02*
X102762800Y-112161900D01*
X86360000Y-120650000D02*
X87535100Y-120650000D01*
X89067600Y-118789300D02*
X96374200Y-118789300D01*
X115331000Y-116221000D02*
X115509400Y-116042600D01*
X117495800Y-116730000D02*
X117495800Y-120403400D01*
X102762800Y-112161900D02*
X106821900Y-116221000D01*
%TO.N,TX*%
X73660000Y-97790000D02*
X72484900Y-97790000D01*
X60263800Y-109558000D02*
X56274200Y-113547600D01*
X141548000Y-126156300D02*
X143610800Y-124093500D01*
X143610800Y-124093500D02*
X143610800Y-123083200D01*
X56274200Y-113547600D02*
X56274200Y-115235900D01*
X80044000Y-126156300D02*
X141548000Y-126156300D01*
X72484900Y-97790000D02*
X72484900Y-97422800D01*
X143610800Y-123083200D02*
X142934700Y-122407100D01*
X56274200Y-115235900D02*
X62863500Y-121825200D01*
X141044200Y-122407100D02*
X139869000Y-123582300D01*
X142934700Y-122407100D02*
X141044200Y-122407100D01*
X72484900Y-97422800D02*
X70362500Y-95300400D01*
X77470000Y-122700500D02*
X77470000Y-123582300D01*
X65730700Y-95300400D02*
X60263800Y-100767300D01*
X70362500Y-95300400D02*
X65730700Y-95300400D01*
X62863500Y-121825200D02*
X76594700Y-121825200D01*
X77470000Y-123582300D02*
X80044000Y-126156300D01*
X60263800Y-100767300D02*
X60263800Y-109558000D01*
X76594700Y-121825200D02*
X77470000Y-122700500D01*
%TO.N,RX*%
X128233400Y-110353300D02*
X128233400Y-110616400D01*
X126019400Y-108139300D02*
X128233400Y-110353300D01*
X128233400Y-110616400D02*
X128921800Y-111304800D01*
X123386000Y-108139300D02*
X126019400Y-108139300D01*
X129053300Y-111304800D02*
X136153900Y-118405400D01*
X116688500Y-100663800D02*
X122063000Y-106038300D01*
X114591700Y-93350200D02*
X114591700Y-95569400D01*
X109495100Y-91655700D02*
X109949500Y-92110100D01*
X115178600Y-96156300D02*
X115178600Y-99876200D01*
X128921800Y-111304800D02*
X129053300Y-111304800D01*
X136961700Y-122407200D02*
X137329000Y-122407200D01*
X136153900Y-118405400D02*
X136153900Y-121599400D01*
X114591700Y-95569400D02*
X115178600Y-96156300D01*
X137329000Y-123582300D02*
X137329000Y-122407200D01*
X122063000Y-106816300D02*
X123386000Y-108139300D01*
X115178600Y-99876200D02*
X115966200Y-100663800D01*
X109949500Y-92110100D02*
X113351600Y-92110100D01*
X136153900Y-121599400D02*
X136961700Y-122407200D01*
X122063000Y-106038300D02*
X122063000Y-106816300D01*
X113351600Y-92110100D02*
X114591700Y-93350200D01*
X115966200Y-100663800D02*
X116688500Y-100663800D01*
%TO.N,D34*%
X76200000Y-118637500D02*
X79031800Y-115805700D01*
X76200000Y-120650000D02*
X76200000Y-118637500D01*
X79031800Y-114680600D02*
X79031800Y-115805700D01*
X128208800Y-121841900D02*
X129920800Y-120129900D01*
X129920800Y-120129900D02*
X129920800Y-114701100D01*
X123605500Y-123791600D02*
X125555200Y-121841900D01*
X80171100Y-125091200D02*
X79931300Y-124851400D01*
X92644600Y-125091200D02*
X80171100Y-125091200D01*
X125555200Y-121841900D02*
X128208800Y-121841900D01*
%TO.N,D16*%
X90221100Y-97343600D02*
X90987300Y-96577400D01*
X99772800Y-106465700D02*
X99772800Y-102849200D01*
X90221100Y-98305400D02*
X90221100Y-97343600D01*
X98810500Y-101886900D02*
X93802600Y-101886900D01*
X93802600Y-101886900D02*
X90221100Y-98305400D01*
X92767400Y-96577400D02*
X93980000Y-97790000D01*
X99772800Y-102849200D02*
X98810500Y-101886900D01*
X90987300Y-96577400D02*
X92767400Y-96577400D01*
%TO.N,Net-(IC1-Pad6)*%
X116307900Y-109553800D02*
X112568500Y-109553800D01*
X109101500Y-106086800D02*
X109101500Y-105882500D01*
X112568500Y-109553800D02*
X109101500Y-106086800D01*
X107976400Y-105882500D02*
X109101500Y-105882500D01*
%TO.N,AuxVoltage*%
X154423800Y-95333800D02*
X154423800Y-96479900D01*
X154423800Y-96479900D02*
X150281700Y-100622000D01*
X155598900Y-95333800D02*
X154423800Y-95333800D01*
%TO.N,Z1*%
X78150100Y-90140400D02*
X77976900Y-90313600D01*
X90291100Y-95057800D02*
X85928500Y-95057800D01*
X117464200Y-108425500D02*
X117464200Y-106578800D01*
X110219400Y-94567100D02*
X90781800Y-94567100D01*
X85138300Y-94267600D02*
X85138300Y-93568000D01*
X117464200Y-106578800D02*
X116629200Y-105743800D01*
X114150800Y-98498500D02*
X110219400Y-94567100D01*
X85138300Y-93568000D02*
X83858500Y-92288200D01*
X114150800Y-103908300D02*
X114150800Y-98498500D01*
X123927900Y-116048700D02*
X123694700Y-116048700D01*
X78150100Y-83086600D02*
X78150100Y-87849500D01*
X90781800Y-94567100D02*
X90291100Y-95057800D01*
X123694700Y-116048700D02*
X122791400Y-115145400D01*
X81995700Y-90197900D02*
X79647300Y-87849500D01*
X77074800Y-83086600D02*
X78150100Y-83086600D01*
X82925900Y-92288200D02*
X81995700Y-91358000D01*
X81995700Y-91358000D02*
X81995700Y-90197900D01*
X78150100Y-87849500D02*
X78150100Y-90140400D01*
X122791400Y-113752700D02*
X117464200Y-108425500D01*
X115986300Y-105743800D02*
X114150800Y-103908300D01*
X123927900Y-117173800D02*
X123927900Y-116048700D01*
X116629200Y-105743800D02*
X115986300Y-105743800D01*
X122791400Y-115145400D02*
X122791400Y-113752700D01*
X83858500Y-92288200D02*
X82925900Y-92288200D01*
X85928500Y-95057800D02*
X85138300Y-94267600D01*
X79647300Y-87849500D02*
X78150100Y-87849500D01*
%TO.N,Z2*%
X107804100Y-90990100D02*
X114600900Y-97786900D01*
X107776500Y-90258200D02*
X107804100Y-90285800D01*
X118285800Y-108065300D02*
X123729200Y-113508700D01*
X107776500Y-90258200D02*
X107804000Y-90285900D01*
X115964200Y-103203800D02*
X116705700Y-103203800D01*
X118285800Y-104783900D02*
X118285800Y-108065300D01*
X106673400Y-83019200D02*
X107749000Y-83019200D01*
X123729200Y-113508700D02*
X123927900Y-113508700D01*
X123927900Y-114633800D02*
X123927900Y-113508700D01*
X107749000Y-90230500D02*
X107776500Y-90258200D01*
X114600900Y-101840500D02*
X115964200Y-103203800D01*
X107804100Y-90285900D02*
X107804100Y-90990100D01*
X116705700Y-103203800D02*
X118285800Y-104783900D01*
X107804100Y-90285800D02*
X107804100Y-90285900D01*
X114600900Y-97786900D02*
X114600900Y-101840500D01*
X107749000Y-83019200D02*
X107749000Y-90230500D01*
%TO.N,Z3*%
X146947200Y-98927500D02*
X152221800Y-104202100D01*
X136973400Y-90405200D02*
X137027100Y-90351500D01*
X153700000Y-104202100D02*
X153899200Y-104401300D01*
X137252300Y-90351500D02*
X145828300Y-98927500D01*
X138617700Y-88986100D02*
X137252300Y-90351500D01*
X138617700Y-83092900D02*
X138617700Y-88986100D01*
X137542600Y-83092900D02*
X138617700Y-83092900D01*
X145828300Y-98927500D02*
X146947200Y-98927500D01*
X152221800Y-104202100D02*
X153700000Y-104202100D01*
X137027100Y-90351500D02*
X137252300Y-90351500D01*
%TO.N,Z4*%
X161584400Y-92747500D02*
X154091800Y-100240100D01*
X178370800Y-82813000D02*
X179350700Y-81833100D01*
X154091800Y-101236600D02*
X152205800Y-103122600D01*
X167687500Y-82813000D02*
X166612400Y-82813000D01*
X161584400Y-87841000D02*
X161584400Y-92747500D01*
X167687500Y-82813000D02*
X178370800Y-82813000D01*
X154091800Y-100240100D02*
X154091800Y-101236600D01*
X166612400Y-82813000D02*
X161584400Y-87841000D01*
%TO.N,Z5*%
X135091400Y-116489300D02*
X142070100Y-116489300D01*
X155569100Y-122312300D02*
X156473900Y-123217100D01*
X129108300Y-110854700D02*
X129456800Y-110854700D01*
X147004700Y-122312300D02*
X155569100Y-122312300D01*
X129456800Y-110854700D02*
X135091400Y-116489300D01*
X142070100Y-116489300D02*
X146313800Y-120733000D01*
X128683500Y-110081400D02*
X128683500Y-110429900D01*
X125053000Y-107013800D02*
X125615900Y-107013800D01*
X157649000Y-123582300D02*
X156473900Y-123582300D01*
X156473900Y-123217100D02*
X156473900Y-123582300D01*
X146313800Y-121621400D02*
X147004700Y-122312300D01*
X128683500Y-110429900D02*
X129108300Y-110854700D01*
X125615900Y-107013800D02*
X128683500Y-110081400D01*
X123927900Y-107013800D02*
X125053000Y-107013800D01*
X146313800Y-120733000D02*
X146313800Y-121621400D01*
%TO.N,Z6*%
X123927900Y-104473800D02*
X125053000Y-104473800D01*
X133031700Y-112452500D02*
X150740300Y-112452500D01*
X150740300Y-112452500D02*
X159013900Y-120726100D01*
X159821700Y-122407200D02*
X160189000Y-122407200D01*
X125053000Y-104473800D02*
X133031700Y-112452500D01*
X159013900Y-120726100D02*
X159013900Y-121599400D01*
X159013900Y-121599400D02*
X159821700Y-122407200D01*
X160189000Y-123582300D02*
X160189000Y-122407200D01*
%TO.N,Z7*%
X152819400Y-111991600D02*
X161553900Y-120726100D01*
X162361700Y-122407200D02*
X162729000Y-122407200D01*
X161553900Y-120726100D02*
X161553900Y-121599400D01*
X125053000Y-101933800D02*
X125053000Y-102264400D01*
X134780200Y-111991600D02*
X152819400Y-111991600D01*
X161553900Y-121599400D02*
X162361700Y-122407200D01*
X162729000Y-123582300D02*
X162729000Y-122407200D01*
X123927900Y-101933800D02*
X125053000Y-101933800D01*
X125053000Y-102264400D02*
X134780200Y-111991600D01*
%TO.N,Z8*%
X164093900Y-121599400D02*
X164093900Y-120705000D01*
X123927900Y-99393800D02*
X125053000Y-99393800D01*
X165269000Y-122407200D02*
X164901700Y-122407200D01*
X132447500Y-108633500D02*
X132447500Y-108506300D01*
X133306500Y-107647300D02*
X125053000Y-99393800D01*
X154240100Y-110851200D02*
X147010700Y-110851200D01*
X165269000Y-123582300D02*
X165269000Y-122407200D01*
X164093900Y-120705000D02*
X154240100Y-110851200D01*
X143806800Y-107647300D02*
X133306500Y-107647300D01*
X164901700Y-122407200D02*
X164093900Y-121599400D01*
X132447500Y-108506300D02*
X133306500Y-107647300D01*
X147010700Y-110851200D02*
X143806800Y-107647300D01*
%TD*%
M02*
