%TF.GenerationSoftware,KiCad,Pcbnew,7.0.1*%
%TF.CreationDate,2023-05-06T14:55:35-07:00*%
%TF.ProjectId,MakeItRain,4d616b65-4974-4526-9169-6e2e6b696361,rev?*%
%TF.SameCoordinates,Original*%
%TF.FileFunction,Copper,L4,Bot*%
%TF.FilePolarity,Positive*%
%FSLAX46Y46*%
G04 Gerber Fmt 4.6, Leading zero omitted, Abs format (unit mm)*
G04 Created by KiCad (PCBNEW 7.0.1) date 2023-05-06 14:55:35*
%MOMM*%
%LPD*%
G01*
G04 APERTURE LIST*
%TA.AperFunction,ComponentPad*%
%ADD10C,1.600000*%
%TD*%
%TA.AperFunction,ComponentPad*%
%ADD11R,2.600000X2.600000*%
%TD*%
%TA.AperFunction,ComponentPad*%
%ADD12O,2.600000X2.600000*%
%TD*%
%TA.AperFunction,ComponentPad*%
%ADD13R,1.800000X1.800000*%
%TD*%
%TA.AperFunction,ComponentPad*%
%ADD14C,1.800000*%
%TD*%
%TA.AperFunction,ComponentPad*%
%ADD15R,1.700000X1.700000*%
%TD*%
%TA.AperFunction,ComponentPad*%
%ADD16O,1.700000X1.700000*%
%TD*%
%TA.AperFunction,ComponentPad*%
%ADD17C,2.600000*%
%TD*%
%TA.AperFunction,ComponentPad*%
%ADD18R,1.920000X1.920000*%
%TD*%
%TA.AperFunction,ComponentPad*%
%ADD19C,1.920000*%
%TD*%
%TA.AperFunction,ComponentPad*%
%ADD20R,1.050000X1.500000*%
%TD*%
%TA.AperFunction,ComponentPad*%
%ADD21O,1.050000X1.500000*%
%TD*%
%TA.AperFunction,ComponentPad*%
%ADD22R,1.150000X1.150000*%
%TD*%
%TA.AperFunction,ComponentPad*%
%ADD23C,1.150000*%
%TD*%
%TA.AperFunction,ComponentPad*%
%ADD24O,1.600000X1.600000*%
%TD*%
%TA.AperFunction,ComponentPad*%
%ADD25R,1.500000X1.050000*%
%TD*%
%TA.AperFunction,ComponentPad*%
%ADD26O,1.500000X1.050000*%
%TD*%
%TA.AperFunction,ComponentPad*%
%ADD27C,1.440000*%
%TD*%
%TA.AperFunction,ComponentPad*%
%ADD28R,1.600000X1.600000*%
%TD*%
%TA.AperFunction,ComponentPad*%
%ADD29R,2.200000X2.200000*%
%TD*%
%TA.AperFunction,ComponentPad*%
%ADD30O,2.200000X2.200000*%
%TD*%
%TA.AperFunction,ComponentPad*%
%ADD31R,1.500000X1.500000*%
%TD*%
%TA.AperFunction,ComponentPad*%
%ADD32C,1.500000*%
%TD*%
%TA.AperFunction,ComponentPad*%
%ADD33C,2.100000*%
%TD*%
%TA.AperFunction,ViaPad*%
%ADD34C,0.800000*%
%TD*%
%TA.AperFunction,Conductor*%
%ADD35C,0.250000*%
%TD*%
%TA.AperFunction,Conductor*%
%ADD36C,0.762000*%
%TD*%
%TA.AperFunction,Conductor*%
%ADD37C,2.032000*%
%TD*%
%TA.AperFunction,Conductor*%
%ADD38C,0.508000*%
%TD*%
%TA.AperFunction,Conductor*%
%ADD39C,0.889000*%
%TD*%
G04 APERTURE END LIST*
D10*
%TO.P,C2,1*%
%TO.N,/Zone1IO/ZoneInput*%
X89109000Y-69659700D03*
%TO.P,C2,2*%
%TO.N,GND*%
X89109000Y-74659700D03*
%TD*%
%TO.P,C3,1*%
%TO.N,/Zone2IO/ZoneInput*%
X119449600Y-64825000D03*
%TO.P,C3,2*%
%TO.N,GND*%
X119449600Y-69825000D03*
%TD*%
%TO.P,C4,1*%
%TO.N,/Zone3IO/ZoneInput*%
X151357900Y-66638300D03*
%TO.P,C4,2*%
%TO.N,GND*%
X151357900Y-71638300D03*
%TD*%
D11*
%TO.P,D3,1,K*%
%TO.N,/Zone1IO/ZoneOutput*%
X83061000Y-85060000D03*
D12*
%TO.P,D3,2,A*%
%TO.N,GND*%
X83061000Y-69820000D03*
%TD*%
D11*
%TO.P,D5,1,K*%
%TO.N,/Zone2IO/ZoneOutput*%
X113541000Y-85060000D03*
D12*
%TO.P,D5,2,A*%
%TO.N,GND*%
X113541000Y-69820000D03*
%TD*%
D11*
%TO.P,D7,1,K*%
%TO.N,/Zone4IO/ZoneOutput*%
X174501000Y-85060000D03*
D12*
%TO.P,D7,2,A*%
%TO.N,GND*%
X174501000Y-69820000D03*
%TD*%
D11*
%TO.P,D9,1,K*%
%TO.N,/Zone3IO/ZoneOutput*%
X144021000Y-85060000D03*
D12*
%TO.P,D9,2,A*%
%TO.N,GND*%
X144021000Y-69820000D03*
%TD*%
D13*
%TO.P,D1,1,K*%
%TO.N,Net-(D1-K)*%
X128872900Y-123268200D03*
D14*
%TO.P,D1,2,A*%
%TO.N,D27*%
X126332900Y-123268200D03*
%TD*%
D15*
%TO.P,J2,1,Pin_1*%
%TO.N,+3V3*%
X66040000Y-120650000D03*
D16*
%TO.P,J2,2,Pin_2*%
X66040000Y-123190000D03*
%TO.P,J2,3,Pin_3*%
%TO.N,EN*%
X68580000Y-120650000D03*
%TO.P,J2,4,Pin_4*%
X68580000Y-123190000D03*
%TO.P,J2,5,Pin_5*%
%TO.N,D36*%
X71120000Y-120650000D03*
%TO.P,J2,6,Pin_6*%
X71120000Y-123190000D03*
%TO.P,J2,7,Pin_7*%
%TO.N,D39*%
X73660000Y-120650000D03*
%TO.P,J2,8,Pin_8*%
X73660000Y-123190000D03*
%TO.P,J2,9,Pin_9*%
%TO.N,D34*%
X76200000Y-120650000D03*
%TO.P,J2,10,Pin_10*%
X76200000Y-123190000D03*
%TO.P,J2,11,Pin_11*%
%TO.N,D35*%
X78740000Y-120650000D03*
%TO.P,J2,12,Pin_12*%
X78740000Y-123190000D03*
%TO.P,J2,13,Pin_13*%
%TO.N,D32*%
X81280000Y-120650000D03*
%TO.P,J2,14,Pin_14*%
X81280000Y-123190000D03*
%TO.P,J2,15,Pin_15*%
%TO.N,D33*%
X83820000Y-120650000D03*
%TO.P,J2,16,Pin_16*%
X83820000Y-123190000D03*
%TO.P,J2,17,Pin_17*%
%TO.N,D25*%
X86360000Y-120650000D03*
%TO.P,J2,18,Pin_18*%
X86360000Y-123190000D03*
%TO.P,J2,19,Pin_19*%
%TO.N,D26*%
X88900000Y-120650000D03*
%TO.P,J2,20,Pin_20*%
X88900000Y-123190000D03*
%TO.P,J2,21,Pin_21*%
%TO.N,D27*%
X91440000Y-120650000D03*
%TO.P,J2,22,Pin_22*%
X91440000Y-123190000D03*
%TO.P,J2,23,Pin_23*%
%TO.N,D14*%
X93980000Y-120650000D03*
%TO.P,J2,24,Pin_24*%
X93980000Y-123190000D03*
%TO.P,J2,25,Pin_25*%
%TO.N,D12*%
X96520000Y-120650000D03*
%TO.P,J2,26,Pin_26*%
X96520000Y-123190000D03*
%TO.P,J2,27,Pin_27*%
%TO.N,GND*%
X99060000Y-120650000D03*
%TO.P,J2,28,Pin_28*%
X99060000Y-123190000D03*
%TO.P,J2,29,Pin_29*%
%TO.N,unconnected-(J2-Pin_29-Pad29)*%
X101600000Y-120650000D03*
%TO.P,J2,30,Pin_30*%
%TO.N,unconnected-(J2-Pin_30-Pad30)*%
X101600000Y-123190000D03*
%TO.P,J2,31,Pin_31*%
%TO.N,unconnected-(J2-Pin_31-Pad31)*%
X104140000Y-120650000D03*
%TO.P,J2,32,Pin_32*%
%TO.N,unconnected-(J2-Pin_32-Pad32)*%
X104140000Y-123190000D03*
%TO.P,J2,33,Pin_33*%
%TO.N,unconnected-(J2-Pin_33-Pad33)*%
X106680000Y-120650000D03*
%TO.P,J2,34,Pin_34*%
%TO.N,unconnected-(J2-Pin_34-Pad34)*%
X106680000Y-123190000D03*
%TO.P,J2,35,Pin_35*%
%TO.N,unconnected-(J2-Pin_35-Pad35)*%
X109220000Y-120650000D03*
%TO.P,J2,36,Pin_36*%
%TO.N,unconnected-(J2-Pin_36-Pad36)*%
X109220000Y-123190000D03*
%TO.P,J2,37,Pin_37*%
%TO.N,Net-(J2-Pin_37)*%
X111760000Y-120650000D03*
%TO.P,J2,38,Pin_38*%
X111760000Y-123190000D03*
%TD*%
D15*
%TO.P,J3,1,Pin_1*%
%TO.N,GND*%
X66040000Y-97790000D03*
D16*
%TO.P,J3,2,Pin_2*%
%TO.N,D23*%
X68580000Y-97790000D03*
%TO.P,J3,3,Pin_3*%
%TO.N,D22*%
X71120000Y-97790000D03*
%TO.P,J3,4,Pin_4*%
%TO.N,TX*%
X73660000Y-97790000D03*
%TO.P,J3,5,Pin_5*%
%TO.N,RX*%
X76200000Y-97790000D03*
%TO.P,J3,6,Pin_6*%
%TO.N,D21*%
X78740000Y-97790000D03*
%TO.P,J3,7,Pin_7*%
%TO.N,GND*%
X81280000Y-97790000D03*
%TO.P,J3,8,Pin_8*%
%TO.N,D19*%
X83820000Y-97790000D03*
%TO.P,J3,9,Pin_9*%
%TO.N,D18*%
X86360000Y-97790000D03*
%TO.P,J3,10,Pin_10*%
%TO.N,D5*%
X88900000Y-97790000D03*
%TO.P,J3,11,Pin_11*%
%TO.N,D17*%
X91440000Y-97790000D03*
%TO.P,J3,12,Pin_12*%
%TO.N,D16*%
X93980000Y-97790000D03*
%TO.P,J3,13,Pin_13*%
%TO.N,D4*%
X96520000Y-97790000D03*
%TO.P,J3,14,Pin_14*%
%TO.N,D0*%
X99060000Y-97790000D03*
%TO.P,J3,15,Pin_15*%
%TO.N,D2*%
X101600000Y-97790000D03*
%TO.P,J3,16,Pin_16*%
%TO.N,D15*%
X104140000Y-97790000D03*
%TO.P,J3,17,Pin_17*%
%TO.N,/SD1*%
X106680000Y-97790000D03*
%TO.P,J3,18,Pin_18*%
%TO.N,/SDD*%
X109220000Y-97790000D03*
%TO.P,J3,19,Pin_19*%
%TO.N,/CLK*%
X111760000Y-97790000D03*
%TD*%
D11*
%TO.P,P1,1,Pin_1*%
%TO.N,Net-(P1-Pin_1)*%
X178125700Y-96457800D03*
D17*
%TO.P,P1,2,Pin_2*%
%TO.N,GND*%
X178125700Y-91377800D03*
%TD*%
D18*
%TO.P,Q3,1*%
%TO.N,Net-(Q3-Pad1)*%
X71689700Y-82379600D03*
D19*
%TO.P,Q3,2*%
%TO.N,/Zone1IO/ZoneOutput*%
X69149700Y-82379600D03*
%TO.P,Q3,3*%
%TO.N,+VDC*%
X66609700Y-82379600D03*
%TD*%
D18*
%TO.P,Q6,1*%
%TO.N,Net-(Q6-Pad1)*%
X101108600Y-82267600D03*
D19*
%TO.P,Q6,2*%
%TO.N,/Zone2IO/ZoneOutput*%
X98568600Y-82267600D03*
%TO.P,Q6,3*%
%TO.N,+VDC*%
X96028600Y-82267600D03*
%TD*%
D20*
%TO.P,Q7,1,S*%
%TO.N,GND*%
X90300800Y-103664300D03*
D21*
%TO.P,Q7,2,G*%
%TO.N,Net-(D6-A)*%
X91570800Y-103664300D03*
%TO.P,Q7,3,D*%
%TO.N,/InputIsolation/3in*%
X92840800Y-103664300D03*
%TD*%
D18*
%TO.P,Q9,1*%
%TO.N,Net-(Q9-Pad1)*%
X131085700Y-82267600D03*
D19*
%TO.P,Q9,2*%
%TO.N,/Zone3IO/ZoneOutput*%
X128545700Y-82267600D03*
%TO.P,Q9,3*%
%TO.N,+VDC*%
X126005700Y-82267600D03*
%TD*%
D18*
%TO.P,Q12,1*%
%TO.N,Net-(Q12-Pad1)*%
X162229200Y-82267600D03*
D19*
%TO.P,Q12,2*%
%TO.N,/Zone4IO/ZoneOutput*%
X159689200Y-82267600D03*
%TO.P,Q12,3*%
%TO.N,+VDC*%
X157149200Y-82267600D03*
%TD*%
D18*
%TO.P,Q13,1*%
%TO.N,Net-(Q13-Pad1)*%
X174341600Y-105164100D03*
D19*
%TO.P,Q13,2*%
%TO.N,Net-(P1-Pin_1)*%
X176881600Y-105164100D03*
%TO.P,Q13,3*%
%TO.N,Net-(Q13-Pad3)*%
X179421600Y-105164100D03*
%TD*%
D11*
%TO.P,Z2,1,Pin_1*%
%TO.N,/Zone2IO/ZoneInput*%
X106556000Y-71090000D03*
D17*
%TO.P,Z2,2,Pin_2*%
%TO.N,/Zone2IO/ZoneOutput*%
X101476000Y-71090000D03*
%TO.P,Z2,3,Pin_3*%
%TO.N,GND*%
X96396000Y-71090000D03*
%TD*%
D11*
%TO.P,Z3,1,Pin_1*%
%TO.N,/Zone3IO/ZoneInput*%
X137036000Y-71090000D03*
D17*
%TO.P,Z3,2,Pin_2*%
%TO.N,/Zone3IO/ZoneOutput*%
X131956000Y-71090000D03*
%TO.P,Z3,3,Pin_3*%
%TO.N,GND*%
X126876000Y-71090000D03*
%TD*%
D11*
%TO.P,Z4,1,Pin_1*%
%TO.N,/Zone4IO/ZoneInput*%
X167516000Y-71090000D03*
D17*
%TO.P,Z4,2,Pin_2*%
%TO.N,/Zone4IO/ZoneOutput*%
X162436000Y-71090000D03*
%TO.P,Z4,3,Pin_3*%
%TO.N,GND*%
X157356000Y-71090000D03*
%TD*%
D11*
%TO.P,Z1,1,Pin_1*%
%TO.N,/Zone1IO/ZoneInput*%
X76076000Y-71090000D03*
D17*
%TO.P,Z1,2,Pin_2*%
%TO.N,/Zone1IO/ZoneOutput*%
X70996000Y-71090000D03*
%TO.P,Z1,3,Pin_3*%
%TO.N,GND*%
X65916000Y-71090000D03*
%TD*%
D15*
%TO.P,J1,1,Pin_1*%
%TO.N,+VDC*%
X170349000Y-121042300D03*
D16*
%TO.P,J1,2,Pin_2*%
%TO.N,TX*%
X170349000Y-123582300D03*
%TO.P,J1,3,Pin_3*%
%TO.N,+VDC*%
X167809000Y-121042300D03*
%TO.P,J1,4,Pin_4*%
%TO.N,RX*%
X167809000Y-123582300D03*
%TO.P,J1,5,Pin_5*%
%TO.N,+VDC*%
X165269000Y-121042300D03*
%TO.P,J1,6,Pin_6*%
%TO.N,Z8*%
X165269000Y-123582300D03*
%TO.P,J1,7,Pin_7*%
%TO.N,+VDC*%
X162729000Y-121042300D03*
%TO.P,J1,8,Pin_8*%
%TO.N,Z7*%
X162729000Y-123582300D03*
%TO.P,J1,9,Pin_9*%
%TO.N,+VDC*%
X160189000Y-121042300D03*
%TO.P,J1,10,Pin_10*%
%TO.N,Z6*%
X160189000Y-123582300D03*
%TO.P,J1,11,Pin_11*%
%TO.N,+3V3*%
X157649000Y-121042300D03*
%TO.P,J1,12,Pin_12*%
%TO.N,Z5*%
X157649000Y-123582300D03*
%TO.P,J1,13,Pin_13*%
%TO.N,+3V3*%
X155109000Y-121042300D03*
%TO.P,J1,14,Pin_14*%
%TO.N,D26*%
X155109000Y-123582300D03*
%TO.P,J1,15,Pin_15*%
%TO.N,+3V3*%
X152569000Y-121042300D03*
%TO.P,J1,16,Pin_16*%
%TO.N,D23*%
X152569000Y-123582300D03*
%TO.P,J1,17,Pin_17*%
%TO.N,+3V3*%
X150029000Y-121042300D03*
%TO.P,J1,18,Pin_18*%
%TO.N,D19*%
X150029000Y-123582300D03*
%TO.P,J1,19,Pin_19*%
%TO.N,GND*%
X147489000Y-121042300D03*
%TO.P,J1,20,Pin_20*%
%TO.N,D18*%
X147489000Y-123582300D03*
%TO.P,J1,21,Pin_21*%
%TO.N,GND*%
X144949000Y-121042300D03*
%TO.P,J1,22,Pin_22*%
%TO.N,D17*%
X144949000Y-123582300D03*
%TO.P,J1,23,Pin_23*%
%TO.N,GND*%
X142409000Y-121042300D03*
%TO.P,J1,24,Pin_24*%
%TO.N,D16*%
X142409000Y-123582300D03*
%TO.P,J1,25,Pin_25*%
%TO.N,GND*%
X139869000Y-121042300D03*
%TO.P,J1,26,Pin_26*%
%TO.N,D22*%
X139869000Y-123582300D03*
%TO.P,J1,27,Pin_27*%
%TO.N,GND*%
X137329000Y-121042300D03*
%TO.P,J1,28,Pin_28*%
%TO.N,D21*%
X137329000Y-123582300D03*
%TD*%
D22*
%TO.P,Z5,1*%
%TO.N,+VDC*%
X64792500Y-87395400D03*
D23*
%TO.P,Z5,2*%
%TO.N,Net-(Q3-Pad1)*%
X75492500Y-87395400D03*
%TD*%
D22*
%TO.P,Z6,1*%
%TO.N,+VDC*%
X95418500Y-87436000D03*
D23*
%TO.P,Z6,2*%
%TO.N,Net-(Q6-Pad1)*%
X106118500Y-87436000D03*
%TD*%
D22*
%TO.P,Z8,1*%
%TO.N,+VDC*%
X156564300Y-87104200D03*
D23*
%TO.P,Z8,2*%
%TO.N,Net-(Q12-Pad1)*%
X167264300Y-87104200D03*
%TD*%
D20*
%TO.P,Q4,1,S*%
%TO.N,GND*%
X84702900Y-103677400D03*
D21*
%TO.P,Q4,2,G*%
%TO.N,Net-(D4-A)*%
X85972900Y-103677400D03*
%TO.P,Q4,3,D*%
%TO.N,/InputIsolation/2in*%
X87242900Y-103677400D03*
%TD*%
D10*
%TO.P,R23,1*%
%TO.N,+VDC*%
X75572300Y-105627200D03*
D24*
%TO.P,R23,2*%
%TO.N,Net-(IC1-+IN_A)*%
X73032300Y-105627200D03*
%TD*%
D10*
%TO.P,R31,1*%
%TO.N,+3V3*%
X83822200Y-112140600D03*
D24*
%TO.P,R31,2*%
%TO.N,D35*%
X83822200Y-114680600D03*
%TD*%
D10*
%TO.P,R16,1*%
%TO.N,Net-(Q9-Pad1)*%
X131777400Y-90385900D03*
D24*
%TO.P,R16,2*%
%TO.N,Net-(Q8-D)*%
X134317400Y-90385900D03*
%TD*%
D25*
%TO.P,Q2,1,S*%
%TO.N,GND*%
X77074800Y-81816600D03*
D26*
%TO.P,Q2,2,G*%
%TO.N,Z1*%
X77074800Y-83086600D03*
%TO.P,Q2,3,D*%
%TO.N,Net-(Q2-D)*%
X77074800Y-84356600D03*
%TD*%
D10*
%TO.P,R24,1*%
%TO.N,Net-(IC1-+IN_A)*%
X73376700Y-108765100D03*
D24*
%TO.P,R24,2*%
%TO.N,GND*%
X75916700Y-108765100D03*
%TD*%
D10*
%TO.P,R5,1*%
%TO.N,Net-(D2-A)*%
X80372200Y-108702600D03*
D24*
%TO.P,R5,2*%
%TO.N,GND*%
X82912200Y-108702600D03*
%TD*%
D27*
%TO.P,RV1,1,1*%
%TO.N,AuxVoltage*%
X150281700Y-100622000D03*
%TO.P,RV1,2,2*%
%TO.N,Net-(IC1-+INB)*%
X152821700Y-100622000D03*
%TO.P,RV1,3,3*%
%TO.N,GND*%
X155361700Y-100622000D03*
%TD*%
D15*
%TO.P,J4,1,Pin_1*%
%TO.N,AuxVoltage*%
X155598900Y-95333800D03*
%TD*%
D10*
%TO.P,R15,1*%
%TO.N,+VDC*%
X126614500Y-90392400D03*
D24*
%TO.P,R15,2*%
%TO.N,Net-(Q9-Pad1)*%
X129154500Y-90392400D03*
%TD*%
D10*
%TO.P,R17,1*%
%TO.N,Net-(D8-A)*%
X96767000Y-108701700D03*
D24*
%TO.P,R17,2*%
%TO.N,GND*%
X99307000Y-108701700D03*
%TD*%
D15*
%TO.P,J5,1,Pin_1*%
%TO.N,+VDC*%
X59207700Y-91310200D03*
D16*
%TO.P,J5,2,Pin_2*%
%TO.N,+3V3*%
X59207700Y-88770200D03*
%TO.P,J5,3,Pin_3*%
%TO.N,GND*%
X59207700Y-86230200D03*
%TD*%
D10*
%TO.P,R4,1*%
%TO.N,Net-(D1-K)*%
X98113700Y-112207200D03*
D24*
%TO.P,R4,2*%
%TO.N,GND*%
X98113700Y-114747200D03*
%TD*%
D10*
%TO.P,R18,1*%
%TO.N,Z4*%
X179350700Y-81833100D03*
D24*
%TO.P,R18,2*%
%TO.N,GND*%
X181890700Y-81833100D03*
%TD*%
D10*
%TO.P,R29,1*%
%TO.N,+3V3*%
X142295000Y-113577700D03*
D24*
%TO.P,R29,2*%
%TO.N,Net-(IC2-A_1)*%
X139755000Y-113577700D03*
%TD*%
D10*
%TO.P,R25,1*%
%TO.N,D33*%
X75859900Y-114068500D03*
D24*
%TO.P,R25,2*%
%TO.N,GND*%
X75859900Y-111528500D03*
%TD*%
D10*
%TO.P,R33,1*%
%TO.N,+3V3*%
X93402900Y-112140600D03*
D24*
%TO.P,R33,2*%
%TO.N,D39*%
X93402900Y-114680600D03*
%TD*%
D10*
%TO.P,R2,1*%
%TO.N,/Zone2IO/ZoneInput*%
X113321700Y-93731200D03*
D24*
%TO.P,R2,2*%
%TO.N,Net-(D4-A)*%
X115861700Y-93731200D03*
%TD*%
D10*
%TO.P,R14,1*%
%TO.N,Z3*%
X136973400Y-90405200D03*
D24*
%TO.P,R14,2*%
%TO.N,GND*%
X139513400Y-90405200D03*
%TD*%
D25*
%TO.P,Q11,1,S*%
%TO.N,GND*%
X167687500Y-81543000D03*
D26*
%TO.P,Q11,2,G*%
%TO.N,Z4*%
X167687500Y-82813000D03*
%TO.P,Q11,3,D*%
%TO.N,Net-(Q11-D)*%
X167687500Y-84083000D03*
%TD*%
D10*
%TO.P,R27,1*%
%TO.N,+3V3*%
X142295000Y-103999000D03*
D24*
%TO.P,R27,2*%
%TO.N,Net-(IC2-A_3)*%
X139755000Y-103999000D03*
%TD*%
D28*
%TO.P,U1,1,SCL*%
%TO.N,D22*%
X116307900Y-96853800D03*
D24*
%TO.P,U1,2,SDA*%
%TO.N,D21*%
X116307900Y-99393800D03*
%TO.P,U1,3,A2*%
%TO.N,GND*%
X116307900Y-101933800D03*
%TO.P,U1,4,A1*%
X116307900Y-104473800D03*
%TO.P,U1,5,A0*%
X116307900Y-107013800D03*
%TO.P,U1,6,~{RESET}*%
%TO.N,Net-(U1-~{RESET})*%
X116307900Y-109553800D03*
%TO.P,U1,7,NC*%
%TO.N,unconnected-(U1-NC-Pad7)*%
X116307900Y-112093800D03*
%TO.P,U1,8,INT*%
%TO.N,unconnected-(U1-INT-Pad8)*%
X116307900Y-114633800D03*
%TO.P,U1,9,VSS*%
%TO.N,GND*%
X116307900Y-117173800D03*
%TO.P,U1,10,GP0*%
%TO.N,Z1*%
X123927900Y-117173800D03*
%TO.P,U1,11,GP1*%
%TO.N,Z2*%
X123927900Y-114633800D03*
%TO.P,U1,12,GP2*%
%TO.N,Z3*%
X123927900Y-112093800D03*
%TO.P,U1,13,GP3*%
%TO.N,Z4*%
X123927900Y-109553800D03*
%TO.P,U1,14,GP4*%
%TO.N,Z5*%
X123927900Y-107013800D03*
%TO.P,U1,15,GP5*%
%TO.N,Z6*%
X123927900Y-104473800D03*
%TO.P,U1,16,GP6*%
%TO.N,Z7*%
X123927900Y-101933800D03*
%TO.P,U1,17,GP7*%
%TO.N,Z8*%
X123927900Y-99393800D03*
%TO.P,U1,18,VDD*%
%TO.N,+3V3*%
X123927900Y-96853800D03*
%TD*%
D29*
%TO.P,D4,1,K*%
%TO.N,/Zone2IO/ZoneInput*%
X113156300Y-90507700D03*
D30*
%TO.P,D4,2,A*%
%TO.N,Net-(D4-A)*%
X123316300Y-90507700D03*
%TD*%
D29*
%TO.P,D2,1,K*%
%TO.N,/Zone1IO/ZoneInput*%
X83739400Y-90439100D03*
D30*
%TO.P,D2,2,A*%
%TO.N,Net-(D2-A)*%
X93899400Y-90439100D03*
%TD*%
D31*
%TO.P,S1,1,NO_1*%
%TO.N,unconnected-(S1-NO_1-Pad1)*%
X115616200Y-120523800D03*
D32*
%TO.P,S1,2,NO_2*%
%TO.N,+3V3*%
X122116200Y-120523800D03*
%TO.P,S1,3,COM_1*%
%TO.N,unconnected-(S1-COM_1-Pad3)*%
X115616200Y-125023800D03*
%TO.P,S1,4,COM_2*%
%TO.N,D25*%
X122116200Y-125023800D03*
%TD*%
D10*
%TO.P,R9,1*%
%TO.N,Net-(D4-A)*%
X85984200Y-108777600D03*
D24*
%TO.P,R9,2*%
%TO.N,GND*%
X88524200Y-108777600D03*
%TD*%
D10*
%TO.P,R13,1*%
%TO.N,Net-(D6-A)*%
X91573600Y-108698400D03*
D24*
%TO.P,R13,2*%
%TO.N,GND*%
X94113600Y-108698400D03*
%TD*%
D10*
%TO.P,R6,1*%
%TO.N,Z1*%
X77976900Y-90313600D03*
D24*
%TO.P,R6,2*%
%TO.N,GND*%
X80516900Y-90313600D03*
%TD*%
D10*
%TO.P,R11,1*%
%TO.N,+VDC*%
X97428100Y-90313600D03*
D24*
%TO.P,R11,2*%
%TO.N,Net-(Q6-Pad1)*%
X99968100Y-90313600D03*
%TD*%
D10*
%TO.P,R7,1*%
%TO.N,+VDC*%
X67592100Y-90313600D03*
D24*
%TO.P,R7,2*%
%TO.N,Net-(Q3-Pad1)*%
X70132100Y-90313600D03*
%TD*%
D10*
%TO.P,R37,1*%
%TO.N,+3V3*%
X110974300Y-107478900D03*
D24*
%TO.P,R37,2*%
%TO.N,D21*%
X113514300Y-107478900D03*
%TD*%
D33*
%TO.P,U2,1,1*%
%TO.N,+VDC*%
X164978400Y-112300500D03*
%TO.P,U2,2,2*%
X168478400Y-112300500D03*
%TO.P,U2,3,3*%
%TO.N,Net-(Q13-Pad3)*%
X174278400Y-112300500D03*
%TO.P,U2,4,4*%
X177778400Y-112300500D03*
%TO.P,U2,5,5*%
X177778400Y-109800500D03*
%TO.P,U2,6,6*%
X174278400Y-109800500D03*
%TO.P,U2,7,7*%
%TO.N,+VDC*%
X168478400Y-109800500D03*
%TO.P,U2,8,8*%
X164978400Y-109800500D03*
%TD*%
D20*
%TO.P,Q10,1,S*%
%TO.N,GND*%
X95932600Y-103664300D03*
D21*
%TO.P,Q10,2,G*%
%TO.N,Net-(D8-A)*%
X97202600Y-103664300D03*
%TO.P,Q10,3,D*%
%TO.N,/InputIsolation/4in*%
X98472600Y-103664300D03*
%TD*%
D29*
%TO.P,D8,1,K*%
%TO.N,/Zone4IO/ZoneInput*%
X185558100Y-76184700D03*
D30*
%TO.P,D8,2,A*%
%TO.N,Net-(D8-A)*%
X185558100Y-86344700D03*
%TD*%
D20*
%TO.P,Q1,1,S*%
%TO.N,GND*%
X79106900Y-103682000D03*
D21*
%TO.P,Q1,2,G*%
%TO.N,Net-(D2-A)*%
X80376900Y-103682000D03*
%TO.P,Q1,3,D*%
%TO.N,/InputIsolation/1in*%
X81646900Y-103682000D03*
%TD*%
D10*
%TO.P,R26,1*%
%TO.N,+3V3*%
X142295000Y-99209700D03*
D24*
%TO.P,R26,2*%
%TO.N,Net-(IC2-A_4)*%
X139755000Y-99209700D03*
%TD*%
D10*
%TO.P,R36,1*%
%TO.N,+3V3*%
X110974300Y-112149500D03*
D24*
%TO.P,R36,2*%
%TO.N,Net-(U1-~{RESET})*%
X113514300Y-112149500D03*
%TD*%
D10*
%TO.P,R1,1*%
%TO.N,/Zone1IO/ZoneInput*%
X83868300Y-93912900D03*
D24*
%TO.P,R1,2*%
%TO.N,Net-(D2-A)*%
X86408300Y-93912900D03*
%TD*%
D10*
%TO.P,R8,1*%
%TO.N,Net-(Q3-Pad1)*%
X72798600Y-90313600D03*
D24*
%TO.P,R8,2*%
%TO.N,Net-(Q2-D)*%
X75338600Y-90313600D03*
%TD*%
D25*
%TO.P,Q8,1,S*%
%TO.N,GND*%
X137542600Y-81822900D03*
D26*
%TO.P,Q8,2,G*%
%TO.N,Z3*%
X137542600Y-83092900D03*
%TO.P,Q8,3,D*%
%TO.N,Net-(Q8-D)*%
X137542600Y-84362900D03*
%TD*%
D25*
%TO.P,Q5,1,S*%
%TO.N,GND*%
X106673400Y-81749200D03*
D26*
%TO.P,Q5,2,G*%
%TO.N,Z2*%
X106673400Y-83019200D03*
%TO.P,Q5,3,D*%
%TO.N,Net-(Q5-D)*%
X106673400Y-84289200D03*
%TD*%
D10*
%TO.P,C5,1*%
%TO.N,/Zone4IO/ZoneInput*%
X151310400Y-84874400D03*
%TO.P,C5,2*%
%TO.N,GND*%
X151310400Y-79874400D03*
%TD*%
%TO.P,R21,1*%
%TO.N,Net-(Q13-Pad1)*%
X167425100Y-105167700D03*
D24*
%TO.P,R21,2*%
%TO.N,GND*%
X169965100Y-105167700D03*
%TD*%
D10*
%TO.P,R3,1*%
%TO.N,D25*%
X102762800Y-112161900D03*
D24*
%TO.P,R3,2*%
%TO.N,GND*%
X102762800Y-114701900D03*
%TD*%
D10*
%TO.P,R30,1*%
%TO.N,+3V3*%
X79031800Y-112140600D03*
D24*
%TO.P,R30,2*%
%TO.N,D34*%
X79031800Y-114680600D03*
%TD*%
D10*
%TO.P,R12,1*%
%TO.N,Net-(Q6-Pad1)*%
X102602700Y-90291400D03*
D24*
%TO.P,R12,2*%
%TO.N,Net-(Q5-D)*%
X105142700Y-90291400D03*
%TD*%
D10*
%TO.P,R22,1*%
%TO.N,/Zone3IO/ZoneInput*%
X142150900Y-93635300D03*
D24*
%TO.P,R22,2*%
%TO.N,Net-(D6-A)*%
X144690900Y-93635300D03*
%TD*%
D10*
%TO.P,R28,1*%
%TO.N,+3V3*%
X142295000Y-108788400D03*
D24*
%TO.P,R28,2*%
%TO.N,Net-(IC2-A_2)*%
X139755000Y-108788400D03*
%TD*%
D10*
%TO.P,R20,1*%
%TO.N,Net-(Q12-Pad1)*%
X160459300Y-89971000D03*
D24*
%TO.P,R20,2*%
%TO.N,Net-(Q11-D)*%
X162999300Y-89971000D03*
%TD*%
D10*
%TO.P,R19,1*%
%TO.N,+VDC*%
X155096800Y-90020800D03*
D24*
%TO.P,R19,2*%
%TO.N,Net-(Q12-Pad1)*%
X157636800Y-90020800D03*
%TD*%
D10*
%TO.P,R35,1*%
%TO.N,/Zone4IO/ZoneInput*%
X190329000Y-80096300D03*
D24*
%TO.P,R35,2*%
%TO.N,Net-(D8-A)*%
X190329000Y-82636300D03*
%TD*%
D10*
%TO.P,R10,1*%
%TO.N,Z2*%
X107804100Y-90285900D03*
D24*
%TO.P,R10,2*%
%TO.N,GND*%
X110344100Y-90285900D03*
%TD*%
D29*
%TO.P,D6,1,K*%
%TO.N,/Zone3IO/ZoneInput*%
X142032800Y-90398200D03*
D30*
%TO.P,D6,2,A*%
%TO.N,Net-(D6-A)*%
X152192800Y-90398200D03*
%TD*%
D10*
%TO.P,R32,1*%
%TO.N,+3V3*%
X88612600Y-112140600D03*
D24*
%TO.P,R32,2*%
%TO.N,D36*%
X88612600Y-114680600D03*
%TD*%
D22*
%TO.P,Z7,1*%
%TO.N,+VDC*%
X124968600Y-87436000D03*
D23*
%TO.P,Z7,2*%
%TO.N,Net-(Q9-Pad1)*%
X135668600Y-87436000D03*
%TD*%
D10*
%TO.P,R38,1*%
%TO.N,+3V3*%
X110974300Y-102808300D03*
D24*
%TO.P,R38,2*%
%TO.N,D22*%
X113514300Y-102808300D03*
%TD*%
D10*
%TO.P,R34,1*%
%TO.N,D32*%
X57889400Y-114568900D03*
D24*
%TO.P,R34,2*%
%TO.N,GND*%
X60429400Y-114568900D03*
%TD*%
D34*
%TO.N,GND*%
X80837100Y-100469000D03*
X175398000Y-94105800D03*
X129390000Y-109740000D03*
X110681000Y-85364200D03*
%TO.N,/InputIsolation/1in*%
X137818300Y-111079100D03*
%TO.N,/InputIsolation/2in*%
X133840000Y-105610900D03*
%TO.N,/InputIsolation/3in*%
X133664700Y-103059000D03*
%TO.N,D39*%
X133143700Y-99829700D03*
%TO.N,D23*%
X89762800Y-117396000D03*
%TO.N,D19*%
X119870000Y-125819000D03*
X80741100Y-101478000D03*
%TO.N,Net-(IC1-+INB)*%
X147554000Y-92434500D03*
X62580600Y-106960000D03*
%TO.N,D18*%
X84955500Y-100441000D03*
%TO.N,D32*%
X62842900Y-111931000D03*
%TO.N,TX*%
X146448000Y-94037500D03*
%TO.N,RX*%
X138918000Y-93019500D03*
%TO.N,D34*%
X125351000Y-113490000D03*
%TO.N,D17*%
X87086200Y-100467000D03*
%TO.N,D16*%
X101409000Y-106528000D03*
X127416000Y-125023000D03*
X123531000Y-122380000D03*
X113240000Y-119240000D03*
%TO.N,Net-(D1-K)*%
X116821000Y-124038000D03*
%TO.N,D33*%
X84764700Y-121920000D03*
%TO.N,D25*%
X118581700Y-125023800D03*
%TO.N,/InputIsolation/4in*%
X133931800Y-96478900D03*
X131239200Y-98903400D03*
%TD*%
D35*
%TO.N,GND*%
X137543000Y-79844900D02*
X137543000Y-79845100D01*
X78510600Y-107008000D02*
X79106900Y-106412000D01*
D36*
X83178200Y-107008000D02*
X84263100Y-107008000D01*
D35*
X89862400Y-107008000D02*
X90300800Y-106570000D01*
X106673400Y-81178100D02*
X106673400Y-81749200D01*
X137543000Y-80834400D02*
X137543000Y-81328600D01*
X155362000Y-102261000D02*
X155361700Y-102260700D01*
X95374000Y-107008000D02*
X95932600Y-106449000D01*
D36*
X55207500Y-93657300D02*
X59340200Y-97790000D01*
D35*
X155362000Y-103642000D02*
X155362000Y-102261000D01*
D36*
X59340200Y-97790000D02*
X60627900Y-97790000D01*
D35*
X79106900Y-106412000D02*
X79106900Y-103682000D01*
X94113600Y-107065000D02*
X94113600Y-108698000D01*
X68280600Y-104720000D02*
X70520600Y-106960000D01*
D36*
X94170300Y-107008000D02*
X95374000Y-107008000D01*
X95374000Y-107008000D02*
X97613500Y-107008000D01*
X84263100Y-107008000D02*
X88778900Y-107008000D01*
X55230700Y-93634100D02*
X55207500Y-93657300D01*
X60627900Y-97790000D02*
X66040000Y-97790000D01*
D35*
X167688000Y-81059400D02*
X167688000Y-81059600D01*
X106673000Y-80224600D02*
X106673000Y-80987200D01*
D36*
X57776700Y-87661200D02*
X57764200Y-87661200D01*
D35*
X176500000Y-92375400D02*
X175398000Y-93477900D01*
X98487100Y-107930000D02*
X98181900Y-108236000D01*
D37*
X175242000Y-91377800D02*
X165060000Y-101560000D01*
D36*
X78510600Y-107008000D02*
X83178200Y-107008000D01*
D38*
X164699000Y-101921000D02*
X165060000Y-101560000D01*
D35*
X76637200Y-107640000D02*
X77269200Y-107008000D01*
X106673000Y-80987200D02*
X106673000Y-81368200D01*
D36*
X98778100Y-114083000D02*
X98445900Y-114415000D01*
D35*
X75916700Y-107640000D02*
X76637200Y-107640000D01*
D36*
X89862400Y-107008000D02*
X94170300Y-107008000D01*
D37*
X178125700Y-91377800D02*
X175242000Y-91377800D01*
D36*
X68280300Y-104720000D02*
X70520600Y-106960000D01*
D35*
X98181900Y-108236000D02*
X98181900Y-108702000D01*
X88524200Y-107263000D02*
X88524200Y-108777600D01*
D37*
X165060000Y-101560000D02*
X164699000Y-101921000D01*
D35*
X94170300Y-107008000D02*
X94113600Y-107065000D01*
D36*
X100107000Y-109502000D02*
X100107000Y-112754000D01*
D37*
X159170000Y-107450000D02*
X147489000Y-119131000D01*
D36*
X70520600Y-106960000D02*
X70569300Y-107008000D01*
X97613500Y-107008000D02*
X98487100Y-107882000D01*
X65916000Y-71090000D02*
X59207700Y-77798300D01*
X77269200Y-107008000D02*
X78510600Y-107008000D01*
D35*
X98487100Y-107882000D02*
X98487100Y-107930000D01*
D36*
X88778900Y-107008000D02*
X89862400Y-107008000D01*
D35*
X106673000Y-80224500D02*
X106673000Y-80224600D01*
D36*
X98445900Y-114415000D02*
X98113700Y-114747000D01*
D35*
X111628000Y-80785100D02*
X110681000Y-81732200D01*
X60627900Y-97790000D02*
X60429400Y-97988500D01*
X167688000Y-81059600D02*
X167688000Y-81301300D01*
X84702900Y-106568000D02*
X84702900Y-103677400D01*
D36*
X98487100Y-107882000D02*
X99307000Y-108702000D01*
D35*
X110681000Y-81732200D02*
X110681000Y-85364200D01*
X98181900Y-108702000D02*
X99307000Y-108702000D01*
X137542600Y-81081900D02*
X137542600Y-81822900D01*
X88778900Y-107008000D02*
X88524200Y-107263000D01*
X159170000Y-107450000D02*
X155362000Y-103642000D01*
D36*
X59207700Y-86230200D02*
X57776700Y-87661200D01*
D37*
X147489000Y-119131000D02*
X147489000Y-121042000D01*
D35*
X95932600Y-106449000D02*
X95932600Y-103664300D01*
X155361700Y-102260700D02*
X155361700Y-100622000D01*
D36*
X66040000Y-102479000D02*
X68280300Y-104720000D01*
D35*
X82912200Y-107274000D02*
X82912200Y-108702600D01*
X60429400Y-97988500D02*
X60429400Y-114568900D01*
X84263100Y-107008000D02*
X84702900Y-106568000D01*
X90300800Y-106570000D02*
X90300800Y-103664300D01*
D36*
X59207700Y-77798300D02*
X59207700Y-86230200D01*
D35*
X77074800Y-80868000D02*
X77074800Y-81816600D01*
X137543000Y-79845100D02*
X137543000Y-80834400D01*
D36*
X55230700Y-90194700D02*
X55230700Y-93634100D01*
D37*
X164699000Y-101921000D02*
X159170000Y-107450000D01*
D36*
X57764200Y-87661200D02*
X55230700Y-90194700D01*
X70569300Y-107008000D02*
X77269200Y-107008000D01*
X100107000Y-112754000D02*
X98778100Y-114083000D01*
D35*
X175398000Y-93477900D02*
X175398000Y-94105800D01*
D36*
X99060000Y-120650000D02*
X99060000Y-123190000D01*
D35*
X68280300Y-104720000D02*
X68280600Y-104720000D01*
X155362000Y-102261000D02*
X155362000Y-100880000D01*
X75916700Y-108765000D02*
X75916700Y-107640000D01*
X83178200Y-107008000D02*
X82912200Y-107274000D01*
D36*
X99307000Y-108702000D02*
X100107000Y-109502000D01*
X66040000Y-97790000D02*
X66040000Y-102479000D01*
%TO.N,+VDC*%
X60877700Y-91310200D02*
X64792500Y-87395400D01*
X59207700Y-91310200D02*
X60877700Y-91310200D01*
%TO.N,+3V3*%
X66040000Y-120650000D02*
X66040000Y-123190000D01*
X79031800Y-112141000D02*
X77240900Y-113932000D01*
X67489900Y-117431000D02*
X66040000Y-118881000D01*
X75884600Y-117431000D02*
X67489900Y-117431000D01*
X77240900Y-113932000D02*
X77240900Y-116075000D01*
X77240900Y-116075000D02*
X75884600Y-117431000D01*
X66040000Y-118881000D02*
X66040000Y-120650000D01*
D39*
%TO.N,D21*%
X78740000Y-97790000D02*
X80343800Y-99393800D01*
X116308000Y-99393800D02*
X117752000Y-100838000D01*
X124023000Y-119311000D02*
X133058000Y-119311000D01*
X117752000Y-113041000D02*
X124023000Y-119311000D01*
X108043000Y-99393800D02*
X108043000Y-102008000D01*
X117752000Y-100838000D02*
X117752000Y-113041000D01*
X80343800Y-99393800D02*
X108043000Y-99393800D01*
X108043000Y-99393800D02*
X116307900Y-99393800D01*
X108043000Y-102008000D02*
X113514000Y-107479000D01*
X133058000Y-119311000D02*
X137329000Y-123582000D01*
D36*
%TO.N,D12*%
X96520000Y-123190000D02*
X96520000Y-120650000D01*
%TO.N,D14*%
X93980000Y-123190000D02*
X93980000Y-120650000D01*
%TO.N,D27*%
X91440000Y-120650000D02*
X91440000Y-123190000D01*
%TO.N,D26*%
X88900000Y-120650000D02*
X88900000Y-123190000D01*
%TO.N,D35*%
X78740000Y-120650000D02*
X78740000Y-123190000D01*
%TO.N,D32*%
X81280000Y-120650000D02*
X81280000Y-123190000D01*
%TO.N,EN*%
X68580000Y-120650000D02*
X68580000Y-123190000D01*
%TO.N,Net-(J2-Pin_37)*%
X111760000Y-123190000D02*
X111760000Y-120650000D01*
D35*
%TO.N,AuxVoltage*%
X151571900Y-99332200D02*
X151571500Y-99332200D01*
X151571500Y-99332200D02*
X150281700Y-100622000D01*
X155570000Y-95333800D02*
X151571900Y-99332200D01*
%TO.N,D33*%
X83820000Y-121920000D02*
X84764700Y-121920000D01*
D36*
X83820000Y-120650000D02*
X83820000Y-123190000D01*
%TO.N,D25*%
X86360000Y-120650000D02*
X86360000Y-123190000D01*
%TD*%
%TA.AperFunction,Conductor*%
%TO.N,GND*%
G36*
X151082923Y-67919278D02*
G01*
X151129813Y-67931843D01*
X151357900Y-67951798D01*
X151585987Y-67931843D01*
X151632876Y-67919278D01*
X151665487Y-67914986D01*
X177549999Y-67914986D01*
X177612999Y-67931867D01*
X177659118Y-67977986D01*
X177675999Y-68040986D01*
X177675999Y-75534985D01*
X177675999Y-75534986D01*
X183545111Y-75510614D01*
X183608379Y-75527347D01*
X183654720Y-75573556D01*
X183671634Y-75636777D01*
X183648250Y-93655835D01*
X183631352Y-93718701D01*
X183585331Y-93764743D01*
X183522473Y-93781671D01*
X176510055Y-93794070D01*
X176446896Y-93777226D01*
X176400675Y-93731004D01*
X176383832Y-93667847D01*
X176404958Y-81833100D01*
X178037202Y-81833100D01*
X178057157Y-82061187D01*
X178116415Y-82282343D01*
X178213177Y-82489850D01*
X178344504Y-82677403D01*
X178506396Y-82839295D01*
X178693949Y-82970622D01*
X178901456Y-83067384D01*
X178960715Y-83083262D01*
X179122613Y-83126643D01*
X179350700Y-83146598D01*
X179578787Y-83126643D01*
X179799943Y-83067384D01*
X180007449Y-82970623D01*
X180195000Y-82839298D01*
X180356898Y-82677400D01*
X180488223Y-82489849D01*
X180584984Y-82282343D01*
X180644243Y-82061187D01*
X180664198Y-81833100D01*
X180644243Y-81605013D01*
X180584984Y-81383857D01*
X180575042Y-81362537D01*
X180490502Y-81181239D01*
X180488223Y-81176351D01*
X180486270Y-81173562D01*
X180356895Y-80988796D01*
X180195003Y-80826904D01*
X180007450Y-80695577D01*
X179799943Y-80598815D01*
X179578787Y-80539557D01*
X179350700Y-80519602D01*
X179122612Y-80539557D01*
X178901456Y-80598815D01*
X178693949Y-80695577D01*
X178506396Y-80826904D01*
X178344504Y-80988796D01*
X178213177Y-81176349D01*
X178116415Y-81383856D01*
X178057157Y-81605012D01*
X178037202Y-81833100D01*
X176404958Y-81833100D01*
X176405999Y-81249986D01*
X176400286Y-81249981D01*
X163793783Y-81239200D01*
X163744225Y-81228999D01*
X163702676Y-81200124D01*
X163675836Y-81157233D01*
X163640090Y-81061396D01*
X163552461Y-80944338D01*
X163435405Y-80856711D01*
X163355484Y-80826902D01*
X163298401Y-80805611D01*
X163237838Y-80799100D01*
X161220562Y-80799100D01*
X161159999Y-80805611D01*
X161022994Y-80856711D01*
X160905938Y-80944338D01*
X160818309Y-81061397D01*
X160813504Y-81074279D01*
X160780872Y-81122866D01*
X160729809Y-81151468D01*
X160671332Y-81153913D01*
X160618059Y-81129675D01*
X160495144Y-81034006D01*
X160281110Y-80918177D01*
X160102064Y-80856711D01*
X160050931Y-80839157D01*
X159810883Y-80799100D01*
X159567517Y-80799100D01*
X159327469Y-80839157D01*
X159327466Y-80839157D01*
X159327466Y-80839158D01*
X159097289Y-80918177D01*
X158883250Y-81034009D01*
X158691204Y-81183486D01*
X158681441Y-81194091D01*
X158639305Y-81224160D01*
X158588635Y-81234750D01*
X158249282Y-81234460D01*
X158198727Y-81223826D01*
X158156689Y-81193798D01*
X158147197Y-81183487D01*
X157955144Y-81034006D01*
X157741110Y-80918177D01*
X157562064Y-80856711D01*
X157510931Y-80839157D01*
X157270883Y-80799100D01*
X157027517Y-80799100D01*
X156787469Y-80839157D01*
X156787466Y-80839157D01*
X156787466Y-80839158D01*
X156557289Y-80918177D01*
X156343255Y-81034006D01*
X156151202Y-81183487D01*
X156143435Y-81191924D01*
X156101300Y-81221991D01*
X156050631Y-81232580D01*
X132640347Y-81212563D01*
X132590789Y-81202361D01*
X132549240Y-81173487D01*
X132522399Y-81130595D01*
X132512836Y-81104955D01*
X132496589Y-81061396D01*
X132496588Y-81061394D01*
X132408961Y-80944338D01*
X132291905Y-80856711D01*
X132211984Y-80826902D01*
X132154901Y-80805611D01*
X132094338Y-80799100D01*
X130077062Y-80799100D01*
X130016499Y-80805611D01*
X129879494Y-80856711D01*
X129762438Y-80944338D01*
X129674809Y-81061397D01*
X129670004Y-81074279D01*
X129637372Y-81122866D01*
X129586309Y-81151468D01*
X129527832Y-81153913D01*
X129474559Y-81129675D01*
X129351644Y-81034006D01*
X129137610Y-80918177D01*
X128958564Y-80856711D01*
X128907431Y-80839157D01*
X128667383Y-80799100D01*
X128424017Y-80799100D01*
X128183969Y-80839157D01*
X128183966Y-80839157D01*
X128183966Y-80839158D01*
X127953789Y-80918177D01*
X127739755Y-81034006D01*
X127550157Y-81181577D01*
X127513627Y-81201335D01*
X127472658Y-81208145D01*
X127078091Y-81207807D01*
X127037236Y-81200962D01*
X127000810Y-81181240D01*
X126863386Y-81074279D01*
X126811644Y-81034006D01*
X126597610Y-80918177D01*
X126418564Y-80856711D01*
X126367431Y-80839157D01*
X126127383Y-80799100D01*
X125884017Y-80799100D01*
X125643969Y-80839157D01*
X125643966Y-80839157D01*
X125643966Y-80839158D01*
X125413789Y-80918177D01*
X125199751Y-81034008D01*
X125012943Y-81179406D01*
X124976414Y-81199165D01*
X124935445Y-81205974D01*
X102653684Y-81186923D01*
X102604126Y-81176722D01*
X102562577Y-81147847D01*
X102535736Y-81104955D01*
X102519488Y-81061394D01*
X102431861Y-80944338D01*
X102314805Y-80856711D01*
X102234884Y-80826902D01*
X102177801Y-80805611D01*
X102117238Y-80799100D01*
X100099962Y-80799100D01*
X100039399Y-80805611D01*
X99902394Y-80856711D01*
X99785338Y-80944338D01*
X99697711Y-81061394D01*
X99692906Y-81074279D01*
X99660274Y-81122866D01*
X99609211Y-81151469D01*
X99550733Y-81153914D01*
X99497460Y-81129676D01*
X99473732Y-81111208D01*
X99426286Y-81074279D01*
X99374544Y-81034006D01*
X99160510Y-80918177D01*
X98981464Y-80856711D01*
X98930331Y-80839157D01*
X98690283Y-80799100D01*
X98446917Y-80799100D01*
X98206869Y-80839157D01*
X98206866Y-80839157D01*
X98206866Y-80839158D01*
X97976689Y-80918177D01*
X97762652Y-81034008D01*
X97605952Y-81155972D01*
X97569423Y-81175731D01*
X97528454Y-81182540D01*
X97068023Y-81182146D01*
X97027168Y-81175301D01*
X96990740Y-81155578D01*
X96834545Y-81034006D01*
X96620510Y-80918177D01*
X96441464Y-80856711D01*
X96390331Y-80839157D01*
X96150283Y-80799100D01*
X95906917Y-80799100D01*
X95666869Y-80839157D01*
X95666866Y-80839157D01*
X95666866Y-80839158D01*
X95436689Y-80918177D01*
X95222651Y-81034008D01*
X95068738Y-81153803D01*
X95032209Y-81173562D01*
X94991240Y-81180371D01*
X73154796Y-81161699D01*
X73098456Y-81148347D01*
X73054036Y-81111208D01*
X73012961Y-81056338D01*
X72895905Y-80968711D01*
X72827402Y-80943160D01*
X72758901Y-80917611D01*
X72698338Y-80911100D01*
X70681062Y-80911100D01*
X70620499Y-80917611D01*
X70483494Y-80968711D01*
X70366438Y-81056339D01*
X70327236Y-81108706D01*
X70282720Y-81145893D01*
X70226261Y-81159196D01*
X70011475Y-81159012D01*
X69951614Y-81143826D01*
X69741610Y-81030177D01*
X69562564Y-80968711D01*
X69511431Y-80951157D01*
X69271383Y-80911100D01*
X69028017Y-80911100D01*
X68787969Y-80951157D01*
X68787966Y-80951157D01*
X68787966Y-80951158D01*
X68557789Y-81030177D01*
X68350504Y-81142355D01*
X68290427Y-81157541D01*
X67467456Y-81156837D01*
X67407595Y-81141651D01*
X67201610Y-81030177D01*
X67022564Y-80968711D01*
X66971431Y-80951157D01*
X66731383Y-80911100D01*
X66488017Y-80911100D01*
X66247969Y-80951157D01*
X66247966Y-80951157D01*
X66247966Y-80951158D01*
X66017789Y-81030177D01*
X65814512Y-81140186D01*
X65754435Y-81155372D01*
X62296245Y-81152416D01*
X62233469Y-81135602D01*
X62187422Y-81089742D01*
X62170355Y-81027034D01*
X62168253Y-80598815D01*
X62121582Y-71089999D01*
X69182429Y-71089999D01*
X69202685Y-71360300D01*
X69263001Y-71624560D01*
X69362029Y-71876880D01*
X69497557Y-72111621D01*
X69666554Y-72323538D01*
X69666557Y-72323540D01*
X69666558Y-72323542D01*
X69865257Y-72507907D01*
X70089215Y-72660599D01*
X70215819Y-72721568D01*
X70333427Y-72778206D01*
X70391192Y-72796023D01*
X70592442Y-72858101D01*
X70860472Y-72898500D01*
X71131526Y-72898500D01*
X71131528Y-72898500D01*
X71399558Y-72858101D01*
X71658572Y-72778206D01*
X71902786Y-72660599D01*
X72126743Y-72507907D01*
X72201398Y-72438638D01*
X74267500Y-72438638D01*
X74274011Y-72499201D01*
X74277259Y-72507909D01*
X74325111Y-72636205D01*
X74412738Y-72753261D01*
X74529794Y-72840888D01*
X74529795Y-72840888D01*
X74529796Y-72840889D01*
X74666799Y-72891989D01*
X74727362Y-72898500D01*
X77424638Y-72898500D01*
X77485201Y-72891989D01*
X77622204Y-72840889D01*
X77739261Y-72753261D01*
X77826889Y-72636204D01*
X77877989Y-72499201D01*
X77884500Y-72438638D01*
X77884500Y-71090000D01*
X99662429Y-71090000D01*
X99682685Y-71360300D01*
X99743001Y-71624560D01*
X99842029Y-71876880D01*
X99977557Y-72111621D01*
X100146554Y-72323538D01*
X100146557Y-72323540D01*
X100146558Y-72323542D01*
X100345257Y-72507907D01*
X100569215Y-72660599D01*
X100695819Y-72721568D01*
X100813427Y-72778206D01*
X100871192Y-72796023D01*
X101072442Y-72858101D01*
X101340472Y-72898500D01*
X101611526Y-72898500D01*
X101611528Y-72898500D01*
X101879558Y-72858101D01*
X102138572Y-72778206D01*
X102382786Y-72660599D01*
X102606743Y-72507907D01*
X102681398Y-72438638D01*
X104747500Y-72438638D01*
X104754011Y-72499201D01*
X104757259Y-72507909D01*
X104805111Y-72636205D01*
X104892738Y-72753261D01*
X105009794Y-72840888D01*
X105009795Y-72840888D01*
X105009796Y-72840889D01*
X105146799Y-72891989D01*
X105207362Y-72898500D01*
X107904638Y-72898500D01*
X107965201Y-72891989D01*
X108102204Y-72840889D01*
X108219261Y-72753261D01*
X108306889Y-72636204D01*
X108357989Y-72499201D01*
X108364500Y-72438638D01*
X108364500Y-71090000D01*
X130142429Y-71090000D01*
X130162685Y-71360300D01*
X130223001Y-71624560D01*
X130322029Y-71876880D01*
X130457557Y-72111621D01*
X130626554Y-72323538D01*
X130626557Y-72323540D01*
X130626558Y-72323542D01*
X130825257Y-72507907D01*
X131049215Y-72660599D01*
X131175819Y-72721568D01*
X131293427Y-72778206D01*
X131351192Y-72796023D01*
X131552442Y-72858101D01*
X131820472Y-72898500D01*
X132091526Y-72898500D01*
X132091528Y-72898500D01*
X132359558Y-72858101D01*
X132618572Y-72778206D01*
X132862786Y-72660599D01*
X133086743Y-72507907D01*
X133161398Y-72438638D01*
X135227500Y-72438638D01*
X135234011Y-72499201D01*
X135237259Y-72507909D01*
X135285111Y-72636205D01*
X135372738Y-72753261D01*
X135489794Y-72840888D01*
X135489795Y-72840888D01*
X135489796Y-72840889D01*
X135626799Y-72891989D01*
X135687362Y-72898500D01*
X138384638Y-72898500D01*
X138445201Y-72891989D01*
X138582204Y-72840889D01*
X138699261Y-72753261D01*
X138786889Y-72636204D01*
X138837989Y-72499201D01*
X138844500Y-72438638D01*
X138844500Y-71090000D01*
X160622429Y-71090000D01*
X160642685Y-71360300D01*
X160703001Y-71624560D01*
X160802029Y-71876880D01*
X160937557Y-72111621D01*
X161106554Y-72323538D01*
X161106557Y-72323540D01*
X161106558Y-72323542D01*
X161305257Y-72507907D01*
X161529215Y-72660599D01*
X161655819Y-72721568D01*
X161773427Y-72778206D01*
X161831192Y-72796023D01*
X162032442Y-72858101D01*
X162300472Y-72898500D01*
X162571526Y-72898500D01*
X162571528Y-72898500D01*
X162839558Y-72858101D01*
X163098572Y-72778206D01*
X163342786Y-72660599D01*
X163566743Y-72507907D01*
X163641398Y-72438638D01*
X165707500Y-72438638D01*
X165714011Y-72499201D01*
X165717259Y-72507909D01*
X165765111Y-72636205D01*
X165852738Y-72753261D01*
X165969794Y-72840888D01*
X165969795Y-72840888D01*
X165969796Y-72840889D01*
X166106799Y-72891989D01*
X166167362Y-72898500D01*
X168864638Y-72898500D01*
X168925201Y-72891989D01*
X169062204Y-72840889D01*
X169179261Y-72753261D01*
X169266889Y-72636204D01*
X169317989Y-72499201D01*
X169324500Y-72438638D01*
X169324500Y-69741362D01*
X169317989Y-69680799D01*
X169266889Y-69543796D01*
X169266888Y-69543794D01*
X169179261Y-69426738D01*
X169062205Y-69339111D01*
X168993702Y-69313560D01*
X168925201Y-69288011D01*
X168864638Y-69281500D01*
X166167362Y-69281500D01*
X166106799Y-69288011D01*
X165969794Y-69339111D01*
X165852738Y-69426738D01*
X165765111Y-69543794D01*
X165717259Y-69672090D01*
X165714011Y-69680799D01*
X165707500Y-69741362D01*
X165707500Y-72438638D01*
X163641398Y-72438638D01*
X163765442Y-72323542D01*
X163934443Y-72111621D01*
X164069971Y-71876879D01*
X164168999Y-71624559D01*
X164229315Y-71360299D01*
X164249571Y-71090000D01*
X164229315Y-70819701D01*
X164168999Y-70555441D01*
X164069971Y-70303121D01*
X163934443Y-70068379D01*
X163790426Y-69887787D01*
X163765445Y-69856461D01*
X163765442Y-69856458D01*
X163566743Y-69672093D01*
X163342786Y-69519401D01*
X163342785Y-69519400D01*
X163342783Y-69519399D01*
X163098572Y-69401793D01*
X162895358Y-69339111D01*
X162839558Y-69321899D01*
X162571528Y-69281500D01*
X162300472Y-69281500D01*
X162032442Y-69321899D01*
X162032438Y-69321900D01*
X162032439Y-69321900D01*
X161773427Y-69401793D01*
X161529214Y-69519401D01*
X161305260Y-69672090D01*
X161106554Y-69856461D01*
X160937557Y-70068378D01*
X160802029Y-70303119D01*
X160703001Y-70555439D01*
X160642685Y-70819699D01*
X160622429Y-71090000D01*
X138844500Y-71090000D01*
X138844500Y-69741362D01*
X138837989Y-69680799D01*
X138786889Y-69543796D01*
X138786888Y-69543794D01*
X138699261Y-69426738D01*
X138582205Y-69339111D01*
X138513702Y-69313560D01*
X138445201Y-69288011D01*
X138384638Y-69281500D01*
X135687362Y-69281500D01*
X135626799Y-69288011D01*
X135489794Y-69339111D01*
X135372738Y-69426738D01*
X135285111Y-69543794D01*
X135237259Y-69672090D01*
X135234011Y-69680799D01*
X135227500Y-69741362D01*
X135227500Y-72438638D01*
X133161398Y-72438638D01*
X133285442Y-72323542D01*
X133454443Y-72111621D01*
X133589971Y-71876879D01*
X133688999Y-71624559D01*
X133749315Y-71360299D01*
X133769571Y-71090000D01*
X133749315Y-70819701D01*
X133688999Y-70555441D01*
X133589971Y-70303121D01*
X133454443Y-70068379D01*
X133310426Y-69887787D01*
X133285445Y-69856461D01*
X133285442Y-69856458D01*
X133086743Y-69672093D01*
X132862786Y-69519401D01*
X132862785Y-69519400D01*
X132862783Y-69519399D01*
X132618572Y-69401793D01*
X132415358Y-69339111D01*
X132359558Y-69321899D01*
X132091528Y-69281500D01*
X131820472Y-69281500D01*
X131552442Y-69321899D01*
X131552438Y-69321900D01*
X131552439Y-69321900D01*
X131293427Y-69401793D01*
X131049214Y-69519401D01*
X130825260Y-69672090D01*
X130626554Y-69856461D01*
X130457557Y-70068378D01*
X130322029Y-70303119D01*
X130223001Y-70555439D01*
X130162685Y-70819699D01*
X130142429Y-71090000D01*
X108364500Y-71090000D01*
X108364500Y-69741362D01*
X108357989Y-69680799D01*
X108306889Y-69543796D01*
X108306888Y-69543794D01*
X108219261Y-69426738D01*
X108102205Y-69339111D01*
X108033702Y-69313560D01*
X107965201Y-69288011D01*
X107904638Y-69281500D01*
X105207362Y-69281500D01*
X105146799Y-69288011D01*
X105009794Y-69339111D01*
X104892738Y-69426738D01*
X104805111Y-69543794D01*
X104757259Y-69672090D01*
X104754011Y-69680799D01*
X104747500Y-69741362D01*
X104747500Y-72438638D01*
X102681398Y-72438638D01*
X102805442Y-72323542D01*
X102974443Y-72111621D01*
X103109971Y-71876879D01*
X103208999Y-71624559D01*
X103269315Y-71360299D01*
X103289571Y-71090000D01*
X103269315Y-70819701D01*
X103208999Y-70555441D01*
X103109971Y-70303121D01*
X102974443Y-70068379D01*
X102830426Y-69887787D01*
X102805445Y-69856461D01*
X102805442Y-69856458D01*
X102606743Y-69672093D01*
X102382786Y-69519401D01*
X102382785Y-69519400D01*
X102382783Y-69519399D01*
X102138572Y-69401793D01*
X101935358Y-69339111D01*
X101879558Y-69321899D01*
X101611528Y-69281500D01*
X101340472Y-69281500D01*
X101072442Y-69321899D01*
X101072438Y-69321900D01*
X101072439Y-69321900D01*
X100813427Y-69401793D01*
X100569214Y-69519401D01*
X100345260Y-69672090D01*
X100146554Y-69856461D01*
X99977557Y-70068378D01*
X99842029Y-70303119D01*
X99743001Y-70555439D01*
X99682685Y-70819699D01*
X99662429Y-71090000D01*
X77884500Y-71090000D01*
X77884500Y-69741362D01*
X77877989Y-69680799D01*
X77870119Y-69659700D01*
X87795502Y-69659700D01*
X87815457Y-69887787D01*
X87874715Y-70108943D01*
X87971477Y-70316450D01*
X88102804Y-70504003D01*
X88264696Y-70665895D01*
X88452249Y-70797222D01*
X88659756Y-70893984D01*
X88719014Y-70909862D01*
X88880913Y-70953243D01*
X89109000Y-70973198D01*
X89337087Y-70953243D01*
X89558243Y-70893984D01*
X89765749Y-70797223D01*
X89953300Y-70665898D01*
X90115198Y-70504000D01*
X90246523Y-70316449D01*
X90343284Y-70108943D01*
X90402543Y-69887787D01*
X90422498Y-69659700D01*
X90402543Y-69431613D01*
X90343284Y-69210457D01*
X90246523Y-69002951D01*
X90115198Y-68815400D01*
X90115197Y-68815399D01*
X90115195Y-68815396D01*
X89953303Y-68653504D01*
X89765750Y-68522177D01*
X89558243Y-68425415D01*
X89337087Y-68366157D01*
X89109000Y-68346202D01*
X88880912Y-68366157D01*
X88659756Y-68425415D01*
X88452249Y-68522177D01*
X88264696Y-68653504D01*
X88102804Y-68815396D01*
X87971477Y-69002949D01*
X87874715Y-69210456D01*
X87815457Y-69431612D01*
X87795502Y-69659700D01*
X77870119Y-69659700D01*
X77826889Y-69543796D01*
X77826888Y-69543794D01*
X77739261Y-69426738D01*
X77622205Y-69339111D01*
X77553702Y-69313560D01*
X77485201Y-69288011D01*
X77424638Y-69281500D01*
X74727362Y-69281500D01*
X74666799Y-69288011D01*
X74529794Y-69339111D01*
X74412738Y-69426738D01*
X74325111Y-69543794D01*
X74277259Y-69672090D01*
X74274011Y-69680799D01*
X74267500Y-69741362D01*
X74267500Y-72438638D01*
X72201398Y-72438638D01*
X72325442Y-72323542D01*
X72494443Y-72111621D01*
X72629971Y-71876879D01*
X72728999Y-71624559D01*
X72789315Y-71360299D01*
X72809571Y-71090000D01*
X72789315Y-70819701D01*
X72728999Y-70555441D01*
X72629971Y-70303121D01*
X72494443Y-70068379D01*
X72350426Y-69887787D01*
X72325445Y-69856461D01*
X72325442Y-69856458D01*
X72126743Y-69672093D01*
X71902786Y-69519401D01*
X71902785Y-69519400D01*
X71902783Y-69519399D01*
X71658572Y-69401793D01*
X71455358Y-69339111D01*
X71399558Y-69321899D01*
X71131528Y-69281500D01*
X70860472Y-69281500D01*
X70592442Y-69321899D01*
X70592438Y-69321900D01*
X70592439Y-69321900D01*
X70333427Y-69401793D01*
X70089214Y-69519401D01*
X69865260Y-69672090D01*
X69666554Y-69856461D01*
X69497557Y-70068378D01*
X69362029Y-70303119D01*
X69263001Y-70555439D01*
X69202685Y-70819699D01*
X69182429Y-71089999D01*
X62121582Y-71089999D01*
X62106620Y-68041602D01*
X62123293Y-67978343D01*
X62169440Y-67931970D01*
X62232618Y-67914986D01*
X151050313Y-67914986D01*
X151082923Y-67919278D01*
G37*
%TD.AperFunction*%
%TD*%
%TA.AperFunction,Conductor*%
%TO.N,Net-(Q13-Pad3)*%
G36*
X181246640Y-103346603D02*
G01*
X181309427Y-103363658D01*
X181355336Y-103409763D01*
X181372124Y-103472623D01*
X181370388Y-113899757D01*
X181353605Y-113962567D01*
X181307744Y-114008649D01*
X181245015Y-114025734D01*
X172719842Y-114068148D01*
X172656532Y-114051452D01*
X172610148Y-114005241D01*
X172593215Y-113941996D01*
X172595762Y-111880364D01*
X172610948Y-111820556D01*
X172711281Y-111635157D01*
X172711282Y-111635156D01*
X172789334Y-111407797D01*
X172828900Y-111170692D01*
X172828900Y-110930308D01*
X172789334Y-110693203D01*
X172711282Y-110465844D01*
X172612993Y-110284223D01*
X172597808Y-110224101D01*
X172600341Y-108173624D01*
X172617251Y-108110732D01*
X172663308Y-108064683D01*
X172726204Y-108047783D01*
X178062991Y-108042070D01*
X178071207Y-106065151D01*
X178076518Y-106029480D01*
X178091718Y-105996775D01*
X178177534Y-105865424D01*
X178275293Y-105642555D01*
X178335036Y-105406636D01*
X178355133Y-105164100D01*
X178335036Y-104921564D01*
X178275293Y-104685645D01*
X178177534Y-104462776D01*
X178099167Y-104342827D01*
X178083816Y-104309616D01*
X178078653Y-104273393D01*
X178082035Y-103459668D01*
X178099176Y-103396744D01*
X178145483Y-103350817D01*
X178208546Y-103334195D01*
X181246640Y-103346603D01*
G37*
%TD.AperFunction*%
%TD*%
M02*
