%TF.GenerationSoftware,KiCad,Pcbnew,(6.0.0)*%
%TF.CreationDate,2023-01-04T20:07:59-08:00*%
%TF.ProjectId,MakeItRain,4d616b65-4974-4526-9169-6e2e6b696361,rev?*%
%TF.SameCoordinates,Original*%
%TF.FileFunction,Copper,L4,Bot*%
%TF.FilePolarity,Positive*%
%FSLAX46Y46*%
G04 Gerber Fmt 4.6, Leading zero omitted, Abs format (unit mm)*
G04 Created by KiCad (PCBNEW (6.0.0)) date 2023-01-04 20:07:59*
%MOMM*%
%LPD*%
G01*
G04 APERTURE LIST*
%TA.AperFunction,ComponentPad*%
%ADD10R,1.150000X1.150000*%
%TD*%
%TA.AperFunction,ComponentPad*%
%ADD11C,1.150000*%
%TD*%
%TA.AperFunction,ComponentPad*%
%ADD12R,1.500000X1.500000*%
%TD*%
%TA.AperFunction,ComponentPad*%
%ADD13C,1.500000*%
%TD*%
%TA.AperFunction,SMDPad,CuDef*%
%ADD14R,1.800000X0.450000*%
%TD*%
%TA.AperFunction,ComponentPad*%
%ADD15C,1.600000*%
%TD*%
%TA.AperFunction,ComponentPad*%
%ADD16R,2.600000X2.600000*%
%TD*%
%TA.AperFunction,ComponentPad*%
%ADD17O,2.600000X2.600000*%
%TD*%
%TA.AperFunction,ComponentPad*%
%ADD18R,1.800000X1.800000*%
%TD*%
%TA.AperFunction,ComponentPad*%
%ADD19C,1.800000*%
%TD*%
%TA.AperFunction,ComponentPad*%
%ADD20R,1.700000X1.700000*%
%TD*%
%TA.AperFunction,ComponentPad*%
%ADD21O,1.700000X1.700000*%
%TD*%
%TA.AperFunction,ComponentPad*%
%ADD22C,2.600000*%
%TD*%
%TA.AperFunction,ComponentPad*%
%ADD23R,1.920000X1.920000*%
%TD*%
%TA.AperFunction,ComponentPad*%
%ADD24C,1.920000*%
%TD*%
%TA.AperFunction,ComponentPad*%
%ADD25R,1.050000X1.500000*%
%TD*%
%TA.AperFunction,ComponentPad*%
%ADD26O,1.050000X1.500000*%
%TD*%
%TA.AperFunction,ComponentPad*%
%ADD27O,1.600000X1.600000*%
%TD*%
%TA.AperFunction,ComponentPad*%
%ADD28R,1.500000X1.050000*%
%TD*%
%TA.AperFunction,ComponentPad*%
%ADD29O,1.500000X1.050000*%
%TD*%
%TA.AperFunction,ComponentPad*%
%ADD30C,1.440000*%
%TD*%
%TA.AperFunction,ComponentPad*%
%ADD31R,1.600000X1.600000*%
%TD*%
%TA.AperFunction,ComponentPad*%
%ADD32R,2.200000X2.200000*%
%TD*%
%TA.AperFunction,ComponentPad*%
%ADD33O,2.200000X2.200000*%
%TD*%
%TA.AperFunction,ComponentPad*%
%ADD34C,2.100000*%
%TD*%
%TA.AperFunction,ComponentPad*%
%ADD35R,1.130000X1.130000*%
%TD*%
%TA.AperFunction,ComponentPad*%
%ADD36C,1.130000*%
%TD*%
%TA.AperFunction,ViaPad*%
%ADD37C,0.800000*%
%TD*%
%TA.AperFunction,Conductor*%
%ADD38C,0.250000*%
%TD*%
%TA.AperFunction,Conductor*%
%ADD39C,2.032000*%
%TD*%
%TA.AperFunction,Conductor*%
%ADD40C,0.508000*%
%TD*%
%TA.AperFunction,Conductor*%
%ADD41C,0.762000*%
%TD*%
G04 APERTURE END LIST*
D10*
%TO.P,Z8,1*%
%TO.N,+VDC*%
X156564300Y-87104200D03*
D11*
%TO.P,Z8,2*%
%TO.N,Net-(Q12-Pad1)*%
X167264300Y-87104200D03*
%TD*%
D10*
%TO.P,Z7,1*%
%TO.N,+VDC*%
X124968600Y-87436000D03*
D11*
%TO.P,Z7,2*%
%TO.N,Net-(Q9-Pad1)*%
X135668600Y-87436000D03*
%TD*%
D10*
%TO.P,Z6,1*%
%TO.N,+VDC*%
X95418500Y-87436000D03*
D11*
%TO.P,Z6,2*%
%TO.N,Net-(Q6-Pad1)*%
X106118500Y-87436000D03*
%TD*%
D10*
%TO.P,Z5,1*%
%TO.N,+VDC*%
X64792500Y-87395400D03*
D11*
%TO.P,Z5,2*%
%TO.N,Net-(Q3-Pad1)*%
X75492500Y-87395400D03*
%TD*%
D12*
%TO.P,S1,1,NO_1*%
%TO.N,unconnected-(S1-Pad1)*%
X115616200Y-120523800D03*
D13*
%TO.P,S1,2,NO_2*%
%TO.N,+3V3*%
X122116200Y-120523800D03*
%TO.P,S1,3,COM_1*%
%TO.N,unconnected-(S1-Pad3)*%
X115616200Y-125023800D03*
%TO.P,S1,4,COM_2*%
%TO.N,D25*%
X122116200Y-125023800D03*
%TD*%
D14*
%TO.P,IC1,1,SCL*%
%TO.N,D22*%
X113405300Y-110092700D03*
%TO.P,IC1,2,SDA*%
%TO.N,D21*%
X113405300Y-110742700D03*
%TO.P,IC1,3,A2*%
%TO.N,GND*%
X113405300Y-111392700D03*
%TO.P,IC1,4,A1*%
X113405300Y-112042700D03*
%TO.P,IC1,5,A0*%
X113405300Y-112692700D03*
%TO.P,IC1,6,~{RESET}*%
%TO.N,Net-(IC1-Pad6)*%
X113405300Y-113342700D03*
%TO.P,IC1,7,NC*%
%TO.N,unconnected-(IC1-Pad7)*%
X113405300Y-113992700D03*
%TO.P,IC1,8,INT*%
%TO.N,unconnected-(IC1-Pad8)*%
X113405300Y-114642700D03*
%TO.P,IC1,9,VSS*%
%TO.N,GND*%
X113405300Y-115292700D03*
%TO.P,IC1,10,N/C_1*%
%TO.N,unconnected-(IC1-Pad10)*%
X113405300Y-115942700D03*
%TO.P,IC1,11,N/C_2*%
%TO.N,unconnected-(IC1-Pad11)*%
X106305300Y-115942700D03*
%TO.P,IC1,12,GP0*%
%TO.N,Z1*%
X106305300Y-115292700D03*
%TO.P,IC1,13,GP1*%
%TO.N,Z2*%
X106305300Y-114642700D03*
%TO.P,IC1,14,GP2*%
%TO.N,Z3*%
X106305300Y-113992700D03*
%TO.P,IC1,15,GP3*%
%TO.N,Z4*%
X106305300Y-113342700D03*
%TO.P,IC1,16,GP4*%
%TO.N,Z5*%
X106305300Y-112692700D03*
%TO.P,IC1,17,GP5*%
%TO.N,Z6*%
X106305300Y-112042700D03*
%TO.P,IC1,18,GP6*%
%TO.N,Z7*%
X106305300Y-111392700D03*
%TO.P,IC1,19,GP7*%
%TO.N,Z8*%
X106305300Y-110742700D03*
%TO.P,IC1,20,VDD*%
%TO.N,+3V3*%
X106305300Y-110092700D03*
%TD*%
D15*
%TO.P,C2,1*%
%TO.N,/Zone1IO/ZoneInput*%
X89109000Y-69659700D03*
%TO.P,C2,2*%
%TO.N,GND*%
X89109000Y-74659700D03*
%TD*%
%TO.P,C3,1*%
%TO.N,/Zone2IO/ZoneInput*%
X119449600Y-64825000D03*
%TO.P,C3,2*%
%TO.N,GND*%
X119449600Y-69825000D03*
%TD*%
%TO.P,C4,1*%
%TO.N,/Zone3IO/ZoneInput*%
X151357900Y-66638300D03*
%TO.P,C4,2*%
%TO.N,GND*%
X151357900Y-71638300D03*
%TD*%
D16*
%TO.P,D3,1,K*%
%TO.N,/Zone1IO/ZoneOutput*%
X83061000Y-85060000D03*
D17*
%TO.P,D3,2,A*%
%TO.N,GND*%
X83061000Y-69820000D03*
%TD*%
D16*
%TO.P,D5,1,K*%
%TO.N,/Zone2IO/ZoneOutput*%
X113541000Y-85060000D03*
D17*
%TO.P,D5,2,A*%
%TO.N,GND*%
X113541000Y-69820000D03*
%TD*%
D16*
%TO.P,D7,1,K*%
%TO.N,/Zone4IO/ZoneOutput*%
X174501000Y-85060000D03*
D17*
%TO.P,D7,2,A*%
%TO.N,GND*%
X174501000Y-69820000D03*
%TD*%
D16*
%TO.P,D9,1,K*%
%TO.N,/Zone3IO/ZoneOutput*%
X144021000Y-85060000D03*
D17*
%TO.P,D9,2,A*%
%TO.N,GND*%
X144021000Y-69820000D03*
%TD*%
D18*
%TO.P,D1,1,K*%
%TO.N,Net-(D1-Pad1)*%
X128872900Y-123268200D03*
D19*
%TO.P,D1,2,A*%
%TO.N,D27*%
X126332900Y-123268200D03*
%TD*%
D20*
%TO.P,J2,1,Pin_1*%
%TO.N,+3V3*%
X66040000Y-120650000D03*
D21*
%TO.P,J2,2,Pin_2*%
X66040000Y-123190000D03*
%TO.P,J2,3,Pin_3*%
%TO.N,EN*%
X68580000Y-120650000D03*
%TO.P,J2,4,Pin_4*%
X68580000Y-123190000D03*
%TO.P,J2,5,Pin_5*%
%TO.N,D36*%
X71120000Y-120650000D03*
%TO.P,J2,6,Pin_6*%
X71120000Y-123190000D03*
%TO.P,J2,7,Pin_7*%
%TO.N,D39*%
X73660000Y-120650000D03*
%TO.P,J2,8,Pin_8*%
X73660000Y-123190000D03*
%TO.P,J2,9,Pin_9*%
%TO.N,D34*%
X76200000Y-120650000D03*
%TO.P,J2,10,Pin_10*%
X76200000Y-123190000D03*
%TO.P,J2,11,Pin_11*%
%TO.N,D35*%
X78740000Y-120650000D03*
%TO.P,J2,12,Pin_12*%
X78740000Y-123190000D03*
%TO.P,J2,13,Pin_13*%
%TO.N,D32*%
X81280000Y-120650000D03*
%TO.P,J2,14,Pin_14*%
X81280000Y-123190000D03*
%TO.P,J2,15,Pin_15*%
%TO.N,D33*%
X83820000Y-120650000D03*
%TO.P,J2,16,Pin_16*%
X83820000Y-123190000D03*
%TO.P,J2,17,Pin_17*%
%TO.N,D25*%
X86360000Y-120650000D03*
%TO.P,J2,18,Pin_18*%
X86360000Y-123190000D03*
%TO.P,J2,19,Pin_19*%
%TO.N,D26*%
X88900000Y-120650000D03*
%TO.P,J2,20,Pin_20*%
X88900000Y-123190000D03*
%TO.P,J2,21,Pin_21*%
%TO.N,D27*%
X91440000Y-120650000D03*
%TO.P,J2,22,Pin_22*%
X91440000Y-123190000D03*
%TO.P,J2,23,Pin_23*%
%TO.N,D14*%
X93980000Y-120650000D03*
%TO.P,J2,24,Pin_24*%
X93980000Y-123190000D03*
%TO.P,J2,25,Pin_25*%
%TO.N,D12*%
X96520000Y-120650000D03*
%TO.P,J2,26,Pin_26*%
X96520000Y-123190000D03*
%TO.P,J2,27,Pin_27*%
%TO.N,GND*%
X99060000Y-120650000D03*
%TO.P,J2,28,Pin_28*%
X99060000Y-123190000D03*
%TO.P,J2,29,Pin_29*%
%TO.N,unconnected-(J2-Pad29)*%
X101600000Y-120650000D03*
%TO.P,J2,30,Pin_30*%
%TO.N,unconnected-(J2-Pad30)*%
X101600000Y-123190000D03*
%TO.P,J2,31,Pin_31*%
%TO.N,unconnected-(J2-Pad31)*%
X104140000Y-120650000D03*
%TO.P,J2,32,Pin_32*%
%TO.N,unconnected-(J2-Pad32)*%
X104140000Y-123190000D03*
%TO.P,J2,33,Pin_33*%
%TO.N,unconnected-(J2-Pad33)*%
X106680000Y-120650000D03*
%TO.P,J2,34,Pin_34*%
%TO.N,unconnected-(J2-Pad34)*%
X106680000Y-123190000D03*
%TO.P,J2,35,Pin_35*%
%TO.N,unconnected-(J2-Pad35)*%
X109220000Y-120650000D03*
%TO.P,J2,36,Pin_36*%
%TO.N,unconnected-(J2-Pad36)*%
X109220000Y-123190000D03*
%TO.P,J2,37,Pin_37*%
%TO.N,Net-(J2-Pad37)*%
X111760000Y-120650000D03*
%TO.P,J2,38,Pin_38*%
X111760000Y-123190000D03*
%TD*%
D20*
%TO.P,J3,1,Pin_1*%
%TO.N,GND*%
X66040000Y-97790000D03*
D21*
%TO.P,J3,2,Pin_2*%
%TO.N,D23*%
X68580000Y-97790000D03*
%TO.P,J3,3,Pin_3*%
%TO.N,D22*%
X71120000Y-97790000D03*
%TO.P,J3,4,Pin_4*%
%TO.N,TX*%
X73660000Y-97790000D03*
%TO.P,J3,5,Pin_5*%
%TO.N,RX*%
X76200000Y-97790000D03*
%TO.P,J3,6,Pin_6*%
%TO.N,D21*%
X78740000Y-97790000D03*
%TO.P,J3,7,Pin_7*%
%TO.N,GND*%
X81280000Y-97790000D03*
%TO.P,J3,8,Pin_8*%
%TO.N,D19*%
X83820000Y-97790000D03*
%TO.P,J3,9,Pin_9*%
%TO.N,D18*%
X86360000Y-97790000D03*
%TO.P,J3,10,Pin_10*%
%TO.N,D5*%
X88900000Y-97790000D03*
%TO.P,J3,11,Pin_11*%
%TO.N,D17*%
X91440000Y-97790000D03*
%TO.P,J3,12,Pin_12*%
%TO.N,D16*%
X93980000Y-97790000D03*
%TO.P,J3,13,Pin_13*%
%TO.N,D4*%
X96520000Y-97790000D03*
%TO.P,J3,14,Pin_14*%
%TO.N,D0*%
X99060000Y-97790000D03*
%TO.P,J3,15,Pin_15*%
%TO.N,D2*%
X101600000Y-97790000D03*
%TO.P,J3,16,Pin_16*%
%TO.N,D15*%
X104140000Y-97790000D03*
%TO.P,J3,17,Pin_17*%
%TO.N,/SD1*%
X106680000Y-97790000D03*
%TO.P,J3,18,Pin_18*%
%TO.N,/SDD*%
X109220000Y-97790000D03*
%TO.P,J3,19,Pin_19*%
%TO.N,/CLK*%
X111760000Y-97790000D03*
%TD*%
D16*
%TO.P,P1,1,Pin_1*%
%TO.N,Net-(P1-Pad1)*%
X178125700Y-96457800D03*
D22*
%TO.P,P1,2,Pin_2*%
%TO.N,GND*%
X178125700Y-91377800D03*
%TD*%
D23*
%TO.P,Q3,1*%
%TO.N,Net-(Q3-Pad1)*%
X71689700Y-82379600D03*
D24*
%TO.P,Q3,2*%
%TO.N,/Zone1IO/ZoneOutput*%
X69149700Y-82379600D03*
%TO.P,Q3,3*%
%TO.N,+VDC*%
X66609700Y-82379600D03*
%TD*%
D23*
%TO.P,Q6,1*%
%TO.N,Net-(Q6-Pad1)*%
X101108600Y-82267600D03*
D24*
%TO.P,Q6,2*%
%TO.N,/Zone2IO/ZoneOutput*%
X98568600Y-82267600D03*
%TO.P,Q6,3*%
%TO.N,+VDC*%
X96028600Y-82267600D03*
%TD*%
D25*
%TO.P,Q7,1,S*%
%TO.N,GND*%
X90300800Y-103664300D03*
D26*
%TO.P,Q7,2,G*%
%TO.N,Net-(D6-Pad2)*%
X91570800Y-103664300D03*
%TO.P,Q7,3,D*%
%TO.N,/InputIsolation/3in*%
X92840800Y-103664300D03*
%TD*%
D23*
%TO.P,Q9,1*%
%TO.N,Net-(Q9-Pad1)*%
X131085700Y-82267600D03*
D24*
%TO.P,Q9,2*%
%TO.N,/Zone3IO/ZoneOutput*%
X128545700Y-82267600D03*
%TO.P,Q9,3*%
%TO.N,+VDC*%
X126005700Y-82267600D03*
%TD*%
D23*
%TO.P,Q12,1*%
%TO.N,Net-(Q12-Pad1)*%
X162229200Y-82267600D03*
D24*
%TO.P,Q12,2*%
%TO.N,/Zone4IO/ZoneOutput*%
X159689200Y-82267600D03*
%TO.P,Q12,3*%
%TO.N,+VDC*%
X157149200Y-82267600D03*
%TD*%
D23*
%TO.P,Q13,1*%
%TO.N,Net-(Q13-Pad1)*%
X174341600Y-105164100D03*
D24*
%TO.P,Q13,2*%
%TO.N,Net-(P1-Pad1)*%
X176881600Y-105164100D03*
%TO.P,Q13,3*%
%TO.N,Net-(Q13-Pad3)*%
X179421600Y-105164100D03*
%TD*%
D16*
%TO.P,Z2,1,Pin_1*%
%TO.N,/Zone2IO/ZoneInput*%
X106556000Y-71090000D03*
D22*
%TO.P,Z2,2,Pin_2*%
%TO.N,/Zone2IO/ZoneOutput*%
X101476000Y-71090000D03*
%TO.P,Z2,3,Pin_3*%
%TO.N,GND*%
X96396000Y-71090000D03*
%TD*%
D16*
%TO.P,Z3,1,Pin_1*%
%TO.N,/Zone3IO/ZoneInput*%
X137036000Y-71090000D03*
D22*
%TO.P,Z3,2,Pin_2*%
%TO.N,/Zone3IO/ZoneOutput*%
X131956000Y-71090000D03*
%TO.P,Z3,3,Pin_3*%
%TO.N,GND*%
X126876000Y-71090000D03*
%TD*%
D16*
%TO.P,Z4,1,Pin_1*%
%TO.N,/Zone4IO/ZoneInput*%
X167516000Y-71090000D03*
D22*
%TO.P,Z4,2,Pin_2*%
%TO.N,/Zone4IO/ZoneOutput*%
X162436000Y-71090000D03*
%TO.P,Z4,3,Pin_3*%
%TO.N,GND*%
X157356000Y-71090000D03*
%TD*%
D16*
%TO.P,Z1,1,Pin_1*%
%TO.N,/Zone1IO/ZoneInput*%
X76076000Y-71090000D03*
D22*
%TO.P,Z1,2,Pin_2*%
%TO.N,/Zone1IO/ZoneOutput*%
X70996000Y-71090000D03*
%TO.P,Z1,3,Pin_3*%
%TO.N,GND*%
X65916000Y-71090000D03*
%TD*%
D20*
%TO.P,J1,1,Pin_1*%
%TO.N,+VDC*%
X170349000Y-121042300D03*
D21*
%TO.P,J1,2,Pin_2*%
%TO.N,D22*%
X170349000Y-123582300D03*
%TO.P,J1,3,Pin_3*%
%TO.N,+VDC*%
X167809000Y-121042300D03*
%TO.P,J1,4,Pin_4*%
%TO.N,D21*%
X167809000Y-123582300D03*
%TO.P,J1,5,Pin_5*%
%TO.N,+VDC*%
X165269000Y-121042300D03*
%TO.P,J1,6,Pin_6*%
%TO.N,Z8*%
X165269000Y-123582300D03*
%TO.P,J1,7,Pin_7*%
%TO.N,+VDC*%
X162729000Y-121042300D03*
%TO.P,J1,8,Pin_8*%
%TO.N,Z7*%
X162729000Y-123582300D03*
%TO.P,J1,9,Pin_9*%
%TO.N,+VDC*%
X160189000Y-121042300D03*
%TO.P,J1,10,Pin_10*%
%TO.N,Z6*%
X160189000Y-123582300D03*
%TO.P,J1,11,Pin_11*%
%TO.N,+3V3*%
X157649000Y-121042300D03*
%TO.P,J1,12,Pin_12*%
%TO.N,Z5*%
X157649000Y-123582300D03*
%TO.P,J1,13,Pin_13*%
%TO.N,+3V3*%
X155109000Y-121042300D03*
%TO.P,J1,14,Pin_14*%
%TO.N,D26*%
X155109000Y-123582300D03*
%TO.P,J1,15,Pin_15*%
%TO.N,+3V3*%
X152569000Y-121042300D03*
%TO.P,J1,16,Pin_16*%
%TO.N,D23*%
X152569000Y-123582300D03*
%TO.P,J1,17,Pin_17*%
%TO.N,+3V3*%
X150029000Y-121042300D03*
%TO.P,J1,18,Pin_18*%
%TO.N,D19*%
X150029000Y-123582300D03*
%TO.P,J1,19,Pin_19*%
%TO.N,GND*%
X147489000Y-121042300D03*
%TO.P,J1,20,Pin_20*%
%TO.N,D18*%
X147489000Y-123582300D03*
%TO.P,J1,21,Pin_21*%
%TO.N,GND*%
X144949000Y-121042300D03*
%TO.P,J1,22,Pin_22*%
%TO.N,D17*%
X144949000Y-123582300D03*
%TO.P,J1,23,Pin_23*%
%TO.N,GND*%
X142409000Y-121042300D03*
%TO.P,J1,24,Pin_24*%
%TO.N,D16*%
X142409000Y-123582300D03*
%TO.P,J1,25,Pin_25*%
%TO.N,GND*%
X139869000Y-121042300D03*
%TO.P,J1,26,Pin_26*%
%TO.N,TX*%
X139869000Y-123582300D03*
%TO.P,J1,27,Pin_27*%
%TO.N,GND*%
X137329000Y-121042300D03*
%TO.P,J1,28,Pin_28*%
%TO.N,RX*%
X137329000Y-123582300D03*
%TD*%
D25*
%TO.P,Q4,1,S*%
%TO.N,GND*%
X84702900Y-103677400D03*
D26*
%TO.P,Q4,2,G*%
%TO.N,Net-(D4-Pad2)*%
X85972900Y-103677400D03*
%TO.P,Q4,3,D*%
%TO.N,/InputIsolation/2in*%
X87242900Y-103677400D03*
%TD*%
D15*
%TO.P,R23,1*%
%TO.N,+VDC*%
X75572300Y-105627200D03*
D27*
%TO.P,R23,2*%
%TO.N,Net-(IC3-Pad3)*%
X73032300Y-105627200D03*
%TD*%
D15*
%TO.P,R31,1*%
%TO.N,+3V3*%
X83822200Y-112140600D03*
D27*
%TO.P,R31,2*%
%TO.N,D35*%
X83822200Y-114680600D03*
%TD*%
D15*
%TO.P,R16,1*%
%TO.N,Net-(Q9-Pad1)*%
X131777400Y-90385900D03*
D27*
%TO.P,R16,2*%
%TO.N,Net-(Q8-Pad3)*%
X134317400Y-90385900D03*
%TD*%
D28*
%TO.P,Q2,1,S*%
%TO.N,GND*%
X77074800Y-81816600D03*
D29*
%TO.P,Q2,2,G*%
%TO.N,Z1*%
X77074800Y-83086600D03*
%TO.P,Q2,3,D*%
%TO.N,Net-(Q2-Pad3)*%
X77074800Y-84356600D03*
%TD*%
D15*
%TO.P,R24,1*%
%TO.N,Net-(IC3-Pad3)*%
X73376700Y-108765100D03*
D27*
%TO.P,R24,2*%
%TO.N,GND*%
X75916700Y-108765100D03*
%TD*%
D15*
%TO.P,R5,1*%
%TO.N,Net-(D2-Pad2)*%
X80372200Y-108702600D03*
D27*
%TO.P,R5,2*%
%TO.N,GND*%
X82912200Y-108702600D03*
%TD*%
D30*
%TO.P,RV1,1,1*%
%TO.N,AuxVoltage*%
X150281700Y-100622000D03*
%TO.P,RV1,2,2*%
%TO.N,Net-(IC3-Pad5)*%
X152821700Y-100622000D03*
%TO.P,RV1,3,3*%
%TO.N,GND*%
X155361700Y-100622000D03*
%TD*%
D20*
%TO.P,J4,1,Pin_1*%
%TO.N,AuxVoltage*%
X155598900Y-95333800D03*
%TD*%
D15*
%TO.P,R15,1*%
%TO.N,+VDC*%
X126614500Y-90392400D03*
D27*
%TO.P,R15,2*%
%TO.N,Net-(Q9-Pad1)*%
X129154500Y-90392400D03*
%TD*%
D15*
%TO.P,R17,1*%
%TO.N,Net-(D8-Pad2)*%
X96767000Y-108701700D03*
D27*
%TO.P,R17,2*%
%TO.N,GND*%
X99307000Y-108701700D03*
%TD*%
D20*
%TO.P,J5,1,Pin_1*%
%TO.N,+VDC*%
X59207700Y-91310200D03*
D21*
%TO.P,J5,2,Pin_2*%
%TO.N,+3V3*%
X59207700Y-88770200D03*
%TO.P,J5,3,Pin_3*%
%TO.N,GND*%
X59207700Y-86230200D03*
%TD*%
D15*
%TO.P,R4,1*%
%TO.N,Net-(D1-Pad1)*%
X98113700Y-112207200D03*
D27*
%TO.P,R4,2*%
%TO.N,GND*%
X98113700Y-114747200D03*
%TD*%
D15*
%TO.P,R18,1*%
%TO.N,Z4*%
X179350700Y-81833100D03*
D27*
%TO.P,R18,2*%
%TO.N,GND*%
X181890700Y-81833100D03*
%TD*%
D15*
%TO.P,R29,1*%
%TO.N,+3V3*%
X142295000Y-113577700D03*
D27*
%TO.P,R29,2*%
%TO.N,Net-(IC4-Pad1)*%
X139755000Y-113577700D03*
%TD*%
D15*
%TO.P,R25,1*%
%TO.N,D33*%
X75859900Y-114068500D03*
D27*
%TO.P,R25,2*%
%TO.N,GND*%
X75859900Y-111528500D03*
%TD*%
D15*
%TO.P,R33,1*%
%TO.N,+3V3*%
X93402900Y-112140600D03*
D27*
%TO.P,R33,2*%
%TO.N,D39*%
X93402900Y-114680600D03*
%TD*%
D15*
%TO.P,R2,1*%
%TO.N,/Zone2IO/ZoneInput*%
X113321700Y-93731200D03*
D27*
%TO.P,R2,2*%
%TO.N,Net-(D4-Pad2)*%
X115861700Y-93731200D03*
%TD*%
D15*
%TO.P,R14,1*%
%TO.N,Z3*%
X136973400Y-90405200D03*
D27*
%TO.P,R14,2*%
%TO.N,GND*%
X139513400Y-90405200D03*
%TD*%
D28*
%TO.P,Q11,1,S*%
%TO.N,GND*%
X167687500Y-81543000D03*
D29*
%TO.P,Q11,2,G*%
%TO.N,Z4*%
X167687500Y-82813000D03*
%TO.P,Q11,3,D*%
%TO.N,Net-(Q11-Pad3)*%
X167687500Y-84083000D03*
%TD*%
D15*
%TO.P,R27,1*%
%TO.N,+3V3*%
X142295000Y-103999000D03*
D27*
%TO.P,R27,2*%
%TO.N,Net-(IC4-Pad5)*%
X139755000Y-103999000D03*
%TD*%
D31*
%TO.P,U1,1,SCL*%
%TO.N,D22*%
X116307900Y-96853800D03*
D27*
%TO.P,U1,2,SDA*%
%TO.N,D21*%
X116307900Y-99393800D03*
%TO.P,U1,3,A2*%
%TO.N,GND*%
X116307900Y-101933800D03*
%TO.P,U1,4,A1*%
X116307900Y-104473800D03*
%TO.P,U1,5,A0*%
X116307900Y-107013800D03*
%TO.P,U1,6,~{RESET}*%
%TO.N,Net-(IC1-Pad6)*%
X116307900Y-109553800D03*
%TO.P,U1,7,NC*%
%TO.N,unconnected-(U1-Pad7)*%
X116307900Y-112093800D03*
%TO.P,U1,8,INT*%
%TO.N,unconnected-(U1-Pad8)*%
X116307900Y-114633800D03*
%TO.P,U1,9,VSS*%
%TO.N,GND*%
X116307900Y-117173800D03*
%TO.P,U1,10,GP0*%
%TO.N,Z1*%
X123927900Y-117173800D03*
%TO.P,U1,11,GP1*%
%TO.N,Z2*%
X123927900Y-114633800D03*
%TO.P,U1,12,GP2*%
%TO.N,Z3*%
X123927900Y-112093800D03*
%TO.P,U1,13,GP3*%
%TO.N,Z4*%
X123927900Y-109553800D03*
%TO.P,U1,14,GP4*%
%TO.N,Z5*%
X123927900Y-107013800D03*
%TO.P,U1,15,GP5*%
%TO.N,Z6*%
X123927900Y-104473800D03*
%TO.P,U1,16,GP6*%
%TO.N,Z7*%
X123927900Y-101933800D03*
%TO.P,U1,17,GP7*%
%TO.N,Z8*%
X123927900Y-99393800D03*
%TO.P,U1,18,VDD*%
%TO.N,+3V3*%
X123927900Y-96853800D03*
%TD*%
D32*
%TO.P,D4,1,K*%
%TO.N,/Zone2IO/ZoneInput*%
X113156300Y-90507700D03*
D33*
%TO.P,D4,2,A*%
%TO.N,Net-(D4-Pad2)*%
X123316300Y-90507700D03*
%TD*%
D32*
%TO.P,D2,1,K*%
%TO.N,/Zone1IO/ZoneInput*%
X83739400Y-90439100D03*
D33*
%TO.P,D2,2,A*%
%TO.N,Net-(D2-Pad2)*%
X93899400Y-90439100D03*
%TD*%
D15*
%TO.P,R9,1*%
%TO.N,Net-(D4-Pad2)*%
X85984200Y-108777600D03*
D27*
%TO.P,R9,2*%
%TO.N,GND*%
X88524200Y-108777600D03*
%TD*%
D15*
%TO.P,R13,1*%
%TO.N,Net-(D6-Pad2)*%
X91573600Y-108698400D03*
D27*
%TO.P,R13,2*%
%TO.N,GND*%
X94113600Y-108698400D03*
%TD*%
D15*
%TO.P,R6,1*%
%TO.N,Z1*%
X77976900Y-90313600D03*
D27*
%TO.P,R6,2*%
%TO.N,GND*%
X80516900Y-90313600D03*
%TD*%
D15*
%TO.P,R11,1*%
%TO.N,+VDC*%
X97428100Y-90313600D03*
D27*
%TO.P,R11,2*%
%TO.N,Net-(Q6-Pad1)*%
X99968100Y-90313600D03*
%TD*%
D15*
%TO.P,R7,1*%
%TO.N,+VDC*%
X67592100Y-90313600D03*
D27*
%TO.P,R7,2*%
%TO.N,Net-(Q3-Pad1)*%
X70132100Y-90313600D03*
%TD*%
D15*
%TO.P,R37,1*%
%TO.N,+3V3*%
X102042400Y-102441800D03*
D27*
%TO.P,R37,2*%
%TO.N,D21*%
X104582400Y-102441800D03*
%TD*%
D34*
%TO.P,U2,1,1*%
%TO.N,+VDC*%
X164978400Y-112300500D03*
%TO.P,U2,2,2*%
X168478400Y-112300500D03*
%TO.P,U2,3,3*%
%TO.N,Net-(Q13-Pad3)*%
X174278400Y-112300500D03*
%TO.P,U2,4,4*%
X177778400Y-112300500D03*
%TO.P,U2,5,5*%
X177778400Y-109800500D03*
%TO.P,U2,6,6*%
X174278400Y-109800500D03*
%TO.P,U2,7,7*%
%TO.N,+VDC*%
X168478400Y-109800500D03*
%TO.P,U2,8,8*%
X164978400Y-109800500D03*
%TD*%
D25*
%TO.P,Q10,1,S*%
%TO.N,GND*%
X95932600Y-103664300D03*
D26*
%TO.P,Q10,2,G*%
%TO.N,Net-(D8-Pad2)*%
X97202600Y-103664300D03*
%TO.P,Q10,3,D*%
%TO.N,/InputIsolation/4in*%
X98472600Y-103664300D03*
%TD*%
D32*
%TO.P,D8,1,K*%
%TO.N,/Zone4IO/ZoneInput*%
X185558100Y-76184700D03*
D33*
%TO.P,D8,2,A*%
%TO.N,Net-(D8-Pad2)*%
X185558100Y-86344700D03*
%TD*%
D35*
%TO.P,IC3,1,OUTA*%
%TO.N,D33*%
X70520600Y-114579500D03*
D36*
%TO.P,IC3,2,-INA*%
X70520600Y-112039500D03*
%TO.P,IC3,3,+INA*%
%TO.N,Net-(IC3-Pad3)*%
X70520600Y-109499500D03*
%TO.P,IC3,4,V-*%
%TO.N,GND*%
X70520600Y-106959500D03*
%TO.P,IC3,5,+INB*%
%TO.N,Net-(IC3-Pad5)*%
X62580600Y-106959500D03*
%TO.P,IC3,6,-INB*%
%TO.N,D32*%
X62580600Y-109499500D03*
%TO.P,IC3,7,OUTB*%
X62580600Y-112039500D03*
%TO.P,IC3,8,V+*%
%TO.N,+3V3*%
X62580600Y-114579500D03*
%TD*%
D25*
%TO.P,Q1,1,S*%
%TO.N,GND*%
X79106900Y-103682000D03*
D26*
%TO.P,Q1,2,G*%
%TO.N,Net-(D2-Pad2)*%
X80376900Y-103682000D03*
%TO.P,Q1,3,D*%
%TO.N,/InputIsolation/1in*%
X81646900Y-103682000D03*
%TD*%
D15*
%TO.P,R26,1*%
%TO.N,+3V3*%
X142295000Y-99209700D03*
D27*
%TO.P,R26,2*%
%TO.N,Net-(IC4-Pad7)*%
X139755000Y-99209700D03*
%TD*%
D15*
%TO.P,R36,1*%
%TO.N,+3V3*%
X110516400Y-105882500D03*
D27*
%TO.P,R36,2*%
%TO.N,Net-(IC1-Pad6)*%
X107976400Y-105882500D03*
%TD*%
D15*
%TO.P,R1,1*%
%TO.N,/Zone1IO/ZoneInput*%
X83868300Y-93912900D03*
D27*
%TO.P,R1,2*%
%TO.N,Net-(D2-Pad2)*%
X86408300Y-93912900D03*
%TD*%
D15*
%TO.P,R8,1*%
%TO.N,Net-(Q3-Pad1)*%
X72798600Y-90313600D03*
D27*
%TO.P,R8,2*%
%TO.N,Net-(Q2-Pad3)*%
X75338600Y-90313600D03*
%TD*%
D28*
%TO.P,Q8,1,S*%
%TO.N,GND*%
X137542600Y-81822900D03*
D29*
%TO.P,Q8,2,G*%
%TO.N,Z3*%
X137542600Y-83092900D03*
%TO.P,Q8,3,D*%
%TO.N,Net-(Q8-Pad3)*%
X137542600Y-84362900D03*
%TD*%
D28*
%TO.P,Q5,1,S*%
%TO.N,GND*%
X106673400Y-81749200D03*
D29*
%TO.P,Q5,2,G*%
%TO.N,Z2*%
X106673400Y-83019200D03*
%TO.P,Q5,3,D*%
%TO.N,Net-(Q5-Pad3)*%
X106673400Y-84289200D03*
%TD*%
D15*
%TO.P,C5,1*%
%TO.N,/Zone4IO/ZoneInput*%
X151310400Y-84874400D03*
%TO.P,C5,2*%
%TO.N,GND*%
X151310400Y-79874400D03*
%TD*%
%TO.P,R21,1*%
%TO.N,Net-(Q13-Pad1)*%
X167425100Y-105167700D03*
D27*
%TO.P,R21,2*%
%TO.N,GND*%
X169965100Y-105167700D03*
%TD*%
D15*
%TO.P,R3,1*%
%TO.N,D25*%
X102762800Y-112161900D03*
D27*
%TO.P,R3,2*%
%TO.N,GND*%
X102762800Y-114701900D03*
%TD*%
D15*
%TO.P,R30,1*%
%TO.N,+3V3*%
X79031800Y-112140600D03*
D27*
%TO.P,R30,2*%
%TO.N,D34*%
X79031800Y-114680600D03*
%TD*%
D15*
%TO.P,R12,1*%
%TO.N,Net-(Q6-Pad1)*%
X102602700Y-90291400D03*
D27*
%TO.P,R12,2*%
%TO.N,Net-(Q5-Pad3)*%
X105142700Y-90291400D03*
%TD*%
D15*
%TO.P,R22,1*%
%TO.N,/Zone3IO/ZoneInput*%
X142150900Y-93635300D03*
D27*
%TO.P,R22,2*%
%TO.N,Net-(D6-Pad2)*%
X144690900Y-93635300D03*
%TD*%
D15*
%TO.P,R28,1*%
%TO.N,+3V3*%
X142295000Y-108788400D03*
D27*
%TO.P,R28,2*%
%TO.N,Net-(IC4-Pad3)*%
X139755000Y-108788400D03*
%TD*%
D15*
%TO.P,R20,1*%
%TO.N,Net-(Q12-Pad1)*%
X160459300Y-89971000D03*
D27*
%TO.P,R20,2*%
%TO.N,Net-(Q11-Pad3)*%
X162999300Y-89971000D03*
%TD*%
D15*
%TO.P,R19,1*%
%TO.N,+VDC*%
X155096800Y-90020800D03*
D27*
%TO.P,R19,2*%
%TO.N,Net-(Q12-Pad1)*%
X157636800Y-90020800D03*
%TD*%
D15*
%TO.P,R35,1*%
%TO.N,/Zone4IO/ZoneInput*%
X190329000Y-80096300D03*
D27*
%TO.P,R35,2*%
%TO.N,Net-(D8-Pad2)*%
X190329000Y-82636300D03*
%TD*%
D15*
%TO.P,R10,1*%
%TO.N,Z2*%
X107804100Y-90285900D03*
D27*
%TO.P,R10,2*%
%TO.N,GND*%
X110344100Y-90285900D03*
%TD*%
D32*
%TO.P,D6,1,K*%
%TO.N,/Zone3IO/ZoneInput*%
X142032800Y-90398200D03*
D33*
%TO.P,D6,2,A*%
%TO.N,Net-(D6-Pad2)*%
X152192800Y-90398200D03*
%TD*%
D15*
%TO.P,R32,1*%
%TO.N,+3V3*%
X88612600Y-112140600D03*
D27*
%TO.P,R32,2*%
%TO.N,D36*%
X88612600Y-114680600D03*
%TD*%
D15*
%TO.P,R38,1*%
%TO.N,+3V3*%
X102042400Y-107114000D03*
D27*
%TO.P,R38,2*%
%TO.N,D22*%
X104582400Y-107114000D03*
%TD*%
D15*
%TO.P,R34,1*%
%TO.N,D32*%
X57889400Y-114568900D03*
D27*
%TO.P,R34,2*%
%TO.N,GND*%
X60429400Y-114568900D03*
%TD*%
D37*
%TO.N,GND*%
X175398000Y-94105800D03*
X125284100Y-98667300D03*
X125284100Y-100801900D03*
X115030600Y-115495900D03*
X110681000Y-85364200D03*
%TO.N,+VDC*%
X67496700Y-96478900D03*
%TO.N,+3V3*%
X107153900Y-109240800D03*
%TO.N,/InputIsolation/1in*%
X123475000Y-120266400D03*
X90004700Y-117427600D03*
X132708600Y-115996500D03*
X125054800Y-115996500D03*
%TO.N,/InputIsolation/3in*%
X132890900Y-103319900D03*
X138028300Y-103153700D03*
%TO.N,/InputIsolation/4in*%
X134195600Y-96269700D03*
%TO.N,D21*%
X102620300Y-96568600D03*
X108780100Y-103103500D03*
X108779000Y-109352300D03*
X109822200Y-110805700D03*
%TO.N,D22*%
X113425700Y-98899100D03*
%TO.N,D36*%
X119739455Y-117355526D03*
X119718899Y-112385721D03*
%TO.N,Net-(IC4-Pad3)*%
X134572300Y-109621100D03*
%TO.N,Net-(IC4-Pad5)*%
X134872900Y-105307300D03*
%TO.N,Net-(IC4-Pad7)*%
X135103600Y-98252600D03*
%TO.N,D23*%
X59405200Y-117314900D03*
%TO.N,D19*%
X91082000Y-95292200D03*
%TO.N,D18*%
X108160700Y-115490300D03*
%TO.N,D35*%
X125538200Y-120441600D03*
X125779900Y-108959600D03*
%TO.N,Net-(D8-Pad2)*%
X154634400Y-102151900D03*
%TO.N,RX*%
X109495100Y-91655700D03*
%TO.N,D34*%
X92644600Y-125091200D03*
X123605500Y-123791600D03*
X129920800Y-114701100D03*
X79931300Y-124851400D03*
%TO.N,D17*%
X128316400Y-120643300D03*
%TO.N,Z3*%
X153899200Y-104401300D03*
X110110722Y-115112344D03*
%TO.N,Z4*%
X152205800Y-103122600D03*
X110038196Y-113843478D03*
%TO.N,Z5*%
X109797799Y-112729606D03*
%TO.N,Z6*%
X111397062Y-111476356D03*
%TO.N,Z7*%
X108203776Y-111142231D03*
%TO.N,Z8*%
X104450300Y-110778200D03*
X132447500Y-108633500D03*
%TD*%
D38*
%TO.N,GND*%
X167688000Y-81059600D02*
X167688000Y-81301300D01*
X113405300Y-112692700D02*
X112180200Y-112692700D01*
X159170400Y-107449600D02*
X155361700Y-103640900D01*
D39*
X159170400Y-107449600D02*
X147489000Y-119131000D01*
D40*
X164699000Y-101921000D02*
X165060000Y-101560000D01*
D38*
X111440114Y-115292700D02*
X111198747Y-115051333D01*
X106673000Y-80224500D02*
X106673000Y-81749200D01*
X77074800Y-75806200D02*
X83061000Y-69820000D01*
D39*
X164699000Y-101921000D02*
X159170400Y-107449600D01*
D38*
X167688000Y-81301300D02*
X167688000Y-81543000D01*
D41*
X99060000Y-123190000D02*
X99060000Y-120650000D01*
D38*
X167688000Y-81301300D02*
X167687500Y-81301800D01*
D39*
X178125700Y-91377800D02*
X175242000Y-91377800D01*
D38*
X175398000Y-93477900D02*
X175398000Y-94105800D01*
X80516900Y-85033700D02*
X80516900Y-90313600D01*
X167687500Y-81301800D02*
X167687500Y-81543000D01*
X111198747Y-113674153D02*
X112180200Y-112692700D01*
X98113700Y-114747200D02*
X98113700Y-115872300D01*
X116307900Y-107013800D02*
X116307900Y-104473800D01*
X112180200Y-112042700D02*
X112180200Y-112692700D01*
X99060000Y-116818600D02*
X99060000Y-120650000D01*
X113405300Y-115292700D02*
X111440114Y-115292700D01*
X111198747Y-115051333D02*
X111198747Y-113674153D01*
X110681000Y-81732200D02*
X110681000Y-85364200D01*
D41*
X59207700Y-77798300D02*
X59207700Y-86230200D01*
D38*
X147489000Y-121042000D02*
X147489000Y-121042300D01*
X112423900Y-112042700D02*
X113405300Y-112042700D01*
D39*
X175242000Y-91377800D02*
X165060000Y-101560000D01*
D38*
X98113700Y-115872300D02*
X99060000Y-116818600D01*
X176500000Y-92375400D02*
X175398000Y-93477900D01*
X77074800Y-81816600D02*
X77074800Y-75806200D01*
D39*
X147489000Y-119131000D02*
X147489000Y-121042000D01*
D38*
X113405300Y-115292700D02*
X114827400Y-115292700D01*
X77074800Y-81816600D02*
X77299800Y-81816600D01*
X113405300Y-111392700D02*
X112180200Y-111392700D01*
X77299800Y-81816600D02*
X80516900Y-85033700D01*
X114827400Y-115292700D02*
X115030600Y-115495900D01*
X106673400Y-80987200D02*
X106673400Y-81749200D01*
X112423900Y-112042700D02*
X112180200Y-112042700D01*
X112180200Y-111799000D02*
X112423900Y-112042700D01*
X112180200Y-111392700D02*
X112180200Y-111799000D01*
X137543000Y-79845100D02*
X137543000Y-81822900D01*
X111628000Y-80785100D02*
X110681000Y-81732200D01*
D39*
X165060000Y-101560000D02*
X164699000Y-101921000D01*
D38*
X155361700Y-103640900D02*
X155361700Y-100622000D01*
D41*
X65916000Y-71090000D02*
X59207700Y-77798300D01*
D38*
X137542600Y-80834400D02*
X137542600Y-81822900D01*
D41*
%TO.N,+VDC*%
X60877700Y-91310200D02*
X64792500Y-87395400D01*
X59207700Y-91310200D02*
X60877700Y-91310200D01*
D38*
%TO.N,+3V3*%
X107530400Y-109617300D02*
X107153900Y-109240800D01*
X106305300Y-110092700D02*
X107530400Y-110092700D01*
X107530400Y-110092700D02*
X107530400Y-109617300D01*
D41*
X62580600Y-114580000D02*
X62580600Y-117191000D01*
X62580600Y-117191000D02*
X66040000Y-120650000D01*
X66040000Y-120650000D02*
X66040000Y-123190000D01*
D38*
X62580600Y-114580000D02*
X62580600Y-114579500D01*
D41*
%TO.N,D39*%
X73660000Y-120650000D02*
X73660000Y-123190000D01*
D38*
%TO.N,D21*%
X109885200Y-110742700D02*
X109822200Y-110805700D01*
X113405300Y-110742700D02*
X109885200Y-110742700D01*
%TO.N,D22*%
X114630400Y-100103800D02*
X113425700Y-98899100D01*
X113405300Y-110092700D02*
X114630400Y-110092700D01*
X114630400Y-110092700D02*
X114630400Y-100103800D01*
D41*
%TO.N,D36*%
X71120000Y-120650000D02*
X71120000Y-123190000D01*
%TO.N,D12*%
X96520000Y-123190000D02*
X96520000Y-120650000D01*
%TO.N,D14*%
X93980000Y-123190000D02*
X93980000Y-120650000D01*
%TO.N,D27*%
X91440000Y-120650000D02*
X91440000Y-123190000D01*
%TO.N,D26*%
X88900000Y-120650000D02*
X88900000Y-123190000D01*
%TO.N,D35*%
X78740000Y-120650000D02*
X78740000Y-123190000D01*
%TO.N,D32*%
X81280000Y-120650000D02*
X81280000Y-123190000D01*
%TO.N,D33*%
X83820000Y-120650000D02*
X83820000Y-123190000D01*
%TO.N,D25*%
X86360000Y-120650000D02*
X86360000Y-123190000D01*
%TO.N,EN*%
X68580000Y-120650000D02*
X68580000Y-123190000D01*
%TO.N,D34*%
X76200000Y-120650000D02*
X76200000Y-123190000D01*
D38*
%TO.N,Net-(IC1-Pad6)*%
X118586131Y-113342700D02*
X118595745Y-113333086D01*
X113405300Y-113342700D02*
X118586131Y-113342700D01*
X118595745Y-113333086D02*
X118595745Y-111841645D01*
X118595745Y-111841645D02*
X116307900Y-109553800D01*
%TO.N,Z1*%
X122803389Y-118298311D02*
X123927900Y-117173800D01*
X105155300Y-115292700D02*
X105080789Y-115367211D01*
X106329743Y-118298311D02*
X122803389Y-118298311D01*
X105080789Y-117049357D02*
X106329743Y-118298311D01*
X105080789Y-115367211D02*
X105080789Y-117049357D01*
X106305300Y-115292700D02*
X105155300Y-115292700D01*
%TO.N,Z2*%
X108337714Y-114642700D02*
X110403025Y-116708011D01*
X110403025Y-116708011D02*
X115183389Y-116708011D01*
X115183389Y-116708011D02*
X116127176Y-115764224D01*
X116127176Y-115764224D02*
X122797476Y-115764224D01*
X122797476Y-115764224D02*
X123927900Y-114633800D01*
X106305300Y-114642700D02*
X108337714Y-114642700D01*
%TO.N,Z3*%
X110110722Y-115112344D02*
X109809774Y-115112344D01*
X109809774Y-115112344D02*
X108690130Y-113992700D01*
X108690130Y-113992700D02*
X106305300Y-113992700D01*
%TO.N,Z4*%
X106305300Y-113342700D02*
X109024992Y-113342700D01*
X109525769Y-113843478D02*
X109486756Y-113804465D01*
X109024992Y-113342700D02*
X109486756Y-113804465D01*
X110038196Y-113843478D02*
X109525769Y-113843478D01*
%TO.N,Z5*%
X106305300Y-112692700D02*
X109760893Y-112692700D01*
X109760893Y-112692700D02*
X109797799Y-112729606D01*
%TO.N,Z6*%
X111343207Y-111530211D02*
X111397062Y-111476356D01*
X109527852Y-111530211D02*
X111343207Y-111530211D01*
X109015363Y-112042700D02*
X109527852Y-111530211D01*
X106305300Y-112042700D02*
X109015363Y-112042700D01*
%TO.N,Z7*%
X107953307Y-111392700D02*
X108203776Y-111142231D01*
X106305300Y-111392700D02*
X107953307Y-111392700D01*
%TO.N,Z8*%
X106305300Y-110742700D02*
X104485800Y-110742700D01*
X104485800Y-110742700D02*
X104450300Y-110778200D01*
D41*
%TO.N,Net-(J2-Pad37)*%
X111760000Y-123190000D02*
X111760000Y-120650000D01*
%TD*%
%TA.AperFunction,Conductor*%
%TO.N,GND*%
G36*
X151082923Y-67919279D02*
G01*
X151129813Y-67931843D01*
X151357900Y-67951798D01*
X151585987Y-67931843D01*
X151632877Y-67919279D01*
X151665487Y-67914986D01*
X177549999Y-67914986D01*
X177618120Y-67934988D01*
X177664613Y-67988644D01*
X177675999Y-68040986D01*
X177675999Y-75534986D01*
X183545112Y-75510614D01*
X183613315Y-75530333D01*
X183660030Y-75583795D01*
X183671635Y-75636775D01*
X183661914Y-83127122D01*
X183648250Y-93655835D01*
X183628159Y-93723929D01*
X183574444Y-93770352D01*
X183522473Y-93781671D01*
X176510056Y-93794070D01*
X176441900Y-93774188D01*
X176395312Y-93720615D01*
X176383833Y-93667845D01*
X176404958Y-81833100D01*
X178037202Y-81833100D01*
X178057157Y-82061187D01*
X178058581Y-82066500D01*
X178058581Y-82066502D01*
X178101831Y-82227910D01*
X178116416Y-82282343D01*
X178118739Y-82287324D01*
X178118739Y-82287325D01*
X178210851Y-82484862D01*
X178210854Y-82484867D01*
X178213177Y-82489849D01*
X178344502Y-82677400D01*
X178506400Y-82839298D01*
X178510908Y-82842455D01*
X178510911Y-82842457D01*
X178561358Y-82877780D01*
X178693951Y-82970623D01*
X178698933Y-82972946D01*
X178698938Y-82972949D01*
X178813673Y-83026450D01*
X178901457Y-83067384D01*
X178906765Y-83068806D01*
X178906767Y-83068807D01*
X179117298Y-83125219D01*
X179117300Y-83125219D01*
X179122613Y-83126643D01*
X179350700Y-83146598D01*
X179578787Y-83126643D01*
X179584100Y-83125219D01*
X179584102Y-83125219D01*
X179794633Y-83068807D01*
X179794635Y-83068806D01*
X179799943Y-83067384D01*
X179887727Y-83026450D01*
X180002462Y-82972949D01*
X180002467Y-82972946D01*
X180007449Y-82970623D01*
X180140042Y-82877780D01*
X180190489Y-82842457D01*
X180190492Y-82842455D01*
X180195000Y-82839298D01*
X180356898Y-82677400D01*
X180488223Y-82489849D01*
X180490546Y-82484867D01*
X180490549Y-82484862D01*
X180582661Y-82287325D01*
X180582661Y-82287324D01*
X180584984Y-82282343D01*
X180599570Y-82227910D01*
X180642819Y-82066502D01*
X180642819Y-82066500D01*
X180644243Y-82061187D01*
X180664198Y-81833100D01*
X180644243Y-81605013D01*
X180642819Y-81599698D01*
X180586407Y-81389167D01*
X180586406Y-81389165D01*
X180584984Y-81383857D01*
X180579206Y-81371466D01*
X180490549Y-81181338D01*
X180490546Y-81181333D01*
X180488223Y-81176351D01*
X180407380Y-81060895D01*
X180360057Y-80993311D01*
X180360055Y-80993308D01*
X180356898Y-80988800D01*
X180195000Y-80826902D01*
X180190492Y-80823745D01*
X180190489Y-80823743D01*
X180112311Y-80769002D01*
X180007449Y-80695577D01*
X180002467Y-80693254D01*
X180002462Y-80693251D01*
X179804925Y-80601139D01*
X179804924Y-80601139D01*
X179799943Y-80598816D01*
X179794635Y-80597394D01*
X179794633Y-80597393D01*
X179584102Y-80540981D01*
X179584100Y-80540981D01*
X179578787Y-80539557D01*
X179350700Y-80519602D01*
X179122613Y-80539557D01*
X179117300Y-80540981D01*
X179117298Y-80540981D01*
X178906767Y-80597393D01*
X178906765Y-80597394D01*
X178901457Y-80598816D01*
X178896476Y-80601139D01*
X178896475Y-80601139D01*
X178698938Y-80693251D01*
X178698933Y-80693254D01*
X178693951Y-80695577D01*
X178589089Y-80769002D01*
X178510911Y-80823743D01*
X178510908Y-80823745D01*
X178506400Y-80826902D01*
X178344502Y-80988800D01*
X178341345Y-80993308D01*
X178341343Y-80993311D01*
X178294020Y-81060895D01*
X178213177Y-81176351D01*
X178210854Y-81181333D01*
X178210851Y-81181338D01*
X178122194Y-81371466D01*
X178116416Y-81383857D01*
X178114994Y-81389165D01*
X178114993Y-81389167D01*
X178058581Y-81599698D01*
X178057157Y-81605013D01*
X178037202Y-81833100D01*
X176404958Y-81833100D01*
X176405967Y-81268103D01*
X176405967Y-81268102D01*
X176405999Y-81249986D01*
X176392425Y-81249974D01*
X176392423Y-81249974D01*
X164705807Y-81239982D01*
X163793879Y-81239202D01*
X163725776Y-81219142D01*
X163679329Y-81165446D01*
X163676005Y-81157431D01*
X163642968Y-81069305D01*
X163642967Y-81069303D01*
X163639815Y-81060895D01*
X163552461Y-80944339D01*
X163435905Y-80856985D01*
X163299516Y-80805855D01*
X163237334Y-80799100D01*
X161221066Y-80799100D01*
X161158884Y-80805855D01*
X161022495Y-80856985D01*
X160905939Y-80944339D01*
X160818585Y-81060895D01*
X160815433Y-81069303D01*
X160815431Y-81069307D01*
X160813434Y-81074633D01*
X160770792Y-81131397D01*
X160704230Y-81156096D01*
X160634882Y-81140888D01*
X160617361Y-81129284D01*
X160508696Y-81043465D01*
X160508692Y-81043463D01*
X160504641Y-81040263D01*
X160496124Y-81035561D01*
X160419587Y-80993311D01*
X160293235Y-80923561D01*
X160288366Y-80921837D01*
X160288362Y-80921835D01*
X160070483Y-80844680D01*
X160070479Y-80844679D01*
X160065608Y-80842954D01*
X160060515Y-80842047D01*
X160060512Y-80842046D01*
X159957757Y-80823743D01*
X159827872Y-80800607D01*
X159734757Y-80799469D01*
X159591582Y-80797719D01*
X159591580Y-80797719D01*
X159586412Y-80797656D01*
X159347712Y-80834183D01*
X159118183Y-80909204D01*
X159113595Y-80911592D01*
X159113591Y-80911594D01*
X158972766Y-80984903D01*
X158903989Y-81020706D01*
X158899859Y-81023807D01*
X158899853Y-81023811D01*
X158715018Y-81162590D01*
X158710883Y-81165695D01*
X158682108Y-81195806D01*
X158620585Y-81231234D01*
X158590908Y-81234753D01*
X158394204Y-81234585D01*
X158250267Y-81234462D01*
X158182164Y-81214402D01*
X158161637Y-81197031D01*
X158161408Y-81197276D01*
X158157624Y-81193747D01*
X158154147Y-81189926D01*
X158150096Y-81186727D01*
X158150092Y-81186723D01*
X157968696Y-81043465D01*
X157968692Y-81043463D01*
X157964641Y-81040263D01*
X157956124Y-81035561D01*
X157879587Y-80993311D01*
X157753235Y-80923561D01*
X157748366Y-80921837D01*
X157748362Y-80921835D01*
X157530483Y-80844680D01*
X157530479Y-80844679D01*
X157525608Y-80842954D01*
X157520515Y-80842047D01*
X157520512Y-80842046D01*
X157417757Y-80823743D01*
X157287872Y-80800607D01*
X157194757Y-80799469D01*
X157051582Y-80797719D01*
X157051580Y-80797719D01*
X157046412Y-80797656D01*
X156807712Y-80834183D01*
X156578183Y-80909204D01*
X156573595Y-80911592D01*
X156573591Y-80911594D01*
X156432766Y-80984903D01*
X156363989Y-81020706D01*
X156359859Y-81023807D01*
X156359853Y-81023811D01*
X156299259Y-81069307D01*
X156170883Y-81165695D01*
X156167317Y-81169427D01*
X156167307Y-81169436D01*
X156144183Y-81193634D01*
X156082659Y-81229064D01*
X156052981Y-81232583D01*
X132640393Y-81212564D01*
X132572290Y-81192504D01*
X132525843Y-81138808D01*
X132522519Y-81130794D01*
X132501465Y-81074633D01*
X132496315Y-81060895D01*
X132408961Y-80944339D01*
X132292405Y-80856985D01*
X132156016Y-80805855D01*
X132093834Y-80799100D01*
X130077566Y-80799100D01*
X130015384Y-80805855D01*
X129878995Y-80856985D01*
X129762439Y-80944339D01*
X129675085Y-81060895D01*
X129671933Y-81069303D01*
X129671931Y-81069307D01*
X129669934Y-81074633D01*
X129627292Y-81131397D01*
X129560730Y-81156096D01*
X129491382Y-81140888D01*
X129473861Y-81129284D01*
X129365196Y-81043465D01*
X129365192Y-81043463D01*
X129361141Y-81040263D01*
X129352624Y-81035561D01*
X129276087Y-80993311D01*
X129149735Y-80923561D01*
X129144866Y-80921837D01*
X129144862Y-80921835D01*
X128926983Y-80844680D01*
X128926979Y-80844679D01*
X128922108Y-80842954D01*
X128917015Y-80842047D01*
X128917012Y-80842046D01*
X128814257Y-80823743D01*
X128684372Y-80800607D01*
X128591257Y-80799469D01*
X128448082Y-80797719D01*
X128448080Y-80797719D01*
X128442912Y-80797656D01*
X128204212Y-80834183D01*
X127974683Y-80909204D01*
X127970095Y-80911592D01*
X127970091Y-80911594D01*
X127829266Y-80984903D01*
X127760489Y-81020706D01*
X127756359Y-81023807D01*
X127756353Y-81023811D01*
X127571518Y-81162590D01*
X127567383Y-81165695D01*
X127563817Y-81169427D01*
X127559943Y-81172867D01*
X127559170Y-81171996D01*
X127502523Y-81204625D01*
X127472839Y-81208146D01*
X127107719Y-81207833D01*
X127076935Y-81207807D01*
X127008832Y-81187747D01*
X126998951Y-81180689D01*
X126825196Y-81043465D01*
X126825192Y-81043463D01*
X126821141Y-81040263D01*
X126812624Y-81035561D01*
X126736087Y-80993311D01*
X126609735Y-80923561D01*
X126604866Y-80921837D01*
X126604862Y-80921835D01*
X126386983Y-80844680D01*
X126386979Y-80844679D01*
X126382108Y-80842954D01*
X126377015Y-80842047D01*
X126377012Y-80842046D01*
X126274257Y-80823743D01*
X126144372Y-80800607D01*
X126051257Y-80799469D01*
X125908082Y-80797719D01*
X125908080Y-80797719D01*
X125902912Y-80797656D01*
X125664212Y-80834183D01*
X125434683Y-80909204D01*
X125430095Y-80911592D01*
X125430091Y-80911594D01*
X125289266Y-80984903D01*
X125220489Y-81020706D01*
X125216359Y-81023807D01*
X125216353Y-81023811D01*
X125031518Y-81162590D01*
X125027383Y-81165695D01*
X125023817Y-81169427D01*
X125019943Y-81172867D01*
X125018599Y-81171353D01*
X124964580Y-81202458D01*
X124934912Y-81205975D01*
X102653680Y-81186924D01*
X102585577Y-81166864D01*
X102539130Y-81113168D01*
X102535818Y-81105183D01*
X102519215Y-81060895D01*
X102513835Y-81053716D01*
X102513833Y-81053713D01*
X102441110Y-80956680D01*
X102431861Y-80944339D01*
X102315305Y-80856985D01*
X102178916Y-80805855D01*
X102116734Y-80799100D01*
X100100466Y-80799100D01*
X100038284Y-80805855D01*
X99901895Y-80856985D01*
X99785339Y-80944339D01*
X99697985Y-81060895D01*
X99694833Y-81069303D01*
X99694831Y-81069307D01*
X99692834Y-81074633D01*
X99650192Y-81131397D01*
X99583630Y-81156096D01*
X99514282Y-81140888D01*
X99496761Y-81129284D01*
X99388096Y-81043465D01*
X99388092Y-81043463D01*
X99384041Y-81040263D01*
X99375524Y-81035561D01*
X99298987Y-80993311D01*
X99172635Y-80923561D01*
X99167766Y-80921837D01*
X99167762Y-80921835D01*
X98949883Y-80844680D01*
X98949879Y-80844679D01*
X98945008Y-80842954D01*
X98939915Y-80842047D01*
X98939912Y-80842046D01*
X98837157Y-80823743D01*
X98707272Y-80800607D01*
X98614157Y-80799469D01*
X98470982Y-80797719D01*
X98470980Y-80797719D01*
X98465812Y-80797656D01*
X98227112Y-80834183D01*
X97997583Y-80909204D01*
X97992995Y-80911592D01*
X97992991Y-80911594D01*
X97852166Y-80984903D01*
X97783389Y-81020706D01*
X97601462Y-81157301D01*
X97534981Y-81182206D01*
X97525727Y-81182539D01*
X97172791Y-81182237D01*
X97067344Y-81182147D01*
X96999240Y-81162086D01*
X96989360Y-81155029D01*
X96848096Y-81043465D01*
X96848092Y-81043463D01*
X96844041Y-81040263D01*
X96835524Y-81035561D01*
X96758987Y-80993311D01*
X96632635Y-80923561D01*
X96627766Y-80921837D01*
X96627762Y-80921835D01*
X96409883Y-80844680D01*
X96409879Y-80844679D01*
X96405008Y-80842954D01*
X96399915Y-80842047D01*
X96399912Y-80842046D01*
X96297157Y-80823743D01*
X96167272Y-80800607D01*
X96074157Y-80799469D01*
X95930982Y-80797719D01*
X95930980Y-80797719D01*
X95925812Y-80797656D01*
X95687112Y-80834183D01*
X95457583Y-80909204D01*
X95452995Y-80911592D01*
X95452991Y-80911594D01*
X95312166Y-80984903D01*
X95243389Y-81020706D01*
X95239259Y-81023807D01*
X95239253Y-81023811D01*
X95064354Y-81155130D01*
X94997870Y-81180036D01*
X94988598Y-81180370D01*
X73154843Y-81161701D01*
X73086741Y-81141641D01*
X73054128Y-81111268D01*
X73012961Y-81056339D01*
X72896405Y-80968985D01*
X72760016Y-80917855D01*
X72704140Y-80911785D01*
X72701231Y-80911469D01*
X72697834Y-80911100D01*
X70681566Y-80911100D01*
X70678169Y-80911469D01*
X70675260Y-80911785D01*
X70619384Y-80917855D01*
X70482995Y-80968985D01*
X70366439Y-81056339D01*
X70361059Y-81063518D01*
X70361057Y-81063520D01*
X70327150Y-81108762D01*
X70270291Y-81151277D01*
X70226218Y-81159197D01*
X70009725Y-81159012D01*
X69948944Y-81143322D01*
X69753735Y-81035561D01*
X69748866Y-81033837D01*
X69748862Y-81033835D01*
X69530983Y-80956680D01*
X69530979Y-80956679D01*
X69526108Y-80954954D01*
X69521015Y-80954047D01*
X69521012Y-80954046D01*
X69420125Y-80936076D01*
X69288372Y-80912607D01*
X69195257Y-80911469D01*
X69052082Y-80909719D01*
X69052080Y-80909719D01*
X69046912Y-80909656D01*
X68808212Y-80946183D01*
X68578683Y-81021204D01*
X68574095Y-81023592D01*
X68574091Y-81023594D01*
X68369080Y-81130316D01*
X68364489Y-81132706D01*
X68360362Y-81135805D01*
X68356615Y-81138164D01*
X68289371Y-81157540D01*
X67909670Y-81157216D01*
X67465784Y-81156836D01*
X67405004Y-81141147D01*
X67213735Y-81035561D01*
X67208866Y-81033837D01*
X67208862Y-81033835D01*
X66990983Y-80956680D01*
X66990979Y-80956679D01*
X66986108Y-80954954D01*
X66981015Y-80954047D01*
X66981012Y-80954046D01*
X66880125Y-80936076D01*
X66748372Y-80912607D01*
X66655257Y-80911469D01*
X66512082Y-80909719D01*
X66512080Y-80909719D01*
X66506912Y-80909656D01*
X66268212Y-80946183D01*
X66038683Y-81021204D01*
X66034095Y-81023592D01*
X66034091Y-81023594D01*
X65931586Y-81076955D01*
X65824489Y-81132706D01*
X65820349Y-81135814D01*
X65820067Y-81135992D01*
X65752817Y-81155372D01*
X63195657Y-81153185D01*
X62296245Y-81152416D01*
X62228142Y-81132356D01*
X62181695Y-81078660D01*
X62170355Y-81027034D01*
X62170338Y-81023594D01*
X62121349Y-71042526D01*
X69183050Y-71042526D01*
X69195947Y-71311019D01*
X69248388Y-71574656D01*
X69339220Y-71827646D01*
X69466450Y-72064431D01*
X69469241Y-72068168D01*
X69469245Y-72068175D01*
X69550887Y-72177506D01*
X69627281Y-72279810D01*
X69630590Y-72283090D01*
X69630595Y-72283096D01*
X69814863Y-72465762D01*
X69818180Y-72469050D01*
X69821942Y-72471808D01*
X69821945Y-72471811D01*
X69870912Y-72507715D01*
X70034954Y-72627995D01*
X70039089Y-72630171D01*
X70039093Y-72630173D01*
X70268698Y-72750975D01*
X70272840Y-72753154D01*
X70526613Y-72841775D01*
X70531206Y-72842647D01*
X70786109Y-72891042D01*
X70786112Y-72891042D01*
X70790698Y-72891913D01*
X70918370Y-72896929D01*
X71054625Y-72902283D01*
X71054630Y-72902283D01*
X71059293Y-72902466D01*
X71163607Y-72891042D01*
X71321844Y-72873713D01*
X71321850Y-72873712D01*
X71326497Y-72873203D01*
X71438302Y-72843767D01*
X71581918Y-72805956D01*
X71581920Y-72805955D01*
X71586441Y-72804765D01*
X71693795Y-72758642D01*
X71829120Y-72700502D01*
X71829122Y-72700501D01*
X71833414Y-72698657D01*
X71952071Y-72625230D01*
X72058017Y-72559669D01*
X72058021Y-72559666D01*
X72061990Y-72557210D01*
X72202648Y-72438134D01*
X74267500Y-72438134D01*
X74274255Y-72500316D01*
X74325385Y-72636705D01*
X74412739Y-72753261D01*
X74529295Y-72840615D01*
X74665684Y-72891745D01*
X74727866Y-72898500D01*
X77424134Y-72898500D01*
X77486316Y-72891745D01*
X77622705Y-72840615D01*
X77739261Y-72753261D01*
X77826615Y-72636705D01*
X77877745Y-72500316D01*
X77884500Y-72438134D01*
X77884500Y-71042526D01*
X99663050Y-71042526D01*
X99675947Y-71311019D01*
X99728388Y-71574656D01*
X99819220Y-71827646D01*
X99946450Y-72064431D01*
X99949241Y-72068168D01*
X99949245Y-72068175D01*
X100030887Y-72177506D01*
X100107281Y-72279810D01*
X100110590Y-72283090D01*
X100110595Y-72283096D01*
X100294863Y-72465762D01*
X100298180Y-72469050D01*
X100301942Y-72471808D01*
X100301945Y-72471811D01*
X100350912Y-72507715D01*
X100514954Y-72627995D01*
X100519089Y-72630171D01*
X100519093Y-72630173D01*
X100748698Y-72750975D01*
X100752840Y-72753154D01*
X101006613Y-72841775D01*
X101011206Y-72842647D01*
X101266109Y-72891042D01*
X101266112Y-72891042D01*
X101270698Y-72891913D01*
X101398370Y-72896929D01*
X101534625Y-72902283D01*
X101534630Y-72902283D01*
X101539293Y-72902466D01*
X101643607Y-72891042D01*
X101801844Y-72873713D01*
X101801850Y-72873712D01*
X101806497Y-72873203D01*
X101918302Y-72843767D01*
X102061918Y-72805956D01*
X102061920Y-72805955D01*
X102066441Y-72804765D01*
X102173795Y-72758642D01*
X102309120Y-72700502D01*
X102309122Y-72700501D01*
X102313414Y-72698657D01*
X102432071Y-72625230D01*
X102538017Y-72559669D01*
X102538021Y-72559666D01*
X102541990Y-72557210D01*
X102682648Y-72438134D01*
X104747500Y-72438134D01*
X104754255Y-72500316D01*
X104805385Y-72636705D01*
X104892739Y-72753261D01*
X105009295Y-72840615D01*
X105145684Y-72891745D01*
X105207866Y-72898500D01*
X107904134Y-72898500D01*
X107966316Y-72891745D01*
X108102705Y-72840615D01*
X108219261Y-72753261D01*
X108306615Y-72636705D01*
X108357745Y-72500316D01*
X108364500Y-72438134D01*
X108364500Y-71042526D01*
X130143050Y-71042526D01*
X130155947Y-71311019D01*
X130208388Y-71574656D01*
X130299220Y-71827646D01*
X130426450Y-72064431D01*
X130429241Y-72068168D01*
X130429245Y-72068175D01*
X130510887Y-72177506D01*
X130587281Y-72279810D01*
X130590590Y-72283090D01*
X130590595Y-72283096D01*
X130774863Y-72465762D01*
X130778180Y-72469050D01*
X130781942Y-72471808D01*
X130781945Y-72471811D01*
X130830912Y-72507715D01*
X130994954Y-72627995D01*
X130999089Y-72630171D01*
X130999093Y-72630173D01*
X131228698Y-72750975D01*
X131232840Y-72753154D01*
X131486613Y-72841775D01*
X131491206Y-72842647D01*
X131746109Y-72891042D01*
X131746112Y-72891042D01*
X131750698Y-72891913D01*
X131878370Y-72896929D01*
X132014625Y-72902283D01*
X132014630Y-72902283D01*
X132019293Y-72902466D01*
X132123607Y-72891042D01*
X132281844Y-72873713D01*
X132281850Y-72873712D01*
X132286497Y-72873203D01*
X132398302Y-72843767D01*
X132541918Y-72805956D01*
X132541920Y-72805955D01*
X132546441Y-72804765D01*
X132653795Y-72758642D01*
X132789120Y-72700502D01*
X132789122Y-72700501D01*
X132793414Y-72698657D01*
X132912071Y-72625230D01*
X133018017Y-72559669D01*
X133018021Y-72559666D01*
X133021990Y-72557210D01*
X133162648Y-72438134D01*
X135227500Y-72438134D01*
X135234255Y-72500316D01*
X135285385Y-72636705D01*
X135372739Y-72753261D01*
X135489295Y-72840615D01*
X135625684Y-72891745D01*
X135687866Y-72898500D01*
X138384134Y-72898500D01*
X138446316Y-72891745D01*
X138582705Y-72840615D01*
X138699261Y-72753261D01*
X138786615Y-72636705D01*
X138837745Y-72500316D01*
X138844500Y-72438134D01*
X138844500Y-71042526D01*
X160623050Y-71042526D01*
X160635947Y-71311019D01*
X160688388Y-71574656D01*
X160779220Y-71827646D01*
X160906450Y-72064431D01*
X160909241Y-72068168D01*
X160909245Y-72068175D01*
X160990887Y-72177506D01*
X161067281Y-72279810D01*
X161070590Y-72283090D01*
X161070595Y-72283096D01*
X161254863Y-72465762D01*
X161258180Y-72469050D01*
X161261942Y-72471808D01*
X161261945Y-72471811D01*
X161310912Y-72507715D01*
X161474954Y-72627995D01*
X161479089Y-72630171D01*
X161479093Y-72630173D01*
X161708698Y-72750975D01*
X161712840Y-72753154D01*
X161966613Y-72841775D01*
X161971206Y-72842647D01*
X162226109Y-72891042D01*
X162226112Y-72891042D01*
X162230698Y-72891913D01*
X162358370Y-72896929D01*
X162494625Y-72902283D01*
X162494630Y-72902283D01*
X162499293Y-72902466D01*
X162603607Y-72891042D01*
X162761844Y-72873713D01*
X162761850Y-72873712D01*
X162766497Y-72873203D01*
X162878302Y-72843767D01*
X163021918Y-72805956D01*
X163021920Y-72805955D01*
X163026441Y-72804765D01*
X163133795Y-72758642D01*
X163269120Y-72700502D01*
X163269122Y-72700501D01*
X163273414Y-72698657D01*
X163392071Y-72625230D01*
X163498017Y-72559669D01*
X163498021Y-72559666D01*
X163501990Y-72557210D01*
X163642648Y-72438134D01*
X165707500Y-72438134D01*
X165714255Y-72500316D01*
X165765385Y-72636705D01*
X165852739Y-72753261D01*
X165969295Y-72840615D01*
X166105684Y-72891745D01*
X166167866Y-72898500D01*
X168864134Y-72898500D01*
X168926316Y-72891745D01*
X169062705Y-72840615D01*
X169179261Y-72753261D01*
X169266615Y-72636705D01*
X169317745Y-72500316D01*
X169324500Y-72438134D01*
X169324500Y-69741866D01*
X169317745Y-69679684D01*
X169266615Y-69543295D01*
X169179261Y-69426739D01*
X169062705Y-69339385D01*
X168926316Y-69288255D01*
X168864134Y-69281500D01*
X166167866Y-69281500D01*
X166105684Y-69288255D01*
X165969295Y-69339385D01*
X165852739Y-69426739D01*
X165765385Y-69543295D01*
X165714255Y-69679684D01*
X165707500Y-69741866D01*
X165707500Y-72438134D01*
X163642648Y-72438134D01*
X163707149Y-72383530D01*
X163884382Y-72181434D01*
X164029797Y-71955361D01*
X164140199Y-71710278D01*
X164177209Y-71579051D01*
X164211893Y-71456072D01*
X164211894Y-71456069D01*
X164213163Y-71451568D01*
X164231043Y-71311019D01*
X164246688Y-71188045D01*
X164246688Y-71188041D01*
X164247086Y-71184915D01*
X164249571Y-71090000D01*
X164229650Y-70821937D01*
X164228619Y-70817379D01*
X164171361Y-70564331D01*
X164171360Y-70564326D01*
X164170327Y-70559763D01*
X164072902Y-70309238D01*
X163939518Y-70075864D01*
X163773105Y-69864769D01*
X163577317Y-69680591D01*
X163379407Y-69543295D01*
X163360299Y-69530039D01*
X163360296Y-69530037D01*
X163356457Y-69527374D01*
X163352264Y-69525306D01*
X163119564Y-69410551D01*
X163119561Y-69410550D01*
X163115376Y-69408486D01*
X163067745Y-69393239D01*
X162889657Y-69336233D01*
X162859370Y-69326538D01*
X162854763Y-69325788D01*
X162854760Y-69325787D01*
X162641337Y-69291029D01*
X162594063Y-69283330D01*
X162463719Y-69281624D01*
X162329961Y-69279873D01*
X162329958Y-69279873D01*
X162325284Y-69279812D01*
X162058937Y-69316060D01*
X161800874Y-69391278D01*
X161556763Y-69503815D01*
X161552854Y-69506378D01*
X161335881Y-69648631D01*
X161335876Y-69648635D01*
X161331968Y-69651197D01*
X161131426Y-69830188D01*
X160959544Y-70036854D01*
X160820096Y-70266656D01*
X160716148Y-70514545D01*
X160649981Y-70775077D01*
X160623050Y-71042526D01*
X138844500Y-71042526D01*
X138844500Y-69741866D01*
X138837745Y-69679684D01*
X138786615Y-69543295D01*
X138699261Y-69426739D01*
X138582705Y-69339385D01*
X138446316Y-69288255D01*
X138384134Y-69281500D01*
X135687866Y-69281500D01*
X135625684Y-69288255D01*
X135489295Y-69339385D01*
X135372739Y-69426739D01*
X135285385Y-69543295D01*
X135234255Y-69679684D01*
X135227500Y-69741866D01*
X135227500Y-72438134D01*
X133162648Y-72438134D01*
X133227149Y-72383530D01*
X133404382Y-72181434D01*
X133549797Y-71955361D01*
X133660199Y-71710278D01*
X133697209Y-71579051D01*
X133731893Y-71456072D01*
X133731894Y-71456069D01*
X133733163Y-71451568D01*
X133751043Y-71311019D01*
X133766688Y-71188045D01*
X133766688Y-71188041D01*
X133767086Y-71184915D01*
X133769571Y-71090000D01*
X133749650Y-70821937D01*
X133748619Y-70817379D01*
X133691361Y-70564331D01*
X133691360Y-70564326D01*
X133690327Y-70559763D01*
X133592902Y-70309238D01*
X133459518Y-70075864D01*
X133293105Y-69864769D01*
X133097317Y-69680591D01*
X132899407Y-69543295D01*
X132880299Y-69530039D01*
X132880296Y-69530037D01*
X132876457Y-69527374D01*
X132872264Y-69525306D01*
X132639564Y-69410551D01*
X132639561Y-69410550D01*
X132635376Y-69408486D01*
X132587745Y-69393239D01*
X132409657Y-69336233D01*
X132379370Y-69326538D01*
X132374763Y-69325788D01*
X132374760Y-69325787D01*
X132161337Y-69291029D01*
X132114063Y-69283330D01*
X131983719Y-69281624D01*
X131849961Y-69279873D01*
X131849958Y-69279873D01*
X131845284Y-69279812D01*
X131578937Y-69316060D01*
X131320874Y-69391278D01*
X131076763Y-69503815D01*
X131072854Y-69506378D01*
X130855881Y-69648631D01*
X130855876Y-69648635D01*
X130851968Y-69651197D01*
X130651426Y-69830188D01*
X130479544Y-70036854D01*
X130340096Y-70266656D01*
X130236148Y-70514545D01*
X130169981Y-70775077D01*
X130143050Y-71042526D01*
X108364500Y-71042526D01*
X108364500Y-69741866D01*
X108357745Y-69679684D01*
X108306615Y-69543295D01*
X108219261Y-69426739D01*
X108102705Y-69339385D01*
X107966316Y-69288255D01*
X107904134Y-69281500D01*
X105207866Y-69281500D01*
X105145684Y-69288255D01*
X105009295Y-69339385D01*
X104892739Y-69426739D01*
X104805385Y-69543295D01*
X104754255Y-69679684D01*
X104747500Y-69741866D01*
X104747500Y-72438134D01*
X102682648Y-72438134D01*
X102747149Y-72383530D01*
X102924382Y-72181434D01*
X103069797Y-71955361D01*
X103180199Y-71710278D01*
X103217209Y-71579051D01*
X103251893Y-71456072D01*
X103251894Y-71456069D01*
X103253163Y-71451568D01*
X103271043Y-71311019D01*
X103286688Y-71188045D01*
X103286688Y-71188041D01*
X103287086Y-71184915D01*
X103289571Y-71090000D01*
X103269650Y-70821937D01*
X103268619Y-70817379D01*
X103211361Y-70564331D01*
X103211360Y-70564326D01*
X103210327Y-70559763D01*
X103112902Y-70309238D01*
X102979518Y-70075864D01*
X102813105Y-69864769D01*
X102617317Y-69680591D01*
X102419407Y-69543295D01*
X102400299Y-69530039D01*
X102400296Y-69530037D01*
X102396457Y-69527374D01*
X102392264Y-69525306D01*
X102159564Y-69410551D01*
X102159561Y-69410550D01*
X102155376Y-69408486D01*
X102107745Y-69393239D01*
X101929657Y-69336233D01*
X101899370Y-69326538D01*
X101894763Y-69325788D01*
X101894760Y-69325787D01*
X101681337Y-69291029D01*
X101634063Y-69283330D01*
X101503719Y-69281624D01*
X101369961Y-69279873D01*
X101369958Y-69279873D01*
X101365284Y-69279812D01*
X101098937Y-69316060D01*
X100840874Y-69391278D01*
X100596763Y-69503815D01*
X100592854Y-69506378D01*
X100375881Y-69648631D01*
X100375876Y-69648635D01*
X100371968Y-69651197D01*
X100171426Y-69830188D01*
X99999544Y-70036854D01*
X99860096Y-70266656D01*
X99756148Y-70514545D01*
X99689981Y-70775077D01*
X99663050Y-71042526D01*
X77884500Y-71042526D01*
X77884500Y-69741866D01*
X77877745Y-69679684D01*
X77870253Y-69659700D01*
X87795502Y-69659700D01*
X87815457Y-69887787D01*
X87816881Y-69893100D01*
X87816881Y-69893102D01*
X87856470Y-70040847D01*
X87874716Y-70108943D01*
X87877039Y-70113924D01*
X87877039Y-70113925D01*
X87969151Y-70311462D01*
X87969154Y-70311467D01*
X87971477Y-70316449D01*
X88102802Y-70504000D01*
X88264700Y-70665898D01*
X88269208Y-70669055D01*
X88269211Y-70669057D01*
X88347389Y-70723798D01*
X88452251Y-70797223D01*
X88457233Y-70799546D01*
X88457238Y-70799549D01*
X88515233Y-70826592D01*
X88659757Y-70893984D01*
X88665065Y-70895406D01*
X88665067Y-70895407D01*
X88875598Y-70951819D01*
X88875600Y-70951819D01*
X88880913Y-70953243D01*
X89109000Y-70973198D01*
X89337087Y-70953243D01*
X89342400Y-70951819D01*
X89342402Y-70951819D01*
X89552933Y-70895407D01*
X89552935Y-70895406D01*
X89558243Y-70893984D01*
X89702767Y-70826592D01*
X89760762Y-70799549D01*
X89760767Y-70799546D01*
X89765749Y-70797223D01*
X89870611Y-70723798D01*
X89948789Y-70669057D01*
X89948792Y-70669055D01*
X89953300Y-70665898D01*
X90115198Y-70504000D01*
X90246523Y-70316449D01*
X90248846Y-70311467D01*
X90248849Y-70311462D01*
X90340961Y-70113925D01*
X90340961Y-70113924D01*
X90343284Y-70108943D01*
X90361531Y-70040847D01*
X90401119Y-69893102D01*
X90401119Y-69893100D01*
X90402543Y-69887787D01*
X90422498Y-69659700D01*
X90402543Y-69431613D01*
X90399795Y-69421358D01*
X90344707Y-69215767D01*
X90344706Y-69215765D01*
X90343284Y-69210457D01*
X90340961Y-69205475D01*
X90248849Y-69007938D01*
X90248846Y-69007933D01*
X90246523Y-69002951D01*
X90115198Y-68815400D01*
X89953300Y-68653502D01*
X89948792Y-68650345D01*
X89948789Y-68650343D01*
X89870611Y-68595602D01*
X89765749Y-68522177D01*
X89760767Y-68519854D01*
X89760762Y-68519851D01*
X89563225Y-68427739D01*
X89563224Y-68427739D01*
X89558243Y-68425416D01*
X89552935Y-68423994D01*
X89552933Y-68423993D01*
X89342402Y-68367581D01*
X89342400Y-68367581D01*
X89337087Y-68366157D01*
X89109000Y-68346202D01*
X88880913Y-68366157D01*
X88875600Y-68367581D01*
X88875598Y-68367581D01*
X88665067Y-68423993D01*
X88665065Y-68423994D01*
X88659757Y-68425416D01*
X88654776Y-68427739D01*
X88654775Y-68427739D01*
X88457238Y-68519851D01*
X88457233Y-68519854D01*
X88452251Y-68522177D01*
X88347389Y-68595602D01*
X88269211Y-68650343D01*
X88269208Y-68650345D01*
X88264700Y-68653502D01*
X88102802Y-68815400D01*
X87971477Y-69002951D01*
X87969154Y-69007933D01*
X87969151Y-69007938D01*
X87877039Y-69205475D01*
X87874716Y-69210457D01*
X87873294Y-69215765D01*
X87873293Y-69215767D01*
X87818205Y-69421358D01*
X87815457Y-69431613D01*
X87795502Y-69659700D01*
X77870253Y-69659700D01*
X77826615Y-69543295D01*
X77739261Y-69426739D01*
X77622705Y-69339385D01*
X77486316Y-69288255D01*
X77424134Y-69281500D01*
X74727866Y-69281500D01*
X74665684Y-69288255D01*
X74529295Y-69339385D01*
X74412739Y-69426739D01*
X74325385Y-69543295D01*
X74274255Y-69679684D01*
X74267500Y-69741866D01*
X74267500Y-72438134D01*
X72202648Y-72438134D01*
X72267149Y-72383530D01*
X72444382Y-72181434D01*
X72589797Y-71955361D01*
X72700199Y-71710278D01*
X72737209Y-71579051D01*
X72771893Y-71456072D01*
X72771894Y-71456069D01*
X72773163Y-71451568D01*
X72791043Y-71311019D01*
X72806688Y-71188045D01*
X72806688Y-71188041D01*
X72807086Y-71184915D01*
X72809571Y-71090000D01*
X72789650Y-70821937D01*
X72788619Y-70817379D01*
X72731361Y-70564331D01*
X72731360Y-70564326D01*
X72730327Y-70559763D01*
X72632902Y-70309238D01*
X72499518Y-70075864D01*
X72333105Y-69864769D01*
X72137317Y-69680591D01*
X71939407Y-69543295D01*
X71920299Y-69530039D01*
X71920296Y-69530037D01*
X71916457Y-69527374D01*
X71912264Y-69525306D01*
X71679564Y-69410551D01*
X71679561Y-69410550D01*
X71675376Y-69408486D01*
X71627745Y-69393239D01*
X71449657Y-69336233D01*
X71419370Y-69326538D01*
X71414763Y-69325788D01*
X71414760Y-69325787D01*
X71201337Y-69291029D01*
X71154063Y-69283330D01*
X71023719Y-69281624D01*
X70889961Y-69279873D01*
X70889958Y-69279873D01*
X70885284Y-69279812D01*
X70618937Y-69316060D01*
X70360874Y-69391278D01*
X70116763Y-69503815D01*
X70112854Y-69506378D01*
X69895881Y-69648631D01*
X69895876Y-69648635D01*
X69891968Y-69651197D01*
X69691426Y-69830188D01*
X69519544Y-70036854D01*
X69380096Y-70266656D01*
X69276148Y-70514545D01*
X69209981Y-70775077D01*
X69183050Y-71042526D01*
X62121349Y-71042526D01*
X62106620Y-68041602D01*
X62126287Y-67973386D01*
X62179714Y-67926631D01*
X62232618Y-67914986D01*
X151050313Y-67914986D01*
X151082923Y-67919279D01*
G37*
%TD.AperFunction*%
%TD*%
%TA.AperFunction,Conductor*%
%TO.N,Net-(Q13-Pad3)*%
G36*
X179768501Y-103340567D02*
G01*
X181246640Y-103346603D01*
X181314677Y-103366883D01*
X181360950Y-103420728D01*
X181372124Y-103472623D01*
X181371882Y-104928595D01*
X181370805Y-111402575D01*
X181370389Y-113899758D01*
X181350376Y-113967875D01*
X181296712Y-114014359D01*
X181245018Y-114025735D01*
X176095941Y-114051352D01*
X172719843Y-114068148D01*
X172651623Y-114048486D01*
X172604864Y-113995062D01*
X172593216Y-113941994D01*
X172595243Y-112300609D01*
X172615329Y-112232513D01*
X172627828Y-112216210D01*
X172675678Y-112163347D01*
X172732353Y-112100733D01*
X172875633Y-111883849D01*
X172984459Y-111647788D01*
X173056326Y-111397982D01*
X173089580Y-111140179D01*
X173083456Y-110880313D01*
X173038094Y-110624363D01*
X172954540Y-110378219D01*
X172834715Y-110147546D01*
X172681377Y-109937653D01*
X172678005Y-109934263D01*
X172677997Y-109934254D01*
X172635001Y-109891032D01*
X172601140Y-109828631D01*
X172598330Y-109802015D01*
X172600342Y-108173627D01*
X172620428Y-108105531D01*
X172674141Y-108059105D01*
X172726205Y-108047783D01*
X178062991Y-108042070D01*
X178063047Y-108028693D01*
X178071207Y-106065306D01*
X178094883Y-105992304D01*
X178141646Y-105927226D01*
X178144664Y-105923026D01*
X178251656Y-105706544D01*
X178267939Y-105652952D01*
X178320351Y-105480446D01*
X178320352Y-105480440D01*
X178321855Y-105475494D01*
X178353374Y-105236082D01*
X178355133Y-105164100D01*
X178335347Y-104923434D01*
X178276519Y-104689231D01*
X178180230Y-104467781D01*
X178098862Y-104342005D01*
X178078655Y-104273041D01*
X178082035Y-103459670D01*
X178102320Y-103391634D01*
X178156168Y-103345365D01*
X178208549Y-103334196D01*
X179768501Y-103340567D01*
G37*
%TD.AperFunction*%
%TD*%
M02*
