%TF.GenerationSoftware,KiCad,Pcbnew,(6.0.0)*%
%TF.CreationDate,2023-01-04T20:07:59-08:00*%
%TF.ProjectId,MakeItRain,4d616b65-4974-4526-9169-6e2e6b696361,rev?*%
%TF.SameCoordinates,Original*%
%TF.FileFunction,Soldermask,Bot*%
%TF.FilePolarity,Negative*%
%FSLAX46Y46*%
G04 Gerber Fmt 4.6, Leading zero omitted, Abs format (unit mm)*
G04 Created by KiCad (PCBNEW (6.0.0)) date 2023-01-04 20:07:59*
%MOMM*%
%LPD*%
G01*
G04 APERTURE LIST*
%ADD10R,1.150000X1.150000*%
%ADD11C,1.150000*%
%ADD12R,1.500000X1.500000*%
%ADD13C,1.500000*%
%ADD14R,1.800000X0.450000*%
%ADD15C,1.600000*%
%ADD16R,2.600000X2.600000*%
%ADD17O,2.600000X2.600000*%
%ADD18R,1.800000X1.800000*%
%ADD19C,1.800000*%
%ADD20R,1.700000X1.700000*%
%ADD21O,1.700000X1.700000*%
%ADD22C,2.600000*%
%ADD23R,1.920000X1.920000*%
%ADD24C,1.920000*%
%ADD25R,1.050000X1.500000*%
%ADD26O,1.050000X1.500000*%
%ADD27O,1.600000X1.600000*%
%ADD28R,1.500000X1.050000*%
%ADD29O,1.500000X1.050000*%
%ADD30C,1.440000*%
%ADD31R,1.600000X1.600000*%
%ADD32R,2.200000X2.200000*%
%ADD33O,2.200000X2.200000*%
%ADD34C,2.400000*%
%ADD35C,2.100000*%
%ADD36R,1.130000X1.130000*%
%ADD37C,1.130000*%
G04 APERTURE END LIST*
D10*
%TO.C,Z8*%
X156564300Y-87104200D03*
D11*
X167264300Y-87104200D03*
%TD*%
D10*
%TO.C,Z7*%
X124968600Y-87436000D03*
D11*
X135668600Y-87436000D03*
%TD*%
D10*
%TO.C,Z6*%
X95418500Y-87436000D03*
D11*
X106118500Y-87436000D03*
%TD*%
D10*
%TO.C,Z5*%
X64792500Y-87395400D03*
D11*
X75492500Y-87395400D03*
%TD*%
D12*
%TO.C,S1*%
X115616200Y-120523800D03*
D13*
X122116200Y-120523800D03*
X115616200Y-125023800D03*
X122116200Y-125023800D03*
%TD*%
D14*
%TO.C,IC1*%
X113405300Y-110092700D03*
X113405300Y-110742700D03*
X113405300Y-111392700D03*
X113405300Y-112042700D03*
X113405300Y-112692700D03*
X113405300Y-113342700D03*
X113405300Y-113992700D03*
X113405300Y-114642700D03*
X113405300Y-115292700D03*
X113405300Y-115942700D03*
X106305300Y-115942700D03*
X106305300Y-115292700D03*
X106305300Y-114642700D03*
X106305300Y-113992700D03*
X106305300Y-113342700D03*
X106305300Y-112692700D03*
X106305300Y-112042700D03*
X106305300Y-111392700D03*
X106305300Y-110742700D03*
X106305300Y-110092700D03*
%TD*%
D15*
%TO.C,C2*%
X89109000Y-69659700D03*
X89109000Y-74659700D03*
%TD*%
%TO.C,C3*%
X119449600Y-64825000D03*
X119449600Y-69825000D03*
%TD*%
%TO.C,C4*%
X151357900Y-66638300D03*
X151357900Y-71638300D03*
%TD*%
D16*
%TO.C,D3*%
X83061000Y-85060000D03*
D17*
X83061000Y-69820000D03*
%TD*%
D16*
%TO.C,D5*%
X113541000Y-85060000D03*
D17*
X113541000Y-69820000D03*
%TD*%
D16*
%TO.C,D7*%
X174501000Y-85060000D03*
D17*
X174501000Y-69820000D03*
%TD*%
D16*
%TO.C,D9*%
X144021000Y-85060000D03*
D17*
X144021000Y-69820000D03*
%TD*%
D18*
%TO.C,D1*%
X128872900Y-123268200D03*
D19*
X126332900Y-123268200D03*
%TD*%
D20*
%TO.C,J2*%
X66040000Y-120650000D03*
D21*
X66040000Y-123190000D03*
X68580000Y-120650000D03*
X68580000Y-123190000D03*
X71120000Y-120650000D03*
X71120000Y-123190000D03*
X73660000Y-120650000D03*
X73660000Y-123190000D03*
X76200000Y-120650000D03*
X76200000Y-123190000D03*
X78740000Y-120650000D03*
X78740000Y-123190000D03*
X81280000Y-120650000D03*
X81280000Y-123190000D03*
X83820000Y-120650000D03*
X83820000Y-123190000D03*
X86360000Y-120650000D03*
X86360000Y-123190000D03*
X88900000Y-120650000D03*
X88900000Y-123190000D03*
X91440000Y-120650000D03*
X91440000Y-123190000D03*
X93980000Y-120650000D03*
X93980000Y-123190000D03*
X96520000Y-120650000D03*
X96520000Y-123190000D03*
X99060000Y-120650000D03*
X99060000Y-123190000D03*
X101600000Y-120650000D03*
X101600000Y-123190000D03*
X104140000Y-120650000D03*
X104140000Y-123190000D03*
X106680000Y-120650000D03*
X106680000Y-123190000D03*
X109220000Y-120650000D03*
X109220000Y-123190000D03*
X111760000Y-120650000D03*
X111760000Y-123190000D03*
%TD*%
D20*
%TO.C,J3*%
X66040000Y-97790000D03*
D21*
X68580000Y-97790000D03*
X71120000Y-97790000D03*
X73660000Y-97790000D03*
X76200000Y-97790000D03*
X78740000Y-97790000D03*
X81280000Y-97790000D03*
X83820000Y-97790000D03*
X86360000Y-97790000D03*
X88900000Y-97790000D03*
X91440000Y-97790000D03*
X93980000Y-97790000D03*
X96520000Y-97790000D03*
X99060000Y-97790000D03*
X101600000Y-97790000D03*
X104140000Y-97790000D03*
X106680000Y-97790000D03*
X109220000Y-97790000D03*
X111760000Y-97790000D03*
%TD*%
D16*
%TO.C,P1*%
X178125700Y-96457800D03*
D22*
X178125700Y-91377800D03*
%TD*%
D23*
%TO.C,Q3*%
X71689700Y-82379600D03*
D24*
X69149700Y-82379600D03*
X66609700Y-82379600D03*
%TD*%
D23*
%TO.C,Q6*%
X101108600Y-82267600D03*
D24*
X98568600Y-82267600D03*
X96028600Y-82267600D03*
%TD*%
D25*
%TO.C,Q7*%
X90300800Y-103664300D03*
D26*
X91570800Y-103664300D03*
X92840800Y-103664300D03*
%TD*%
D23*
%TO.C,Q9*%
X131085700Y-82267600D03*
D24*
X128545700Y-82267600D03*
X126005700Y-82267600D03*
%TD*%
D23*
%TO.C,Q12*%
X162229200Y-82267600D03*
D24*
X159689200Y-82267600D03*
X157149200Y-82267600D03*
%TD*%
D23*
%TO.C,Q13*%
X174341600Y-105164100D03*
D24*
X176881600Y-105164100D03*
X179421600Y-105164100D03*
%TD*%
D16*
%TO.C,Z2*%
X106556000Y-71090000D03*
D22*
X101476000Y-71090000D03*
X96396000Y-71090000D03*
%TD*%
D16*
%TO.C,Z3*%
X137036000Y-71090000D03*
D22*
X131956000Y-71090000D03*
X126876000Y-71090000D03*
%TD*%
D16*
%TO.C,Z4*%
X167516000Y-71090000D03*
D22*
X162436000Y-71090000D03*
X157356000Y-71090000D03*
%TD*%
D16*
%TO.C,Z1*%
X76076000Y-71090000D03*
D22*
X70996000Y-71090000D03*
X65916000Y-71090000D03*
%TD*%
D20*
%TO.C,J1*%
X170349000Y-121042300D03*
D21*
X170349000Y-123582300D03*
X167809000Y-121042300D03*
X167809000Y-123582300D03*
X165269000Y-121042300D03*
X165269000Y-123582300D03*
X162729000Y-121042300D03*
X162729000Y-123582300D03*
X160189000Y-121042300D03*
X160189000Y-123582300D03*
X157649000Y-121042300D03*
X157649000Y-123582300D03*
X155109000Y-121042300D03*
X155109000Y-123582300D03*
X152569000Y-121042300D03*
X152569000Y-123582300D03*
X150029000Y-121042300D03*
X150029000Y-123582300D03*
X147489000Y-121042300D03*
X147489000Y-123582300D03*
X144949000Y-121042300D03*
X144949000Y-123582300D03*
X142409000Y-121042300D03*
X142409000Y-123582300D03*
X139869000Y-121042300D03*
X139869000Y-123582300D03*
X137329000Y-121042300D03*
X137329000Y-123582300D03*
%TD*%
D25*
%TO.C,Q4*%
X84702900Y-103677400D03*
D26*
X85972900Y-103677400D03*
X87242900Y-103677400D03*
%TD*%
D15*
%TO.C,R23*%
X75572300Y-105627200D03*
D27*
X73032300Y-105627200D03*
%TD*%
D15*
%TO.C,R31*%
X83822200Y-112140600D03*
D27*
X83822200Y-114680600D03*
%TD*%
D15*
%TO.C,R16*%
X131777400Y-90385900D03*
D27*
X134317400Y-90385900D03*
%TD*%
D28*
%TO.C,Q2*%
X77074800Y-81816600D03*
D29*
X77074800Y-83086600D03*
X77074800Y-84356600D03*
%TD*%
D15*
%TO.C,R24*%
X73376700Y-108765100D03*
D27*
X75916700Y-108765100D03*
%TD*%
D15*
%TO.C,R5*%
X80372200Y-108702600D03*
D27*
X82912200Y-108702600D03*
%TD*%
D30*
%TO.C,RV1*%
X150281700Y-100622000D03*
X152821700Y-100622000D03*
X155361700Y-100622000D03*
%TD*%
D20*
%TO.C,J4*%
X155598900Y-95333800D03*
%TD*%
D15*
%TO.C,R15*%
X126614500Y-90392400D03*
D27*
X129154500Y-90392400D03*
%TD*%
D15*
%TO.C,R17*%
X96767000Y-108701700D03*
D27*
X99307000Y-108701700D03*
%TD*%
D20*
%TO.C,J5*%
X59207700Y-91310200D03*
D21*
X59207700Y-88770200D03*
X59207700Y-86230200D03*
%TD*%
D15*
%TO.C,R4*%
X98113700Y-112207200D03*
D27*
X98113700Y-114747200D03*
%TD*%
D15*
%TO.C,R18*%
X179350700Y-81833100D03*
D27*
X181890700Y-81833100D03*
%TD*%
D15*
%TO.C,R29*%
X142295000Y-113577700D03*
D27*
X139755000Y-113577700D03*
%TD*%
D15*
%TO.C,R25*%
X75859900Y-114068500D03*
D27*
X75859900Y-111528500D03*
%TD*%
D15*
%TO.C,R33*%
X93402900Y-112140600D03*
D27*
X93402900Y-114680600D03*
%TD*%
D15*
%TO.C,R2*%
X113321700Y-93731200D03*
D27*
X115861700Y-93731200D03*
%TD*%
D15*
%TO.C,R14*%
X136973400Y-90405200D03*
D27*
X139513400Y-90405200D03*
%TD*%
D28*
%TO.C,Q11*%
X167687500Y-81543000D03*
D29*
X167687500Y-82813000D03*
X167687500Y-84083000D03*
%TD*%
D15*
%TO.C,R27*%
X142295000Y-103999000D03*
D27*
X139755000Y-103999000D03*
%TD*%
D31*
%TO.C,U1*%
X116307900Y-96853800D03*
D27*
X116307900Y-99393800D03*
X116307900Y-101933800D03*
X116307900Y-104473800D03*
X116307900Y-107013800D03*
X116307900Y-109553800D03*
X116307900Y-112093800D03*
X116307900Y-114633800D03*
X116307900Y-117173800D03*
X123927900Y-117173800D03*
X123927900Y-114633800D03*
X123927900Y-112093800D03*
X123927900Y-109553800D03*
X123927900Y-107013800D03*
X123927900Y-104473800D03*
X123927900Y-101933800D03*
X123927900Y-99393800D03*
X123927900Y-96853800D03*
%TD*%
D32*
%TO.C,D4*%
X113156300Y-90507700D03*
D33*
X123316300Y-90507700D03*
%TD*%
D32*
%TO.C,D2*%
X83739400Y-90439100D03*
D33*
X93899400Y-90439100D03*
%TD*%
D15*
%TO.C,R9*%
X85984200Y-108777600D03*
D27*
X88524200Y-108777600D03*
%TD*%
D15*
%TO.C,R13*%
X91573600Y-108698400D03*
D27*
X94113600Y-108698400D03*
%TD*%
D15*
%TO.C,R6*%
X77976900Y-90313600D03*
D27*
X80516900Y-90313600D03*
%TD*%
D15*
%TO.C,R11*%
X97428100Y-90313600D03*
D27*
X99968100Y-90313600D03*
%TD*%
D15*
%TO.C,R7*%
X67592100Y-90313600D03*
D27*
X70132100Y-90313600D03*
%TD*%
D15*
%TO.C,R37*%
X102042400Y-102441800D03*
D27*
X104582400Y-102441800D03*
%TD*%
D34*
%TO.C,U2*%
X171378400Y-111050500D03*
D35*
X164978400Y-112300500D03*
X168478400Y-112300500D03*
X174278400Y-112300500D03*
X177778400Y-112300500D03*
X177778400Y-109800500D03*
X174278400Y-109800500D03*
X168478400Y-109800500D03*
X164978400Y-109800500D03*
%TD*%
D25*
%TO.C,Q10*%
X95932600Y-103664300D03*
D26*
X97202600Y-103664300D03*
X98472600Y-103664300D03*
%TD*%
D32*
%TO.C,D8*%
X185558100Y-76184700D03*
D33*
X185558100Y-86344700D03*
%TD*%
D36*
%TO.C,IC3*%
X70520600Y-114579500D03*
D37*
X70520600Y-112039500D03*
X70520600Y-109499500D03*
X70520600Y-106959500D03*
X62580600Y-106959500D03*
X62580600Y-109499500D03*
X62580600Y-112039500D03*
X62580600Y-114579500D03*
%TD*%
D25*
%TO.C,Q1*%
X79106900Y-103682000D03*
D26*
X80376900Y-103682000D03*
X81646900Y-103682000D03*
%TD*%
D15*
%TO.C,R26*%
X142295000Y-99209700D03*
D27*
X139755000Y-99209700D03*
%TD*%
D15*
%TO.C,R36*%
X110516400Y-105882500D03*
D27*
X107976400Y-105882500D03*
%TD*%
D15*
%TO.C,R1*%
X83868300Y-93912900D03*
D27*
X86408300Y-93912900D03*
%TD*%
D15*
%TO.C,R8*%
X72798600Y-90313600D03*
D27*
X75338600Y-90313600D03*
%TD*%
D28*
%TO.C,Q8*%
X137542600Y-81822900D03*
D29*
X137542600Y-83092900D03*
X137542600Y-84362900D03*
%TD*%
D28*
%TO.C,Q5*%
X106673400Y-81749200D03*
D29*
X106673400Y-83019200D03*
X106673400Y-84289200D03*
%TD*%
D15*
%TO.C,C5*%
X151310400Y-84874400D03*
X151310400Y-79874400D03*
%TD*%
%TO.C,R21*%
X167425100Y-105167700D03*
D27*
X169965100Y-105167700D03*
%TD*%
D15*
%TO.C,R3*%
X102762800Y-112161900D03*
D27*
X102762800Y-114701900D03*
%TD*%
D15*
%TO.C,R30*%
X79031800Y-112140600D03*
D27*
X79031800Y-114680600D03*
%TD*%
D15*
%TO.C,R12*%
X102602700Y-90291400D03*
D27*
X105142700Y-90291400D03*
%TD*%
D15*
%TO.C,R22*%
X142150900Y-93635300D03*
D27*
X144690900Y-93635300D03*
%TD*%
D15*
%TO.C,R28*%
X142295000Y-108788400D03*
D27*
X139755000Y-108788400D03*
%TD*%
D15*
%TO.C,R20*%
X160459300Y-89971000D03*
D27*
X162999300Y-89971000D03*
%TD*%
D15*
%TO.C,R19*%
X155096800Y-90020800D03*
D27*
X157636800Y-90020800D03*
%TD*%
D15*
%TO.C,R35*%
X190329000Y-80096300D03*
D27*
X190329000Y-82636300D03*
%TD*%
D15*
%TO.C,R10*%
X107804100Y-90285900D03*
D27*
X110344100Y-90285900D03*
%TD*%
D32*
%TO.C,D6*%
X142032800Y-90398200D03*
D33*
X152192800Y-90398200D03*
%TD*%
D15*
%TO.C,R32*%
X88612600Y-112140600D03*
D27*
X88612600Y-114680600D03*
%TD*%
D15*
%TO.C,R38*%
X102042400Y-107114000D03*
D27*
X104582400Y-107114000D03*
%TD*%
D15*
%TO.C,R34*%
X57889400Y-114568900D03*
D27*
X60429400Y-114568900D03*
%TD*%
M02*
