%TF.GenerationSoftware,KiCad,Pcbnew,(6.0.0)*%
%TF.CreationDate,2022-07-11T07:12:13-07:00*%
%TF.ProjectId,MakeItRain,4d616b65-4974-4526-9169-6e2e6b696361,rev?*%
%TF.SameCoordinates,Original*%
%TF.FileFunction,Copper,L1,Top*%
%TF.FilePolarity,Positive*%
%FSLAX46Y46*%
G04 Gerber Fmt 4.6, Leading zero omitted, Abs format (unit mm)*
G04 Created by KiCad (PCBNEW (6.0.0)) date 2022-07-11 07:12:13*
%MOMM*%
%LPD*%
G01*
G04 APERTURE LIST*
%TA.AperFunction,ComponentPad*%
%ADD10C,1.600000*%
%TD*%
%TA.AperFunction,ComponentPad*%
%ADD11R,2.600000X2.600000*%
%TD*%
%TA.AperFunction,ComponentPad*%
%ADD12O,2.600000X2.600000*%
%TD*%
%TA.AperFunction,ComponentPad*%
%ADD13R,1.800000X1.800000*%
%TD*%
%TA.AperFunction,ComponentPad*%
%ADD14C,1.800000*%
%TD*%
%TA.AperFunction,ComponentPad*%
%ADD15R,1.700000X1.700000*%
%TD*%
%TA.AperFunction,ComponentPad*%
%ADD16O,1.700000X1.700000*%
%TD*%
%TA.AperFunction,ComponentPad*%
%ADD17C,2.600000*%
%TD*%
%TA.AperFunction,ComponentPad*%
%ADD18R,1.920000X1.920000*%
%TD*%
%TA.AperFunction,ComponentPad*%
%ADD19C,1.920000*%
%TD*%
%TA.AperFunction,ComponentPad*%
%ADD20R,1.050000X1.500000*%
%TD*%
%TA.AperFunction,ComponentPad*%
%ADD21O,1.050000X1.500000*%
%TD*%
%TA.AperFunction,ComponentPad*%
%ADD22R,1.150000X1.150000*%
%TD*%
%TA.AperFunction,ComponentPad*%
%ADD23C,1.150000*%
%TD*%
%TA.AperFunction,ComponentPad*%
%ADD24O,1.600000X1.600000*%
%TD*%
%TA.AperFunction,ComponentPad*%
%ADD25R,1.500000X1.050000*%
%TD*%
%TA.AperFunction,ComponentPad*%
%ADD26O,1.500000X1.050000*%
%TD*%
%TA.AperFunction,ComponentPad*%
%ADD27C,1.440000*%
%TD*%
%TA.AperFunction,ComponentPad*%
%ADD28R,2.200000X2.200000*%
%TD*%
%TA.AperFunction,ComponentPad*%
%ADD29O,2.200000X2.200000*%
%TD*%
%TA.AperFunction,ComponentPad*%
%ADD30R,1.500000X1.500000*%
%TD*%
%TA.AperFunction,ComponentPad*%
%ADD31C,1.500000*%
%TD*%
%TA.AperFunction,ComponentPad*%
%ADD32C,2.100000*%
%TD*%
%TA.AperFunction,ComponentPad*%
%ADD33R,1.130000X1.130000*%
%TD*%
%TA.AperFunction,ComponentPad*%
%ADD34C,1.130000*%
%TD*%
%TA.AperFunction,SMDPad,CuDef*%
%ADD35R,2.100000X1.450000*%
%TD*%
%TA.AperFunction,ViaPad*%
%ADD36C,0.800000*%
%TD*%
%TA.AperFunction,Conductor*%
%ADD37C,0.250000*%
%TD*%
%TA.AperFunction,Conductor*%
%ADD38C,2.032000*%
%TD*%
%TA.AperFunction,Conductor*%
%ADD39C,0.508000*%
%TD*%
%TA.AperFunction,Conductor*%
%ADD40C,0.762000*%
%TD*%
%TA.AperFunction,Conductor*%
%ADD41C,2.540000*%
%TD*%
G04 APERTURE END LIST*
D10*
%TO.P,C2,1*%
%TO.N,/Zone1IO/ZoneInput*%
X89109000Y-69659700D03*
%TO.P,C2,2*%
%TO.N,GND*%
X89109000Y-74659700D03*
%TD*%
%TO.P,C3,1*%
%TO.N,/Zone2IO/ZoneInput*%
X119449600Y-64825000D03*
%TO.P,C3,2*%
%TO.N,GND*%
X119449600Y-69825000D03*
%TD*%
%TO.P,C4,1*%
%TO.N,/Zone3IO/ZoneInput*%
X151357900Y-66638300D03*
%TO.P,C4,2*%
%TO.N,GND*%
X151357900Y-71638300D03*
%TD*%
D11*
%TO.P,D3,1,K*%
%TO.N,/Zone1IO/ZoneOutput*%
X83061000Y-85060000D03*
D12*
%TO.P,D3,2,A*%
%TO.N,GND*%
X83061000Y-69820000D03*
%TD*%
D11*
%TO.P,D5,1,K*%
%TO.N,/Zone2IO/ZoneOutput*%
X113541000Y-85060000D03*
D12*
%TO.P,D5,2,A*%
%TO.N,GND*%
X113541000Y-69820000D03*
%TD*%
D11*
%TO.P,D7,1,K*%
%TO.N,/Zone4IO/ZoneOutput*%
X174501000Y-85060000D03*
D12*
%TO.P,D7,2,A*%
%TO.N,GND*%
X174501000Y-69820000D03*
%TD*%
D11*
%TO.P,D9,1,K*%
%TO.N,/Zone3IO/ZoneOutput*%
X144021000Y-85060000D03*
D12*
%TO.P,D9,2,A*%
%TO.N,GND*%
X144021000Y-69820000D03*
%TD*%
D13*
%TO.P,D1,1,K*%
%TO.N,Net-(D1-Pad1)*%
X128872900Y-123268200D03*
D14*
%TO.P,D1,2,A*%
%TO.N,D21*%
X126332900Y-123268200D03*
%TD*%
D15*
%TO.P,J2,1,Pin_1*%
%TO.N,+3V3*%
X66040000Y-120650000D03*
D16*
%TO.P,J2,2,Pin_2*%
X66040000Y-123190000D03*
%TO.P,J2,3,Pin_3*%
%TO.N,EN*%
X68580000Y-120650000D03*
%TO.P,J2,4,Pin_4*%
X68580000Y-123190000D03*
%TO.P,J2,5,Pin_5*%
%TO.N,D36*%
X71120000Y-120650000D03*
%TO.P,J2,6,Pin_6*%
X71120000Y-123190000D03*
%TO.P,J2,7,Pin_7*%
%TO.N,D39*%
X73660000Y-120650000D03*
%TO.P,J2,8,Pin_8*%
X73660000Y-123190000D03*
%TO.P,J2,9,Pin_9*%
%TO.N,D34*%
X76200000Y-120650000D03*
%TO.P,J2,10,Pin_10*%
X76200000Y-123190000D03*
%TO.P,J2,11,Pin_11*%
%TO.N,D35*%
X78740000Y-120650000D03*
%TO.P,J2,12,Pin_12*%
X78740000Y-123190000D03*
%TO.P,J2,13,Pin_13*%
%TO.N,D32*%
X81280000Y-120650000D03*
%TO.P,J2,14,Pin_14*%
X81280000Y-123190000D03*
%TO.P,J2,15,Pin_15*%
%TO.N,D33*%
X83820000Y-120650000D03*
%TO.P,J2,16,Pin_16*%
X83820000Y-123190000D03*
%TO.P,J2,17,Pin_17*%
%TO.N,D25*%
X86360000Y-120650000D03*
%TO.P,J2,18,Pin_18*%
X86360000Y-123190000D03*
%TO.P,J2,19,Pin_19*%
%TO.N,D26*%
X88900000Y-120650000D03*
%TO.P,J2,20,Pin_20*%
X88900000Y-123190000D03*
%TO.P,J2,21,Pin_21*%
%TO.N,D27*%
X91440000Y-120650000D03*
%TO.P,J2,22,Pin_22*%
X91440000Y-123190000D03*
%TO.P,J2,23,Pin_23*%
%TO.N,D14*%
X93980000Y-120650000D03*
%TO.P,J2,24,Pin_24*%
X93980000Y-123190000D03*
%TO.P,J2,25,Pin_25*%
%TO.N,D12*%
X96520000Y-120650000D03*
%TO.P,J2,26,Pin_26*%
X96520000Y-123190000D03*
%TO.P,J2,27,Pin_27*%
%TO.N,GND*%
X99060000Y-120650000D03*
%TO.P,J2,28,Pin_28*%
X99060000Y-123190000D03*
%TO.P,J2,29,Pin_29*%
%TO.N,unconnected-(J2-Pad29)*%
X101600000Y-120650000D03*
%TO.P,J2,30,Pin_30*%
%TO.N,unconnected-(J2-Pad30)*%
X101600000Y-123190000D03*
%TO.P,J2,31,Pin_31*%
%TO.N,unconnected-(J2-Pad31)*%
X104140000Y-120650000D03*
%TO.P,J2,32,Pin_32*%
%TO.N,unconnected-(J2-Pad32)*%
X104140000Y-123190000D03*
%TO.P,J2,33,Pin_33*%
%TO.N,unconnected-(J2-Pad33)*%
X106680000Y-120650000D03*
%TO.P,J2,34,Pin_34*%
%TO.N,unconnected-(J2-Pad34)*%
X106680000Y-123190000D03*
%TO.P,J2,35,Pin_35*%
%TO.N,unconnected-(J2-Pad35)*%
X109220000Y-120650000D03*
%TO.P,J2,36,Pin_36*%
%TO.N,unconnected-(J2-Pad36)*%
X109220000Y-123190000D03*
%TO.P,J2,37,Pin_37*%
%TO.N,+5V*%
X111760000Y-120650000D03*
%TO.P,J2,38,Pin_38*%
X111760000Y-123190000D03*
%TD*%
D15*
%TO.P,J3,1,Pin_1*%
%TO.N,GND*%
X66040000Y-97790000D03*
D16*
%TO.P,J3,2,Pin_2*%
%TO.N,D23*%
X68580000Y-97790000D03*
%TO.P,J3,3,Pin_3*%
%TO.N,D22*%
X71120000Y-97790000D03*
%TO.P,J3,4,Pin_4*%
%TO.N,TX*%
X73660000Y-97790000D03*
%TO.P,J3,5,Pin_5*%
%TO.N,RX*%
X76200000Y-97790000D03*
%TO.P,J3,6,Pin_6*%
%TO.N,D21*%
X78740000Y-97790000D03*
%TO.P,J3,7,Pin_7*%
%TO.N,GND*%
X81280000Y-97790000D03*
%TO.P,J3,8,Pin_8*%
%TO.N,D19*%
X83820000Y-97790000D03*
%TO.P,J3,9,Pin_9*%
%TO.N,D18*%
X86360000Y-97790000D03*
%TO.P,J3,10,Pin_10*%
%TO.N,D5*%
X88900000Y-97790000D03*
%TO.P,J3,11,Pin_11*%
%TO.N,D17*%
X91440000Y-97790000D03*
%TO.P,J3,12,Pin_12*%
%TO.N,D16*%
X93980000Y-97790000D03*
%TO.P,J3,13,Pin_13*%
%TO.N,D4*%
X96520000Y-97790000D03*
%TO.P,J3,14,Pin_14*%
%TO.N,D0*%
X99060000Y-97790000D03*
%TO.P,J3,15,Pin_15*%
%TO.N,D2*%
X101600000Y-97790000D03*
%TO.P,J3,16,Pin_16*%
%TO.N,D15*%
X104140000Y-97790000D03*
%TO.P,J3,17,Pin_17*%
%TO.N,/SD1*%
X106680000Y-97790000D03*
%TO.P,J3,18,Pin_18*%
%TO.N,/SDD*%
X109220000Y-97790000D03*
%TO.P,J3,19,Pin_19*%
%TO.N,/CLK*%
X111760000Y-97790000D03*
%TD*%
D11*
%TO.P,P1,1,Pin_1*%
%TO.N,Net-(P1-Pad1)*%
X178125700Y-96457800D03*
D17*
%TO.P,P1,2,Pin_2*%
%TO.N,GND*%
X178125700Y-91377800D03*
%TD*%
D18*
%TO.P,Q3,1*%
%TO.N,Net-(Q3-Pad1)*%
X71689700Y-82379600D03*
D19*
%TO.P,Q3,2*%
%TO.N,/Zone1IO/ZoneOutput*%
X69149700Y-82379600D03*
%TO.P,Q3,3*%
%TO.N,+VDC*%
X66609700Y-82379600D03*
%TD*%
D18*
%TO.P,Q6,1*%
%TO.N,Net-(Q6-Pad1)*%
X101108600Y-82267600D03*
D19*
%TO.P,Q6,2*%
%TO.N,/Zone2IO/ZoneOutput*%
X98568600Y-82267600D03*
%TO.P,Q6,3*%
%TO.N,+VDC*%
X96028600Y-82267600D03*
%TD*%
D20*
%TO.P,Q7,1,S*%
%TO.N,GND*%
X93346300Y-104626700D03*
D21*
%TO.P,Q7,2,G*%
%TO.N,/Zone3IO/ZoneInput*%
X94616300Y-104626700D03*
%TO.P,Q7,3,D*%
%TO.N,Net-(D6-Pad1)*%
X95886300Y-104626700D03*
%TD*%
D18*
%TO.P,Q9,1*%
%TO.N,Net-(Q9-Pad1)*%
X131085700Y-82267600D03*
D19*
%TO.P,Q9,2*%
%TO.N,/Zone3IO/ZoneOutput*%
X128545700Y-82267600D03*
%TO.P,Q9,3*%
%TO.N,+VDC*%
X126005700Y-82267600D03*
%TD*%
D18*
%TO.P,Q12,1*%
%TO.N,Net-(Q12-Pad1)*%
X162229200Y-82267600D03*
D19*
%TO.P,Q12,2*%
%TO.N,/Zone4IO/ZoneOutput*%
X159689200Y-82267600D03*
%TO.P,Q12,3*%
%TO.N,+VDC*%
X157149200Y-82267600D03*
%TD*%
D18*
%TO.P,Q13,1*%
%TO.N,Net-(Q13-Pad1)*%
X174341600Y-105164100D03*
D19*
%TO.P,Q13,2*%
%TO.N,Net-(P1-Pad1)*%
X176881600Y-105164100D03*
%TO.P,Q13,3*%
%TO.N,Net-(Q13-Pad3)*%
X179421600Y-105164100D03*
%TD*%
D11*
%TO.P,Z2,1,Pin_1*%
%TO.N,/Zone2IO/ZoneInput*%
X106556000Y-71090000D03*
D17*
%TO.P,Z2,2,Pin_2*%
%TO.N,/Zone2IO/ZoneOutput*%
X101476000Y-71090000D03*
%TO.P,Z2,3,Pin_3*%
%TO.N,GND*%
X96396000Y-71090000D03*
%TD*%
D11*
%TO.P,Z3,1,Pin_1*%
%TO.N,/Zone3IO/ZoneInput*%
X137036000Y-71090000D03*
D17*
%TO.P,Z3,2,Pin_2*%
%TO.N,/Zone3IO/ZoneOutput*%
X131956000Y-71090000D03*
%TO.P,Z3,3,Pin_3*%
%TO.N,GND*%
X126876000Y-71090000D03*
%TD*%
D11*
%TO.P,Z4,1,Pin_1*%
%TO.N,/Zone4IO/ZoneInput*%
X167516000Y-71090000D03*
D17*
%TO.P,Z4,2,Pin_2*%
%TO.N,/Zone4IO/ZoneOutput*%
X162436000Y-71090000D03*
%TO.P,Z4,3,Pin_3*%
%TO.N,GND*%
X157356000Y-71090000D03*
%TD*%
D11*
%TO.P,Z1,1,Pin_1*%
%TO.N,/Zone1IO/ZoneInput*%
X76076000Y-71090000D03*
D17*
%TO.P,Z1,2,Pin_2*%
%TO.N,/Zone1IO/ZoneOutput*%
X70996000Y-71090000D03*
%TO.P,Z1,3,Pin_3*%
%TO.N,GND*%
X65916000Y-71090000D03*
%TD*%
D15*
%TO.P,J1,1,Pin_1*%
%TO.N,+VDC*%
X170349000Y-121042300D03*
D16*
%TO.P,J1,2,Pin_2*%
%TO.N,D39*%
X170349000Y-123582300D03*
%TO.P,J1,3,Pin_3*%
%TO.N,+VDC*%
X167809000Y-121042300D03*
%TO.P,J1,4,Pin_4*%
%TO.N,AuxVoltage*%
X167809000Y-123582300D03*
%TO.P,J1,5,Pin_5*%
%TO.N,+VDC*%
X165269000Y-121042300D03*
%TO.P,J1,6,Pin_6*%
%TO.N,D23*%
X165269000Y-123582300D03*
%TO.P,J1,7,Pin_7*%
%TO.N,+VDC*%
X162729000Y-121042300D03*
%TO.P,J1,8,Pin_8*%
%TO.N,D19*%
X162729000Y-123582300D03*
%TO.P,J1,9,Pin_9*%
%TO.N,+VDC*%
X160189000Y-121042300D03*
%TO.P,J1,10,Pin_10*%
%TO.N,D18*%
X160189000Y-123582300D03*
%TO.P,J1,11,Pin_11*%
%TO.N,+3V3*%
X157649000Y-121042300D03*
%TO.P,J1,12,Pin_12*%
%TO.N,D5*%
X157649000Y-123582300D03*
%TO.P,J1,13,Pin_13*%
%TO.N,+5V*%
X155109000Y-121042300D03*
%TO.P,J1,14,Pin_14*%
%TO.N,D35*%
X155109000Y-123582300D03*
%TO.P,J1,15,Pin_15*%
%TO.N,+5V*%
X152569000Y-121042300D03*
%TO.P,J1,16,Pin_16*%
%TO.N,D32*%
X152569000Y-123582300D03*
%TO.P,J1,17,Pin_17*%
%TO.N,GND*%
X150029000Y-121042300D03*
%TO.P,J1,18,Pin_18*%
%TO.N,D33*%
X150029000Y-123582300D03*
%TO.P,J1,19,Pin_19*%
%TO.N,GND*%
X147489000Y-121042300D03*
%TO.P,J1,20,Pin_20*%
%TO.N,D25*%
X147489000Y-123582300D03*
%TO.P,J1,21,Pin_21*%
%TO.N,GND*%
X144949000Y-121042300D03*
%TO.P,J1,22,Pin_22*%
%TO.N,D21*%
X144949000Y-123582300D03*
%TO.P,J1,23,Pin_23*%
%TO.N,GND*%
X142409000Y-121042300D03*
%TO.P,J1,24,Pin_24*%
%TO.N,D4*%
X142409000Y-123582300D03*
%TO.P,J1,25,Pin_25*%
%TO.N,GND*%
X139869000Y-121042300D03*
%TO.P,J1,26,Pin_26*%
%TO.N,D0*%
X139869000Y-123582300D03*
%TO.P,J1,27,Pin_27*%
%TO.N,GND*%
X137329000Y-121042300D03*
%TO.P,J1,28,Pin_28*%
%TO.N,TX*%
X137329000Y-123582300D03*
%TO.P,J1,29,Pin_29*%
%TO.N,GND*%
X134789000Y-121042300D03*
%TO.P,J1,30,Pin_30*%
%TO.N,RX*%
X134789000Y-123582300D03*
%TD*%
D22*
%TO.P,Z5,1*%
%TO.N,+VDC*%
X64792500Y-87395400D03*
D23*
%TO.P,Z5,2*%
%TO.N,Net-(Q3-Pad1)*%
X75492500Y-87395400D03*
%TD*%
D22*
%TO.P,Z6,1*%
%TO.N,+VDC*%
X95418500Y-87436000D03*
D23*
%TO.P,Z6,2*%
%TO.N,Net-(Q6-Pad1)*%
X106118500Y-87436000D03*
%TD*%
D22*
%TO.P,Z8,1*%
%TO.N,+VDC*%
X156564300Y-87104200D03*
D23*
%TO.P,Z8,2*%
%TO.N,Net-(Q12-Pad1)*%
X167264300Y-87104200D03*
%TD*%
D20*
%TO.P,Q4,1,S*%
%TO.N,GND*%
X87748400Y-104639800D03*
D21*
%TO.P,Q4,2,G*%
%TO.N,/Zone2IO/ZoneInput*%
X89018400Y-104639800D03*
%TO.P,Q4,3,D*%
%TO.N,Net-(D4-Pad1)*%
X90288400Y-104639800D03*
%TD*%
D10*
%TO.P,R23,1*%
%TO.N,+VDC*%
X75572300Y-105627200D03*
D24*
%TO.P,R23,2*%
%TO.N,Net-(IC3-Pad3)*%
X73032300Y-105627200D03*
%TD*%
D10*
%TO.P,R31,1*%
%TO.N,+3V3*%
X88097100Y-113124500D03*
D24*
%TO.P,R31,2*%
%TO.N,D27*%
X88097100Y-115664500D03*
%TD*%
D10*
%TO.P,R16,1*%
%TO.N,Net-(Q9-Pad1)*%
X131777400Y-90385900D03*
D24*
%TO.P,R16,2*%
%TO.N,Net-(Q8-Pad3)*%
X134317400Y-90385900D03*
%TD*%
D25*
%TO.P,Q2,1,S*%
%TO.N,GND*%
X77074800Y-81816600D03*
D26*
%TO.P,Q2,2,G*%
%TO.N,D17*%
X77074800Y-83086600D03*
%TO.P,Q2,3,D*%
%TO.N,Net-(Q2-Pad3)*%
X77074800Y-84356600D03*
%TD*%
D10*
%TO.P,R24,1*%
%TO.N,Net-(IC3-Pad3)*%
X73376700Y-108765100D03*
D24*
%TO.P,R24,2*%
%TO.N,GND*%
X75916700Y-108765100D03*
%TD*%
D10*
%TO.P,R5,1*%
%TO.N,/Zone1IO/ZoneInput*%
X88483500Y-79968900D03*
D24*
%TO.P,R5,2*%
%TO.N,GND*%
X91023500Y-79968900D03*
%TD*%
D27*
%TO.P,RV1,1,1*%
%TO.N,AuxVoltage*%
X150637800Y-101920600D03*
%TO.P,RV1,2,2*%
%TO.N,Net-(IC3-Pad5)*%
X153177800Y-101920600D03*
%TO.P,RV1,3,3*%
%TO.N,GND*%
X155717800Y-101920600D03*
%TD*%
D15*
%TO.P,J4,1,Pin_1*%
%TO.N,AuxVoltage*%
X155955000Y-96632400D03*
%TD*%
D10*
%TO.P,R15,1*%
%TO.N,+VDC*%
X126614500Y-90392400D03*
D24*
%TO.P,R15,2*%
%TO.N,Net-(Q9-Pad1)*%
X129154500Y-90392400D03*
%TD*%
D10*
%TO.P,R17,1*%
%TO.N,/Zone4IO/ZoneInput*%
X179213800Y-74015100D03*
D24*
%TO.P,R17,2*%
%TO.N,GND*%
X179213800Y-76555100D03*
%TD*%
D15*
%TO.P,J5,1,Pin_1*%
%TO.N,+VDC*%
X59207667Y-91310174D03*
D16*
%TO.P,J5,2,Pin_2*%
%TO.N,+3V3*%
X59207667Y-88770174D03*
%TO.P,J5,3,Pin_3*%
%TO.N,+5V*%
X59207667Y-86230174D03*
%TO.P,J5,4,Pin_4*%
%TO.N,GND*%
X59207667Y-83690174D03*
%TD*%
D10*
%TO.P,R4,1*%
%TO.N,Net-(D1-Pad1)*%
X105516500Y-115956200D03*
D24*
%TO.P,R4,2*%
%TO.N,GND*%
X102976500Y-115956200D03*
%TD*%
D10*
%TO.P,R18,1*%
%TO.N,D2*%
X179350700Y-81833100D03*
D24*
%TO.P,R18,2*%
%TO.N,GND*%
X181890700Y-81833100D03*
%TD*%
D10*
%TO.P,R29,1*%
%TO.N,+3V3*%
X140604000Y-113952700D03*
D24*
%TO.P,R29,2*%
%TO.N,Net-(IC4-Pad1)*%
X138064000Y-113952700D03*
%TD*%
D10*
%TO.P,R25,1*%
%TO.N,D36*%
X75859900Y-114068500D03*
D24*
%TO.P,R25,2*%
%TO.N,GND*%
X75859900Y-111528500D03*
%TD*%
D10*
%TO.P,R33,1*%
%TO.N,+3V3*%
X97677800Y-113124500D03*
D24*
%TO.P,R33,2*%
%TO.N,D12*%
X97677800Y-115664500D03*
%TD*%
D10*
%TO.P,R14,1*%
%TO.N,D15*%
X136973400Y-90405200D03*
D24*
%TO.P,R14,2*%
%TO.N,GND*%
X139513400Y-90405200D03*
%TD*%
D25*
%TO.P,Q11,1,S*%
%TO.N,GND*%
X167687500Y-81543000D03*
D26*
%TO.P,Q11,2,G*%
%TO.N,D2*%
X167687500Y-82813000D03*
%TO.P,Q11,3,D*%
%TO.N,Net-(Q11-Pad3)*%
X167687500Y-84083000D03*
%TD*%
D10*
%TO.P,R27,1*%
%TO.N,+3V3*%
X140604000Y-104374000D03*
D24*
%TO.P,R27,2*%
%TO.N,Net-(IC4-Pad5)*%
X138064000Y-104374000D03*
%TD*%
D28*
%TO.P,D4,1,K*%
%TO.N,Net-(D4-Pad1)*%
X111225100Y-112149400D03*
D29*
%TO.P,D4,2,A*%
%TO.N,/InputIsolation/2in*%
X121385100Y-112149400D03*
%TD*%
D28*
%TO.P,D2,1,K*%
%TO.N,Net-(D2-Pad1)*%
X111172700Y-117020300D03*
D29*
%TO.P,D2,2,A*%
%TO.N,/InputIsolation/1in*%
X121332700Y-117020300D03*
%TD*%
D30*
%TO.P,S1,1,NO_1*%
%TO.N,unconnected-(S1-Pad1)*%
X115616200Y-120523800D03*
D31*
%TO.P,S1,2,NO_2*%
%TO.N,+3V3*%
X122116200Y-120523800D03*
%TO.P,S1,3,COM_1*%
%TO.N,unconnected-(S1-Pad3)*%
X115616200Y-125023800D03*
%TO.P,S1,4,COM_2*%
%TO.N,D22*%
X122116200Y-125023800D03*
%TD*%
D10*
%TO.P,R9,1*%
%TO.N,/Zone2IO/ZoneInput*%
X118458200Y-74373700D03*
D24*
%TO.P,R9,2*%
%TO.N,GND*%
X120998200Y-74373700D03*
%TD*%
D10*
%TO.P,R13,1*%
%TO.N,/Zone3IO/ZoneInput*%
X149787000Y-76942800D03*
D24*
%TO.P,R13,2*%
%TO.N,GND*%
X152327000Y-76942800D03*
%TD*%
D10*
%TO.P,R6,1*%
%TO.N,D17*%
X77976900Y-90313600D03*
D24*
%TO.P,R6,2*%
%TO.N,GND*%
X80516900Y-90313600D03*
%TD*%
D10*
%TO.P,R11,1*%
%TO.N,+VDC*%
X97428100Y-90313600D03*
D24*
%TO.P,R11,2*%
%TO.N,Net-(Q6-Pad1)*%
X99968100Y-90313600D03*
%TD*%
D10*
%TO.P,R7,1*%
%TO.N,+VDC*%
X67592100Y-90313600D03*
D24*
%TO.P,R7,2*%
%TO.N,Net-(Q3-Pad1)*%
X70132100Y-90313600D03*
%TD*%
D32*
%TO.P,U2,1,1*%
%TO.N,+VDC*%
X164978400Y-112300500D03*
%TO.P,U2,2,2*%
X168478400Y-112300500D03*
%TO.P,U2,3,3*%
%TO.N,Net-(Q13-Pad3)*%
X174278400Y-112300500D03*
%TO.P,U2,4,4*%
X177778400Y-112300500D03*
%TO.P,U2,5,5*%
X177778400Y-109800500D03*
%TO.P,U2,6,6*%
X174278400Y-109800500D03*
%TO.P,U2,7,7*%
%TO.N,+VDC*%
X168478400Y-109800500D03*
%TO.P,U2,8,8*%
X164978400Y-109800500D03*
%TD*%
D20*
%TO.P,Q10,1,S*%
%TO.N,GND*%
X98978100Y-104626700D03*
D21*
%TO.P,Q10,2,G*%
%TO.N,/Zone4IO/ZoneInput*%
X100248100Y-104626700D03*
%TO.P,Q10,3,D*%
%TO.N,Net-(D8-Pad1)*%
X101518100Y-104626700D03*
%TD*%
D28*
%TO.P,D8,1,K*%
%TO.N,Net-(D8-Pad1)*%
X111225100Y-102330700D03*
D29*
%TO.P,D8,2,A*%
%TO.N,/InputIsolation/4in*%
X121385100Y-102330700D03*
%TD*%
D33*
%TO.P,IC3,1,OUTA*%
%TO.N,D36*%
X70520600Y-114579500D03*
D34*
%TO.P,IC3,2,-INA*%
X70520600Y-112039500D03*
%TO.P,IC3,3,+INA*%
%TO.N,Net-(IC3-Pad3)*%
X70520600Y-109499500D03*
%TO.P,IC3,4,V-*%
%TO.N,GND*%
X70520600Y-106959500D03*
%TO.P,IC3,5,+INB*%
%TO.N,Net-(IC3-Pad5)*%
X62580600Y-106959500D03*
%TO.P,IC3,6,-INB*%
%TO.N,D34*%
X62580600Y-109499500D03*
%TO.P,IC3,7,OUTB*%
X62580600Y-112039500D03*
%TO.P,IC3,8,V+*%
%TO.N,+3V3*%
X62580600Y-114579500D03*
%TD*%
D20*
%TO.P,Q1,1,S*%
%TO.N,GND*%
X82152400Y-104644400D03*
D21*
%TO.P,Q1,2,G*%
%TO.N,/Zone1IO/ZoneInput*%
X83422400Y-104644400D03*
%TO.P,Q1,3,D*%
%TO.N,Net-(D2-Pad1)*%
X84692400Y-104644400D03*
%TD*%
D10*
%TO.P,R26,1*%
%TO.N,+3V3*%
X140604000Y-99584700D03*
D24*
%TO.P,R26,2*%
%TO.N,Net-(IC4-Pad7)*%
X138064000Y-99584700D03*
%TD*%
D10*
%TO.P,R8,1*%
%TO.N,Net-(Q3-Pad1)*%
X72798600Y-90313600D03*
D24*
%TO.P,R8,2*%
%TO.N,Net-(Q2-Pad3)*%
X75338600Y-90313600D03*
%TD*%
D35*
%TO.P,IC4,1,A_1*%
%TO.N,Net-(IC4-Pad1)*%
X134504800Y-115053600D03*
%TO.P,IC4,2,K_1*%
%TO.N,/InputIsolation/1in*%
X134504800Y-112513600D03*
%TO.P,IC4,3,A_2*%
%TO.N,Net-(IC4-Pad3)*%
X134504800Y-109973600D03*
%TO.P,IC4,4,K_2*%
%TO.N,/InputIsolation/2in*%
X134504800Y-107433600D03*
%TO.P,IC4,5,A_3*%
%TO.N,Net-(IC4-Pad5)*%
X134504800Y-104893600D03*
%TO.P,IC4,6,K_3*%
%TO.N,/InputIsolation/3in*%
X134504800Y-102353600D03*
%TO.P,IC4,7,A_4*%
%TO.N,Net-(IC4-Pad7)*%
X134504800Y-99813600D03*
%TO.P,IC4,8,K_4*%
%TO.N,/InputIsolation/4in*%
X134504800Y-97273600D03*
%TO.P,IC4,9,E_1*%
%TO.N,GND*%
X125404800Y-97273600D03*
%TO.P,IC4,10,C_1*%
%TO.N,D12*%
X125404800Y-99813600D03*
%TO.P,IC4,11,E_2*%
%TO.N,GND*%
X125404800Y-102353600D03*
%TO.P,IC4,12,C_2*%
%TO.N,D14*%
X125404800Y-104893600D03*
%TO.P,IC4,13,E_3*%
%TO.N,GND*%
X125404800Y-107433600D03*
%TO.P,IC4,14,C_3*%
%TO.N,D27*%
X125404800Y-109973600D03*
%TO.P,IC4,15,E_4*%
%TO.N,GND*%
X125404800Y-112513600D03*
%TO.P,IC4,16,C_4*%
%TO.N,D26*%
X125404800Y-115053600D03*
%TD*%
D25*
%TO.P,Q8,1,S*%
%TO.N,GND*%
X137542600Y-81822900D03*
D26*
%TO.P,Q8,2,G*%
%TO.N,D15*%
X137542600Y-83092900D03*
%TO.P,Q8,3,D*%
%TO.N,Net-(Q8-Pad3)*%
X137542600Y-84362900D03*
%TD*%
D25*
%TO.P,Q5,1,S*%
%TO.N,GND*%
X106673400Y-81749200D03*
D26*
%TO.P,Q5,2,G*%
%TO.N,D16*%
X106673400Y-83019200D03*
%TO.P,Q5,3,D*%
%TO.N,Net-(Q5-Pad3)*%
X106673400Y-84289200D03*
%TD*%
D10*
%TO.P,C5,1*%
%TO.N,/Zone4IO/ZoneInput*%
X151310400Y-84874400D03*
%TO.P,C5,2*%
%TO.N,GND*%
X151310400Y-79874400D03*
%TD*%
%TO.P,R21,1*%
%TO.N,Net-(Q13-Pad1)*%
X167425100Y-105167700D03*
D24*
%TO.P,R21,2*%
%TO.N,GND*%
X169965100Y-105167700D03*
%TD*%
D10*
%TO.P,R3,1*%
%TO.N,D22*%
X105650100Y-111109900D03*
D24*
%TO.P,R3,2*%
%TO.N,GND*%
X103110100Y-111109900D03*
%TD*%
D10*
%TO.P,R30,1*%
%TO.N,+3V3*%
X83306700Y-113124500D03*
D24*
%TO.P,R30,2*%
%TO.N,D26*%
X83306700Y-115664500D03*
%TD*%
D10*
%TO.P,R12,1*%
%TO.N,Net-(Q6-Pad1)*%
X102602700Y-90291400D03*
D24*
%TO.P,R12,2*%
%TO.N,Net-(Q5-Pad3)*%
X105142700Y-90291400D03*
%TD*%
D10*
%TO.P,R28,1*%
%TO.N,+3V3*%
X140604000Y-109163400D03*
D24*
%TO.P,R28,2*%
%TO.N,Net-(IC4-Pad3)*%
X138064000Y-109163400D03*
%TD*%
D10*
%TO.P,R20,1*%
%TO.N,Net-(Q12-Pad1)*%
X160459300Y-89971000D03*
D24*
%TO.P,R20,2*%
%TO.N,Net-(Q11-Pad3)*%
X162999300Y-89971000D03*
%TD*%
D10*
%TO.P,R19,1*%
%TO.N,+VDC*%
X155096800Y-90020800D03*
D24*
%TO.P,R19,2*%
%TO.N,Net-(Q12-Pad1)*%
X157636800Y-90020800D03*
%TD*%
D10*
%TO.P,R10,1*%
%TO.N,D16*%
X107804100Y-90285900D03*
D24*
%TO.P,R10,2*%
%TO.N,GND*%
X110344100Y-90285900D03*
%TD*%
D28*
%TO.P,D6,1,K*%
%TO.N,Net-(D6-Pad1)*%
X111225100Y-107240100D03*
D29*
%TO.P,D6,2,A*%
%TO.N,/InputIsolation/3in*%
X121385100Y-107240100D03*
%TD*%
D10*
%TO.P,R32,1*%
%TO.N,+3V3*%
X92887500Y-113124500D03*
D24*
%TO.P,R32,2*%
%TO.N,D14*%
X92887500Y-115664500D03*
%TD*%
D22*
%TO.P,Z7,1*%
%TO.N,+VDC*%
X124968600Y-87436000D03*
D23*
%TO.P,Z7,2*%
%TO.N,Net-(Q9-Pad1)*%
X135668600Y-87436000D03*
%TD*%
D10*
%TO.P,R34,1*%
%TO.N,D34*%
X57889400Y-114568900D03*
D24*
%TO.P,R34,2*%
%TO.N,GND*%
X60429400Y-114568900D03*
%TD*%
D36*
%TO.N,GND*%
X79744100Y-104644400D03*
X110681200Y-85364200D03*
X129949101Y-112732075D03*
X175397800Y-94105800D03*
%TO.N,+VDC*%
X67496700Y-96478900D03*
%TO.N,/InputIsolation/1in*%
X136217200Y-112539200D03*
%TO.N,/InputIsolation/2in*%
X132683200Y-106687700D03*
%TO.N,/InputIsolation/3in*%
X132792400Y-102309000D03*
%TO.N,/InputIsolation/4in*%
X127684800Y-97245100D03*
%TO.N,D21*%
X105595100Y-117698700D03*
%TO.N,Net-(IC4-Pad5)*%
X132828500Y-105687000D03*
%TO.N,Net-(IC4-Pad7)*%
X133129500Y-101084200D03*
%TO.N,D12*%
X127684800Y-101345000D03*
X101599700Y-111728700D03*
%TO.N,D14*%
X121803600Y-104507700D03*
X107503900Y-111581200D03*
%TO.N,D27*%
X116977200Y-110723400D03*
X120811300Y-110343900D03*
%TO.N,D26*%
X123198100Y-113969800D03*
X99940100Y-111709300D03*
%TO.N,D19*%
X84223800Y-93560200D03*
X132837400Y-93560200D03*
%TO.N,D5*%
X131766700Y-95343700D03*
%TO.N,D32*%
X118155200Y-124237800D03*
%TO.N,D4*%
X132446600Y-99415700D03*
X135118800Y-117429700D03*
%TO.N,D0*%
X99131700Y-100864500D03*
%TO.N,Net-(IC3-Pad5)*%
X83483000Y-92763400D03*
X134152800Y-92951000D03*
%TD*%
D37*
%TO.N,GND*%
X137329300Y-121042000D02*
X137329000Y-121042300D01*
D38*
X134789300Y-121042000D02*
X134789000Y-121042000D01*
D37*
X102976500Y-115956200D02*
X102976500Y-114830900D01*
X139869200Y-121042000D02*
X139869000Y-121042200D01*
X103110100Y-112235200D02*
X102976500Y-112368800D01*
X129824437Y-102353600D02*
X129949101Y-102478264D01*
X129949101Y-101225667D02*
X129949101Y-102478264D01*
X129949101Y-102478264D02*
X129949101Y-107401259D01*
X144949000Y-121042300D02*
X144949000Y-121042000D01*
X125404800Y-107433600D02*
X129916760Y-107433600D01*
D38*
X147489000Y-121042000D02*
X144949000Y-121042000D01*
D37*
X103110100Y-111109900D02*
X103110100Y-112235200D01*
X129949101Y-112732075D02*
X129730626Y-112513600D01*
X125997034Y-97273600D02*
X129949101Y-101225667D01*
X125404800Y-102353600D02*
X129824437Y-102353600D01*
X147489000Y-121042300D02*
X147489000Y-121042000D01*
X129730626Y-112513600D02*
X125404800Y-112513600D01*
X139869000Y-121042200D02*
X139869000Y-121042300D01*
D38*
X139869200Y-121042000D02*
X137329300Y-121042000D01*
D37*
X129916760Y-107433600D02*
X129949101Y-107401259D01*
X129949101Y-107401259D02*
X129949101Y-112732075D01*
D38*
X142409000Y-121042000D02*
X139869200Y-121042000D01*
D37*
X102976500Y-112368800D02*
X102976500Y-114830900D01*
D38*
X144949000Y-121042000D02*
X142409000Y-121042000D01*
D37*
X142409000Y-121042300D02*
X142409000Y-121042000D01*
D38*
X137329300Y-121042000D02*
X134789300Y-121042000D01*
D37*
X134789300Y-121042000D02*
X134789000Y-121042300D01*
X99060000Y-120650000D02*
X99060000Y-123190000D01*
X125404800Y-97273600D02*
X125997034Y-97273600D01*
X150029000Y-121042300D02*
X150029000Y-121042000D01*
D38*
X150029000Y-121042000D02*
X147489000Y-121042000D01*
D37*
%TO.N,+VDC*%
X167809000Y-121042300D02*
X167809000Y-121042000D01*
D39*
X64792500Y-87514000D02*
X67291100Y-90012600D01*
D37*
X165269000Y-121042300D02*
X165269000Y-121042000D01*
D39*
X156564000Y-87104200D02*
X156564000Y-88553300D01*
X156564000Y-88553300D02*
X155097000Y-90020800D01*
D37*
X67291100Y-90012600D02*
X67291100Y-96273300D01*
D39*
X124969000Y-88746500D02*
X126614000Y-90392400D01*
D37*
X170349000Y-121042300D02*
X170349000Y-121042000D01*
X67291100Y-96273300D02*
X67496700Y-96478900D01*
D39*
X64792500Y-87395400D02*
X64792500Y-87514000D01*
D38*
X160189000Y-121042000D02*
X160189300Y-121042000D01*
D37*
X168081400Y-114456600D02*
X168081400Y-121042000D01*
D39*
X95418500Y-87436000D02*
X95418500Y-88304000D01*
D38*
X168081400Y-121042000D02*
X170349000Y-121042000D01*
D37*
X162729200Y-121042000D02*
X162729000Y-121042200D01*
X160189300Y-121042000D02*
X160189000Y-121042300D01*
X162729000Y-121042200D02*
X162729000Y-121042300D01*
D38*
X167809000Y-121042000D02*
X168081400Y-121042000D01*
X162729200Y-121042000D02*
X165269000Y-121042000D01*
D39*
X67291100Y-90012600D02*
X67592100Y-90313600D01*
X95418500Y-88304000D02*
X97428100Y-90313600D01*
X124969000Y-87436000D02*
X124969000Y-88746500D01*
D38*
X165269000Y-121042000D02*
X167809000Y-121042000D01*
X160189300Y-121042000D02*
X162729200Y-121042000D01*
D40*
%TO.N,+5V*%
X67061267Y-113411189D02*
X67061267Y-107061973D01*
D39*
X113090000Y-119320000D02*
X150847000Y-119320000D01*
X111760000Y-120650000D02*
X111760000Y-123190000D01*
D40*
X111760000Y-120650000D02*
X110316373Y-119206373D01*
D37*
X152569000Y-121042300D02*
X152569000Y-121042000D01*
D40*
X110316373Y-119206373D02*
X72856451Y-119206373D01*
X67061267Y-107061973D02*
X55898892Y-95899598D01*
D39*
X152569000Y-121042000D02*
X155109000Y-121042000D01*
X150847000Y-119320000D02*
X152569000Y-121042000D01*
D40*
X55898892Y-95899598D02*
X55898892Y-89538949D01*
D37*
X155109000Y-121042300D02*
X155109000Y-121042000D01*
D40*
X72856451Y-119206373D02*
X67061267Y-113411189D01*
X55898892Y-89538949D02*
X59207667Y-86230174D01*
D39*
X111760000Y-120650000D02*
X113090000Y-119320000D01*
D37*
%TO.N,/InputIsolation/1in*%
X136191600Y-112513600D02*
X136217200Y-112539200D01*
X134504800Y-112513600D02*
X136191600Y-112513600D01*
%TO.N,/InputIsolation/2in*%
X133129500Y-107134000D02*
X132683200Y-106687700D01*
X134504800Y-107433600D02*
X133129500Y-107433600D01*
X133129500Y-107433600D02*
X133129500Y-107134000D01*
%TO.N,/InputIsolation/3in*%
X132837000Y-102353600D02*
X132792400Y-102309000D01*
X134504800Y-102353600D02*
X132837000Y-102353600D01*
%TO.N,/InputIsolation/4in*%
X134504800Y-97273600D02*
X127713300Y-97273600D01*
X127713300Y-97273600D02*
X127684800Y-97245100D01*
%TO.N,D39*%
X73660000Y-123190000D02*
X73660000Y-120650000D01*
%TO.N,Net-(P1-Pad1)*%
X176881900Y-105164100D02*
X176882000Y-105164000D01*
D41*
X176882000Y-105164000D02*
X176882000Y-97701900D01*
X176882000Y-97701900D02*
X178125900Y-96457900D01*
D37*
X176881600Y-105164100D02*
X176881900Y-105164100D01*
X178125700Y-96457800D02*
X178125800Y-96457800D01*
%TO.N,D36*%
X70520600Y-112039500D02*
X70520600Y-114579500D01*
%TO.N,Net-(IC3-Pad3)*%
X73032300Y-108420700D02*
X73032300Y-105627200D01*
X73376700Y-108765100D02*
X73032300Y-108420700D01*
%TO.N,Net-(IC4-Pad3)*%
X136690300Y-109163400D02*
X135880100Y-109973600D01*
X134504800Y-109973600D02*
X135880100Y-109973600D01*
X138064000Y-109163400D02*
X136690300Y-109163400D01*
%TO.N,Net-(IC4-Pad5)*%
X133129500Y-104893600D02*
X133129500Y-105386000D01*
X133129500Y-105386000D02*
X132828500Y-105687000D01*
X134504800Y-104893600D02*
X133129500Y-104893600D01*
%TO.N,Net-(IC4-Pad7)*%
X133129500Y-99813600D02*
X133129500Y-101084200D01*
X134504800Y-99813600D02*
X133129500Y-99813600D01*
%TO.N,D12*%
X126780100Y-100440300D02*
X127684800Y-101345000D01*
X126780100Y-99813600D02*
X126780100Y-100440300D01*
X125404800Y-99813600D02*
X126780100Y-99813600D01*
%TO.N,D14*%
X122189500Y-104893600D02*
X121803600Y-104507700D01*
X125404800Y-104893600D02*
X122189500Y-104893600D01*
%TO.N,D27*%
X125404800Y-109973600D02*
X121181600Y-109973600D01*
X121181600Y-109973600D02*
X120811300Y-110343900D01*
%TO.N,D26*%
X124029500Y-114801200D02*
X123198100Y-113969800D01*
X125404800Y-115053600D02*
X124029500Y-115053600D01*
X124029500Y-115053600D02*
X124029500Y-114801200D01*
%TO.N,Net-(Q13-Pad1)*%
X168051800Y-104541000D02*
X167425100Y-105167700D01*
X174341600Y-105163600D02*
X174341600Y-105164100D01*
D39*
X168052000Y-104541000D02*
X167425000Y-105168000D01*
X174342000Y-105164000D02*
X174341600Y-105163600D01*
X174341600Y-105163600D02*
X173092000Y-103914000D01*
D37*
X168052000Y-104541000D02*
X168051800Y-104541000D01*
D39*
X168679000Y-103914000D02*
X168052000Y-104541000D01*
X173092000Y-103914000D02*
X168679000Y-103914000D01*
D37*
%TO.N,Net-(IC4-Pad1)*%
X134555400Y-113952700D02*
X134504800Y-114003300D01*
X134504800Y-115053600D02*
X134504800Y-114003300D01*
X138064000Y-113952700D02*
X134555400Y-113952700D01*
%TO.N,D35*%
X78740000Y-123190000D02*
X78740000Y-120650000D01*
%TO.N,D32*%
X81280000Y-123190000D02*
X81280000Y-120650000D01*
%TO.N,D33*%
X83820000Y-123190000D02*
X83820000Y-120650000D01*
%TO.N,D25*%
X86360000Y-123190000D02*
X86360000Y-120650000D01*
%TO.N,EN*%
X68580000Y-123190000D02*
X68580000Y-120650000D01*
%TO.N,D34*%
X76200000Y-123190000D02*
X76200000Y-120650000D01*
X62580600Y-112039500D02*
X62580600Y-109499500D01*
%TD*%
%TA.AperFunction,Conductor*%
%TO.N,+VDC*%
G36*
X165915583Y-79917295D02*
G01*
X165962181Y-79970859D01*
X165973670Y-80023358D01*
X165976504Y-85373094D01*
X165979175Y-90414933D01*
X165988165Y-107386926D01*
X169732272Y-107372254D01*
X169800471Y-107391989D01*
X169847174Y-107445462D01*
X169858766Y-107498348D01*
X169856689Y-110242698D01*
X169845115Y-110295353D01*
X169825759Y-110337340D01*
X169778860Y-110439072D01*
X169772341Y-110453212D01*
X169771017Y-110457813D01*
X169771017Y-110457814D01*
X169705888Y-110684200D01*
X169700474Y-110703018D01*
X169667220Y-110960821D01*
X169669018Y-111037100D01*
X169673084Y-111209644D01*
X169673344Y-111220687D01*
X169718706Y-111476637D01*
X169802260Y-111722781D01*
X169841283Y-111797904D01*
X169855467Y-111856075D01*
X169853692Y-114201631D01*
X169852896Y-115252302D01*
X169832842Y-115320408D01*
X169779151Y-115366860D01*
X169726896Y-115378207D01*
X158974569Y-115378207D01*
X158906448Y-115358205D01*
X158859955Y-115304549D01*
X158848569Y-115252052D01*
X158879050Y-90456749D01*
X158883343Y-90424293D01*
X158928919Y-90254202D01*
X158928919Y-90254200D01*
X158930343Y-90248887D01*
X158930536Y-90246679D01*
X158961613Y-90183977D01*
X159022528Y-90147508D01*
X159093489Y-90149761D01*
X159151966Y-90190021D01*
X159175878Y-90236859D01*
X159225016Y-90420243D01*
X159227339Y-90425224D01*
X159227339Y-90425225D01*
X159319451Y-90622762D01*
X159319454Y-90622767D01*
X159321777Y-90627749D01*
X159453102Y-90815300D01*
X159615000Y-90977198D01*
X159619508Y-90980355D01*
X159619511Y-90980357D01*
X159697689Y-91035098D01*
X159802551Y-91108523D01*
X159807533Y-91110846D01*
X159807538Y-91110849D01*
X160005075Y-91202961D01*
X160010057Y-91205284D01*
X160015365Y-91206706D01*
X160015367Y-91206707D01*
X160225898Y-91263119D01*
X160225900Y-91263119D01*
X160231213Y-91264543D01*
X160459300Y-91284498D01*
X160687387Y-91264543D01*
X160692700Y-91263119D01*
X160692702Y-91263119D01*
X160903233Y-91206707D01*
X160903235Y-91206706D01*
X160908543Y-91205284D01*
X160913525Y-91202961D01*
X161111062Y-91110849D01*
X161111067Y-91110846D01*
X161116049Y-91108523D01*
X161220911Y-91035098D01*
X161299089Y-90980357D01*
X161299092Y-90980355D01*
X161303600Y-90977198D01*
X161465498Y-90815300D01*
X161596823Y-90627749D01*
X161599146Y-90622767D01*
X161599149Y-90622762D01*
X161615105Y-90588543D01*
X161662022Y-90535258D01*
X161730299Y-90515797D01*
X161798259Y-90536339D01*
X161843495Y-90588543D01*
X161859451Y-90622762D01*
X161859454Y-90622767D01*
X161861777Y-90627749D01*
X161993102Y-90815300D01*
X162155000Y-90977198D01*
X162159508Y-90980355D01*
X162159511Y-90980357D01*
X162237689Y-91035098D01*
X162342551Y-91108523D01*
X162347533Y-91110846D01*
X162347538Y-91110849D01*
X162545075Y-91202961D01*
X162550057Y-91205284D01*
X162555365Y-91206706D01*
X162555367Y-91206707D01*
X162765898Y-91263119D01*
X162765900Y-91263119D01*
X162771213Y-91264543D01*
X162999300Y-91284498D01*
X163227387Y-91264543D01*
X163232700Y-91263119D01*
X163232702Y-91263119D01*
X163443233Y-91206707D01*
X163443235Y-91206706D01*
X163448543Y-91205284D01*
X163453525Y-91202961D01*
X163651062Y-91110849D01*
X163651067Y-91110846D01*
X163656049Y-91108523D01*
X163760911Y-91035098D01*
X163839089Y-90980357D01*
X163839092Y-90980355D01*
X163843600Y-90977198D01*
X164005498Y-90815300D01*
X164136823Y-90627749D01*
X164139146Y-90622767D01*
X164139149Y-90622762D01*
X164231261Y-90425225D01*
X164231261Y-90425224D01*
X164233584Y-90420243D01*
X164269582Y-90285900D01*
X164291419Y-90204402D01*
X164291419Y-90204400D01*
X164292843Y-90199087D01*
X164312798Y-89971000D01*
X164292843Y-89742913D01*
X164290897Y-89735651D01*
X164235007Y-89527067D01*
X164235006Y-89527065D01*
X164233584Y-89521757D01*
X164198771Y-89447100D01*
X164139149Y-89319238D01*
X164139146Y-89319233D01*
X164136823Y-89314251D01*
X164063398Y-89209389D01*
X164008657Y-89131211D01*
X164008655Y-89131208D01*
X164005498Y-89126700D01*
X163843600Y-88964802D01*
X163839092Y-88961645D01*
X163839089Y-88961643D01*
X163760911Y-88906902D01*
X163656049Y-88833477D01*
X163651067Y-88831154D01*
X163651062Y-88831151D01*
X163453525Y-88739039D01*
X163453524Y-88739039D01*
X163448543Y-88736716D01*
X163443235Y-88735294D01*
X163443233Y-88735293D01*
X163232702Y-88678881D01*
X163232700Y-88678881D01*
X163227387Y-88677457D01*
X162999300Y-88657502D01*
X162771213Y-88677457D01*
X162765900Y-88678881D01*
X162765898Y-88678881D01*
X162555367Y-88735293D01*
X162555365Y-88735294D01*
X162550057Y-88736716D01*
X162545076Y-88739039D01*
X162545075Y-88739039D01*
X162347538Y-88831151D01*
X162347533Y-88831154D01*
X162342551Y-88833477D01*
X162237689Y-88906902D01*
X162159511Y-88961643D01*
X162159508Y-88961645D01*
X162155000Y-88964802D01*
X161993102Y-89126700D01*
X161989945Y-89131208D01*
X161989943Y-89131211D01*
X161935202Y-89209389D01*
X161861777Y-89314251D01*
X161859454Y-89319233D01*
X161859451Y-89319238D01*
X161843495Y-89353457D01*
X161796578Y-89406742D01*
X161728301Y-89426203D01*
X161660341Y-89405661D01*
X161615105Y-89353457D01*
X161599149Y-89319238D01*
X161599146Y-89319233D01*
X161596823Y-89314251D01*
X161523398Y-89209389D01*
X161468657Y-89131211D01*
X161468655Y-89131208D01*
X161465498Y-89126700D01*
X161303600Y-88964802D01*
X161299092Y-88961645D01*
X161299089Y-88961643D01*
X161220911Y-88906902D01*
X161116049Y-88833477D01*
X161111067Y-88831154D01*
X161111062Y-88831151D01*
X160913525Y-88739039D01*
X160913524Y-88739039D01*
X160908543Y-88736716D01*
X160903235Y-88735294D01*
X160903233Y-88735293D01*
X160692702Y-88678881D01*
X160692700Y-88678881D01*
X160687387Y-88677457D01*
X160459300Y-88657502D01*
X160231213Y-88677457D01*
X160225900Y-88678881D01*
X160225898Y-88678881D01*
X160015367Y-88735293D01*
X160015365Y-88735294D01*
X160010057Y-88736716D01*
X160005076Y-88739039D01*
X160005075Y-88739039D01*
X159807538Y-88831151D01*
X159807533Y-88831154D01*
X159802551Y-88833477D01*
X159697689Y-88906902D01*
X159619511Y-88961643D01*
X159619508Y-88961645D01*
X159615000Y-88964802D01*
X159453102Y-89126700D01*
X159449945Y-89131208D01*
X159449943Y-89131211D01*
X159395202Y-89209389D01*
X159321777Y-89314251D01*
X159319454Y-89319233D01*
X159319451Y-89319238D01*
X159259829Y-89447100D01*
X159225016Y-89521757D01*
X159223594Y-89527065D01*
X159223593Y-89527067D01*
X159167703Y-89735651D01*
X159165757Y-89742913D01*
X159165564Y-89745121D01*
X159134487Y-89807823D01*
X159073572Y-89844292D01*
X159002611Y-89842039D01*
X158944134Y-89801779D01*
X158920223Y-89754942D01*
X158884410Y-89621290D01*
X158880117Y-89588530D01*
X158881102Y-88787004D01*
X158881144Y-88753262D01*
X158881144Y-88753261D01*
X158881166Y-88735146D01*
X158867564Y-88735153D01*
X158867563Y-88735153D01*
X157912919Y-88735664D01*
X157880243Y-88731371D01*
X157870199Y-88728680D01*
X157870195Y-88728679D01*
X157864887Y-88727257D01*
X157859420Y-88726779D01*
X157859416Y-88726778D01*
X157642275Y-88707781D01*
X157636800Y-88707302D01*
X157408713Y-88727257D01*
X157403397Y-88728682D01*
X157403394Y-88728682D01*
X157392254Y-88731667D01*
X157359710Y-88735961D01*
X135922369Y-88747441D01*
X135854240Y-88727475D01*
X135807718Y-88673845D01*
X135797577Y-88603576D01*
X135827035Y-88538980D01*
X135886741Y-88500564D01*
X135904221Y-88496745D01*
X135904788Y-88496663D01*
X135922622Y-88494077D01*
X135928094Y-88492219D01*
X135928096Y-88492219D01*
X136105719Y-88431923D01*
X136111187Y-88430067D01*
X136284930Y-88332766D01*
X136338183Y-88288477D01*
X136433601Y-88209119D01*
X136438033Y-88205433D01*
X136490214Y-88142692D01*
X136561677Y-88056766D01*
X136561679Y-88056764D01*
X136565366Y-88052330D01*
X136662667Y-87878587D01*
X136726677Y-87690022D01*
X136733394Y-87643700D01*
X136754718Y-87496623D01*
X136755251Y-87492949D01*
X136756742Y-87436000D01*
X136738521Y-87237702D01*
X136732260Y-87215500D01*
X136686036Y-87051604D01*
X136686035Y-87051602D01*
X136684468Y-87046045D01*
X136681914Y-87040865D01*
X136598949Y-86872627D01*
X136598946Y-86872623D01*
X136596394Y-86867447D01*
X136569945Y-86832027D01*
X136480700Y-86712515D01*
X136477247Y-86707891D01*
X136331019Y-86572719D01*
X136326136Y-86569638D01*
X136167486Y-86469537D01*
X136162606Y-86466458D01*
X136016415Y-86408134D01*
X142212500Y-86408134D01*
X142219255Y-86470316D01*
X142270385Y-86606705D01*
X142357739Y-86723261D01*
X142474295Y-86810615D01*
X142610684Y-86861745D01*
X142672866Y-86868500D01*
X145369134Y-86868500D01*
X145431316Y-86861745D01*
X145567705Y-86810615D01*
X145684261Y-86723261D01*
X145771615Y-86606705D01*
X145822745Y-86470316D01*
X145829500Y-86408134D01*
X145829500Y-84874400D01*
X149996902Y-84874400D01*
X150016857Y-85102487D01*
X150018281Y-85107800D01*
X150018281Y-85107802D01*
X150071307Y-85305694D01*
X150076116Y-85323643D01*
X150078439Y-85328624D01*
X150078439Y-85328625D01*
X150170551Y-85526162D01*
X150170554Y-85526167D01*
X150172877Y-85531149D01*
X150304202Y-85718700D01*
X150466100Y-85880598D01*
X150470608Y-85883755D01*
X150470611Y-85883757D01*
X150502452Y-85906052D01*
X150653651Y-86011923D01*
X150658633Y-86014246D01*
X150658638Y-86014249D01*
X150856175Y-86106361D01*
X150861157Y-86108684D01*
X150866465Y-86110106D01*
X150866467Y-86110107D01*
X151076998Y-86166519D01*
X151077000Y-86166519D01*
X151082313Y-86167943D01*
X151310400Y-86187898D01*
X151538487Y-86167943D01*
X151543800Y-86166519D01*
X151543802Y-86166519D01*
X151754333Y-86110107D01*
X151754335Y-86110106D01*
X151759643Y-86108684D01*
X151764625Y-86106361D01*
X151962162Y-86014249D01*
X151962167Y-86014246D01*
X151967149Y-86011923D01*
X152118348Y-85906052D01*
X152150189Y-85883757D01*
X152150192Y-85883755D01*
X152154700Y-85880598D01*
X152316598Y-85718700D01*
X152447923Y-85531149D01*
X152450246Y-85526167D01*
X152450249Y-85526162D01*
X152542361Y-85328625D01*
X152542361Y-85328624D01*
X152544684Y-85323643D01*
X152549494Y-85305694D01*
X152602519Y-85107802D01*
X152602519Y-85107800D01*
X152603943Y-85102487D01*
X152623898Y-84874400D01*
X152603943Y-84646313D01*
X152580626Y-84559294D01*
X152546107Y-84430467D01*
X152546106Y-84430465D01*
X152544684Y-84425157D01*
X152542361Y-84420175D01*
X152450249Y-84222638D01*
X152450246Y-84222633D01*
X152447923Y-84217651D01*
X152348563Y-84075750D01*
X152319757Y-84034611D01*
X152319755Y-84034608D01*
X152316598Y-84030100D01*
X152154700Y-83868202D01*
X152150192Y-83865045D01*
X152150189Y-83865043D01*
X152056891Y-83799715D01*
X151967149Y-83736877D01*
X151962167Y-83734554D01*
X151962162Y-83734551D01*
X151764625Y-83642439D01*
X151764624Y-83642439D01*
X151759643Y-83640116D01*
X151754335Y-83638694D01*
X151754333Y-83638693D01*
X151543802Y-83582281D01*
X151543800Y-83582281D01*
X151538487Y-83580857D01*
X151310400Y-83560902D01*
X151082313Y-83580857D01*
X151077000Y-83582281D01*
X151076998Y-83582281D01*
X150866467Y-83638693D01*
X150866465Y-83638694D01*
X150861157Y-83640116D01*
X150856176Y-83642439D01*
X150856175Y-83642439D01*
X150658638Y-83734551D01*
X150658633Y-83734554D01*
X150653651Y-83736877D01*
X150563909Y-83799715D01*
X150470611Y-83865043D01*
X150470608Y-83865045D01*
X150466100Y-83868202D01*
X150304202Y-84030100D01*
X150301045Y-84034608D01*
X150301043Y-84034611D01*
X150272237Y-84075750D01*
X150172877Y-84217651D01*
X150170554Y-84222633D01*
X150170551Y-84222638D01*
X150078439Y-84420175D01*
X150076116Y-84425157D01*
X150074694Y-84430465D01*
X150074693Y-84430467D01*
X150040174Y-84559294D01*
X150016857Y-84646313D01*
X149996902Y-84874400D01*
X145829500Y-84874400D01*
X145829500Y-83711866D01*
X145822745Y-83649684D01*
X145771615Y-83513295D01*
X145684261Y-83396739D01*
X145567705Y-83309385D01*
X145431316Y-83258255D01*
X145369134Y-83251500D01*
X142672866Y-83251500D01*
X142610684Y-83258255D01*
X142474295Y-83309385D01*
X142357739Y-83396739D01*
X142270385Y-83513295D01*
X142219255Y-83649684D01*
X142212500Y-83711866D01*
X142212500Y-86408134D01*
X136016415Y-86408134D01*
X135977649Y-86392668D01*
X135971989Y-86391542D01*
X135971985Y-86391541D01*
X135788010Y-86354946D01*
X135788005Y-86354946D01*
X135782342Y-86353819D01*
X135776567Y-86353743D01*
X135776563Y-86353743D01*
X135678990Y-86352466D01*
X135583225Y-86351212D01*
X135386968Y-86384936D01*
X135200143Y-86453859D01*
X135195182Y-86456811D01*
X135195181Y-86456811D01*
X135073779Y-86529038D01*
X135029006Y-86555675D01*
X134879290Y-86686972D01*
X134875718Y-86691503D01*
X134772669Y-86822220D01*
X134756007Y-86843355D01*
X134663288Y-87019586D01*
X134604237Y-87209763D01*
X134580831Y-87407516D01*
X134593855Y-87606223D01*
X134642872Y-87799229D01*
X134726241Y-87980071D01*
X134729574Y-87984787D01*
X134809774Y-88098267D01*
X134841170Y-88142692D01*
X134983810Y-88281645D01*
X135149384Y-88392278D01*
X135154687Y-88394556D01*
X135154690Y-88394558D01*
X135287503Y-88451619D01*
X135332346Y-88470885D01*
X135337981Y-88472160D01*
X135337984Y-88472161D01*
X135402978Y-88486867D01*
X135455768Y-88498812D01*
X135517794Y-88533354D01*
X135551299Y-88595948D01*
X135545645Y-88666719D01*
X135502627Y-88723198D01*
X135435902Y-88747454D01*
X135428027Y-88747705D01*
X106262728Y-88763323D01*
X106194597Y-88743357D01*
X106148075Y-88689727D01*
X106137934Y-88619458D01*
X106167392Y-88554862D01*
X106227098Y-88516446D01*
X106244575Y-88512628D01*
X106300026Y-88504588D01*
X106366801Y-88494907D01*
X106366806Y-88494906D01*
X106372522Y-88494077D01*
X106377994Y-88492219D01*
X106377996Y-88492219D01*
X106555619Y-88431923D01*
X106561087Y-88430067D01*
X106734830Y-88332766D01*
X106788083Y-88288477D01*
X106883501Y-88209119D01*
X106887933Y-88205433D01*
X106940114Y-88142692D01*
X107011577Y-88056766D01*
X107011579Y-88056764D01*
X107015266Y-88052330D01*
X107112567Y-87878587D01*
X107176577Y-87690022D01*
X107183294Y-87643700D01*
X107204618Y-87496623D01*
X107205151Y-87492949D01*
X107206642Y-87436000D01*
X107188421Y-87237702D01*
X107182160Y-87215500D01*
X107135936Y-87051604D01*
X107135935Y-87051602D01*
X107134368Y-87046045D01*
X107131814Y-87040865D01*
X107048849Y-86872627D01*
X107048846Y-86872623D01*
X107046294Y-86867447D01*
X107019845Y-86832027D01*
X106930600Y-86712515D01*
X106927147Y-86707891D01*
X106780919Y-86572719D01*
X106776036Y-86569638D01*
X106617386Y-86469537D01*
X106612506Y-86466458D01*
X106427549Y-86392668D01*
X106421889Y-86391542D01*
X106421885Y-86391541D01*
X106237910Y-86354946D01*
X106237905Y-86354946D01*
X106232242Y-86353819D01*
X106226467Y-86353743D01*
X106226463Y-86353743D01*
X106128890Y-86352466D01*
X106033125Y-86351212D01*
X105836868Y-86384936D01*
X105650043Y-86453859D01*
X105645082Y-86456811D01*
X105645081Y-86456811D01*
X105523679Y-86529038D01*
X105478906Y-86555675D01*
X105329190Y-86686972D01*
X105325618Y-86691503D01*
X105222569Y-86822220D01*
X105205907Y-86843355D01*
X105113188Y-87019586D01*
X105054137Y-87209763D01*
X105030731Y-87407516D01*
X105043755Y-87606223D01*
X105092772Y-87799229D01*
X105176141Y-87980071D01*
X105179474Y-87984787D01*
X105259674Y-88098267D01*
X105291070Y-88142692D01*
X105433710Y-88281645D01*
X105599284Y-88392278D01*
X105604587Y-88394556D01*
X105604590Y-88394558D01*
X105737403Y-88451619D01*
X105782246Y-88470885D01*
X105913409Y-88500564D01*
X105975435Y-88514599D01*
X106037461Y-88549142D01*
X106070966Y-88611735D01*
X106065312Y-88682506D01*
X106022293Y-88738986D01*
X105955569Y-88763241D01*
X105947694Y-88763492D01*
X62167924Y-88786936D01*
X62099793Y-88766970D01*
X62053271Y-88713340D01*
X62041858Y-88660552D01*
X62041984Y-88619458D01*
X62045802Y-87366916D01*
X74404731Y-87366916D01*
X74417755Y-87565623D01*
X74466772Y-87758629D01*
X74550141Y-87939471D01*
X74553474Y-87944187D01*
X74626341Y-88047291D01*
X74665070Y-88102092D01*
X74807710Y-88241045D01*
X74973284Y-88351678D01*
X74978587Y-88353956D01*
X74978590Y-88353958D01*
X75073089Y-88394558D01*
X75156246Y-88430285D01*
X75227776Y-88446471D01*
X75344832Y-88472958D01*
X75344837Y-88472959D01*
X75350469Y-88474233D01*
X75356240Y-88474460D01*
X75356242Y-88474460D01*
X75416469Y-88476826D01*
X75549449Y-88482051D01*
X75665006Y-88465296D01*
X75740800Y-88454307D01*
X75740804Y-88454306D01*
X75746522Y-88453477D01*
X75751994Y-88451619D01*
X75751996Y-88451619D01*
X75849992Y-88418353D01*
X75935087Y-88389467D01*
X76108830Y-88292166D01*
X76121481Y-88281645D01*
X76257501Y-88168519D01*
X76261933Y-88164833D01*
X76348723Y-88060478D01*
X76385577Y-88016166D01*
X76385579Y-88016164D01*
X76389266Y-88011730D01*
X76486567Y-87837987D01*
X76536795Y-87690022D01*
X76548719Y-87654896D01*
X76548719Y-87654894D01*
X76550577Y-87649422D01*
X76556029Y-87611825D01*
X76566184Y-87541778D01*
X76579151Y-87452349D01*
X76580642Y-87395400D01*
X76564112Y-87215500D01*
X76562950Y-87202856D01*
X76562949Y-87202853D01*
X76562421Y-87197102D01*
X76556160Y-87174900D01*
X76509936Y-87011004D01*
X76509935Y-87011002D01*
X76508368Y-87005445D01*
X76505814Y-87000265D01*
X76422849Y-86832027D01*
X76422846Y-86832023D01*
X76420294Y-86826847D01*
X76337581Y-86716081D01*
X76304600Y-86671915D01*
X76301147Y-86667291D01*
X76154919Y-86532119D01*
X76150036Y-86529038D01*
X75991386Y-86428937D01*
X75986506Y-86425858D01*
X75942080Y-86408134D01*
X81252500Y-86408134D01*
X81259255Y-86470316D01*
X81310385Y-86606705D01*
X81397739Y-86723261D01*
X81514295Y-86810615D01*
X81650684Y-86861745D01*
X81712866Y-86868500D01*
X84409134Y-86868500D01*
X84471316Y-86861745D01*
X84607705Y-86810615D01*
X84724261Y-86723261D01*
X84811615Y-86606705D01*
X84862745Y-86470316D01*
X84869500Y-86408134D01*
X84869500Y-85364200D01*
X109767696Y-85364200D01*
X109768386Y-85370765D01*
X109785717Y-85535657D01*
X109787658Y-85554128D01*
X109846673Y-85735756D01*
X109942160Y-85901144D01*
X110069947Y-86043066D01*
X110224448Y-86155318D01*
X110230476Y-86158002D01*
X110230478Y-86158003D01*
X110252804Y-86167943D01*
X110398912Y-86232994D01*
X110492313Y-86252847D01*
X110579256Y-86271328D01*
X110579261Y-86271328D01*
X110585713Y-86272700D01*
X110776687Y-86272700D01*
X110783139Y-86271328D01*
X110783144Y-86271328D01*
X110870087Y-86252847D01*
X110963488Y-86232994D01*
X111109596Y-86167943D01*
X111131922Y-86158003D01*
X111131924Y-86158002D01*
X111137952Y-86155318D01*
X111292453Y-86043066D01*
X111420240Y-85901144D01*
X111497381Y-85767532D01*
X111548764Y-85718539D01*
X111618477Y-85705103D01*
X111684388Y-85731489D01*
X111725570Y-85789321D01*
X111732500Y-85830532D01*
X111732500Y-86408134D01*
X111739255Y-86470316D01*
X111790385Y-86606705D01*
X111877739Y-86723261D01*
X111994295Y-86810615D01*
X112130684Y-86861745D01*
X112192866Y-86868500D01*
X114889134Y-86868500D01*
X114951316Y-86861745D01*
X115087705Y-86810615D01*
X115204261Y-86723261D01*
X115291615Y-86606705D01*
X115342745Y-86470316D01*
X115349500Y-86408134D01*
X115349500Y-84355650D01*
X136279124Y-84355650D01*
X136284996Y-84420175D01*
X136296921Y-84551196D01*
X136297494Y-84557496D01*
X136299232Y-84563402D01*
X136299233Y-84563406D01*
X136301680Y-84571720D01*
X136354719Y-84751929D01*
X136357572Y-84757386D01*
X136357573Y-84757389D01*
X136361266Y-84764453D01*
X136448619Y-84931545D01*
X136452479Y-84936345D01*
X136452479Y-84936346D01*
X136455321Y-84939881D01*
X136575619Y-85089501D01*
X136730881Y-85219781D01*
X136736273Y-85222745D01*
X136736277Y-85222748D01*
X136891634Y-85308156D01*
X136908491Y-85317423D01*
X137101684Y-85378707D01*
X137107801Y-85379393D01*
X137107805Y-85379394D01*
X137181948Y-85387710D01*
X137259417Y-85396400D01*
X137818604Y-85396400D01*
X137969313Y-85381623D01*
X138163342Y-85323042D01*
X138342298Y-85227890D01*
X138499363Y-85099790D01*
X138507875Y-85089501D01*
X138624627Y-84948372D01*
X138624629Y-84948369D01*
X138628556Y-84943622D01*
X138724956Y-84765335D01*
X138784890Y-84571720D01*
X138787693Y-84545057D01*
X138805432Y-84376278D01*
X138805432Y-84376277D01*
X138806076Y-84370150D01*
X138787706Y-84168304D01*
X138784113Y-84156094D01*
X138732220Y-83979780D01*
X138730481Y-83973871D01*
X138727188Y-83967571D01*
X138661199Y-83841345D01*
X138636581Y-83794255D01*
X138636616Y-83794237D01*
X138616711Y-83728459D01*
X138631871Y-83667491D01*
X138636252Y-83659388D01*
X138724956Y-83495335D01*
X138771395Y-83345315D01*
X138783068Y-83307607D01*
X138783069Y-83307604D01*
X138784890Y-83301720D01*
X138787693Y-83275057D01*
X138805432Y-83106278D01*
X138805432Y-83106277D01*
X138806076Y-83100150D01*
X138790771Y-82931983D01*
X138788265Y-82904443D01*
X138788264Y-82904440D01*
X138787706Y-82898304D01*
X138784113Y-82886094D01*
X138732220Y-82709779D01*
X138732219Y-82709777D01*
X138730481Y-82703871D01*
X138731340Y-82703618D01*
X138724886Y-82638238D01*
X138738052Y-82601494D01*
X138743215Y-82594605D01*
X138746368Y-82586196D01*
X138788924Y-82472676D01*
X138794345Y-82458216D01*
X138801100Y-82396034D01*
X138801100Y-82231598D01*
X158216107Y-82231598D01*
X158216404Y-82236751D01*
X158216404Y-82236754D01*
X158225391Y-82392617D01*
X158230007Y-82472676D01*
X158231144Y-82477722D01*
X158231145Y-82477728D01*
X158254170Y-82579896D01*
X158283095Y-82708246D01*
X158285037Y-82713028D01*
X158285038Y-82713032D01*
X158360204Y-82898143D01*
X158373945Y-82931983D01*
X158500117Y-83137877D01*
X158658223Y-83320399D01*
X158662198Y-83323699D01*
X158662202Y-83323703D01*
X158679322Y-83337916D01*
X158844016Y-83474648D01*
X159052507Y-83596480D01*
X159057327Y-83598320D01*
X159057332Y-83598323D01*
X159172459Y-83642285D01*
X159278097Y-83682624D01*
X159283163Y-83683655D01*
X159283164Y-83683655D01*
X159333869Y-83693971D01*
X159514728Y-83730767D01*
X159650098Y-83735731D01*
X159750880Y-83739427D01*
X159750884Y-83739427D01*
X159756044Y-83739616D01*
X159761164Y-83738960D01*
X159761166Y-83738960D01*
X159990437Y-83709590D01*
X159990438Y-83709590D01*
X159995565Y-83708933D01*
X160005765Y-83705873D01*
X160221905Y-83641027D01*
X160226858Y-83639541D01*
X160443712Y-83533306D01*
X160447914Y-83530309D01*
X160447927Y-83530301D01*
X160623382Y-83405149D01*
X160690456Y-83381875D01*
X160759464Y-83398558D01*
X160808498Y-83449901D01*
X160814532Y-83463495D01*
X160815432Y-83465895D01*
X160818585Y-83474305D01*
X160905939Y-83590861D01*
X161022495Y-83678215D01*
X161158884Y-83729345D01*
X161221066Y-83736100D01*
X163237334Y-83736100D01*
X163299516Y-83729345D01*
X163435905Y-83678215D01*
X163552461Y-83590861D01*
X163639815Y-83474305D01*
X163690945Y-83337916D01*
X163697700Y-83275734D01*
X163697700Y-81259466D01*
X163690945Y-81197284D01*
X163639815Y-81060895D01*
X163552461Y-80944339D01*
X163435905Y-80856985D01*
X163299516Y-80805855D01*
X163237334Y-80799100D01*
X161221066Y-80799100D01*
X161158884Y-80805855D01*
X161022495Y-80856985D01*
X160905939Y-80944339D01*
X160818585Y-81060895D01*
X160815433Y-81069303D01*
X160815431Y-81069307D01*
X160813434Y-81074633D01*
X160770792Y-81131397D01*
X160704230Y-81156096D01*
X160634882Y-81140888D01*
X160617361Y-81129284D01*
X160508696Y-81043465D01*
X160508692Y-81043463D01*
X160504641Y-81040263D01*
X160500015Y-81037709D01*
X160447584Y-81008766D01*
X160293235Y-80923561D01*
X160288366Y-80921837D01*
X160288362Y-80921835D01*
X160070483Y-80844680D01*
X160070479Y-80844679D01*
X160065608Y-80842954D01*
X160060515Y-80842047D01*
X160060512Y-80842046D01*
X159959625Y-80824076D01*
X159827872Y-80800607D01*
X159734757Y-80799469D01*
X159591582Y-80797719D01*
X159591580Y-80797719D01*
X159586412Y-80797656D01*
X159347712Y-80834183D01*
X159118183Y-80909204D01*
X159113595Y-80911592D01*
X159113591Y-80911594D01*
X158920861Y-81011923D01*
X158903989Y-81020706D01*
X158899856Y-81023809D01*
X158899853Y-81023811D01*
X158715018Y-81162590D01*
X158710883Y-81165695D01*
X158689665Y-81187898D01*
X158573667Y-81309284D01*
X158544050Y-81340276D01*
X158541136Y-81344548D01*
X158541135Y-81344549D01*
X158520443Y-81374883D01*
X158407971Y-81539760D01*
X158306300Y-81758792D01*
X158241767Y-81991487D01*
X158216107Y-82231598D01*
X138801100Y-82231598D01*
X138801100Y-81249766D01*
X138794345Y-81187584D01*
X138743215Y-81051195D01*
X138655861Y-80934639D01*
X138539305Y-80847285D01*
X138402916Y-80796155D01*
X138347040Y-80790085D01*
X138344131Y-80789769D01*
X138340734Y-80789400D01*
X136744466Y-80789400D01*
X136741069Y-80789769D01*
X136738160Y-80790085D01*
X136682284Y-80796155D01*
X136545895Y-80847285D01*
X136429339Y-80934639D01*
X136341985Y-81051195D01*
X136290855Y-81187584D01*
X136284100Y-81249766D01*
X136284100Y-82396034D01*
X136290855Y-82458216D01*
X136296276Y-82472676D01*
X136338832Y-82586196D01*
X136338834Y-82586199D01*
X136341985Y-82594605D01*
X136347373Y-82601794D01*
X136347506Y-82602037D01*
X136362676Y-82671394D01*
X136357352Y-82699807D01*
X136300310Y-82884080D01*
X136299666Y-82890205D01*
X136299666Y-82890206D01*
X136280430Y-83073222D01*
X136279124Y-83085650D01*
X136283877Y-83137877D01*
X136296921Y-83281196D01*
X136297494Y-83287496D01*
X136299232Y-83293402D01*
X136299233Y-83293406D01*
X136328062Y-83391358D01*
X136354719Y-83481929D01*
X136357572Y-83487386D01*
X136357573Y-83487389D01*
X136373131Y-83517149D01*
X136448523Y-83661360D01*
X136448523Y-83661362D01*
X136448619Y-83661545D01*
X136448584Y-83661563D01*
X136468489Y-83727341D01*
X136453329Y-83788309D01*
X136360244Y-83960465D01*
X136356215Y-83973480D01*
X136304083Y-84141893D01*
X136300310Y-84154080D01*
X136299666Y-84160205D01*
X136299666Y-84160206D01*
X136285833Y-84291820D01*
X136279124Y-84355650D01*
X115349500Y-84355650D01*
X115349500Y-83711866D01*
X115342745Y-83649684D01*
X115291615Y-83513295D01*
X115204261Y-83396739D01*
X115087705Y-83309385D01*
X114951316Y-83258255D01*
X114889134Y-83251500D01*
X112192866Y-83251500D01*
X112130684Y-83258255D01*
X111994295Y-83309385D01*
X111877739Y-83396739D01*
X111790385Y-83513295D01*
X111739255Y-83649684D01*
X111732500Y-83711866D01*
X111732500Y-84897868D01*
X111712498Y-84965989D01*
X111658842Y-85012482D01*
X111588568Y-85022586D01*
X111523988Y-84993092D01*
X111497381Y-84960868D01*
X111461008Y-84897868D01*
X111420240Y-84827256D01*
X111404344Y-84809601D01*
X111296875Y-84690245D01*
X111296874Y-84690244D01*
X111292453Y-84685334D01*
X111137952Y-84573082D01*
X111131924Y-84570398D01*
X111131922Y-84570397D01*
X110969519Y-84498091D01*
X110969518Y-84498091D01*
X110963488Y-84495406D01*
X110870087Y-84475553D01*
X110783144Y-84457072D01*
X110783139Y-84457072D01*
X110776687Y-84455700D01*
X110585713Y-84455700D01*
X110579261Y-84457072D01*
X110579256Y-84457072D01*
X110492313Y-84475553D01*
X110398912Y-84495406D01*
X110392882Y-84498091D01*
X110392881Y-84498091D01*
X110230478Y-84570397D01*
X110230476Y-84570398D01*
X110224448Y-84573082D01*
X110069947Y-84685334D01*
X110065526Y-84690244D01*
X110065525Y-84690245D01*
X109958057Y-84809601D01*
X109942160Y-84827256D01*
X109914784Y-84874672D01*
X109872234Y-84948372D01*
X109846673Y-84992644D01*
X109787658Y-85174272D01*
X109786968Y-85180833D01*
X109786968Y-85180835D01*
X109773079Y-85312986D01*
X109767696Y-85364200D01*
X84869500Y-85364200D01*
X84869500Y-84281950D01*
X105409924Y-84281950D01*
X105415500Y-84343222D01*
X105423441Y-84430467D01*
X105428294Y-84483796D01*
X105430032Y-84489702D01*
X105430033Y-84489706D01*
X105454572Y-84573082D01*
X105485519Y-84678229D01*
X105488372Y-84683686D01*
X105488373Y-84683689D01*
X105520959Y-84746020D01*
X105579419Y-84857845D01*
X105583279Y-84862645D01*
X105583279Y-84862646D01*
X105592948Y-84874672D01*
X105706419Y-85015801D01*
X105861681Y-85146081D01*
X105867073Y-85149045D01*
X105867077Y-85149048D01*
X106010491Y-85227890D01*
X106039291Y-85243723D01*
X106232484Y-85305007D01*
X106238601Y-85305693D01*
X106238605Y-85305694D01*
X106311319Y-85313850D01*
X106390217Y-85322700D01*
X106949404Y-85322700D01*
X107100113Y-85307923D01*
X107294142Y-85249342D01*
X107473098Y-85154190D01*
X107630163Y-85026090D01*
X107638675Y-85015801D01*
X107755427Y-84874672D01*
X107755429Y-84874669D01*
X107759356Y-84869922D01*
X107855756Y-84691635D01*
X107895450Y-84563406D01*
X107913868Y-84503907D01*
X107913869Y-84503904D01*
X107915690Y-84498020D01*
X107930009Y-84361790D01*
X107936232Y-84302578D01*
X107936232Y-84302577D01*
X107936876Y-84296450D01*
X107925772Y-84174443D01*
X107919065Y-84100743D01*
X107919064Y-84100740D01*
X107918506Y-84094604D01*
X107899522Y-84030100D01*
X107863020Y-83906080D01*
X107861281Y-83900171D01*
X107857351Y-83892652D01*
X107803744Y-83790112D01*
X107767381Y-83720555D01*
X107767416Y-83720537D01*
X107747511Y-83654759D01*
X107762671Y-83593791D01*
X107767052Y-83585688D01*
X107855756Y-83421635D01*
X107895450Y-83293406D01*
X107913868Y-83233907D01*
X107913869Y-83233904D01*
X107915690Y-83228020D01*
X107925165Y-83137877D01*
X107936232Y-83032578D01*
X107936232Y-83032577D01*
X107936876Y-83026450D01*
X107925772Y-82904443D01*
X107919065Y-82830743D01*
X107919064Y-82830740D01*
X107918506Y-82824604D01*
X107915740Y-82815204D01*
X107863020Y-82636079D01*
X107863019Y-82636077D01*
X107861281Y-82630171D01*
X107862140Y-82629918D01*
X107855686Y-82564538D01*
X107868852Y-82527794D01*
X107874015Y-82520905D01*
X107877168Y-82512496D01*
X107915380Y-82410565D01*
X107925145Y-82384516D01*
X107931900Y-82322334D01*
X107931900Y-82231598D01*
X127072607Y-82231598D01*
X127072904Y-82236751D01*
X127072904Y-82236754D01*
X127081891Y-82392617D01*
X127086507Y-82472676D01*
X127087644Y-82477722D01*
X127087645Y-82477728D01*
X127110670Y-82579896D01*
X127139595Y-82708246D01*
X127141537Y-82713028D01*
X127141538Y-82713032D01*
X127216704Y-82898143D01*
X127230445Y-82931983D01*
X127356617Y-83137877D01*
X127514723Y-83320399D01*
X127518698Y-83323699D01*
X127518702Y-83323703D01*
X127535822Y-83337916D01*
X127700516Y-83474648D01*
X127909007Y-83596480D01*
X127913827Y-83598320D01*
X127913832Y-83598323D01*
X128028959Y-83642285D01*
X128134597Y-83682624D01*
X128139663Y-83683655D01*
X128139664Y-83683655D01*
X128190369Y-83693971D01*
X128371228Y-83730767D01*
X128506598Y-83735731D01*
X128607380Y-83739427D01*
X128607384Y-83739427D01*
X128612544Y-83739616D01*
X128617664Y-83738960D01*
X128617666Y-83738960D01*
X128846937Y-83709590D01*
X128846938Y-83709590D01*
X128852065Y-83708933D01*
X128862265Y-83705873D01*
X129078405Y-83641027D01*
X129083358Y-83639541D01*
X129300212Y-83533306D01*
X129304414Y-83530309D01*
X129304427Y-83530301D01*
X129479882Y-83405149D01*
X129546956Y-83381875D01*
X129615964Y-83398558D01*
X129664998Y-83449901D01*
X129671032Y-83463495D01*
X129671932Y-83465895D01*
X129675085Y-83474305D01*
X129762439Y-83590861D01*
X129878995Y-83678215D01*
X130015384Y-83729345D01*
X130077566Y-83736100D01*
X132093834Y-83736100D01*
X132156016Y-83729345D01*
X132292405Y-83678215D01*
X132408961Y-83590861D01*
X132496315Y-83474305D01*
X132547445Y-83337916D01*
X132554200Y-83275734D01*
X132554200Y-81259466D01*
X132547445Y-81197284D01*
X132496315Y-81060895D01*
X132408961Y-80944339D01*
X132292405Y-80856985D01*
X132156016Y-80805855D01*
X132093834Y-80799100D01*
X130077566Y-80799100D01*
X130015384Y-80805855D01*
X129878995Y-80856985D01*
X129762439Y-80944339D01*
X129675085Y-81060895D01*
X129671933Y-81069303D01*
X129671931Y-81069307D01*
X129669934Y-81074633D01*
X129627292Y-81131397D01*
X129560730Y-81156096D01*
X129491382Y-81140888D01*
X129473861Y-81129284D01*
X129365196Y-81043465D01*
X129365192Y-81043463D01*
X129361141Y-81040263D01*
X129356515Y-81037709D01*
X129304084Y-81008766D01*
X129149735Y-80923561D01*
X129144866Y-80921837D01*
X129144862Y-80921835D01*
X128926983Y-80844680D01*
X128926979Y-80844679D01*
X128922108Y-80842954D01*
X128917015Y-80842047D01*
X128917012Y-80842046D01*
X128816125Y-80824076D01*
X128684372Y-80800607D01*
X128591257Y-80799469D01*
X128448082Y-80797719D01*
X128448080Y-80797719D01*
X128442912Y-80797656D01*
X128204212Y-80834183D01*
X127974683Y-80909204D01*
X127970095Y-80911592D01*
X127970091Y-80911594D01*
X127777361Y-81011923D01*
X127760489Y-81020706D01*
X127756356Y-81023809D01*
X127756353Y-81023811D01*
X127571518Y-81162590D01*
X127567383Y-81165695D01*
X127546165Y-81187898D01*
X127430167Y-81309284D01*
X127400550Y-81340276D01*
X127397636Y-81344548D01*
X127397635Y-81344549D01*
X127376943Y-81374883D01*
X127264471Y-81539760D01*
X127162800Y-81758792D01*
X127098267Y-81991487D01*
X127072607Y-82231598D01*
X107931900Y-82231598D01*
X107931900Y-81176066D01*
X107925145Y-81113884D01*
X107874015Y-80977495D01*
X107786661Y-80860939D01*
X107670105Y-80773585D01*
X107533716Y-80722455D01*
X107471534Y-80715700D01*
X105875266Y-80715700D01*
X105813084Y-80722455D01*
X105676695Y-80773585D01*
X105560139Y-80860939D01*
X105472785Y-80977495D01*
X105421655Y-81113884D01*
X105414900Y-81176066D01*
X105414900Y-82322334D01*
X105421655Y-82384516D01*
X105431420Y-82410565D01*
X105469632Y-82512496D01*
X105469634Y-82512499D01*
X105472785Y-82520905D01*
X105478173Y-82528094D01*
X105478306Y-82528337D01*
X105493476Y-82597694D01*
X105488152Y-82626107D01*
X105431110Y-82810380D01*
X105430466Y-82816505D01*
X105430466Y-82816506D01*
X105418832Y-82927196D01*
X105409924Y-83011950D01*
X105428294Y-83213796D01*
X105430032Y-83219702D01*
X105430033Y-83219706D01*
X105464825Y-83337916D01*
X105485519Y-83408229D01*
X105488372Y-83413686D01*
X105488373Y-83413689D01*
X105520959Y-83476020D01*
X105579323Y-83587660D01*
X105579323Y-83587662D01*
X105579419Y-83587845D01*
X105579384Y-83587863D01*
X105599289Y-83653641D01*
X105584129Y-83714609D01*
X105491044Y-83886765D01*
X105466408Y-83966352D01*
X105447881Y-84026203D01*
X105431110Y-84080380D01*
X105430466Y-84086505D01*
X105430466Y-84086506D01*
X105417156Y-84213143D01*
X105409924Y-84281950D01*
X84869500Y-84281950D01*
X84869500Y-83711866D01*
X84862745Y-83649684D01*
X84811615Y-83513295D01*
X84724261Y-83396739D01*
X84607705Y-83309385D01*
X84471316Y-83258255D01*
X84409134Y-83251500D01*
X81712866Y-83251500D01*
X81650684Y-83258255D01*
X81514295Y-83309385D01*
X81397739Y-83396739D01*
X81310385Y-83513295D01*
X81259255Y-83649684D01*
X81252500Y-83711866D01*
X81252500Y-86408134D01*
X75942080Y-86408134D01*
X75801549Y-86352068D01*
X75795889Y-86350942D01*
X75795885Y-86350941D01*
X75611910Y-86314346D01*
X75611905Y-86314346D01*
X75606242Y-86313219D01*
X75600467Y-86313143D01*
X75600463Y-86313143D01*
X75502890Y-86311866D01*
X75407125Y-86310612D01*
X75210868Y-86344336D01*
X75024043Y-86413259D01*
X75019082Y-86416211D01*
X75019081Y-86416211D01*
X74858823Y-86511555D01*
X74852906Y-86515075D01*
X74703190Y-86646372D01*
X74699618Y-86650903D01*
X74648236Y-86716081D01*
X74579907Y-86802755D01*
X74487188Y-86978986D01*
X74428137Y-87169163D01*
X74404731Y-87366916D01*
X62045802Y-87366916D01*
X62054999Y-84349350D01*
X75811324Y-84349350D01*
X75813217Y-84370150D01*
X75824617Y-84495406D01*
X75829694Y-84551196D01*
X75831432Y-84557102D01*
X75831433Y-84557106D01*
X75859258Y-84651645D01*
X75886919Y-84745629D01*
X75889772Y-84751086D01*
X75889773Y-84751089D01*
X75893067Y-84757389D01*
X75980819Y-84925245D01*
X75984679Y-84930045D01*
X75984679Y-84930046D01*
X75999106Y-84947990D01*
X76107819Y-85083201D01*
X76263081Y-85213481D01*
X76268473Y-85216445D01*
X76268477Y-85216448D01*
X76331551Y-85251123D01*
X76440691Y-85311123D01*
X76633884Y-85372407D01*
X76640001Y-85373093D01*
X76640005Y-85373094D01*
X76714148Y-85381410D01*
X76791617Y-85390100D01*
X77350804Y-85390100D01*
X77501513Y-85375323D01*
X77695542Y-85316742D01*
X77874498Y-85221590D01*
X78031563Y-85093490D01*
X78044046Y-85078401D01*
X78156827Y-84942072D01*
X78156829Y-84942069D01*
X78160756Y-84937322D01*
X78257156Y-84759035D01*
X78293695Y-84640998D01*
X78315268Y-84571307D01*
X78315269Y-84571304D01*
X78317090Y-84565420D01*
X78338276Y-84363850D01*
X78325424Y-84222638D01*
X78320465Y-84168143D01*
X78320464Y-84168140D01*
X78319906Y-84162004D01*
X78315842Y-84148193D01*
X78264420Y-83973480D01*
X78262681Y-83967571D01*
X78258751Y-83960052D01*
X78200031Y-83847731D01*
X78168781Y-83787955D01*
X78168816Y-83787937D01*
X78148911Y-83722159D01*
X78164071Y-83661191D01*
X78170293Y-83649684D01*
X78257156Y-83489035D01*
X78312767Y-83309385D01*
X78315268Y-83301307D01*
X78315269Y-83301304D01*
X78317090Y-83295420D01*
X78321668Y-83251869D01*
X78337632Y-83099978D01*
X78337632Y-83099977D01*
X78338276Y-83093850D01*
X78323945Y-82936387D01*
X78320465Y-82898143D01*
X78320464Y-82898140D01*
X78319906Y-82892004D01*
X78315842Y-82878194D01*
X78264420Y-82703479D01*
X78264419Y-82703477D01*
X78262681Y-82697571D01*
X78263540Y-82697318D01*
X78257086Y-82631938D01*
X78270252Y-82595194D01*
X78275415Y-82588305D01*
X78278568Y-82579896D01*
X78308824Y-82499186D01*
X78326545Y-82451916D01*
X78333300Y-82389734D01*
X78333300Y-82231598D01*
X97095507Y-82231598D01*
X97095804Y-82236751D01*
X97095804Y-82236754D01*
X97104791Y-82392617D01*
X97109407Y-82472676D01*
X97110544Y-82477722D01*
X97110545Y-82477728D01*
X97133570Y-82579896D01*
X97162495Y-82708246D01*
X97164437Y-82713028D01*
X97164438Y-82713032D01*
X97239604Y-82898143D01*
X97253345Y-82931983D01*
X97379517Y-83137877D01*
X97537623Y-83320399D01*
X97541598Y-83323699D01*
X97541602Y-83323703D01*
X97558722Y-83337916D01*
X97723416Y-83474648D01*
X97931907Y-83596480D01*
X97936727Y-83598320D01*
X97936732Y-83598323D01*
X98051859Y-83642285D01*
X98157497Y-83682624D01*
X98162563Y-83683655D01*
X98162564Y-83683655D01*
X98213269Y-83693971D01*
X98394128Y-83730767D01*
X98529498Y-83735731D01*
X98630280Y-83739427D01*
X98630284Y-83739427D01*
X98635444Y-83739616D01*
X98640564Y-83738960D01*
X98640566Y-83738960D01*
X98869837Y-83709590D01*
X98869838Y-83709590D01*
X98874965Y-83708933D01*
X98885165Y-83705873D01*
X99101305Y-83641027D01*
X99106258Y-83639541D01*
X99323112Y-83533306D01*
X99327314Y-83530309D01*
X99327327Y-83530301D01*
X99502782Y-83405149D01*
X99569856Y-83381875D01*
X99638864Y-83398558D01*
X99687898Y-83449901D01*
X99693932Y-83463495D01*
X99694832Y-83465895D01*
X99697985Y-83474305D01*
X99785339Y-83590861D01*
X99901895Y-83678215D01*
X100038284Y-83729345D01*
X100100466Y-83736100D01*
X102116734Y-83736100D01*
X102178916Y-83729345D01*
X102315305Y-83678215D01*
X102431861Y-83590861D01*
X102519215Y-83474305D01*
X102570345Y-83337916D01*
X102577100Y-83275734D01*
X102577100Y-81259466D01*
X102570345Y-81197284D01*
X102519215Y-81060895D01*
X102431861Y-80944339D01*
X102315305Y-80856985D01*
X102178916Y-80805855D01*
X102116734Y-80799100D01*
X100100466Y-80799100D01*
X100038284Y-80805855D01*
X99901895Y-80856985D01*
X99785339Y-80944339D01*
X99697985Y-81060895D01*
X99694833Y-81069303D01*
X99694831Y-81069307D01*
X99692834Y-81074633D01*
X99650192Y-81131397D01*
X99583630Y-81156096D01*
X99514282Y-81140888D01*
X99496761Y-81129284D01*
X99388096Y-81043465D01*
X99388092Y-81043463D01*
X99384041Y-81040263D01*
X99379415Y-81037709D01*
X99326984Y-81008766D01*
X99172635Y-80923561D01*
X99167766Y-80921837D01*
X99167762Y-80921835D01*
X98949883Y-80844680D01*
X98949879Y-80844679D01*
X98945008Y-80842954D01*
X98939915Y-80842047D01*
X98939912Y-80842046D01*
X98839025Y-80824076D01*
X98707272Y-80800607D01*
X98614157Y-80799469D01*
X98470982Y-80797719D01*
X98470980Y-80797719D01*
X98465812Y-80797656D01*
X98227112Y-80834183D01*
X97997583Y-80909204D01*
X97992995Y-80911592D01*
X97992991Y-80911594D01*
X97800261Y-81011923D01*
X97783389Y-81020706D01*
X97779256Y-81023809D01*
X97779253Y-81023811D01*
X97594418Y-81162590D01*
X97590283Y-81165695D01*
X97569065Y-81187898D01*
X97453067Y-81309284D01*
X97423450Y-81340276D01*
X97420536Y-81344548D01*
X97420535Y-81344549D01*
X97399843Y-81374883D01*
X97287371Y-81539760D01*
X97185700Y-81758792D01*
X97121167Y-81991487D01*
X97095507Y-82231598D01*
X78333300Y-82231598D01*
X78333300Y-81243466D01*
X78326545Y-81181284D01*
X78275415Y-81044895D01*
X78188061Y-80928339D01*
X78071505Y-80840985D01*
X77935116Y-80789855D01*
X77872934Y-80783100D01*
X76276666Y-80783100D01*
X76214484Y-80789855D01*
X76078095Y-80840985D01*
X75961539Y-80928339D01*
X75874185Y-81044895D01*
X75823055Y-81181284D01*
X75816300Y-81243466D01*
X75816300Y-82389734D01*
X75823055Y-82451916D01*
X75838540Y-82493223D01*
X75871032Y-82579896D01*
X75871034Y-82579899D01*
X75874185Y-82588305D01*
X75879573Y-82595494D01*
X75879706Y-82595737D01*
X75894876Y-82665094D01*
X75889552Y-82693507D01*
X75832510Y-82877780D01*
X75831866Y-82883905D01*
X75831866Y-82883906D01*
X75827316Y-82927196D01*
X75811324Y-83079350D01*
X75813217Y-83100150D01*
X75827859Y-83261029D01*
X75829694Y-83281196D01*
X75831432Y-83287102D01*
X75831433Y-83287106D01*
X75867082Y-83408229D01*
X75886919Y-83475629D01*
X75889772Y-83481086D01*
X75889773Y-83481089D01*
X75917071Y-83533306D01*
X75980723Y-83655060D01*
X75980723Y-83655062D01*
X75980819Y-83655245D01*
X75980784Y-83655263D01*
X76000689Y-83721041D01*
X75985529Y-83782009D01*
X75892444Y-83954165D01*
X75868938Y-84030100D01*
X75850319Y-84090250D01*
X75832510Y-84147780D01*
X75831866Y-84153905D01*
X75831866Y-84153906D01*
X75825640Y-84213143D01*
X75811324Y-84349350D01*
X62054999Y-84349350D01*
X62061112Y-82343598D01*
X67676607Y-82343598D01*
X67676904Y-82348751D01*
X67676904Y-82348754D01*
X67686830Y-82520905D01*
X67690507Y-82584676D01*
X67691644Y-82589722D01*
X67691645Y-82589728D01*
X67715033Y-82693508D01*
X67743595Y-82820246D01*
X67745537Y-82825028D01*
X67745538Y-82825032D01*
X67829814Y-83032578D01*
X67834445Y-83043983D01*
X67960617Y-83249877D01*
X68118723Y-83432399D01*
X68122698Y-83435699D01*
X68122702Y-83435703D01*
X68192771Y-83493875D01*
X68304516Y-83586648D01*
X68513007Y-83708480D01*
X68517827Y-83710320D01*
X68517832Y-83710323D01*
X68667649Y-83767532D01*
X68738597Y-83794624D01*
X68743663Y-83795655D01*
X68743664Y-83795655D01*
X68747385Y-83796412D01*
X68975228Y-83842767D01*
X69110598Y-83847731D01*
X69211380Y-83851427D01*
X69211384Y-83851427D01*
X69216544Y-83851616D01*
X69221664Y-83850960D01*
X69221666Y-83850960D01*
X69450937Y-83821590D01*
X69450938Y-83821590D01*
X69456065Y-83820933D01*
X69526788Y-83799715D01*
X69682405Y-83753027D01*
X69687358Y-83751541D01*
X69904212Y-83645306D01*
X69908414Y-83642309D01*
X69908427Y-83642301D01*
X70083882Y-83517149D01*
X70150956Y-83493875D01*
X70219964Y-83510558D01*
X70268998Y-83561901D01*
X70275032Y-83575495D01*
X70275932Y-83577895D01*
X70279085Y-83586305D01*
X70366439Y-83702861D01*
X70482995Y-83790215D01*
X70619384Y-83841345D01*
X70681566Y-83848100D01*
X72697834Y-83848100D01*
X72760016Y-83841345D01*
X72896405Y-83790215D01*
X73012961Y-83702861D01*
X73100315Y-83586305D01*
X73151445Y-83449916D01*
X73158200Y-83387734D01*
X73158200Y-81371466D01*
X73151445Y-81309284D01*
X73100315Y-81172895D01*
X73012961Y-81056339D01*
X72896405Y-80968985D01*
X72760016Y-80917855D01*
X72704140Y-80911785D01*
X72701231Y-80911469D01*
X72697834Y-80911100D01*
X70681566Y-80911100D01*
X70678169Y-80911469D01*
X70675260Y-80911785D01*
X70619384Y-80917855D01*
X70482995Y-80968985D01*
X70366439Y-81056339D01*
X70279085Y-81172895D01*
X70275933Y-81181303D01*
X70275931Y-81181307D01*
X70273934Y-81186633D01*
X70231292Y-81243397D01*
X70164730Y-81268096D01*
X70095382Y-81252888D01*
X70077861Y-81241284D01*
X69969196Y-81155465D01*
X69969192Y-81155463D01*
X69965141Y-81152263D01*
X69929714Y-81132706D01*
X69886315Y-81108749D01*
X69753735Y-81035561D01*
X69748866Y-81033837D01*
X69748862Y-81033835D01*
X69530983Y-80956680D01*
X69530979Y-80956679D01*
X69526108Y-80954954D01*
X69521015Y-80954047D01*
X69521012Y-80954046D01*
X69417000Y-80935519D01*
X69288372Y-80912607D01*
X69195257Y-80911469D01*
X69052082Y-80909719D01*
X69052080Y-80909719D01*
X69046912Y-80909656D01*
X68808212Y-80946183D01*
X68578683Y-81021204D01*
X68574095Y-81023592D01*
X68574091Y-81023594D01*
X68369078Y-81130317D01*
X68364489Y-81132706D01*
X68360356Y-81135809D01*
X68360353Y-81135811D01*
X68175518Y-81274590D01*
X68171383Y-81277695D01*
X68004550Y-81452276D01*
X67868471Y-81651760D01*
X67766800Y-81870792D01*
X67702267Y-82103487D01*
X67676607Y-82343598D01*
X62061112Y-82343598D01*
X62064654Y-81181303D01*
X62067566Y-80225932D01*
X62087775Y-80157873D01*
X62141572Y-80111543D01*
X62193318Y-80100316D01*
X77306405Y-80070734D01*
X87061537Y-80051639D01*
X87129696Y-80071508D01*
X87176294Y-80125072D01*
X87187304Y-80166660D01*
X87189477Y-80191496D01*
X87189957Y-80196987D01*
X87191381Y-80202300D01*
X87191381Y-80202302D01*
X87225230Y-80328625D01*
X87249216Y-80418143D01*
X87251539Y-80423124D01*
X87251539Y-80423125D01*
X87343651Y-80620662D01*
X87343654Y-80620667D01*
X87345977Y-80625649D01*
X87413861Y-80722597D01*
X87471562Y-80805002D01*
X87477302Y-80813200D01*
X87639200Y-80975098D01*
X87643708Y-80978255D01*
X87643711Y-80978257D01*
X87654631Y-80985903D01*
X87826751Y-81106423D01*
X87831733Y-81108746D01*
X87831738Y-81108749D01*
X88021604Y-81197284D01*
X88034257Y-81203184D01*
X88039565Y-81204606D01*
X88039567Y-81204607D01*
X88250098Y-81261019D01*
X88250100Y-81261019D01*
X88255413Y-81262443D01*
X88483500Y-81282398D01*
X88711587Y-81262443D01*
X88716900Y-81261019D01*
X88716902Y-81261019D01*
X88927433Y-81204607D01*
X88927435Y-81204606D01*
X88932743Y-81203184D01*
X88945396Y-81197284D01*
X89135262Y-81108749D01*
X89135267Y-81108746D01*
X89140249Y-81106423D01*
X89312369Y-80985903D01*
X89323289Y-80978257D01*
X89323292Y-80978255D01*
X89327800Y-80975098D01*
X89489698Y-80813200D01*
X89495439Y-80805002D01*
X89553139Y-80722597D01*
X89621023Y-80625649D01*
X89623346Y-80620667D01*
X89623349Y-80620662D01*
X89639305Y-80586443D01*
X89686222Y-80533158D01*
X89754499Y-80513697D01*
X89822459Y-80534239D01*
X89867695Y-80586443D01*
X89883651Y-80620662D01*
X89883654Y-80620667D01*
X89885977Y-80625649D01*
X89953861Y-80722597D01*
X90011562Y-80805002D01*
X90017302Y-80813200D01*
X90179200Y-80975098D01*
X90183708Y-80978255D01*
X90183711Y-80978257D01*
X90194631Y-80985903D01*
X90366751Y-81106423D01*
X90371733Y-81108746D01*
X90371738Y-81108749D01*
X90561604Y-81197284D01*
X90574257Y-81203184D01*
X90579565Y-81204606D01*
X90579567Y-81204607D01*
X90790098Y-81261019D01*
X90790100Y-81261019D01*
X90795413Y-81262443D01*
X91023500Y-81282398D01*
X91251587Y-81262443D01*
X91256900Y-81261019D01*
X91256902Y-81261019D01*
X91467433Y-81204607D01*
X91467435Y-81204606D01*
X91472743Y-81203184D01*
X91485396Y-81197284D01*
X91675262Y-81108749D01*
X91675267Y-81108746D01*
X91680249Y-81106423D01*
X91852369Y-80985903D01*
X91863289Y-80978257D01*
X91863292Y-80978255D01*
X91867800Y-80975098D01*
X92029698Y-80813200D01*
X92035439Y-80805002D01*
X92093139Y-80722597D01*
X92161023Y-80625649D01*
X92163346Y-80620667D01*
X92163349Y-80620662D01*
X92255461Y-80423125D01*
X92255461Y-80423124D01*
X92257784Y-80418143D01*
X92281771Y-80328625D01*
X92315619Y-80202302D01*
X92315619Y-80202300D01*
X92317043Y-80196987D01*
X92317523Y-80191503D01*
X92317524Y-80191496D01*
X92320620Y-80156117D01*
X92346483Y-80089999D01*
X92403987Y-80048360D01*
X92445893Y-80041100D01*
X149885947Y-79928669D01*
X149954105Y-79948537D01*
X150000703Y-80002101D01*
X150011713Y-80043685D01*
X150013612Y-80065400D01*
X150016377Y-80097006D01*
X150016378Y-80097011D01*
X150016857Y-80102487D01*
X150018281Y-80107800D01*
X150018281Y-80107802D01*
X150043603Y-80202302D01*
X150076116Y-80323643D01*
X150078439Y-80328624D01*
X150078439Y-80328625D01*
X150170551Y-80526162D01*
X150170554Y-80526167D01*
X150172877Y-80531149D01*
X150304202Y-80718700D01*
X150466100Y-80880598D01*
X150470608Y-80883755D01*
X150470611Y-80883757D01*
X150511723Y-80912544D01*
X150653651Y-81011923D01*
X150658633Y-81014246D01*
X150658638Y-81014249D01*
X150849538Y-81103266D01*
X150861157Y-81108684D01*
X150866465Y-81110106D01*
X150866467Y-81110107D01*
X151076998Y-81166519D01*
X151077000Y-81166519D01*
X151082313Y-81167943D01*
X151310400Y-81187898D01*
X151538487Y-81167943D01*
X151543800Y-81166519D01*
X151543802Y-81166519D01*
X151754333Y-81110107D01*
X151754335Y-81110106D01*
X151759643Y-81108684D01*
X151771262Y-81103266D01*
X151962162Y-81014249D01*
X151962167Y-81014246D01*
X151967149Y-81011923D01*
X152109077Y-80912544D01*
X152150189Y-80883757D01*
X152150192Y-80883755D01*
X152154700Y-80880598D01*
X152316598Y-80718700D01*
X152447923Y-80531149D01*
X152450246Y-80526167D01*
X152450249Y-80526162D01*
X152542361Y-80328625D01*
X152542361Y-80328624D01*
X152544684Y-80323643D01*
X152603943Y-80102487D01*
X152609575Y-80038110D01*
X152635438Y-79971992D01*
X152692942Y-79930353D01*
X152734848Y-79923092D01*
X164496366Y-79900071D01*
X165847423Y-79897426D01*
X165915583Y-79917295D01*
G37*
%TD.AperFunction*%
%TD*%
M02*
