%TF.GenerationSoftware,KiCad,Pcbnew,(6.0.0)*%
%TF.CreationDate,2022-07-19T12:43:36-07:00*%
%TF.ProjectId,MakeItRain - DaughterBoard Blank,4d616b65-4974-4526-9169-6e202d204461,rev?*%
%TF.SameCoordinates,Original*%
%TF.FileFunction,Copper,L1,Top*%
%TF.FilePolarity,Positive*%
%FSLAX46Y46*%
G04 Gerber Fmt 4.6, Leading zero omitted, Abs format (unit mm)*
G04 Created by KiCad (PCBNEW (6.0.0)) date 2022-07-19 12:43:36*
%MOMM*%
%LPD*%
G01*
G04 APERTURE LIST*
%TA.AperFunction,ComponentPad*%
%ADD10R,1.700000X1.700000*%
%TD*%
%TA.AperFunction,ComponentPad*%
%ADD11O,1.700000X1.700000*%
%TD*%
%TA.AperFunction,ComponentPad*%
%ADD12R,1.150000X1.150000*%
%TD*%
%TA.AperFunction,ComponentPad*%
%ADD13C,1.150000*%
%TD*%
%TA.AperFunction,ComponentPad*%
%ADD14C,1.600000*%
%TD*%
%TA.AperFunction,ComponentPad*%
%ADD15O,1.600000X1.600000*%
%TD*%
%TA.AperFunction,ComponentPad*%
%ADD16R,1.920000X1.920000*%
%TD*%
%TA.AperFunction,ComponentPad*%
%ADD17C,1.920000*%
%TD*%
%TA.AperFunction,ComponentPad*%
%ADD18R,2.600000X2.600000*%
%TD*%
%TA.AperFunction,ComponentPad*%
%ADD19C,2.600000*%
%TD*%
%TA.AperFunction,ComponentPad*%
%ADD20O,2.600000X2.600000*%
%TD*%
%TA.AperFunction,ComponentPad*%
%ADD21R,1.050000X1.500000*%
%TD*%
%TA.AperFunction,ComponentPad*%
%ADD22O,1.050000X1.500000*%
%TD*%
%TA.AperFunction,ViaPad*%
%ADD23C,0.800000*%
%TD*%
%TA.AperFunction,Conductor*%
%ADD24C,2.032000*%
%TD*%
%TA.AperFunction,Conductor*%
%ADD25C,0.762000*%
%TD*%
%TA.AperFunction,Conductor*%
%ADD26C,0.250000*%
%TD*%
G04 APERTURE END LIST*
D10*
%TO.P,J1,1,Pin_1*%
%TO.N,+VDC*%
X170349000Y-121042300D03*
D11*
%TO.P,J1,2,Pin_2*%
%TO.N,D39*%
X170349000Y-123582300D03*
%TO.P,J1,3,Pin_3*%
%TO.N,+VDC*%
X167809000Y-121042300D03*
%TO.P,J1,4,Pin_4*%
%TO.N,AuxVoltage*%
X167809000Y-123582300D03*
%TO.P,J1,5,Pin_5*%
%TO.N,+VDC*%
X165269000Y-121042300D03*
%TO.P,J1,6,Pin_6*%
%TO.N,D23*%
X165269000Y-123582300D03*
%TO.P,J1,7,Pin_7*%
%TO.N,+VDC*%
X162729000Y-121042300D03*
%TO.P,J1,8,Pin_8*%
%TO.N,D19*%
X162729000Y-123582300D03*
%TO.P,J1,9,Pin_9*%
%TO.N,+VDC*%
X160189000Y-121042300D03*
%TO.P,J1,10,Pin_10*%
%TO.N,D18*%
X160189000Y-123582300D03*
%TO.P,J1,11,Pin_11*%
%TO.N,+3V3*%
X157649000Y-121042300D03*
%TO.P,J1,12,Pin_12*%
%TO.N,D5*%
X157649000Y-123582300D03*
%TO.P,J1,13,Pin_13*%
%TO.N,+5V*%
X155109000Y-121042300D03*
%TO.P,J1,14,Pin_14*%
%TO.N,D35*%
X155109000Y-123582300D03*
%TO.P,J1,15,Pin_15*%
%TO.N,+5V*%
X152569000Y-121042300D03*
%TO.P,J1,16,Pin_16*%
%TO.N,D32*%
X152569000Y-123582300D03*
%TO.P,J1,17,Pin_17*%
%TO.N,GND*%
X150029000Y-121042300D03*
%TO.P,J1,18,Pin_18*%
%TO.N,D33*%
X150029000Y-123582300D03*
%TO.P,J1,19,Pin_19*%
%TO.N,GND*%
X147489000Y-121042300D03*
%TO.P,J1,20,Pin_20*%
%TO.N,D25*%
X147489000Y-123582300D03*
%TO.P,J1,21,Pin_21*%
%TO.N,GND*%
X144949000Y-121042300D03*
%TO.P,J1,22,Pin_22*%
%TO.N,D21*%
X144949000Y-123582300D03*
%TO.P,J1,23,Pin_23*%
%TO.N,GND*%
X142409000Y-121042300D03*
%TO.P,J1,24,Pin_24*%
%TO.N,D4*%
X142409000Y-123582300D03*
%TO.P,J1,25,Pin_25*%
%TO.N,GND*%
X139869000Y-121042300D03*
%TO.P,J1,26,Pin_26*%
%TO.N,D0*%
X139869000Y-123582300D03*
%TO.P,J1,27,Pin_27*%
%TO.N,GND*%
X137329000Y-121042300D03*
%TO.P,J1,28,Pin_28*%
%TO.N,TX*%
X137329000Y-123582300D03*
%TO.P,J1,29,Pin_29*%
%TO.N,GND*%
X134789000Y-121042300D03*
%TO.P,J1,30,Pin_30*%
%TO.N,RX*%
X134789000Y-123582300D03*
%TD*%
D12*
%TO.P,Z3,1*%
%TO.N,+VDC*%
X115460364Y-104593019D03*
D13*
%TO.P,Z3,2*%
%TO.N,Net-(Q6-Pad1)*%
X126160364Y-104593019D03*
%TD*%
D14*
%TO.P,R12,1*%
%TO.N,Net-(Q8-Pad1)*%
X133485574Y-110147841D03*
D15*
%TO.P,R12,2*%
%TO.N,Net-(Q7-Pad3)*%
X136025574Y-110147841D03*
%TD*%
D14*
%TO.P,R10,1*%
%TO.N,D23*%
X133485574Y-114197841D03*
D15*
%TO.P,R10,2*%
%TO.N,GND*%
X136025574Y-114197841D03*
%TD*%
D16*
%TO.P,Q2,1*%
%TO.N,Net-(Q2-Pad1)*%
X70812955Y-93947182D03*
D17*
%TO.P,Q2,2*%
%TO.N,Net-(D1-Pad1)*%
X68272955Y-93947182D03*
%TO.P,Q2,3*%
%TO.N,+VDC*%
X65732955Y-93947182D03*
%TD*%
D18*
%TO.P,P1,1,Pin_1*%
%TO.N,Net-(D1-Pad1)*%
X70817955Y-84610664D03*
D19*
%TO.P,P1,2,Pin_2*%
%TO.N,GND*%
X65737955Y-84610664D03*
%TD*%
D18*
%TO.P,D1,1,K*%
%TO.N,Net-(D1-Pad1)*%
X59178463Y-99850664D03*
D20*
%TO.P,D1,2,A*%
%TO.N,GND*%
X59178463Y-84610664D03*
%TD*%
D14*
%TO.P,R5,1*%
%TO.N,+VDC*%
X98817126Y-110147841D03*
D15*
%TO.P,R5,2*%
%TO.N,Net-(Q4-Pad1)*%
X101357126Y-110147841D03*
%TD*%
D12*
%TO.P,Z1,1*%
%TO.N,+VDC*%
X63569002Y-104593019D03*
D13*
%TO.P,Z1,2*%
%TO.N,Net-(Q2-Pad1)*%
X74269002Y-104593019D03*
%TD*%
D14*
%TO.P,R6,1*%
%TO.N,Net-(Q4-Pad1)*%
X92677126Y-110147841D03*
D15*
%TO.P,R6,2*%
%TO.N,Net-(Q3-Pad3)*%
X95217126Y-110147841D03*
%TD*%
D18*
%TO.P,D3,1,K*%
%TO.N,Net-(D3-Pad1)*%
X111168051Y-99850664D03*
D20*
%TO.P,D3,2,A*%
%TO.N,GND*%
X111168051Y-84610664D03*
%TD*%
D12*
%TO.P,Z2,1*%
%TO.N,+VDC*%
X90049609Y-104593019D03*
D13*
%TO.P,Z2,2*%
%TO.N,Net-(Q4-Pad1)*%
X100749609Y-104593019D03*
%TD*%
D14*
%TO.P,R11,1*%
%TO.N,+VDC*%
X139625574Y-110147841D03*
D15*
%TO.P,R11,2*%
%TO.N,Net-(Q8-Pad1)*%
X142165574Y-110147841D03*
%TD*%
D16*
%TO.P,Q8,1*%
%TO.N,Net-(Q8-Pad1)*%
X148760345Y-93947182D03*
D17*
%TO.P,Q8,2*%
%TO.N,Net-(D4-Pad1)*%
X146220345Y-93947182D03*
%TO.P,Q8,3*%
%TO.N,+VDC*%
X143680345Y-93947182D03*
%TD*%
D14*
%TO.P,R7,1*%
%TO.N,D19*%
X113228492Y-114197841D03*
D15*
%TO.P,R7,2*%
%TO.N,GND*%
X115768492Y-114197841D03*
%TD*%
D21*
%TO.P,Q7,1,S*%
%TO.N,GND*%
X126935574Y-111377841D03*
D22*
%TO.P,Q7,2,G*%
%TO.N,D23*%
X128205574Y-111377841D03*
%TO.P,Q7,3,D*%
%TO.N,Net-(Q7-Pad3)*%
X129475574Y-111377841D03*
%TD*%
D16*
%TO.P,Q4,1*%
%TO.N,Net-(Q4-Pad1)*%
X96810208Y-93947182D03*
D17*
%TO.P,Q4,2*%
%TO.N,Net-(D2-Pad1)*%
X94270208Y-93947182D03*
%TO.P,Q4,3*%
%TO.N,+VDC*%
X91730208Y-93947182D03*
%TD*%
D14*
%TO.P,R3,1*%
%TO.N,Net-(Q2-Pad1)*%
X72317291Y-110147841D03*
D15*
%TO.P,R3,2*%
%TO.N,Net-(Q1-Pad3)*%
X74857291Y-110147841D03*
%TD*%
D18*
%TO.P,P4,1,Pin_1*%
%TO.N,Net-(D4-Pad1)*%
X148765345Y-84610664D03*
D19*
%TO.P,P4,2,Pin_2*%
%TO.N,GND*%
X143685345Y-84610664D03*
%TD*%
D14*
%TO.P,R9,1*%
%TO.N,Net-(Q6-Pad1)*%
X113228492Y-110147841D03*
D15*
%TO.P,R9,2*%
%TO.N,Net-(Q5-Pad3)*%
X115768492Y-110147841D03*
%TD*%
D21*
%TO.P,Q1,1,S*%
%TO.N,GND*%
X65767291Y-111377841D03*
D22*
%TO.P,Q1,2,G*%
%TO.N,D5*%
X67037291Y-111377841D03*
%TO.P,Q1,3,D*%
%TO.N,Net-(Q1-Pad3)*%
X68307291Y-111377841D03*
%TD*%
D21*
%TO.P,Q5,1,S*%
%TO.N,GND*%
X106678492Y-111377841D03*
D22*
%TO.P,Q5,2,G*%
%TO.N,D19*%
X107948492Y-111377841D03*
%TO.P,Q5,3,D*%
%TO.N,Net-(Q5-Pad3)*%
X109218492Y-111377841D03*
%TD*%
D16*
%TO.P,Q6,1*%
%TO.N,Net-(Q6-Pad1)*%
X122777881Y-93947182D03*
D17*
%TO.P,Q6,2*%
%TO.N,Net-(D3-Pad1)*%
X120237881Y-93947182D03*
%TO.P,Q6,3*%
%TO.N,+VDC*%
X117697881Y-93947182D03*
%TD*%
D14*
%TO.P,R2,1*%
%TO.N,+VDC*%
X78457291Y-110147841D03*
D15*
%TO.P,R2,2*%
%TO.N,Net-(Q2-Pad1)*%
X80997291Y-110147841D03*
%TD*%
D18*
%TO.P,P2,1,Pin_1*%
%TO.N,Net-(D2-Pad1)*%
X96815208Y-84610664D03*
D19*
%TO.P,P2,2,Pin_2*%
%TO.N,GND*%
X91735208Y-84610664D03*
%TD*%
D21*
%TO.P,Q3,1,S*%
%TO.N,GND*%
X86127126Y-111377841D03*
D22*
%TO.P,Q3,2,G*%
%TO.N,D18*%
X87397126Y-111377841D03*
%TO.P,Q3,3,D*%
%TO.N,Net-(Q3-Pad3)*%
X88667126Y-111377841D03*
%TD*%
D14*
%TO.P,R8,1*%
%TO.N,+VDC*%
X119368492Y-110147841D03*
D15*
%TO.P,R8,2*%
%TO.N,Net-(Q6-Pad1)*%
X121908492Y-110147841D03*
%TD*%
D18*
%TO.P,D4,1,K*%
%TO.N,Net-(D4-Pad1)*%
X137268886Y-99850664D03*
D20*
%TO.P,D4,2,A*%
%TO.N,GND*%
X137268886Y-84610664D03*
%TD*%
D14*
%TO.P,R1,1*%
%TO.N,D5*%
X72317291Y-114197841D03*
D15*
%TO.P,R1,2*%
%TO.N,GND*%
X74857291Y-114197841D03*
%TD*%
D12*
%TO.P,Z4,1*%
%TO.N,+VDC*%
X140876856Y-104593019D03*
D13*
%TO.P,Z4,2*%
%TO.N,Net-(Q8-Pad1)*%
X151576856Y-104593019D03*
%TD*%
D18*
%TO.P,D2,1,K*%
%TO.N,Net-(D2-Pad1)*%
X85333551Y-99850664D03*
D20*
%TO.P,D2,2,A*%
%TO.N,GND*%
X85333551Y-84610664D03*
%TD*%
D14*
%TO.P,R4,1*%
%TO.N,D18*%
X92677126Y-114197841D03*
D15*
%TO.P,R4,2*%
%TO.N,GND*%
X95217126Y-114197841D03*
%TD*%
D18*
%TO.P,P3,1,Pin_1*%
%TO.N,Net-(D3-Pad1)*%
X122782881Y-84610664D03*
D19*
%TO.P,P3,2,Pin_2*%
%TO.N,GND*%
X117702881Y-84610664D03*
%TD*%
D23*
%TO.N,D19*%
X138581288Y-116519488D03*
%TD*%
D24*
%TO.N,GND*%
X103372637Y-115625512D02*
X103372637Y-113731574D01*
D25*
X83307126Y-114197841D02*
X86127126Y-111377841D01*
X74857291Y-114197841D02*
X83307126Y-114197841D01*
X102906370Y-114197841D02*
X103372637Y-113731574D01*
D24*
X103372637Y-116783895D02*
X103372637Y-115625512D01*
X103372637Y-92406078D02*
X111168051Y-84610664D01*
X134789000Y-121042300D02*
X107631042Y-121042300D01*
D25*
X136025574Y-119805726D02*
X134789000Y-121042300D01*
D24*
X103372637Y-113731574D02*
X103372637Y-92406078D01*
D25*
X106678492Y-112319657D02*
X103372637Y-115625512D01*
X136025574Y-114197841D02*
X136025574Y-116499223D01*
D24*
X107631042Y-121042300D02*
X103372637Y-116783895D01*
D25*
X136025574Y-116499223D02*
X136025574Y-119805726D01*
X95217126Y-114197841D02*
X102906370Y-114197841D01*
X106678492Y-111377841D02*
X106678492Y-112319657D01*
D24*
%TO.N,+VDC*%
X143680345Y-93947182D02*
X143680345Y-101789530D01*
X65732955Y-102429066D02*
X63569002Y-104593019D01*
X65732955Y-93947182D02*
X65732955Y-102429066D01*
X117708554Y-102366175D02*
X143103700Y-102366175D01*
X117697881Y-93947182D02*
X117697881Y-102355502D01*
X143103700Y-102366175D02*
X143680345Y-101789530D01*
X117697881Y-102355502D02*
X117708554Y-102366175D01*
X91246854Y-102429066D02*
X91730208Y-102912420D01*
X91730208Y-93947182D02*
X91730208Y-102912420D01*
X117697881Y-102355502D02*
X115460364Y-104593019D01*
X91730208Y-102912420D02*
X90049609Y-104593019D01*
X65732955Y-102429066D02*
X91246854Y-102429066D01*
X143680345Y-101789530D02*
X140876856Y-104593019D01*
D26*
%TO.N,D23*%
X135162241Y-112521174D02*
X138633897Y-112521174D01*
X164094489Y-118455239D02*
X144541658Y-118455239D01*
D25*
X129513574Y-114197841D02*
X128205574Y-112889841D01*
D26*
X144541658Y-118455239D02*
X138633897Y-112547478D01*
D25*
X133485574Y-114197841D02*
X129513574Y-114197841D01*
D26*
X164094489Y-122407789D02*
X164094489Y-118455239D01*
X133485574Y-114197841D02*
X135162241Y-112521174D01*
X138633897Y-112547478D02*
X138633897Y-112521174D01*
D25*
X128205574Y-112889841D02*
X128205574Y-111377841D01*
D26*
X165269000Y-123582300D02*
X164094489Y-122407789D01*
%TO.N,D19*%
X161363511Y-119704712D02*
X141766512Y-119704712D01*
D25*
X107948492Y-112889841D02*
X107948492Y-111377841D01*
X109256492Y-114197841D02*
X107948492Y-112889841D01*
D26*
X161363511Y-122216811D02*
X161363511Y-119704712D01*
X162729000Y-123582300D02*
X161363511Y-122216811D01*
X141766512Y-119704712D02*
X138581288Y-116519488D01*
D25*
X113228492Y-114197841D02*
X109256492Y-114197841D01*
%TO.N,D18*%
X87397126Y-112795009D02*
X87397126Y-111377841D01*
X92677126Y-114197841D02*
X88799958Y-114197841D01*
X88799958Y-114197841D02*
X87397126Y-112795009D01*
%TO.N,D5*%
X67037291Y-112889841D02*
X67037291Y-111377841D01*
X68345291Y-114197841D02*
X67037291Y-112889841D01*
X72317291Y-114197841D02*
X68345291Y-114197841D01*
%TO.N,Net-(Q1-Pad3)*%
X74857291Y-110147841D02*
X73325774Y-111679358D01*
X73325774Y-111679358D02*
X68608808Y-111679358D01*
X68608808Y-111679358D02*
X68307291Y-111377841D01*
%TO.N,Net-(Q2-Pad1)*%
X72317291Y-106544730D02*
X74269002Y-104593019D01*
X72317291Y-110147841D02*
X72317291Y-106544730D01*
X77505791Y-104593019D02*
X74269002Y-104593019D01*
X80997291Y-108084519D02*
X77505791Y-104593019D01*
X80997291Y-110147841D02*
X80997291Y-108084519D01*
%TO.N,Net-(Q3-Pad3)*%
X88817637Y-111528352D02*
X88667126Y-111377841D01*
X95217126Y-110147841D02*
X93836615Y-111528352D01*
X93836615Y-111528352D02*
X88817637Y-111528352D01*
%TO.N,Net-(Q4-Pad1)*%
X101357126Y-107118486D02*
X101357126Y-105200536D01*
X92677126Y-110147841D02*
X95706481Y-107118486D01*
X95706481Y-107118486D02*
X101357126Y-107118486D01*
X101357126Y-110147841D02*
X101357126Y-107118486D01*
X101357126Y-105200536D02*
X100749609Y-104593019D01*
%TO.N,Net-(Q5-Pad3)*%
X114387981Y-111528352D02*
X109369003Y-111528352D01*
X115768492Y-110147841D02*
X114387981Y-111528352D01*
X109369003Y-111528352D02*
X109218492Y-111377841D01*
%TO.N,Net-(Q6-Pad1)*%
X121908492Y-110147841D02*
X121908492Y-108844891D01*
X121830931Y-108767330D02*
X121908492Y-108844891D01*
X113228492Y-110147841D02*
X114609003Y-108767330D01*
X121908492Y-108844891D02*
X126160364Y-104593019D01*
X114609003Y-108767330D02*
X121830931Y-108767330D01*
%TO.N,Net-(Q7-Pad3)*%
X134645063Y-111528352D02*
X129626085Y-111528352D01*
X136025574Y-110147841D02*
X134645063Y-111528352D01*
X129626085Y-111528352D02*
X129475574Y-111377841D01*
%TO.N,Net-(Q8-Pad1)*%
X136528152Y-107105263D02*
X140569755Y-107105263D01*
X140569755Y-107105263D02*
X142165574Y-108701082D01*
X142165574Y-108701082D02*
X146273637Y-104593019D01*
X142165574Y-110147841D02*
X142165574Y-108701082D01*
X146273637Y-104593019D02*
X151576856Y-104593019D01*
X133485574Y-110147841D02*
X136528152Y-107105263D01*
%TD*%
M02*
