%TF.GenerationSoftware,KiCad,Pcbnew,(6.0.0)*%
%TF.CreationDate,2022-07-19T12:43:36-07:00*%
%TF.ProjectId,MakeItRain - DaughterBoard Blank,4d616b65-4974-4526-9169-6e202d204461,rev?*%
%TF.SameCoordinates,Original*%
%TF.FileFunction,Legend,Top*%
%TF.FilePolarity,Positive*%
%FSLAX46Y46*%
G04 Gerber Fmt 4.6, Leading zero omitted, Abs format (unit mm)*
G04 Created by KiCad (PCBNEW (6.0.0)) date 2022-07-19 12:43:36*
%MOMM*%
%LPD*%
G01*
G04 APERTURE LIST*
%ADD10C,0.150000*%
%ADD11C,0.254000*%
%ADD12C,0.120000*%
%ADD13C,0.200000*%
G04 APERTURE END LIST*
D10*
X100104797Y-87927537D02*
X100104797Y-87260870D01*
X101104797Y-87927537D01*
X101104797Y-87260870D01*
X101104797Y-86737061D02*
X101057178Y-86832299D01*
X101009559Y-86879918D01*
X100914321Y-86927537D01*
X100628607Y-86927537D01*
X100533369Y-86879918D01*
X100485750Y-86832299D01*
X100438131Y-86737061D01*
X100438131Y-86594204D01*
X100485750Y-86498966D01*
X100533369Y-86451347D01*
X100628607Y-86403728D01*
X100914321Y-86403728D01*
X101009559Y-86451347D01*
X101057178Y-86498966D01*
X101104797Y-86594204D01*
X101104797Y-86737061D01*
X100438131Y-85975156D02*
X101104797Y-85975156D01*
X100533369Y-85975156D02*
X100485750Y-85927537D01*
X100438131Y-85832299D01*
X100438131Y-85689442D01*
X100485750Y-85594204D01*
X100580988Y-85546585D01*
X101104797Y-85546585D01*
X101057178Y-84689442D02*
X101104797Y-84784680D01*
X101104797Y-84975156D01*
X101057178Y-85070394D01*
X100961940Y-85118013D01*
X100580988Y-85118013D01*
X100485750Y-85070394D01*
X100438131Y-84975156D01*
X100438131Y-84784680D01*
X100485750Y-84689442D01*
X100580988Y-84641823D01*
X100676226Y-84641823D01*
X100771464Y-85118013D01*
X100200036Y-83498966D02*
X100152417Y-83451347D01*
X100104797Y-83356108D01*
X100104797Y-83118013D01*
X100152417Y-83022775D01*
X100200036Y-82975156D01*
X100295274Y-82927537D01*
X100390512Y-82927537D01*
X100533369Y-82975156D01*
X101104797Y-83546585D01*
X101104797Y-82927537D01*
X74137130Y-87519814D02*
X74137130Y-86853147D01*
X75137130Y-87519814D01*
X75137130Y-86853147D01*
X75137130Y-86329338D02*
X75089511Y-86424576D01*
X75041892Y-86472195D01*
X74946654Y-86519814D01*
X74660940Y-86519814D01*
X74565702Y-86472195D01*
X74518083Y-86424576D01*
X74470464Y-86329338D01*
X74470464Y-86186481D01*
X74518083Y-86091243D01*
X74565702Y-86043624D01*
X74660940Y-85996005D01*
X74946654Y-85996005D01*
X75041892Y-86043624D01*
X75089511Y-86091243D01*
X75137130Y-86186481D01*
X75137130Y-86329338D01*
X74470464Y-85567433D02*
X75137130Y-85567433D01*
X74565702Y-85567433D02*
X74518083Y-85519814D01*
X74470464Y-85424576D01*
X74470464Y-85281719D01*
X74518083Y-85186481D01*
X74613321Y-85138862D01*
X75137130Y-85138862D01*
X75089511Y-84281719D02*
X75137130Y-84376957D01*
X75137130Y-84567433D01*
X75089511Y-84662671D01*
X74994273Y-84710290D01*
X74613321Y-84710290D01*
X74518083Y-84662671D01*
X74470464Y-84567433D01*
X74470464Y-84376957D01*
X74518083Y-84281719D01*
X74613321Y-84234100D01*
X74708559Y-84234100D01*
X74803797Y-84710290D01*
X75137130Y-82519814D02*
X75137130Y-83091243D01*
X75137130Y-82805528D02*
X74137130Y-82805528D01*
X74279988Y-82900766D01*
X74375226Y-82996005D01*
X74422845Y-83091243D01*
X66102525Y-124089562D02*
X66769191Y-124089562D01*
X66102525Y-125089562D01*
X66769191Y-125089562D01*
X67293001Y-125089562D02*
X67197763Y-125041943D01*
X67150144Y-124994324D01*
X67102525Y-124899086D01*
X67102525Y-124613372D01*
X67150144Y-124518134D01*
X67197763Y-124470515D01*
X67293001Y-124422896D01*
X67435858Y-124422896D01*
X67531096Y-124470515D01*
X67578715Y-124518134D01*
X67626334Y-124613372D01*
X67626334Y-124899086D01*
X67578715Y-124994324D01*
X67531096Y-125041943D01*
X67435858Y-125089562D01*
X67293001Y-125089562D01*
X68054906Y-124422896D02*
X68054906Y-125089562D01*
X68054906Y-124518134D02*
X68102525Y-124470515D01*
X68197763Y-124422896D01*
X68340620Y-124422896D01*
X68435858Y-124470515D01*
X68483477Y-124565753D01*
X68483477Y-125089562D01*
X69340620Y-125041943D02*
X69245382Y-125089562D01*
X69054906Y-125089562D01*
X68959668Y-125041943D01*
X68912049Y-124946705D01*
X68912049Y-124565753D01*
X68959668Y-124470515D01*
X69054906Y-124422896D01*
X69245382Y-124422896D01*
X69340620Y-124470515D01*
X69388239Y-124565753D01*
X69388239Y-124660991D01*
X68912049Y-124756229D01*
X70578715Y-124565753D02*
X70912049Y-124565753D01*
X71054906Y-125089562D02*
X70578715Y-125089562D01*
X70578715Y-124089562D01*
X71054906Y-124089562D01*
X71388239Y-125089562D02*
X71912049Y-124422896D01*
X71388239Y-124422896D02*
X71912049Y-125089562D01*
X72293001Y-124422896D02*
X72293001Y-125422896D01*
X72293001Y-124470515D02*
X72388239Y-124422896D01*
X72578715Y-124422896D01*
X72673953Y-124470515D01*
X72721572Y-124518134D01*
X72769191Y-124613372D01*
X72769191Y-124899086D01*
X72721572Y-124994324D01*
X72673953Y-125041943D01*
X72578715Y-125089562D01*
X72388239Y-125089562D01*
X72293001Y-125041943D01*
X73626334Y-125089562D02*
X73626334Y-124565753D01*
X73578715Y-124470515D01*
X73483477Y-124422896D01*
X73293001Y-124422896D01*
X73197763Y-124470515D01*
X73626334Y-125041943D02*
X73531096Y-125089562D01*
X73293001Y-125089562D01*
X73197763Y-125041943D01*
X73150144Y-124946705D01*
X73150144Y-124851467D01*
X73197763Y-124756229D01*
X73293001Y-124708610D01*
X73531096Y-124708610D01*
X73626334Y-124660991D01*
X74102525Y-124422896D02*
X74102525Y-125089562D01*
X74102525Y-124518134D02*
X74150144Y-124470515D01*
X74245382Y-124422896D01*
X74388239Y-124422896D01*
X74483477Y-124470515D01*
X74531096Y-124565753D01*
X74531096Y-125089562D01*
X74959668Y-125041943D02*
X75054906Y-125089562D01*
X75245382Y-125089562D01*
X75340620Y-125041943D01*
X75388239Y-124946705D01*
X75388239Y-124899086D01*
X75340620Y-124803848D01*
X75245382Y-124756229D01*
X75102525Y-124756229D01*
X75007287Y-124708610D01*
X74959668Y-124613372D01*
X74959668Y-124565753D01*
X75007287Y-124470515D01*
X75102525Y-124422896D01*
X75245382Y-124422896D01*
X75340620Y-124470515D01*
X75816810Y-125089562D02*
X75816810Y-124422896D01*
X75816810Y-124089562D02*
X75769191Y-124137182D01*
X75816810Y-124184801D01*
X75864429Y-124137182D01*
X75816810Y-124089562D01*
X75816810Y-124184801D01*
X76435858Y-125089562D02*
X76340620Y-125041943D01*
X76293001Y-124994324D01*
X76245382Y-124899086D01*
X76245382Y-124613372D01*
X76293001Y-124518134D01*
X76340620Y-124470515D01*
X76435858Y-124422896D01*
X76578715Y-124422896D01*
X76673953Y-124470515D01*
X76721572Y-124518134D01*
X76769191Y-124613372D01*
X76769191Y-124899086D01*
X76721572Y-124994324D01*
X76673953Y-125041943D01*
X76578715Y-125089562D01*
X76435858Y-125089562D01*
X77197763Y-124422896D02*
X77197763Y-125089562D01*
X77197763Y-124518134D02*
X77245382Y-124470515D01*
X77340620Y-124422896D01*
X77483477Y-124422896D01*
X77578715Y-124470515D01*
X77626334Y-124565753D01*
X77626334Y-125089562D01*
X78721572Y-124089562D02*
X79054906Y-125089562D01*
X79388239Y-124089562D01*
X80245382Y-125089562D02*
X79673953Y-125089562D01*
X79959668Y-125089562D02*
X79959668Y-124089562D01*
X79864429Y-124232420D01*
X79769191Y-124327658D01*
X79673953Y-124375277D01*
X80673953Y-124994324D02*
X80721572Y-125041943D01*
X80673953Y-125089562D01*
X80626334Y-125041943D01*
X80673953Y-124994324D01*
X80673953Y-125089562D01*
X81340620Y-124089562D02*
X81435858Y-124089562D01*
X81531096Y-124137182D01*
X81578715Y-124184801D01*
X81626334Y-124280039D01*
X81673953Y-124470515D01*
X81673953Y-124708610D01*
X81626334Y-124899086D01*
X81578715Y-124994324D01*
X81531096Y-125041943D01*
X81435858Y-125089562D01*
X81340620Y-125089562D01*
X81245382Y-125041943D01*
X81197763Y-124994324D01*
X81150144Y-124899086D01*
X81102525Y-124708610D01*
X81102525Y-124470515D01*
X81150144Y-124280039D01*
X81197763Y-124184801D01*
X81245382Y-124137182D01*
X81340620Y-124089562D01*
X126067532Y-87532966D02*
X126067532Y-86866299D01*
X127067532Y-87532966D01*
X127067532Y-86866299D01*
X127067532Y-86342490D02*
X127019913Y-86437728D01*
X126972294Y-86485347D01*
X126877056Y-86532966D01*
X126591342Y-86532966D01*
X126496104Y-86485347D01*
X126448485Y-86437728D01*
X126400866Y-86342490D01*
X126400866Y-86199633D01*
X126448485Y-86104395D01*
X126496104Y-86056776D01*
X126591342Y-86009157D01*
X126877056Y-86009157D01*
X126972294Y-86056776D01*
X127019913Y-86104395D01*
X127067532Y-86199633D01*
X127067532Y-86342490D01*
X126400866Y-85580585D02*
X127067532Y-85580585D01*
X126496104Y-85580585D02*
X126448485Y-85532966D01*
X126400866Y-85437728D01*
X126400866Y-85294871D01*
X126448485Y-85199633D01*
X126543723Y-85152014D01*
X127067532Y-85152014D01*
X127019913Y-84294871D02*
X127067532Y-84390109D01*
X127067532Y-84580585D01*
X127019913Y-84675823D01*
X126924675Y-84723442D01*
X126543723Y-84723442D01*
X126448485Y-84675823D01*
X126400866Y-84580585D01*
X126400866Y-84390109D01*
X126448485Y-84294871D01*
X126543723Y-84247252D01*
X126638961Y-84247252D01*
X126734199Y-84723442D01*
X126067532Y-83152014D02*
X126067532Y-82532966D01*
X126448485Y-82866299D01*
X126448485Y-82723442D01*
X126496104Y-82628204D01*
X126543723Y-82580585D01*
X126638961Y-82532966D01*
X126877056Y-82532966D01*
X126972294Y-82580585D01*
X127019913Y-82628204D01*
X127067532Y-82723442D01*
X127067532Y-83009157D01*
X127019913Y-83104395D01*
X126972294Y-83152014D01*
X148975988Y-79194326D02*
X148309321Y-79194326D01*
X148975988Y-78194326D01*
X148309321Y-78194326D01*
X147785512Y-78194326D02*
X147880750Y-78241945D01*
X147928369Y-78289564D01*
X147975988Y-78384802D01*
X147975988Y-78670516D01*
X147928369Y-78765754D01*
X147880750Y-78813373D01*
X147785512Y-78860992D01*
X147642655Y-78860992D01*
X147547417Y-78813373D01*
X147499798Y-78765754D01*
X147452179Y-78670516D01*
X147452179Y-78384802D01*
X147499798Y-78289564D01*
X147547417Y-78241945D01*
X147642655Y-78194326D01*
X147785512Y-78194326D01*
X147023607Y-78860992D02*
X147023607Y-78194326D01*
X147023607Y-78765754D02*
X146975988Y-78813373D01*
X146880750Y-78860992D01*
X146737893Y-78860992D01*
X146642655Y-78813373D01*
X146595036Y-78718135D01*
X146595036Y-78194326D01*
X145737893Y-78241945D02*
X145833131Y-78194326D01*
X146023607Y-78194326D01*
X146118845Y-78241945D01*
X146166464Y-78337183D01*
X146166464Y-78718135D01*
X146118845Y-78813373D01*
X146023607Y-78860992D01*
X145833131Y-78860992D01*
X145737893Y-78813373D01*
X145690274Y-78718135D01*
X145690274Y-78622897D01*
X146166464Y-78527659D01*
X144071226Y-78860992D02*
X144071226Y-78194326D01*
X144309321Y-79241945D02*
X144547417Y-78527659D01*
X143928369Y-78527659D01*
%TO.C,J1*%
X172131380Y-122645633D02*
X172845666Y-122645633D01*
X172988523Y-122693252D01*
X173083761Y-122788490D01*
X173131380Y-122931347D01*
X173131380Y-123026585D01*
X173131380Y-121645633D02*
X173131380Y-122217061D01*
X173131380Y-121931347D02*
X172131380Y-121931347D01*
X172274238Y-122026585D01*
X172369476Y-122121823D01*
X172417095Y-122217061D01*
D11*
%TO.C,Z3*%
X112237369Y-104034935D02*
X113084036Y-104034935D01*
X112237369Y-105304935D01*
X113084036Y-105304935D01*
X113446893Y-104034935D02*
X114233084Y-104034935D01*
X113809750Y-104518745D01*
X113991179Y-104518745D01*
X114112131Y-104579221D01*
X114172607Y-104639697D01*
X114233084Y-104760650D01*
X114233084Y-105063031D01*
X114172607Y-105183983D01*
X114112131Y-105244459D01*
X113991179Y-105304935D01*
X113628322Y-105304935D01*
X113507369Y-105244459D01*
X113446893Y-105183983D01*
D10*
%TO.C,R12*%
X134112716Y-108230221D02*
X133779383Y-107754031D01*
X133541288Y-108230221D02*
X133541288Y-107230221D01*
X133922240Y-107230221D01*
X134017478Y-107277841D01*
X134065097Y-107325460D01*
X134112716Y-107420698D01*
X134112716Y-107563555D01*
X134065097Y-107658793D01*
X134017478Y-107706412D01*
X133922240Y-107754031D01*
X133541288Y-107754031D01*
X135065097Y-108230221D02*
X134493669Y-108230221D01*
X134779383Y-108230221D02*
X134779383Y-107230221D01*
X134684145Y-107373079D01*
X134588907Y-107468317D01*
X134493669Y-107515936D01*
X135446050Y-107325460D02*
X135493669Y-107277841D01*
X135588907Y-107230221D01*
X135827002Y-107230221D01*
X135922240Y-107277841D01*
X135969859Y-107325460D01*
X136017478Y-107420698D01*
X136017478Y-107515936D01*
X135969859Y-107658793D01*
X135398431Y-108230221D01*
X136017478Y-108230221D01*
%TO.C,R10*%
X133985910Y-116900216D02*
X133652577Y-116424026D01*
X133414482Y-116900216D02*
X133414482Y-115900216D01*
X133795434Y-115900216D01*
X133890672Y-115947836D01*
X133938291Y-115995455D01*
X133985910Y-116090693D01*
X133985910Y-116233550D01*
X133938291Y-116328788D01*
X133890672Y-116376407D01*
X133795434Y-116424026D01*
X133414482Y-116424026D01*
X134938291Y-116900216D02*
X134366863Y-116900216D01*
X134652577Y-116900216D02*
X134652577Y-115900216D01*
X134557339Y-116043074D01*
X134462101Y-116138312D01*
X134366863Y-116185931D01*
X135557339Y-115900216D02*
X135652577Y-115900216D01*
X135747815Y-115947836D01*
X135795434Y-115995455D01*
X135843053Y-116090693D01*
X135890672Y-116281169D01*
X135890672Y-116519264D01*
X135843053Y-116709740D01*
X135795434Y-116804978D01*
X135747815Y-116852597D01*
X135652577Y-116900216D01*
X135557339Y-116900216D01*
X135462101Y-116852597D01*
X135414482Y-116804978D01*
X135366863Y-116709740D01*
X135319244Y-116519264D01*
X135319244Y-116281169D01*
X135366863Y-116090693D01*
X135414482Y-115995455D01*
X135462101Y-115947836D01*
X135557339Y-115900216D01*
D11*
%TO.C,Q2*%
X72522533Y-99098851D02*
X72401581Y-99038375D01*
X72280628Y-98917422D01*
X72099200Y-98735994D01*
X71978247Y-98675517D01*
X71857295Y-98675517D01*
X71917771Y-98977898D02*
X71796819Y-98917422D01*
X71675866Y-98796470D01*
X71615390Y-98554565D01*
X71615390Y-98131232D01*
X71675866Y-97889327D01*
X71796819Y-97768375D01*
X71917771Y-97707898D01*
X72159676Y-97707898D01*
X72280628Y-97768375D01*
X72401581Y-97889327D01*
X72462057Y-98131232D01*
X72462057Y-98554565D01*
X72401581Y-98796470D01*
X72280628Y-98917422D01*
X72159676Y-98977898D01*
X71917771Y-98977898D01*
X72945866Y-97828851D02*
X73006343Y-97768375D01*
X73127295Y-97707898D01*
X73429676Y-97707898D01*
X73550628Y-97768375D01*
X73611105Y-97828851D01*
X73671581Y-97949803D01*
X73671581Y-98070755D01*
X73611105Y-98252184D01*
X72885390Y-98977898D01*
X73671581Y-98977898D01*
D10*
%TO.C,P1*%
X67539859Y-91323044D02*
X67539859Y-90323044D01*
X67920812Y-90323044D01*
X68016050Y-90370664D01*
X68063669Y-90418283D01*
X68111288Y-90513521D01*
X68111288Y-90656378D01*
X68063669Y-90751616D01*
X68016050Y-90799235D01*
X67920812Y-90846854D01*
X67539859Y-90846854D01*
X69063669Y-91323044D02*
X68492240Y-91323044D01*
X68777955Y-91323044D02*
X68777955Y-90323044D01*
X68682716Y-90465902D01*
X68587478Y-90561140D01*
X68492240Y-90608759D01*
%TO.C,D1*%
X55905843Y-92968759D02*
X54905843Y-92968759D01*
X54905843Y-92730664D01*
X54953463Y-92587806D01*
X55048701Y-92492568D01*
X55143939Y-92444949D01*
X55334415Y-92397330D01*
X55477272Y-92397330D01*
X55667748Y-92444949D01*
X55762986Y-92492568D01*
X55858224Y-92587806D01*
X55905843Y-92730664D01*
X55905843Y-92968759D01*
X55905843Y-91444949D02*
X55905843Y-92016378D01*
X55905843Y-91730664D02*
X54905843Y-91730664D01*
X55048701Y-91825902D01*
X55143939Y-91921140D01*
X55191558Y-92016378D01*
X57330843Y-100112568D02*
X56330843Y-100112568D01*
X57330843Y-99541140D02*
X56759415Y-99969711D01*
X56330843Y-99541140D02*
X56902272Y-100112568D01*
%TO.C,R5*%
X99920459Y-108230221D02*
X99587126Y-107754031D01*
X99349030Y-108230221D02*
X99349030Y-107230221D01*
X99729983Y-107230221D01*
X99825221Y-107277841D01*
X99872840Y-107325460D01*
X99920459Y-107420698D01*
X99920459Y-107563555D01*
X99872840Y-107658793D01*
X99825221Y-107706412D01*
X99729983Y-107754031D01*
X99349030Y-107754031D01*
X100825221Y-107230221D02*
X100349030Y-107230221D01*
X100301411Y-107706412D01*
X100349030Y-107658793D01*
X100444268Y-107611174D01*
X100682364Y-107611174D01*
X100777602Y-107658793D01*
X100825221Y-107706412D01*
X100872840Y-107801650D01*
X100872840Y-108039745D01*
X100825221Y-108134983D01*
X100777602Y-108182602D01*
X100682364Y-108230221D01*
X100444268Y-108230221D01*
X100349030Y-108182602D01*
X100301411Y-108134983D01*
D11*
%TO.C,Z1*%
X60673832Y-103982082D02*
X61520499Y-103982082D01*
X60673832Y-105252082D01*
X61520499Y-105252082D01*
X62669547Y-105252082D02*
X61943832Y-105252082D01*
X62306689Y-105252082D02*
X62306689Y-103982082D01*
X62185737Y-104163511D01*
X62064785Y-104284463D01*
X61943832Y-104344939D01*
D10*
%TO.C,R6*%
X93780459Y-108230221D02*
X93447126Y-107754031D01*
X93209030Y-108230221D02*
X93209030Y-107230221D01*
X93589983Y-107230221D01*
X93685221Y-107277841D01*
X93732840Y-107325460D01*
X93780459Y-107420698D01*
X93780459Y-107563555D01*
X93732840Y-107658793D01*
X93685221Y-107706412D01*
X93589983Y-107754031D01*
X93209030Y-107754031D01*
X94637602Y-107230221D02*
X94447126Y-107230221D01*
X94351887Y-107277841D01*
X94304268Y-107325460D01*
X94209030Y-107468317D01*
X94161411Y-107658793D01*
X94161411Y-108039745D01*
X94209030Y-108134983D01*
X94256649Y-108182602D01*
X94351887Y-108230221D01*
X94542364Y-108230221D01*
X94637602Y-108182602D01*
X94685221Y-108134983D01*
X94732840Y-108039745D01*
X94732840Y-107801650D01*
X94685221Y-107706412D01*
X94637602Y-107658793D01*
X94542364Y-107611174D01*
X94351887Y-107611174D01*
X94256649Y-107658793D01*
X94209030Y-107706412D01*
X94161411Y-107801650D01*
%TO.C,D3*%
X107895431Y-92968759D02*
X106895431Y-92968759D01*
X106895431Y-92730664D01*
X106943051Y-92587806D01*
X107038289Y-92492568D01*
X107133527Y-92444949D01*
X107324003Y-92397330D01*
X107466860Y-92397330D01*
X107657336Y-92444949D01*
X107752574Y-92492568D01*
X107847812Y-92587806D01*
X107895431Y-92730664D01*
X107895431Y-92968759D01*
X106895431Y-92063997D02*
X106895431Y-91444949D01*
X107276384Y-91778283D01*
X107276384Y-91635425D01*
X107324003Y-91540187D01*
X107371622Y-91492568D01*
X107466860Y-91444949D01*
X107704955Y-91444949D01*
X107800193Y-91492568D01*
X107847812Y-91540187D01*
X107895431Y-91635425D01*
X107895431Y-91921140D01*
X107847812Y-92016378D01*
X107800193Y-92063997D01*
X109320431Y-100112568D02*
X108320431Y-100112568D01*
X109320431Y-99541140D02*
X108749003Y-99969711D01*
X108320431Y-99541140D02*
X108891860Y-100112568D01*
D11*
%TO.C,Z2*%
X87009948Y-103991337D02*
X87856615Y-103991337D01*
X87009948Y-105261337D01*
X87856615Y-105261337D01*
X88279948Y-104112290D02*
X88340424Y-104051814D01*
X88461377Y-103991337D01*
X88763758Y-103991337D01*
X88884710Y-104051814D01*
X88945186Y-104112290D01*
X89005663Y-104233242D01*
X89005663Y-104354194D01*
X88945186Y-104535623D01*
X88219472Y-105261337D01*
X89005663Y-105261337D01*
D10*
%TO.C,R11*%
X140252716Y-108230221D02*
X139919383Y-107754031D01*
X139681288Y-108230221D02*
X139681288Y-107230221D01*
X140062240Y-107230221D01*
X140157478Y-107277841D01*
X140205097Y-107325460D01*
X140252716Y-107420698D01*
X140252716Y-107563555D01*
X140205097Y-107658793D01*
X140157478Y-107706412D01*
X140062240Y-107754031D01*
X139681288Y-107754031D01*
X141205097Y-108230221D02*
X140633669Y-108230221D01*
X140919383Y-108230221D02*
X140919383Y-107230221D01*
X140824145Y-107373079D01*
X140728907Y-107468317D01*
X140633669Y-107515936D01*
X142157478Y-108230221D02*
X141586050Y-108230221D01*
X141871764Y-108230221D02*
X141871764Y-107230221D01*
X141776526Y-107373079D01*
X141681288Y-107468317D01*
X141586050Y-107515936D01*
D11*
%TO.C,Q8*%
X150433755Y-99122964D02*
X150312803Y-99062488D01*
X150191850Y-98941535D01*
X150010422Y-98760107D01*
X149889469Y-98699630D01*
X149768517Y-98699630D01*
X149828993Y-99002011D02*
X149708041Y-98941535D01*
X149587088Y-98820583D01*
X149526612Y-98578678D01*
X149526612Y-98155345D01*
X149587088Y-97913440D01*
X149708041Y-97792488D01*
X149828993Y-97732011D01*
X150070898Y-97732011D01*
X150191850Y-97792488D01*
X150312803Y-97913440D01*
X150373279Y-98155345D01*
X150373279Y-98578678D01*
X150312803Y-98820583D01*
X150191850Y-98941535D01*
X150070898Y-99002011D01*
X149828993Y-99002011D01*
X151098993Y-98276297D02*
X150978041Y-98215821D01*
X150917565Y-98155345D01*
X150857088Y-98034392D01*
X150857088Y-97973916D01*
X150917565Y-97852964D01*
X150978041Y-97792488D01*
X151098993Y-97732011D01*
X151340898Y-97732011D01*
X151461850Y-97792488D01*
X151522327Y-97852964D01*
X151582803Y-97973916D01*
X151582803Y-98034392D01*
X151522327Y-98155345D01*
X151461850Y-98215821D01*
X151340898Y-98276297D01*
X151098993Y-98276297D01*
X150978041Y-98336773D01*
X150917565Y-98397249D01*
X150857088Y-98518202D01*
X150857088Y-98760107D01*
X150917565Y-98881059D01*
X150978041Y-98941535D01*
X151098993Y-99002011D01*
X151340898Y-99002011D01*
X151461850Y-98941535D01*
X151522327Y-98881059D01*
X151582803Y-98760107D01*
X151582803Y-98518202D01*
X151522327Y-98397249D01*
X151461850Y-98336773D01*
X151340898Y-98276297D01*
D10*
%TO.C,R7*%
X114268862Y-116881218D02*
X113935529Y-116405028D01*
X113697433Y-116881218D02*
X113697433Y-115881218D01*
X114078386Y-115881218D01*
X114173624Y-115928838D01*
X114221243Y-115976457D01*
X114268862Y-116071695D01*
X114268862Y-116214552D01*
X114221243Y-116309790D01*
X114173624Y-116357409D01*
X114078386Y-116405028D01*
X113697433Y-116405028D01*
X114602195Y-115881218D02*
X115268862Y-115881218D01*
X114840290Y-116881218D01*
%TO.C,Q7*%
X128110335Y-108365460D02*
X128015097Y-108317841D01*
X127919859Y-108222602D01*
X127777002Y-108079745D01*
X127681764Y-108032126D01*
X127586526Y-108032126D01*
X127634145Y-108270221D02*
X127538907Y-108222602D01*
X127443669Y-108127364D01*
X127396050Y-107936888D01*
X127396050Y-107603555D01*
X127443669Y-107413079D01*
X127538907Y-107317841D01*
X127634145Y-107270221D01*
X127824621Y-107270221D01*
X127919859Y-107317841D01*
X128015097Y-107413079D01*
X128062716Y-107603555D01*
X128062716Y-107936888D01*
X128015097Y-108127364D01*
X127919859Y-108222602D01*
X127824621Y-108270221D01*
X127634145Y-108270221D01*
X128396050Y-107270221D02*
X129062716Y-107270221D01*
X128634145Y-108270221D01*
D11*
%TO.C,Q4*%
X98645288Y-99151461D02*
X98524336Y-99090985D01*
X98403383Y-98970032D01*
X98221955Y-98788604D01*
X98101002Y-98728127D01*
X97980050Y-98728127D01*
X98040526Y-99030508D02*
X97919574Y-98970032D01*
X97798621Y-98849080D01*
X97738145Y-98607175D01*
X97738145Y-98183842D01*
X97798621Y-97941937D01*
X97919574Y-97820985D01*
X98040526Y-97760508D01*
X98282431Y-97760508D01*
X98403383Y-97820985D01*
X98524336Y-97941937D01*
X98584812Y-98183842D01*
X98584812Y-98607175D01*
X98524336Y-98849080D01*
X98403383Y-98970032D01*
X98282431Y-99030508D01*
X98040526Y-99030508D01*
X99673383Y-98183842D02*
X99673383Y-99030508D01*
X99371002Y-97700032D02*
X99068621Y-98607175D01*
X99854812Y-98607175D01*
D10*
%TO.C,R3*%
X73420624Y-108230221D02*
X73087291Y-107754031D01*
X72849195Y-108230221D02*
X72849195Y-107230221D01*
X73230148Y-107230221D01*
X73325386Y-107277841D01*
X73373005Y-107325460D01*
X73420624Y-107420698D01*
X73420624Y-107563555D01*
X73373005Y-107658793D01*
X73325386Y-107706412D01*
X73230148Y-107754031D01*
X72849195Y-107754031D01*
X73753957Y-107230221D02*
X74373005Y-107230221D01*
X74039671Y-107611174D01*
X74182529Y-107611174D01*
X74277767Y-107658793D01*
X74325386Y-107706412D01*
X74373005Y-107801650D01*
X74373005Y-108039745D01*
X74325386Y-108134983D01*
X74277767Y-108182602D01*
X74182529Y-108230221D01*
X73896814Y-108230221D01*
X73801576Y-108182602D01*
X73753957Y-108134983D01*
%TO.C,P4*%
X145487249Y-91323044D02*
X145487249Y-90323044D01*
X145868202Y-90323044D01*
X145963440Y-90370664D01*
X146011059Y-90418283D01*
X146058678Y-90513521D01*
X146058678Y-90656378D01*
X146011059Y-90751616D01*
X145963440Y-90799235D01*
X145868202Y-90846854D01*
X145487249Y-90846854D01*
X146915821Y-90656378D02*
X146915821Y-91323044D01*
X146677725Y-90275425D02*
X146439630Y-90989711D01*
X147058678Y-90989711D01*
%TO.C,R9*%
X114331825Y-108230221D02*
X113998492Y-107754031D01*
X113760396Y-108230221D02*
X113760396Y-107230221D01*
X114141349Y-107230221D01*
X114236587Y-107277841D01*
X114284206Y-107325460D01*
X114331825Y-107420698D01*
X114331825Y-107563555D01*
X114284206Y-107658793D01*
X114236587Y-107706412D01*
X114141349Y-107754031D01*
X113760396Y-107754031D01*
X114808015Y-108230221D02*
X114998492Y-108230221D01*
X115093730Y-108182602D01*
X115141349Y-108134983D01*
X115236587Y-107992126D01*
X115284206Y-107801650D01*
X115284206Y-107420698D01*
X115236587Y-107325460D01*
X115188968Y-107277841D01*
X115093730Y-107230221D01*
X114903253Y-107230221D01*
X114808015Y-107277841D01*
X114760396Y-107325460D01*
X114712777Y-107420698D01*
X114712777Y-107658793D01*
X114760396Y-107754031D01*
X114808015Y-107801650D01*
X114903253Y-107849269D01*
X115093730Y-107849269D01*
X115188968Y-107801650D01*
X115236587Y-107754031D01*
X115284206Y-107658793D01*
%TO.C,Q1*%
X66942052Y-108365460D02*
X66846814Y-108317841D01*
X66751576Y-108222602D01*
X66608719Y-108079745D01*
X66513481Y-108032126D01*
X66418243Y-108032126D01*
X66465862Y-108270221D02*
X66370624Y-108222602D01*
X66275386Y-108127364D01*
X66227767Y-107936888D01*
X66227767Y-107603555D01*
X66275386Y-107413079D01*
X66370624Y-107317841D01*
X66465862Y-107270221D01*
X66656338Y-107270221D01*
X66751576Y-107317841D01*
X66846814Y-107413079D01*
X66894433Y-107603555D01*
X66894433Y-107936888D01*
X66846814Y-108127364D01*
X66751576Y-108222602D01*
X66656338Y-108270221D01*
X66465862Y-108270221D01*
X67846814Y-108270221D02*
X67275386Y-108270221D01*
X67561100Y-108270221D02*
X67561100Y-107270221D01*
X67465862Y-107413079D01*
X67370624Y-107508317D01*
X67275386Y-107555936D01*
%TO.C,Q5*%
X107853253Y-108365460D02*
X107758015Y-108317841D01*
X107662777Y-108222602D01*
X107519920Y-108079745D01*
X107424682Y-108032126D01*
X107329444Y-108032126D01*
X107377063Y-108270221D02*
X107281825Y-108222602D01*
X107186587Y-108127364D01*
X107138968Y-107936888D01*
X107138968Y-107603555D01*
X107186587Y-107413079D01*
X107281825Y-107317841D01*
X107377063Y-107270221D01*
X107567539Y-107270221D01*
X107662777Y-107317841D01*
X107758015Y-107413079D01*
X107805634Y-107603555D01*
X107805634Y-107936888D01*
X107758015Y-108127364D01*
X107662777Y-108222602D01*
X107567539Y-108270221D01*
X107377063Y-108270221D01*
X108710396Y-107270221D02*
X108234206Y-107270221D01*
X108186587Y-107746412D01*
X108234206Y-107698793D01*
X108329444Y-107651174D01*
X108567539Y-107651174D01*
X108662777Y-107698793D01*
X108710396Y-107746412D01*
X108758015Y-107841650D01*
X108758015Y-108079745D01*
X108710396Y-108174983D01*
X108662777Y-108222602D01*
X108567539Y-108270221D01*
X108329444Y-108270221D01*
X108234206Y-108222602D01*
X108186587Y-108174983D01*
D11*
%TO.C,Q6*%
X124599255Y-99050626D02*
X124478303Y-98990150D01*
X124357350Y-98869197D01*
X124175922Y-98687769D01*
X124054969Y-98627292D01*
X123934017Y-98627292D01*
X123994493Y-98929673D02*
X123873541Y-98869197D01*
X123752588Y-98748245D01*
X123692112Y-98506340D01*
X123692112Y-98083007D01*
X123752588Y-97841102D01*
X123873541Y-97720150D01*
X123994493Y-97659673D01*
X124236398Y-97659673D01*
X124357350Y-97720150D01*
X124478303Y-97841102D01*
X124538779Y-98083007D01*
X124538779Y-98506340D01*
X124478303Y-98748245D01*
X124357350Y-98869197D01*
X124236398Y-98929673D01*
X123994493Y-98929673D01*
X125627350Y-97659673D02*
X125385446Y-97659673D01*
X125264493Y-97720150D01*
X125204017Y-97780626D01*
X125083065Y-97962054D01*
X125022588Y-98203959D01*
X125022588Y-98687769D01*
X125083065Y-98808721D01*
X125143541Y-98869197D01*
X125264493Y-98929673D01*
X125506398Y-98929673D01*
X125627350Y-98869197D01*
X125687827Y-98808721D01*
X125748303Y-98687769D01*
X125748303Y-98385388D01*
X125687827Y-98264435D01*
X125627350Y-98203959D01*
X125506398Y-98143483D01*
X125264493Y-98143483D01*
X125143541Y-98203959D01*
X125083065Y-98264435D01*
X125022588Y-98385388D01*
D10*
%TO.C,R2*%
X79560624Y-108230221D02*
X79227291Y-107754031D01*
X78989195Y-108230221D02*
X78989195Y-107230221D01*
X79370148Y-107230221D01*
X79465386Y-107277841D01*
X79513005Y-107325460D01*
X79560624Y-107420698D01*
X79560624Y-107563555D01*
X79513005Y-107658793D01*
X79465386Y-107706412D01*
X79370148Y-107754031D01*
X78989195Y-107754031D01*
X79941576Y-107325460D02*
X79989195Y-107277841D01*
X80084433Y-107230221D01*
X80322529Y-107230221D01*
X80417767Y-107277841D01*
X80465386Y-107325460D01*
X80513005Y-107420698D01*
X80513005Y-107515936D01*
X80465386Y-107658793D01*
X79893957Y-108230221D01*
X80513005Y-108230221D01*
%TO.C,P2*%
X93537112Y-91323044D02*
X93537112Y-90323044D01*
X93918065Y-90323044D01*
X94013303Y-90370664D01*
X94060922Y-90418283D01*
X94108541Y-90513521D01*
X94108541Y-90656378D01*
X94060922Y-90751616D01*
X94013303Y-90799235D01*
X93918065Y-90846854D01*
X93537112Y-90846854D01*
X94489493Y-90418283D02*
X94537112Y-90370664D01*
X94632350Y-90323044D01*
X94870446Y-90323044D01*
X94965684Y-90370664D01*
X95013303Y-90418283D01*
X95060922Y-90513521D01*
X95060922Y-90608759D01*
X95013303Y-90751616D01*
X94441874Y-91323044D01*
X95060922Y-91323044D01*
%TO.C,Q3*%
X87301887Y-108365460D02*
X87206649Y-108317841D01*
X87111411Y-108222602D01*
X86968554Y-108079745D01*
X86873316Y-108032126D01*
X86778078Y-108032126D01*
X86825697Y-108270221D02*
X86730459Y-108222602D01*
X86635221Y-108127364D01*
X86587602Y-107936888D01*
X86587602Y-107603555D01*
X86635221Y-107413079D01*
X86730459Y-107317841D01*
X86825697Y-107270221D01*
X87016173Y-107270221D01*
X87111411Y-107317841D01*
X87206649Y-107413079D01*
X87254268Y-107603555D01*
X87254268Y-107936888D01*
X87206649Y-108127364D01*
X87111411Y-108222602D01*
X87016173Y-108270221D01*
X86825697Y-108270221D01*
X87587602Y-107270221D02*
X88206649Y-107270221D01*
X87873316Y-107651174D01*
X88016173Y-107651174D01*
X88111411Y-107698793D01*
X88159030Y-107746412D01*
X88206649Y-107841650D01*
X88206649Y-108079745D01*
X88159030Y-108174983D01*
X88111411Y-108222602D01*
X88016173Y-108270221D01*
X87730459Y-108270221D01*
X87635221Y-108222602D01*
X87587602Y-108174983D01*
%TO.C,R8*%
X120471825Y-108230221D02*
X120138492Y-107754031D01*
X119900396Y-108230221D02*
X119900396Y-107230221D01*
X120281349Y-107230221D01*
X120376587Y-107277841D01*
X120424206Y-107325460D01*
X120471825Y-107420698D01*
X120471825Y-107563555D01*
X120424206Y-107658793D01*
X120376587Y-107706412D01*
X120281349Y-107754031D01*
X119900396Y-107754031D01*
X121043253Y-107658793D02*
X120948015Y-107611174D01*
X120900396Y-107563555D01*
X120852777Y-107468317D01*
X120852777Y-107420698D01*
X120900396Y-107325460D01*
X120948015Y-107277841D01*
X121043253Y-107230221D01*
X121233730Y-107230221D01*
X121328968Y-107277841D01*
X121376587Y-107325460D01*
X121424206Y-107420698D01*
X121424206Y-107468317D01*
X121376587Y-107563555D01*
X121328968Y-107611174D01*
X121233730Y-107658793D01*
X121043253Y-107658793D01*
X120948015Y-107706412D01*
X120900396Y-107754031D01*
X120852777Y-107849269D01*
X120852777Y-108039745D01*
X120900396Y-108134983D01*
X120948015Y-108182602D01*
X121043253Y-108230221D01*
X121233730Y-108230221D01*
X121328968Y-108182602D01*
X121376587Y-108134983D01*
X121424206Y-108039745D01*
X121424206Y-107849269D01*
X121376587Y-107754031D01*
X121328968Y-107706412D01*
X121233730Y-107658793D01*
%TO.C,D4*%
X133996266Y-92968759D02*
X132996266Y-92968759D01*
X132996266Y-92730664D01*
X133043886Y-92587806D01*
X133139124Y-92492568D01*
X133234362Y-92444949D01*
X133424838Y-92397330D01*
X133567695Y-92397330D01*
X133758171Y-92444949D01*
X133853409Y-92492568D01*
X133948647Y-92587806D01*
X133996266Y-92730664D01*
X133996266Y-92968759D01*
X133329600Y-91540187D02*
X133996266Y-91540187D01*
X132948647Y-91778283D02*
X133662933Y-92016378D01*
X133662933Y-91397330D01*
X135421266Y-100112568D02*
X134421266Y-100112568D01*
X135421266Y-99541140D02*
X134849838Y-99969711D01*
X134421266Y-99541140D02*
X134992695Y-100112568D01*
%TO.C,R1*%
X73404478Y-116850698D02*
X73071145Y-116374508D01*
X72833049Y-116850698D02*
X72833049Y-115850698D01*
X73214002Y-115850698D01*
X73309240Y-115898318D01*
X73356859Y-115945937D01*
X73404478Y-116041175D01*
X73404478Y-116184032D01*
X73356859Y-116279270D01*
X73309240Y-116326889D01*
X73214002Y-116374508D01*
X72833049Y-116374508D01*
X74356859Y-116850698D02*
X73785430Y-116850698D01*
X74071145Y-116850698D02*
X74071145Y-115850698D01*
X73975906Y-115993556D01*
X73880668Y-116088794D01*
X73785430Y-116136413D01*
D11*
%TO.C,Z4*%
X137711275Y-104023975D02*
X138557942Y-104023975D01*
X137711275Y-105293975D01*
X138557942Y-105293975D01*
X139586037Y-104447309D02*
X139586037Y-105293975D01*
X139283656Y-103963499D02*
X138981275Y-104870642D01*
X139767466Y-104870642D01*
D10*
%TO.C,D2*%
X82060931Y-92968759D02*
X81060931Y-92968759D01*
X81060931Y-92730664D01*
X81108551Y-92587806D01*
X81203789Y-92492568D01*
X81299027Y-92444949D01*
X81489503Y-92397330D01*
X81632360Y-92397330D01*
X81822836Y-92444949D01*
X81918074Y-92492568D01*
X82013312Y-92587806D01*
X82060931Y-92730664D01*
X82060931Y-92968759D01*
X81156170Y-92016378D02*
X81108551Y-91968759D01*
X81060931Y-91873521D01*
X81060931Y-91635425D01*
X81108551Y-91540187D01*
X81156170Y-91492568D01*
X81251408Y-91444949D01*
X81346646Y-91444949D01*
X81489503Y-91492568D01*
X82060931Y-92063997D01*
X82060931Y-91444949D01*
X83485931Y-100112568D02*
X82485931Y-100112568D01*
X83485931Y-99541140D02*
X82914503Y-99969711D01*
X82485931Y-99541140D02*
X83057360Y-100112568D01*
%TO.C,R4*%
X93760091Y-116981324D02*
X93426758Y-116505134D01*
X93188662Y-116981324D02*
X93188662Y-115981324D01*
X93569615Y-115981324D01*
X93664853Y-116028944D01*
X93712472Y-116076563D01*
X93760091Y-116171801D01*
X93760091Y-116314658D01*
X93712472Y-116409896D01*
X93664853Y-116457515D01*
X93569615Y-116505134D01*
X93188662Y-116505134D01*
X94617234Y-116314658D02*
X94617234Y-116981324D01*
X94379138Y-115933705D02*
X94141043Y-116647991D01*
X94760091Y-116647991D01*
%TO.C,P3*%
X119504785Y-91323044D02*
X119504785Y-90323044D01*
X119885738Y-90323044D01*
X119980976Y-90370664D01*
X120028595Y-90418283D01*
X120076214Y-90513521D01*
X120076214Y-90656378D01*
X120028595Y-90751616D01*
X119980976Y-90799235D01*
X119885738Y-90846854D01*
X119504785Y-90846854D01*
X120409547Y-90323044D02*
X121028595Y-90323044D01*
X120695261Y-90703997D01*
X120838119Y-90703997D01*
X120933357Y-90751616D01*
X120980976Y-90799235D01*
X121028595Y-90894473D01*
X121028595Y-91132568D01*
X120980976Y-91227806D01*
X120933357Y-91275425D01*
X120838119Y-91323044D01*
X120552404Y-91323044D01*
X120457166Y-91275425D01*
X120409547Y-91227806D01*
D12*
%TO.C,J1*%
X171679000Y-124912300D02*
X133459000Y-124912300D01*
X169079000Y-119712300D02*
X133459000Y-119712300D01*
X133459000Y-119712300D02*
X133459000Y-124912300D01*
X171679000Y-119712300D02*
X171679000Y-121042300D01*
X170349000Y-119712300D02*
X171679000Y-119712300D01*
X169079000Y-122312300D02*
X171679000Y-122312300D01*
X171679000Y-122312300D02*
X171679000Y-124912300D01*
X169079000Y-119712300D02*
X169079000Y-122312300D01*
D13*
%TO.C,Z3*%
X122712364Y-105453019D02*
X118908364Y-105453019D01*
X118908364Y-103733019D02*
X122712364Y-103733019D01*
X122712364Y-103733019D02*
X122712364Y-105453019D01*
X122712364Y-104593019D02*
X125235364Y-104593019D01*
X116385364Y-104593019D02*
X118908364Y-104593019D01*
X118908364Y-105453019D02*
X118908364Y-103733019D01*
X118908364Y-104593019D02*
X119768364Y-103733019D01*
D12*
%TO.C,R12*%
X134855574Y-110147841D02*
X134925574Y-110147841D01*
X134855574Y-110147841D02*
G75*
G03*
X134855574Y-110147841I-1370000J0D01*
G01*
%TO.C,R10*%
X134855574Y-114197841D02*
X134925574Y-114197841D01*
X134855574Y-114197841D02*
G75*
G03*
X134855574Y-114197841I-1370000J0D01*
G01*
D13*
%TO.C,Q2*%
X63002955Y-92452182D02*
X63002955Y-97142182D01*
X63002955Y-97142182D02*
X73542955Y-97142182D01*
X73542955Y-97142182D02*
X73542955Y-93947182D01*
D12*
%TO.C,P1*%
X73417955Y-89871664D02*
X73417955Y-79950664D01*
X73657955Y-80450664D02*
X73657955Y-79710664D01*
X73417955Y-80510664D02*
X63137955Y-80510664D01*
X73417955Y-89871664D02*
X63137955Y-89871664D01*
X63137955Y-89871664D02*
X63137955Y-79950664D01*
X73657955Y-79710664D02*
X73157955Y-79710664D01*
X64667955Y-85885664D02*
X64702955Y-85849664D01*
X66771955Y-83371664D02*
X66806955Y-83336664D01*
X73417955Y-86911664D02*
X63137955Y-86911664D01*
X73417955Y-79950664D02*
X63137955Y-79950664D01*
X66964955Y-83587664D02*
X67011955Y-83541664D01*
X73417955Y-82010664D02*
X63137955Y-82010664D01*
X64462955Y-85679664D02*
X64509955Y-85633664D01*
X70817955Y-82930664D02*
G75*
G03*
X70134637Y-83075908I-1J-1679992D01*
G01*
X69282955Y-83926664D02*
G75*
G03*
X69282528Y-85293706I1534993J-684001D01*
G01*
X72352955Y-85294664D02*
G75*
G03*
X72353382Y-83927622I-1534993J684001D01*
G01*
X70133955Y-86145664D02*
G75*
G03*
X71500997Y-86146091I684001J1534993D01*
G01*
X71501955Y-83075664D02*
G75*
G03*
X70789150Y-82930411I-683999J-1535001D01*
G01*
X67417955Y-84610664D02*
G75*
G03*
X67417955Y-84610664I-1680000J0D01*
G01*
%TO.C,D1*%
X56453463Y-97115664D02*
X61903463Y-97115664D01*
X61903463Y-87345664D02*
X56453463Y-87345664D01*
X56453463Y-95446164D02*
X61903463Y-95446164D01*
X56453463Y-95566164D02*
X61903463Y-95566164D01*
X56453463Y-95686164D02*
X61903463Y-95686164D01*
X56453463Y-87345664D02*
X56453463Y-97115664D01*
X59178463Y-98310664D02*
X59178463Y-97115664D01*
X59178463Y-86150664D02*
X59178463Y-87345664D01*
X61903463Y-97115664D02*
X61903463Y-87345664D01*
%TO.C,R5*%
X100187126Y-110147841D02*
X100257126Y-110147841D01*
X100187126Y-110147841D02*
G75*
G03*
X100187126Y-110147841I-1370000J0D01*
G01*
D13*
%TO.C,Z1*%
X70821002Y-103733019D02*
X70821002Y-105453019D01*
X67017002Y-105453019D02*
X67017002Y-103733019D01*
X70821002Y-105453019D02*
X67017002Y-105453019D01*
X67017002Y-103733019D02*
X70821002Y-103733019D01*
X70821002Y-104593019D02*
X73344002Y-104593019D01*
X64494002Y-104593019D02*
X67017002Y-104593019D01*
X67017002Y-104593019D02*
X67877002Y-103733019D01*
D12*
%TO.C,R6*%
X94047126Y-110147841D02*
X94117126Y-110147841D01*
X94047126Y-110147841D02*
G75*
G03*
X94047126Y-110147841I-1370000J0D01*
G01*
%TO.C,D3*%
X108443051Y-95566164D02*
X113893051Y-95566164D01*
X108443051Y-97115664D02*
X113893051Y-97115664D01*
X113893051Y-97115664D02*
X113893051Y-87345664D01*
X113893051Y-87345664D02*
X108443051Y-87345664D01*
X108443051Y-87345664D02*
X108443051Y-97115664D01*
X108443051Y-95686164D02*
X113893051Y-95686164D01*
X111168051Y-98310664D02*
X111168051Y-97115664D01*
X108443051Y-95446164D02*
X113893051Y-95446164D01*
X111168051Y-86150664D02*
X111168051Y-87345664D01*
D13*
%TO.C,Z2*%
X93497609Y-103733019D02*
X97301609Y-103733019D01*
X93497609Y-104593019D02*
X94357609Y-103733019D01*
X97301609Y-103733019D02*
X97301609Y-105453019D01*
X97301609Y-104593019D02*
X99824609Y-104593019D01*
X90974609Y-104593019D02*
X93497609Y-104593019D01*
X97301609Y-105453019D02*
X93497609Y-105453019D01*
X93497609Y-105453019D02*
X93497609Y-103733019D01*
D12*
%TO.C,R11*%
X140995574Y-110147841D02*
X141065574Y-110147841D01*
X140995574Y-110147841D02*
G75*
G03*
X140995574Y-110147841I-1370000J0D01*
G01*
D13*
%TO.C,Q8*%
X151490345Y-97142182D02*
X151490345Y-93947182D01*
X140950345Y-92452182D02*
X140950345Y-97142182D01*
X140950345Y-97142182D02*
X151490345Y-97142182D01*
D12*
%TO.C,R7*%
X114598492Y-114197841D02*
X114668492Y-114197841D01*
X114598492Y-114197841D02*
G75*
G03*
X114598492Y-114197841I-1370000J0D01*
G01*
%TO.C,Q7*%
X126405574Y-113227841D02*
X130005574Y-113227841D01*
X130044052Y-113216319D02*
G75*
G03*
X128205574Y-108777841I-1838478J1838478D01*
G01*
X128205574Y-108777840D02*
G75*
G03*
X126367096Y-113216319I0J-2600001D01*
G01*
D13*
%TO.C,Q4*%
X89000208Y-97142182D02*
X99540208Y-97142182D01*
X89000208Y-92452182D02*
X89000208Y-97142182D01*
X99540208Y-97142182D02*
X99540208Y-93947182D01*
D12*
%TO.C,R3*%
X73687291Y-110147841D02*
X73757291Y-110147841D01*
X73687291Y-110147841D02*
G75*
G03*
X73687291Y-110147841I-1370000J0D01*
G01*
%TO.C,P4*%
X151365345Y-80510664D02*
X141085345Y-80510664D01*
X142615345Y-85885664D02*
X142650345Y-85849664D01*
X151605345Y-79710664D02*
X151105345Y-79710664D01*
X151365345Y-89871664D02*
X141085345Y-89871664D01*
X151365345Y-86911664D02*
X141085345Y-86911664D01*
X151365345Y-79950664D02*
X141085345Y-79950664D01*
X151365345Y-89871664D02*
X151365345Y-79950664D01*
X151605345Y-80450664D02*
X151605345Y-79710664D01*
X144912345Y-83587664D02*
X144959345Y-83541664D01*
X151365345Y-82010664D02*
X141085345Y-82010664D01*
X142410345Y-85679664D02*
X142457345Y-85633664D01*
X144719345Y-83371664D02*
X144754345Y-83336664D01*
X141085345Y-89871664D02*
X141085345Y-79950664D01*
X150300345Y-85294664D02*
G75*
G03*
X150300772Y-83927622I-1534993J684001D01*
G01*
X149449345Y-83075664D02*
G75*
G03*
X148736540Y-82930411I-683999J-1535001D01*
G01*
X148765345Y-82930664D02*
G75*
G03*
X148082027Y-83075908I-1J-1679992D01*
G01*
X147230345Y-83926664D02*
G75*
G03*
X147229918Y-85293706I1534993J-684001D01*
G01*
X148081345Y-86145664D02*
G75*
G03*
X149448387Y-86146091I684001J1534993D01*
G01*
X145365345Y-84610664D02*
G75*
G03*
X145365345Y-84610664I-1680000J0D01*
G01*
%TO.C,R9*%
X114598492Y-110147841D02*
X114668492Y-110147841D01*
X114598492Y-110147841D02*
G75*
G03*
X114598492Y-110147841I-1370000J0D01*
G01*
%TO.C,Q1*%
X65237291Y-113227841D02*
X68837291Y-113227841D01*
X68875769Y-113216319D02*
G75*
G03*
X67037291Y-108777841I-1838478J1838478D01*
G01*
X67037291Y-108777840D02*
G75*
G03*
X65198813Y-113216319I0J-2600001D01*
G01*
%TO.C,Q5*%
X106148492Y-113227841D02*
X109748492Y-113227841D01*
X107948492Y-108777840D02*
G75*
G03*
X106110014Y-113216319I0J-2600001D01*
G01*
X109786970Y-113216319D02*
G75*
G03*
X107948492Y-108777841I-1838478J1838478D01*
G01*
D13*
%TO.C,Q6*%
X125507881Y-97142182D02*
X125507881Y-93947182D01*
X114967881Y-97142182D02*
X125507881Y-97142182D01*
X114967881Y-92452182D02*
X114967881Y-97142182D01*
D12*
%TO.C,R2*%
X79827291Y-110147841D02*
X79897291Y-110147841D01*
X79827291Y-110147841D02*
G75*
G03*
X79827291Y-110147841I-1370000J0D01*
G01*
%TO.C,P2*%
X99655208Y-79710664D02*
X99155208Y-79710664D01*
X92962208Y-83587664D02*
X93009208Y-83541664D01*
X92769208Y-83371664D02*
X92804208Y-83336664D01*
X99415208Y-89871664D02*
X99415208Y-79950664D01*
X99655208Y-80450664D02*
X99655208Y-79710664D01*
X99415208Y-79950664D02*
X89135208Y-79950664D01*
X99415208Y-82010664D02*
X89135208Y-82010664D01*
X99415208Y-80510664D02*
X89135208Y-80510664D01*
X99415208Y-89871664D02*
X89135208Y-89871664D01*
X90665208Y-85885664D02*
X90700208Y-85849664D01*
X89135208Y-89871664D02*
X89135208Y-79950664D01*
X90460208Y-85679664D02*
X90507208Y-85633664D01*
X99415208Y-86911664D02*
X89135208Y-86911664D01*
X96131208Y-86145664D02*
G75*
G03*
X97498250Y-86146091I684001J1534993D01*
G01*
X96815208Y-82930664D02*
G75*
G03*
X96131890Y-83075908I-1J-1679992D01*
G01*
X98350208Y-85294664D02*
G75*
G03*
X98350635Y-83927622I-1534993J684001D01*
G01*
X97499208Y-83075664D02*
G75*
G03*
X96786403Y-82930411I-683999J-1535001D01*
G01*
X95280208Y-83926664D02*
G75*
G03*
X95279781Y-85293706I1534993J-684001D01*
G01*
X93415208Y-84610664D02*
G75*
G03*
X93415208Y-84610664I-1680000J0D01*
G01*
%TO.C,Q3*%
X85597126Y-113227841D02*
X89197126Y-113227841D01*
X89235604Y-113216319D02*
G75*
G03*
X87397126Y-108777841I-1838478J1838478D01*
G01*
X87397126Y-108777840D02*
G75*
G03*
X85558648Y-113216319I0J-2600001D01*
G01*
%TO.C,R8*%
X120738492Y-110147841D02*
X120808492Y-110147841D01*
X120738492Y-110147841D02*
G75*
G03*
X120738492Y-110147841I-1370000J0D01*
G01*
%TO.C,D4*%
X137268886Y-98310664D02*
X137268886Y-97115664D01*
X139993886Y-87345664D02*
X134543886Y-87345664D01*
X137268886Y-86150664D02*
X137268886Y-87345664D01*
X134543886Y-97115664D02*
X139993886Y-97115664D01*
X139993886Y-97115664D02*
X139993886Y-87345664D01*
X134543886Y-87345664D02*
X134543886Y-97115664D01*
X134543886Y-95686164D02*
X139993886Y-95686164D01*
X134543886Y-95566164D02*
X139993886Y-95566164D01*
X134543886Y-95446164D02*
X139993886Y-95446164D01*
%TO.C,R1*%
X73687291Y-114197841D02*
X73757291Y-114197841D01*
X73687291Y-114197841D02*
G75*
G03*
X73687291Y-114197841I-1370000J0D01*
G01*
D13*
%TO.C,Z4*%
X141801856Y-104593019D02*
X144324856Y-104593019D01*
X144324856Y-103733019D02*
X148128856Y-103733019D01*
X148128856Y-103733019D02*
X148128856Y-105453019D01*
X144324856Y-104593019D02*
X145184856Y-103733019D01*
X144324856Y-105453019D02*
X144324856Y-103733019D01*
X148128856Y-104593019D02*
X150651856Y-104593019D01*
X148128856Y-105453019D02*
X144324856Y-105453019D01*
D12*
%TO.C,D2*%
X82608551Y-95446164D02*
X88058551Y-95446164D01*
X88058551Y-87345664D02*
X82608551Y-87345664D01*
X82608551Y-95566164D02*
X88058551Y-95566164D01*
X82608551Y-95686164D02*
X88058551Y-95686164D01*
X88058551Y-97115664D02*
X88058551Y-87345664D01*
X85333551Y-86150664D02*
X85333551Y-87345664D01*
X82608551Y-87345664D02*
X82608551Y-97115664D01*
X82608551Y-97115664D02*
X88058551Y-97115664D01*
X85333551Y-98310664D02*
X85333551Y-97115664D01*
%TO.C,R4*%
X94047126Y-114197841D02*
X94117126Y-114197841D01*
X94047126Y-114197841D02*
G75*
G03*
X94047126Y-114197841I-1370000J0D01*
G01*
%TO.C,P3*%
X125382881Y-86911664D02*
X115102881Y-86911664D01*
X115102881Y-89871664D02*
X115102881Y-79950664D01*
X118929881Y-83587664D02*
X118976881Y-83541664D01*
X125382881Y-89871664D02*
X115102881Y-89871664D01*
X125382881Y-80510664D02*
X115102881Y-80510664D01*
X116427881Y-85679664D02*
X116474881Y-85633664D01*
X125382881Y-89871664D02*
X125382881Y-79950664D01*
X125382881Y-82010664D02*
X115102881Y-82010664D01*
X125622881Y-80450664D02*
X125622881Y-79710664D01*
X125622881Y-79710664D02*
X125122881Y-79710664D01*
X116632881Y-85885664D02*
X116667881Y-85849664D01*
X125382881Y-79950664D02*
X115102881Y-79950664D01*
X118736881Y-83371664D02*
X118771881Y-83336664D01*
X123466881Y-83075664D02*
G75*
G03*
X122754076Y-82930411I-683999J-1535001D01*
G01*
X121247881Y-83926664D02*
G75*
G03*
X121247454Y-85293706I1534993J-684001D01*
G01*
X122782881Y-82930664D02*
G75*
G03*
X122099563Y-83075908I-1J-1679992D01*
G01*
X122098881Y-86145664D02*
G75*
G03*
X123465923Y-86146091I684001J1534993D01*
G01*
X124317881Y-85294664D02*
G75*
G03*
X124318308Y-83927622I-1534993J684001D01*
G01*
X119382881Y-84610664D02*
G75*
G03*
X119382881Y-84610664I-1680000J0D01*
G01*
%TD*%
M02*
