M48
INCH,TZ
T1C0.0157
T2C0.0295
T3C0.0315
T4C0.0394
T5C0.0504
T6C0.0512
%
G90
G05
T1
X54560Y-45874
T2
X25027Y-41178
X25893Y-43850
X26393Y-43850
X26893Y-43850
X29240Y-41178
X33908Y-43850
X34408Y-43850
X34908Y-43850
X35453Y-41178
X39665Y-41178
X41999Y-43850
X42499Y-43850
X42999Y-43850
X45457Y-41178
X49669Y-41178
X49975Y-43850
X50475Y-43850
X50975Y-43850
X55463Y-41178
X59676Y-41178
T3
X28471Y-43365
X28471Y-44960
X29471Y-43365
X29471Y-44960
X30889Y-43365
X31889Y-43365
X36487Y-43365
X36487Y-44960
X37487Y-43365
X37487Y-44960
X38904Y-43365
X39904Y-43365
X44578Y-43365
X44578Y-44960
X45578Y-43365
X45578Y-44960
X46995Y-43365
X47995Y-43365
X52553Y-43365
X52553Y-44960
X53553Y-43365
X53553Y-44960
X54971Y-43365
X55971Y-43365
T4
X53067Y-47654
X53067Y-48654
X54067Y-47654
X54067Y-48654
X55067Y-47654
X55067Y-48654
X56067Y-47654
X56067Y-48654
X57067Y-47654
X57067Y-48654
X58067Y-47654
X58067Y-48654
X59067Y-47654
X59067Y-48654
X60067Y-47654
X60067Y-48654
X61067Y-47654
X61067Y-48654
X62067Y-47654
X62067Y-48654
X63067Y-47654
X63067Y-48654
X64067Y-47654
X64067Y-48654
X65067Y-47654
X65067Y-48654
X66067Y-47654
X66067Y-48654
X67067Y-47654
X67067Y-48654
T5
X25879Y-36987
X26879Y-36987
X27879Y-36987
X36114Y-36987
X37114Y-36987
X38114Y-36987
X46338Y-36987
X47338Y-36987
X48338Y-36987
X56567Y-36987
X57567Y-36987
X58567Y-36987
T6
X23299Y-33311
X23299Y-39311
X25881Y-33311
X27881Y-33311
X33596Y-33311
X33596Y-39311
X36116Y-33311
X38116Y-33311
X43767Y-33311
X43767Y-39311
X46340Y-33311
X48340Y-33311
X54043Y-33311
X54043Y-39311
X56569Y-33311
X58569Y-33311
T0
M30
