M48
; DRILL file {KiCad 7.0.1} date Tue Apr 25 19:24:50 2023
; FORMAT={-:-/ absolute / inch / decimal}
; #@! TF.CreationDate,2023-04-25T19:24:50-07:00
; #@! TF.GenerationSoftware,Kicad,Pcbnew,7.0.1
; #@! TF.FileFunction,Plated,1,2,PTH
FMAT,2
INCH
; #@! TA.AperFunction,Plated,PTH,ViaDrill
T1C0.0157
; #@! TA.AperFunction,Plated,PTH,ComponentDrill
T2C0.0295
; #@! TA.AperFunction,Plated,PTH,ComponentDrill
T3C0.0315
; #@! TA.AperFunction,Plated,PTH,ComponentDrill
T4C0.0394
; #@! TA.AperFunction,Plated,PTH,ComponentDrill
T5C0.0504
; #@! TA.AperFunction,Plated,PTH,ComponentDrill
T6C0.0512
%
G90
G05
T1
X5.456Y-4.5874
T2
X2.5027Y-4.1178
X2.5893Y-4.385
X2.6393Y-4.385
X2.6893Y-4.385
X2.924Y-4.1178
X3.3908Y-4.385
X3.4408Y-4.385
X3.4908Y-4.385
X3.5453Y-4.1178
X3.9665Y-4.1178
X4.1999Y-4.385
X4.2499Y-4.385
X4.2999Y-4.385
X4.5457Y-4.1178
X4.9669Y-4.1178
X4.9975Y-4.385
X5.0475Y-4.385
X5.0975Y-4.385
X5.5463Y-4.1178
X5.9676Y-4.1178
T3
X2.8471Y-4.3365
X2.8471Y-4.496
X2.9471Y-4.3365
X2.9471Y-4.496
X3.0889Y-4.3365
X3.1889Y-4.3365
X3.6487Y-4.3365
X3.6487Y-4.496
X3.7487Y-4.3365
X3.7487Y-4.496
X3.8904Y-4.3365
X3.9904Y-4.3365
X4.4578Y-4.3365
X4.4578Y-4.496
X4.5578Y-4.3365
X4.5578Y-4.496
X4.6995Y-4.3365
X4.7995Y-4.3365
X5.2553Y-4.3365
X5.2553Y-4.496
X5.3553Y-4.3365
X5.3553Y-4.496
X5.4971Y-4.3365
X5.5971Y-4.3365
T4
X5.4067Y-4.7654
X5.4067Y-4.8654
X5.5067Y-4.7654
X5.5067Y-4.8654
X5.6067Y-4.7654
X5.6067Y-4.8654
X5.7067Y-4.7654
X5.7067Y-4.8654
X5.8067Y-4.7654
X5.8067Y-4.8654
X5.9067Y-4.7654
X5.9067Y-4.8654
X6.0067Y-4.7654
X6.0067Y-4.8654
X6.1067Y-4.7654
X6.1067Y-4.8654
X6.2067Y-4.7654
X6.2067Y-4.8654
X6.3067Y-4.7654
X6.3067Y-4.8654
X6.4067Y-4.7654
X6.4067Y-4.8654
X6.5067Y-4.7654
X6.5067Y-4.8654
X6.6067Y-4.7654
X6.6067Y-4.8654
X6.7067Y-4.7654
X6.7067Y-4.8654
T5
X2.5879Y-3.6987
X2.6879Y-3.6987
X2.7879Y-3.6987
X3.6114Y-3.6987
X3.7114Y-3.6987
X3.8114Y-3.6987
X4.6338Y-3.6987
X4.7338Y-3.6987
X4.8338Y-3.6987
X5.6567Y-3.6987
X5.7567Y-3.6987
X5.8567Y-3.6987
T6
X2.3299Y-3.3311
X2.3299Y-3.9311
X2.5881Y-3.3311
X2.7881Y-3.3311
X3.3596Y-3.3311
X3.3596Y-3.9311
X3.6116Y-3.3311
X3.8116Y-3.3311
X4.3767Y-3.3311
X4.3767Y-3.9311
X4.634Y-3.3311
X4.834Y-3.3311
X5.4043Y-3.3311
X5.4043Y-3.9311
X5.6569Y-3.3311
X5.8569Y-3.3311
T0
M30
