%TF.GenerationSoftware,KiCad,Pcbnew,7.0.1*%
%TF.CreationDate,2023-05-06T14:50:19-07:00*%
%TF.ProjectId,MakeItRain - DaughterBoard Blank,4d616b65-4974-4526-9169-6e202d204461,rev?*%
%TF.SameCoordinates,Original*%
%TF.FileFunction,Legend,Top*%
%TF.FilePolarity,Positive*%
%FSLAX46Y46*%
G04 Gerber Fmt 4.6, Leading zero omitted, Abs format (unit mm)*
G04 Created by KiCad (PCBNEW 7.0.1) date 2023-05-06 14:50:19*
%MOMM*%
%LPD*%
G01*
G04 APERTURE LIST*
%ADD10C,0.150000*%
%ADD11C,0.254000*%
%ADD12C,0.120000*%
%ADD13C,0.200000*%
G04 APERTURE END LIST*
D10*
X100115036Y-87927537D02*
X100115036Y-87260871D01*
X100115036Y-87260871D02*
X101115036Y-87927537D01*
X101115036Y-87927537D02*
X101115036Y-87260871D01*
X101115036Y-86737061D02*
X101067417Y-86832299D01*
X101067417Y-86832299D02*
X101019797Y-86879918D01*
X101019797Y-86879918D02*
X100924559Y-86927537D01*
X100924559Y-86927537D02*
X100638845Y-86927537D01*
X100638845Y-86927537D02*
X100543607Y-86879918D01*
X100543607Y-86879918D02*
X100495988Y-86832299D01*
X100495988Y-86832299D02*
X100448369Y-86737061D01*
X100448369Y-86737061D02*
X100448369Y-86594204D01*
X100448369Y-86594204D02*
X100495988Y-86498966D01*
X100495988Y-86498966D02*
X100543607Y-86451347D01*
X100543607Y-86451347D02*
X100638845Y-86403728D01*
X100638845Y-86403728D02*
X100924559Y-86403728D01*
X100924559Y-86403728D02*
X101019797Y-86451347D01*
X101019797Y-86451347D02*
X101067417Y-86498966D01*
X101067417Y-86498966D02*
X101115036Y-86594204D01*
X101115036Y-86594204D02*
X101115036Y-86737061D01*
X100448369Y-85975156D02*
X101115036Y-85975156D01*
X100543607Y-85975156D02*
X100495988Y-85927537D01*
X100495988Y-85927537D02*
X100448369Y-85832299D01*
X100448369Y-85832299D02*
X100448369Y-85689442D01*
X100448369Y-85689442D02*
X100495988Y-85594204D01*
X100495988Y-85594204D02*
X100591226Y-85546585D01*
X100591226Y-85546585D02*
X101115036Y-85546585D01*
X101067417Y-84689442D02*
X101115036Y-84784680D01*
X101115036Y-84784680D02*
X101115036Y-84975156D01*
X101115036Y-84975156D02*
X101067417Y-85070394D01*
X101067417Y-85070394D02*
X100972178Y-85118013D01*
X100972178Y-85118013D02*
X100591226Y-85118013D01*
X100591226Y-85118013D02*
X100495988Y-85070394D01*
X100495988Y-85070394D02*
X100448369Y-84975156D01*
X100448369Y-84975156D02*
X100448369Y-84784680D01*
X100448369Y-84784680D02*
X100495988Y-84689442D01*
X100495988Y-84689442D02*
X100591226Y-84641823D01*
X100591226Y-84641823D02*
X100686464Y-84641823D01*
X100686464Y-84641823D02*
X100781702Y-85118013D01*
X100115036Y-83022775D02*
X100115036Y-83213251D01*
X100115036Y-83213251D02*
X100162655Y-83308489D01*
X100162655Y-83308489D02*
X100210274Y-83356108D01*
X100210274Y-83356108D02*
X100353131Y-83451346D01*
X100353131Y-83451346D02*
X100543607Y-83498965D01*
X100543607Y-83498965D02*
X100924559Y-83498965D01*
X100924559Y-83498965D02*
X101019797Y-83451346D01*
X101019797Y-83451346D02*
X101067417Y-83403727D01*
X101067417Y-83403727D02*
X101115036Y-83308489D01*
X101115036Y-83308489D02*
X101115036Y-83118013D01*
X101115036Y-83118013D02*
X101067417Y-83022775D01*
X101067417Y-83022775D02*
X101019797Y-82975156D01*
X101019797Y-82975156D02*
X100924559Y-82927537D01*
X100924559Y-82927537D02*
X100686464Y-82927537D01*
X100686464Y-82927537D02*
X100591226Y-82975156D01*
X100591226Y-82975156D02*
X100543607Y-83022775D01*
X100543607Y-83022775D02*
X100495988Y-83118013D01*
X100495988Y-83118013D02*
X100495988Y-83308489D01*
X100495988Y-83308489D02*
X100543607Y-83403727D01*
X100543607Y-83403727D02*
X100591226Y-83451346D01*
X100591226Y-83451346D02*
X100686464Y-83498965D01*
X74147369Y-87519814D02*
X74147369Y-86853148D01*
X74147369Y-86853148D02*
X75147369Y-87519814D01*
X75147369Y-87519814D02*
X75147369Y-86853148D01*
X75147369Y-86329338D02*
X75099750Y-86424576D01*
X75099750Y-86424576D02*
X75052130Y-86472195D01*
X75052130Y-86472195D02*
X74956892Y-86519814D01*
X74956892Y-86519814D02*
X74671178Y-86519814D01*
X74671178Y-86519814D02*
X74575940Y-86472195D01*
X74575940Y-86472195D02*
X74528321Y-86424576D01*
X74528321Y-86424576D02*
X74480702Y-86329338D01*
X74480702Y-86329338D02*
X74480702Y-86186481D01*
X74480702Y-86186481D02*
X74528321Y-86091243D01*
X74528321Y-86091243D02*
X74575940Y-86043624D01*
X74575940Y-86043624D02*
X74671178Y-85996005D01*
X74671178Y-85996005D02*
X74956892Y-85996005D01*
X74956892Y-85996005D02*
X75052130Y-86043624D01*
X75052130Y-86043624D02*
X75099750Y-86091243D01*
X75099750Y-86091243D02*
X75147369Y-86186481D01*
X75147369Y-86186481D02*
X75147369Y-86329338D01*
X74480702Y-85567433D02*
X75147369Y-85567433D01*
X74575940Y-85567433D02*
X74528321Y-85519814D01*
X74528321Y-85519814D02*
X74480702Y-85424576D01*
X74480702Y-85424576D02*
X74480702Y-85281719D01*
X74480702Y-85281719D02*
X74528321Y-85186481D01*
X74528321Y-85186481D02*
X74623559Y-85138862D01*
X74623559Y-85138862D02*
X75147369Y-85138862D01*
X75099750Y-84281719D02*
X75147369Y-84376957D01*
X75147369Y-84376957D02*
X75147369Y-84567433D01*
X75147369Y-84567433D02*
X75099750Y-84662671D01*
X75099750Y-84662671D02*
X75004511Y-84710290D01*
X75004511Y-84710290D02*
X74623559Y-84710290D01*
X74623559Y-84710290D02*
X74528321Y-84662671D01*
X74528321Y-84662671D02*
X74480702Y-84567433D01*
X74480702Y-84567433D02*
X74480702Y-84376957D01*
X74480702Y-84376957D02*
X74528321Y-84281719D01*
X74528321Y-84281719D02*
X74623559Y-84234100D01*
X74623559Y-84234100D02*
X74718797Y-84234100D01*
X74718797Y-84234100D02*
X74814035Y-84710290D01*
X74147369Y-82567433D02*
X74147369Y-83043623D01*
X74147369Y-83043623D02*
X74623559Y-83091242D01*
X74623559Y-83091242D02*
X74575940Y-83043623D01*
X74575940Y-83043623D02*
X74528321Y-82948385D01*
X74528321Y-82948385D02*
X74528321Y-82710290D01*
X74528321Y-82710290D02*
X74575940Y-82615052D01*
X74575940Y-82615052D02*
X74623559Y-82567433D01*
X74623559Y-82567433D02*
X74718797Y-82519814D01*
X74718797Y-82519814D02*
X74956892Y-82519814D01*
X74956892Y-82519814D02*
X75052130Y-82567433D01*
X75052130Y-82567433D02*
X75099750Y-82615052D01*
X75099750Y-82615052D02*
X75147369Y-82710290D01*
X75147369Y-82710290D02*
X75147369Y-82948385D01*
X75147369Y-82948385D02*
X75099750Y-83043623D01*
X75099750Y-83043623D02*
X75052130Y-83091242D01*
X66102525Y-124099801D02*
X66769191Y-124099801D01*
X66769191Y-124099801D02*
X66102525Y-125099801D01*
X66102525Y-125099801D02*
X66769191Y-125099801D01*
X67293001Y-125099801D02*
X67197763Y-125052182D01*
X67197763Y-125052182D02*
X67150144Y-125004562D01*
X67150144Y-125004562D02*
X67102525Y-124909324D01*
X67102525Y-124909324D02*
X67102525Y-124623610D01*
X67102525Y-124623610D02*
X67150144Y-124528372D01*
X67150144Y-124528372D02*
X67197763Y-124480753D01*
X67197763Y-124480753D02*
X67293001Y-124433134D01*
X67293001Y-124433134D02*
X67435858Y-124433134D01*
X67435858Y-124433134D02*
X67531096Y-124480753D01*
X67531096Y-124480753D02*
X67578715Y-124528372D01*
X67578715Y-124528372D02*
X67626334Y-124623610D01*
X67626334Y-124623610D02*
X67626334Y-124909324D01*
X67626334Y-124909324D02*
X67578715Y-125004562D01*
X67578715Y-125004562D02*
X67531096Y-125052182D01*
X67531096Y-125052182D02*
X67435858Y-125099801D01*
X67435858Y-125099801D02*
X67293001Y-125099801D01*
X68054906Y-124433134D02*
X68054906Y-125099801D01*
X68054906Y-124528372D02*
X68102525Y-124480753D01*
X68102525Y-124480753D02*
X68197763Y-124433134D01*
X68197763Y-124433134D02*
X68340620Y-124433134D01*
X68340620Y-124433134D02*
X68435858Y-124480753D01*
X68435858Y-124480753D02*
X68483477Y-124575991D01*
X68483477Y-124575991D02*
X68483477Y-125099801D01*
X69340620Y-125052182D02*
X69245382Y-125099801D01*
X69245382Y-125099801D02*
X69054906Y-125099801D01*
X69054906Y-125099801D02*
X68959668Y-125052182D01*
X68959668Y-125052182D02*
X68912049Y-124956943D01*
X68912049Y-124956943D02*
X68912049Y-124575991D01*
X68912049Y-124575991D02*
X68959668Y-124480753D01*
X68959668Y-124480753D02*
X69054906Y-124433134D01*
X69054906Y-124433134D02*
X69245382Y-124433134D01*
X69245382Y-124433134D02*
X69340620Y-124480753D01*
X69340620Y-124480753D02*
X69388239Y-124575991D01*
X69388239Y-124575991D02*
X69388239Y-124671229D01*
X69388239Y-124671229D02*
X68912049Y-124766467D01*
X70578716Y-124575991D02*
X70912049Y-124575991D01*
X71054906Y-125099801D02*
X70578716Y-125099801D01*
X70578716Y-125099801D02*
X70578716Y-124099801D01*
X70578716Y-124099801D02*
X71054906Y-124099801D01*
X71388240Y-125099801D02*
X71912049Y-124433134D01*
X71388240Y-124433134D02*
X71912049Y-125099801D01*
X72293002Y-124433134D02*
X72293002Y-125433134D01*
X72293002Y-124480753D02*
X72388240Y-124433134D01*
X72388240Y-124433134D02*
X72578716Y-124433134D01*
X72578716Y-124433134D02*
X72673954Y-124480753D01*
X72673954Y-124480753D02*
X72721573Y-124528372D01*
X72721573Y-124528372D02*
X72769192Y-124623610D01*
X72769192Y-124623610D02*
X72769192Y-124909324D01*
X72769192Y-124909324D02*
X72721573Y-125004562D01*
X72721573Y-125004562D02*
X72673954Y-125052182D01*
X72673954Y-125052182D02*
X72578716Y-125099801D01*
X72578716Y-125099801D02*
X72388240Y-125099801D01*
X72388240Y-125099801D02*
X72293002Y-125052182D01*
X73626335Y-125099801D02*
X73626335Y-124575991D01*
X73626335Y-124575991D02*
X73578716Y-124480753D01*
X73578716Y-124480753D02*
X73483478Y-124433134D01*
X73483478Y-124433134D02*
X73293002Y-124433134D01*
X73293002Y-124433134D02*
X73197764Y-124480753D01*
X73626335Y-125052182D02*
X73531097Y-125099801D01*
X73531097Y-125099801D02*
X73293002Y-125099801D01*
X73293002Y-125099801D02*
X73197764Y-125052182D01*
X73197764Y-125052182D02*
X73150145Y-124956943D01*
X73150145Y-124956943D02*
X73150145Y-124861705D01*
X73150145Y-124861705D02*
X73197764Y-124766467D01*
X73197764Y-124766467D02*
X73293002Y-124718848D01*
X73293002Y-124718848D02*
X73531097Y-124718848D01*
X73531097Y-124718848D02*
X73626335Y-124671229D01*
X74102526Y-124433134D02*
X74102526Y-125099801D01*
X74102526Y-124528372D02*
X74150145Y-124480753D01*
X74150145Y-124480753D02*
X74245383Y-124433134D01*
X74245383Y-124433134D02*
X74388240Y-124433134D01*
X74388240Y-124433134D02*
X74483478Y-124480753D01*
X74483478Y-124480753D02*
X74531097Y-124575991D01*
X74531097Y-124575991D02*
X74531097Y-125099801D01*
X74959669Y-125052182D02*
X75054907Y-125099801D01*
X75054907Y-125099801D02*
X75245383Y-125099801D01*
X75245383Y-125099801D02*
X75340621Y-125052182D01*
X75340621Y-125052182D02*
X75388240Y-124956943D01*
X75388240Y-124956943D02*
X75388240Y-124909324D01*
X75388240Y-124909324D02*
X75340621Y-124814086D01*
X75340621Y-124814086D02*
X75245383Y-124766467D01*
X75245383Y-124766467D02*
X75102526Y-124766467D01*
X75102526Y-124766467D02*
X75007288Y-124718848D01*
X75007288Y-124718848D02*
X74959669Y-124623610D01*
X74959669Y-124623610D02*
X74959669Y-124575991D01*
X74959669Y-124575991D02*
X75007288Y-124480753D01*
X75007288Y-124480753D02*
X75102526Y-124433134D01*
X75102526Y-124433134D02*
X75245383Y-124433134D01*
X75245383Y-124433134D02*
X75340621Y-124480753D01*
X75816812Y-125099801D02*
X75816812Y-124433134D01*
X75816812Y-124099801D02*
X75769193Y-124147420D01*
X75769193Y-124147420D02*
X75816812Y-124195039D01*
X75816812Y-124195039D02*
X75864431Y-124147420D01*
X75864431Y-124147420D02*
X75816812Y-124099801D01*
X75816812Y-124099801D02*
X75816812Y-124195039D01*
X76435859Y-125099801D02*
X76340621Y-125052182D01*
X76340621Y-125052182D02*
X76293002Y-125004562D01*
X76293002Y-125004562D02*
X76245383Y-124909324D01*
X76245383Y-124909324D02*
X76245383Y-124623610D01*
X76245383Y-124623610D02*
X76293002Y-124528372D01*
X76293002Y-124528372D02*
X76340621Y-124480753D01*
X76340621Y-124480753D02*
X76435859Y-124433134D01*
X76435859Y-124433134D02*
X76578716Y-124433134D01*
X76578716Y-124433134D02*
X76673954Y-124480753D01*
X76673954Y-124480753D02*
X76721573Y-124528372D01*
X76721573Y-124528372D02*
X76769192Y-124623610D01*
X76769192Y-124623610D02*
X76769192Y-124909324D01*
X76769192Y-124909324D02*
X76721573Y-125004562D01*
X76721573Y-125004562D02*
X76673954Y-125052182D01*
X76673954Y-125052182D02*
X76578716Y-125099801D01*
X76578716Y-125099801D02*
X76435859Y-125099801D01*
X77197764Y-124433134D02*
X77197764Y-125099801D01*
X77197764Y-124528372D02*
X77245383Y-124480753D01*
X77245383Y-124480753D02*
X77340621Y-124433134D01*
X77340621Y-124433134D02*
X77483478Y-124433134D01*
X77483478Y-124433134D02*
X77578716Y-124480753D01*
X77578716Y-124480753D02*
X77626335Y-124575991D01*
X77626335Y-124575991D02*
X77626335Y-125099801D01*
X78721574Y-124099801D02*
X79054907Y-125099801D01*
X79054907Y-125099801D02*
X79388240Y-124099801D01*
X80245383Y-125099801D02*
X79673955Y-125099801D01*
X79959669Y-125099801D02*
X79959669Y-124099801D01*
X79959669Y-124099801D02*
X79864431Y-124242658D01*
X79864431Y-124242658D02*
X79769193Y-124337896D01*
X79769193Y-124337896D02*
X79673955Y-124385515D01*
X80673955Y-125004562D02*
X80721574Y-125052182D01*
X80721574Y-125052182D02*
X80673955Y-125099801D01*
X80673955Y-125099801D02*
X80626336Y-125052182D01*
X80626336Y-125052182D02*
X80673955Y-125004562D01*
X80673955Y-125004562D02*
X80673955Y-125099801D01*
X81673954Y-125099801D02*
X81102526Y-125099801D01*
X81388240Y-125099801D02*
X81388240Y-124099801D01*
X81388240Y-124099801D02*
X81293002Y-124242658D01*
X81293002Y-124242658D02*
X81197764Y-124337896D01*
X81197764Y-124337896D02*
X81102526Y-124385515D01*
X126077771Y-87532966D02*
X126077771Y-86866300D01*
X126077771Y-86866300D02*
X127077771Y-87532966D01*
X127077771Y-87532966D02*
X127077771Y-86866300D01*
X127077771Y-86342490D02*
X127030152Y-86437728D01*
X127030152Y-86437728D02*
X126982532Y-86485347D01*
X126982532Y-86485347D02*
X126887294Y-86532966D01*
X126887294Y-86532966D02*
X126601580Y-86532966D01*
X126601580Y-86532966D02*
X126506342Y-86485347D01*
X126506342Y-86485347D02*
X126458723Y-86437728D01*
X126458723Y-86437728D02*
X126411104Y-86342490D01*
X126411104Y-86342490D02*
X126411104Y-86199633D01*
X126411104Y-86199633D02*
X126458723Y-86104395D01*
X126458723Y-86104395D02*
X126506342Y-86056776D01*
X126506342Y-86056776D02*
X126601580Y-86009157D01*
X126601580Y-86009157D02*
X126887294Y-86009157D01*
X126887294Y-86009157D02*
X126982532Y-86056776D01*
X126982532Y-86056776D02*
X127030152Y-86104395D01*
X127030152Y-86104395D02*
X127077771Y-86199633D01*
X127077771Y-86199633D02*
X127077771Y-86342490D01*
X126411104Y-85580585D02*
X127077771Y-85580585D01*
X126506342Y-85580585D02*
X126458723Y-85532966D01*
X126458723Y-85532966D02*
X126411104Y-85437728D01*
X126411104Y-85437728D02*
X126411104Y-85294871D01*
X126411104Y-85294871D02*
X126458723Y-85199633D01*
X126458723Y-85199633D02*
X126553961Y-85152014D01*
X126553961Y-85152014D02*
X127077771Y-85152014D01*
X127030152Y-84294871D02*
X127077771Y-84390109D01*
X127077771Y-84390109D02*
X127077771Y-84580585D01*
X127077771Y-84580585D02*
X127030152Y-84675823D01*
X127030152Y-84675823D02*
X126934913Y-84723442D01*
X126934913Y-84723442D02*
X126553961Y-84723442D01*
X126553961Y-84723442D02*
X126458723Y-84675823D01*
X126458723Y-84675823D02*
X126411104Y-84580585D01*
X126411104Y-84580585D02*
X126411104Y-84390109D01*
X126411104Y-84390109D02*
X126458723Y-84294871D01*
X126458723Y-84294871D02*
X126553961Y-84247252D01*
X126553961Y-84247252D02*
X126649199Y-84247252D01*
X126649199Y-84247252D02*
X126744437Y-84723442D01*
X126077771Y-83152013D02*
X126077771Y-82485347D01*
X126077771Y-82485347D02*
X127077771Y-82913918D01*
X148975988Y-79184087D02*
X148309322Y-79184087D01*
X148309322Y-79184087D02*
X148975988Y-78184087D01*
X148975988Y-78184087D02*
X148309322Y-78184087D01*
X147785512Y-78184087D02*
X147880750Y-78231707D01*
X147880750Y-78231707D02*
X147928369Y-78279326D01*
X147928369Y-78279326D02*
X147975988Y-78374564D01*
X147975988Y-78374564D02*
X147975988Y-78660278D01*
X147975988Y-78660278D02*
X147928369Y-78755516D01*
X147928369Y-78755516D02*
X147880750Y-78803135D01*
X147880750Y-78803135D02*
X147785512Y-78850754D01*
X147785512Y-78850754D02*
X147642655Y-78850754D01*
X147642655Y-78850754D02*
X147547417Y-78803135D01*
X147547417Y-78803135D02*
X147499798Y-78755516D01*
X147499798Y-78755516D02*
X147452179Y-78660278D01*
X147452179Y-78660278D02*
X147452179Y-78374564D01*
X147452179Y-78374564D02*
X147499798Y-78279326D01*
X147499798Y-78279326D02*
X147547417Y-78231707D01*
X147547417Y-78231707D02*
X147642655Y-78184087D01*
X147642655Y-78184087D02*
X147785512Y-78184087D01*
X147023607Y-78850754D02*
X147023607Y-78184087D01*
X147023607Y-78755516D02*
X146975988Y-78803135D01*
X146975988Y-78803135D02*
X146880750Y-78850754D01*
X146880750Y-78850754D02*
X146737893Y-78850754D01*
X146737893Y-78850754D02*
X146642655Y-78803135D01*
X146642655Y-78803135D02*
X146595036Y-78707897D01*
X146595036Y-78707897D02*
X146595036Y-78184087D01*
X145737893Y-78231707D02*
X145833131Y-78184087D01*
X145833131Y-78184087D02*
X146023607Y-78184087D01*
X146023607Y-78184087D02*
X146118845Y-78231707D01*
X146118845Y-78231707D02*
X146166464Y-78326945D01*
X146166464Y-78326945D02*
X146166464Y-78707897D01*
X146166464Y-78707897D02*
X146118845Y-78803135D01*
X146118845Y-78803135D02*
X146023607Y-78850754D01*
X146023607Y-78850754D02*
X145833131Y-78850754D01*
X145833131Y-78850754D02*
X145737893Y-78803135D01*
X145737893Y-78803135D02*
X145690274Y-78707897D01*
X145690274Y-78707897D02*
X145690274Y-78612659D01*
X145690274Y-78612659D02*
X146166464Y-78517421D01*
X144356940Y-78755516D02*
X144452178Y-78803135D01*
X144452178Y-78803135D02*
X144499797Y-78850754D01*
X144499797Y-78850754D02*
X144547416Y-78945992D01*
X144547416Y-78945992D02*
X144547416Y-78993611D01*
X144547416Y-78993611D02*
X144499797Y-79088849D01*
X144499797Y-79088849D02*
X144452178Y-79136468D01*
X144452178Y-79136468D02*
X144356940Y-79184087D01*
X144356940Y-79184087D02*
X144166464Y-79184087D01*
X144166464Y-79184087D02*
X144071226Y-79136468D01*
X144071226Y-79136468D02*
X144023607Y-79088849D01*
X144023607Y-79088849D02*
X143975988Y-78993611D01*
X143975988Y-78993611D02*
X143975988Y-78945992D01*
X143975988Y-78945992D02*
X144023607Y-78850754D01*
X144023607Y-78850754D02*
X144071226Y-78803135D01*
X144071226Y-78803135D02*
X144166464Y-78755516D01*
X144166464Y-78755516D02*
X144356940Y-78755516D01*
X144356940Y-78755516D02*
X144452178Y-78707897D01*
X144452178Y-78707897D02*
X144499797Y-78660278D01*
X144499797Y-78660278D02*
X144547416Y-78565040D01*
X144547416Y-78565040D02*
X144547416Y-78374564D01*
X144547416Y-78374564D02*
X144499797Y-78279326D01*
X144499797Y-78279326D02*
X144452178Y-78231707D01*
X144452178Y-78231707D02*
X144356940Y-78184087D01*
X144356940Y-78184087D02*
X144166464Y-78184087D01*
X144166464Y-78184087D02*
X144071226Y-78231707D01*
X144071226Y-78231707D02*
X144023607Y-78279326D01*
X144023607Y-78279326D02*
X143975988Y-78374564D01*
X143975988Y-78374564D02*
X143975988Y-78565040D01*
X143975988Y-78565040D02*
X144023607Y-78660278D01*
X144023607Y-78660278D02*
X144071226Y-78707897D01*
X144071226Y-78707897D02*
X144166464Y-78755516D01*
%TO.C,J1*%
X172141619Y-122645633D02*
X172855904Y-122645633D01*
X172855904Y-122645633D02*
X172998761Y-122693252D01*
X172998761Y-122693252D02*
X173094000Y-122788490D01*
X173094000Y-122788490D02*
X173141619Y-122931347D01*
X173141619Y-122931347D02*
X173141619Y-123026585D01*
X173141619Y-121645633D02*
X173141619Y-122217061D01*
X173141619Y-121931347D02*
X172141619Y-121931347D01*
X172141619Y-121931347D02*
X172284476Y-122026585D01*
X172284476Y-122026585D02*
X172379714Y-122121823D01*
X172379714Y-122121823D02*
X172427333Y-122217061D01*
D11*
%TO.C,Z3*%
X111982756Y-103991343D02*
X112829423Y-103991343D01*
X112829423Y-103991343D02*
X111982756Y-105261343D01*
X111982756Y-105261343D02*
X112829423Y-105261343D01*
X113192280Y-103991343D02*
X113978471Y-103991343D01*
X113978471Y-103991343D02*
X113555137Y-104475152D01*
X113555137Y-104475152D02*
X113736566Y-104475152D01*
X113736566Y-104475152D02*
X113857518Y-104535628D01*
X113857518Y-104535628D02*
X113917994Y-104596105D01*
X113917994Y-104596105D02*
X113978471Y-104717057D01*
X113978471Y-104717057D02*
X113978471Y-105019438D01*
X113978471Y-105019438D02*
X113917994Y-105140390D01*
X113917994Y-105140390D02*
X113857518Y-105200867D01*
X113857518Y-105200867D02*
X113736566Y-105261343D01*
X113736566Y-105261343D02*
X113373709Y-105261343D01*
X113373709Y-105261343D02*
X113252756Y-105200867D01*
X113252756Y-105200867D02*
X113192280Y-105140390D01*
D10*
%TO.C,R12*%
X134112716Y-108240460D02*
X133779383Y-107764269D01*
X133541288Y-108240460D02*
X133541288Y-107240460D01*
X133541288Y-107240460D02*
X133922240Y-107240460D01*
X133922240Y-107240460D02*
X134017478Y-107288079D01*
X134017478Y-107288079D02*
X134065097Y-107335698D01*
X134065097Y-107335698D02*
X134112716Y-107430936D01*
X134112716Y-107430936D02*
X134112716Y-107573793D01*
X134112716Y-107573793D02*
X134065097Y-107669031D01*
X134065097Y-107669031D02*
X134017478Y-107716650D01*
X134017478Y-107716650D02*
X133922240Y-107764269D01*
X133922240Y-107764269D02*
X133541288Y-107764269D01*
X135065097Y-108240460D02*
X134493669Y-108240460D01*
X134779383Y-108240460D02*
X134779383Y-107240460D01*
X134779383Y-107240460D02*
X134684145Y-107383317D01*
X134684145Y-107383317D02*
X134588907Y-107478555D01*
X134588907Y-107478555D02*
X134493669Y-107526174D01*
X135446050Y-107335698D02*
X135493669Y-107288079D01*
X135493669Y-107288079D02*
X135588907Y-107240460D01*
X135588907Y-107240460D02*
X135827002Y-107240460D01*
X135827002Y-107240460D02*
X135922240Y-107288079D01*
X135922240Y-107288079D02*
X135969859Y-107335698D01*
X135969859Y-107335698D02*
X136017478Y-107430936D01*
X136017478Y-107430936D02*
X136017478Y-107526174D01*
X136017478Y-107526174D02*
X135969859Y-107669031D01*
X135969859Y-107669031D02*
X135398431Y-108240460D01*
X135398431Y-108240460D02*
X136017478Y-108240460D01*
%TO.C,R10*%
X133985910Y-116910455D02*
X133652577Y-116434264D01*
X133414482Y-116910455D02*
X133414482Y-115910455D01*
X133414482Y-115910455D02*
X133795434Y-115910455D01*
X133795434Y-115910455D02*
X133890672Y-115958074D01*
X133890672Y-115958074D02*
X133938291Y-116005693D01*
X133938291Y-116005693D02*
X133985910Y-116100931D01*
X133985910Y-116100931D02*
X133985910Y-116243788D01*
X133985910Y-116243788D02*
X133938291Y-116339026D01*
X133938291Y-116339026D02*
X133890672Y-116386645D01*
X133890672Y-116386645D02*
X133795434Y-116434264D01*
X133795434Y-116434264D02*
X133414482Y-116434264D01*
X134938291Y-116910455D02*
X134366863Y-116910455D01*
X134652577Y-116910455D02*
X134652577Y-115910455D01*
X134652577Y-115910455D02*
X134557339Y-116053312D01*
X134557339Y-116053312D02*
X134462101Y-116148550D01*
X134462101Y-116148550D02*
X134366863Y-116196169D01*
X135557339Y-115910455D02*
X135652577Y-115910455D01*
X135652577Y-115910455D02*
X135747815Y-115958074D01*
X135747815Y-115958074D02*
X135795434Y-116005693D01*
X135795434Y-116005693D02*
X135843053Y-116100931D01*
X135843053Y-116100931D02*
X135890672Y-116291407D01*
X135890672Y-116291407D02*
X135890672Y-116529502D01*
X135890672Y-116529502D02*
X135843053Y-116719978D01*
X135843053Y-116719978D02*
X135795434Y-116815216D01*
X135795434Y-116815216D02*
X135747815Y-116862836D01*
X135747815Y-116862836D02*
X135652577Y-116910455D01*
X135652577Y-116910455D02*
X135557339Y-116910455D01*
X135557339Y-116910455D02*
X135462101Y-116862836D01*
X135462101Y-116862836D02*
X135414482Y-116815216D01*
X135414482Y-116815216D02*
X135366863Y-116719978D01*
X135366863Y-116719978D02*
X135319244Y-116529502D01*
X135319244Y-116529502D02*
X135319244Y-116291407D01*
X135319244Y-116291407D02*
X135366863Y-116100931D01*
X135366863Y-116100931D02*
X135414482Y-116005693D01*
X135414482Y-116005693D02*
X135462101Y-115958074D01*
X135462101Y-115958074D02*
X135557339Y-115910455D01*
D11*
%TO.C,Q2*%
X72522533Y-99111853D02*
X72401581Y-99051377D01*
X72401581Y-99051377D02*
X72280628Y-98930425D01*
X72280628Y-98930425D02*
X72099200Y-98748996D01*
X72099200Y-98748996D02*
X71978247Y-98688520D01*
X71978247Y-98688520D02*
X71857295Y-98688520D01*
X71917771Y-98990901D02*
X71796819Y-98930425D01*
X71796819Y-98930425D02*
X71675866Y-98809472D01*
X71675866Y-98809472D02*
X71615390Y-98567567D01*
X71615390Y-98567567D02*
X71615390Y-98144234D01*
X71615390Y-98144234D02*
X71675866Y-97902329D01*
X71675866Y-97902329D02*
X71796819Y-97781377D01*
X71796819Y-97781377D02*
X71917771Y-97720901D01*
X71917771Y-97720901D02*
X72159676Y-97720901D01*
X72159676Y-97720901D02*
X72280628Y-97781377D01*
X72280628Y-97781377D02*
X72401581Y-97902329D01*
X72401581Y-97902329D02*
X72462057Y-98144234D01*
X72462057Y-98144234D02*
X72462057Y-98567567D01*
X72462057Y-98567567D02*
X72401581Y-98809472D01*
X72401581Y-98809472D02*
X72280628Y-98930425D01*
X72280628Y-98930425D02*
X72159676Y-98990901D01*
X72159676Y-98990901D02*
X71917771Y-98990901D01*
X72945866Y-97841853D02*
X73006342Y-97781377D01*
X73006342Y-97781377D02*
X73127295Y-97720901D01*
X73127295Y-97720901D02*
X73429676Y-97720901D01*
X73429676Y-97720901D02*
X73550628Y-97781377D01*
X73550628Y-97781377D02*
X73611104Y-97841853D01*
X73611104Y-97841853D02*
X73671581Y-97962805D01*
X73671581Y-97962805D02*
X73671581Y-98083758D01*
X73671581Y-98083758D02*
X73611104Y-98265186D01*
X73611104Y-98265186D02*
X72885390Y-98990901D01*
X72885390Y-98990901D02*
X73671581Y-98990901D01*
D10*
%TO.C,P1*%
X67539860Y-91333283D02*
X67539860Y-90333283D01*
X67539860Y-90333283D02*
X67920812Y-90333283D01*
X67920812Y-90333283D02*
X68016050Y-90380902D01*
X68016050Y-90380902D02*
X68063669Y-90428521D01*
X68063669Y-90428521D02*
X68111288Y-90523759D01*
X68111288Y-90523759D02*
X68111288Y-90666616D01*
X68111288Y-90666616D02*
X68063669Y-90761854D01*
X68063669Y-90761854D02*
X68016050Y-90809473D01*
X68016050Y-90809473D02*
X67920812Y-90857092D01*
X67920812Y-90857092D02*
X67539860Y-90857092D01*
X69063669Y-91333283D02*
X68492241Y-91333283D01*
X68777955Y-91333283D02*
X68777955Y-90333283D01*
X68777955Y-90333283D02*
X68682717Y-90476140D01*
X68682717Y-90476140D02*
X68587479Y-90571378D01*
X68587479Y-90571378D02*
X68492241Y-90618997D01*
%TO.C,D1*%
X55916082Y-92968758D02*
X54916082Y-92968758D01*
X54916082Y-92968758D02*
X54916082Y-92730663D01*
X54916082Y-92730663D02*
X54963701Y-92587806D01*
X54963701Y-92587806D02*
X55058939Y-92492568D01*
X55058939Y-92492568D02*
X55154177Y-92444949D01*
X55154177Y-92444949D02*
X55344653Y-92397330D01*
X55344653Y-92397330D02*
X55487510Y-92397330D01*
X55487510Y-92397330D02*
X55677986Y-92444949D01*
X55677986Y-92444949D02*
X55773224Y-92492568D01*
X55773224Y-92492568D02*
X55868463Y-92587806D01*
X55868463Y-92587806D02*
X55916082Y-92730663D01*
X55916082Y-92730663D02*
X55916082Y-92968758D01*
X55916082Y-91444949D02*
X55916082Y-92016377D01*
X55916082Y-91730663D02*
X54916082Y-91730663D01*
X54916082Y-91730663D02*
X55058939Y-91825901D01*
X55058939Y-91825901D02*
X55154177Y-91921139D01*
X55154177Y-91921139D02*
X55201796Y-92016377D01*
X57341082Y-100112568D02*
X56341082Y-100112568D01*
X57341082Y-99541140D02*
X56769653Y-99969711D01*
X56341082Y-99541140D02*
X56912510Y-100112568D01*
%TO.C,R5*%
X99920459Y-108240460D02*
X99587126Y-107764269D01*
X99349031Y-108240460D02*
X99349031Y-107240460D01*
X99349031Y-107240460D02*
X99729983Y-107240460D01*
X99729983Y-107240460D02*
X99825221Y-107288079D01*
X99825221Y-107288079D02*
X99872840Y-107335698D01*
X99872840Y-107335698D02*
X99920459Y-107430936D01*
X99920459Y-107430936D02*
X99920459Y-107573793D01*
X99920459Y-107573793D02*
X99872840Y-107669031D01*
X99872840Y-107669031D02*
X99825221Y-107716650D01*
X99825221Y-107716650D02*
X99729983Y-107764269D01*
X99729983Y-107764269D02*
X99349031Y-107764269D01*
X100825221Y-107240460D02*
X100349031Y-107240460D01*
X100349031Y-107240460D02*
X100301412Y-107716650D01*
X100301412Y-107716650D02*
X100349031Y-107669031D01*
X100349031Y-107669031D02*
X100444269Y-107621412D01*
X100444269Y-107621412D02*
X100682364Y-107621412D01*
X100682364Y-107621412D02*
X100777602Y-107669031D01*
X100777602Y-107669031D02*
X100825221Y-107716650D01*
X100825221Y-107716650D02*
X100872840Y-107811888D01*
X100872840Y-107811888D02*
X100872840Y-108049983D01*
X100872840Y-108049983D02*
X100825221Y-108145221D01*
X100825221Y-108145221D02*
X100777602Y-108192841D01*
X100777602Y-108192841D02*
X100682364Y-108240460D01*
X100682364Y-108240460D02*
X100444269Y-108240460D01*
X100444269Y-108240460D02*
X100349031Y-108192841D01*
X100349031Y-108192841D02*
X100301412Y-108145221D01*
D11*
%TO.C,Z1*%
X60196784Y-103933341D02*
X61043451Y-103933341D01*
X61043451Y-103933341D02*
X60196784Y-105203341D01*
X60196784Y-105203341D02*
X61043451Y-105203341D01*
X62192499Y-105203341D02*
X61466784Y-105203341D01*
X61829641Y-105203341D02*
X61829641Y-103933341D01*
X61829641Y-103933341D02*
X61708689Y-104114769D01*
X61708689Y-104114769D02*
X61587737Y-104235722D01*
X61587737Y-104235722D02*
X61466784Y-104296198D01*
D10*
%TO.C,R6*%
X93780459Y-108240460D02*
X93447126Y-107764269D01*
X93209031Y-108240460D02*
X93209031Y-107240460D01*
X93209031Y-107240460D02*
X93589983Y-107240460D01*
X93589983Y-107240460D02*
X93685221Y-107288079D01*
X93685221Y-107288079D02*
X93732840Y-107335698D01*
X93732840Y-107335698D02*
X93780459Y-107430936D01*
X93780459Y-107430936D02*
X93780459Y-107573793D01*
X93780459Y-107573793D02*
X93732840Y-107669031D01*
X93732840Y-107669031D02*
X93685221Y-107716650D01*
X93685221Y-107716650D02*
X93589983Y-107764269D01*
X93589983Y-107764269D02*
X93209031Y-107764269D01*
X94637602Y-107240460D02*
X94447126Y-107240460D01*
X94447126Y-107240460D02*
X94351888Y-107288079D01*
X94351888Y-107288079D02*
X94304269Y-107335698D01*
X94304269Y-107335698D02*
X94209031Y-107478555D01*
X94209031Y-107478555D02*
X94161412Y-107669031D01*
X94161412Y-107669031D02*
X94161412Y-108049983D01*
X94161412Y-108049983D02*
X94209031Y-108145221D01*
X94209031Y-108145221D02*
X94256650Y-108192841D01*
X94256650Y-108192841D02*
X94351888Y-108240460D01*
X94351888Y-108240460D02*
X94542364Y-108240460D01*
X94542364Y-108240460D02*
X94637602Y-108192841D01*
X94637602Y-108192841D02*
X94685221Y-108145221D01*
X94685221Y-108145221D02*
X94732840Y-108049983D01*
X94732840Y-108049983D02*
X94732840Y-107811888D01*
X94732840Y-107811888D02*
X94685221Y-107716650D01*
X94685221Y-107716650D02*
X94637602Y-107669031D01*
X94637602Y-107669031D02*
X94542364Y-107621412D01*
X94542364Y-107621412D02*
X94351888Y-107621412D01*
X94351888Y-107621412D02*
X94256650Y-107669031D01*
X94256650Y-107669031D02*
X94209031Y-107716650D01*
X94209031Y-107716650D02*
X94161412Y-107811888D01*
%TO.C,D3*%
X107905670Y-92968758D02*
X106905670Y-92968758D01*
X106905670Y-92968758D02*
X106905670Y-92730663D01*
X106905670Y-92730663D02*
X106953289Y-92587806D01*
X106953289Y-92587806D02*
X107048527Y-92492568D01*
X107048527Y-92492568D02*
X107143765Y-92444949D01*
X107143765Y-92444949D02*
X107334241Y-92397330D01*
X107334241Y-92397330D02*
X107477098Y-92397330D01*
X107477098Y-92397330D02*
X107667574Y-92444949D01*
X107667574Y-92444949D02*
X107762812Y-92492568D01*
X107762812Y-92492568D02*
X107858051Y-92587806D01*
X107858051Y-92587806D02*
X107905670Y-92730663D01*
X107905670Y-92730663D02*
X107905670Y-92968758D01*
X106905670Y-92063996D02*
X106905670Y-91444949D01*
X106905670Y-91444949D02*
X107286622Y-91778282D01*
X107286622Y-91778282D02*
X107286622Y-91635425D01*
X107286622Y-91635425D02*
X107334241Y-91540187D01*
X107334241Y-91540187D02*
X107381860Y-91492568D01*
X107381860Y-91492568D02*
X107477098Y-91444949D01*
X107477098Y-91444949D02*
X107715193Y-91444949D01*
X107715193Y-91444949D02*
X107810431Y-91492568D01*
X107810431Y-91492568D02*
X107858051Y-91540187D01*
X107858051Y-91540187D02*
X107905670Y-91635425D01*
X107905670Y-91635425D02*
X107905670Y-91921139D01*
X107905670Y-91921139D02*
X107858051Y-92016377D01*
X107858051Y-92016377D02*
X107810431Y-92063996D01*
X109330670Y-100112568D02*
X108330670Y-100112568D01*
X109330670Y-99541140D02*
X108759241Y-99969711D01*
X108330670Y-99541140D02*
X108902098Y-100112568D01*
D11*
%TO.C,Z2*%
X86819726Y-103937982D02*
X87666393Y-103937982D01*
X87666393Y-103937982D02*
X86819726Y-105207982D01*
X86819726Y-105207982D02*
X87666393Y-105207982D01*
X88089726Y-104058934D02*
X88150202Y-103998458D01*
X88150202Y-103998458D02*
X88271155Y-103937982D01*
X88271155Y-103937982D02*
X88573536Y-103937982D01*
X88573536Y-103937982D02*
X88694488Y-103998458D01*
X88694488Y-103998458D02*
X88754964Y-104058934D01*
X88754964Y-104058934D02*
X88815441Y-104179886D01*
X88815441Y-104179886D02*
X88815441Y-104300839D01*
X88815441Y-104300839D02*
X88754964Y-104482267D01*
X88754964Y-104482267D02*
X88029250Y-105207982D01*
X88029250Y-105207982D02*
X88815441Y-105207982D01*
D10*
%TO.C,R11*%
X140252716Y-108240460D02*
X139919383Y-107764269D01*
X139681288Y-108240460D02*
X139681288Y-107240460D01*
X139681288Y-107240460D02*
X140062240Y-107240460D01*
X140062240Y-107240460D02*
X140157478Y-107288079D01*
X140157478Y-107288079D02*
X140205097Y-107335698D01*
X140205097Y-107335698D02*
X140252716Y-107430936D01*
X140252716Y-107430936D02*
X140252716Y-107573793D01*
X140252716Y-107573793D02*
X140205097Y-107669031D01*
X140205097Y-107669031D02*
X140157478Y-107716650D01*
X140157478Y-107716650D02*
X140062240Y-107764269D01*
X140062240Y-107764269D02*
X139681288Y-107764269D01*
X141205097Y-108240460D02*
X140633669Y-108240460D01*
X140919383Y-108240460D02*
X140919383Y-107240460D01*
X140919383Y-107240460D02*
X140824145Y-107383317D01*
X140824145Y-107383317D02*
X140728907Y-107478555D01*
X140728907Y-107478555D02*
X140633669Y-107526174D01*
X142157478Y-108240460D02*
X141586050Y-108240460D01*
X141871764Y-108240460D02*
X141871764Y-107240460D01*
X141871764Y-107240460D02*
X141776526Y-107383317D01*
X141776526Y-107383317D02*
X141681288Y-107478555D01*
X141681288Y-107478555D02*
X141586050Y-107526174D01*
D11*
%TO.C,Q8*%
X150433755Y-99135966D02*
X150312803Y-99075490D01*
X150312803Y-99075490D02*
X150191850Y-98954538D01*
X150191850Y-98954538D02*
X150010422Y-98773109D01*
X150010422Y-98773109D02*
X149889469Y-98712633D01*
X149889469Y-98712633D02*
X149768517Y-98712633D01*
X149828993Y-99015014D02*
X149708041Y-98954538D01*
X149708041Y-98954538D02*
X149587088Y-98833585D01*
X149587088Y-98833585D02*
X149526612Y-98591680D01*
X149526612Y-98591680D02*
X149526612Y-98168347D01*
X149526612Y-98168347D02*
X149587088Y-97926442D01*
X149587088Y-97926442D02*
X149708041Y-97805490D01*
X149708041Y-97805490D02*
X149828993Y-97745014D01*
X149828993Y-97745014D02*
X150070898Y-97745014D01*
X150070898Y-97745014D02*
X150191850Y-97805490D01*
X150191850Y-97805490D02*
X150312803Y-97926442D01*
X150312803Y-97926442D02*
X150373279Y-98168347D01*
X150373279Y-98168347D02*
X150373279Y-98591680D01*
X150373279Y-98591680D02*
X150312803Y-98833585D01*
X150312803Y-98833585D02*
X150191850Y-98954538D01*
X150191850Y-98954538D02*
X150070898Y-99015014D01*
X150070898Y-99015014D02*
X149828993Y-99015014D01*
X151098993Y-98289299D02*
X150978041Y-98228823D01*
X150978041Y-98228823D02*
X150917564Y-98168347D01*
X150917564Y-98168347D02*
X150857088Y-98047395D01*
X150857088Y-98047395D02*
X150857088Y-97986918D01*
X150857088Y-97986918D02*
X150917564Y-97865966D01*
X150917564Y-97865966D02*
X150978041Y-97805490D01*
X150978041Y-97805490D02*
X151098993Y-97745014D01*
X151098993Y-97745014D02*
X151340898Y-97745014D01*
X151340898Y-97745014D02*
X151461850Y-97805490D01*
X151461850Y-97805490D02*
X151522326Y-97865966D01*
X151522326Y-97865966D02*
X151582803Y-97986918D01*
X151582803Y-97986918D02*
X151582803Y-98047395D01*
X151582803Y-98047395D02*
X151522326Y-98168347D01*
X151522326Y-98168347D02*
X151461850Y-98228823D01*
X151461850Y-98228823D02*
X151340898Y-98289299D01*
X151340898Y-98289299D02*
X151098993Y-98289299D01*
X151098993Y-98289299D02*
X150978041Y-98349776D01*
X150978041Y-98349776D02*
X150917564Y-98410252D01*
X150917564Y-98410252D02*
X150857088Y-98531204D01*
X150857088Y-98531204D02*
X150857088Y-98773109D01*
X150857088Y-98773109D02*
X150917564Y-98894061D01*
X150917564Y-98894061D02*
X150978041Y-98954538D01*
X150978041Y-98954538D02*
X151098993Y-99015014D01*
X151098993Y-99015014D02*
X151340898Y-99015014D01*
X151340898Y-99015014D02*
X151461850Y-98954538D01*
X151461850Y-98954538D02*
X151522326Y-98894061D01*
X151522326Y-98894061D02*
X151582803Y-98773109D01*
X151582803Y-98773109D02*
X151582803Y-98531204D01*
X151582803Y-98531204D02*
X151522326Y-98410252D01*
X151522326Y-98410252D02*
X151461850Y-98349776D01*
X151461850Y-98349776D02*
X151340898Y-98289299D01*
D10*
%TO.C,R7*%
X114268862Y-116891457D02*
X113935529Y-116415266D01*
X113697434Y-116891457D02*
X113697434Y-115891457D01*
X113697434Y-115891457D02*
X114078386Y-115891457D01*
X114078386Y-115891457D02*
X114173624Y-115939076D01*
X114173624Y-115939076D02*
X114221243Y-115986695D01*
X114221243Y-115986695D02*
X114268862Y-116081933D01*
X114268862Y-116081933D02*
X114268862Y-116224790D01*
X114268862Y-116224790D02*
X114221243Y-116320028D01*
X114221243Y-116320028D02*
X114173624Y-116367647D01*
X114173624Y-116367647D02*
X114078386Y-116415266D01*
X114078386Y-116415266D02*
X113697434Y-116415266D01*
X114602196Y-115891457D02*
X115268862Y-115891457D01*
X115268862Y-115891457D02*
X114840291Y-116891457D01*
%TO.C,Q7*%
X128110335Y-108375698D02*
X128015097Y-108328079D01*
X128015097Y-108328079D02*
X127919859Y-108232841D01*
X127919859Y-108232841D02*
X127777002Y-108089983D01*
X127777002Y-108089983D02*
X127681764Y-108042364D01*
X127681764Y-108042364D02*
X127586526Y-108042364D01*
X127634145Y-108280460D02*
X127538907Y-108232841D01*
X127538907Y-108232841D02*
X127443669Y-108137602D01*
X127443669Y-108137602D02*
X127396050Y-107947126D01*
X127396050Y-107947126D02*
X127396050Y-107613793D01*
X127396050Y-107613793D02*
X127443669Y-107423317D01*
X127443669Y-107423317D02*
X127538907Y-107328079D01*
X127538907Y-107328079D02*
X127634145Y-107280460D01*
X127634145Y-107280460D02*
X127824621Y-107280460D01*
X127824621Y-107280460D02*
X127919859Y-107328079D01*
X127919859Y-107328079D02*
X128015097Y-107423317D01*
X128015097Y-107423317D02*
X128062716Y-107613793D01*
X128062716Y-107613793D02*
X128062716Y-107947126D01*
X128062716Y-107947126D02*
X128015097Y-108137602D01*
X128015097Y-108137602D02*
X127919859Y-108232841D01*
X127919859Y-108232841D02*
X127824621Y-108280460D01*
X127824621Y-108280460D02*
X127634145Y-108280460D01*
X128396050Y-107280460D02*
X129062716Y-107280460D01*
X129062716Y-107280460D02*
X128634145Y-108280460D01*
D11*
%TO.C,Q4*%
X98645288Y-99164463D02*
X98524336Y-99103987D01*
X98524336Y-99103987D02*
X98403383Y-98983035D01*
X98403383Y-98983035D02*
X98221955Y-98801606D01*
X98221955Y-98801606D02*
X98101002Y-98741130D01*
X98101002Y-98741130D02*
X97980050Y-98741130D01*
X98040526Y-99043511D02*
X97919574Y-98983035D01*
X97919574Y-98983035D02*
X97798621Y-98862082D01*
X97798621Y-98862082D02*
X97738145Y-98620177D01*
X97738145Y-98620177D02*
X97738145Y-98196844D01*
X97738145Y-98196844D02*
X97798621Y-97954939D01*
X97798621Y-97954939D02*
X97919574Y-97833987D01*
X97919574Y-97833987D02*
X98040526Y-97773511D01*
X98040526Y-97773511D02*
X98282431Y-97773511D01*
X98282431Y-97773511D02*
X98403383Y-97833987D01*
X98403383Y-97833987D02*
X98524336Y-97954939D01*
X98524336Y-97954939D02*
X98584812Y-98196844D01*
X98584812Y-98196844D02*
X98584812Y-98620177D01*
X98584812Y-98620177D02*
X98524336Y-98862082D01*
X98524336Y-98862082D02*
X98403383Y-98983035D01*
X98403383Y-98983035D02*
X98282431Y-99043511D01*
X98282431Y-99043511D02*
X98040526Y-99043511D01*
X99673383Y-98196844D02*
X99673383Y-99043511D01*
X99371002Y-97713035D02*
X99068621Y-98620177D01*
X99068621Y-98620177D02*
X99854812Y-98620177D01*
D10*
%TO.C,R3*%
X73420624Y-108240460D02*
X73087291Y-107764269D01*
X72849196Y-108240460D02*
X72849196Y-107240460D01*
X72849196Y-107240460D02*
X73230148Y-107240460D01*
X73230148Y-107240460D02*
X73325386Y-107288079D01*
X73325386Y-107288079D02*
X73373005Y-107335698D01*
X73373005Y-107335698D02*
X73420624Y-107430936D01*
X73420624Y-107430936D02*
X73420624Y-107573793D01*
X73420624Y-107573793D02*
X73373005Y-107669031D01*
X73373005Y-107669031D02*
X73325386Y-107716650D01*
X73325386Y-107716650D02*
X73230148Y-107764269D01*
X73230148Y-107764269D02*
X72849196Y-107764269D01*
X73753958Y-107240460D02*
X74373005Y-107240460D01*
X74373005Y-107240460D02*
X74039672Y-107621412D01*
X74039672Y-107621412D02*
X74182529Y-107621412D01*
X74182529Y-107621412D02*
X74277767Y-107669031D01*
X74277767Y-107669031D02*
X74325386Y-107716650D01*
X74325386Y-107716650D02*
X74373005Y-107811888D01*
X74373005Y-107811888D02*
X74373005Y-108049983D01*
X74373005Y-108049983D02*
X74325386Y-108145221D01*
X74325386Y-108145221D02*
X74277767Y-108192841D01*
X74277767Y-108192841D02*
X74182529Y-108240460D01*
X74182529Y-108240460D02*
X73896815Y-108240460D01*
X73896815Y-108240460D02*
X73801577Y-108192841D01*
X73801577Y-108192841D02*
X73753958Y-108145221D01*
%TO.C,P4*%
X145487250Y-91333283D02*
X145487250Y-90333283D01*
X145487250Y-90333283D02*
X145868202Y-90333283D01*
X145868202Y-90333283D02*
X145963440Y-90380902D01*
X145963440Y-90380902D02*
X146011059Y-90428521D01*
X146011059Y-90428521D02*
X146058678Y-90523759D01*
X146058678Y-90523759D02*
X146058678Y-90666616D01*
X146058678Y-90666616D02*
X146011059Y-90761854D01*
X146011059Y-90761854D02*
X145963440Y-90809473D01*
X145963440Y-90809473D02*
X145868202Y-90857092D01*
X145868202Y-90857092D02*
X145487250Y-90857092D01*
X146915821Y-90666616D02*
X146915821Y-91333283D01*
X146677726Y-90285664D02*
X146439631Y-90999949D01*
X146439631Y-90999949D02*
X147058678Y-90999949D01*
%TO.C,R9*%
X114331825Y-108240460D02*
X113998492Y-107764269D01*
X113760397Y-108240460D02*
X113760397Y-107240460D01*
X113760397Y-107240460D02*
X114141349Y-107240460D01*
X114141349Y-107240460D02*
X114236587Y-107288079D01*
X114236587Y-107288079D02*
X114284206Y-107335698D01*
X114284206Y-107335698D02*
X114331825Y-107430936D01*
X114331825Y-107430936D02*
X114331825Y-107573793D01*
X114331825Y-107573793D02*
X114284206Y-107669031D01*
X114284206Y-107669031D02*
X114236587Y-107716650D01*
X114236587Y-107716650D02*
X114141349Y-107764269D01*
X114141349Y-107764269D02*
X113760397Y-107764269D01*
X114808016Y-108240460D02*
X114998492Y-108240460D01*
X114998492Y-108240460D02*
X115093730Y-108192841D01*
X115093730Y-108192841D02*
X115141349Y-108145221D01*
X115141349Y-108145221D02*
X115236587Y-108002364D01*
X115236587Y-108002364D02*
X115284206Y-107811888D01*
X115284206Y-107811888D02*
X115284206Y-107430936D01*
X115284206Y-107430936D02*
X115236587Y-107335698D01*
X115236587Y-107335698D02*
X115188968Y-107288079D01*
X115188968Y-107288079D02*
X115093730Y-107240460D01*
X115093730Y-107240460D02*
X114903254Y-107240460D01*
X114903254Y-107240460D02*
X114808016Y-107288079D01*
X114808016Y-107288079D02*
X114760397Y-107335698D01*
X114760397Y-107335698D02*
X114712778Y-107430936D01*
X114712778Y-107430936D02*
X114712778Y-107669031D01*
X114712778Y-107669031D02*
X114760397Y-107764269D01*
X114760397Y-107764269D02*
X114808016Y-107811888D01*
X114808016Y-107811888D02*
X114903254Y-107859507D01*
X114903254Y-107859507D02*
X115093730Y-107859507D01*
X115093730Y-107859507D02*
X115188968Y-107811888D01*
X115188968Y-107811888D02*
X115236587Y-107764269D01*
X115236587Y-107764269D02*
X115284206Y-107669031D01*
%TO.C,Q1*%
X66942052Y-108375698D02*
X66846814Y-108328079D01*
X66846814Y-108328079D02*
X66751576Y-108232841D01*
X66751576Y-108232841D02*
X66608719Y-108089983D01*
X66608719Y-108089983D02*
X66513481Y-108042364D01*
X66513481Y-108042364D02*
X66418243Y-108042364D01*
X66465862Y-108280460D02*
X66370624Y-108232841D01*
X66370624Y-108232841D02*
X66275386Y-108137602D01*
X66275386Y-108137602D02*
X66227767Y-107947126D01*
X66227767Y-107947126D02*
X66227767Y-107613793D01*
X66227767Y-107613793D02*
X66275386Y-107423317D01*
X66275386Y-107423317D02*
X66370624Y-107328079D01*
X66370624Y-107328079D02*
X66465862Y-107280460D01*
X66465862Y-107280460D02*
X66656338Y-107280460D01*
X66656338Y-107280460D02*
X66751576Y-107328079D01*
X66751576Y-107328079D02*
X66846814Y-107423317D01*
X66846814Y-107423317D02*
X66894433Y-107613793D01*
X66894433Y-107613793D02*
X66894433Y-107947126D01*
X66894433Y-107947126D02*
X66846814Y-108137602D01*
X66846814Y-108137602D02*
X66751576Y-108232841D01*
X66751576Y-108232841D02*
X66656338Y-108280460D01*
X66656338Y-108280460D02*
X66465862Y-108280460D01*
X67846814Y-108280460D02*
X67275386Y-108280460D01*
X67561100Y-108280460D02*
X67561100Y-107280460D01*
X67561100Y-107280460D02*
X67465862Y-107423317D01*
X67465862Y-107423317D02*
X67370624Y-107518555D01*
X67370624Y-107518555D02*
X67275386Y-107566174D01*
%TO.C,Q5*%
X107853253Y-108375698D02*
X107758015Y-108328079D01*
X107758015Y-108328079D02*
X107662777Y-108232841D01*
X107662777Y-108232841D02*
X107519920Y-108089983D01*
X107519920Y-108089983D02*
X107424682Y-108042364D01*
X107424682Y-108042364D02*
X107329444Y-108042364D01*
X107377063Y-108280460D02*
X107281825Y-108232841D01*
X107281825Y-108232841D02*
X107186587Y-108137602D01*
X107186587Y-108137602D02*
X107138968Y-107947126D01*
X107138968Y-107947126D02*
X107138968Y-107613793D01*
X107138968Y-107613793D02*
X107186587Y-107423317D01*
X107186587Y-107423317D02*
X107281825Y-107328079D01*
X107281825Y-107328079D02*
X107377063Y-107280460D01*
X107377063Y-107280460D02*
X107567539Y-107280460D01*
X107567539Y-107280460D02*
X107662777Y-107328079D01*
X107662777Y-107328079D02*
X107758015Y-107423317D01*
X107758015Y-107423317D02*
X107805634Y-107613793D01*
X107805634Y-107613793D02*
X107805634Y-107947126D01*
X107805634Y-107947126D02*
X107758015Y-108137602D01*
X107758015Y-108137602D02*
X107662777Y-108232841D01*
X107662777Y-108232841D02*
X107567539Y-108280460D01*
X107567539Y-108280460D02*
X107377063Y-108280460D01*
X108710396Y-107280460D02*
X108234206Y-107280460D01*
X108234206Y-107280460D02*
X108186587Y-107756650D01*
X108186587Y-107756650D02*
X108234206Y-107709031D01*
X108234206Y-107709031D02*
X108329444Y-107661412D01*
X108329444Y-107661412D02*
X108567539Y-107661412D01*
X108567539Y-107661412D02*
X108662777Y-107709031D01*
X108662777Y-107709031D02*
X108710396Y-107756650D01*
X108710396Y-107756650D02*
X108758015Y-107851888D01*
X108758015Y-107851888D02*
X108758015Y-108089983D01*
X108758015Y-108089983D02*
X108710396Y-108185221D01*
X108710396Y-108185221D02*
X108662777Y-108232841D01*
X108662777Y-108232841D02*
X108567539Y-108280460D01*
X108567539Y-108280460D02*
X108329444Y-108280460D01*
X108329444Y-108280460D02*
X108234206Y-108232841D01*
X108234206Y-108232841D02*
X108186587Y-108185221D01*
D11*
%TO.C,Q6*%
X124599255Y-99063628D02*
X124478303Y-99003152D01*
X124478303Y-99003152D02*
X124357350Y-98882200D01*
X124357350Y-98882200D02*
X124175922Y-98700771D01*
X124175922Y-98700771D02*
X124054969Y-98640295D01*
X124054969Y-98640295D02*
X123934017Y-98640295D01*
X123994493Y-98942676D02*
X123873541Y-98882200D01*
X123873541Y-98882200D02*
X123752588Y-98761247D01*
X123752588Y-98761247D02*
X123692112Y-98519342D01*
X123692112Y-98519342D02*
X123692112Y-98096009D01*
X123692112Y-98096009D02*
X123752588Y-97854104D01*
X123752588Y-97854104D02*
X123873541Y-97733152D01*
X123873541Y-97733152D02*
X123994493Y-97672676D01*
X123994493Y-97672676D02*
X124236398Y-97672676D01*
X124236398Y-97672676D02*
X124357350Y-97733152D01*
X124357350Y-97733152D02*
X124478303Y-97854104D01*
X124478303Y-97854104D02*
X124538779Y-98096009D01*
X124538779Y-98096009D02*
X124538779Y-98519342D01*
X124538779Y-98519342D02*
X124478303Y-98761247D01*
X124478303Y-98761247D02*
X124357350Y-98882200D01*
X124357350Y-98882200D02*
X124236398Y-98942676D01*
X124236398Y-98942676D02*
X123994493Y-98942676D01*
X125627350Y-97672676D02*
X125385445Y-97672676D01*
X125385445Y-97672676D02*
X125264493Y-97733152D01*
X125264493Y-97733152D02*
X125204017Y-97793628D01*
X125204017Y-97793628D02*
X125083064Y-97975057D01*
X125083064Y-97975057D02*
X125022588Y-98216961D01*
X125022588Y-98216961D02*
X125022588Y-98700771D01*
X125022588Y-98700771D02*
X125083064Y-98821723D01*
X125083064Y-98821723D02*
X125143541Y-98882200D01*
X125143541Y-98882200D02*
X125264493Y-98942676D01*
X125264493Y-98942676D02*
X125506398Y-98942676D01*
X125506398Y-98942676D02*
X125627350Y-98882200D01*
X125627350Y-98882200D02*
X125687826Y-98821723D01*
X125687826Y-98821723D02*
X125748303Y-98700771D01*
X125748303Y-98700771D02*
X125748303Y-98398390D01*
X125748303Y-98398390D02*
X125687826Y-98277438D01*
X125687826Y-98277438D02*
X125627350Y-98216961D01*
X125627350Y-98216961D02*
X125506398Y-98156485D01*
X125506398Y-98156485D02*
X125264493Y-98156485D01*
X125264493Y-98156485D02*
X125143541Y-98216961D01*
X125143541Y-98216961D02*
X125083064Y-98277438D01*
X125083064Y-98277438D02*
X125022588Y-98398390D01*
D10*
%TO.C,R2*%
X79560624Y-108240460D02*
X79227291Y-107764269D01*
X78989196Y-108240460D02*
X78989196Y-107240460D01*
X78989196Y-107240460D02*
X79370148Y-107240460D01*
X79370148Y-107240460D02*
X79465386Y-107288079D01*
X79465386Y-107288079D02*
X79513005Y-107335698D01*
X79513005Y-107335698D02*
X79560624Y-107430936D01*
X79560624Y-107430936D02*
X79560624Y-107573793D01*
X79560624Y-107573793D02*
X79513005Y-107669031D01*
X79513005Y-107669031D02*
X79465386Y-107716650D01*
X79465386Y-107716650D02*
X79370148Y-107764269D01*
X79370148Y-107764269D02*
X78989196Y-107764269D01*
X79941577Y-107335698D02*
X79989196Y-107288079D01*
X79989196Y-107288079D02*
X80084434Y-107240460D01*
X80084434Y-107240460D02*
X80322529Y-107240460D01*
X80322529Y-107240460D02*
X80417767Y-107288079D01*
X80417767Y-107288079D02*
X80465386Y-107335698D01*
X80465386Y-107335698D02*
X80513005Y-107430936D01*
X80513005Y-107430936D02*
X80513005Y-107526174D01*
X80513005Y-107526174D02*
X80465386Y-107669031D01*
X80465386Y-107669031D02*
X79893958Y-108240460D01*
X79893958Y-108240460D02*
X80513005Y-108240460D01*
%TO.C,P2*%
X93537113Y-91333283D02*
X93537113Y-90333283D01*
X93537113Y-90333283D02*
X93918065Y-90333283D01*
X93918065Y-90333283D02*
X94013303Y-90380902D01*
X94013303Y-90380902D02*
X94060922Y-90428521D01*
X94060922Y-90428521D02*
X94108541Y-90523759D01*
X94108541Y-90523759D02*
X94108541Y-90666616D01*
X94108541Y-90666616D02*
X94060922Y-90761854D01*
X94060922Y-90761854D02*
X94013303Y-90809473D01*
X94013303Y-90809473D02*
X93918065Y-90857092D01*
X93918065Y-90857092D02*
X93537113Y-90857092D01*
X94489494Y-90428521D02*
X94537113Y-90380902D01*
X94537113Y-90380902D02*
X94632351Y-90333283D01*
X94632351Y-90333283D02*
X94870446Y-90333283D01*
X94870446Y-90333283D02*
X94965684Y-90380902D01*
X94965684Y-90380902D02*
X95013303Y-90428521D01*
X95013303Y-90428521D02*
X95060922Y-90523759D01*
X95060922Y-90523759D02*
X95060922Y-90618997D01*
X95060922Y-90618997D02*
X95013303Y-90761854D01*
X95013303Y-90761854D02*
X94441875Y-91333283D01*
X94441875Y-91333283D02*
X95060922Y-91333283D01*
%TO.C,Q3*%
X87301887Y-108375698D02*
X87206649Y-108328079D01*
X87206649Y-108328079D02*
X87111411Y-108232841D01*
X87111411Y-108232841D02*
X86968554Y-108089983D01*
X86968554Y-108089983D02*
X86873316Y-108042364D01*
X86873316Y-108042364D02*
X86778078Y-108042364D01*
X86825697Y-108280460D02*
X86730459Y-108232841D01*
X86730459Y-108232841D02*
X86635221Y-108137602D01*
X86635221Y-108137602D02*
X86587602Y-107947126D01*
X86587602Y-107947126D02*
X86587602Y-107613793D01*
X86587602Y-107613793D02*
X86635221Y-107423317D01*
X86635221Y-107423317D02*
X86730459Y-107328079D01*
X86730459Y-107328079D02*
X86825697Y-107280460D01*
X86825697Y-107280460D02*
X87016173Y-107280460D01*
X87016173Y-107280460D02*
X87111411Y-107328079D01*
X87111411Y-107328079D02*
X87206649Y-107423317D01*
X87206649Y-107423317D02*
X87254268Y-107613793D01*
X87254268Y-107613793D02*
X87254268Y-107947126D01*
X87254268Y-107947126D02*
X87206649Y-108137602D01*
X87206649Y-108137602D02*
X87111411Y-108232841D01*
X87111411Y-108232841D02*
X87016173Y-108280460D01*
X87016173Y-108280460D02*
X86825697Y-108280460D01*
X87587602Y-107280460D02*
X88206649Y-107280460D01*
X88206649Y-107280460D02*
X87873316Y-107661412D01*
X87873316Y-107661412D02*
X88016173Y-107661412D01*
X88016173Y-107661412D02*
X88111411Y-107709031D01*
X88111411Y-107709031D02*
X88159030Y-107756650D01*
X88159030Y-107756650D02*
X88206649Y-107851888D01*
X88206649Y-107851888D02*
X88206649Y-108089983D01*
X88206649Y-108089983D02*
X88159030Y-108185221D01*
X88159030Y-108185221D02*
X88111411Y-108232841D01*
X88111411Y-108232841D02*
X88016173Y-108280460D01*
X88016173Y-108280460D02*
X87730459Y-108280460D01*
X87730459Y-108280460D02*
X87635221Y-108232841D01*
X87635221Y-108232841D02*
X87587602Y-108185221D01*
%TO.C,R8*%
X120471825Y-108240460D02*
X120138492Y-107764269D01*
X119900397Y-108240460D02*
X119900397Y-107240460D01*
X119900397Y-107240460D02*
X120281349Y-107240460D01*
X120281349Y-107240460D02*
X120376587Y-107288079D01*
X120376587Y-107288079D02*
X120424206Y-107335698D01*
X120424206Y-107335698D02*
X120471825Y-107430936D01*
X120471825Y-107430936D02*
X120471825Y-107573793D01*
X120471825Y-107573793D02*
X120424206Y-107669031D01*
X120424206Y-107669031D02*
X120376587Y-107716650D01*
X120376587Y-107716650D02*
X120281349Y-107764269D01*
X120281349Y-107764269D02*
X119900397Y-107764269D01*
X121043254Y-107669031D02*
X120948016Y-107621412D01*
X120948016Y-107621412D02*
X120900397Y-107573793D01*
X120900397Y-107573793D02*
X120852778Y-107478555D01*
X120852778Y-107478555D02*
X120852778Y-107430936D01*
X120852778Y-107430936D02*
X120900397Y-107335698D01*
X120900397Y-107335698D02*
X120948016Y-107288079D01*
X120948016Y-107288079D02*
X121043254Y-107240460D01*
X121043254Y-107240460D02*
X121233730Y-107240460D01*
X121233730Y-107240460D02*
X121328968Y-107288079D01*
X121328968Y-107288079D02*
X121376587Y-107335698D01*
X121376587Y-107335698D02*
X121424206Y-107430936D01*
X121424206Y-107430936D02*
X121424206Y-107478555D01*
X121424206Y-107478555D02*
X121376587Y-107573793D01*
X121376587Y-107573793D02*
X121328968Y-107621412D01*
X121328968Y-107621412D02*
X121233730Y-107669031D01*
X121233730Y-107669031D02*
X121043254Y-107669031D01*
X121043254Y-107669031D02*
X120948016Y-107716650D01*
X120948016Y-107716650D02*
X120900397Y-107764269D01*
X120900397Y-107764269D02*
X120852778Y-107859507D01*
X120852778Y-107859507D02*
X120852778Y-108049983D01*
X120852778Y-108049983D02*
X120900397Y-108145221D01*
X120900397Y-108145221D02*
X120948016Y-108192841D01*
X120948016Y-108192841D02*
X121043254Y-108240460D01*
X121043254Y-108240460D02*
X121233730Y-108240460D01*
X121233730Y-108240460D02*
X121328968Y-108192841D01*
X121328968Y-108192841D02*
X121376587Y-108145221D01*
X121376587Y-108145221D02*
X121424206Y-108049983D01*
X121424206Y-108049983D02*
X121424206Y-107859507D01*
X121424206Y-107859507D02*
X121376587Y-107764269D01*
X121376587Y-107764269D02*
X121328968Y-107716650D01*
X121328968Y-107716650D02*
X121233730Y-107669031D01*
%TO.C,D4*%
X134006505Y-92968758D02*
X133006505Y-92968758D01*
X133006505Y-92968758D02*
X133006505Y-92730663D01*
X133006505Y-92730663D02*
X133054124Y-92587806D01*
X133054124Y-92587806D02*
X133149362Y-92492568D01*
X133149362Y-92492568D02*
X133244600Y-92444949D01*
X133244600Y-92444949D02*
X133435076Y-92397330D01*
X133435076Y-92397330D02*
X133577933Y-92397330D01*
X133577933Y-92397330D02*
X133768409Y-92444949D01*
X133768409Y-92444949D02*
X133863647Y-92492568D01*
X133863647Y-92492568D02*
X133958886Y-92587806D01*
X133958886Y-92587806D02*
X134006505Y-92730663D01*
X134006505Y-92730663D02*
X134006505Y-92968758D01*
X133339838Y-91540187D02*
X134006505Y-91540187D01*
X132958886Y-91778282D02*
X133673171Y-92016377D01*
X133673171Y-92016377D02*
X133673171Y-91397330D01*
X135431505Y-100112568D02*
X134431505Y-100112568D01*
X135431505Y-99541140D02*
X134860076Y-99969711D01*
X134431505Y-99541140D02*
X135002933Y-100112568D01*
%TO.C,R1*%
X73404478Y-116860937D02*
X73071145Y-116384746D01*
X72833050Y-116860937D02*
X72833050Y-115860937D01*
X72833050Y-115860937D02*
X73214002Y-115860937D01*
X73214002Y-115860937D02*
X73309240Y-115908556D01*
X73309240Y-115908556D02*
X73356859Y-115956175D01*
X73356859Y-115956175D02*
X73404478Y-116051413D01*
X73404478Y-116051413D02*
X73404478Y-116194270D01*
X73404478Y-116194270D02*
X73356859Y-116289508D01*
X73356859Y-116289508D02*
X73309240Y-116337127D01*
X73309240Y-116337127D02*
X73214002Y-116384746D01*
X73214002Y-116384746D02*
X72833050Y-116384746D01*
X74356859Y-116860937D02*
X73785431Y-116860937D01*
X74071145Y-116860937D02*
X74071145Y-115860937D01*
X74071145Y-115860937D02*
X73975907Y-116003794D01*
X73975907Y-116003794D02*
X73880669Y-116099032D01*
X73880669Y-116099032D02*
X73785431Y-116146651D01*
D11*
%TO.C,Z4*%
X137559341Y-104058626D02*
X138406008Y-104058626D01*
X138406008Y-104058626D02*
X137559341Y-105328626D01*
X137559341Y-105328626D02*
X138406008Y-105328626D01*
X139434103Y-104481959D02*
X139434103Y-105328626D01*
X139131722Y-103998150D02*
X138829341Y-104905292D01*
X138829341Y-104905292D02*
X139615532Y-104905292D01*
D10*
%TO.C,D2*%
X82071170Y-92968758D02*
X81071170Y-92968758D01*
X81071170Y-92968758D02*
X81071170Y-92730663D01*
X81071170Y-92730663D02*
X81118789Y-92587806D01*
X81118789Y-92587806D02*
X81214027Y-92492568D01*
X81214027Y-92492568D02*
X81309265Y-92444949D01*
X81309265Y-92444949D02*
X81499741Y-92397330D01*
X81499741Y-92397330D02*
X81642598Y-92397330D01*
X81642598Y-92397330D02*
X81833074Y-92444949D01*
X81833074Y-92444949D02*
X81928312Y-92492568D01*
X81928312Y-92492568D02*
X82023551Y-92587806D01*
X82023551Y-92587806D02*
X82071170Y-92730663D01*
X82071170Y-92730663D02*
X82071170Y-92968758D01*
X81166408Y-92016377D02*
X81118789Y-91968758D01*
X81118789Y-91968758D02*
X81071170Y-91873520D01*
X81071170Y-91873520D02*
X81071170Y-91635425D01*
X81071170Y-91635425D02*
X81118789Y-91540187D01*
X81118789Y-91540187D02*
X81166408Y-91492568D01*
X81166408Y-91492568D02*
X81261646Y-91444949D01*
X81261646Y-91444949D02*
X81356884Y-91444949D01*
X81356884Y-91444949D02*
X81499741Y-91492568D01*
X81499741Y-91492568D02*
X82071170Y-92063996D01*
X82071170Y-92063996D02*
X82071170Y-91444949D01*
X83496170Y-100112568D02*
X82496170Y-100112568D01*
X83496170Y-99541140D02*
X82924741Y-99969711D01*
X82496170Y-99541140D02*
X83067598Y-100112568D01*
%TO.C,R4*%
X93760091Y-116991563D02*
X93426758Y-116515372D01*
X93188663Y-116991563D02*
X93188663Y-115991563D01*
X93188663Y-115991563D02*
X93569615Y-115991563D01*
X93569615Y-115991563D02*
X93664853Y-116039182D01*
X93664853Y-116039182D02*
X93712472Y-116086801D01*
X93712472Y-116086801D02*
X93760091Y-116182039D01*
X93760091Y-116182039D02*
X93760091Y-116324896D01*
X93760091Y-116324896D02*
X93712472Y-116420134D01*
X93712472Y-116420134D02*
X93664853Y-116467753D01*
X93664853Y-116467753D02*
X93569615Y-116515372D01*
X93569615Y-116515372D02*
X93188663Y-116515372D01*
X94617234Y-116324896D02*
X94617234Y-116991563D01*
X94379139Y-115943944D02*
X94141044Y-116658229D01*
X94141044Y-116658229D02*
X94760091Y-116658229D01*
%TO.C,P3*%
X119504786Y-91333283D02*
X119504786Y-90333283D01*
X119504786Y-90333283D02*
X119885738Y-90333283D01*
X119885738Y-90333283D02*
X119980976Y-90380902D01*
X119980976Y-90380902D02*
X120028595Y-90428521D01*
X120028595Y-90428521D02*
X120076214Y-90523759D01*
X120076214Y-90523759D02*
X120076214Y-90666616D01*
X120076214Y-90666616D02*
X120028595Y-90761854D01*
X120028595Y-90761854D02*
X119980976Y-90809473D01*
X119980976Y-90809473D02*
X119885738Y-90857092D01*
X119885738Y-90857092D02*
X119504786Y-90857092D01*
X120409548Y-90333283D02*
X121028595Y-90333283D01*
X121028595Y-90333283D02*
X120695262Y-90714235D01*
X120695262Y-90714235D02*
X120838119Y-90714235D01*
X120838119Y-90714235D02*
X120933357Y-90761854D01*
X120933357Y-90761854D02*
X120980976Y-90809473D01*
X120980976Y-90809473D02*
X121028595Y-90904711D01*
X121028595Y-90904711D02*
X121028595Y-91142806D01*
X121028595Y-91142806D02*
X120980976Y-91238044D01*
X120980976Y-91238044D02*
X120933357Y-91285664D01*
X120933357Y-91285664D02*
X120838119Y-91333283D01*
X120838119Y-91333283D02*
X120552405Y-91333283D01*
X120552405Y-91333283D02*
X120457167Y-91285664D01*
X120457167Y-91285664D02*
X120409548Y-91238044D01*
D12*
%TO.C,J1*%
X171679000Y-119712300D02*
X171679000Y-121042300D01*
X170349000Y-119712300D02*
X171679000Y-119712300D01*
X169079000Y-119712300D02*
X135999000Y-119712300D01*
X169079000Y-119712300D02*
X169079000Y-122312300D01*
X135999000Y-119712300D02*
X135999000Y-124912300D01*
X171679000Y-122312300D02*
X171679000Y-124912300D01*
X169079000Y-122312300D02*
X171679000Y-122312300D01*
X171679000Y-124912300D02*
X135999000Y-124912300D01*
D13*
%TO.C,Z3*%
X116385364Y-104593019D02*
X118908364Y-104593019D01*
X118908364Y-103733019D02*
X122712364Y-103733019D01*
X118908364Y-104593019D02*
X119768364Y-103733019D01*
X118908364Y-105453019D02*
X118908364Y-103733019D01*
X122712364Y-103733019D02*
X122712364Y-105453019D01*
X122712364Y-104593019D02*
X125235364Y-104593019D01*
X122712364Y-105453019D02*
X118908364Y-105453019D01*
D12*
%TO.C,R12*%
X134855574Y-110147841D02*
X134925574Y-110147841D01*
X134855574Y-110147841D02*
G75*
G03*
X134855574Y-110147841I-1370000J0D01*
G01*
%TO.C,R10*%
X134855574Y-114197841D02*
X134925574Y-114197841D01*
X134855574Y-114197841D02*
G75*
G03*
X134855574Y-114197841I-1370000J0D01*
G01*
D13*
%TO.C,Q2*%
X73542955Y-97142182D02*
X73542955Y-93947182D01*
X63002955Y-97142182D02*
X73542955Y-97142182D01*
X63002955Y-92452182D02*
X63002955Y-97142182D01*
D12*
%TO.C,P1*%
X73657955Y-80450664D02*
X73657955Y-79710664D01*
X73657955Y-79710664D02*
X73157955Y-79710664D01*
X73417955Y-89871664D02*
X73417955Y-79950664D01*
X73417955Y-89871664D02*
X63137955Y-89871664D01*
X73417955Y-86911664D02*
X63137955Y-86911664D01*
X73417955Y-82010664D02*
X63137955Y-82010664D01*
X73417955Y-80510664D02*
X63137955Y-80510664D01*
X73417955Y-79950664D02*
X63137955Y-79950664D01*
X66964955Y-83587664D02*
X67011955Y-83541664D01*
X66771955Y-83371664D02*
X66806955Y-83336664D01*
X64667955Y-85885664D02*
X64702955Y-85849664D01*
X64462955Y-85679664D02*
X64509955Y-85633664D01*
X63137955Y-89871664D02*
X63137955Y-79950664D01*
X72352954Y-85294663D02*
G75*
G03*
X72353381Y-83927622I-1534992J684000D01*
G01*
X70133956Y-86145663D02*
G75*
G03*
X71500997Y-86146090I684000J1534992D01*
G01*
X71501955Y-83075665D02*
G75*
G03*
X70789150Y-82930412I-683999J-1535000D01*
G01*
X70817955Y-82930665D02*
G75*
G03*
X70134637Y-83075909I0J-1679999D01*
G01*
X69282955Y-83926664D02*
G75*
G03*
X69282529Y-85293706I1535000J-684000D01*
G01*
X67417955Y-84610664D02*
G75*
G03*
X67417955Y-84610664I-1680000J0D01*
G01*
%TO.C,D1*%
X59178463Y-98310664D02*
X59178463Y-97115664D01*
X56453463Y-97115664D02*
X61903463Y-97115664D01*
X61903463Y-97115664D02*
X61903463Y-87345664D01*
X56453463Y-95686164D02*
X61903463Y-95686164D01*
X56453463Y-95566164D02*
X61903463Y-95566164D01*
X56453463Y-95446164D02*
X61903463Y-95446164D01*
X56453463Y-87345664D02*
X56453463Y-97115664D01*
X61903463Y-87345664D02*
X56453463Y-87345664D01*
X59178463Y-86150664D02*
X59178463Y-87345664D01*
%TO.C,R5*%
X100187126Y-110147841D02*
X100257126Y-110147841D01*
X100187126Y-110147841D02*
G75*
G03*
X100187126Y-110147841I-1370000J0D01*
G01*
D13*
%TO.C,Z1*%
X64494002Y-104593019D02*
X67017002Y-104593019D01*
X67017002Y-103733019D02*
X70821002Y-103733019D01*
X67017002Y-104593019D02*
X67877002Y-103733019D01*
X67017002Y-105453019D02*
X67017002Y-103733019D01*
X70821002Y-103733019D02*
X70821002Y-105453019D01*
X70821002Y-104593019D02*
X73344002Y-104593019D01*
X70821002Y-105453019D02*
X67017002Y-105453019D01*
D12*
%TO.C,R6*%
X94047126Y-110147841D02*
X94117126Y-110147841D01*
X94047126Y-110147841D02*
G75*
G03*
X94047126Y-110147841I-1370000J0D01*
G01*
%TO.C,D3*%
X111168051Y-98310664D02*
X111168051Y-97115664D01*
X108443051Y-97115664D02*
X113893051Y-97115664D01*
X113893051Y-97115664D02*
X113893051Y-87345664D01*
X108443051Y-95686164D02*
X113893051Y-95686164D01*
X108443051Y-95566164D02*
X113893051Y-95566164D01*
X108443051Y-95446164D02*
X113893051Y-95446164D01*
X108443051Y-87345664D02*
X108443051Y-97115664D01*
X113893051Y-87345664D02*
X108443051Y-87345664D01*
X111168051Y-86150664D02*
X111168051Y-87345664D01*
D13*
%TO.C,Z2*%
X90974609Y-104593019D02*
X93497609Y-104593019D01*
X93497609Y-103733019D02*
X97301609Y-103733019D01*
X93497609Y-104593019D02*
X94357609Y-103733019D01*
X93497609Y-105453019D02*
X93497609Y-103733019D01*
X97301609Y-103733019D02*
X97301609Y-105453019D01*
X97301609Y-104593019D02*
X99824609Y-104593019D01*
X97301609Y-105453019D02*
X93497609Y-105453019D01*
D12*
%TO.C,R11*%
X140995574Y-110147841D02*
X141065574Y-110147841D01*
X140995574Y-110147841D02*
G75*
G03*
X140995574Y-110147841I-1370000J0D01*
G01*
D13*
%TO.C,Q8*%
X151490345Y-97142182D02*
X151490345Y-93947182D01*
X140950345Y-97142182D02*
X151490345Y-97142182D01*
X140950345Y-92452182D02*
X140950345Y-97142182D01*
D12*
%TO.C,R7*%
X114598492Y-114197841D02*
X114668492Y-114197841D01*
X114598492Y-114197841D02*
G75*
G03*
X114598492Y-114197841I-1370000J0D01*
G01*
%TO.C,Q7*%
X126405574Y-113227841D02*
X130005574Y-113227841D01*
X128205574Y-108777841D02*
G75*
G03*
X126367096Y-113216319I0J-2600000D01*
G01*
X130044052Y-113216319D02*
G75*
G03*
X128205574Y-108777841I-1838478J1838478D01*
G01*
D13*
%TO.C,Q4*%
X99540208Y-97142182D02*
X99540208Y-93947182D01*
X89000208Y-97142182D02*
X99540208Y-97142182D01*
X89000208Y-92452182D02*
X89000208Y-97142182D01*
D12*
%TO.C,R3*%
X73687291Y-110147841D02*
X73757291Y-110147841D01*
X73687291Y-110147841D02*
G75*
G03*
X73687291Y-110147841I-1370000J0D01*
G01*
%TO.C,P4*%
X151605345Y-80450664D02*
X151605345Y-79710664D01*
X151605345Y-79710664D02*
X151105345Y-79710664D01*
X151365345Y-89871664D02*
X151365345Y-79950664D01*
X151365345Y-89871664D02*
X141085345Y-89871664D01*
X151365345Y-86911664D02*
X141085345Y-86911664D01*
X151365345Y-82010664D02*
X141085345Y-82010664D01*
X151365345Y-80510664D02*
X141085345Y-80510664D01*
X151365345Y-79950664D02*
X141085345Y-79950664D01*
X144912345Y-83587664D02*
X144959345Y-83541664D01*
X144719345Y-83371664D02*
X144754345Y-83336664D01*
X142615345Y-85885664D02*
X142650345Y-85849664D01*
X142410345Y-85679664D02*
X142457345Y-85633664D01*
X141085345Y-89871664D02*
X141085345Y-79950664D01*
X150300344Y-85294663D02*
G75*
G03*
X150300771Y-83927622I-1534992J684000D01*
G01*
X148081346Y-86145663D02*
G75*
G03*
X149448387Y-86146090I684000J1534992D01*
G01*
X149449345Y-83075665D02*
G75*
G03*
X148736540Y-82930412I-683999J-1535000D01*
G01*
X148765345Y-82930665D02*
G75*
G03*
X148082027Y-83075909I0J-1679999D01*
G01*
X147230345Y-83926664D02*
G75*
G03*
X147229919Y-85293706I1535000J-684000D01*
G01*
X145365345Y-84610664D02*
G75*
G03*
X145365345Y-84610664I-1680000J0D01*
G01*
%TO.C,R9*%
X114598492Y-110147841D02*
X114668492Y-110147841D01*
X114598492Y-110147841D02*
G75*
G03*
X114598492Y-110147841I-1370000J0D01*
G01*
%TO.C,Q1*%
X65237291Y-113227841D02*
X68837291Y-113227841D01*
X67037291Y-108777841D02*
G75*
G03*
X65198813Y-113216319I0J-2600000D01*
G01*
X68875769Y-113216319D02*
G75*
G03*
X67037291Y-108777841I-1838478J1838478D01*
G01*
%TO.C,Q5*%
X106148492Y-113227841D02*
X109748492Y-113227841D01*
X107948492Y-108777841D02*
G75*
G03*
X106110014Y-113216319I0J-2600000D01*
G01*
X109786970Y-113216319D02*
G75*
G03*
X107948492Y-108777841I-1838478J1838478D01*
G01*
D13*
%TO.C,Q6*%
X125507881Y-97142182D02*
X125507881Y-93947182D01*
X114967881Y-97142182D02*
X125507881Y-97142182D01*
X114967881Y-92452182D02*
X114967881Y-97142182D01*
D12*
%TO.C,R2*%
X79827291Y-110147841D02*
X79897291Y-110147841D01*
X79827291Y-110147841D02*
G75*
G03*
X79827291Y-110147841I-1370000J0D01*
G01*
%TO.C,P2*%
X99655208Y-80450664D02*
X99655208Y-79710664D01*
X99655208Y-79710664D02*
X99155208Y-79710664D01*
X99415208Y-89871664D02*
X99415208Y-79950664D01*
X99415208Y-89871664D02*
X89135208Y-89871664D01*
X99415208Y-86911664D02*
X89135208Y-86911664D01*
X99415208Y-82010664D02*
X89135208Y-82010664D01*
X99415208Y-80510664D02*
X89135208Y-80510664D01*
X99415208Y-79950664D02*
X89135208Y-79950664D01*
X92962208Y-83587664D02*
X93009208Y-83541664D01*
X92769208Y-83371664D02*
X92804208Y-83336664D01*
X90665208Y-85885664D02*
X90700208Y-85849664D01*
X90460208Y-85679664D02*
X90507208Y-85633664D01*
X89135208Y-89871664D02*
X89135208Y-79950664D01*
X98350207Y-85294663D02*
G75*
G03*
X98350634Y-83927622I-1534992J684000D01*
G01*
X96131209Y-86145663D02*
G75*
G03*
X97498250Y-86146090I684000J1534992D01*
G01*
X97499208Y-83075665D02*
G75*
G03*
X96786403Y-82930412I-683999J-1535000D01*
G01*
X96815208Y-82930665D02*
G75*
G03*
X96131890Y-83075909I0J-1679999D01*
G01*
X95280208Y-83926664D02*
G75*
G03*
X95279782Y-85293706I1535000J-684000D01*
G01*
X93415208Y-84610664D02*
G75*
G03*
X93415208Y-84610664I-1680000J0D01*
G01*
%TO.C,Q3*%
X85597126Y-113227841D02*
X89197126Y-113227841D01*
X87397126Y-108777841D02*
G75*
G03*
X85558648Y-113216319I0J-2600000D01*
G01*
X89235604Y-113216319D02*
G75*
G03*
X87397126Y-108777841I-1838478J1838478D01*
G01*
%TO.C,R8*%
X120738492Y-110147841D02*
X120808492Y-110147841D01*
X120738492Y-110147841D02*
G75*
G03*
X120738492Y-110147841I-1370000J0D01*
G01*
%TO.C,D4*%
X137268886Y-98310664D02*
X137268886Y-97115664D01*
X134543886Y-97115664D02*
X139993886Y-97115664D01*
X139993886Y-97115664D02*
X139993886Y-87345664D01*
X134543886Y-95686164D02*
X139993886Y-95686164D01*
X134543886Y-95566164D02*
X139993886Y-95566164D01*
X134543886Y-95446164D02*
X139993886Y-95446164D01*
X134543886Y-87345664D02*
X134543886Y-97115664D01*
X139993886Y-87345664D02*
X134543886Y-87345664D01*
X137268886Y-86150664D02*
X137268886Y-87345664D01*
%TO.C,R1*%
X73687291Y-114197841D02*
X73757291Y-114197841D01*
X73687291Y-114197841D02*
G75*
G03*
X73687291Y-114197841I-1370000J0D01*
G01*
D13*
%TO.C,Z4*%
X141801856Y-104593019D02*
X144324856Y-104593019D01*
X144324856Y-103733019D02*
X148128856Y-103733019D01*
X144324856Y-104593019D02*
X145184856Y-103733019D01*
X144324856Y-105453019D02*
X144324856Y-103733019D01*
X148128856Y-103733019D02*
X148128856Y-105453019D01*
X148128856Y-104593019D02*
X150651856Y-104593019D01*
X148128856Y-105453019D02*
X144324856Y-105453019D01*
D12*
%TO.C,D2*%
X85333551Y-98310664D02*
X85333551Y-97115664D01*
X82608551Y-97115664D02*
X88058551Y-97115664D01*
X88058551Y-97115664D02*
X88058551Y-87345664D01*
X82608551Y-95686164D02*
X88058551Y-95686164D01*
X82608551Y-95566164D02*
X88058551Y-95566164D01*
X82608551Y-95446164D02*
X88058551Y-95446164D01*
X82608551Y-87345664D02*
X82608551Y-97115664D01*
X88058551Y-87345664D02*
X82608551Y-87345664D01*
X85333551Y-86150664D02*
X85333551Y-87345664D01*
%TO.C,R4*%
X94047126Y-114197841D02*
X94117126Y-114197841D01*
X94047126Y-114197841D02*
G75*
G03*
X94047126Y-114197841I-1370000J0D01*
G01*
%TO.C,P3*%
X125622881Y-80450664D02*
X125622881Y-79710664D01*
X125622881Y-79710664D02*
X125122881Y-79710664D01*
X125382881Y-89871664D02*
X125382881Y-79950664D01*
X125382881Y-89871664D02*
X115102881Y-89871664D01*
X125382881Y-86911664D02*
X115102881Y-86911664D01*
X125382881Y-82010664D02*
X115102881Y-82010664D01*
X125382881Y-80510664D02*
X115102881Y-80510664D01*
X125382881Y-79950664D02*
X115102881Y-79950664D01*
X118929881Y-83587664D02*
X118976881Y-83541664D01*
X118736881Y-83371664D02*
X118771881Y-83336664D01*
X116632881Y-85885664D02*
X116667881Y-85849664D01*
X116427881Y-85679664D02*
X116474881Y-85633664D01*
X115102881Y-89871664D02*
X115102881Y-79950664D01*
X124317880Y-85294663D02*
G75*
G03*
X124318307Y-83927622I-1534992J684000D01*
G01*
X122098882Y-86145663D02*
G75*
G03*
X123465923Y-86146090I684000J1534992D01*
G01*
X123466881Y-83075665D02*
G75*
G03*
X122754076Y-82930412I-683999J-1535000D01*
G01*
X122782881Y-82930665D02*
G75*
G03*
X122099563Y-83075909I0J-1679999D01*
G01*
X121247881Y-83926664D02*
G75*
G03*
X121247455Y-85293706I1535000J-684000D01*
G01*
X119382881Y-84610664D02*
G75*
G03*
X119382881Y-84610664I-1680000J0D01*
G01*
%TD*%
M02*
