%TF.GenerationSoftware,KiCad,Pcbnew,(6.0.0)*%
%TF.CreationDate,2022-02-01T19:12:32-08:00*%
%TF.ProjectId,MakeItRain,4d616b65-4974-4526-9169-6e2e6b696361,rev?*%
%TF.SameCoordinates,Original*%
%TF.FileFunction,Copper,L3,Inr*%
%TF.FilePolarity,Positive*%
%FSLAX46Y46*%
G04 Gerber Fmt 4.6, Leading zero omitted, Abs format (unit mm)*
G04 Created by KiCad (PCBNEW (6.0.0)) date 2022-02-01 19:12:32*
%MOMM*%
%LPD*%
G01*
G04 APERTURE LIST*
%TA.AperFunction,ComponentPad*%
%ADD10C,1.600000*%
%TD*%
%TA.AperFunction,ComponentPad*%
%ADD11R,2.600000X2.600000*%
%TD*%
%TA.AperFunction,ComponentPad*%
%ADD12O,2.600000X2.600000*%
%TD*%
%TA.AperFunction,ComponentPad*%
%ADD13R,1.800000X1.800000*%
%TD*%
%TA.AperFunction,ComponentPad*%
%ADD14C,1.800000*%
%TD*%
%TA.AperFunction,ComponentPad*%
%ADD15R,1.700000X1.700000*%
%TD*%
%TA.AperFunction,ComponentPad*%
%ADD16O,1.700000X1.700000*%
%TD*%
%TA.AperFunction,ComponentPad*%
%ADD17O,1.600000X1.600000*%
%TD*%
%TA.AperFunction,ComponentPad*%
%ADD18C,2.600000*%
%TD*%
%TA.AperFunction,ComponentPad*%
%ADD19R,1.920000X1.920000*%
%TD*%
%TA.AperFunction,ComponentPad*%
%ADD20C,1.920000*%
%TD*%
%TA.AperFunction,ComponentPad*%
%ADD21R,1.050000X1.500000*%
%TD*%
%TA.AperFunction,ComponentPad*%
%ADD22O,1.050000X1.500000*%
%TD*%
%TA.AperFunction,ComponentPad*%
%ADD23R,1.150000X1.150000*%
%TD*%
%TA.AperFunction,ComponentPad*%
%ADD24C,1.150000*%
%TD*%
%TA.AperFunction,ComponentPad*%
%ADD25R,1.600000X1.600000*%
%TD*%
%TA.AperFunction,ComponentPad*%
%ADD26R,1.500000X1.050000*%
%TD*%
%TA.AperFunction,ComponentPad*%
%ADD27O,1.500000X1.050000*%
%TD*%
%TA.AperFunction,ComponentPad*%
%ADD28C,1.440000*%
%TD*%
%TA.AperFunction,ComponentPad*%
%ADD29R,2.200000X2.200000*%
%TD*%
%TA.AperFunction,ComponentPad*%
%ADD30O,2.200000X2.200000*%
%TD*%
%TA.AperFunction,ComponentPad*%
%ADD31R,1.500000X1.500000*%
%TD*%
%TA.AperFunction,ComponentPad*%
%ADD32C,1.500000*%
%TD*%
%TA.AperFunction,ComponentPad*%
%ADD33C,2.100000*%
%TD*%
%TA.AperFunction,ComponentPad*%
%ADD34R,1.130000X1.130000*%
%TD*%
%TA.AperFunction,ComponentPad*%
%ADD35C,1.130000*%
%TD*%
%TA.AperFunction,ViaPad*%
%ADD36C,0.800000*%
%TD*%
%TA.AperFunction,Conductor*%
%ADD37C,0.250000*%
%TD*%
G04 APERTURE END LIST*
D10*
%TO.N,+3V3*%
%TO.C,C1*%
X60639800Y-87766900D03*
%TO.N,GND*%
X60639800Y-95266900D03*
%TD*%
%TO.N,/Zone1IO/ZoneInput*%
%TO.C,C2*%
X89233000Y-68419700D03*
%TO.N,GND*%
X89233000Y-73419700D03*
%TD*%
%TO.N,/Zone2IO/ZoneInput*%
%TO.C,C3*%
X119573600Y-63585000D03*
%TO.N,GND*%
X119573600Y-68585000D03*
%TD*%
%TO.N,/Zone3IO/ZoneInput*%
%TO.C,C4*%
X151481900Y-65398300D03*
%TO.N,GND*%
X151481900Y-70398300D03*
%TD*%
D11*
%TO.N,/Zone1IO/ZoneOutput*%
%TO.C,D3*%
X83185000Y-83820000D03*
D12*
%TO.N,GND*%
X83185000Y-68580000D03*
%TD*%
D11*
%TO.N,/Zone2IO/ZoneOutput*%
%TO.C,D5*%
X113665000Y-83820000D03*
D12*
%TO.N,GND*%
X113665000Y-68580000D03*
%TD*%
D11*
%TO.N,/Zone4IO/ZoneOutput*%
%TO.C,D7*%
X174625000Y-83820000D03*
D12*
%TO.N,GND*%
X174625000Y-68580000D03*
%TD*%
D11*
%TO.N,/Zone3IO/ZoneOutput*%
%TO.C,D9*%
X144145000Y-83820000D03*
D12*
%TO.N,GND*%
X144145000Y-68580000D03*
%TD*%
D13*
%TO.N,Net-(D1-Pad1)*%
%TO.C,D1*%
X129843800Y-123232100D03*
D14*
%TO.N,D21*%
X127303800Y-123232100D03*
%TD*%
D15*
%TO.N,+3V3*%
%TO.C,J2*%
X66040000Y-120650000D03*
D16*
X66040000Y-123190000D03*
%TO.N,EN*%
X68580000Y-120650000D03*
X68580000Y-123190000D03*
%TO.N,D36*%
X71120000Y-120650000D03*
X71120000Y-123190000D03*
%TO.N,D39*%
X73660000Y-120650000D03*
X73660000Y-123190000D03*
%TO.N,D34*%
X76200000Y-120650000D03*
X76200000Y-123190000D03*
%TO.N,D35*%
X78740000Y-120650000D03*
X78740000Y-123190000D03*
%TO.N,D32*%
X81280000Y-120650000D03*
X81280000Y-123190000D03*
%TO.N,D33*%
X83820000Y-120650000D03*
X83820000Y-123190000D03*
%TO.N,D25*%
X86360000Y-120650000D03*
X86360000Y-123190000D03*
%TO.N,D26*%
X88900000Y-120650000D03*
X88900000Y-123190000D03*
%TO.N,D27*%
X91440000Y-120650000D03*
X91440000Y-123190000D03*
%TO.N,D14*%
X93980000Y-120650000D03*
X93980000Y-123190000D03*
%TO.N,D12*%
X96520000Y-120650000D03*
X96520000Y-123190000D03*
%TO.N,GND*%
X99060000Y-120650000D03*
X99060000Y-123190000D03*
%TO.N,unconnected-(J2-Pad29)*%
X101600000Y-120650000D03*
%TO.N,unconnected-(J2-Pad30)*%
X101600000Y-123190000D03*
%TO.N,unconnected-(J2-Pad31)*%
X104140000Y-120650000D03*
%TO.N,unconnected-(J2-Pad32)*%
X104140000Y-123190000D03*
%TO.N,unconnected-(J2-Pad33)*%
X106680000Y-120650000D03*
%TO.N,unconnected-(J2-Pad34)*%
X106680000Y-123190000D03*
%TO.N,unconnected-(J2-Pad35)*%
X109220000Y-120650000D03*
%TO.N,unconnected-(J2-Pad36)*%
X109220000Y-123190000D03*
%TO.N,+5V*%
X111760000Y-120650000D03*
X111760000Y-123190000D03*
%TD*%
D15*
%TO.N,GND*%
%TO.C,J3*%
X66040000Y-97790000D03*
D16*
%TO.N,D23*%
X68580000Y-97790000D03*
%TO.N,D22*%
X71120000Y-97790000D03*
%TO.N,TX*%
X73660000Y-97790000D03*
%TO.N,RX*%
X76200000Y-97790000D03*
%TO.N,D21*%
X78740000Y-97790000D03*
%TO.N,GND*%
X81280000Y-97790000D03*
%TO.N,D19*%
X83820000Y-97790000D03*
%TO.N,D18*%
X86360000Y-97790000D03*
%TO.N,D5*%
X88900000Y-97790000D03*
%TO.N,D17*%
X91440000Y-97790000D03*
%TO.N,D16*%
X93980000Y-97790000D03*
%TO.N,D4*%
X96520000Y-97790000D03*
%TO.N,D0*%
X99060000Y-97790000D03*
%TO.N,D2*%
X101600000Y-97790000D03*
%TO.N,D15*%
X104140000Y-97790000D03*
%TO.N,/SD1*%
X106680000Y-97790000D03*
%TO.N,/SDD*%
X109220000Y-97790000D03*
%TO.N,/CLK*%
X111760000Y-97790000D03*
%TD*%
D10*
%TO.N,Net-(D10-Pad1)*%
%TO.C,L1*%
X153734500Y-101869000D03*
D17*
%TO.N,+5V*%
X153734500Y-112029000D03*
%TD*%
D11*
%TO.N,Net-(P1-Pad1)*%
%TO.C,P1*%
X184150000Y-82550000D03*
D18*
%TO.N,GND*%
X184150000Y-77470000D03*
%TD*%
D19*
%TO.N,Net-(Q3-Pad1)*%
%TO.C,Q3*%
X71813700Y-81139600D03*
D20*
%TO.N,/Zone1IO/ZoneOutput*%
X69273700Y-81139600D03*
%TO.N,+VDC*%
X66733700Y-81139600D03*
%TD*%
D19*
%TO.N,Net-(Q6-Pad1)*%
%TO.C,Q6*%
X101232600Y-81027600D03*
D20*
%TO.N,/Zone2IO/ZoneOutput*%
X98692600Y-81027600D03*
%TO.N,+VDC*%
X96152600Y-81027600D03*
%TD*%
D21*
%TO.N,GND*%
%TO.C,Q7*%
X93346300Y-104626700D03*
D22*
%TO.N,/Zone3IO/ZoneInput*%
X94616300Y-104626700D03*
%TO.N,Net-(D6-Pad1)*%
X95886300Y-104626700D03*
%TD*%
D19*
%TO.N,Net-(Q9-Pad1)*%
%TO.C,Q9*%
X131209700Y-81027600D03*
D20*
%TO.N,/Zone3IO/ZoneOutput*%
X128669700Y-81027600D03*
%TO.N,+VDC*%
X126129700Y-81027600D03*
%TD*%
D19*
%TO.N,Net-(Q12-Pad1)*%
%TO.C,Q12*%
X162353200Y-81027600D03*
D20*
%TO.N,/Zone4IO/ZoneOutput*%
X159813200Y-81027600D03*
%TO.N,+VDC*%
X157273200Y-81027600D03*
%TD*%
D19*
%TO.N,Net-(Q13-Pad1)*%
%TO.C,Q13*%
X184255500Y-92650400D03*
D20*
%TO.N,Net-(P1-Pad1)*%
X186795500Y-92650400D03*
%TO.N,Net-(Q13-Pad3)*%
X189335500Y-92650400D03*
%TD*%
D10*
%TO.N,+3V3*%
%TO.C,R1*%
X47627000Y-83085000D03*
D17*
%TO.N,D22*%
X45087000Y-83085000D03*
%TD*%
D11*
%TO.N,/Zone2IO/ZoneInput*%
%TO.C,Z2*%
X106680000Y-69850000D03*
D18*
%TO.N,/Zone2IO/ZoneOutput*%
X101600000Y-69850000D03*
%TO.N,GND*%
X96520000Y-69850000D03*
%TD*%
D11*
%TO.N,/Zone3IO/ZoneInput*%
%TO.C,Z3*%
X137160000Y-69850000D03*
D18*
%TO.N,/Zone3IO/ZoneOutput*%
X132080000Y-69850000D03*
%TO.N,GND*%
X127000000Y-69850000D03*
%TD*%
D11*
%TO.N,/Zone4IO/ZoneInput*%
%TO.C,Z4*%
X167640000Y-69850000D03*
D18*
%TO.N,/Zone4IO/ZoneOutput*%
X162560000Y-69850000D03*
%TO.N,GND*%
X157480000Y-69850000D03*
%TD*%
D11*
%TO.N,/Zone1IO/ZoneInput*%
%TO.C,Z1*%
X76200000Y-69850000D03*
D18*
%TO.N,/Zone1IO/ZoneOutput*%
X71120000Y-69850000D03*
%TO.N,GND*%
X66040000Y-69850000D03*
%TD*%
D15*
%TO.N,+VDC*%
%TO.C,J1*%
X170349000Y-121042300D03*
D16*
%TO.N,+3V3*%
X170349000Y-123582300D03*
%TO.N,+VDC*%
X167809000Y-121042300D03*
%TO.N,AuxVoltage*%
X167809000Y-123582300D03*
%TO.N,+VDC*%
X165269000Y-121042300D03*
%TO.N,D23*%
X165269000Y-123582300D03*
%TO.N,+VDC*%
X162729000Y-121042300D03*
%TO.N,D19*%
X162729000Y-123582300D03*
%TO.N,+VDC*%
X160189000Y-121042300D03*
%TO.N,D18*%
X160189000Y-123582300D03*
%TO.N,+5V*%
X157649000Y-121042300D03*
%TO.N,D5*%
X157649000Y-123582300D03*
%TO.N,+5V*%
X155109000Y-121042300D03*
%TO.N,D35*%
X155109000Y-123582300D03*
%TO.N,+5V*%
X152569000Y-121042300D03*
%TO.N,D32*%
X152569000Y-123582300D03*
%TO.N,GND*%
X150029000Y-121042300D03*
%TO.N,D33*%
X150029000Y-123582300D03*
%TO.N,GND*%
X147489000Y-121042300D03*
%TO.N,D25*%
X147489000Y-123582300D03*
%TO.N,GND*%
X144949000Y-121042300D03*
%TO.N,D21*%
X144949000Y-123582300D03*
%TO.N,GND*%
X142409000Y-121042300D03*
%TO.N,D4*%
X142409000Y-123582300D03*
%TO.N,GND*%
X139869000Y-121042300D03*
%TO.N,D0*%
X139869000Y-123582300D03*
%TO.N,GND*%
X137329000Y-121042300D03*
%TO.N,TX*%
X137329000Y-123582300D03*
%TO.N,GND*%
X134789000Y-121042300D03*
%TO.N,RX*%
X134789000Y-123582300D03*
%TD*%
D23*
%TO.N,+VDC*%
%TO.C,Z5*%
X64916500Y-86155400D03*
D24*
%TO.N,Net-(Q3-Pad1)*%
X75616500Y-86155400D03*
%TD*%
D23*
%TO.N,+VDC*%
%TO.C,Z6*%
X95542500Y-86196000D03*
D24*
%TO.N,Net-(Q6-Pad1)*%
X106242500Y-86196000D03*
%TD*%
D23*
%TO.N,+VDC*%
%TO.C,Z8*%
X156688300Y-85864200D03*
D24*
%TO.N,Net-(Q12-Pad1)*%
X167388300Y-85864200D03*
%TD*%
D25*
%TO.N,+VDC*%
%TO.C,C8*%
X169824100Y-92075800D03*
D10*
%TO.N,GND*%
X166324100Y-92075800D03*
%TD*%
D21*
%TO.N,GND*%
%TO.C,Q4*%
X87748400Y-104639800D03*
D22*
%TO.N,/Zone2IO/ZoneInput*%
X89018400Y-104639800D03*
%TO.N,Net-(D4-Pad1)*%
X90288400Y-104639800D03*
%TD*%
D10*
%TO.N,+VDC*%
%TO.C,R23*%
X75572300Y-105627200D03*
D17*
%TO.N,Net-(IC3-Pad3)*%
X73032300Y-105627200D03*
%TD*%
D10*
%TO.N,+3V3*%
%TO.C,R31*%
X88097100Y-113124500D03*
D17*
%TO.N,D27*%
X88097100Y-115664500D03*
%TD*%
D10*
%TO.N,Net-(Q9-Pad1)*%
%TO.C,R16*%
X131901400Y-89145900D03*
D17*
%TO.N,Net-(Q8-Pad3)*%
X134441400Y-89145900D03*
%TD*%
D26*
%TO.N,GND*%
%TO.C,Q2*%
X77198800Y-80576600D03*
D27*
%TO.N,D17*%
X77198800Y-81846600D03*
%TO.N,Net-(Q2-Pad3)*%
X77198800Y-83116600D03*
%TD*%
D10*
%TO.N,Net-(IC3-Pad3)*%
%TO.C,R24*%
X73376700Y-108765100D03*
D17*
%TO.N,GND*%
X75916700Y-108765100D03*
%TD*%
D10*
%TO.N,/Zone1IO/ZoneInput*%
%TO.C,R5*%
X88607500Y-78728900D03*
D17*
%TO.N,GND*%
X91147500Y-78728900D03*
%TD*%
D28*
%TO.N,AuxVoltage*%
%TO.C,RV1*%
X117879100Y-95318800D03*
%TO.N,Net-(IC3-Pad5)*%
X120419100Y-95318800D03*
%TO.N,GND*%
X122959100Y-95318800D03*
%TD*%
D15*
%TO.N,AuxVoltage*%
%TO.C,J4*%
X120030900Y-90244000D03*
%TD*%
D10*
%TO.N,+VDC*%
%TO.C,R15*%
X126738500Y-89152400D03*
D17*
%TO.N,Net-(Q9-Pad1)*%
X129278500Y-89152400D03*
%TD*%
D10*
%TO.N,+3V3*%
%TO.C,R2*%
X56109000Y-83011900D03*
D17*
%TO.N,D21*%
X53569000Y-83011900D03*
%TD*%
D10*
%TO.N,/Zone4IO/ZoneInput*%
%TO.C,R17*%
X179540300Y-68202800D03*
D17*
%TO.N,GND*%
X179540300Y-70742800D03*
%TD*%
D10*
%TO.N,Net-(D1-Pad1)*%
%TO.C,R4*%
X110094700Y-115764800D03*
D17*
%TO.N,GND*%
X107554700Y-115764800D03*
%TD*%
D10*
%TO.N,D2*%
%TO.C,R18*%
X174293400Y-87283100D03*
D17*
%TO.N,GND*%
X176833400Y-87283100D03*
%TD*%
D10*
%TO.N,+3V3*%
%TO.C,R29*%
X143781000Y-113326100D03*
D17*
%TO.N,Net-(IC4-Pad1)*%
X141241000Y-113326100D03*
%TD*%
D10*
%TO.N,D36*%
%TO.C,R25*%
X75859900Y-114068500D03*
D17*
%TO.N,GND*%
X75859900Y-111528500D03*
%TD*%
D10*
%TO.N,+3V3*%
%TO.C,R33*%
X97677800Y-113124500D03*
D17*
%TO.N,D12*%
X97677800Y-115664500D03*
%TD*%
D10*
%TO.N,D15*%
%TO.C,R14*%
X137097400Y-89165200D03*
D17*
%TO.N,GND*%
X139637400Y-89165200D03*
%TD*%
D26*
%TO.N,GND*%
%TO.C,Q11*%
X167811500Y-80303000D03*
D27*
%TO.N,D2*%
X167811500Y-81573000D03*
%TO.N,Net-(Q11-Pad3)*%
X167811500Y-82843000D03*
%TD*%
D10*
%TO.N,+3V3*%
%TO.C,R27*%
X143781000Y-103747400D03*
D17*
%TO.N,Net-(IC4-Pad5)*%
X141241000Y-103747400D03*
%TD*%
D29*
%TO.N,Net-(D4-Pad1)*%
%TO.C,D4*%
X115020300Y-111761400D03*
D30*
%TO.N,/InputIsolation/2in*%
X125180300Y-111761400D03*
%TD*%
D29*
%TO.N,Net-(D2-Pad1)*%
%TO.C,D2*%
X115020300Y-116670800D03*
D30*
%TO.N,/InputIsolation/1in*%
X125180300Y-116670800D03*
%TD*%
D31*
%TO.N,unconnected-(S1-Pad1)*%
%TO.C,S1*%
X115616200Y-120523800D03*
D32*
%TO.N,+3V3*%
X122116200Y-120523800D03*
%TO.N,unconnected-(S1-Pad3)*%
X115616200Y-125023800D03*
%TO.N,D22*%
X122116200Y-125023800D03*
%TD*%
D10*
%TO.N,/Zone2IO/ZoneInput*%
%TO.C,R9*%
X118582200Y-73133700D03*
D17*
%TO.N,GND*%
X121122200Y-73133700D03*
%TD*%
D10*
%TO.N,/Zone3IO/ZoneInput*%
%TO.C,R13*%
X149911000Y-75702800D03*
D17*
%TO.N,GND*%
X152451000Y-75702800D03*
%TD*%
D10*
%TO.N,D17*%
%TO.C,R6*%
X78100900Y-89073600D03*
D17*
%TO.N,GND*%
X80640900Y-89073600D03*
%TD*%
D10*
%TO.N,+VDC*%
%TO.C,R11*%
X97552100Y-89073600D03*
D17*
%TO.N,Net-(Q6-Pad1)*%
X100092100Y-89073600D03*
%TD*%
D10*
%TO.N,+VDC*%
%TO.C,R7*%
X67716100Y-89073600D03*
D17*
%TO.N,Net-(Q3-Pad1)*%
X70256100Y-89073600D03*
%TD*%
D33*
%TO.N,+VDC*%
%TO.C,U2*%
X173962900Y-101543100D03*
X177462900Y-101543100D03*
%TO.N,Net-(Q13-Pad3)*%
X183262900Y-101543100D03*
X186762900Y-101543100D03*
X186762900Y-99043100D03*
X183262900Y-99043100D03*
%TO.N,+VDC*%
X177462900Y-99043100D03*
X173962900Y-99043100D03*
%TD*%
D21*
%TO.N,GND*%
%TO.C,Q10*%
X98978100Y-104626700D03*
D22*
%TO.N,/Zone4IO/ZoneInput*%
X100248100Y-104626700D03*
%TO.N,Net-(D8-Pad1)*%
X101518100Y-104626700D03*
%TD*%
D29*
%TO.N,Net-(D8-Pad1)*%
%TO.C,D8*%
X115020300Y-101942700D03*
D30*
%TO.N,/InputIsolation/4in*%
X125180300Y-101942700D03*
%TD*%
D34*
%TO.N,D36*%
%TO.C,IC3*%
X70520600Y-114579500D03*
D35*
X70520600Y-112039500D03*
%TO.N,Net-(IC3-Pad3)*%
X70520600Y-109499500D03*
%TO.N,GND*%
X70520600Y-106959500D03*
%TO.N,Net-(IC3-Pad5)*%
X62580600Y-106959500D03*
%TO.N,D34*%
X62580600Y-109499500D03*
X62580600Y-112039500D03*
%TO.N,+3V3*%
X62580600Y-114579500D03*
%TD*%
D21*
%TO.N,GND*%
%TO.C,Q1*%
X82152400Y-104644400D03*
D22*
%TO.N,/Zone1IO/ZoneInput*%
X83422400Y-104644400D03*
%TO.N,Net-(D2-Pad1)*%
X84692400Y-104644400D03*
%TD*%
D10*
%TO.N,+3V3*%
%TO.C,R26*%
X143781000Y-98958100D03*
D17*
%TO.N,Net-(IC4-Pad7)*%
X141241000Y-98958100D03*
%TD*%
D10*
%TO.N,Net-(Q3-Pad1)*%
%TO.C,R8*%
X72922600Y-89073600D03*
D17*
%TO.N,Net-(Q2-Pad3)*%
X75462600Y-89073600D03*
%TD*%
D26*
%TO.N,GND*%
%TO.C,Q8*%
X137666600Y-80582900D03*
D27*
%TO.N,D15*%
X137666600Y-81852900D03*
%TO.N,Net-(Q8-Pad3)*%
X137666600Y-83122900D03*
%TD*%
D26*
%TO.N,GND*%
%TO.C,Q5*%
X106797400Y-80509200D03*
D27*
%TO.N,D16*%
X106797400Y-81779200D03*
%TO.N,Net-(Q5-Pad3)*%
X106797400Y-83049200D03*
%TD*%
D29*
%TO.N,Net-(D10-Pad1)*%
%TO.C,D10*%
X156010100Y-98662200D03*
D30*
%TO.N,GND*%
X166170100Y-98662200D03*
%TD*%
D10*
%TO.N,/Zone4IO/ZoneInput*%
%TO.C,C5*%
X151434400Y-83634400D03*
%TO.N,GND*%
X151434400Y-78634400D03*
%TD*%
%TO.N,Net-(Q13-Pad1)*%
%TO.C,R21*%
X174560200Y-93313200D03*
D17*
%TO.N,GND*%
X177100200Y-93313200D03*
%TD*%
D25*
%TO.N,+5V*%
%TO.C,C9*%
X149612600Y-93906000D03*
D10*
%TO.N,GND*%
X153112600Y-93906000D03*
%TD*%
%TO.N,D22*%
%TO.C,R3*%
X110228300Y-110918500D03*
D17*
%TO.N,GND*%
X107688300Y-110918500D03*
%TD*%
D10*
%TO.N,+3V3*%
%TO.C,R30*%
X83306700Y-113124500D03*
D17*
%TO.N,D26*%
X83306700Y-115664500D03*
%TD*%
D10*
%TO.N,Net-(Q6-Pad1)*%
%TO.C,R12*%
X102726700Y-89051400D03*
D17*
%TO.N,Net-(Q5-Pad3)*%
X105266700Y-89051400D03*
%TD*%
D10*
%TO.N,+VDC*%
%TO.C,R22*%
X156900200Y-105717700D03*
D17*
%TO.N,Net-(IC2-Pad1)*%
X156900200Y-108257700D03*
%TD*%
D10*
%TO.N,+3V3*%
%TO.C,R28*%
X143781000Y-108536800D03*
D17*
%TO.N,Net-(IC4-Pad3)*%
X141241000Y-108536800D03*
%TD*%
D10*
%TO.N,Net-(Q12-Pad1)*%
%TO.C,R20*%
X160583300Y-88731000D03*
D17*
%TO.N,Net-(Q11-Pad3)*%
X163123300Y-88731000D03*
%TD*%
D10*
%TO.N,+VDC*%
%TO.C,R19*%
X155220800Y-88780800D03*
D17*
%TO.N,Net-(Q12-Pad1)*%
X157760800Y-88780800D03*
%TD*%
D10*
%TO.N,D16*%
%TO.C,R10*%
X107928100Y-89045900D03*
D17*
%TO.N,GND*%
X110468100Y-89045900D03*
%TD*%
D10*
%TO.N,Net-(C7-Pad1)*%
%TO.C,C7*%
X165363200Y-102521700D03*
%TO.N,GND*%
X160363200Y-102521700D03*
%TD*%
D29*
%TO.N,Net-(D6-Pad1)*%
%TO.C,D6*%
X115020300Y-106852100D03*
D30*
%TO.N,/InputIsolation/3in*%
X125180300Y-106852100D03*
%TD*%
D10*
%TO.N,+3V3*%
%TO.C,R32*%
X92887500Y-113124500D03*
D17*
%TO.N,D14*%
X92887500Y-115664500D03*
%TD*%
D10*
%TO.N,Net-(C6-Pad1)*%
%TO.C,C6*%
X157062800Y-115652200D03*
%TO.N,GND*%
X157062800Y-110652200D03*
%TD*%
D23*
%TO.N,+VDC*%
%TO.C,Z7*%
X125092600Y-86196000D03*
D24*
%TO.N,Net-(Q9-Pad1)*%
X135792600Y-86196000D03*
%TD*%
D10*
%TO.N,D34*%
%TO.C,R34*%
X57889400Y-114568900D03*
D17*
%TO.N,GND*%
X60429400Y-114568900D03*
%TD*%
D36*
%TO.N,GND*%
X63320100Y-95266900D03*
X82068300Y-88771500D03*
X110683900Y-85495800D03*
X79589900Y-81706200D03*
X99046800Y-110141200D03*
X62014400Y-108229500D03*
X114502100Y-94249400D03*
%TO.N,+VDC*%
X69417600Y-95613200D03*
%TO.N,+3V3*%
X98610600Y-118847600D03*
X53649100Y-89037000D03*
%TO.N,Net-(D2-Pad1)*%
X111110500Y-112843400D03*
%TO.N,/InputIsolation/1in*%
X139575300Y-110371700D03*
%TO.N,/InputIsolation/2in*%
X139292800Y-106515800D03*
%TO.N,/InputIsolation/3in*%
X139582600Y-100287700D03*
%TO.N,/InputIsolation/4in*%
X138870800Y-93750000D03*
%TO.N,D39*%
X53883200Y-90997000D03*
X51258000Y-97858100D03*
%TO.N,/Zone3IO/ZoneInput*%
X112452200Y-107093700D03*
%TO.N,/Zone4IO/ZoneInput*%
X112781300Y-104784900D03*
%TO.N,D22*%
X75172600Y-102076300D03*
%TO.N,Net-(IC4-Pad3)*%
X136216800Y-107789400D03*
%TO.N,Net-(IC4-Pad5)*%
X136545100Y-101433800D03*
%TO.N,Net-(IC4-Pad7)*%
X136247400Y-98441600D03*
%TO.N,D12*%
X130476100Y-103576100D03*
%TO.N,D14*%
X131392100Y-108318600D03*
%TO.N,D27*%
X130585000Y-107132800D03*
%TO.N,D26*%
X121043800Y-118122300D03*
%TO.N,D23*%
X106931100Y-99936000D03*
%TO.N,D19*%
X134442600Y-91189400D03*
%TO.N,D18*%
X133666800Y-91971300D03*
%TO.N,D5*%
X115044700Y-99180100D03*
%TO.N,Net-(IC4-Pad1)*%
X137923300Y-114403700D03*
%TO.N,RX*%
X92027200Y-110124600D03*
X112796700Y-111734200D03*
%TO.N,D17*%
X85551100Y-87909600D03*
%TD*%
D37*
%TO.N,GND*%
X137666600Y-80582900D02*
X138741900Y-80582900D01*
X62014400Y-108229500D02*
X60429400Y-109814500D01*
X87662800Y-105800700D02*
X87748400Y-105715100D01*
X82883600Y-105800700D02*
X87662800Y-105800700D01*
X79589900Y-81706200D02*
X79589900Y-86293100D01*
X138741900Y-80582900D02*
X139637400Y-81478400D01*
X75354100Y-108765100D02*
X74791400Y-108765100D01*
X91839400Y-105715100D02*
X87748400Y-105715100D01*
X97052500Y-103551400D02*
X98127800Y-104626700D01*
X110683900Y-85495800D02*
X110468100Y-85711600D01*
X110468100Y-89045900D02*
X110468100Y-90171200D01*
X87748400Y-104639800D02*
X87748400Y-105715100D01*
X74791400Y-108765100D02*
X74791400Y-108483800D01*
X93346300Y-104626700D02*
X93346300Y-104208200D01*
X75859900Y-109270900D02*
X75859900Y-111528500D01*
X93346300Y-103551400D02*
X97052500Y-103551400D01*
X75916700Y-108765100D02*
X75354100Y-108765100D01*
X100235300Y-120282600D02*
X104753100Y-115764800D01*
X81280000Y-97790000D02*
X81280000Y-90838000D01*
X93346300Y-104208200D02*
X91839400Y-105715100D01*
X81280000Y-104622300D02*
X81280000Y-97790000D01*
X100235300Y-120650000D02*
X100235300Y-120282600D01*
X82152400Y-104644400D02*
X81727300Y-104644400D01*
X104753100Y-115764800D02*
X106429400Y-115764800D01*
X66040000Y-97790000D02*
X66040000Y-96614700D01*
X110468100Y-85711600D02*
X110468100Y-89045900D01*
X60429400Y-109814500D02*
X60429400Y-114568900D01*
X66040000Y-97790000D02*
X66040000Y-98965300D01*
X66040000Y-98965300D02*
X70520600Y-103445900D01*
X81727300Y-104644400D02*
X82883600Y-105800700D01*
X64667900Y-96614700D02*
X63320100Y-95266900D01*
X98553000Y-109647400D02*
X99046800Y-110141200D01*
X98553000Y-104626700D02*
X98127800Y-104626700D01*
X139637400Y-81478400D02*
X139637400Y-89165200D01*
X93346300Y-104208200D02*
X93346300Y-103551400D01*
X114502100Y-94205200D02*
X114502100Y-94249400D01*
X98553000Y-104626700D02*
X98553000Y-109647400D01*
X80640900Y-89073600D02*
X80640900Y-90198900D01*
X110468100Y-90171200D02*
X114502100Y-94205200D01*
X107554700Y-115764800D02*
X106429400Y-115764800D01*
X74791400Y-108483800D02*
X73267100Y-106959500D01*
X81727300Y-104644400D02*
X81302100Y-104644400D01*
X99060000Y-120650000D02*
X100235300Y-120650000D01*
X75354100Y-108765100D02*
X75859900Y-109270900D01*
X66040000Y-96614700D02*
X64667900Y-96614700D01*
X81302100Y-104644400D02*
X81280000Y-104622300D01*
X79589900Y-86293100D02*
X82068300Y-88771500D01*
X81280000Y-90838000D02*
X80640900Y-90198900D01*
X73267100Y-106959500D02*
X70520600Y-106959500D01*
X70520600Y-103445900D02*
X70520600Y-106959500D01*
X98978100Y-104626700D02*
X98553000Y-104626700D01*
%TO.N,+VDC*%
X75148400Y-105627200D02*
X75572300Y-105627200D01*
X69849300Y-96044900D02*
X69849300Y-100328100D01*
X69417600Y-95613200D02*
X69849300Y-96044900D01*
X69849300Y-100328100D02*
X75148400Y-105627200D01*
%TO.N,+3V3*%
X60639800Y-87766900D02*
X65727900Y-92855000D01*
X47627000Y-83085000D02*
X50013800Y-85471800D01*
X83306700Y-111728000D02*
X83306700Y-113124500D01*
X65727900Y-92855000D02*
X68356300Y-92855000D01*
X50013800Y-85471800D02*
X53649100Y-85471800D01*
X72474200Y-100895500D02*
X83306700Y-111728000D01*
X66040000Y-123190000D02*
X66040000Y-120650000D01*
X72474200Y-96972900D02*
X72474200Y-100895500D01*
X62580600Y-116015300D02*
X66040000Y-119474700D01*
X66040000Y-120650000D02*
X66040000Y-119474700D01*
X92887500Y-113124500D02*
X98610600Y-118847600D01*
X53649100Y-85471800D02*
X56109000Y-83011900D01*
X53649100Y-89037000D02*
X53649100Y-85471800D01*
X62580600Y-114579500D02*
X62580600Y-116015300D01*
X68356300Y-92855000D02*
X72474200Y-96972900D01*
%TO.N,Net-(D2-Pad1)*%
X113595000Y-115327900D02*
X113595000Y-116670800D01*
X115020300Y-116670800D02*
X113595000Y-116670800D01*
X111110500Y-112843400D02*
X113595000Y-115327900D01*
%TO.N,/InputIsolation/3in*%
X129840100Y-106852000D02*
X129840100Y-106852100D01*
X129840100Y-106852100D02*
X125180300Y-106852100D01*
X136404400Y-100287700D02*
X129840100Y-106852000D01*
X139582600Y-100287700D02*
X136404400Y-100287700D01*
%TO.N,/InputIsolation/4in*%
X130678100Y-101942700D02*
X138870800Y-93750000D01*
X125180300Y-101942700D02*
X130678100Y-101942700D01*
%TO.N,D39*%
X73660000Y-120650000D02*
X73660000Y-119474700D01*
X67993000Y-105106800D02*
X67993000Y-113807700D01*
X53883200Y-90997000D02*
X67993000Y-105106800D01*
X67993000Y-113807700D02*
X73660000Y-119474700D01*
X53883200Y-95232900D02*
X53883200Y-90997000D01*
X51258000Y-97858100D02*
X53883200Y-95232900D01*
%TO.N,D21*%
X115234000Y-113576800D02*
X119349600Y-117692400D01*
X78152400Y-102395200D02*
X82284300Y-106527100D01*
X103670600Y-110870400D02*
X104800300Y-109740700D01*
X112071400Y-112034600D02*
X113613600Y-113576800D01*
X53569000Y-83011900D02*
X54694300Y-83011900D01*
X119349600Y-117692400D02*
X119349600Y-119348800D01*
X55575300Y-81849600D02*
X54694300Y-82730600D01*
X56588400Y-81849600D02*
X55575300Y-81849600D01*
X123232900Y-123232100D02*
X127303800Y-123232100D01*
X70490700Y-90348600D02*
X65087400Y-90348600D01*
X119349600Y-119348800D02*
X123232900Y-123232100D01*
X78152400Y-97790000D02*
X78152400Y-102395200D01*
X94225600Y-106527100D02*
X98568900Y-110870400D01*
X113613600Y-113576800D02*
X115234000Y-113576800D01*
X77564700Y-97422600D02*
X70490700Y-90348600D01*
X104800300Y-109740700D02*
X110677900Y-109740700D01*
X78152400Y-97790000D02*
X77564700Y-97790000D01*
X110677900Y-109740700D02*
X112071400Y-111134200D01*
X82284300Y-106527100D02*
X94225600Y-106527100D01*
X77564700Y-97790000D02*
X77564700Y-97422600D01*
X65087400Y-90348600D02*
X56588400Y-81849600D01*
X98568900Y-110870400D02*
X103670600Y-110870400D01*
X78740000Y-97790000D02*
X78152400Y-97790000D01*
X112071400Y-111134200D02*
X112071400Y-112034600D01*
X54694300Y-82730600D02*
X54694300Y-83011900D01*
%TO.N,Net-(Q2-Pad3)*%
X75462600Y-87948300D02*
X77198800Y-86212100D01*
X75462600Y-89073600D02*
X75462600Y-87948300D01*
X77198800Y-86212100D02*
X77198800Y-83116600D01*
%TO.N,/Zone1IO/ZoneInput*%
X77825300Y-69850000D02*
X78216700Y-70241400D01*
X82644600Y-89406800D02*
X88607500Y-83443900D01*
X88090300Y-70241400D02*
X88090300Y-69562400D01*
X88090300Y-78211700D02*
X88090300Y-70241400D01*
X88607500Y-83443900D02*
X88607500Y-78728900D01*
X82644600Y-98704000D02*
X82644600Y-89406800D01*
X88090300Y-69562400D02*
X89233000Y-68419700D01*
X78216700Y-70241400D02*
X88090300Y-70241400D01*
X83422400Y-104644400D02*
X83422400Y-99481800D01*
X83422400Y-99481800D02*
X82644600Y-98704000D01*
X76200000Y-69850000D02*
X77825300Y-69850000D01*
X88607500Y-78728900D02*
X88090300Y-78211700D01*
%TO.N,/Zone2IO/ZoneInput*%
X118431600Y-72983100D02*
X118431600Y-64727000D01*
X118582200Y-73133700D02*
X118431600Y-72983100D01*
X92728600Y-99854300D02*
X92728600Y-92275700D01*
X92728600Y-92275700D02*
X106680000Y-78324300D01*
X89018400Y-104639800D02*
X89018400Y-103564500D01*
X89018400Y-103564500D02*
X92728600Y-99854300D01*
X118431600Y-64727000D02*
X119573600Y-63585000D01*
X106680000Y-78324300D02*
X106680000Y-69850000D01*
%TO.N,/Zone3IO/ZoneInput*%
X149911000Y-75702800D02*
X149911000Y-70215400D01*
X149911000Y-66969200D02*
X151481900Y-65398300D01*
X137160000Y-69850000D02*
X135466900Y-69850000D01*
X115508100Y-96211400D02*
X112056000Y-99663500D01*
X112056000Y-99663500D02*
X112056000Y-106697500D01*
X149911000Y-70215400D02*
X149911000Y-66969200D01*
X135466900Y-69850000D02*
X115508100Y-89808800D01*
X112056000Y-106697500D02*
X112452200Y-107093700D01*
X138785300Y-69850000D02*
X139150700Y-70215400D01*
X115508100Y-89808800D02*
X115508100Y-96211400D01*
X137160000Y-69850000D02*
X138785300Y-69850000D01*
X139150700Y-70215400D02*
X149911000Y-70215400D01*
%TO.N,/Zone4IO/ZoneInput*%
X147532500Y-79732500D02*
X134885300Y-79732500D01*
X112781300Y-100293700D02*
X112781300Y-104784900D01*
X165218800Y-69850000D02*
X167640000Y-69850000D01*
X151434400Y-83634400D02*
X165218800Y-69850000D01*
X120154300Y-87924100D02*
X116833800Y-91244600D01*
X126693700Y-87924100D02*
X120154300Y-87924100D01*
X116833800Y-91244600D02*
X116833800Y-96241200D01*
X116833800Y-96241200D02*
X112781300Y-100293700D01*
X151434400Y-83634400D02*
X147532500Y-79732500D01*
X134885300Y-79732500D02*
X126693700Y-87924100D01*
%TO.N,D22*%
X118469800Y-121377400D02*
X122116200Y-125023800D01*
X113943700Y-114633900D02*
X115649800Y-114633900D01*
X71120000Y-96289500D02*
X71120000Y-97790000D01*
X115649800Y-114633900D02*
X118469800Y-117453900D01*
X110228300Y-110918500D02*
X113943700Y-114633900D01*
X69212500Y-94382000D02*
X71120000Y-96289500D01*
X60148200Y-89900000D02*
X64630200Y-94382000D01*
X47608300Y-84660600D02*
X48065600Y-84660600D01*
X45087000Y-83085000D02*
X46212300Y-83085000D01*
X118469800Y-117453900D02*
X118469800Y-121377400D01*
X46212300Y-83264600D02*
X47608300Y-84660600D01*
X46212300Y-83085000D02*
X46212300Y-83264600D01*
X48065600Y-84660600D02*
X53305000Y-89900000D01*
X53305000Y-89900000D02*
X60148200Y-89900000D01*
X64630200Y-94382000D02*
X69212500Y-94382000D01*
%TO.N,Net-(IC4-Pad3)*%
X141241000Y-108536800D02*
X140115700Y-108536800D01*
X140115700Y-108536800D02*
X139368300Y-107789400D01*
X139368300Y-107789400D02*
X136216800Y-107789400D01*
%TO.N,D27*%
X88097100Y-116789800D02*
X90782000Y-119474700D01*
X90782000Y-119474700D02*
X91440000Y-119474700D01*
X88097100Y-115664500D02*
X88097100Y-116789800D01*
X91440000Y-120650000D02*
X91440000Y-119474700D01*
X91440000Y-123190000D02*
X91440000Y-120650000D01*
%TO.N,D26*%
X84432000Y-115664500D02*
X88242200Y-119474700D01*
X88900000Y-120650000D02*
X88900000Y-119474700D01*
X88900000Y-123190000D02*
X88900000Y-120650000D01*
X83306700Y-115664500D02*
X84432000Y-115664500D01*
X88242200Y-119474700D02*
X88900000Y-119474700D01*
%TO.N,D23*%
X123003000Y-108389500D02*
X112722300Y-108389500D01*
X151299000Y-120640900D02*
X148589200Y-117931100D01*
X152061900Y-124757700D02*
X151299000Y-123994800D01*
X139337300Y-117931100D02*
X130246100Y-108839900D01*
X151299000Y-123994800D02*
X151299000Y-120640900D01*
X163285600Y-124757700D02*
X152061900Y-124757700D01*
X106931100Y-102598300D02*
X106931100Y-99936000D01*
X130246100Y-108839900D02*
X123453400Y-108839900D01*
X164093700Y-123949600D02*
X163285600Y-124757700D01*
X165269000Y-123582300D02*
X164093700Y-123582300D01*
X123453400Y-108839900D02*
X123003000Y-108389500D01*
X112722300Y-108389500D02*
X106931100Y-102598300D01*
X148589200Y-117931100D02*
X139337300Y-117931100D01*
X164093700Y-123582300D02*
X164093700Y-123949600D01*
%TO.N,D19*%
X162729000Y-122407000D02*
X162361600Y-122407000D01*
X162729000Y-123582300D02*
X162729000Y-122407000D01*
X161553700Y-118256500D02*
X145564500Y-102267300D01*
X161553700Y-121599100D02*
X161553700Y-118256500D01*
X145564500Y-98598500D02*
X138155400Y-91189400D01*
X145564500Y-102267300D02*
X145564500Y-98598500D01*
X138155400Y-91189400D02*
X134442600Y-91189400D01*
X162361600Y-122407000D02*
X161553700Y-121599100D01*
%TO.N,Net-(Q13-Pad1)*%
X184255500Y-92650400D02*
X182970200Y-92650400D01*
X174560200Y-93313200D02*
X175708000Y-92165400D01*
X182485200Y-92165400D02*
X182970200Y-92650400D01*
X175708000Y-92165400D02*
X182485200Y-92165400D01*
%TO.N,Net-(Q5-Pad3)*%
X106797400Y-83899500D02*
X105266700Y-85430200D01*
X106797400Y-83049200D02*
X106797400Y-83899500D01*
X105266700Y-85430200D02*
X105266700Y-89051400D01*
%TO.N,Net-(Q11-Pad3)*%
X163123300Y-87605700D02*
X163899100Y-87605700D01*
X163123300Y-88731000D02*
X163123300Y-87605700D01*
X167811500Y-82843000D02*
X167811500Y-83693300D01*
X163899100Y-87605700D02*
X167811500Y-83693300D01*
%TO.N,Net-(Q8-Pad3)*%
X137666600Y-85639400D02*
X135285400Y-88020600D01*
X137666600Y-83122900D02*
X137666600Y-85639400D01*
X134441400Y-89145900D02*
X134441400Y-88020600D01*
X135285400Y-88020600D02*
X134441400Y-88020600D01*
%TO.N,D18*%
X159013700Y-119243200D02*
X145564500Y-105794000D01*
X144247400Y-101015800D02*
X144247300Y-101015800D01*
X160189000Y-122407000D02*
X159821600Y-122407000D01*
X144247300Y-101015800D02*
X142655700Y-99424200D01*
X142655700Y-96433100D02*
X138193900Y-91971300D01*
X144247400Y-101990500D02*
X144247400Y-101015800D01*
X159013700Y-121599100D02*
X159013700Y-119243200D01*
X159821600Y-122407000D02*
X159013700Y-121599100D01*
X142655700Y-99424200D02*
X142655700Y-96433100D01*
X138193900Y-91971300D02*
X133666800Y-91971300D01*
X160189000Y-123582300D02*
X160189000Y-122407000D01*
X145564500Y-103307600D02*
X144247400Y-101990500D01*
X145564500Y-105794000D02*
X145564500Y-103307600D01*
%TO.N,D5*%
X156473700Y-123582300D02*
X156473700Y-123214900D01*
X138429900Y-116385200D02*
X130377900Y-108333200D01*
X124197800Y-108333200D02*
X115044700Y-99180100D01*
X154772700Y-122407000D02*
X153839000Y-121473300D01*
X157649000Y-123582300D02*
X156473700Y-123582300D01*
X153839000Y-121473300D02*
X153839000Y-120569700D01*
X156473700Y-123214900D02*
X155665800Y-122407000D01*
X149654500Y-116385200D02*
X138429900Y-116385200D01*
X130377900Y-108333200D02*
X124197800Y-108333200D01*
X155665800Y-122407000D02*
X154772700Y-122407000D01*
X153839000Y-120569700D02*
X149654500Y-116385200D01*
%TO.N,Net-(D1-Pad1)*%
X126205700Y-126104400D02*
X128618500Y-123691600D01*
X128618500Y-123691600D02*
X128618500Y-123232100D01*
X110094700Y-115764800D02*
X110094700Y-116983700D01*
X129843800Y-123232100D02*
X128618500Y-123232100D01*
X119215400Y-126104400D02*
X126205700Y-126104400D01*
X110094700Y-116983700D02*
X119215400Y-126104400D01*
%TO.N,Net-(IC4-Pad1)*%
X137923300Y-114403700D02*
X139038100Y-114403700D01*
X139038100Y-114403700D02*
X140115700Y-113326100D01*
X141241000Y-113326100D02*
X140115700Y-113326100D01*
%TO.N,D4*%
X97695300Y-97422600D02*
X98503200Y-96614700D01*
X112535800Y-108839900D02*
X122591200Y-108839900D01*
X102870000Y-99174100D02*
X112535800Y-108839900D01*
X102087400Y-96614700D02*
X102870000Y-97397300D01*
X142041600Y-122407000D02*
X142409000Y-122407000D01*
X96520000Y-97790000D02*
X97695300Y-97790000D01*
X97695300Y-97790000D02*
X97695300Y-97422600D01*
X141233700Y-120725800D02*
X141233700Y-121599100D01*
X141233700Y-121599100D02*
X142041600Y-122407000D01*
X102870000Y-97397300D02*
X102870000Y-99174100D01*
X129798100Y-109290200D02*
X141233700Y-120725800D01*
X98503200Y-96614700D02*
X102087400Y-96614700D01*
X122591200Y-108839900D02*
X123041500Y-109290200D01*
X123041500Y-109290200D02*
X129798100Y-109290200D01*
X142409000Y-123582300D02*
X142409000Y-122407000D01*
%TO.N,D0*%
X99060000Y-97790000D02*
X100235300Y-97790000D01*
X118619200Y-109290300D02*
X111368300Y-109290300D01*
X136059000Y-121473300D02*
X136059000Y-120632900D01*
X100235300Y-98157300D02*
X100235300Y-97790000D01*
X137885800Y-122407000D02*
X136992700Y-122407000D01*
X136992700Y-122407000D02*
X136059000Y-121473300D01*
X138693700Y-123582300D02*
X138693700Y-123214900D01*
X111368300Y-109290300D02*
X100235300Y-98157300D01*
X139869000Y-123582300D02*
X138693700Y-123582300D01*
X136059000Y-120632900D02*
X129040100Y-113614000D01*
X129040100Y-113614000D02*
X122942900Y-113614000D01*
X122942900Y-113614000D02*
X118619200Y-109290300D01*
X138693700Y-123214900D02*
X137885800Y-122407000D01*
%TO.N,TX*%
X86679100Y-108523400D02*
X92550200Y-114394500D01*
X97790000Y-118969400D02*
X97790000Y-121081000D01*
X73660000Y-98965300D02*
X73660000Y-99228900D01*
X93215100Y-114394500D02*
X97790000Y-118969400D01*
X73660000Y-99228900D02*
X82954500Y-108523400D01*
X82954500Y-108523400D02*
X86679100Y-108523400D01*
X97790000Y-121081000D02*
X98534400Y-121825400D01*
X92550200Y-114394500D02*
X93215100Y-114394500D01*
X119053900Y-126579800D02*
X133523500Y-126579800D01*
X73660000Y-97790000D02*
X73660000Y-98965300D01*
X133523500Y-126579800D02*
X136153700Y-123949600D01*
X114299500Y-121825400D02*
X119053900Y-126579800D01*
X136153700Y-123949600D02*
X136153700Y-123582300D01*
X137329000Y-123582300D02*
X136153700Y-123582300D01*
X98534400Y-121825400D02*
X114299500Y-121825400D01*
%TO.N,RX*%
X117896200Y-110336000D02*
X113749700Y-110336000D01*
X133613700Y-123068100D02*
X124713000Y-114167400D01*
X121727600Y-114167400D02*
X117896200Y-110336000D01*
X76200000Y-97790000D02*
X76200000Y-98965300D01*
X82605900Y-107513200D02*
X76200000Y-101107300D01*
X112796700Y-111289000D02*
X112796700Y-111734200D01*
X89415800Y-107513200D02*
X82605900Y-107513200D01*
X76200000Y-101107300D02*
X76200000Y-98965300D01*
X92027200Y-110124600D02*
X89415800Y-107513200D01*
X134789000Y-123582300D02*
X133613700Y-123582300D01*
X133613700Y-123582300D02*
X133613700Y-123068100D01*
X124713000Y-114167400D02*
X121727600Y-114167400D01*
X113749700Y-110336000D02*
X112796700Y-111289000D01*
%TO.N,D34*%
X73134300Y-121825300D02*
X74216800Y-121825300D01*
X76200000Y-123190000D02*
X76200000Y-120650000D01*
X62580600Y-112039500D02*
X64173700Y-112039500D01*
X72484600Y-120350400D02*
X72484600Y-121175600D01*
X75024700Y-121017400D02*
X75024700Y-120650000D01*
X74216800Y-121825300D02*
X75024700Y-121017400D01*
X64173700Y-112039500D02*
X72484600Y-120350400D01*
X76200000Y-120650000D02*
X75024700Y-120650000D01*
X72484600Y-121175600D02*
X73134300Y-121825300D01*
%TO.N,D17*%
X77198800Y-81846600D02*
X78274100Y-81846600D01*
X91440000Y-97790000D02*
X91440000Y-93798500D01*
X91440000Y-93798500D02*
X85551100Y-87909600D01*
X78274100Y-88900400D02*
X78274100Y-81846600D01*
X78100900Y-89073600D02*
X78274100Y-88900400D01*
%TO.N,D16*%
X95155300Y-97422600D02*
X95155300Y-97790000D01*
X93980000Y-97790000D02*
X95155300Y-97790000D01*
X96413500Y-96164400D02*
X95155300Y-97422600D01*
X107872700Y-88990500D02*
X100698800Y-96164400D01*
X107872700Y-81779200D02*
X107872700Y-88990500D01*
X106797400Y-81779200D02*
X107872700Y-81779200D01*
X100698800Y-96164400D02*
X96413500Y-96164400D01*
X107872700Y-88990500D02*
X107928100Y-89045900D01*
%TO.N,D2*%
X168886800Y-81876500D02*
X174293400Y-87283100D01*
X168886800Y-81573000D02*
X168886800Y-81876500D01*
X167811500Y-81573000D02*
X168886800Y-81573000D01*
%TO.N,D15*%
X138741900Y-81852900D02*
X138741900Y-87520700D01*
X138741900Y-87520700D02*
X137097400Y-89165200D01*
X137666600Y-81852900D02*
X138741900Y-81852900D01*
%TO.N,AuxVoltage*%
X146173800Y-101364400D02*
X146173800Y-98543500D01*
X120030900Y-91419300D02*
X117879100Y-93571100D01*
X166633700Y-121599100D02*
X166633700Y-120701700D01*
X120030900Y-90244000D02*
X120030900Y-90831600D01*
X117879100Y-93571100D02*
X117879100Y-95318800D01*
X164292600Y-118360600D02*
X163170000Y-118360600D01*
X167809000Y-122407000D02*
X167441600Y-122407000D01*
X146173800Y-98543500D02*
X138094400Y-90464100D01*
X120030900Y-90831600D02*
X120030900Y-91419300D01*
X163170000Y-118360600D02*
X146173800Y-101364400D01*
X166633700Y-120701700D02*
X164292600Y-118360600D01*
X167809000Y-123582300D02*
X167809000Y-122407000D01*
X167441600Y-122407000D02*
X166633700Y-121599100D01*
X138094400Y-90464100D02*
X120398400Y-90464100D01*
X120398400Y-90464100D02*
X120030900Y-90831600D01*
%TD*%
M02*
