%TF.GenerationSoftware,KiCad,Pcbnew,(6.0.0)*%
%TF.CreationDate,2022-02-01T19:12:32-08:00*%
%TF.ProjectId,MakeItRain,4d616b65-4974-4526-9169-6e2e6b696361,rev?*%
%TF.SameCoordinates,Original*%
%TF.FileFunction,Soldermask,Top*%
%TF.FilePolarity,Negative*%
%FSLAX46Y46*%
G04 Gerber Fmt 4.6, Leading zero omitted, Abs format (unit mm)*
G04 Created by KiCad (PCBNEW (6.0.0)) date 2022-02-01 19:12:32*
%MOMM*%
%LPD*%
G01*
G04 APERTURE LIST*
%ADD10C,1.600000*%
%ADD11R,2.600000X2.600000*%
%ADD12O,2.600000X2.600000*%
%ADD13R,1.800000X1.800000*%
%ADD14C,1.800000*%
%ADD15R,0.650000X1.528000*%
%ADD16R,1.700000X1.700000*%
%ADD17O,1.700000X1.700000*%
%ADD18O,1.600000X1.600000*%
%ADD19C,2.600000*%
%ADD20R,1.920000X1.920000*%
%ADD21C,1.920000*%
%ADD22R,1.050000X1.500000*%
%ADD23O,1.050000X1.500000*%
%ADD24C,1.050000*%
%ADD25C,1.300000*%
%ADD26R,2.300000X4.500000*%
%ADD27R,1.150000X1.150000*%
%ADD28C,1.150000*%
%ADD29R,1.600000X1.600000*%
%ADD30R,1.500000X1.050000*%
%ADD31O,1.500000X1.050000*%
%ADD32C,1.440000*%
%ADD33R,2.200000X2.200000*%
%ADD34O,2.200000X2.200000*%
%ADD35R,1.500000X1.500000*%
%ADD36C,1.500000*%
%ADD37C,2.400000*%
%ADD38C,2.100000*%
%ADD39R,1.130000X1.130000*%
%ADD40C,1.130000*%
%ADD41R,2.100000X1.450000*%
G04 APERTURE END LIST*
D10*
%TO.C,C1*%
X60639800Y-87766900D03*
X60639800Y-95266900D03*
%TD*%
%TO.C,C2*%
X89233000Y-68419700D03*
X89233000Y-73419700D03*
%TD*%
%TO.C,C3*%
X119573600Y-63585000D03*
X119573600Y-68585000D03*
%TD*%
%TO.C,C4*%
X151481900Y-65398300D03*
X151481900Y-70398300D03*
%TD*%
D11*
%TO.C,D3*%
X83185000Y-83820000D03*
D12*
X83185000Y-68580000D03*
%TD*%
D11*
%TO.C,D5*%
X113665000Y-83820000D03*
D12*
X113665000Y-68580000D03*
%TD*%
D11*
%TO.C,D7*%
X174625000Y-83820000D03*
D12*
X174625000Y-68580000D03*
%TD*%
D11*
%TO.C,D9*%
X144145000Y-83820000D03*
D12*
X144145000Y-68580000D03*
%TD*%
D13*
%TO.C,D1*%
X129843800Y-123232100D03*
D14*
X127303800Y-123232100D03*
%TD*%
D15*
%TO.C,IC2*%
X161054800Y-111300900D03*
X162324800Y-111300900D03*
X163594800Y-111300900D03*
X164864800Y-111300900D03*
X164864800Y-105878900D03*
X163594800Y-105878900D03*
X162324800Y-105878900D03*
X161054800Y-105878900D03*
%TD*%
D16*
%TO.C,J2*%
X66040000Y-120650000D03*
D17*
X66040000Y-123190000D03*
X68580000Y-120650000D03*
X68580000Y-123190000D03*
X71120000Y-120650000D03*
X71120000Y-123190000D03*
X73660000Y-120650000D03*
X73660000Y-123190000D03*
X76200000Y-120650000D03*
X76200000Y-123190000D03*
X78740000Y-120650000D03*
X78740000Y-123190000D03*
X81280000Y-120650000D03*
X81280000Y-123190000D03*
X83820000Y-120650000D03*
X83820000Y-123190000D03*
X86360000Y-120650000D03*
X86360000Y-123190000D03*
X88900000Y-120650000D03*
X88900000Y-123190000D03*
X91440000Y-120650000D03*
X91440000Y-123190000D03*
X93980000Y-120650000D03*
X93980000Y-123190000D03*
X96520000Y-120650000D03*
X96520000Y-123190000D03*
X99060000Y-120650000D03*
X99060000Y-123190000D03*
X101600000Y-120650000D03*
X101600000Y-123190000D03*
X104140000Y-120650000D03*
X104140000Y-123190000D03*
X106680000Y-120650000D03*
X106680000Y-123190000D03*
X109220000Y-120650000D03*
X109220000Y-123190000D03*
X111760000Y-120650000D03*
X111760000Y-123190000D03*
%TD*%
D16*
%TO.C,J3*%
X66040000Y-97790000D03*
D17*
X68580000Y-97790000D03*
X71120000Y-97790000D03*
X73660000Y-97790000D03*
X76200000Y-97790000D03*
X78740000Y-97790000D03*
X81280000Y-97790000D03*
X83820000Y-97790000D03*
X86360000Y-97790000D03*
X88900000Y-97790000D03*
X91440000Y-97790000D03*
X93980000Y-97790000D03*
X96520000Y-97790000D03*
X99060000Y-97790000D03*
X101600000Y-97790000D03*
X104140000Y-97790000D03*
X106680000Y-97790000D03*
X109220000Y-97790000D03*
X111760000Y-97790000D03*
%TD*%
D10*
%TO.C,L1*%
X153734500Y-101869000D03*
D18*
X153734500Y-112029000D03*
%TD*%
D11*
%TO.C,P1*%
X184150000Y-82550000D03*
D19*
X184150000Y-77470000D03*
%TD*%
D20*
%TO.C,Q3*%
X71813700Y-81139600D03*
D21*
X69273700Y-81139600D03*
X66733700Y-81139600D03*
%TD*%
D20*
%TO.C,Q6*%
X101232600Y-81027600D03*
D21*
X98692600Y-81027600D03*
X96152600Y-81027600D03*
%TD*%
D22*
%TO.C,Q7*%
X93346300Y-104626700D03*
D23*
X94616300Y-104626700D03*
X95886300Y-104626700D03*
%TD*%
D20*
%TO.C,Q9*%
X131209700Y-81027600D03*
D21*
X128669700Y-81027600D03*
X126129700Y-81027600D03*
%TD*%
D20*
%TO.C,Q12*%
X162353200Y-81027600D03*
D21*
X159813200Y-81027600D03*
X157273200Y-81027600D03*
%TD*%
D20*
%TO.C,Q13*%
X184255500Y-92650400D03*
D21*
X186795500Y-92650400D03*
X189335500Y-92650400D03*
%TD*%
D10*
%TO.C,R1*%
X47627000Y-83085000D03*
D18*
X45087000Y-83085000D03*
%TD*%
D24*
%TO.C,U1*%
X50823400Y-88970600D03*
D25*
X50823400Y-96420600D03*
D26*
X50823400Y-100895600D03*
X50823400Y-84495600D03*
%TD*%
D11*
%TO.C,Z2*%
X106680000Y-69850000D03*
D19*
X101600000Y-69850000D03*
X96520000Y-69850000D03*
%TD*%
D11*
%TO.C,Z3*%
X137160000Y-69850000D03*
D19*
X132080000Y-69850000D03*
X127000000Y-69850000D03*
%TD*%
D11*
%TO.C,Z4*%
X167640000Y-69850000D03*
D19*
X162560000Y-69850000D03*
X157480000Y-69850000D03*
%TD*%
D11*
%TO.C,Z1*%
X76200000Y-69850000D03*
D19*
X71120000Y-69850000D03*
X66040000Y-69850000D03*
%TD*%
D16*
%TO.C,J1*%
X170349000Y-121042300D03*
D17*
X170349000Y-123582300D03*
X167809000Y-121042300D03*
X167809000Y-123582300D03*
X165269000Y-121042300D03*
X165269000Y-123582300D03*
X162729000Y-121042300D03*
X162729000Y-123582300D03*
X160189000Y-121042300D03*
X160189000Y-123582300D03*
X157649000Y-121042300D03*
X157649000Y-123582300D03*
X155109000Y-121042300D03*
X155109000Y-123582300D03*
X152569000Y-121042300D03*
X152569000Y-123582300D03*
X150029000Y-121042300D03*
X150029000Y-123582300D03*
X147489000Y-121042300D03*
X147489000Y-123582300D03*
X144949000Y-121042300D03*
X144949000Y-123582300D03*
X142409000Y-121042300D03*
X142409000Y-123582300D03*
X139869000Y-121042300D03*
X139869000Y-123582300D03*
X137329000Y-121042300D03*
X137329000Y-123582300D03*
X134789000Y-121042300D03*
X134789000Y-123582300D03*
%TD*%
D27*
%TO.C,Z5*%
X64916500Y-86155400D03*
D28*
X75616500Y-86155400D03*
%TD*%
D27*
%TO.C,Z6*%
X95542500Y-86196000D03*
D28*
X106242500Y-86196000D03*
%TD*%
D27*
%TO.C,Z8*%
X156688300Y-85864200D03*
D28*
X167388300Y-85864200D03*
%TD*%
D29*
%TO.C,C8*%
X169824100Y-92075800D03*
D10*
X166324100Y-92075800D03*
%TD*%
D22*
%TO.C,Q4*%
X87748400Y-104639800D03*
D23*
X89018400Y-104639800D03*
X90288400Y-104639800D03*
%TD*%
D10*
%TO.C,R23*%
X75572300Y-105627200D03*
D18*
X73032300Y-105627200D03*
%TD*%
D10*
%TO.C,R31*%
X88097100Y-113124500D03*
D18*
X88097100Y-115664500D03*
%TD*%
D10*
%TO.C,R16*%
X131901400Y-89145900D03*
D18*
X134441400Y-89145900D03*
%TD*%
D30*
%TO.C,Q2*%
X77198800Y-80576600D03*
D31*
X77198800Y-81846600D03*
X77198800Y-83116600D03*
%TD*%
D10*
%TO.C,R24*%
X73376700Y-108765100D03*
D18*
X75916700Y-108765100D03*
%TD*%
D10*
%TO.C,R5*%
X88607500Y-78728900D03*
D18*
X91147500Y-78728900D03*
%TD*%
D32*
%TO.C,RV1*%
X117879100Y-95318800D03*
X120419100Y-95318800D03*
X122959100Y-95318800D03*
%TD*%
D16*
%TO.C,J4*%
X120030900Y-90244000D03*
%TD*%
D10*
%TO.C,R15*%
X126738500Y-89152400D03*
D18*
X129278500Y-89152400D03*
%TD*%
D10*
%TO.C,R2*%
X56109000Y-83011900D03*
D18*
X53569000Y-83011900D03*
%TD*%
D10*
%TO.C,R17*%
X179540300Y-68202800D03*
D18*
X179540300Y-70742800D03*
%TD*%
D10*
%TO.C,R4*%
X110094700Y-115764800D03*
D18*
X107554700Y-115764800D03*
%TD*%
D10*
%TO.C,R18*%
X174293400Y-87283100D03*
D18*
X176833400Y-87283100D03*
%TD*%
D10*
%TO.C,R29*%
X143781000Y-113326100D03*
D18*
X141241000Y-113326100D03*
%TD*%
D10*
%TO.C,R25*%
X75859900Y-114068500D03*
D18*
X75859900Y-111528500D03*
%TD*%
D10*
%TO.C,R33*%
X97677800Y-113124500D03*
D18*
X97677800Y-115664500D03*
%TD*%
D10*
%TO.C,R14*%
X137097400Y-89165200D03*
D18*
X139637400Y-89165200D03*
%TD*%
D30*
%TO.C,Q11*%
X167811500Y-80303000D03*
D31*
X167811500Y-81573000D03*
X167811500Y-82843000D03*
%TD*%
D10*
%TO.C,R27*%
X143781000Y-103747400D03*
D18*
X141241000Y-103747400D03*
%TD*%
D33*
%TO.C,D4*%
X115020300Y-111761400D03*
D34*
X125180300Y-111761400D03*
%TD*%
D33*
%TO.C,D2*%
X115020300Y-116670800D03*
D34*
X125180300Y-116670800D03*
%TD*%
D35*
%TO.C,S1*%
X115616200Y-120523800D03*
D36*
X122116200Y-120523800D03*
X115616200Y-125023800D03*
X122116200Y-125023800D03*
%TD*%
D10*
%TO.C,R9*%
X118582200Y-73133700D03*
D18*
X121122200Y-73133700D03*
%TD*%
D10*
%TO.C,R13*%
X149911000Y-75702800D03*
D18*
X152451000Y-75702800D03*
%TD*%
D10*
%TO.C,R6*%
X78100900Y-89073600D03*
D18*
X80640900Y-89073600D03*
%TD*%
D10*
%TO.C,R11*%
X97552100Y-89073600D03*
D18*
X100092100Y-89073600D03*
%TD*%
D10*
%TO.C,R7*%
X67716100Y-89073600D03*
D18*
X70256100Y-89073600D03*
%TD*%
D37*
%TO.C,U2*%
X180362900Y-100293100D03*
D38*
X173962900Y-101543100D03*
X177462900Y-101543100D03*
X183262900Y-101543100D03*
X186762900Y-101543100D03*
X186762900Y-99043100D03*
X183262900Y-99043100D03*
X177462900Y-99043100D03*
X173962900Y-99043100D03*
%TD*%
D22*
%TO.C,Q10*%
X98978100Y-104626700D03*
D23*
X100248100Y-104626700D03*
X101518100Y-104626700D03*
%TD*%
D33*
%TO.C,D8*%
X115020300Y-101942700D03*
D34*
X125180300Y-101942700D03*
%TD*%
D39*
%TO.C,IC3*%
X70520600Y-114579500D03*
D40*
X70520600Y-112039500D03*
X70520600Y-109499500D03*
X70520600Y-106959500D03*
X62580600Y-106959500D03*
X62580600Y-109499500D03*
X62580600Y-112039500D03*
X62580600Y-114579500D03*
%TD*%
D22*
%TO.C,Q1*%
X82152400Y-104644400D03*
D23*
X83422400Y-104644400D03*
X84692400Y-104644400D03*
%TD*%
D10*
%TO.C,R26*%
X143781000Y-98958100D03*
D18*
X141241000Y-98958100D03*
%TD*%
D10*
%TO.C,R8*%
X72922600Y-89073600D03*
D18*
X75462600Y-89073600D03*
%TD*%
D41*
%TO.C,IC4*%
X137916900Y-112869400D03*
X137916900Y-110329400D03*
X137916900Y-107789400D03*
X137916900Y-105249400D03*
X137916900Y-102709400D03*
X137916900Y-100169400D03*
X137916900Y-97629400D03*
X137916900Y-95089400D03*
X128816900Y-95089400D03*
X128816900Y-97629400D03*
X128816900Y-100169400D03*
X128816900Y-102709400D03*
X128816900Y-105249400D03*
X128816900Y-107789400D03*
X128816900Y-110329400D03*
X128816900Y-112869400D03*
%TD*%
D30*
%TO.C,Q8*%
X137666600Y-80582900D03*
D31*
X137666600Y-81852900D03*
X137666600Y-83122900D03*
%TD*%
D30*
%TO.C,Q5*%
X106797400Y-80509200D03*
D31*
X106797400Y-81779200D03*
X106797400Y-83049200D03*
%TD*%
D33*
%TO.C,D10*%
X156010100Y-98662200D03*
D34*
X166170100Y-98662200D03*
%TD*%
D10*
%TO.C,C5*%
X151434400Y-83634400D03*
X151434400Y-78634400D03*
%TD*%
%TO.C,R21*%
X174560200Y-93313200D03*
D18*
X177100200Y-93313200D03*
%TD*%
D29*
%TO.C,C9*%
X149612600Y-93906000D03*
D10*
X153112600Y-93906000D03*
%TD*%
%TO.C,R3*%
X110228300Y-110918500D03*
D18*
X107688300Y-110918500D03*
%TD*%
D10*
%TO.C,R30*%
X83306700Y-113124500D03*
D18*
X83306700Y-115664500D03*
%TD*%
D10*
%TO.C,R12*%
X102726700Y-89051400D03*
D18*
X105266700Y-89051400D03*
%TD*%
D10*
%TO.C,R22*%
X156900200Y-105717700D03*
D18*
X156900200Y-108257700D03*
%TD*%
D10*
%TO.C,R28*%
X143781000Y-108536800D03*
D18*
X141241000Y-108536800D03*
%TD*%
D10*
%TO.C,R20*%
X160583300Y-88731000D03*
D18*
X163123300Y-88731000D03*
%TD*%
D10*
%TO.C,R19*%
X155220800Y-88780800D03*
D18*
X157760800Y-88780800D03*
%TD*%
D10*
%TO.C,R10*%
X107928100Y-89045900D03*
D18*
X110468100Y-89045900D03*
%TD*%
D10*
%TO.C,C7*%
X165363200Y-102521700D03*
X160363200Y-102521700D03*
%TD*%
D33*
%TO.C,D6*%
X115020300Y-106852100D03*
D34*
X125180300Y-106852100D03*
%TD*%
D10*
%TO.C,R32*%
X92887500Y-113124500D03*
D18*
X92887500Y-115664500D03*
%TD*%
D10*
%TO.C,C6*%
X157062800Y-115652200D03*
X157062800Y-110652200D03*
%TD*%
D27*
%TO.C,Z7*%
X125092600Y-86196000D03*
D28*
X135792600Y-86196000D03*
%TD*%
D10*
%TO.C,R34*%
X57889400Y-114568900D03*
D18*
X60429400Y-114568900D03*
%TD*%
M02*
