%TF.GenerationSoftware,KiCad,Pcbnew,(6.0.0)*%
%TF.CreationDate,2022-07-11T07:12:13-07:00*%
%TF.ProjectId,MakeItRain,4d616b65-4974-4526-9169-6e2e6b696361,rev?*%
%TF.SameCoordinates,Original*%
%TF.FileFunction,Legend,Top*%
%TF.FilePolarity,Positive*%
%FSLAX46Y46*%
G04 Gerber Fmt 4.6, Leading zero omitted, Abs format (unit mm)*
G04 Created by KiCad (PCBNEW (6.0.0)) date 2022-07-11 07:12:13*
%MOMM*%
%LPD*%
G01*
G04 APERTURE LIST*
%ADD10C,0.150000*%
%ADD11C,0.300000*%
%ADD12C,0.254000*%
%ADD13C,0.120000*%
%ADD14C,0.200000*%
%ADD15C,0.100000*%
G04 APERTURE END LIST*
D10*
X54935379Y-83186510D02*
X54840141Y-83138890D01*
X54697284Y-83138890D01*
X54554426Y-83186510D01*
X54459188Y-83281748D01*
X54411569Y-83376986D01*
X54363950Y-83567462D01*
X54363950Y-83710319D01*
X54411569Y-83900795D01*
X54459188Y-83996033D01*
X54554426Y-84091271D01*
X54697284Y-84138890D01*
X54792522Y-84138890D01*
X54935379Y-84091271D01*
X54982998Y-84043652D01*
X54982998Y-83710319D01*
X54792522Y-83710319D01*
X55411569Y-84138890D02*
X55411569Y-83138890D01*
X55982998Y-84138890D01*
X55982998Y-83138890D01*
X56459188Y-84138890D02*
X56459188Y-83138890D01*
X56697284Y-83138890D01*
X56840141Y-83186510D01*
X56935379Y-83281748D01*
X56982998Y-83376986D01*
X57030617Y-83567462D01*
X57030617Y-83710319D01*
X56982998Y-83900795D01*
X56935379Y-83996033D01*
X56840141Y-84091271D01*
X56697284Y-84138890D01*
X56459188Y-84138890D01*
X54363950Y-90826771D02*
X54697284Y-91826771D01*
X55030617Y-90826771D01*
X55363950Y-91826771D02*
X55363950Y-90826771D01*
X55602045Y-90826771D01*
X55744903Y-90874391D01*
X55840141Y-90969629D01*
X55887760Y-91064867D01*
X55935379Y-91255343D01*
X55935379Y-91398200D01*
X55887760Y-91588676D01*
X55840141Y-91683914D01*
X55744903Y-91779152D01*
X55602045Y-91826771D01*
X55363950Y-91826771D01*
X56935379Y-91731533D02*
X56887760Y-91779152D01*
X56744903Y-91826771D01*
X56649664Y-91826771D01*
X56506807Y-91779152D01*
X56411569Y-91683914D01*
X56363950Y-91588676D01*
X56316331Y-91398200D01*
X56316331Y-91255343D01*
X56363950Y-91064867D01*
X56411569Y-90969629D01*
X56506807Y-90874391D01*
X56649664Y-90826771D01*
X56744903Y-90826771D01*
X56887760Y-90874391D01*
X56935379Y-90922010D01*
X54221093Y-88359075D02*
X54840141Y-88359075D01*
X54506807Y-88740028D01*
X54649664Y-88740028D01*
X54744903Y-88787647D01*
X54792522Y-88835266D01*
X54840141Y-88930504D01*
X54840141Y-89168599D01*
X54792522Y-89263837D01*
X54744903Y-89311456D01*
X54649664Y-89359075D01*
X54363950Y-89359075D01*
X54268712Y-89311456D01*
X54221093Y-89263837D01*
X55268712Y-89263837D02*
X55316331Y-89311456D01*
X55268712Y-89359075D01*
X55221093Y-89311456D01*
X55268712Y-89263837D01*
X55268712Y-89359075D01*
X55649664Y-88359075D02*
X56268712Y-88359075D01*
X55935379Y-88740028D01*
X56078236Y-88740028D01*
X56173474Y-88787647D01*
X56221093Y-88835266D01*
X56268712Y-88930504D01*
X56268712Y-89168599D01*
X56221093Y-89263837D01*
X56173474Y-89311456D01*
X56078236Y-89359075D01*
X55792522Y-89359075D01*
X55697284Y-89311456D01*
X55649664Y-89263837D01*
X56554426Y-88359075D02*
X56887760Y-89359075D01*
X57221093Y-88359075D01*
X55506807Y-85818261D02*
X55030617Y-85818261D01*
X54982998Y-86294452D01*
X55030617Y-86246833D01*
X55125855Y-86199214D01*
X55363950Y-86199214D01*
X55459188Y-86246833D01*
X55506807Y-86294452D01*
X55554426Y-86389690D01*
X55554426Y-86627785D01*
X55506807Y-86723023D01*
X55459188Y-86770642D01*
X55363950Y-86818261D01*
X55125855Y-86818261D01*
X55030617Y-86770642D01*
X54982998Y-86723023D01*
X55840141Y-85818261D02*
X56173474Y-86818261D01*
X56506807Y-85818261D01*
X79897030Y-60851504D02*
X62117030Y-60851504D01*
X92585999Y-60929986D02*
X92585999Y-79979986D01*
X110365999Y-79979986D02*
X110365999Y-60929986D01*
X110365765Y-60919674D02*
X92585765Y-60919674D01*
X123065999Y-60929986D02*
X123065999Y-79979986D01*
X140845999Y-79979986D02*
X140845999Y-60929986D01*
X140850803Y-60857432D02*
X123070803Y-60857432D01*
X171325999Y-79979986D02*
X171325999Y-60929986D01*
X171322601Y-60821866D02*
X153542601Y-60821866D01*
X153545999Y-60929986D02*
X153545999Y-79979986D01*
X92585999Y-79979986D02*
X110365999Y-79979986D01*
X123065999Y-79979986D02*
X140845999Y-79979986D01*
X153545999Y-79979986D02*
X171325999Y-79979986D01*
X62105999Y-79979986D02*
X79885999Y-79979986D01*
X79885999Y-79979986D02*
X79885999Y-60929986D01*
X62105999Y-60929986D02*
X62105999Y-79979986D01*
X76539410Y-65320075D02*
X75539410Y-65320075D01*
X76539410Y-64843884D02*
X75539410Y-64843884D01*
X76539410Y-64272456D01*
X75539410Y-64272456D01*
X76539410Y-63796265D02*
X75539410Y-63796265D01*
X75539410Y-63415313D01*
X75587030Y-63320075D01*
X75634649Y-63272456D01*
X75729887Y-63224837D01*
X75872744Y-63224837D01*
X75967982Y-63272456D01*
X76015601Y-63320075D01*
X76063220Y-63415313D01*
X76063220Y-63796265D01*
X75539410Y-62796265D02*
X76348934Y-62796265D01*
X76444172Y-62748646D01*
X76491791Y-62701027D01*
X76539410Y-62605789D01*
X76539410Y-62415313D01*
X76491791Y-62320075D01*
X76444172Y-62272456D01*
X76348934Y-62224837D01*
X75539410Y-62224837D01*
X75539410Y-61891504D02*
X75539410Y-61320075D01*
X76539410Y-61605789D02*
X75539410Y-61605789D01*
X107008145Y-65388245D02*
X106008145Y-65388245D01*
X107008145Y-64912054D02*
X106008145Y-64912054D01*
X107008145Y-64340626D01*
X106008145Y-64340626D01*
X107008145Y-63864435D02*
X106008145Y-63864435D01*
X106008145Y-63483483D01*
X106055765Y-63388245D01*
X106103384Y-63340626D01*
X106198622Y-63293007D01*
X106341479Y-63293007D01*
X106436717Y-63340626D01*
X106484336Y-63388245D01*
X106531955Y-63483483D01*
X106531955Y-63864435D01*
X106008145Y-62864435D02*
X106817669Y-62864435D01*
X106912907Y-62816816D01*
X106960526Y-62769197D01*
X107008145Y-62673959D01*
X107008145Y-62483483D01*
X106960526Y-62388245D01*
X106912907Y-62340626D01*
X106817669Y-62293007D01*
X106008145Y-62293007D01*
X106008145Y-61959674D02*
X106008145Y-61388245D01*
X107008145Y-61673959D02*
X106008145Y-61673959D01*
X100928145Y-64459674D02*
X100928145Y-64269197D01*
X100975765Y-64173959D01*
X101071003Y-64078721D01*
X101261479Y-64031102D01*
X101594812Y-64031102D01*
X101785288Y-64078721D01*
X101880526Y-64173959D01*
X101928145Y-64269197D01*
X101928145Y-64459674D01*
X101880526Y-64554912D01*
X101785288Y-64650150D01*
X101594812Y-64697769D01*
X101261479Y-64697769D01*
X101071003Y-64650150D01*
X100975765Y-64554912D01*
X100928145Y-64459674D01*
X100928145Y-63602531D02*
X101737669Y-63602531D01*
X101832907Y-63554912D01*
X101880526Y-63507293D01*
X101928145Y-63412054D01*
X101928145Y-63221578D01*
X101880526Y-63126340D01*
X101832907Y-63078721D01*
X101737669Y-63031102D01*
X100928145Y-63031102D01*
X100928145Y-62697769D02*
X100928145Y-62126340D01*
X101928145Y-62412054D02*
X100928145Y-62412054D01*
X95895765Y-64221578D02*
X95848145Y-64316816D01*
X95848145Y-64459674D01*
X95895765Y-64602531D01*
X95991003Y-64697769D01*
X96086241Y-64745388D01*
X96276717Y-64793007D01*
X96419574Y-64793007D01*
X96610050Y-64745388D01*
X96705288Y-64697769D01*
X96800526Y-64602531D01*
X96848145Y-64459674D01*
X96848145Y-64364435D01*
X96800526Y-64221578D01*
X96752907Y-64173959D01*
X96419574Y-64173959D01*
X96419574Y-64364435D01*
X96848145Y-63745388D02*
X95848145Y-63745388D01*
X96848145Y-63173959D01*
X95848145Y-63173959D01*
X96848145Y-62697769D02*
X95848145Y-62697769D01*
X95848145Y-62459674D01*
X95895765Y-62316816D01*
X95991003Y-62221578D01*
X96086241Y-62173959D01*
X96276717Y-62126340D01*
X96419574Y-62126340D01*
X96610050Y-62173959D01*
X96705288Y-62221578D01*
X96800526Y-62316816D01*
X96848145Y-62459674D01*
X96848145Y-62697769D01*
X126380803Y-64159336D02*
X126333183Y-64254574D01*
X126333183Y-64397432D01*
X126380803Y-64540289D01*
X126476041Y-64635527D01*
X126571279Y-64683146D01*
X126761755Y-64730765D01*
X126904612Y-64730765D01*
X127095088Y-64683146D01*
X127190326Y-64635527D01*
X127285564Y-64540289D01*
X127333183Y-64397432D01*
X127333183Y-64302193D01*
X127285564Y-64159336D01*
X127237945Y-64111717D01*
X126904612Y-64111717D01*
X126904612Y-64302193D01*
X127333183Y-63683146D02*
X126333183Y-63683146D01*
X127333183Y-63111717D01*
X126333183Y-63111717D01*
X127333183Y-62635527D02*
X126333183Y-62635527D01*
X126333183Y-62397432D01*
X126380803Y-62254574D01*
X126476041Y-62159336D01*
X126571279Y-62111717D01*
X126761755Y-62064098D01*
X126904612Y-62064098D01*
X127095088Y-62111717D01*
X127190326Y-62159336D01*
X127285564Y-62254574D01*
X127333183Y-62397432D01*
X127333183Y-62635527D01*
X137493183Y-65326003D02*
X136493183Y-65326003D01*
X137493183Y-64849812D02*
X136493183Y-64849812D01*
X137493183Y-64278384D01*
X136493183Y-64278384D01*
X137493183Y-63802193D02*
X136493183Y-63802193D01*
X136493183Y-63421241D01*
X136540803Y-63326003D01*
X136588422Y-63278384D01*
X136683660Y-63230765D01*
X136826517Y-63230765D01*
X136921755Y-63278384D01*
X136969374Y-63326003D01*
X137016993Y-63421241D01*
X137016993Y-63802193D01*
X136493183Y-62802193D02*
X137302707Y-62802193D01*
X137397945Y-62754574D01*
X137445564Y-62706955D01*
X137493183Y-62611717D01*
X137493183Y-62421241D01*
X137445564Y-62326003D01*
X137397945Y-62278384D01*
X137302707Y-62230765D01*
X136493183Y-62230765D01*
X136493183Y-61897432D02*
X136493183Y-61326003D01*
X137493183Y-61611717D02*
X136493183Y-61611717D01*
X131413183Y-64397432D02*
X131413183Y-64206955D01*
X131460803Y-64111717D01*
X131556041Y-64016479D01*
X131746517Y-63968860D01*
X132079850Y-63968860D01*
X132270326Y-64016479D01*
X132365564Y-64111717D01*
X132413183Y-64206955D01*
X132413183Y-64397432D01*
X132365564Y-64492670D01*
X132270326Y-64587908D01*
X132079850Y-64635527D01*
X131746517Y-64635527D01*
X131556041Y-64587908D01*
X131460803Y-64492670D01*
X131413183Y-64397432D01*
X131413183Y-63540289D02*
X132222707Y-63540289D01*
X132317945Y-63492670D01*
X132365564Y-63445051D01*
X132413183Y-63349812D01*
X132413183Y-63159336D01*
X132365564Y-63064098D01*
X132317945Y-63016479D01*
X132222707Y-62968860D01*
X131413183Y-62968860D01*
X131413183Y-62635527D02*
X131413183Y-62064098D01*
X132413183Y-62349812D02*
X131413183Y-62349812D01*
X156852601Y-64123770D02*
X156804981Y-64219008D01*
X156804981Y-64361866D01*
X156852601Y-64504723D01*
X156947839Y-64599961D01*
X157043077Y-64647580D01*
X157233553Y-64695199D01*
X157376410Y-64695199D01*
X157566886Y-64647580D01*
X157662124Y-64599961D01*
X157757362Y-64504723D01*
X157804981Y-64361866D01*
X157804981Y-64266627D01*
X157757362Y-64123770D01*
X157709743Y-64076151D01*
X157376410Y-64076151D01*
X157376410Y-64266627D01*
X157804981Y-63647580D02*
X156804981Y-63647580D01*
X157804981Y-63076151D01*
X156804981Y-63076151D01*
X157804981Y-62599961D02*
X156804981Y-62599961D01*
X156804981Y-62361866D01*
X156852601Y-62219008D01*
X156947839Y-62123770D01*
X157043077Y-62076151D01*
X157233553Y-62028532D01*
X157376410Y-62028532D01*
X157566886Y-62076151D01*
X157662124Y-62123770D01*
X157757362Y-62219008D01*
X157804981Y-62361866D01*
X157804981Y-62599961D01*
X161884981Y-64361866D02*
X161884981Y-64171389D01*
X161932601Y-64076151D01*
X162027839Y-63980913D01*
X162218315Y-63933294D01*
X162551648Y-63933294D01*
X162742124Y-63980913D01*
X162837362Y-64076151D01*
X162884981Y-64171389D01*
X162884981Y-64361866D01*
X162837362Y-64457104D01*
X162742124Y-64552342D01*
X162551648Y-64599961D01*
X162218315Y-64599961D01*
X162027839Y-64552342D01*
X161932601Y-64457104D01*
X161884981Y-64361866D01*
X161884981Y-63504723D02*
X162694505Y-63504723D01*
X162789743Y-63457104D01*
X162837362Y-63409485D01*
X162884981Y-63314246D01*
X162884981Y-63123770D01*
X162837362Y-63028532D01*
X162789743Y-62980913D01*
X162694505Y-62933294D01*
X161884981Y-62933294D01*
X161884981Y-62599961D02*
X161884981Y-62028532D01*
X162884981Y-62314246D02*
X161884981Y-62314246D01*
X167964981Y-65290437D02*
X166964981Y-65290437D01*
X167964981Y-64814246D02*
X166964981Y-64814246D01*
X167964981Y-64242818D01*
X166964981Y-64242818D01*
X167964981Y-63766627D02*
X166964981Y-63766627D01*
X166964981Y-63385675D01*
X167012601Y-63290437D01*
X167060220Y-63242818D01*
X167155458Y-63195199D01*
X167298315Y-63195199D01*
X167393553Y-63242818D01*
X167441172Y-63290437D01*
X167488791Y-63385675D01*
X167488791Y-63766627D01*
X166964981Y-62766627D02*
X167774505Y-62766627D01*
X167869743Y-62719008D01*
X167917362Y-62671389D01*
X167964981Y-62576151D01*
X167964981Y-62385675D01*
X167917362Y-62290437D01*
X167869743Y-62242818D01*
X167774505Y-62195199D01*
X166964981Y-62195199D01*
X166964981Y-61861866D02*
X166964981Y-61290437D01*
X167964981Y-61576151D02*
X166964981Y-61576151D01*
D11*
X96350407Y-58828245D02*
X97620407Y-58828245D01*
X96350407Y-60328245D01*
X97620407Y-60328245D01*
X98708979Y-58828245D02*
X99071836Y-58828245D01*
X99253265Y-58899674D01*
X99434693Y-59042531D01*
X99525407Y-59328245D01*
X99525407Y-59828245D01*
X99434693Y-60113959D01*
X99253265Y-60256816D01*
X99071836Y-60328245D01*
X98708979Y-60328245D01*
X98527550Y-60256816D01*
X98346122Y-60113959D01*
X98255407Y-59828245D01*
X98255407Y-59328245D01*
X98346122Y-59042531D01*
X98527550Y-58899674D01*
X98708979Y-58828245D01*
X100341836Y-60328245D02*
X100341836Y-58828245D01*
X101430407Y-60328245D01*
X101430407Y-58828245D01*
X102337550Y-59542531D02*
X102972550Y-59542531D01*
X103244693Y-60328245D02*
X102337550Y-60328245D01*
X102337550Y-58828245D01*
X103244693Y-58828245D01*
X105421836Y-58971102D02*
X105512550Y-58899674D01*
X105693979Y-58828245D01*
X106147550Y-58828245D01*
X106328979Y-58899674D01*
X106419693Y-58971102D01*
X106510407Y-59113959D01*
X106510407Y-59256816D01*
X106419693Y-59471102D01*
X105331122Y-60328245D01*
X106510407Y-60328245D01*
X126835445Y-58766003D02*
X128105445Y-58766003D01*
X126835445Y-60266003D01*
X128105445Y-60266003D01*
X129194017Y-58766003D02*
X129556874Y-58766003D01*
X129738303Y-58837432D01*
X129919731Y-58980289D01*
X130010445Y-59266003D01*
X130010445Y-59766003D01*
X129919731Y-60051717D01*
X129738303Y-60194574D01*
X129556874Y-60266003D01*
X129194017Y-60266003D01*
X129012588Y-60194574D01*
X128831160Y-60051717D01*
X128740445Y-59766003D01*
X128740445Y-59266003D01*
X128831160Y-58980289D01*
X129012588Y-58837432D01*
X129194017Y-58766003D01*
X130826874Y-60266003D02*
X130826874Y-58766003D01*
X131915445Y-60266003D01*
X131915445Y-58766003D01*
X132822588Y-59480289D02*
X133457588Y-59480289D01*
X133729731Y-60266003D02*
X132822588Y-60266003D01*
X132822588Y-58766003D01*
X133729731Y-58766003D01*
X135816160Y-58766003D02*
X136995445Y-58766003D01*
X136360445Y-59337432D01*
X136632588Y-59337432D01*
X136814017Y-59408860D01*
X136904731Y-59480289D01*
X136995445Y-59623146D01*
X136995445Y-59980289D01*
X136904731Y-60123146D01*
X136814017Y-60194574D01*
X136632588Y-60266003D01*
X136088303Y-60266003D01*
X135906874Y-60194574D01*
X135816160Y-60123146D01*
X157307243Y-58730437D02*
X158577243Y-58730437D01*
X157307243Y-60230437D01*
X158577243Y-60230437D01*
X159665815Y-58730437D02*
X160028672Y-58730437D01*
X160210101Y-58801866D01*
X160391529Y-58944723D01*
X160482243Y-59230437D01*
X160482243Y-59730437D01*
X160391529Y-60016151D01*
X160210101Y-60159008D01*
X160028672Y-60230437D01*
X159665815Y-60230437D01*
X159484386Y-60159008D01*
X159302958Y-60016151D01*
X159212243Y-59730437D01*
X159212243Y-59230437D01*
X159302958Y-58944723D01*
X159484386Y-58801866D01*
X159665815Y-58730437D01*
X161298672Y-60230437D02*
X161298672Y-58730437D01*
X162387243Y-60230437D01*
X162387243Y-58730437D01*
X163294386Y-59444723D02*
X163929386Y-59444723D01*
X164201529Y-60230437D02*
X163294386Y-60230437D01*
X163294386Y-58730437D01*
X164201529Y-58730437D01*
X167285815Y-59230437D02*
X167285815Y-60230437D01*
X166832243Y-58659008D02*
X166378672Y-59730437D01*
X167557958Y-59730437D01*
X184184369Y-98081430D02*
X185684369Y-97581430D01*
X184184369Y-97081430D01*
X185612940Y-96652858D02*
X185684369Y-96438573D01*
X185684369Y-96081430D01*
X185612940Y-95938573D01*
X185541512Y-95867144D01*
X185398655Y-95795715D01*
X185255798Y-95795715D01*
X185112940Y-95867144D01*
X185041512Y-95938573D01*
X184970083Y-96081430D01*
X184898655Y-96367144D01*
X184827226Y-96510001D01*
X184755798Y-96581430D01*
X184612940Y-96652858D01*
X184470083Y-96652858D01*
X184327226Y-96581430D01*
X184255798Y-96510001D01*
X184184369Y-96367144D01*
X184184369Y-96010001D01*
X184255798Y-95795715D01*
X185112940Y-95152858D02*
X185112940Y-94010001D01*
X185684369Y-94581430D02*
X184541512Y-94581430D01*
D10*
X156998147Y-110759414D02*
X156521956Y-110759414D01*
X156474337Y-111235605D01*
X156521956Y-111187986D01*
X156617194Y-111140367D01*
X156855290Y-111140367D01*
X156950528Y-111187986D01*
X156998147Y-111235605D01*
X157045766Y-111330843D01*
X157045766Y-111568938D01*
X156998147Y-111664176D01*
X156950528Y-111711795D01*
X156855290Y-111759414D01*
X156617194Y-111759414D01*
X156521956Y-111711795D01*
X156474337Y-111664176D01*
X157426718Y-111473700D02*
X157902909Y-111473700D01*
X157331480Y-111759414D02*
X157664813Y-110759414D01*
X157998147Y-111759414D01*
X158331480Y-111759414D02*
X158331480Y-110759414D01*
X158664813Y-111473700D01*
X158998147Y-110759414D01*
X158998147Y-111759414D01*
X159474337Y-111759414D02*
X159474337Y-110759414D01*
X159855290Y-110759414D01*
X159950528Y-110807034D01*
X159998147Y-110854653D01*
X160045766Y-110949891D01*
X160045766Y-111092748D01*
X159998147Y-111187986D01*
X159950528Y-111235605D01*
X159855290Y-111283224D01*
X159474337Y-111283224D01*
X65961904Y-117562380D02*
X65961904Y-118371904D01*
X66009523Y-118467142D01*
X66057142Y-118514761D01*
X66152380Y-118562380D01*
X66342857Y-118562380D01*
X66438095Y-118514761D01*
X66485714Y-118467142D01*
X66533333Y-118371904D01*
X66533333Y-117562380D01*
X66961904Y-118514761D02*
X67057142Y-118562380D01*
X67247619Y-118562380D01*
X67342857Y-118514761D01*
X67390476Y-118419523D01*
X67390476Y-118371904D01*
X67342857Y-118276666D01*
X67247619Y-118229047D01*
X67104761Y-118229047D01*
X67009523Y-118181428D01*
X66961904Y-118086190D01*
X66961904Y-118038571D01*
X67009523Y-117943333D01*
X67104761Y-117895714D01*
X67247619Y-117895714D01*
X67342857Y-117943333D01*
X68200000Y-118514761D02*
X68104761Y-118562380D01*
X67914285Y-118562380D01*
X67819047Y-118514761D01*
X67771428Y-118419523D01*
X67771428Y-118038571D01*
X67819047Y-117943333D01*
X67914285Y-117895714D01*
X68104761Y-117895714D01*
X68200000Y-117943333D01*
X68247619Y-118038571D01*
X68247619Y-118133809D01*
X67771428Y-118229047D01*
X69438095Y-118038571D02*
X69771428Y-118038571D01*
X69914285Y-118562380D02*
X69438095Y-118562380D01*
X69438095Y-117562380D01*
X69914285Y-117562380D01*
X70295238Y-118514761D02*
X70438095Y-118562380D01*
X70676190Y-118562380D01*
X70771428Y-118514761D01*
X70819047Y-118467142D01*
X70866666Y-118371904D01*
X70866666Y-118276666D01*
X70819047Y-118181428D01*
X70771428Y-118133809D01*
X70676190Y-118086190D01*
X70485714Y-118038571D01*
X70390476Y-117990952D01*
X70342857Y-117943333D01*
X70295238Y-117848095D01*
X70295238Y-117752857D01*
X70342857Y-117657619D01*
X70390476Y-117610000D01*
X70485714Y-117562380D01*
X70723809Y-117562380D01*
X70866666Y-117610000D01*
X71295238Y-118562380D02*
X71295238Y-117562380D01*
X71676190Y-117562380D01*
X71771428Y-117610000D01*
X71819047Y-117657619D01*
X71866666Y-117752857D01*
X71866666Y-117895714D01*
X71819047Y-117990952D01*
X71771428Y-118038571D01*
X71676190Y-118086190D01*
X71295238Y-118086190D01*
X72200000Y-117562380D02*
X72819047Y-117562380D01*
X72485714Y-117943333D01*
X72628571Y-117943333D01*
X72723809Y-117990952D01*
X72771428Y-118038571D01*
X72819047Y-118133809D01*
X72819047Y-118371904D01*
X72771428Y-118467142D01*
X72723809Y-118514761D01*
X72628571Y-118562380D01*
X72342857Y-118562380D01*
X72247619Y-118514761D01*
X72200000Y-118467142D01*
X73200000Y-117657619D02*
X73247619Y-117610000D01*
X73342857Y-117562380D01*
X73580952Y-117562380D01*
X73676190Y-117610000D01*
X73723809Y-117657619D01*
X73771428Y-117752857D01*
X73771428Y-117848095D01*
X73723809Y-117990952D01*
X73152380Y-118562380D01*
X73771428Y-118562380D01*
X74200000Y-118181428D02*
X74961904Y-118181428D01*
X75438095Y-118562380D02*
X75438095Y-117562380D01*
X75676190Y-117562380D01*
X75819047Y-117610000D01*
X75914285Y-117705238D01*
X75961904Y-117800476D01*
X76009523Y-117990952D01*
X76009523Y-118133809D01*
X75961904Y-118324285D01*
X75914285Y-118419523D01*
X75819047Y-118514761D01*
X75676190Y-118562380D01*
X75438095Y-118562380D01*
X76819047Y-118514761D02*
X76723809Y-118562380D01*
X76533333Y-118562380D01*
X76438095Y-118514761D01*
X76390476Y-118419523D01*
X76390476Y-118038571D01*
X76438095Y-117943333D01*
X76533333Y-117895714D01*
X76723809Y-117895714D01*
X76819047Y-117943333D01*
X76866666Y-118038571D01*
X76866666Y-118133809D01*
X76390476Y-118229047D01*
X77200000Y-117895714D02*
X77438095Y-118562380D01*
X77676190Y-117895714D01*
X78057142Y-118562380D02*
X78057142Y-117562380D01*
X78628571Y-118562380D02*
X78200000Y-117990952D01*
X78628571Y-117562380D02*
X78057142Y-118133809D01*
X79057142Y-118562380D02*
X79057142Y-117895714D01*
X79057142Y-117562380D02*
X79009523Y-117610000D01*
X79057142Y-117657619D01*
X79104761Y-117610000D01*
X79057142Y-117562380D01*
X79057142Y-117657619D01*
X79390476Y-117895714D02*
X79771428Y-117895714D01*
X79533333Y-117562380D02*
X79533333Y-118419523D01*
X79580952Y-118514761D01*
X79676190Y-118562380D01*
X79771428Y-118562380D01*
X80676190Y-118467142D02*
X80628571Y-118514761D01*
X80485714Y-118562380D01*
X80390476Y-118562380D01*
X80247619Y-118514761D01*
X80152380Y-118419523D01*
X80104761Y-118324285D01*
X80057142Y-118133809D01*
X80057142Y-117990952D01*
X80104761Y-117800476D01*
X80152380Y-117705238D01*
X80247619Y-117610000D01*
X80390476Y-117562380D01*
X80485714Y-117562380D01*
X80628571Y-117610000D01*
X80676190Y-117657619D01*
X81866666Y-118562380D02*
X81866666Y-117562380D01*
X81866666Y-117943333D02*
X81961904Y-117895714D01*
X82152380Y-117895714D01*
X82247619Y-117943333D01*
X82295238Y-117990952D01*
X82342857Y-118086190D01*
X82342857Y-118371904D01*
X82295238Y-118467142D01*
X82247619Y-118514761D01*
X82152380Y-118562380D01*
X81961904Y-118562380D01*
X81866666Y-118514761D01*
X82914285Y-118562380D02*
X82819047Y-118514761D01*
X82771428Y-118467142D01*
X82723809Y-118371904D01*
X82723809Y-118086190D01*
X82771428Y-117990952D01*
X82819047Y-117943333D01*
X82914285Y-117895714D01*
X83057142Y-117895714D01*
X83152380Y-117943333D01*
X83200000Y-117990952D01*
X83247619Y-118086190D01*
X83247619Y-118371904D01*
X83200000Y-118467142D01*
X83152380Y-118514761D01*
X83057142Y-118562380D01*
X82914285Y-118562380D01*
X84104761Y-118562380D02*
X84104761Y-118038571D01*
X84057142Y-117943333D01*
X83961904Y-117895714D01*
X83771428Y-117895714D01*
X83676190Y-117943333D01*
X84104761Y-118514761D02*
X84009523Y-118562380D01*
X83771428Y-118562380D01*
X83676190Y-118514761D01*
X83628571Y-118419523D01*
X83628571Y-118324285D01*
X83676190Y-118229047D01*
X83771428Y-118181428D01*
X84009523Y-118181428D01*
X84104761Y-118133809D01*
X84580952Y-118562380D02*
X84580952Y-117895714D01*
X84580952Y-118086190D02*
X84628571Y-117990952D01*
X84676190Y-117943333D01*
X84771428Y-117895714D01*
X84866666Y-117895714D01*
X85628571Y-118562380D02*
X85628571Y-117562380D01*
X85628571Y-118514761D02*
X85533333Y-118562380D01*
X85342857Y-118562380D01*
X85247619Y-118514761D01*
X85200000Y-118467142D01*
X85152380Y-118371904D01*
X85152380Y-118086190D01*
X85200000Y-117990952D01*
X85247619Y-117943333D01*
X85342857Y-117895714D01*
X85533333Y-117895714D01*
X85628571Y-117943333D01*
X86057142Y-118514761D02*
X86152380Y-118562380D01*
X86342857Y-118562380D01*
X86438095Y-118514761D01*
X86485714Y-118419523D01*
X86485714Y-118371904D01*
X86438095Y-118276666D01*
X86342857Y-118229047D01*
X86199999Y-118229047D01*
X86104761Y-118181428D01*
X86057142Y-118086190D01*
X86057142Y-118038571D01*
X86104761Y-117943333D01*
X86199999Y-117895714D01*
X86342857Y-117895714D01*
X86438095Y-117943333D01*
D12*
X89261761Y-126428125D02*
X88536046Y-126428125D01*
X88898903Y-126428125D02*
X88898903Y-125158125D01*
X88777951Y-125339554D01*
X88656999Y-125460506D01*
X88536046Y-125520982D01*
X89745570Y-125279078D02*
X89806046Y-125218602D01*
X89926999Y-125158125D01*
X90229380Y-125158125D01*
X90350332Y-125218602D01*
X90410808Y-125279078D01*
X90471284Y-125400030D01*
X90471284Y-125520982D01*
X90410808Y-125702411D01*
X89685094Y-126428125D01*
X90471284Y-126428125D01*
X91922713Y-125097649D02*
X90834141Y-126730506D01*
X92285570Y-125279078D02*
X92346046Y-125218602D01*
X92466999Y-125158125D01*
X92769380Y-125158125D01*
X92890332Y-125218602D01*
X92950808Y-125279078D01*
X93011284Y-125400030D01*
X93011284Y-125520982D01*
X92950808Y-125702411D01*
X92225094Y-126428125D01*
X93011284Y-126428125D01*
X94099856Y-125581459D02*
X94099856Y-126428125D01*
X93797475Y-125097649D02*
X93495094Y-126004792D01*
X94281284Y-126004792D01*
X95551284Y-125158125D02*
X95974618Y-126428125D01*
X96397951Y-125158125D01*
X96821284Y-126428125D02*
X96821284Y-125158125D01*
X97123665Y-125158125D01*
X97305094Y-125218602D01*
X97426046Y-125339554D01*
X97486522Y-125460506D01*
X97546999Y-125702411D01*
X97546999Y-125883840D01*
X97486522Y-126125744D01*
X97426046Y-126246697D01*
X97305094Y-126367649D01*
X97123665Y-126428125D01*
X96821284Y-126428125D01*
X98816999Y-126307173D02*
X98756522Y-126367649D01*
X98575094Y-126428125D01*
X98454141Y-126428125D01*
X98272713Y-126367649D01*
X98151761Y-126246697D01*
X98091284Y-126125744D01*
X98030808Y-125883840D01*
X98030808Y-125702411D01*
X98091284Y-125460506D01*
X98151761Y-125339554D01*
X98272713Y-125218602D01*
X98454141Y-125158125D01*
X98575094Y-125158125D01*
X98756522Y-125218602D01*
X98816999Y-125279078D01*
X100268427Y-126367649D02*
X100449856Y-126428125D01*
X100752237Y-126428125D01*
X100873189Y-126367649D01*
X100933665Y-126307173D01*
X100994141Y-126186221D01*
X100994141Y-126065268D01*
X100933665Y-125944316D01*
X100873189Y-125883840D01*
X100752237Y-125823363D01*
X100510332Y-125762887D01*
X100389380Y-125702411D01*
X100328903Y-125641935D01*
X100268427Y-125520982D01*
X100268427Y-125400030D01*
X100328903Y-125279078D01*
X100389380Y-125218602D01*
X100510332Y-125158125D01*
X100812713Y-125158125D01*
X100994141Y-125218602D01*
X101417475Y-125581459D02*
X101719856Y-126428125D01*
X102022237Y-125581459D02*
X101719856Y-126428125D01*
X101598903Y-126730506D01*
X101538427Y-126790982D01*
X101417475Y-126851459D01*
X102445570Y-126367649D02*
X102566522Y-126428125D01*
X102808427Y-126428125D01*
X102929380Y-126367649D01*
X102989856Y-126246697D01*
X102989856Y-126186221D01*
X102929380Y-126065268D01*
X102808427Y-126004792D01*
X102626999Y-126004792D01*
X102506046Y-125944316D01*
X102445570Y-125823363D01*
X102445570Y-125762887D01*
X102506046Y-125641935D01*
X102626999Y-125581459D01*
X102808427Y-125581459D01*
X102929380Y-125641935D01*
X103352713Y-125581459D02*
X103836522Y-125581459D01*
X103534141Y-125158125D02*
X103534141Y-126246697D01*
X103594618Y-126367649D01*
X103715570Y-126428125D01*
X103836522Y-126428125D01*
X104743665Y-126367649D02*
X104622713Y-126428125D01*
X104380808Y-126428125D01*
X104259856Y-126367649D01*
X104199380Y-126246697D01*
X104199380Y-125762887D01*
X104259856Y-125641935D01*
X104380808Y-125581459D01*
X104622713Y-125581459D01*
X104743665Y-125641935D01*
X104804141Y-125762887D01*
X104804141Y-125883840D01*
X104199380Y-126004792D01*
X105348427Y-126428125D02*
X105348427Y-125581459D01*
X105348427Y-125702411D02*
X105408903Y-125641935D01*
X105529856Y-125581459D01*
X105711284Y-125581459D01*
X105832237Y-125641935D01*
X105892713Y-125762887D01*
X105892713Y-126428125D01*
X105892713Y-125762887D02*
X105953189Y-125641935D01*
X106074141Y-125581459D01*
X106255570Y-125581459D01*
X106376522Y-125641935D01*
X106436999Y-125762887D01*
X106436999Y-126428125D01*
D11*
X130658430Y-118918396D02*
X130658430Y-117418396D01*
X131301287Y-118918396D02*
X131301287Y-118132682D01*
X131229858Y-117989825D01*
X131087001Y-117918396D01*
X130872715Y-117918396D01*
X130729858Y-117989825D01*
X130658430Y-118061253D01*
X131801287Y-117918396D02*
X132372715Y-117918396D01*
X132015573Y-117418396D02*
X132015573Y-118704110D01*
X132087001Y-118846967D01*
X132229858Y-118918396D01*
X132372715Y-118918396D01*
X132658430Y-117918396D02*
X133229858Y-117918396D01*
X132872715Y-117418396D02*
X132872715Y-118704110D01*
X132944144Y-118846967D01*
X133087001Y-118918396D01*
X133229858Y-118918396D01*
X133729858Y-117918396D02*
X133729858Y-119418396D01*
X133729858Y-117989825D02*
X133872715Y-117918396D01*
X134158430Y-117918396D01*
X134301287Y-117989825D01*
X134372715Y-118061253D01*
X134444144Y-118204110D01*
X134444144Y-118632682D01*
X134372715Y-118775539D01*
X134301287Y-118846967D01*
X134158430Y-118918396D01*
X133872715Y-118918396D01*
X133729858Y-118846967D01*
X135015573Y-118846967D02*
X135158430Y-118918396D01*
X135444144Y-118918396D01*
X135587001Y-118846967D01*
X135658430Y-118704110D01*
X135658430Y-118632682D01*
X135587001Y-118489825D01*
X135444144Y-118418396D01*
X135229858Y-118418396D01*
X135087001Y-118346967D01*
X135015573Y-118204110D01*
X135015573Y-118132682D01*
X135087001Y-117989825D01*
X135229858Y-117918396D01*
X135444144Y-117918396D01*
X135587001Y-117989825D01*
X136301287Y-118775539D02*
X136372715Y-118846967D01*
X136301287Y-118918396D01*
X136229858Y-118846967D01*
X136301287Y-118775539D01*
X136301287Y-118918396D01*
X136301287Y-117989825D02*
X136372715Y-118061253D01*
X136301287Y-118132682D01*
X136229858Y-118061253D01*
X136301287Y-117989825D01*
X136301287Y-118132682D01*
X138087001Y-117346967D02*
X136801287Y-119275539D01*
X139658430Y-117346967D02*
X138372715Y-119275539D01*
X140801287Y-117918396D02*
X140801287Y-119132682D01*
X140729858Y-119275539D01*
X140658430Y-119346967D01*
X140515573Y-119418396D01*
X140301287Y-119418396D01*
X140158430Y-119346967D01*
X140801287Y-118846967D02*
X140658430Y-118918396D01*
X140372715Y-118918396D01*
X140229858Y-118846967D01*
X140158430Y-118775539D01*
X140087001Y-118632682D01*
X140087001Y-118204110D01*
X140158430Y-118061253D01*
X140229858Y-117989825D01*
X140372715Y-117918396D01*
X140658430Y-117918396D01*
X140801287Y-117989825D01*
X141515573Y-118918396D02*
X141515573Y-117918396D01*
X141515573Y-117418396D02*
X141444144Y-117489825D01*
X141515573Y-117561253D01*
X141587001Y-117489825D01*
X141515573Y-117418396D01*
X141515573Y-117561253D01*
X142015573Y-117918396D02*
X142587001Y-117918396D01*
X142229858Y-117418396D02*
X142229858Y-118704110D01*
X142301287Y-118846967D01*
X142444144Y-118918396D01*
X142587001Y-118918396D01*
X143087001Y-118918396D02*
X143087001Y-117418396D01*
X143729858Y-118918396D02*
X143729858Y-118132682D01*
X143658430Y-117989825D01*
X143515573Y-117918396D01*
X143301287Y-117918396D01*
X143158430Y-117989825D01*
X143087001Y-118061253D01*
X145087001Y-117918396D02*
X145087001Y-118918396D01*
X144444144Y-117918396D02*
X144444144Y-118704110D01*
X144515573Y-118846967D01*
X144658430Y-118918396D01*
X144872715Y-118918396D01*
X145015573Y-118846967D01*
X145087001Y-118775539D01*
X145801287Y-118918396D02*
X145801287Y-117418396D01*
X145801287Y-117989825D02*
X145944144Y-117918396D01*
X146229858Y-117918396D01*
X146372715Y-117989825D01*
X146444144Y-118061253D01*
X146515573Y-118204110D01*
X146515573Y-118632682D01*
X146444144Y-118775539D01*
X146372715Y-118846967D01*
X146229858Y-118918396D01*
X145944144Y-118918396D01*
X145801287Y-118846967D01*
X147158430Y-118775539D02*
X147229858Y-118846967D01*
X147158430Y-118918396D01*
X147087001Y-118846967D01*
X147158430Y-118775539D01*
X147158430Y-118918396D01*
X148515573Y-118846967D02*
X148372715Y-118918396D01*
X148087001Y-118918396D01*
X147944144Y-118846967D01*
X147872715Y-118775539D01*
X147801287Y-118632682D01*
X147801287Y-118204110D01*
X147872715Y-118061253D01*
X147944144Y-117989825D01*
X148087001Y-117918396D01*
X148372715Y-117918396D01*
X148515573Y-117989825D01*
X149372715Y-118918396D02*
X149229858Y-118846967D01*
X149158430Y-118775539D01*
X149087001Y-118632682D01*
X149087001Y-118204110D01*
X149158430Y-118061253D01*
X149229858Y-117989825D01*
X149372715Y-117918396D01*
X149587001Y-117918396D01*
X149729858Y-117989825D01*
X149801287Y-118061253D01*
X149872715Y-118204110D01*
X149872715Y-118632682D01*
X149801287Y-118775539D01*
X149729858Y-118846967D01*
X149587001Y-118918396D01*
X149372715Y-118918396D01*
X150515573Y-118918396D02*
X150515573Y-117918396D01*
X150515573Y-118061253D02*
X150587001Y-117989825D01*
X150729858Y-117918396D01*
X150944144Y-117918396D01*
X151087001Y-117989825D01*
X151158430Y-118132682D01*
X151158430Y-118918396D01*
X151158430Y-118132682D02*
X151229858Y-117989825D01*
X151372715Y-117918396D01*
X151587001Y-117918396D01*
X151729858Y-117989825D01*
X151801287Y-118132682D01*
X151801287Y-118918396D01*
X153587001Y-117346967D02*
X152301287Y-119275539D01*
X153872715Y-117418396D02*
X154729858Y-117418396D01*
X154301287Y-118918396D02*
X154301287Y-117418396D01*
X155658430Y-117418396D02*
X155658430Y-118489825D01*
X155587001Y-118704110D01*
X155444144Y-118846967D01*
X155229858Y-118918396D01*
X155087001Y-118918396D01*
X157087001Y-118918396D02*
X156372715Y-118918396D01*
X156372715Y-117418396D01*
X157372715Y-117418396D02*
X158229858Y-117418396D01*
X157801287Y-118918396D02*
X157801287Y-117418396D01*
X158729858Y-118918396D02*
X158729858Y-117418396D01*
X159229858Y-118489825D01*
X159729858Y-117418396D01*
X159729858Y-118918396D01*
X161515573Y-117346967D02*
X160229858Y-119275539D01*
X162015573Y-118918396D02*
X162015573Y-117418396D01*
X162515573Y-118489825D01*
X163015573Y-117418396D01*
X163015573Y-118918396D01*
X164372715Y-118918396D02*
X164372715Y-118132682D01*
X164301287Y-117989825D01*
X164158430Y-117918396D01*
X163872715Y-117918396D01*
X163729858Y-117989825D01*
X164372715Y-118846967D02*
X164229858Y-118918396D01*
X163872715Y-118918396D01*
X163729858Y-118846967D01*
X163658430Y-118704110D01*
X163658430Y-118561253D01*
X163729858Y-118418396D01*
X163872715Y-118346967D01*
X164229858Y-118346967D01*
X164372715Y-118275539D01*
X165087001Y-118918396D02*
X165087001Y-117418396D01*
X165229858Y-118346967D02*
X165658430Y-118918396D01*
X165658430Y-117918396D02*
X165087001Y-118489825D01*
X166872715Y-118846967D02*
X166729858Y-118918396D01*
X166444144Y-118918396D01*
X166301287Y-118846967D01*
X166229858Y-118704110D01*
X166229858Y-118132682D01*
X166301287Y-117989825D01*
X166444144Y-117918396D01*
X166729858Y-117918396D01*
X166872715Y-117989825D01*
X166944144Y-118132682D01*
X166944144Y-118275539D01*
X166229858Y-118418396D01*
X167587001Y-118918396D02*
X167587001Y-117418396D01*
X168087001Y-117918396D02*
X168658430Y-117918396D01*
X168301287Y-117418396D02*
X168301287Y-118704110D01*
X168372715Y-118846967D01*
X168515573Y-118918396D01*
X168658430Y-118918396D01*
X170015573Y-118918396D02*
X169515573Y-118204110D01*
X169158430Y-118918396D02*
X169158430Y-117418396D01*
X169729858Y-117418396D01*
X169872715Y-117489825D01*
X169944144Y-117561253D01*
X170015573Y-117704110D01*
X170015573Y-117918396D01*
X169944144Y-118061253D01*
X169872715Y-118132682D01*
X169729858Y-118204110D01*
X169158430Y-118204110D01*
X171301287Y-118918396D02*
X171301287Y-118132682D01*
X171229858Y-117989825D01*
X171087001Y-117918396D01*
X170801287Y-117918396D01*
X170658430Y-117989825D01*
X171301287Y-118846967D02*
X171158430Y-118918396D01*
X170801287Y-118918396D01*
X170658430Y-118846967D01*
X170587001Y-118704110D01*
X170587001Y-118561253D01*
X170658430Y-118418396D01*
X170801287Y-118346967D01*
X171158430Y-118346967D01*
X171301287Y-118275539D01*
X172015573Y-118918396D02*
X172015573Y-117918396D01*
X172015573Y-117418396D02*
X171944144Y-117489825D01*
X172015573Y-117561253D01*
X172087001Y-117489825D01*
X172015573Y-117418396D01*
X172015573Y-117561253D01*
X172729858Y-117918396D02*
X172729858Y-118918396D01*
X172729858Y-118061253D02*
X172801287Y-117989825D01*
X172944144Y-117918396D01*
X173158430Y-117918396D01*
X173301287Y-117989825D01*
X173372715Y-118132682D01*
X173372715Y-118918396D01*
X184255798Y-92001430D02*
X184184369Y-92144287D01*
X184184369Y-92358573D01*
X184255798Y-92572858D01*
X184398655Y-92715715D01*
X184541512Y-92787144D01*
X184827226Y-92858573D01*
X185041512Y-92858573D01*
X185327226Y-92787144D01*
X185470083Y-92715715D01*
X185612940Y-92572858D01*
X185684369Y-92358573D01*
X185684369Y-92215715D01*
X185612940Y-92001430D01*
X185541512Y-91930001D01*
X185041512Y-91930001D01*
X185041512Y-92215715D01*
X185684369Y-91287144D02*
X184184369Y-91287144D01*
X185684369Y-90430001D01*
X184184369Y-90430001D01*
X185684369Y-89715715D02*
X184184369Y-89715715D01*
X184184369Y-89358573D01*
X184255798Y-89144287D01*
X184398655Y-89001430D01*
X184541512Y-88930001D01*
X184827226Y-88858573D01*
X185041512Y-88858573D01*
X185327226Y-88930001D01*
X185470083Y-89001430D01*
X185612940Y-89144287D01*
X185684369Y-89358573D01*
X185684369Y-89715715D01*
D10*
X136021707Y-126009813D02*
X136355040Y-126009813D01*
X136497897Y-126533622D02*
X136021707Y-126533622D01*
X136021707Y-125533622D01*
X136497897Y-125533622D01*
X136831231Y-126533622D02*
X137355040Y-125866956D01*
X136831231Y-125866956D02*
X137355040Y-126533622D01*
X137735993Y-125866956D02*
X137735993Y-126866956D01*
X137735993Y-125914575D02*
X137831231Y-125866956D01*
X138021707Y-125866956D01*
X138116945Y-125914575D01*
X138164564Y-125962194D01*
X138212183Y-126057432D01*
X138212183Y-126343146D01*
X138164564Y-126438384D01*
X138116945Y-126486003D01*
X138021707Y-126533622D01*
X137831231Y-126533622D01*
X137735993Y-126486003D01*
X139069326Y-126533622D02*
X139069326Y-126009813D01*
X139021707Y-125914575D01*
X138926469Y-125866956D01*
X138735993Y-125866956D01*
X138640755Y-125914575D01*
X139069326Y-126486003D02*
X138974088Y-126533622D01*
X138735993Y-126533622D01*
X138640755Y-126486003D01*
X138593136Y-126390765D01*
X138593136Y-126295527D01*
X138640755Y-126200289D01*
X138735993Y-126152670D01*
X138974088Y-126152670D01*
X139069326Y-126105051D01*
X139545516Y-125866956D02*
X139545516Y-126533622D01*
X139545516Y-125962194D02*
X139593136Y-125914575D01*
X139688374Y-125866956D01*
X139831231Y-125866956D01*
X139926469Y-125914575D01*
X139974088Y-126009813D01*
X139974088Y-126533622D01*
X140402659Y-126486003D02*
X140497897Y-126533622D01*
X140688374Y-126533622D01*
X140783612Y-126486003D01*
X140831231Y-126390765D01*
X140831231Y-126343146D01*
X140783612Y-126247908D01*
X140688374Y-126200289D01*
X140545516Y-126200289D01*
X140450278Y-126152670D01*
X140402659Y-126057432D01*
X140402659Y-126009813D01*
X140450278Y-125914575D01*
X140545516Y-125866956D01*
X140688374Y-125866956D01*
X140783612Y-125914575D01*
X141259802Y-126533622D02*
X141259802Y-125866956D01*
X141259802Y-125533622D02*
X141212183Y-125581242D01*
X141259802Y-125628861D01*
X141307421Y-125581242D01*
X141259802Y-125533622D01*
X141259802Y-125628861D01*
X141878850Y-126533622D02*
X141783612Y-126486003D01*
X141735993Y-126438384D01*
X141688374Y-126343146D01*
X141688374Y-126057432D01*
X141735993Y-125962194D01*
X141783612Y-125914575D01*
X141878850Y-125866956D01*
X142021707Y-125866956D01*
X142116945Y-125914575D01*
X142164564Y-125962194D01*
X142212183Y-126057432D01*
X142212183Y-126343146D01*
X142164564Y-126438384D01*
X142116945Y-126486003D01*
X142021707Y-126533622D01*
X141878850Y-126533622D01*
X142640755Y-125866956D02*
X142640755Y-126533622D01*
X142640755Y-125962194D02*
X142688374Y-125914575D01*
X142783612Y-125866956D01*
X142926469Y-125866956D01*
X143021707Y-125914575D01*
X143069326Y-126009813D01*
X143069326Y-126533622D01*
X144307421Y-126533622D02*
X144307421Y-125533622D01*
X144688374Y-125533622D01*
X144783612Y-125581242D01*
X144831231Y-125628861D01*
X144878850Y-125724099D01*
X144878850Y-125866956D01*
X144831231Y-125962194D01*
X144783612Y-126009813D01*
X144688374Y-126057432D01*
X144307421Y-126057432D01*
X145450278Y-126533622D02*
X145355040Y-126486003D01*
X145307421Y-126390765D01*
X145307421Y-125533622D01*
X146259802Y-125866956D02*
X146259802Y-126533622D01*
X145831231Y-125866956D02*
X145831231Y-126390765D01*
X145878850Y-126486003D01*
X145974088Y-126533622D01*
X146116945Y-126533622D01*
X146212183Y-126486003D01*
X146259802Y-126438384D01*
X147164564Y-125866956D02*
X147164564Y-126676480D01*
X147116945Y-126771718D01*
X147069326Y-126819337D01*
X146974088Y-126866956D01*
X146831231Y-126866956D01*
X146735993Y-126819337D01*
X147164564Y-126486003D02*
X147069326Y-126533622D01*
X146878850Y-126533622D01*
X146783612Y-126486003D01*
X146735993Y-126438384D01*
X146688374Y-126343146D01*
X146688374Y-126057432D01*
X146735993Y-125962194D01*
X146783612Y-125914575D01*
X146878850Y-125866956D01*
X147069326Y-125866956D01*
X147164564Y-125914575D01*
X148259802Y-125866956D02*
X148640755Y-125866956D01*
X148402659Y-126533622D02*
X148402659Y-125676480D01*
X148450278Y-125581242D01*
X148545516Y-125533622D01*
X148640755Y-125533622D01*
X149116945Y-126533622D02*
X149021707Y-126486003D01*
X148974088Y-126438384D01*
X148926469Y-126343146D01*
X148926469Y-126057432D01*
X148974088Y-125962194D01*
X149021707Y-125914575D01*
X149116945Y-125866956D01*
X149259802Y-125866956D01*
X149355040Y-125914575D01*
X149402659Y-125962194D01*
X149450278Y-126057432D01*
X149450278Y-126343146D01*
X149402659Y-126438384D01*
X149355040Y-126486003D01*
X149259802Y-126533622D01*
X149116945Y-126533622D01*
X149878850Y-126533622D02*
X149878850Y-125866956D01*
X149878850Y-126057432D02*
X149926469Y-125962194D01*
X149974088Y-125914575D01*
X150069326Y-125866956D01*
X150164564Y-125866956D01*
X151688374Y-126533622D02*
X151688374Y-125533622D01*
X151688374Y-126486003D02*
X151593136Y-126533622D01*
X151402659Y-126533622D01*
X151307421Y-126486003D01*
X151259802Y-126438384D01*
X151212183Y-126343146D01*
X151212183Y-126057432D01*
X151259802Y-125962194D01*
X151307421Y-125914575D01*
X151402659Y-125866956D01*
X151593136Y-125866956D01*
X151688374Y-125914575D01*
X152593136Y-126533622D02*
X152593136Y-126009813D01*
X152545516Y-125914575D01*
X152450278Y-125866956D01*
X152259802Y-125866956D01*
X152164564Y-125914575D01*
X152593136Y-126486003D02*
X152497897Y-126533622D01*
X152259802Y-126533622D01*
X152164564Y-126486003D01*
X152116945Y-126390765D01*
X152116945Y-126295527D01*
X152164564Y-126200289D01*
X152259802Y-126152670D01*
X152497897Y-126152670D01*
X152593136Y-126105051D01*
X153497897Y-125866956D02*
X153497897Y-126533622D01*
X153069326Y-125866956D02*
X153069326Y-126390765D01*
X153116945Y-126486003D01*
X153212183Y-126533622D01*
X153355040Y-126533622D01*
X153450278Y-126486003D01*
X153497897Y-126438384D01*
X154402659Y-125866956D02*
X154402659Y-126676480D01*
X154355040Y-126771718D01*
X154307421Y-126819337D01*
X154212183Y-126866956D01*
X154069326Y-126866956D01*
X153974088Y-126819337D01*
X154402659Y-126486003D02*
X154307421Y-126533622D01*
X154116945Y-126533622D01*
X154021707Y-126486003D01*
X153974088Y-126438384D01*
X153926469Y-126343146D01*
X153926469Y-126057432D01*
X153974088Y-125962194D01*
X154021707Y-125914575D01*
X154116945Y-125866956D01*
X154307421Y-125866956D01*
X154402659Y-125914575D01*
X154878850Y-126533622D02*
X154878850Y-125533622D01*
X155307421Y-126533622D02*
X155307421Y-126009813D01*
X155259802Y-125914575D01*
X155164564Y-125866956D01*
X155021707Y-125866956D01*
X154926469Y-125914575D01*
X154878850Y-125962194D01*
X155640755Y-125866956D02*
X156021707Y-125866956D01*
X155783612Y-125533622D02*
X155783612Y-126390765D01*
X155831231Y-126486003D01*
X155926469Y-126533622D01*
X156021707Y-126533622D01*
X156735993Y-126486003D02*
X156640755Y-126533622D01*
X156450278Y-126533622D01*
X156355040Y-126486003D01*
X156307421Y-126390765D01*
X156307421Y-126009813D01*
X156355040Y-125914575D01*
X156450278Y-125866956D01*
X156640755Y-125866956D01*
X156735993Y-125914575D01*
X156783612Y-126009813D01*
X156783612Y-126105051D01*
X156307421Y-126200289D01*
X157212183Y-126533622D02*
X157212183Y-125866956D01*
X157212183Y-126057432D02*
X157259802Y-125962194D01*
X157307421Y-125914575D01*
X157402659Y-125866956D01*
X157497897Y-125866956D01*
X158593135Y-126533622D02*
X158593135Y-125533622D01*
X158593135Y-125914575D02*
X158688374Y-125866956D01*
X158878850Y-125866956D01*
X158974088Y-125914575D01*
X159021707Y-125962194D01*
X159069326Y-126057432D01*
X159069326Y-126343146D01*
X159021707Y-126438384D01*
X158974088Y-126486003D01*
X158878850Y-126533622D01*
X158688374Y-126533622D01*
X158593135Y-126486003D01*
X159640755Y-126533622D02*
X159545516Y-126486003D01*
X159497897Y-126438384D01*
X159450278Y-126343146D01*
X159450278Y-126057432D01*
X159497897Y-125962194D01*
X159545516Y-125914575D01*
X159640755Y-125866956D01*
X159783612Y-125866956D01*
X159878850Y-125914575D01*
X159926469Y-125962194D01*
X159974088Y-126057432D01*
X159974088Y-126343146D01*
X159926469Y-126438384D01*
X159878850Y-126486003D01*
X159783612Y-126533622D01*
X159640755Y-126533622D01*
X160831231Y-126533622D02*
X160831231Y-126009813D01*
X160783612Y-125914575D01*
X160688374Y-125866956D01*
X160497897Y-125866956D01*
X160402659Y-125914575D01*
X160831231Y-126486003D02*
X160735993Y-126533622D01*
X160497897Y-126533622D01*
X160402659Y-126486003D01*
X160355040Y-126390765D01*
X160355040Y-126295527D01*
X160402659Y-126200289D01*
X160497897Y-126152670D01*
X160735993Y-126152670D01*
X160831231Y-126105051D01*
X161307421Y-126533622D02*
X161307421Y-125866956D01*
X161307421Y-126057432D02*
X161355040Y-125962194D01*
X161402659Y-125914575D01*
X161497897Y-125866956D01*
X161593135Y-125866956D01*
X162355040Y-126533622D02*
X162355040Y-125533622D01*
X162355040Y-126486003D02*
X162259802Y-126533622D01*
X162069326Y-126533622D01*
X161974088Y-126486003D01*
X161926469Y-126438384D01*
X161878850Y-126343146D01*
X161878850Y-126057432D01*
X161926469Y-125962194D01*
X161974088Y-125914575D01*
X162069326Y-125866956D01*
X162259802Y-125866956D01*
X162355040Y-125914575D01*
X162783612Y-126486003D02*
X162878850Y-126533622D01*
X163069326Y-126533622D01*
X163164564Y-126486003D01*
X163212183Y-126390765D01*
X163212183Y-126343146D01*
X163164564Y-126247908D01*
X163069326Y-126200289D01*
X162926469Y-126200289D01*
X162831231Y-126152670D01*
X162783612Y-126057432D01*
X162783612Y-126009813D01*
X162831231Y-125914575D01*
X162926469Y-125866956D01*
X163069326Y-125866956D01*
X163164564Y-125914575D01*
D11*
X150079969Y-95522490D02*
X150794254Y-95522490D01*
X149937112Y-95951061D02*
X150437112Y-94451061D01*
X150937112Y-95951061D01*
X151437112Y-94451061D02*
X151437112Y-95665347D01*
X151508540Y-95808204D01*
X151579969Y-95879632D01*
X151722826Y-95951061D01*
X152008540Y-95951061D01*
X152151397Y-95879632D01*
X152222826Y-95808204D01*
X152294254Y-95665347D01*
X152294254Y-94451061D01*
X152865683Y-94451061D02*
X153865683Y-95951061D01*
X153865683Y-94451061D02*
X152865683Y-95951061D01*
X149937112Y-96866061D02*
X150437112Y-98366061D01*
X150937112Y-96866061D01*
X151437112Y-98366061D02*
X151437112Y-96866061D01*
X151794254Y-96866061D01*
X152008540Y-96937490D01*
X152151397Y-97080347D01*
X152222826Y-97223204D01*
X152294254Y-97508918D01*
X152294254Y-97723204D01*
X152222826Y-98008918D01*
X152151397Y-98151775D01*
X152008540Y-98294632D01*
X151794254Y-98366061D01*
X151437112Y-98366061D01*
X153794254Y-98223204D02*
X153722826Y-98294632D01*
X153508540Y-98366061D01*
X153365683Y-98366061D01*
X153151397Y-98294632D01*
X153008540Y-98151775D01*
X152937112Y-98008918D01*
X152865683Y-97723204D01*
X152865683Y-97508918D01*
X152937112Y-97223204D01*
X153008540Y-97080347D01*
X153151397Y-96937490D01*
X153365683Y-96866061D01*
X153508540Y-96866061D01*
X153722826Y-96937490D01*
X153794254Y-97008918D01*
X65881672Y-58760075D02*
X67151672Y-58760075D01*
X65881672Y-60260075D01*
X67151672Y-60260075D01*
X68240244Y-58760075D02*
X68603101Y-58760075D01*
X68784530Y-58831504D01*
X68965958Y-58974361D01*
X69056672Y-59260075D01*
X69056672Y-59760075D01*
X68965958Y-60045789D01*
X68784530Y-60188646D01*
X68603101Y-60260075D01*
X68240244Y-60260075D01*
X68058815Y-60188646D01*
X67877387Y-60045789D01*
X67786672Y-59760075D01*
X67786672Y-59260075D01*
X67877387Y-58974361D01*
X68058815Y-58831504D01*
X68240244Y-58760075D01*
X69873101Y-60260075D02*
X69873101Y-58760075D01*
X70961672Y-60260075D01*
X70961672Y-58760075D01*
X71868815Y-59474361D02*
X72503815Y-59474361D01*
X72775958Y-60260075D02*
X71868815Y-60260075D01*
X71868815Y-58760075D01*
X72775958Y-58760075D01*
X76041672Y-60260075D02*
X74953101Y-60260075D01*
X75497387Y-60260075D02*
X75497387Y-58760075D01*
X75315958Y-58974361D01*
X75134530Y-59117218D01*
X74953101Y-59188646D01*
X64410563Y-126728853D02*
X64410563Y-125228853D01*
X64910563Y-126300282D01*
X65410563Y-125228853D01*
X65410563Y-126728853D01*
X66767706Y-126728853D02*
X66767706Y-125943139D01*
X66696277Y-125800282D01*
X66553420Y-125728853D01*
X66267706Y-125728853D01*
X66124849Y-125800282D01*
X66767706Y-126657424D02*
X66624849Y-126728853D01*
X66267706Y-126728853D01*
X66124849Y-126657424D01*
X66053420Y-126514567D01*
X66053420Y-126371710D01*
X66124849Y-126228853D01*
X66267706Y-126157424D01*
X66624849Y-126157424D01*
X66767706Y-126085996D01*
X67481992Y-126728853D02*
X67481992Y-125228853D01*
X67624849Y-126157424D02*
X68053420Y-126728853D01*
X68053420Y-125728853D02*
X67481992Y-126300282D01*
X69267706Y-126657424D02*
X69124849Y-126728853D01*
X68839135Y-126728853D01*
X68696277Y-126657424D01*
X68624849Y-126514567D01*
X68624849Y-125943139D01*
X68696277Y-125800282D01*
X68839135Y-125728853D01*
X69124849Y-125728853D01*
X69267706Y-125800282D01*
X69339135Y-125943139D01*
X69339135Y-126085996D01*
X68624849Y-126228853D01*
X69981992Y-126728853D02*
X69981992Y-125228853D01*
X70481992Y-125728853D02*
X71053420Y-125728853D01*
X70696277Y-125228853D02*
X70696277Y-126514567D01*
X70767706Y-126657424D01*
X70910563Y-126728853D01*
X71053420Y-126728853D01*
X72410563Y-126728853D02*
X71910563Y-126014567D01*
X71553420Y-126728853D02*
X71553420Y-125228853D01*
X72124849Y-125228853D01*
X72267706Y-125300282D01*
X72339135Y-125371710D01*
X72410563Y-125514567D01*
X72410563Y-125728853D01*
X72339135Y-125871710D01*
X72267706Y-125943139D01*
X72124849Y-126014567D01*
X71553420Y-126014567D01*
X73696277Y-126728853D02*
X73696277Y-125943139D01*
X73624849Y-125800282D01*
X73481992Y-125728853D01*
X73196277Y-125728853D01*
X73053420Y-125800282D01*
X73696277Y-126657424D02*
X73553420Y-126728853D01*
X73196277Y-126728853D01*
X73053420Y-126657424D01*
X72981992Y-126514567D01*
X72981992Y-126371710D01*
X73053420Y-126228853D01*
X73196277Y-126157424D01*
X73553420Y-126157424D01*
X73696277Y-126085996D01*
X74410563Y-126728853D02*
X74410563Y-125728853D01*
X74410563Y-125228853D02*
X74339135Y-125300282D01*
X74410563Y-125371710D01*
X74481992Y-125300282D01*
X74410563Y-125228853D01*
X74410563Y-125371710D01*
X75124849Y-125728853D02*
X75124849Y-126728853D01*
X75124849Y-125871710D02*
X75196277Y-125800282D01*
X75339135Y-125728853D01*
X75553420Y-125728853D01*
X75696277Y-125800282D01*
X75767706Y-125943139D01*
X75767706Y-126728853D01*
X77410563Y-125228853D02*
X77910563Y-126728853D01*
X78410563Y-125228853D01*
X79696277Y-126728853D02*
X78839135Y-126728853D01*
X79267706Y-126728853D02*
X79267706Y-125228853D01*
X79124849Y-125443139D01*
X78981992Y-125585996D01*
X78839135Y-125657424D01*
X80339135Y-126585996D02*
X80410563Y-126657424D01*
X80339135Y-126728853D01*
X80267706Y-126657424D01*
X80339135Y-126585996D01*
X80339135Y-126728853D01*
X80981992Y-125371710D02*
X81053420Y-125300282D01*
X81196277Y-125228853D01*
X81553420Y-125228853D01*
X81696277Y-125300282D01*
X81767706Y-125371710D01*
X81839135Y-125514567D01*
X81839135Y-125657424D01*
X81767706Y-125871710D01*
X80910563Y-126728853D01*
X81839135Y-126728853D01*
D10*
X70459410Y-64391504D02*
X70459410Y-64201027D01*
X70507030Y-64105789D01*
X70602268Y-64010551D01*
X70792744Y-63962932D01*
X71126077Y-63962932D01*
X71316553Y-64010551D01*
X71411791Y-64105789D01*
X71459410Y-64201027D01*
X71459410Y-64391504D01*
X71411791Y-64486742D01*
X71316553Y-64581980D01*
X71126077Y-64629599D01*
X70792744Y-64629599D01*
X70602268Y-64581980D01*
X70507030Y-64486742D01*
X70459410Y-64391504D01*
X70459410Y-63534361D02*
X71268934Y-63534361D01*
X71364172Y-63486742D01*
X71411791Y-63439123D01*
X71459410Y-63343884D01*
X71459410Y-63153408D01*
X71411791Y-63058170D01*
X71364172Y-63010551D01*
X71268934Y-62962932D01*
X70459410Y-62962932D01*
X70459410Y-62629599D02*
X70459410Y-62058170D01*
X71459410Y-62343884D02*
X70459410Y-62343884D01*
X65427030Y-64153408D02*
X65379410Y-64248646D01*
X65379410Y-64391504D01*
X65427030Y-64534361D01*
X65522268Y-64629599D01*
X65617506Y-64677218D01*
X65807982Y-64724837D01*
X65950839Y-64724837D01*
X66141315Y-64677218D01*
X66236553Y-64629599D01*
X66331791Y-64534361D01*
X66379410Y-64391504D01*
X66379410Y-64296265D01*
X66331791Y-64153408D01*
X66284172Y-64105789D01*
X65950839Y-64105789D01*
X65950839Y-64296265D01*
X66379410Y-63677218D02*
X65379410Y-63677218D01*
X66379410Y-63105789D01*
X65379410Y-63105789D01*
X66379410Y-62629599D02*
X65379410Y-62629599D01*
X65379410Y-62391504D01*
X65427030Y-62248646D01*
X65522268Y-62153408D01*
X65617506Y-62105789D01*
X65807982Y-62058170D01*
X65950839Y-62058170D01*
X66141315Y-62105789D01*
X66236553Y-62153408D01*
X66331791Y-62248646D01*
X66379410Y-62391504D01*
X66379410Y-62629599D01*
%TO.C,C2*%
X92316142Y-72326366D02*
X92363761Y-72373985D01*
X92411380Y-72516842D01*
X92411380Y-72612080D01*
X92363761Y-72754938D01*
X92268523Y-72850176D01*
X92173285Y-72897795D01*
X91982809Y-72945414D01*
X91839952Y-72945414D01*
X91649476Y-72897795D01*
X91554238Y-72850176D01*
X91459000Y-72754938D01*
X91411380Y-72612080D01*
X91411380Y-72516842D01*
X91459000Y-72373985D01*
X91506619Y-72326366D01*
X91506619Y-71945414D02*
X91459000Y-71897795D01*
X91411380Y-71802557D01*
X91411380Y-71564461D01*
X91459000Y-71469223D01*
X91506619Y-71421604D01*
X91601857Y-71373985D01*
X91697095Y-71373985D01*
X91839952Y-71421604D01*
X92411380Y-71993033D01*
X92411380Y-71373985D01*
%TO.C,C3*%
X122656742Y-67491666D02*
X122704361Y-67539285D01*
X122751980Y-67682142D01*
X122751980Y-67777380D01*
X122704361Y-67920238D01*
X122609123Y-68015476D01*
X122513885Y-68063095D01*
X122323409Y-68110714D01*
X122180552Y-68110714D01*
X121990076Y-68063095D01*
X121894838Y-68015476D01*
X121799600Y-67920238D01*
X121751980Y-67777380D01*
X121751980Y-67682142D01*
X121799600Y-67539285D01*
X121847219Y-67491666D01*
X121751980Y-67158333D02*
X121751980Y-66539285D01*
X122132933Y-66872619D01*
X122132933Y-66729761D01*
X122180552Y-66634523D01*
X122228171Y-66586904D01*
X122323409Y-66539285D01*
X122561504Y-66539285D01*
X122656742Y-66586904D01*
X122704361Y-66634523D01*
X122751980Y-66729761D01*
X122751980Y-67015476D01*
X122704361Y-67110714D01*
X122656742Y-67158333D01*
%TO.C,C4*%
X148759998Y-69445682D02*
X148807617Y-69493301D01*
X148855236Y-69636158D01*
X148855236Y-69731396D01*
X148807617Y-69874254D01*
X148712379Y-69969492D01*
X148617141Y-70017111D01*
X148426665Y-70064730D01*
X148283808Y-70064730D01*
X148093332Y-70017111D01*
X147998094Y-69969492D01*
X147902856Y-69874254D01*
X147855236Y-69731396D01*
X147855236Y-69636158D01*
X147902856Y-69493301D01*
X147950475Y-69445682D01*
X148188570Y-68588539D02*
X148855236Y-68588539D01*
X147807617Y-68826635D02*
X148521903Y-69064730D01*
X148521903Y-68445682D01*
%TO.C,D3*%
X87119762Y-78156130D02*
X86119762Y-78156130D01*
X86119762Y-77918035D01*
X86167382Y-77775177D01*
X86262620Y-77679939D01*
X86357858Y-77632320D01*
X86548334Y-77584701D01*
X86691191Y-77584701D01*
X86881667Y-77632320D01*
X86976905Y-77679939D01*
X87072143Y-77775177D01*
X87119762Y-77918035D01*
X87119762Y-78156130D01*
X86119762Y-77251368D02*
X86119762Y-76632320D01*
X86500715Y-76965654D01*
X86500715Y-76822796D01*
X86548334Y-76727558D01*
X86595953Y-76679939D01*
X86691191Y-76632320D01*
X86929286Y-76632320D01*
X87024524Y-76679939D01*
X87072143Y-76727558D01*
X87119762Y-76822796D01*
X87119762Y-77108511D01*
X87072143Y-77203749D01*
X87024524Y-77251368D01*
X81213380Y-85321904D02*
X80213380Y-85321904D01*
X81213380Y-84750476D02*
X80641952Y-85179047D01*
X80213380Y-84750476D02*
X80784809Y-85321904D01*
%TO.C,D5*%
X117727628Y-78104990D02*
X116727628Y-78104990D01*
X116727628Y-77866895D01*
X116775248Y-77724037D01*
X116870486Y-77628799D01*
X116965724Y-77581180D01*
X117156200Y-77533561D01*
X117299057Y-77533561D01*
X117489533Y-77581180D01*
X117584771Y-77628799D01*
X117680009Y-77724037D01*
X117727628Y-77866895D01*
X117727628Y-78104990D01*
X116727628Y-76628799D02*
X116727628Y-77104990D01*
X117203819Y-77152609D01*
X117156200Y-77104990D01*
X117108581Y-77009752D01*
X117108581Y-76771656D01*
X117156200Y-76676418D01*
X117203819Y-76628799D01*
X117299057Y-76581180D01*
X117537152Y-76581180D01*
X117632390Y-76628799D01*
X117680009Y-76676418D01*
X117727628Y-76771656D01*
X117727628Y-77009752D01*
X117680009Y-77104990D01*
X117632390Y-77152609D01*
X111693380Y-85321904D02*
X110693380Y-85321904D01*
X111693380Y-84750476D02*
X111121952Y-85179047D01*
X110693380Y-84750476D02*
X111264809Y-85321904D01*
%TO.C,D7*%
X177155733Y-84156558D02*
X176155733Y-84156558D01*
X176155733Y-83918463D01*
X176203353Y-83775605D01*
X176298591Y-83680367D01*
X176393829Y-83632748D01*
X176584305Y-83585129D01*
X176727162Y-83585129D01*
X176917638Y-83632748D01*
X177012876Y-83680367D01*
X177108114Y-83775605D01*
X177155733Y-83918463D01*
X177155733Y-84156558D01*
X176155733Y-83251796D02*
X176155733Y-82585129D01*
X177155733Y-83013701D01*
X172653380Y-85321904D02*
X171653380Y-85321904D01*
X172653380Y-84750476D02*
X172081952Y-85179047D01*
X171653380Y-84750476D02*
X172224809Y-85321904D01*
%TO.C,D9*%
X148029790Y-78193632D02*
X147029790Y-78193632D01*
X147029790Y-77955537D01*
X147077410Y-77812679D01*
X147172648Y-77717441D01*
X147267886Y-77669822D01*
X147458362Y-77622203D01*
X147601219Y-77622203D01*
X147791695Y-77669822D01*
X147886933Y-77717441D01*
X147982171Y-77812679D01*
X148029790Y-77955537D01*
X148029790Y-78193632D01*
X148029790Y-77146013D02*
X148029790Y-76955537D01*
X147982171Y-76860298D01*
X147934552Y-76812679D01*
X147791695Y-76717441D01*
X147601219Y-76669822D01*
X147220267Y-76669822D01*
X147125029Y-76717441D01*
X147077410Y-76765060D01*
X147029790Y-76860298D01*
X147029790Y-77050775D01*
X147077410Y-77146013D01*
X147125029Y-77193632D01*
X147220267Y-77241251D01*
X147458362Y-77241251D01*
X147553600Y-77193632D01*
X147601219Y-77146013D01*
X147648838Y-77050775D01*
X147648838Y-76860298D01*
X147601219Y-76765060D01*
X147553600Y-76717441D01*
X147458362Y-76669822D01*
X142173380Y-85321904D02*
X141173380Y-85321904D01*
X142173380Y-84750476D02*
X141601952Y-85179047D01*
X141173380Y-84750476D02*
X141744809Y-85321904D01*
%TO.C,D1*%
X126864804Y-126680580D02*
X126864804Y-125680580D01*
X127102900Y-125680580D01*
X127245757Y-125728200D01*
X127340995Y-125823438D01*
X127388614Y-125918676D01*
X127436233Y-126109152D01*
X127436233Y-126252009D01*
X127388614Y-126442485D01*
X127340995Y-126537723D01*
X127245757Y-126632961D01*
X127102900Y-126680580D01*
X126864804Y-126680580D01*
X128388614Y-126680580D02*
X127817185Y-126680580D01*
X128102900Y-126680580D02*
X128102900Y-125680580D01*
X128007661Y-125823438D01*
X127912423Y-125918676D01*
X127817185Y-125966295D01*
%TO.C,J2*%
X62722380Y-122253333D02*
X63436666Y-122253333D01*
X63579523Y-122300952D01*
X63674761Y-122396190D01*
X63722380Y-122539047D01*
X63722380Y-122634285D01*
X62817619Y-121824761D02*
X62770000Y-121777142D01*
X62722380Y-121681904D01*
X62722380Y-121443809D01*
X62770000Y-121348571D01*
X62817619Y-121300952D01*
X62912857Y-121253333D01*
X63008095Y-121253333D01*
X63150952Y-121300952D01*
X63722380Y-121872380D01*
X63722380Y-121253333D01*
%TO.C,J3*%
X69684496Y-100899207D02*
X70398782Y-100899207D01*
X70541639Y-100946826D01*
X70636877Y-101042064D01*
X70684496Y-101184921D01*
X70684496Y-101280159D01*
X69684496Y-100518254D02*
X69684496Y-99899207D01*
X70065449Y-100232540D01*
X70065449Y-100089683D01*
X70113068Y-99994445D01*
X70160687Y-99946826D01*
X70255925Y-99899207D01*
X70494020Y-99899207D01*
X70589258Y-99946826D01*
X70636877Y-99994445D01*
X70684496Y-100089683D01*
X70684496Y-100375397D01*
X70636877Y-100470635D01*
X70589258Y-100518254D01*
%TO.C,P1*%
X172077337Y-99227048D02*
X171077337Y-99227048D01*
X171077337Y-98846095D01*
X171124957Y-98750857D01*
X171172576Y-98703238D01*
X171267814Y-98655619D01*
X171410671Y-98655619D01*
X171505909Y-98703238D01*
X171553528Y-98750857D01*
X171601147Y-98846095D01*
X171601147Y-99227048D01*
X172077337Y-97703238D02*
X172077337Y-98274667D01*
X172077337Y-97988953D02*
X171077337Y-97988953D01*
X171220195Y-98084191D01*
X171315433Y-98179429D01*
X171363052Y-98274667D01*
D12*
%TO.C,Q3*%
X62133706Y-84094876D02*
X62012754Y-84034400D01*
X61891801Y-83913447D01*
X61710373Y-83732019D01*
X61589420Y-83671542D01*
X61468468Y-83671542D01*
X61528944Y-83973923D02*
X61407992Y-83913447D01*
X61287039Y-83792495D01*
X61226563Y-83550590D01*
X61226563Y-83127257D01*
X61287039Y-82885352D01*
X61407992Y-82764400D01*
X61528944Y-82703923D01*
X61770849Y-82703923D01*
X61891801Y-82764400D01*
X62012754Y-82885352D01*
X62073230Y-83127257D01*
X62073230Y-83550590D01*
X62012754Y-83792495D01*
X61891801Y-83913447D01*
X61770849Y-83973923D01*
X61528944Y-83973923D01*
X62496563Y-82703923D02*
X63282754Y-82703923D01*
X62859420Y-83187733D01*
X63040849Y-83187733D01*
X63161801Y-83248209D01*
X63222278Y-83308685D01*
X63282754Y-83429638D01*
X63282754Y-83732019D01*
X63222278Y-83852971D01*
X63161801Y-83913447D01*
X63040849Y-83973923D01*
X62677992Y-83973923D01*
X62557039Y-83913447D01*
X62496563Y-83852971D01*
%TO.C,Q6*%
X91454834Y-83970074D02*
X91333882Y-83909598D01*
X91212929Y-83788645D01*
X91031501Y-83607217D01*
X90910548Y-83546740D01*
X90789596Y-83546740D01*
X90850072Y-83849121D02*
X90729120Y-83788645D01*
X90608167Y-83667693D01*
X90547691Y-83425788D01*
X90547691Y-83002455D01*
X90608167Y-82760550D01*
X90729120Y-82639598D01*
X90850072Y-82579121D01*
X91091977Y-82579121D01*
X91212929Y-82639598D01*
X91333882Y-82760550D01*
X91394358Y-83002455D01*
X91394358Y-83425788D01*
X91333882Y-83667693D01*
X91212929Y-83788645D01*
X91091977Y-83849121D01*
X90850072Y-83849121D01*
X92482929Y-82579121D02*
X92241025Y-82579121D01*
X92120072Y-82639598D01*
X92059596Y-82700074D01*
X91938644Y-82881502D01*
X91878167Y-83123407D01*
X91878167Y-83607217D01*
X91938644Y-83728169D01*
X91999120Y-83788645D01*
X92120072Y-83849121D01*
X92361977Y-83849121D01*
X92482929Y-83788645D01*
X92543406Y-83728169D01*
X92603882Y-83607217D01*
X92603882Y-83304836D01*
X92543406Y-83183883D01*
X92482929Y-83123407D01*
X92361977Y-83062931D01*
X92120072Y-83062931D01*
X91999120Y-83123407D01*
X91938644Y-83183883D01*
X91878167Y-83304836D01*
D10*
%TO.C,Q7*%
X94521061Y-101614319D02*
X94425823Y-101566700D01*
X94330585Y-101471461D01*
X94187728Y-101328604D01*
X94092490Y-101280985D01*
X93997252Y-101280985D01*
X94044871Y-101519080D02*
X93949633Y-101471461D01*
X93854395Y-101376223D01*
X93806776Y-101185747D01*
X93806776Y-100852414D01*
X93854395Y-100661938D01*
X93949633Y-100566700D01*
X94044871Y-100519080D01*
X94235347Y-100519080D01*
X94330585Y-100566700D01*
X94425823Y-100661938D01*
X94473442Y-100852414D01*
X94473442Y-101185747D01*
X94425823Y-101376223D01*
X94330585Y-101471461D01*
X94235347Y-101519080D01*
X94044871Y-101519080D01*
X94806776Y-100519080D02*
X95473442Y-100519080D01*
X95044871Y-101519080D01*
D12*
%TO.C,Q9*%
X121668913Y-83440933D02*
X121547961Y-83380457D01*
X121427008Y-83259504D01*
X121245580Y-83078076D01*
X121124627Y-83017599D01*
X121003675Y-83017599D01*
X121064151Y-83319980D02*
X120943199Y-83259504D01*
X120822246Y-83138552D01*
X120761770Y-82896647D01*
X120761770Y-82473314D01*
X120822246Y-82231409D01*
X120943199Y-82110457D01*
X121064151Y-82049980D01*
X121306056Y-82049980D01*
X121427008Y-82110457D01*
X121547961Y-82231409D01*
X121608437Y-82473314D01*
X121608437Y-82896647D01*
X121547961Y-83138552D01*
X121427008Y-83259504D01*
X121306056Y-83319980D01*
X121064151Y-83319980D01*
X122213199Y-83319980D02*
X122455104Y-83319980D01*
X122576056Y-83259504D01*
X122636532Y-83199028D01*
X122757485Y-83017599D01*
X122817961Y-82775695D01*
X122817961Y-82291885D01*
X122757485Y-82170933D01*
X122697008Y-82110457D01*
X122576056Y-82049980D01*
X122334151Y-82049980D01*
X122213199Y-82110457D01*
X122152723Y-82170933D01*
X122092246Y-82291885D01*
X122092246Y-82594266D01*
X122152723Y-82715218D01*
X122213199Y-82775695D01*
X122334151Y-82836171D01*
X122576056Y-82836171D01*
X122697008Y-82775695D01*
X122757485Y-82715218D01*
X122817961Y-82594266D01*
%TO.C,Q12*%
X155672403Y-85157643D02*
X155551451Y-85097167D01*
X155430498Y-84976214D01*
X155249070Y-84794786D01*
X155128118Y-84734309D01*
X155007165Y-84734309D01*
X155067641Y-85036690D02*
X154946689Y-84976214D01*
X154825737Y-84855262D01*
X154765260Y-84613357D01*
X154765260Y-84190024D01*
X154825737Y-83948119D01*
X154946689Y-83827167D01*
X155067641Y-83766690D01*
X155309546Y-83766690D01*
X155430498Y-83827167D01*
X155551451Y-83948119D01*
X155611927Y-84190024D01*
X155611927Y-84613357D01*
X155551451Y-84855262D01*
X155430498Y-84976214D01*
X155309546Y-85036690D01*
X155067641Y-85036690D01*
X156821451Y-85036690D02*
X156095737Y-85036690D01*
X156458594Y-85036690D02*
X156458594Y-83766690D01*
X156337641Y-83948119D01*
X156216689Y-84069071D01*
X156095737Y-84129547D01*
X157305260Y-83887643D02*
X157365737Y-83827167D01*
X157486689Y-83766690D01*
X157789070Y-83766690D01*
X157910022Y-83827167D01*
X157970498Y-83887643D01*
X158030975Y-84008595D01*
X158030975Y-84129547D01*
X157970498Y-84310976D01*
X157244784Y-85036690D01*
X158030975Y-85036690D01*
%TO.C,Q13*%
X184072008Y-105017848D02*
X183951056Y-104957372D01*
X183830103Y-104836419D01*
X183648675Y-104654991D01*
X183527723Y-104594514D01*
X183406770Y-104594514D01*
X183467246Y-104896895D02*
X183346294Y-104836419D01*
X183225342Y-104715467D01*
X183164865Y-104473562D01*
X183164865Y-104050229D01*
X183225342Y-103808324D01*
X183346294Y-103687372D01*
X183467246Y-103626895D01*
X183709151Y-103626895D01*
X183830103Y-103687372D01*
X183951056Y-103808324D01*
X184011532Y-104050229D01*
X184011532Y-104473562D01*
X183951056Y-104715467D01*
X183830103Y-104836419D01*
X183709151Y-104896895D01*
X183467246Y-104896895D01*
X185221056Y-104896895D02*
X184495342Y-104896895D01*
X184858199Y-104896895D02*
X184858199Y-103626895D01*
X184737246Y-103808324D01*
X184616294Y-103929276D01*
X184495342Y-103989752D01*
X185644389Y-103626895D02*
X186430580Y-103626895D01*
X186007246Y-104110705D01*
X186188675Y-104110705D01*
X186309627Y-104171181D01*
X186370103Y-104231657D01*
X186430580Y-104352610D01*
X186430580Y-104654991D01*
X186370103Y-104775943D01*
X186309627Y-104836419D01*
X186188675Y-104896895D01*
X185825818Y-104896895D01*
X185704865Y-104836419D01*
X185644389Y-104775943D01*
D10*
%TO.C,Z2*%
X100666476Y-78162380D02*
X101333142Y-78162380D01*
X100666476Y-79162380D01*
X101333142Y-79162380D01*
X101666476Y-78257619D02*
X101714095Y-78210000D01*
X101809333Y-78162380D01*
X102047428Y-78162380D01*
X102142666Y-78210000D01*
X102190285Y-78257619D01*
X102237904Y-78352857D01*
X102237904Y-78448095D01*
X102190285Y-78590952D01*
X101618857Y-79162380D01*
X102237904Y-79162380D01*
%TO.C,Z3*%
X131146476Y-78162380D02*
X131813142Y-78162380D01*
X131146476Y-79162380D01*
X131813142Y-79162380D01*
X132098857Y-78162380D02*
X132717904Y-78162380D01*
X132384571Y-78543333D01*
X132527428Y-78543333D01*
X132622666Y-78590952D01*
X132670285Y-78638571D01*
X132717904Y-78733809D01*
X132717904Y-78971904D01*
X132670285Y-79067142D01*
X132622666Y-79114761D01*
X132527428Y-79162380D01*
X132241714Y-79162380D01*
X132146476Y-79114761D01*
X132098857Y-79067142D01*
%TO.C,Z4*%
X161626476Y-78162380D02*
X162293142Y-78162380D01*
X161626476Y-79162380D01*
X162293142Y-79162380D01*
X163102666Y-78495714D02*
X163102666Y-79162380D01*
X162864571Y-78114761D02*
X162626476Y-78829047D01*
X163245523Y-78829047D01*
%TO.C,Z1*%
X70186476Y-78162380D02*
X70853142Y-78162380D01*
X70186476Y-79162380D01*
X70853142Y-79162380D01*
X71757904Y-79162380D02*
X71186476Y-79162380D01*
X71472190Y-79162380D02*
X71472190Y-78162380D01*
X71376952Y-78305238D01*
X71281714Y-78400476D01*
X71186476Y-78448095D01*
%TO.C,J1*%
X172131380Y-122645633D02*
X172845666Y-122645633D01*
X172988523Y-122693252D01*
X173083761Y-122788490D01*
X173131380Y-122931347D01*
X173131380Y-123026585D01*
X173131380Y-121645633D02*
X173131380Y-122217061D01*
X173131380Y-121931347D02*
X172131380Y-121931347D01*
X172274238Y-122026585D01*
X172369476Y-122121823D01*
X172417095Y-122217061D01*
D12*
%TO.C,Z5*%
X63764404Y-86699923D02*
X64611071Y-86699923D01*
X63764404Y-87969923D01*
X64611071Y-87969923D01*
X65699642Y-86699923D02*
X65094880Y-86699923D01*
X65034404Y-87304685D01*
X65094880Y-87244209D01*
X65215833Y-87183733D01*
X65518214Y-87183733D01*
X65639166Y-87244209D01*
X65699642Y-87304685D01*
X65760119Y-87425638D01*
X65760119Y-87728019D01*
X65699642Y-87848971D01*
X65639166Y-87909447D01*
X65518214Y-87969923D01*
X65215833Y-87969923D01*
X65094880Y-87909447D01*
X65034404Y-87848971D01*
%TO.C,Z6*%
X94390404Y-86740523D02*
X95237071Y-86740523D01*
X94390404Y-88010523D01*
X95237071Y-88010523D01*
X96265166Y-86740523D02*
X96023261Y-86740523D01*
X95902309Y-86801000D01*
X95841833Y-86861476D01*
X95720880Y-87042904D01*
X95660404Y-87284809D01*
X95660404Y-87768619D01*
X95720880Y-87889571D01*
X95781357Y-87950047D01*
X95902309Y-88010523D01*
X96144214Y-88010523D01*
X96265166Y-87950047D01*
X96325642Y-87889571D01*
X96386119Y-87768619D01*
X96386119Y-87466238D01*
X96325642Y-87345285D01*
X96265166Y-87284809D01*
X96144214Y-87224333D01*
X95902309Y-87224333D01*
X95781357Y-87284809D01*
X95720880Y-87345285D01*
X95660404Y-87466238D01*
%TO.C,Z8*%
X155536204Y-86408723D02*
X156382871Y-86408723D01*
X155536204Y-87678723D01*
X156382871Y-87678723D01*
X157048109Y-86953009D02*
X156927157Y-86892533D01*
X156866680Y-86832057D01*
X156806204Y-86711104D01*
X156806204Y-86650628D01*
X156866680Y-86529676D01*
X156927157Y-86469200D01*
X157048109Y-86408723D01*
X157290014Y-86408723D01*
X157410966Y-86469200D01*
X157471442Y-86529676D01*
X157531919Y-86650628D01*
X157531919Y-86711104D01*
X157471442Y-86832057D01*
X157410966Y-86892533D01*
X157290014Y-86953009D01*
X157048109Y-86953009D01*
X156927157Y-87013485D01*
X156866680Y-87073961D01*
X156806204Y-87194914D01*
X156806204Y-87436819D01*
X156866680Y-87557771D01*
X156927157Y-87618247D01*
X157048109Y-87678723D01*
X157290014Y-87678723D01*
X157410966Y-87618247D01*
X157471442Y-87557771D01*
X157531919Y-87436819D01*
X157531919Y-87194914D01*
X157471442Y-87073961D01*
X157410966Y-87013485D01*
X157290014Y-86953009D01*
D10*
%TO.C,Q4*%
X88923161Y-101627419D02*
X88827923Y-101579800D01*
X88732685Y-101484561D01*
X88589828Y-101341704D01*
X88494590Y-101294085D01*
X88399352Y-101294085D01*
X88446971Y-101532180D02*
X88351733Y-101484561D01*
X88256495Y-101389323D01*
X88208876Y-101198847D01*
X88208876Y-100865514D01*
X88256495Y-100675038D01*
X88351733Y-100579800D01*
X88446971Y-100532180D01*
X88637447Y-100532180D01*
X88732685Y-100579800D01*
X88827923Y-100675038D01*
X88875542Y-100865514D01*
X88875542Y-101198847D01*
X88827923Y-101389323D01*
X88732685Y-101484561D01*
X88637447Y-101532180D01*
X88446971Y-101532180D01*
X89732685Y-100865514D02*
X89732685Y-101532180D01*
X89494590Y-100484561D02*
X89256495Y-101198847D01*
X89875542Y-101198847D01*
%TO.C,R23*%
X77859110Y-106236475D02*
X77525777Y-105760285D01*
X77287682Y-106236475D02*
X77287682Y-105236475D01*
X77668634Y-105236475D01*
X77763872Y-105284095D01*
X77811491Y-105331714D01*
X77859110Y-105426952D01*
X77859110Y-105569809D01*
X77811491Y-105665047D01*
X77763872Y-105712666D01*
X77668634Y-105760285D01*
X77287682Y-105760285D01*
X78240063Y-105331714D02*
X78287682Y-105284095D01*
X78382920Y-105236475D01*
X78621015Y-105236475D01*
X78716253Y-105284095D01*
X78763872Y-105331714D01*
X78811491Y-105426952D01*
X78811491Y-105522190D01*
X78763872Y-105665047D01*
X78192444Y-106236475D01*
X78811491Y-106236475D01*
X79144825Y-105236475D02*
X79763872Y-105236475D01*
X79430539Y-105617428D01*
X79573396Y-105617428D01*
X79668634Y-105665047D01*
X79716253Y-105712666D01*
X79763872Y-105807904D01*
X79763872Y-106045999D01*
X79716253Y-106141237D01*
X79668634Y-106188856D01*
X79573396Y-106236475D01*
X79287682Y-106236475D01*
X79192444Y-106188856D01*
X79144825Y-106141237D01*
%TO.C,R31*%
X90919480Y-115037357D02*
X90443290Y-115370690D01*
X90919480Y-115608785D02*
X89919480Y-115608785D01*
X89919480Y-115227833D01*
X89967100Y-115132595D01*
X90014719Y-115084976D01*
X90109957Y-115037357D01*
X90252814Y-115037357D01*
X90348052Y-115084976D01*
X90395671Y-115132595D01*
X90443290Y-115227833D01*
X90443290Y-115608785D01*
X89919480Y-114704023D02*
X89919480Y-114084976D01*
X90300433Y-114418309D01*
X90300433Y-114275452D01*
X90348052Y-114180214D01*
X90395671Y-114132595D01*
X90490909Y-114084976D01*
X90729004Y-114084976D01*
X90824242Y-114132595D01*
X90871861Y-114180214D01*
X90919480Y-114275452D01*
X90919480Y-114561166D01*
X90871861Y-114656404D01*
X90824242Y-114704023D01*
X90919480Y-113132595D02*
X90919480Y-113704023D01*
X90919480Y-113418309D02*
X89919480Y-113418309D01*
X90062338Y-113513547D01*
X90157576Y-113608785D01*
X90205195Y-113704023D01*
%TO.C,R16*%
X131900119Y-92997193D02*
X131566786Y-92521003D01*
X131328691Y-92997193D02*
X131328691Y-91997193D01*
X131709643Y-91997193D01*
X131804881Y-92044813D01*
X131852500Y-92092432D01*
X131900119Y-92187670D01*
X131900119Y-92330527D01*
X131852500Y-92425765D01*
X131804881Y-92473384D01*
X131709643Y-92521003D01*
X131328691Y-92521003D01*
X132852500Y-92997193D02*
X132281072Y-92997193D01*
X132566786Y-92997193D02*
X132566786Y-91997193D01*
X132471548Y-92140051D01*
X132376310Y-92235289D01*
X132281072Y-92282908D01*
X133709643Y-91997193D02*
X133519167Y-91997193D01*
X133423929Y-92044813D01*
X133376310Y-92092432D01*
X133281072Y-92235289D01*
X133233453Y-92425765D01*
X133233453Y-92806717D01*
X133281072Y-92901955D01*
X133328691Y-92949574D01*
X133423929Y-92997193D01*
X133614405Y-92997193D01*
X133709643Y-92949574D01*
X133757262Y-92901955D01*
X133804881Y-92806717D01*
X133804881Y-92568622D01*
X133757262Y-92473384D01*
X133709643Y-92425765D01*
X133614405Y-92378146D01*
X133423929Y-92378146D01*
X133328691Y-92425765D01*
X133281072Y-92473384D01*
X133233453Y-92568622D01*
%TO.C,Q2*%
X77904075Y-86981667D02*
X77856456Y-87076905D01*
X77761217Y-87172143D01*
X77618360Y-87315000D01*
X77570741Y-87410238D01*
X77570741Y-87505476D01*
X77808836Y-87457857D02*
X77761217Y-87553095D01*
X77665979Y-87648333D01*
X77475503Y-87695952D01*
X77142170Y-87695952D01*
X76951694Y-87648333D01*
X76856456Y-87553095D01*
X76808836Y-87457857D01*
X76808836Y-87267381D01*
X76856456Y-87172143D01*
X76951694Y-87076905D01*
X77142170Y-87029286D01*
X77475503Y-87029286D01*
X77665979Y-87076905D01*
X77761217Y-87172143D01*
X77808836Y-87267381D01*
X77808836Y-87457857D01*
X76904075Y-86648333D02*
X76856456Y-86600714D01*
X76808836Y-86505476D01*
X76808836Y-86267381D01*
X76856456Y-86172143D01*
X76904075Y-86124524D01*
X76999313Y-86076905D01*
X77094551Y-86076905D01*
X77237408Y-86124524D01*
X77808836Y-86695952D01*
X77808836Y-86076905D01*
%TO.C,R24*%
X77701211Y-109217480D02*
X77367878Y-108741290D01*
X77129783Y-109217480D02*
X77129783Y-108217480D01*
X77510735Y-108217480D01*
X77605973Y-108265100D01*
X77653592Y-108312719D01*
X77701211Y-108407957D01*
X77701211Y-108550814D01*
X77653592Y-108646052D01*
X77605973Y-108693671D01*
X77510735Y-108741290D01*
X77129783Y-108741290D01*
X78082164Y-108312719D02*
X78129783Y-108265100D01*
X78225021Y-108217480D01*
X78463116Y-108217480D01*
X78558354Y-108265100D01*
X78605973Y-108312719D01*
X78653592Y-108407957D01*
X78653592Y-108503195D01*
X78605973Y-108646052D01*
X78034545Y-109217480D01*
X78653592Y-109217480D01*
X79510735Y-108550814D02*
X79510735Y-109217480D01*
X79272640Y-108169861D02*
X79034545Y-108884147D01*
X79653592Y-108884147D01*
%TO.C,R5*%
X89586833Y-78051280D02*
X89253500Y-77575090D01*
X89015404Y-78051280D02*
X89015404Y-77051280D01*
X89396357Y-77051280D01*
X89491595Y-77098900D01*
X89539214Y-77146519D01*
X89586833Y-77241757D01*
X89586833Y-77384614D01*
X89539214Y-77479852D01*
X89491595Y-77527471D01*
X89396357Y-77575090D01*
X89015404Y-77575090D01*
X90491595Y-77051280D02*
X90015404Y-77051280D01*
X89967785Y-77527471D01*
X90015404Y-77479852D01*
X90110642Y-77432233D01*
X90348738Y-77432233D01*
X90443976Y-77479852D01*
X90491595Y-77527471D01*
X90539214Y-77622709D01*
X90539214Y-77860804D01*
X90491595Y-77956042D01*
X90443976Y-78003661D01*
X90348738Y-78051280D01*
X90110642Y-78051280D01*
X90015404Y-78003661D01*
X89967785Y-77956042D01*
%TO.C,RV1*%
X146119835Y-101877879D02*
X145786502Y-101401689D01*
X145548407Y-101877879D02*
X145548407Y-100877879D01*
X145929359Y-100877879D01*
X146024597Y-100925499D01*
X146072216Y-100973118D01*
X146119835Y-101068356D01*
X146119835Y-101211213D01*
X146072216Y-101306451D01*
X146024597Y-101354070D01*
X145929359Y-101401689D01*
X145548407Y-101401689D01*
X146405550Y-100877879D02*
X146738883Y-101877879D01*
X147072216Y-100877879D01*
X147929359Y-101877879D02*
X147357931Y-101877879D01*
X147643645Y-101877879D02*
X147643645Y-100877879D01*
X147548407Y-101020737D01*
X147453169Y-101115975D01*
X147357931Y-101163594D01*
%TO.C,J4*%
X157737380Y-96965733D02*
X158451666Y-96965733D01*
X158594523Y-97013352D01*
X158689761Y-97108590D01*
X158737380Y-97251447D01*
X158737380Y-97346685D01*
X158070714Y-96060971D02*
X158737380Y-96060971D01*
X157689761Y-96299066D02*
X158404047Y-96537161D01*
X158404047Y-95918114D01*
%TO.C,R15*%
X127275599Y-92954577D02*
X126942266Y-92478387D01*
X126704171Y-92954577D02*
X126704171Y-91954577D01*
X127085123Y-91954577D01*
X127180361Y-92002197D01*
X127227980Y-92049816D01*
X127275599Y-92145054D01*
X127275599Y-92287911D01*
X127227980Y-92383149D01*
X127180361Y-92430768D01*
X127085123Y-92478387D01*
X126704171Y-92478387D01*
X128227980Y-92954577D02*
X127656552Y-92954577D01*
X127942266Y-92954577D02*
X127942266Y-91954577D01*
X127847028Y-92097435D01*
X127751790Y-92192673D01*
X127656552Y-92240292D01*
X129132742Y-91954577D02*
X128656552Y-91954577D01*
X128608933Y-92430768D01*
X128656552Y-92383149D01*
X128751790Y-92335530D01*
X128989885Y-92335530D01*
X129085123Y-92383149D01*
X129132742Y-92430768D01*
X129180361Y-92526006D01*
X129180361Y-92764101D01*
X129132742Y-92859339D01*
X129085123Y-92906958D01*
X128989885Y-92954577D01*
X128751790Y-92954577D01*
X128656552Y-92906958D01*
X128608933Y-92859339D01*
%TO.C,R17*%
X182036180Y-75927957D02*
X181559990Y-76261290D01*
X182036180Y-76499385D02*
X181036180Y-76499385D01*
X181036180Y-76118433D01*
X181083800Y-76023195D01*
X181131419Y-75975576D01*
X181226657Y-75927957D01*
X181369514Y-75927957D01*
X181464752Y-75975576D01*
X181512371Y-76023195D01*
X181559990Y-76118433D01*
X181559990Y-76499385D01*
X182036180Y-74975576D02*
X182036180Y-75547004D01*
X182036180Y-75261290D02*
X181036180Y-75261290D01*
X181179038Y-75356528D01*
X181274276Y-75451766D01*
X181321895Y-75547004D01*
X181036180Y-74642242D02*
X181036180Y-73975576D01*
X182036180Y-74404147D01*
%TO.C,J5*%
X58874333Y-93532554D02*
X58874333Y-94246840D01*
X58826714Y-94389697D01*
X58731476Y-94484935D01*
X58588619Y-94532554D01*
X58493381Y-94532554D01*
X59826714Y-93532554D02*
X59350524Y-93532554D01*
X59302905Y-94008745D01*
X59350524Y-93961126D01*
X59445762Y-93913507D01*
X59683857Y-93913507D01*
X59779095Y-93961126D01*
X59826714Y-94008745D01*
X59874333Y-94103983D01*
X59874333Y-94342078D01*
X59826714Y-94437316D01*
X59779095Y-94484935D01*
X59683857Y-94532554D01*
X59445762Y-94532554D01*
X59350524Y-94484935D01*
X59302905Y-94437316D01*
%TO.C,R4*%
X104079833Y-118778580D02*
X103746500Y-118302390D01*
X103508404Y-118778580D02*
X103508404Y-117778580D01*
X103889357Y-117778580D01*
X103984595Y-117826200D01*
X104032214Y-117873819D01*
X104079833Y-117969057D01*
X104079833Y-118111914D01*
X104032214Y-118207152D01*
X103984595Y-118254771D01*
X103889357Y-118302390D01*
X103508404Y-118302390D01*
X104936976Y-118111914D02*
X104936976Y-118778580D01*
X104698880Y-117730961D02*
X104460785Y-118445247D01*
X105079833Y-118445247D01*
%TO.C,R18*%
X179884848Y-84529575D02*
X179551515Y-84053385D01*
X179313420Y-84529575D02*
X179313420Y-83529575D01*
X179694372Y-83529575D01*
X179789610Y-83577195D01*
X179837229Y-83624814D01*
X179884848Y-83720052D01*
X179884848Y-83862909D01*
X179837229Y-83958147D01*
X179789610Y-84005766D01*
X179694372Y-84053385D01*
X179313420Y-84053385D01*
X180837229Y-84529575D02*
X180265801Y-84529575D01*
X180551515Y-84529575D02*
X180551515Y-83529575D01*
X180456277Y-83672433D01*
X180361039Y-83767671D01*
X180265801Y-83815290D01*
X181408658Y-83958147D02*
X181313420Y-83910528D01*
X181265801Y-83862909D01*
X181218182Y-83767671D01*
X181218182Y-83720052D01*
X181265801Y-83624814D01*
X181313420Y-83577195D01*
X181408658Y-83529575D01*
X181599134Y-83529575D01*
X181694372Y-83577195D01*
X181741991Y-83624814D01*
X181789610Y-83720052D01*
X181789610Y-83767671D01*
X181741991Y-83862909D01*
X181694372Y-83910528D01*
X181599134Y-83958147D01*
X181408658Y-83958147D01*
X181313420Y-84005766D01*
X181265801Y-84053385D01*
X181218182Y-84148623D01*
X181218182Y-84339099D01*
X181265801Y-84434337D01*
X181313420Y-84481956D01*
X181408658Y-84529575D01*
X181599134Y-84529575D01*
X181694372Y-84481956D01*
X181741991Y-84434337D01*
X181789610Y-84339099D01*
X181789610Y-84148623D01*
X181741991Y-84053385D01*
X181694372Y-84005766D01*
X181599134Y-83958147D01*
%TO.C,R29*%
X138691142Y-116775080D02*
X138357809Y-116298890D01*
X138119714Y-116775080D02*
X138119714Y-115775080D01*
X138500666Y-115775080D01*
X138595904Y-115822700D01*
X138643523Y-115870319D01*
X138691142Y-115965557D01*
X138691142Y-116108414D01*
X138643523Y-116203652D01*
X138595904Y-116251271D01*
X138500666Y-116298890D01*
X138119714Y-116298890D01*
X139072095Y-115870319D02*
X139119714Y-115822700D01*
X139214952Y-115775080D01*
X139453047Y-115775080D01*
X139548285Y-115822700D01*
X139595904Y-115870319D01*
X139643523Y-115965557D01*
X139643523Y-116060795D01*
X139595904Y-116203652D01*
X139024476Y-116775080D01*
X139643523Y-116775080D01*
X140119714Y-116775080D02*
X140310190Y-116775080D01*
X140405428Y-116727461D01*
X140453047Y-116679842D01*
X140548285Y-116536985D01*
X140595904Y-116346509D01*
X140595904Y-115965557D01*
X140548285Y-115870319D01*
X140500666Y-115822700D01*
X140405428Y-115775080D01*
X140214952Y-115775080D01*
X140119714Y-115822700D01*
X140072095Y-115870319D01*
X140024476Y-115965557D01*
X140024476Y-116203652D01*
X140072095Y-116298890D01*
X140119714Y-116346509D01*
X140214952Y-116394128D01*
X140405428Y-116394128D01*
X140500666Y-116346509D01*
X140548285Y-116298890D01*
X140595904Y-116203652D01*
%TO.C,R25*%
X73942280Y-113441357D02*
X73466090Y-113774690D01*
X73942280Y-114012785D02*
X72942280Y-114012785D01*
X72942280Y-113631833D01*
X72989900Y-113536595D01*
X73037519Y-113488976D01*
X73132757Y-113441357D01*
X73275614Y-113441357D01*
X73370852Y-113488976D01*
X73418471Y-113536595D01*
X73466090Y-113631833D01*
X73466090Y-114012785D01*
X73037519Y-113060404D02*
X72989900Y-113012785D01*
X72942280Y-112917547D01*
X72942280Y-112679452D01*
X72989900Y-112584214D01*
X73037519Y-112536595D01*
X73132757Y-112488976D01*
X73227995Y-112488976D01*
X73370852Y-112536595D01*
X73942280Y-113108023D01*
X73942280Y-112488976D01*
X72942280Y-111584214D02*
X72942280Y-112060404D01*
X73418471Y-112108023D01*
X73370852Y-112060404D01*
X73323233Y-111965166D01*
X73323233Y-111727071D01*
X73370852Y-111631833D01*
X73418471Y-111584214D01*
X73513709Y-111536595D01*
X73751804Y-111536595D01*
X73847042Y-111584214D01*
X73894661Y-111631833D01*
X73942280Y-111727071D01*
X73942280Y-111965166D01*
X73894661Y-112060404D01*
X73847042Y-112108023D01*
%TO.C,R33*%
X100500180Y-115037357D02*
X100023990Y-115370690D01*
X100500180Y-115608785D02*
X99500180Y-115608785D01*
X99500180Y-115227833D01*
X99547800Y-115132595D01*
X99595419Y-115084976D01*
X99690657Y-115037357D01*
X99833514Y-115037357D01*
X99928752Y-115084976D01*
X99976371Y-115132595D01*
X100023990Y-115227833D01*
X100023990Y-115608785D01*
X99500180Y-114704023D02*
X99500180Y-114084976D01*
X99881133Y-114418309D01*
X99881133Y-114275452D01*
X99928752Y-114180214D01*
X99976371Y-114132595D01*
X100071609Y-114084976D01*
X100309704Y-114084976D01*
X100404942Y-114132595D01*
X100452561Y-114180214D01*
X100500180Y-114275452D01*
X100500180Y-114561166D01*
X100452561Y-114656404D01*
X100404942Y-114704023D01*
X99500180Y-113751642D02*
X99500180Y-113132595D01*
X99881133Y-113465928D01*
X99881133Y-113323071D01*
X99928752Y-113227833D01*
X99976371Y-113180214D01*
X100071609Y-113132595D01*
X100309704Y-113132595D01*
X100404942Y-113180214D01*
X100452561Y-113227833D01*
X100500180Y-113323071D01*
X100500180Y-113608785D01*
X100452561Y-113704023D01*
X100404942Y-113751642D01*
%TO.C,R14*%
X137494347Y-93055473D02*
X137161014Y-92579283D01*
X136922919Y-93055473D02*
X136922919Y-92055473D01*
X137303871Y-92055473D01*
X137399109Y-92103093D01*
X137446728Y-92150712D01*
X137494347Y-92245950D01*
X137494347Y-92388807D01*
X137446728Y-92484045D01*
X137399109Y-92531664D01*
X137303871Y-92579283D01*
X136922919Y-92579283D01*
X138446728Y-93055473D02*
X137875300Y-93055473D01*
X138161014Y-93055473D02*
X138161014Y-92055473D01*
X138065776Y-92198331D01*
X137970538Y-92293569D01*
X137875300Y-92341188D01*
X139303871Y-92388807D02*
X139303871Y-93055473D01*
X139065776Y-92007854D02*
X138827681Y-92722140D01*
X139446728Y-92722140D01*
%TO.C,Q11*%
X170766421Y-87591326D02*
X170718802Y-87686564D01*
X170623563Y-87781802D01*
X170480706Y-87924659D01*
X170433087Y-88019898D01*
X170433087Y-88115136D01*
X170671182Y-88067517D02*
X170623563Y-88162755D01*
X170528325Y-88257993D01*
X170337849Y-88305612D01*
X170004516Y-88305612D01*
X169814040Y-88257993D01*
X169718802Y-88162755D01*
X169671182Y-88067517D01*
X169671182Y-87877040D01*
X169718802Y-87781802D01*
X169814040Y-87686564D01*
X170004516Y-87638945D01*
X170337849Y-87638945D01*
X170528325Y-87686564D01*
X170623563Y-87781802D01*
X170671182Y-87877040D01*
X170671182Y-88067517D01*
X170671182Y-86686564D02*
X170671182Y-87257993D01*
X170671182Y-86972278D02*
X169671182Y-86972278D01*
X169814040Y-87067517D01*
X169909278Y-87162755D01*
X169956897Y-87257993D01*
X170671182Y-85734183D02*
X170671182Y-86305612D01*
X170671182Y-86019898D02*
X169671182Y-86019898D01*
X169814040Y-86115136D01*
X169909278Y-86210374D01*
X169956897Y-86305612D01*
%TO.C,R27*%
X138691142Y-107196380D02*
X138357809Y-106720190D01*
X138119714Y-107196380D02*
X138119714Y-106196380D01*
X138500666Y-106196380D01*
X138595904Y-106244000D01*
X138643523Y-106291619D01*
X138691142Y-106386857D01*
X138691142Y-106529714D01*
X138643523Y-106624952D01*
X138595904Y-106672571D01*
X138500666Y-106720190D01*
X138119714Y-106720190D01*
X139072095Y-106291619D02*
X139119714Y-106244000D01*
X139214952Y-106196380D01*
X139453047Y-106196380D01*
X139548285Y-106244000D01*
X139595904Y-106291619D01*
X139643523Y-106386857D01*
X139643523Y-106482095D01*
X139595904Y-106624952D01*
X139024476Y-107196380D01*
X139643523Y-107196380D01*
X139976857Y-106196380D02*
X140643523Y-106196380D01*
X140214952Y-107196380D01*
%TO.C,D4*%
X115567004Y-110131780D02*
X115567004Y-109131780D01*
X115805100Y-109131780D01*
X115947957Y-109179400D01*
X116043195Y-109274638D01*
X116090814Y-109369876D01*
X116138433Y-109560352D01*
X116138433Y-109703209D01*
X116090814Y-109893685D01*
X116043195Y-109988923D01*
X115947957Y-110084161D01*
X115805100Y-110131780D01*
X115567004Y-110131780D01*
X116995576Y-109465114D02*
X116995576Y-110131780D01*
X116757480Y-109084161D02*
X116519385Y-109798447D01*
X117138433Y-109798447D01*
X110963195Y-110501780D02*
X110963195Y-109501780D01*
X111534623Y-110501780D02*
X111106052Y-109930352D01*
X111534623Y-109501780D02*
X110963195Y-110073209D01*
%TO.C,D2*%
X115514604Y-115002680D02*
X115514604Y-114002680D01*
X115752700Y-114002680D01*
X115895557Y-114050300D01*
X115990795Y-114145538D01*
X116038414Y-114240776D01*
X116086033Y-114431252D01*
X116086033Y-114574109D01*
X116038414Y-114764585D01*
X115990795Y-114859823D01*
X115895557Y-114955061D01*
X115752700Y-115002680D01*
X115514604Y-115002680D01*
X116466985Y-114097919D02*
X116514604Y-114050300D01*
X116609842Y-114002680D01*
X116847938Y-114002680D01*
X116943176Y-114050300D01*
X116990795Y-114097919D01*
X117038414Y-114193157D01*
X117038414Y-114288395D01*
X116990795Y-114431252D01*
X116419366Y-115002680D01*
X117038414Y-115002680D01*
X110910795Y-115372680D02*
X110910795Y-114372680D01*
X111482223Y-115372680D02*
X111053652Y-114801252D01*
X111482223Y-114372680D02*
X110910795Y-114944109D01*
D12*
%TO.C,S1*%
X117898580Y-123287847D02*
X118080009Y-123348323D01*
X118382390Y-123348323D01*
X118503342Y-123287847D01*
X118563819Y-123227371D01*
X118624295Y-123106419D01*
X118624295Y-122985466D01*
X118563819Y-122864514D01*
X118503342Y-122804038D01*
X118382390Y-122743561D01*
X118140485Y-122683085D01*
X118019533Y-122622609D01*
X117959057Y-122562133D01*
X117898580Y-122441180D01*
X117898580Y-122320228D01*
X117959057Y-122199276D01*
X118019533Y-122138800D01*
X118140485Y-122078323D01*
X118442866Y-122078323D01*
X118624295Y-122138800D01*
X119833819Y-123348323D02*
X119108104Y-123348323D01*
X119470961Y-123348323D02*
X119470961Y-122078323D01*
X119350009Y-122259752D01*
X119229057Y-122380704D01*
X119108104Y-122441180D01*
D10*
%TO.C,R9*%
X119561533Y-72456080D02*
X119228200Y-71979890D01*
X118990104Y-72456080D02*
X118990104Y-71456080D01*
X119371057Y-71456080D01*
X119466295Y-71503700D01*
X119513914Y-71551319D01*
X119561533Y-71646557D01*
X119561533Y-71789414D01*
X119513914Y-71884652D01*
X119466295Y-71932271D01*
X119371057Y-71979890D01*
X118990104Y-71979890D01*
X120037723Y-72456080D02*
X120228200Y-72456080D01*
X120323438Y-72408461D01*
X120371057Y-72360842D01*
X120466295Y-72217985D01*
X120513914Y-72027509D01*
X120513914Y-71646557D01*
X120466295Y-71551319D01*
X120418676Y-71503700D01*
X120323438Y-71456080D01*
X120132961Y-71456080D01*
X120037723Y-71503700D01*
X119990104Y-71551319D01*
X119942485Y-71646557D01*
X119942485Y-71884652D01*
X119990104Y-71979890D01*
X120037723Y-72027509D01*
X120132961Y-72075128D01*
X120323438Y-72075128D01*
X120418676Y-72027509D01*
X120466295Y-71979890D01*
X120513914Y-71884652D01*
%TO.C,R13*%
X150414142Y-75025180D02*
X150080809Y-74548990D01*
X149842714Y-75025180D02*
X149842714Y-74025180D01*
X150223666Y-74025180D01*
X150318904Y-74072800D01*
X150366523Y-74120419D01*
X150414142Y-74215657D01*
X150414142Y-74358514D01*
X150366523Y-74453752D01*
X150318904Y-74501371D01*
X150223666Y-74548990D01*
X149842714Y-74548990D01*
X151366523Y-75025180D02*
X150795095Y-75025180D01*
X151080809Y-75025180D02*
X151080809Y-74025180D01*
X150985571Y-74168038D01*
X150890333Y-74263276D01*
X150795095Y-74310895D01*
X151699857Y-74025180D02*
X152318904Y-74025180D01*
X151985571Y-74406133D01*
X152128428Y-74406133D01*
X152223666Y-74453752D01*
X152271285Y-74501371D01*
X152318904Y-74596609D01*
X152318904Y-74834704D01*
X152271285Y-74929942D01*
X152223666Y-74977561D01*
X152128428Y-75025180D01*
X151842714Y-75025180D01*
X151747476Y-74977561D01*
X151699857Y-74929942D01*
%TO.C,R6*%
X78911519Y-92979013D02*
X78578186Y-92502823D01*
X78340090Y-92979013D02*
X78340090Y-91979013D01*
X78721043Y-91979013D01*
X78816281Y-92026633D01*
X78863900Y-92074252D01*
X78911519Y-92169490D01*
X78911519Y-92312347D01*
X78863900Y-92407585D01*
X78816281Y-92455204D01*
X78721043Y-92502823D01*
X78340090Y-92502823D01*
X79768662Y-91979013D02*
X79578186Y-91979013D01*
X79482947Y-92026633D01*
X79435328Y-92074252D01*
X79340090Y-92217109D01*
X79292471Y-92407585D01*
X79292471Y-92788537D01*
X79340090Y-92883775D01*
X79387709Y-92931394D01*
X79482947Y-92979013D01*
X79673424Y-92979013D01*
X79768662Y-92931394D01*
X79816281Y-92883775D01*
X79863900Y-92788537D01*
X79863900Y-92550442D01*
X79816281Y-92455204D01*
X79768662Y-92407585D01*
X79673424Y-92359966D01*
X79482947Y-92359966D01*
X79387709Y-92407585D01*
X79340090Y-92455204D01*
X79292471Y-92550442D01*
%TO.C,R11*%
X98199857Y-92979013D02*
X97866524Y-92502823D01*
X97628429Y-92979013D02*
X97628429Y-91979013D01*
X98009381Y-91979013D01*
X98104619Y-92026633D01*
X98152238Y-92074252D01*
X98199857Y-92169490D01*
X98199857Y-92312347D01*
X98152238Y-92407585D01*
X98104619Y-92455204D01*
X98009381Y-92502823D01*
X97628429Y-92502823D01*
X99152238Y-92979013D02*
X98580810Y-92979013D01*
X98866524Y-92979013D02*
X98866524Y-91979013D01*
X98771286Y-92121871D01*
X98676048Y-92217109D01*
X98580810Y-92264728D01*
X100104619Y-92979013D02*
X99533191Y-92979013D01*
X99818905Y-92979013D02*
X99818905Y-91979013D01*
X99723667Y-92121871D01*
X99628429Y-92217109D01*
X99533191Y-92264728D01*
%TO.C,R7*%
X68442289Y-92979013D02*
X68108956Y-92502823D01*
X67870860Y-92979013D02*
X67870860Y-91979013D01*
X68251813Y-91979013D01*
X68347051Y-92026633D01*
X68394670Y-92074252D01*
X68442289Y-92169490D01*
X68442289Y-92312347D01*
X68394670Y-92407585D01*
X68347051Y-92455204D01*
X68251813Y-92502823D01*
X67870860Y-92502823D01*
X68775622Y-91979013D02*
X69442289Y-91979013D01*
X69013717Y-92979013D01*
D12*
%TO.C,U2*%
X157703907Y-112937108D02*
X157703907Y-113965204D01*
X157764384Y-114086156D01*
X157824860Y-114146632D01*
X157945812Y-114207108D01*
X158187717Y-114207108D01*
X158308669Y-114146632D01*
X158369146Y-114086156D01*
X158429622Y-113965204D01*
X158429622Y-112937108D01*
X158973907Y-113058061D02*
X159034384Y-112997585D01*
X159155336Y-112937108D01*
X159457717Y-112937108D01*
X159578669Y-112997585D01*
X159639146Y-113058061D01*
X159699622Y-113179013D01*
X159699622Y-113299965D01*
X159639146Y-113481394D01*
X158913431Y-114207108D01*
X159699622Y-114207108D01*
D10*
%TO.C,Q10*%
X99676671Y-101614319D02*
X99581433Y-101566700D01*
X99486195Y-101471461D01*
X99343338Y-101328604D01*
X99248100Y-101280985D01*
X99152861Y-101280985D01*
X99200480Y-101519080D02*
X99105242Y-101471461D01*
X99010004Y-101376223D01*
X98962385Y-101185747D01*
X98962385Y-100852414D01*
X99010004Y-100661938D01*
X99105242Y-100566700D01*
X99200480Y-100519080D01*
X99390957Y-100519080D01*
X99486195Y-100566700D01*
X99581433Y-100661938D01*
X99629052Y-100852414D01*
X99629052Y-101185747D01*
X99581433Y-101376223D01*
X99486195Y-101471461D01*
X99390957Y-101519080D01*
X99200480Y-101519080D01*
X100581433Y-101519080D02*
X100010004Y-101519080D01*
X100295719Y-101519080D02*
X100295719Y-100519080D01*
X100200480Y-100661938D01*
X100105242Y-100757176D01*
X100010004Y-100804795D01*
X101200480Y-100519080D02*
X101295719Y-100519080D01*
X101390957Y-100566700D01*
X101438576Y-100614319D01*
X101486195Y-100709557D01*
X101533814Y-100900033D01*
X101533814Y-101138128D01*
X101486195Y-101328604D01*
X101438576Y-101423842D01*
X101390957Y-101471461D01*
X101295719Y-101519080D01*
X101200480Y-101519080D01*
X101105242Y-101471461D01*
X101057623Y-101423842D01*
X101010004Y-101328604D01*
X100962385Y-101138128D01*
X100962385Y-100900033D01*
X101010004Y-100709557D01*
X101057623Y-100614319D01*
X101105242Y-100566700D01*
X101200480Y-100519080D01*
%TO.C,D8*%
X115567004Y-100313080D02*
X115567004Y-99313080D01*
X115805100Y-99313080D01*
X115947957Y-99360700D01*
X116043195Y-99455938D01*
X116090814Y-99551176D01*
X116138433Y-99741652D01*
X116138433Y-99884509D01*
X116090814Y-100074985D01*
X116043195Y-100170223D01*
X115947957Y-100265461D01*
X115805100Y-100313080D01*
X115567004Y-100313080D01*
X116709861Y-99741652D02*
X116614623Y-99694033D01*
X116567004Y-99646414D01*
X116519385Y-99551176D01*
X116519385Y-99503557D01*
X116567004Y-99408319D01*
X116614623Y-99360700D01*
X116709861Y-99313080D01*
X116900338Y-99313080D01*
X116995576Y-99360700D01*
X117043195Y-99408319D01*
X117090814Y-99503557D01*
X117090814Y-99551176D01*
X117043195Y-99646414D01*
X116995576Y-99694033D01*
X116900338Y-99741652D01*
X116709861Y-99741652D01*
X116614623Y-99789271D01*
X116567004Y-99836890D01*
X116519385Y-99932128D01*
X116519385Y-100122604D01*
X116567004Y-100217842D01*
X116614623Y-100265461D01*
X116709861Y-100313080D01*
X116900338Y-100313080D01*
X116995576Y-100265461D01*
X117043195Y-100217842D01*
X117090814Y-100122604D01*
X117090814Y-99932128D01*
X117043195Y-99836890D01*
X116995576Y-99789271D01*
X116900338Y-99741652D01*
X110963195Y-100683080D02*
X110963195Y-99683080D01*
X111534623Y-100683080D02*
X111106052Y-100111652D01*
X111534623Y-99683080D02*
X110963195Y-100254509D01*
D12*
%TO.C,IC3*%
X65237610Y-105222857D02*
X65237610Y-103952857D01*
X66568086Y-105101905D02*
X66507610Y-105162381D01*
X66326181Y-105222857D01*
X66205229Y-105222857D01*
X66023800Y-105162381D01*
X65902848Y-105041429D01*
X65842372Y-104920476D01*
X65781895Y-104678572D01*
X65781895Y-104497143D01*
X65842372Y-104255238D01*
X65902848Y-104134286D01*
X66023800Y-104013334D01*
X66205229Y-103952857D01*
X66326181Y-103952857D01*
X66507610Y-104013334D01*
X66568086Y-104073810D01*
X66991419Y-103952857D02*
X67777610Y-103952857D01*
X67354276Y-104436667D01*
X67535705Y-104436667D01*
X67656657Y-104497143D01*
X67717133Y-104557619D01*
X67777610Y-104678572D01*
X67777610Y-104980953D01*
X67717133Y-105101905D01*
X67656657Y-105162381D01*
X67535705Y-105222857D01*
X67172848Y-105222857D01*
X67051895Y-105162381D01*
X66991419Y-105101905D01*
D10*
%TO.C,Q1*%
X83327161Y-101632019D02*
X83231923Y-101584400D01*
X83136685Y-101489161D01*
X82993828Y-101346304D01*
X82898590Y-101298685D01*
X82803352Y-101298685D01*
X82850971Y-101536780D02*
X82755733Y-101489161D01*
X82660495Y-101393923D01*
X82612876Y-101203447D01*
X82612876Y-100870114D01*
X82660495Y-100679638D01*
X82755733Y-100584400D01*
X82850971Y-100536780D01*
X83041447Y-100536780D01*
X83136685Y-100584400D01*
X83231923Y-100679638D01*
X83279542Y-100870114D01*
X83279542Y-101203447D01*
X83231923Y-101393923D01*
X83136685Y-101489161D01*
X83041447Y-101536780D01*
X82850971Y-101536780D01*
X84231923Y-101536780D02*
X83660495Y-101536780D01*
X83946209Y-101536780D02*
X83946209Y-100536780D01*
X83850971Y-100679638D01*
X83755733Y-100774876D01*
X83660495Y-100822495D01*
%TO.C,R26*%
X138691142Y-102407080D02*
X138357809Y-101930890D01*
X138119714Y-102407080D02*
X138119714Y-101407080D01*
X138500666Y-101407080D01*
X138595904Y-101454700D01*
X138643523Y-101502319D01*
X138691142Y-101597557D01*
X138691142Y-101740414D01*
X138643523Y-101835652D01*
X138595904Y-101883271D01*
X138500666Y-101930890D01*
X138119714Y-101930890D01*
X139072095Y-101502319D02*
X139119714Y-101454700D01*
X139214952Y-101407080D01*
X139453047Y-101407080D01*
X139548285Y-101454700D01*
X139595904Y-101502319D01*
X139643523Y-101597557D01*
X139643523Y-101692795D01*
X139595904Y-101835652D01*
X139024476Y-102407080D01*
X139643523Y-102407080D01*
X140500666Y-101407080D02*
X140310190Y-101407080D01*
X140214952Y-101454700D01*
X140167333Y-101502319D01*
X140072095Y-101645176D01*
X140024476Y-101835652D01*
X140024476Y-102216604D01*
X140072095Y-102311842D01*
X140119714Y-102359461D01*
X140214952Y-102407080D01*
X140405428Y-102407080D01*
X140500666Y-102359461D01*
X140548285Y-102311842D01*
X140595904Y-102216604D01*
X140595904Y-101978509D01*
X140548285Y-101883271D01*
X140500666Y-101835652D01*
X140405428Y-101788033D01*
X140214952Y-101788033D01*
X140119714Y-101835652D01*
X140072095Y-101883271D01*
X140024476Y-101978509D01*
%TO.C,R8*%
X73592503Y-92979013D02*
X73259170Y-92502823D01*
X73021074Y-92979013D02*
X73021074Y-91979013D01*
X73402027Y-91979013D01*
X73497265Y-92026633D01*
X73544884Y-92074252D01*
X73592503Y-92169490D01*
X73592503Y-92312347D01*
X73544884Y-92407585D01*
X73497265Y-92455204D01*
X73402027Y-92502823D01*
X73021074Y-92502823D01*
X74163931Y-92407585D02*
X74068693Y-92359966D01*
X74021074Y-92312347D01*
X73973455Y-92217109D01*
X73973455Y-92169490D01*
X74021074Y-92074252D01*
X74068693Y-92026633D01*
X74163931Y-91979013D01*
X74354408Y-91979013D01*
X74449646Y-92026633D01*
X74497265Y-92074252D01*
X74544884Y-92169490D01*
X74544884Y-92217109D01*
X74497265Y-92312347D01*
X74449646Y-92359966D01*
X74354408Y-92407585D01*
X74163931Y-92407585D01*
X74068693Y-92455204D01*
X74021074Y-92502823D01*
X73973455Y-92598061D01*
X73973455Y-92788537D01*
X74021074Y-92883775D01*
X74068693Y-92931394D01*
X74163931Y-92979013D01*
X74354408Y-92979013D01*
X74449646Y-92931394D01*
X74497265Y-92883775D01*
X74544884Y-92788537D01*
X74544884Y-92598061D01*
X74497265Y-92502823D01*
X74449646Y-92455204D01*
X74354408Y-92407585D01*
D12*
%TO.C,IC4*%
X128715038Y-106738123D02*
X128715038Y-105468123D01*
X130045514Y-106617171D02*
X129985038Y-106677647D01*
X129803609Y-106738123D01*
X129682657Y-106738123D01*
X129501228Y-106677647D01*
X129380276Y-106556695D01*
X129319800Y-106435742D01*
X129259323Y-106193838D01*
X129259323Y-106012409D01*
X129319800Y-105770504D01*
X129380276Y-105649552D01*
X129501228Y-105528600D01*
X129682657Y-105468123D01*
X129803609Y-105468123D01*
X129985038Y-105528600D01*
X130045514Y-105589076D01*
X131134085Y-105891457D02*
X131134085Y-106738123D01*
X130831704Y-105407647D02*
X130529323Y-106314790D01*
X131315514Y-106314790D01*
D10*
%TO.C,Q8*%
X140542986Y-85898859D02*
X140495367Y-85994097D01*
X140400128Y-86089335D01*
X140257271Y-86232192D01*
X140209652Y-86327430D01*
X140209652Y-86422668D01*
X140447747Y-86375049D02*
X140400128Y-86470287D01*
X140304890Y-86565525D01*
X140114414Y-86613144D01*
X139781081Y-86613144D01*
X139590605Y-86565525D01*
X139495367Y-86470287D01*
X139447747Y-86375049D01*
X139447747Y-86184573D01*
X139495367Y-86089335D01*
X139590605Y-85994097D01*
X139781081Y-85946478D01*
X140114414Y-85946478D01*
X140304890Y-85994097D01*
X140400128Y-86089335D01*
X140447747Y-86184573D01*
X140447747Y-86375049D01*
X139876319Y-85375049D02*
X139828700Y-85470287D01*
X139781081Y-85517906D01*
X139685843Y-85565525D01*
X139638224Y-85565525D01*
X139542986Y-85517906D01*
X139495367Y-85470287D01*
X139447747Y-85375049D01*
X139447747Y-85184573D01*
X139495367Y-85089335D01*
X139542986Y-85041716D01*
X139638224Y-84994097D01*
X139685843Y-84994097D01*
X139781081Y-85041716D01*
X139828700Y-85089335D01*
X139876319Y-85184573D01*
X139876319Y-85375049D01*
X139923938Y-85470287D01*
X139971557Y-85517906D01*
X140066795Y-85565525D01*
X140257271Y-85565525D01*
X140352509Y-85517906D01*
X140400128Y-85470287D01*
X140447747Y-85375049D01*
X140447747Y-85184573D01*
X140400128Y-85089335D01*
X140352509Y-85041716D01*
X140257271Y-84994097D01*
X140066795Y-84994097D01*
X139971557Y-85041716D01*
X139923938Y-85089335D01*
X139876319Y-85184573D01*
%TO.C,Q5*%
X109872949Y-85710451D02*
X109825330Y-85805689D01*
X109730091Y-85900927D01*
X109587234Y-86043784D01*
X109539615Y-86139022D01*
X109539615Y-86234260D01*
X109777710Y-86186641D02*
X109730091Y-86281879D01*
X109634853Y-86377117D01*
X109444377Y-86424736D01*
X109111044Y-86424736D01*
X108920568Y-86377117D01*
X108825330Y-86281879D01*
X108777710Y-86186641D01*
X108777710Y-85996165D01*
X108825330Y-85900927D01*
X108920568Y-85805689D01*
X109111044Y-85758070D01*
X109444377Y-85758070D01*
X109634853Y-85805689D01*
X109730091Y-85900927D01*
X109777710Y-85996165D01*
X109777710Y-86186641D01*
X108777710Y-84853308D02*
X108777710Y-85329498D01*
X109253901Y-85377117D01*
X109206282Y-85329498D01*
X109158663Y-85234260D01*
X109158663Y-84996165D01*
X109206282Y-84900927D01*
X109253901Y-84853308D01*
X109349139Y-84805689D01*
X109587234Y-84805689D01*
X109682472Y-84853308D01*
X109730091Y-84900927D01*
X109777710Y-84996165D01*
X109777710Y-85234260D01*
X109730091Y-85329498D01*
X109682472Y-85377117D01*
%TO.C,C5*%
X148817542Y-82541066D02*
X148865161Y-82588685D01*
X148912780Y-82731542D01*
X148912780Y-82826780D01*
X148865161Y-82969638D01*
X148769923Y-83064876D01*
X148674685Y-83112495D01*
X148484209Y-83160114D01*
X148341352Y-83160114D01*
X148150876Y-83112495D01*
X148055638Y-83064876D01*
X147960400Y-82969638D01*
X147912780Y-82826780D01*
X147912780Y-82731542D01*
X147960400Y-82588685D01*
X148008019Y-82541066D01*
X147912780Y-81636304D02*
X147912780Y-82112495D01*
X148388971Y-82160114D01*
X148341352Y-82112495D01*
X148293733Y-82017257D01*
X148293733Y-81779161D01*
X148341352Y-81683923D01*
X148388971Y-81636304D01*
X148484209Y-81588685D01*
X148722304Y-81588685D01*
X148817542Y-81636304D01*
X148865161Y-81683923D01*
X148912780Y-81779161D01*
X148912780Y-82017257D01*
X148865161Y-82112495D01*
X148817542Y-82160114D01*
%TO.C,R21*%
X168052242Y-103250080D02*
X167718909Y-102773890D01*
X167480814Y-103250080D02*
X167480814Y-102250080D01*
X167861766Y-102250080D01*
X167957004Y-102297700D01*
X168004623Y-102345319D01*
X168052242Y-102440557D01*
X168052242Y-102583414D01*
X168004623Y-102678652D01*
X167957004Y-102726271D01*
X167861766Y-102773890D01*
X167480814Y-102773890D01*
X168433195Y-102345319D02*
X168480814Y-102297700D01*
X168576052Y-102250080D01*
X168814147Y-102250080D01*
X168909385Y-102297700D01*
X168957004Y-102345319D01*
X169004623Y-102440557D01*
X169004623Y-102535795D01*
X168957004Y-102678652D01*
X168385576Y-103250080D01*
X169004623Y-103250080D01*
X169957004Y-103250080D02*
X169385576Y-103250080D01*
X169671290Y-103250080D02*
X169671290Y-102250080D01*
X169576052Y-102392938D01*
X169480814Y-102488176D01*
X169385576Y-102535795D01*
%TO.C,R3*%
X104213433Y-113932280D02*
X103880100Y-113456090D01*
X103642004Y-113932280D02*
X103642004Y-112932280D01*
X104022957Y-112932280D01*
X104118195Y-112979900D01*
X104165814Y-113027519D01*
X104213433Y-113122757D01*
X104213433Y-113265614D01*
X104165814Y-113360852D01*
X104118195Y-113408471D01*
X104022957Y-113456090D01*
X103642004Y-113456090D01*
X104546766Y-112932280D02*
X105165814Y-112932280D01*
X104832480Y-113313233D01*
X104975338Y-113313233D01*
X105070576Y-113360852D01*
X105118195Y-113408471D01*
X105165814Y-113503709D01*
X105165814Y-113741804D01*
X105118195Y-113837042D01*
X105070576Y-113884661D01*
X104975338Y-113932280D01*
X104689623Y-113932280D01*
X104594385Y-113884661D01*
X104546766Y-113837042D01*
%TO.C,R30*%
X86129080Y-115037357D02*
X85652890Y-115370690D01*
X86129080Y-115608785D02*
X85129080Y-115608785D01*
X85129080Y-115227833D01*
X85176700Y-115132595D01*
X85224319Y-115084976D01*
X85319557Y-115037357D01*
X85462414Y-115037357D01*
X85557652Y-115084976D01*
X85605271Y-115132595D01*
X85652890Y-115227833D01*
X85652890Y-115608785D01*
X85129080Y-114704023D02*
X85129080Y-114084976D01*
X85510033Y-114418309D01*
X85510033Y-114275452D01*
X85557652Y-114180214D01*
X85605271Y-114132595D01*
X85700509Y-114084976D01*
X85938604Y-114084976D01*
X86033842Y-114132595D01*
X86081461Y-114180214D01*
X86129080Y-114275452D01*
X86129080Y-114561166D01*
X86081461Y-114656404D01*
X86033842Y-114704023D01*
X85129080Y-113465928D02*
X85129080Y-113370690D01*
X85176700Y-113275452D01*
X85224319Y-113227833D01*
X85319557Y-113180214D01*
X85510033Y-113132595D01*
X85748128Y-113132595D01*
X85938604Y-113180214D01*
X86033842Y-113227833D01*
X86081461Y-113275452D01*
X86129080Y-113370690D01*
X86129080Y-113465928D01*
X86081461Y-113561166D01*
X86033842Y-113608785D01*
X85938604Y-113656404D01*
X85748128Y-113704023D01*
X85510033Y-113704023D01*
X85319557Y-113656404D01*
X85224319Y-113608785D01*
X85176700Y-113561166D01*
X85129080Y-113465928D01*
%TO.C,R12*%
X103251252Y-92961474D02*
X102917919Y-92485284D01*
X102679824Y-92961474D02*
X102679824Y-91961474D01*
X103060776Y-91961474D01*
X103156014Y-92009094D01*
X103203633Y-92056713D01*
X103251252Y-92151951D01*
X103251252Y-92294808D01*
X103203633Y-92390046D01*
X103156014Y-92437665D01*
X103060776Y-92485284D01*
X102679824Y-92485284D01*
X104203633Y-92961474D02*
X103632205Y-92961474D01*
X103917919Y-92961474D02*
X103917919Y-91961474D01*
X103822681Y-92104332D01*
X103727443Y-92199570D01*
X103632205Y-92247189D01*
X104584586Y-92056713D02*
X104632205Y-92009094D01*
X104727443Y-91961474D01*
X104965538Y-91961474D01*
X105060776Y-92009094D01*
X105108395Y-92056713D01*
X105156014Y-92151951D01*
X105156014Y-92247189D01*
X105108395Y-92390046D01*
X104536967Y-92961474D01*
X105156014Y-92961474D01*
%TO.C,R28*%
X138691142Y-111985780D02*
X138357809Y-111509590D01*
X138119714Y-111985780D02*
X138119714Y-110985780D01*
X138500666Y-110985780D01*
X138595904Y-111033400D01*
X138643523Y-111081019D01*
X138691142Y-111176257D01*
X138691142Y-111319114D01*
X138643523Y-111414352D01*
X138595904Y-111461971D01*
X138500666Y-111509590D01*
X138119714Y-111509590D01*
X139072095Y-111081019D02*
X139119714Y-111033400D01*
X139214952Y-110985780D01*
X139453047Y-110985780D01*
X139548285Y-111033400D01*
X139595904Y-111081019D01*
X139643523Y-111176257D01*
X139643523Y-111271495D01*
X139595904Y-111414352D01*
X139024476Y-111985780D01*
X139643523Y-111985780D01*
X140214952Y-111414352D02*
X140119714Y-111366733D01*
X140072095Y-111319114D01*
X140024476Y-111223876D01*
X140024476Y-111176257D01*
X140072095Y-111081019D01*
X140119714Y-111033400D01*
X140214952Y-110985780D01*
X140405428Y-110985780D01*
X140500666Y-111033400D01*
X140548285Y-111081019D01*
X140595904Y-111176257D01*
X140595904Y-111223876D01*
X140548285Y-111319114D01*
X140500666Y-111366733D01*
X140405428Y-111414352D01*
X140214952Y-111414352D01*
X140119714Y-111461971D01*
X140072095Y-111509590D01*
X140024476Y-111604828D01*
X140024476Y-111795304D01*
X140072095Y-111890542D01*
X140119714Y-111938161D01*
X140214952Y-111985780D01*
X140405428Y-111985780D01*
X140500666Y-111938161D01*
X140548285Y-111890542D01*
X140595904Y-111795304D01*
X140595904Y-111604828D01*
X140548285Y-111509590D01*
X140500666Y-111461971D01*
X140405428Y-111414352D01*
%TO.C,R20*%
X160935695Y-92725228D02*
X160602362Y-92249038D01*
X160364267Y-92725228D02*
X160364267Y-91725228D01*
X160745219Y-91725228D01*
X160840457Y-91772848D01*
X160888076Y-91820467D01*
X160935695Y-91915705D01*
X160935695Y-92058562D01*
X160888076Y-92153800D01*
X160840457Y-92201419D01*
X160745219Y-92249038D01*
X160364267Y-92249038D01*
X161316648Y-91820467D02*
X161364267Y-91772848D01*
X161459505Y-91725228D01*
X161697600Y-91725228D01*
X161792838Y-91772848D01*
X161840457Y-91820467D01*
X161888076Y-91915705D01*
X161888076Y-92010943D01*
X161840457Y-92153800D01*
X161269029Y-92725228D01*
X161888076Y-92725228D01*
X162507124Y-91725228D02*
X162602362Y-91725228D01*
X162697600Y-91772848D01*
X162745219Y-91820467D01*
X162792838Y-91915705D01*
X162840457Y-92106181D01*
X162840457Y-92344276D01*
X162792838Y-92534752D01*
X162745219Y-92629990D01*
X162697600Y-92677609D01*
X162602362Y-92725228D01*
X162507124Y-92725228D01*
X162411886Y-92677609D01*
X162364267Y-92629990D01*
X162316648Y-92534752D01*
X162269029Y-92344276D01*
X162269029Y-92106181D01*
X162316648Y-91915705D01*
X162364267Y-91820467D01*
X162411886Y-91772848D01*
X162507124Y-91725228D01*
%TO.C,R19*%
X155708330Y-92665826D02*
X155374997Y-92189636D01*
X155136902Y-92665826D02*
X155136902Y-91665826D01*
X155517854Y-91665826D01*
X155613092Y-91713446D01*
X155660711Y-91761065D01*
X155708330Y-91856303D01*
X155708330Y-91999160D01*
X155660711Y-92094398D01*
X155613092Y-92142017D01*
X155517854Y-92189636D01*
X155136902Y-92189636D01*
X156660711Y-92665826D02*
X156089283Y-92665826D01*
X156374997Y-92665826D02*
X156374997Y-91665826D01*
X156279759Y-91808684D01*
X156184521Y-91903922D01*
X156089283Y-91951541D01*
X157136902Y-92665826D02*
X157327378Y-92665826D01*
X157422616Y-92618207D01*
X157470235Y-92570588D01*
X157565473Y-92427731D01*
X157613092Y-92237255D01*
X157613092Y-91856303D01*
X157565473Y-91761065D01*
X157517854Y-91713446D01*
X157422616Y-91665826D01*
X157232140Y-91665826D01*
X157136902Y-91713446D01*
X157089283Y-91761065D01*
X157041664Y-91856303D01*
X157041664Y-92094398D01*
X157089283Y-92189636D01*
X157136902Y-92237255D01*
X157232140Y-92284874D01*
X157422616Y-92284874D01*
X157517854Y-92237255D01*
X157565473Y-92189636D01*
X157613092Y-92094398D01*
%TO.C,R10*%
X108127039Y-92982375D02*
X107793706Y-92506185D01*
X107555611Y-92982375D02*
X107555611Y-91982375D01*
X107936563Y-91982375D01*
X108031801Y-92029995D01*
X108079420Y-92077614D01*
X108127039Y-92172852D01*
X108127039Y-92315709D01*
X108079420Y-92410947D01*
X108031801Y-92458566D01*
X107936563Y-92506185D01*
X107555611Y-92506185D01*
X109079420Y-92982375D02*
X108507992Y-92982375D01*
X108793706Y-92982375D02*
X108793706Y-91982375D01*
X108698468Y-92125233D01*
X108603230Y-92220471D01*
X108507992Y-92268090D01*
X109698468Y-91982375D02*
X109793706Y-91982375D01*
X109888944Y-92029995D01*
X109936563Y-92077614D01*
X109984182Y-92172852D01*
X110031801Y-92363328D01*
X110031801Y-92601423D01*
X109984182Y-92791899D01*
X109936563Y-92887137D01*
X109888944Y-92934756D01*
X109793706Y-92982375D01*
X109698468Y-92982375D01*
X109603230Y-92934756D01*
X109555611Y-92887137D01*
X109507992Y-92791899D01*
X109460373Y-92601423D01*
X109460373Y-92363328D01*
X109507992Y-92172852D01*
X109555611Y-92077614D01*
X109603230Y-92029995D01*
X109698468Y-91982375D01*
%TO.C,D6*%
X115567004Y-105222480D02*
X115567004Y-104222480D01*
X115805100Y-104222480D01*
X115947957Y-104270100D01*
X116043195Y-104365338D01*
X116090814Y-104460576D01*
X116138433Y-104651052D01*
X116138433Y-104793909D01*
X116090814Y-104984385D01*
X116043195Y-105079623D01*
X115947957Y-105174861D01*
X115805100Y-105222480D01*
X115567004Y-105222480D01*
X116995576Y-104222480D02*
X116805100Y-104222480D01*
X116709861Y-104270100D01*
X116662242Y-104317719D01*
X116567004Y-104460576D01*
X116519385Y-104651052D01*
X116519385Y-105032004D01*
X116567004Y-105127242D01*
X116614623Y-105174861D01*
X116709861Y-105222480D01*
X116900338Y-105222480D01*
X116995576Y-105174861D01*
X117043195Y-105127242D01*
X117090814Y-105032004D01*
X117090814Y-104793909D01*
X117043195Y-104698671D01*
X116995576Y-104651052D01*
X116900338Y-104603433D01*
X116709861Y-104603433D01*
X116614623Y-104651052D01*
X116567004Y-104698671D01*
X116519385Y-104793909D01*
X110963195Y-105592480D02*
X110963195Y-104592480D01*
X111534623Y-105592480D02*
X111106052Y-105021052D01*
X111534623Y-104592480D02*
X110963195Y-105163909D01*
%TO.C,R32*%
X95709880Y-115037357D02*
X95233690Y-115370690D01*
X95709880Y-115608785D02*
X94709880Y-115608785D01*
X94709880Y-115227833D01*
X94757500Y-115132595D01*
X94805119Y-115084976D01*
X94900357Y-115037357D01*
X95043214Y-115037357D01*
X95138452Y-115084976D01*
X95186071Y-115132595D01*
X95233690Y-115227833D01*
X95233690Y-115608785D01*
X94709880Y-114704023D02*
X94709880Y-114084976D01*
X95090833Y-114418309D01*
X95090833Y-114275452D01*
X95138452Y-114180214D01*
X95186071Y-114132595D01*
X95281309Y-114084976D01*
X95519404Y-114084976D01*
X95614642Y-114132595D01*
X95662261Y-114180214D01*
X95709880Y-114275452D01*
X95709880Y-114561166D01*
X95662261Y-114656404D01*
X95614642Y-114704023D01*
X94805119Y-113704023D02*
X94757500Y-113656404D01*
X94709880Y-113561166D01*
X94709880Y-113323071D01*
X94757500Y-113227833D01*
X94805119Y-113180214D01*
X94900357Y-113132595D01*
X94995595Y-113132595D01*
X95138452Y-113180214D01*
X95709880Y-113751642D01*
X95709880Y-113132595D01*
D12*
%TO.C,Z7*%
X123940504Y-86740523D02*
X124787171Y-86740523D01*
X123940504Y-88010523D01*
X124787171Y-88010523D01*
X125150028Y-86740523D02*
X125996695Y-86740523D01*
X125452409Y-88010523D01*
D10*
%TO.C,R34*%
X58516542Y-112651280D02*
X58183209Y-112175090D01*
X57945114Y-112651280D02*
X57945114Y-111651280D01*
X58326066Y-111651280D01*
X58421304Y-111698900D01*
X58468923Y-111746519D01*
X58516542Y-111841757D01*
X58516542Y-111984614D01*
X58468923Y-112079852D01*
X58421304Y-112127471D01*
X58326066Y-112175090D01*
X57945114Y-112175090D01*
X58849876Y-111651280D02*
X59468923Y-111651280D01*
X59135590Y-112032233D01*
X59278447Y-112032233D01*
X59373685Y-112079852D01*
X59421304Y-112127471D01*
X59468923Y-112222709D01*
X59468923Y-112460804D01*
X59421304Y-112556042D01*
X59373685Y-112603661D01*
X59278447Y-112651280D01*
X58992733Y-112651280D01*
X58897495Y-112603661D01*
X58849876Y-112556042D01*
X60326066Y-111984614D02*
X60326066Y-112651280D01*
X60087971Y-111603661D02*
X59849876Y-112317947D01*
X60468923Y-112317947D01*
D13*
%TO.C,C2*%
X87388000Y-69489700D02*
X87388000Y-74829700D01*
X90830000Y-69489700D02*
X90164000Y-69489700D01*
X90830000Y-74829700D02*
X90164000Y-74829700D01*
X90830000Y-69489700D02*
X90830000Y-74829700D01*
X88054000Y-74829700D02*
X87388000Y-74829700D01*
X88054000Y-69489700D02*
X87388000Y-69489700D01*
%TO.C,C3*%
X121170600Y-64655000D02*
X120504600Y-64655000D01*
X121170600Y-64655000D02*
X121170600Y-69995000D01*
X118394600Y-69995000D02*
X117728600Y-69995000D01*
X117728600Y-64655000D02*
X117728600Y-69995000D01*
X121170600Y-69995000D02*
X120504600Y-69995000D01*
X118394600Y-64655000D02*
X117728600Y-64655000D01*
%TO.C,C4*%
X153078900Y-71808300D02*
X152412900Y-71808300D01*
X150302900Y-66468300D02*
X149636900Y-66468300D01*
X149636900Y-66468300D02*
X149636900Y-71808300D01*
X153078900Y-66468300D02*
X153078900Y-71808300D01*
X153078900Y-66468300D02*
X152412900Y-66468300D01*
X150302900Y-71808300D02*
X149636900Y-71808300D01*
%TO.C,D3*%
X80336000Y-80655500D02*
X85786000Y-80655500D01*
X80336000Y-80895500D02*
X85786000Y-80895500D01*
X85786000Y-82325000D02*
X85786000Y-72555000D01*
X85786000Y-72555000D02*
X80336000Y-72555000D01*
X83061000Y-83520000D02*
X83061000Y-82325000D01*
X80336000Y-72555000D02*
X80336000Y-82325000D01*
X80336000Y-82325000D02*
X85786000Y-82325000D01*
X83061000Y-71360000D02*
X83061000Y-72555000D01*
X80336000Y-80775500D02*
X85786000Y-80775500D01*
%TO.C,D5*%
X116266000Y-82325000D02*
X116266000Y-72555000D01*
X110816000Y-80655500D02*
X116266000Y-80655500D01*
X110816000Y-72555000D02*
X110816000Y-82325000D01*
X110816000Y-80775500D02*
X116266000Y-80775500D01*
X110816000Y-82325000D02*
X116266000Y-82325000D01*
X113541000Y-83520000D02*
X113541000Y-82325000D01*
X116266000Y-72555000D02*
X110816000Y-72555000D01*
X110816000Y-80895500D02*
X116266000Y-80895500D01*
X113541000Y-71360000D02*
X113541000Y-72555000D01*
%TO.C,D7*%
X171776000Y-80895500D02*
X177226000Y-80895500D01*
X171776000Y-82325000D02*
X177226000Y-82325000D01*
X177226000Y-82325000D02*
X177226000Y-72555000D01*
X174501000Y-83520000D02*
X174501000Y-82325000D01*
X177226000Y-72555000D02*
X171776000Y-72555000D01*
X171776000Y-72555000D02*
X171776000Y-82325000D01*
X171776000Y-80655500D02*
X177226000Y-80655500D01*
X174501000Y-71360000D02*
X174501000Y-72555000D01*
X171776000Y-80775500D02*
X177226000Y-80775500D01*
%TO.C,D9*%
X141296000Y-80775500D02*
X146746000Y-80775500D01*
X141296000Y-82325000D02*
X146746000Y-82325000D01*
X141296000Y-80655500D02*
X146746000Y-80655500D01*
X141296000Y-72555000D02*
X141296000Y-82325000D01*
X146746000Y-82325000D02*
X146746000Y-72555000D01*
X144021000Y-71360000D02*
X144021000Y-72555000D01*
X144021000Y-83520000D02*
X144021000Y-82325000D01*
X141296000Y-80895500D02*
X146746000Y-80895500D01*
X146746000Y-72555000D02*
X141296000Y-72555000D01*
%TO.C,D1*%
X129162900Y-124504200D02*
X129162900Y-124348200D01*
X129162900Y-122188200D02*
X129162900Y-122032200D01*
X128643861Y-122188200D02*
G75*
G03*
X126561770Y-122188363I-1040961J-1080000D01*
G01*
X125930565Y-124346808D02*
G75*
G03*
X129162900Y-124503716I1672335J1078609D01*
G01*
X129162900Y-122032684D02*
G75*
G03*
X125930565Y-122189592I-1560000J-1235517D01*
G01*
X126561770Y-124348037D02*
G75*
G03*
X128643861Y-124348200I1041130J1079837D01*
G01*
%TO.C,J2*%
X64710000Y-121920000D02*
X67310000Y-121920000D01*
X113090000Y-124520000D02*
X113090000Y-119320000D01*
X64710000Y-124520000D02*
X64710000Y-121920000D01*
X64710000Y-120650000D02*
X64710000Y-119320000D01*
X64710000Y-119320000D02*
X66040000Y-119320000D01*
X64710000Y-124520000D02*
X113090000Y-124520000D01*
X67310000Y-119320000D02*
X113090000Y-119320000D01*
X67310000Y-121920000D02*
X67310000Y-119320000D01*
%TO.C,J3*%
X67310000Y-99120000D02*
X113090000Y-99120000D01*
X64710000Y-96460000D02*
X66040000Y-96460000D01*
X67310000Y-96460000D02*
X113090000Y-96460000D01*
X67310000Y-99120000D02*
X67310000Y-96460000D01*
X113090000Y-99120000D02*
X113090000Y-96460000D01*
X64710000Y-97790000D02*
X64710000Y-96460000D01*
%TO.C,P1*%
X175824700Y-99057800D02*
X175824700Y-88777800D01*
X183025700Y-99297800D02*
X183025700Y-98797800D01*
X179148700Y-92604800D02*
X179194700Y-92651800D01*
X172864700Y-99057800D02*
X182785700Y-99057800D01*
X172864700Y-88777800D02*
X182785700Y-88777800D01*
X179364700Y-92411800D02*
X179399700Y-92446800D01*
X182225700Y-99057800D02*
X182225700Y-88777800D01*
X182785700Y-99057800D02*
X182785700Y-88777800D01*
X182285700Y-99297800D02*
X183025700Y-99297800D01*
X177056700Y-90102800D02*
X177102700Y-90149800D01*
X180725700Y-99057800D02*
X180725700Y-88777800D01*
X176850700Y-90307800D02*
X176886700Y-90342800D01*
X172864700Y-99057800D02*
X172864700Y-88777800D01*
X178809700Y-94922800D02*
G75*
G03*
X177442658Y-94922373I-684001J-1534993D01*
G01*
X179660700Y-97141800D02*
G75*
G03*
X179805953Y-96428995I-1535001J683999D01*
G01*
X179805700Y-96457800D02*
G75*
G03*
X179660456Y-95774482I-1679992J1D01*
G01*
X176590700Y-95773800D02*
G75*
G03*
X176590273Y-97140842I1534993J-684001D01*
G01*
X177441700Y-97992800D02*
G75*
G03*
X178808742Y-97993227I684001J1534993D01*
G01*
X179805700Y-91377800D02*
G75*
G03*
X179805700Y-91377800I-1680000J0D01*
G01*
D14*
%TO.C,Q3*%
X74419700Y-85574600D02*
X74419700Y-82379600D01*
X63879700Y-80884600D02*
X63879700Y-85574600D01*
X63879700Y-85574600D02*
X74419700Y-85574600D01*
%TO.C,Q6*%
X93298600Y-80772600D02*
X93298600Y-85462600D01*
X103838600Y-85462600D02*
X103838600Y-82267600D01*
X93298600Y-85462600D02*
X103838600Y-85462600D01*
D13*
%TO.C,Q7*%
X92816300Y-106476700D02*
X96416300Y-106476700D01*
X94616300Y-102026699D02*
G75*
G03*
X92777822Y-106465178I0J-2600001D01*
G01*
X96454778Y-106465178D02*
G75*
G03*
X94616300Y-102026700I-1838478J1838478D01*
G01*
D14*
%TO.C,Q9*%
X123275700Y-80772600D02*
X123275700Y-85462600D01*
X133815700Y-85462600D02*
X133815700Y-82267600D01*
X123275700Y-85462600D02*
X133815700Y-85462600D01*
%TO.C,Q12*%
X164959200Y-85462600D02*
X164959200Y-82267600D01*
X154419200Y-85462600D02*
X164959200Y-85462600D01*
X154419200Y-80772600D02*
X154419200Y-85462600D01*
%TO.C,Q13*%
X171611600Y-101969100D02*
X171611600Y-105164100D01*
X182151600Y-106659100D02*
X182151600Y-101969100D01*
X182151600Y-101969100D02*
X171611600Y-101969100D01*
D13*
%TO.C,Z2*%
X109156000Y-76351000D02*
X109156000Y-66430000D01*
X97430000Y-69851000D02*
X97465000Y-69816000D01*
X109156000Y-76351000D02*
X93796000Y-76351000D01*
X100201000Y-72159000D02*
X100248000Y-72113000D01*
X102703000Y-70067000D02*
X102750000Y-70021000D01*
X109396000Y-66190000D02*
X108896000Y-66190000D01*
X109156000Y-73391000D02*
X93796000Y-73391000D01*
X109156000Y-66430000D02*
X93796000Y-66430000D01*
X97623000Y-70067000D02*
X97670000Y-70021000D01*
X95121000Y-72159000D02*
X95168000Y-72113000D01*
X109396000Y-66930000D02*
X109396000Y-66190000D01*
X100406000Y-72365000D02*
X100441000Y-72329000D01*
X109156000Y-68490000D02*
X93796000Y-68490000D01*
X93796000Y-76351000D02*
X93796000Y-66430000D01*
X95326000Y-72365000D02*
X95361000Y-72329000D01*
X102510000Y-69851000D02*
X102545000Y-69816000D01*
X109156000Y-66990000D02*
X93796000Y-66990000D01*
X107240000Y-69555000D02*
G75*
G03*
X106527195Y-69409747I-683999J-1535001D01*
G01*
X106556000Y-69410000D02*
G75*
G03*
X105872682Y-69555244I-1J-1679992D01*
G01*
X108091000Y-71774000D02*
G75*
G03*
X108091427Y-70406958I-1534993J684001D01*
G01*
X105872000Y-72625000D02*
G75*
G03*
X107239042Y-72625427I684001J1534993D01*
G01*
X105021000Y-70406000D02*
G75*
G03*
X105020573Y-71773042I1534993J-684001D01*
G01*
X98076000Y-71090000D02*
G75*
G03*
X98076000Y-71090000I-1680000J0D01*
G01*
X103156000Y-71090000D02*
G75*
G03*
X103156000Y-71090000I-1680000J0D01*
G01*
%TO.C,Z3*%
X133183000Y-70067000D02*
X133230000Y-70021000D01*
X130681000Y-72159000D02*
X130728000Y-72113000D01*
X139876000Y-66930000D02*
X139876000Y-66190000D01*
X139636000Y-68490000D02*
X124276000Y-68490000D01*
X132990000Y-69851000D02*
X133025000Y-69816000D01*
X127910000Y-69851000D02*
X127945000Y-69816000D01*
X125601000Y-72159000D02*
X125648000Y-72113000D01*
X125806000Y-72365000D02*
X125841000Y-72329000D01*
X128103000Y-70067000D02*
X128150000Y-70021000D01*
X139636000Y-66990000D02*
X124276000Y-66990000D01*
X124276000Y-76351000D02*
X124276000Y-66430000D01*
X139876000Y-66190000D02*
X139376000Y-66190000D01*
X139636000Y-66430000D02*
X124276000Y-66430000D01*
X130886000Y-72365000D02*
X130921000Y-72329000D01*
X139636000Y-73391000D02*
X124276000Y-73391000D01*
X139636000Y-76351000D02*
X124276000Y-76351000D01*
X139636000Y-76351000D02*
X139636000Y-66430000D01*
X137720000Y-69555000D02*
G75*
G03*
X137007195Y-69409747I-683999J-1535001D01*
G01*
X135501000Y-70406000D02*
G75*
G03*
X135500573Y-71773042I1534993J-684001D01*
G01*
X136352000Y-72625000D02*
G75*
G03*
X137719042Y-72625427I684001J1534993D01*
G01*
X138571000Y-71774000D02*
G75*
G03*
X138571427Y-70406958I-1534993J684001D01*
G01*
X137036000Y-69410000D02*
G75*
G03*
X136352682Y-69555244I-1J-1679992D01*
G01*
X133636000Y-71090000D02*
G75*
G03*
X133636000Y-71090000I-1680000J0D01*
G01*
X128556000Y-71090000D02*
G75*
G03*
X128556000Y-71090000I-1680000J0D01*
G01*
%TO.C,Z4*%
X163470000Y-69851000D02*
X163505000Y-69816000D01*
X170116000Y-66990000D02*
X154756000Y-66990000D01*
X163663000Y-70067000D02*
X163710000Y-70021000D01*
X170116000Y-68490000D02*
X154756000Y-68490000D01*
X170116000Y-66430000D02*
X154756000Y-66430000D01*
X161366000Y-72365000D02*
X161401000Y-72329000D01*
X156286000Y-72365000D02*
X156321000Y-72329000D01*
X170116000Y-76351000D02*
X154756000Y-76351000D01*
X158583000Y-70067000D02*
X158630000Y-70021000D01*
X170356000Y-66190000D02*
X169856000Y-66190000D01*
X156081000Y-72159000D02*
X156128000Y-72113000D01*
X158390000Y-69851000D02*
X158425000Y-69816000D01*
X170116000Y-73391000D02*
X154756000Y-73391000D01*
X154756000Y-76351000D02*
X154756000Y-66430000D01*
X170356000Y-66930000D02*
X170356000Y-66190000D01*
X170116000Y-76351000D02*
X170116000Y-66430000D01*
X161161000Y-72159000D02*
X161208000Y-72113000D01*
X167516000Y-69410000D02*
G75*
G03*
X166832682Y-69555244I-1J-1679992D01*
G01*
X168200000Y-69555000D02*
G75*
G03*
X167487195Y-69409747I-683999J-1535001D01*
G01*
X166832000Y-72625000D02*
G75*
G03*
X168199042Y-72625427I684001J1534993D01*
G01*
X169051000Y-71774000D02*
G75*
G03*
X169051427Y-70406958I-1534993J684001D01*
G01*
X165981000Y-70406000D02*
G75*
G03*
X165980573Y-71773042I1534993J-684001D01*
G01*
X164116000Y-71090000D02*
G75*
G03*
X164116000Y-71090000I-1680000J0D01*
G01*
X159036000Y-71090000D02*
G75*
G03*
X159036000Y-71090000I-1680000J0D01*
G01*
%TO.C,Z1*%
X78676000Y-68490000D02*
X63316000Y-68490000D01*
X78676000Y-76351000D02*
X78676000Y-66430000D01*
X63316000Y-76351000D02*
X63316000Y-66430000D01*
X72030000Y-69851000D02*
X72065000Y-69816000D01*
X67143000Y-70067000D02*
X67190000Y-70021000D01*
X78916000Y-66190000D02*
X78416000Y-66190000D01*
X78676000Y-66990000D02*
X63316000Y-66990000D01*
X78676000Y-73391000D02*
X63316000Y-73391000D01*
X64641000Y-72159000D02*
X64688000Y-72113000D01*
X69721000Y-72159000D02*
X69768000Y-72113000D01*
X66950000Y-69851000D02*
X66985000Y-69816000D01*
X78916000Y-66930000D02*
X78916000Y-66190000D01*
X72223000Y-70067000D02*
X72270000Y-70021000D01*
X78676000Y-66430000D02*
X63316000Y-66430000D01*
X78676000Y-76351000D02*
X63316000Y-76351000D01*
X64846000Y-72365000D02*
X64881000Y-72329000D01*
X69926000Y-72365000D02*
X69961000Y-72329000D01*
X76076000Y-69410000D02*
G75*
G03*
X75392682Y-69555244I-1J-1679992D01*
G01*
X76760000Y-69555000D02*
G75*
G03*
X76047195Y-69409747I-683999J-1535001D01*
G01*
X74541000Y-70406000D02*
G75*
G03*
X74540573Y-71773042I1534993J-684001D01*
G01*
X77611000Y-71774000D02*
G75*
G03*
X77611427Y-70406958I-1534993J684001D01*
G01*
X75392000Y-72625000D02*
G75*
G03*
X76759042Y-72625427I684001J1534993D01*
G01*
X72676000Y-71090000D02*
G75*
G03*
X72676000Y-71090000I-1680000J0D01*
G01*
X67596000Y-71090000D02*
G75*
G03*
X67596000Y-71090000I-1680000J0D01*
G01*
%TO.C,J1*%
X171679000Y-124912300D02*
X133459000Y-124912300D01*
X169079000Y-119712300D02*
X133459000Y-119712300D01*
X133459000Y-119712300D02*
X133459000Y-124912300D01*
X171679000Y-119712300D02*
X171679000Y-121042300D01*
X170349000Y-119712300D02*
X171679000Y-119712300D01*
X169079000Y-122312300D02*
X171679000Y-122312300D01*
X171679000Y-122312300D02*
X171679000Y-124912300D01*
X169079000Y-119712300D02*
X169079000Y-122312300D01*
D14*
%TO.C,Z5*%
X72044500Y-86535400D02*
X72044500Y-88255400D01*
X72044500Y-87395400D02*
X74567500Y-87395400D01*
X65717500Y-87395400D02*
X68240500Y-87395400D01*
X68240500Y-88255400D02*
X68240500Y-86535400D01*
X68240500Y-86535400D02*
X72044500Y-86535400D01*
X72044500Y-88255400D02*
X68240500Y-88255400D01*
X68240500Y-87395400D02*
X69100500Y-86535400D01*
%TO.C,Z6*%
X96343500Y-87436000D02*
X98866500Y-87436000D01*
X98866500Y-88296000D02*
X98866500Y-86576000D01*
X98866500Y-86576000D02*
X102670500Y-86576000D01*
X102670500Y-86576000D02*
X102670500Y-88296000D01*
X102670500Y-88296000D02*
X98866500Y-88296000D01*
X102670500Y-87436000D02*
X105193500Y-87436000D01*
X98866500Y-87436000D02*
X99726500Y-86576000D01*
%TO.C,Z8*%
X163816300Y-86244200D02*
X163816300Y-87964200D01*
X160012300Y-87104200D02*
X160872300Y-86244200D01*
X163816300Y-87964200D02*
X160012300Y-87964200D01*
X160012300Y-87964200D02*
X160012300Y-86244200D01*
X160012300Y-86244200D02*
X163816300Y-86244200D01*
X157489300Y-87104200D02*
X160012300Y-87104200D01*
X163816300Y-87104200D02*
X166339300Y-87104200D01*
D13*
%TO.C,Q4*%
X87218400Y-106489800D02*
X90818400Y-106489800D01*
X90856878Y-106478278D02*
G75*
G03*
X89018400Y-102039800I-1838478J1838478D01*
G01*
X89018400Y-102039799D02*
G75*
G03*
X87179922Y-106478278I0J-2600001D01*
G01*
%TO.C,R23*%
X74202300Y-105627200D02*
X74132300Y-105627200D01*
X76942300Y-105627200D02*
G75*
G03*
X76942300Y-105627200I-1370000J0D01*
G01*
%TO.C,R31*%
X88097100Y-114494500D02*
X88097100Y-114564500D01*
X89467100Y-113124500D02*
G75*
G03*
X89467100Y-113124500I-1370000J0D01*
G01*
%TO.C,R16*%
X133147400Y-90385900D02*
X133217400Y-90385900D01*
X133147400Y-90385900D02*
G75*
G03*
X133147400Y-90385900I-1370000J0D01*
G01*
%TO.C,Q2*%
X75224800Y-81286600D02*
X75224800Y-84886600D01*
X79674801Y-83086600D02*
G75*
G03*
X75236322Y-81248122I-2600001J0D01*
G01*
X75236322Y-84925078D02*
G75*
G03*
X79674800Y-83086600I1838478J1838478D01*
G01*
%TO.C,R24*%
X74746700Y-108765100D02*
X74816700Y-108765100D01*
X74746700Y-108765100D02*
G75*
G03*
X74746700Y-108765100I-1370000J0D01*
G01*
%TO.C,R5*%
X89853500Y-79968900D02*
X89923500Y-79968900D01*
X89853500Y-79968900D02*
G75*
G03*
X89853500Y-79968900I-1370000J0D01*
G01*
%TO.C,RV1*%
X158062800Y-104450600D02*
X158062800Y-99380600D01*
X148292800Y-104450600D02*
X148292800Y-99380600D01*
X158062800Y-99380600D02*
X148292800Y-99380600D01*
X158062800Y-104450600D02*
X148292800Y-104450600D01*
%TO.C,J4*%
X155955000Y-95302400D02*
X157285000Y-95302400D01*
X154625000Y-95302400D02*
X154625000Y-97962400D01*
X154685000Y-95302400D02*
X154685000Y-97962400D01*
X154685000Y-97962400D02*
X154625000Y-97962400D01*
X157285000Y-95302400D02*
X157285000Y-96632400D01*
X154685000Y-95302400D02*
X154625000Y-95302400D01*
%TO.C,R15*%
X127984500Y-90392400D02*
X128054500Y-90392400D01*
X127984500Y-90392400D02*
G75*
G03*
X127984500Y-90392400I-1370000J0D01*
G01*
%TO.C,R17*%
X179213800Y-75385100D02*
X179213800Y-75455100D01*
X180583800Y-74015100D02*
G75*
G03*
X180583800Y-74015100I-1370000J0D01*
G01*
%TO.C,J5*%
X60537667Y-82360174D02*
X57877667Y-82360174D01*
X60537667Y-90040174D02*
X57877667Y-90040174D01*
X59207667Y-92640174D02*
X57877667Y-92640174D01*
X60537667Y-90040174D02*
X60537667Y-82360174D01*
X57877667Y-90040174D02*
X57877667Y-82360174D01*
X57877667Y-92640174D02*
X57877667Y-91310174D01*
%TO.C,R4*%
X104146500Y-115956200D02*
X104076500Y-115956200D01*
X106886500Y-115956200D02*
G75*
G03*
X106886500Y-115956200I-1370000J0D01*
G01*
%TO.C,R18*%
X180720700Y-81833100D02*
X180790700Y-81833100D01*
X180720700Y-81833100D02*
G75*
G03*
X180720700Y-81833100I-1370000J0D01*
G01*
%TO.C,R29*%
X139234000Y-113952700D02*
X139164000Y-113952700D01*
X141974000Y-113952700D02*
G75*
G03*
X141974000Y-113952700I-1370000J0D01*
G01*
%TO.C,R25*%
X75859900Y-112698500D02*
X75859900Y-112628500D01*
X77229900Y-114068500D02*
G75*
G03*
X77229900Y-114068500I-1370000J0D01*
G01*
%TO.C,R33*%
X97677800Y-114494500D02*
X97677800Y-114564500D01*
X99047800Y-113124500D02*
G75*
G03*
X99047800Y-113124500I-1370000J0D01*
G01*
%TO.C,R14*%
X138343400Y-90405200D02*
X138413400Y-90405200D01*
X138343400Y-90405200D02*
G75*
G03*
X138343400Y-90405200I-1370000J0D01*
G01*
%TO.C,Q11*%
X165837500Y-81013000D02*
X165837500Y-84613000D01*
X165849022Y-84651478D02*
G75*
G03*
X170287500Y-82813000I1838478J1838478D01*
G01*
X170287501Y-82813000D02*
G75*
G03*
X165849022Y-80974522I-2600001J0D01*
G01*
%TO.C,R27*%
X139234000Y-104374000D02*
X139164000Y-104374000D01*
X141974000Y-104374000D02*
G75*
G03*
X141974000Y-104374000I-1370000J0D01*
G01*
%TO.C,D4*%
X120045100Y-112149400D02*
X119025100Y-112149400D01*
X114605100Y-110679400D02*
X114605100Y-113619400D01*
X119025100Y-110679400D02*
X113585100Y-110679400D01*
X114485100Y-110679400D02*
X114485100Y-113619400D01*
X113585100Y-113619400D02*
X119025100Y-113619400D01*
X119025100Y-113619400D02*
X119025100Y-110679400D01*
X113585100Y-110679400D02*
X113585100Y-113619400D01*
X112565100Y-112149400D02*
X113585100Y-112149400D01*
X114365100Y-110679400D02*
X114365100Y-113619400D01*
%TO.C,D2*%
X114432700Y-115550300D02*
X114432700Y-118490300D01*
X114312700Y-115550300D02*
X114312700Y-118490300D01*
X118972700Y-115550300D02*
X113532700Y-115550300D01*
X119992700Y-117020300D02*
X118972700Y-117020300D01*
X114552700Y-115550300D02*
X114552700Y-118490300D01*
X118972700Y-118490300D02*
X118972700Y-115550300D01*
X113532700Y-115550300D02*
X113532700Y-118490300D01*
X112512700Y-117020300D02*
X113532700Y-117020300D01*
X113532700Y-118490300D02*
X118972700Y-118490300D01*
D14*
%TO.C,S1*%
X116766200Y-125773800D02*
X120966200Y-125773800D01*
X114166200Y-120523800D02*
X114166200Y-120523800D01*
X115866200Y-123973800D02*
X115866200Y-121573800D01*
X114166200Y-120523800D02*
X114266200Y-120523800D01*
X116766200Y-119773800D02*
X120966200Y-119773800D01*
X121866200Y-123973800D02*
X121866200Y-121573800D01*
X114266200Y-120523800D02*
X114266200Y-120523800D01*
X114166200Y-120523800D02*
G75*
G03*
X114266200Y-120523800I50000J0D01*
G01*
X114266200Y-120523800D02*
G75*
G03*
X114166200Y-120523800I-50000J0D01*
G01*
D13*
%TO.C,R9*%
X119828200Y-74373700D02*
X119898200Y-74373700D01*
X119828200Y-74373700D02*
G75*
G03*
X119828200Y-74373700I-1370000J0D01*
G01*
%TO.C,R13*%
X151157000Y-76942800D02*
X151227000Y-76942800D01*
X151157000Y-76942800D02*
G75*
G03*
X151157000Y-76942800I-1370000J0D01*
G01*
%TO.C,R6*%
X79346900Y-90313600D02*
X79416900Y-90313600D01*
X79346900Y-90313600D02*
G75*
G03*
X79346900Y-90313600I-1370000J0D01*
G01*
%TO.C,R11*%
X98798100Y-90313600D02*
X98868100Y-90313600D01*
X98798100Y-90313600D02*
G75*
G03*
X98798100Y-90313600I-1370000J0D01*
G01*
%TO.C,R7*%
X68962100Y-90313600D02*
X69032100Y-90313600D01*
X68962100Y-90313600D02*
G75*
G03*
X68962100Y-90313600I-1370000J0D01*
G01*
D14*
%TO.C,U2*%
X164978400Y-114800500D02*
X164978400Y-114800500D01*
X164978400Y-114800500D02*
X164978400Y-114800500D01*
X164978400Y-114900500D02*
X164978400Y-114900500D01*
D15*
X161378400Y-108050500D02*
X181378400Y-108050500D01*
X181378400Y-108050500D02*
X181378400Y-114050500D01*
X161378400Y-114050500D02*
X161378400Y-108050500D01*
X181378400Y-114050500D02*
X161378400Y-114050500D01*
D14*
X164978400Y-114800500D02*
G75*
G03*
X164978400Y-114900500I0J-50000D01*
G01*
X164978400Y-114900500D02*
G75*
G03*
X164978400Y-114800500I0J50000D01*
G01*
X164978400Y-114800500D02*
G75*
G03*
X164978400Y-114900500I0J-50000D01*
G01*
D13*
%TO.C,Q10*%
X98448100Y-106476700D02*
X102048100Y-106476700D01*
X100248100Y-102026699D02*
G75*
G03*
X98409622Y-106465178I0J-2600001D01*
G01*
X102086578Y-106465178D02*
G75*
G03*
X100248100Y-102026700I-1838478J1838478D01*
G01*
%TO.C,D8*%
X114485100Y-100860700D02*
X114485100Y-103800700D01*
X120045100Y-102330700D02*
X119025100Y-102330700D01*
X114605100Y-100860700D02*
X114605100Y-103800700D01*
X119025100Y-100860700D02*
X113585100Y-100860700D01*
X113585100Y-103800700D02*
X119025100Y-103800700D01*
X113585100Y-100860700D02*
X113585100Y-103800700D01*
X119025100Y-103800700D02*
X119025100Y-100860700D01*
X112565100Y-102330700D02*
X113585100Y-102330700D01*
X114365100Y-100860700D02*
X114365100Y-103800700D01*
D14*
%TO.C,IC3*%
X69850600Y-105689500D02*
X63250600Y-105689500D01*
X71085600Y-115849500D02*
X63250600Y-115849500D01*
D13*
%TO.C,Q1*%
X81622400Y-106494400D02*
X85222400Y-106494400D01*
X85260878Y-106482878D02*
G75*
G03*
X83422400Y-102044400I-1838478J1838478D01*
G01*
X83422400Y-102044399D02*
G75*
G03*
X81583922Y-106482878I0J-2600001D01*
G01*
%TO.C,R26*%
X139234000Y-99584700D02*
X139164000Y-99584700D01*
X141974000Y-99584700D02*
G75*
G03*
X141974000Y-99584700I-1370000J0D01*
G01*
%TO.C,R8*%
X74168600Y-90313600D02*
X74238600Y-90313600D01*
X74168600Y-90313600D02*
G75*
G03*
X74168600Y-90313600I-1370000J0D01*
G01*
D14*
%TO.C,IC4*%
X133104800Y-116083600D02*
X126804800Y-116083600D01*
X126804800Y-96243600D02*
X133104800Y-96243600D01*
X133104800Y-96243600D02*
X133104800Y-116083600D01*
X126804800Y-116083600D02*
X126804800Y-96243600D01*
X135554800Y-116128600D02*
X133454800Y-116128600D01*
D13*
%TO.C,Q8*%
X135692600Y-81292900D02*
X135692600Y-84892900D01*
X135704122Y-84931378D02*
G75*
G03*
X140142600Y-83092900I1838478J1838478D01*
G01*
X140142601Y-83092900D02*
G75*
G03*
X135704122Y-81254422I-2600001J0D01*
G01*
%TO.C,Q5*%
X104823400Y-81219200D02*
X104823400Y-84819200D01*
X104834922Y-84857678D02*
G75*
G03*
X109273400Y-83019200I1838478J1838478D01*
G01*
X109273401Y-83019200D02*
G75*
G03*
X104834922Y-81180722I-2600001J0D01*
G01*
%TO.C,C5*%
X152365400Y-79704400D02*
X153031400Y-79704400D01*
X149589400Y-79704400D02*
X150255400Y-79704400D01*
X153031400Y-85044400D02*
X153031400Y-79704400D01*
X149589400Y-85044400D02*
X150255400Y-85044400D01*
X149589400Y-85044400D02*
X149589400Y-79704400D01*
X152365400Y-85044400D02*
X153031400Y-85044400D01*
%TO.C,R21*%
X168795100Y-105167700D02*
X168865100Y-105167700D01*
X168795100Y-105167700D02*
G75*
G03*
X168795100Y-105167700I-1370000J0D01*
G01*
%TO.C,R3*%
X104280100Y-111109900D02*
X104210100Y-111109900D01*
X107020100Y-111109900D02*
G75*
G03*
X107020100Y-111109900I-1370000J0D01*
G01*
%TO.C,R30*%
X83306700Y-114494500D02*
X83306700Y-114564500D01*
X84676700Y-113124500D02*
G75*
G03*
X84676700Y-113124500I-1370000J0D01*
G01*
%TO.C,R12*%
X103972700Y-90291400D02*
X104042700Y-90291400D01*
X103972700Y-90291400D02*
G75*
G03*
X103972700Y-90291400I-1370000J0D01*
G01*
%TO.C,R28*%
X139234000Y-109163400D02*
X139164000Y-109163400D01*
X141974000Y-109163400D02*
G75*
G03*
X141974000Y-109163400I-1370000J0D01*
G01*
%TO.C,R20*%
X161829300Y-89971000D02*
X161899300Y-89971000D01*
X161829300Y-89971000D02*
G75*
G03*
X161829300Y-89971000I-1370000J0D01*
G01*
%TO.C,R19*%
X156466800Y-90020800D02*
X156536800Y-90020800D01*
X156466800Y-90020800D02*
G75*
G03*
X156466800Y-90020800I-1370000J0D01*
G01*
%TO.C,R10*%
X109174100Y-90285900D02*
X109244100Y-90285900D01*
X109174100Y-90285900D02*
G75*
G03*
X109174100Y-90285900I-1370000J0D01*
G01*
%TO.C,D6*%
X114365100Y-105770100D02*
X114365100Y-108710100D01*
X113585100Y-108710100D02*
X119025100Y-108710100D01*
X113585100Y-105770100D02*
X113585100Y-108710100D01*
X114605100Y-105770100D02*
X114605100Y-108710100D01*
X112565100Y-107240100D02*
X113585100Y-107240100D01*
X119025100Y-108710100D02*
X119025100Y-105770100D01*
X120045100Y-107240100D02*
X119025100Y-107240100D01*
X114485100Y-105770100D02*
X114485100Y-108710100D01*
X119025100Y-105770100D02*
X113585100Y-105770100D01*
%TO.C,R32*%
X92887500Y-114494500D02*
X92887500Y-114564500D01*
X94257500Y-113124500D02*
G75*
G03*
X94257500Y-113124500I-1370000J0D01*
G01*
D14*
%TO.C,Z7*%
X132220600Y-86576000D02*
X132220600Y-88296000D01*
X128416600Y-86576000D02*
X132220600Y-86576000D01*
X125893600Y-87436000D02*
X128416600Y-87436000D01*
X128416600Y-88296000D02*
X128416600Y-86576000D01*
X128416600Y-87436000D02*
X129276600Y-86576000D01*
X132220600Y-87436000D02*
X134743600Y-87436000D01*
X132220600Y-88296000D02*
X128416600Y-88296000D01*
D13*
%TO.C,R34*%
X59259400Y-114568900D02*
X59329400Y-114568900D01*
X59259400Y-114568900D02*
G75*
G03*
X59259400Y-114568900I-1370000J0D01*
G01*
%TD*%
M02*
