%TF.GenerationSoftware,KiCad,Pcbnew,(5.1.9)-1*%
%TF.CreationDate,2021-11-16T17:59:31-08:00*%
%TF.ProjectId,MakeItRain,4d616b65-4974-4526-9169-6e2e6b696361,rev?*%
%TF.SameCoordinates,Original*%
%TF.FileFunction,Soldermask,Top*%
%TF.FilePolarity,Negative*%
%FSLAX46Y46*%
G04 Gerber Fmt 4.6, Leading zero omitted, Abs format (unit mm)*
G04 Created by KiCad (PCBNEW (5.1.9)-1) date 2021-11-16 17:59:31*
%MOMM*%
%LPD*%
G01*
G04 APERTURE LIST*
%ADD10C,1.150000*%
%ADD11R,1.150000X1.150000*%
%ADD12C,1.600000*%
%ADD13C,2.600000*%
%ADD14R,2.600000X2.600000*%
%ADD15O,1.700000X1.700000*%
%ADD16R,1.700000X1.700000*%
%ADD17O,1.600000X1.600000*%
%ADD18C,2.100000*%
%ADD19C,1.920000*%
%ADD20R,1.920000X1.920000*%
%ADD21R,1.050000X1.500000*%
%ADD22O,1.050000X1.500000*%
%ADD23R,1.500000X1.050000*%
%ADD24O,1.500000X1.050000*%
%ADD25C,1.130000*%
%ADD26R,1.130000X1.130000*%
%ADD27R,1.528000X0.650000*%
%ADD28O,2.200000X2.200000*%
%ADD29R,2.200000X2.200000*%
%ADD30O,2.600000X2.600000*%
%ADD31R,1.600000X1.600000*%
G04 APERTURE END LIST*
D10*
%TO.C,Z8*%
X125190000Y-86360000D03*
D11*
X135890000Y-86360000D03*
%TD*%
D10*
%TO.C,Z7*%
X156940000Y-86360000D03*
D11*
X167640000Y-86360000D03*
%TD*%
D10*
%TO.C,Z6*%
X95980000Y-86360000D03*
D11*
X106680000Y-86360000D03*
%TD*%
D10*
%TO.C,Z5*%
X64230000Y-86360000D03*
D11*
X74930000Y-86360000D03*
%TD*%
D12*
%TO.C,C8*%
X151050000Y-57785000D03*
X146050000Y-57785000D03*
%TD*%
%TO.C,C7*%
X180340000Y-68025000D03*
X180340000Y-73025000D03*
%TD*%
%TO.C,C6*%
X120650000Y-63420000D03*
X120650000Y-58420000D03*
%TD*%
%TO.C,C5*%
X113030000Y-63420000D03*
X113030000Y-58420000D03*
%TD*%
D13*
%TO.C,P1*%
X184150000Y-77470000D03*
D14*
X184150000Y-82550000D03*
%TD*%
D15*
%TO.C,J1*%
X130810000Y-120650000D03*
X130810000Y-123190000D03*
X133350000Y-120650000D03*
X133350000Y-123190000D03*
X135890000Y-120650000D03*
X135890000Y-123190000D03*
X138430000Y-120650000D03*
X138430000Y-123190000D03*
X140970000Y-120650000D03*
X140970000Y-123190000D03*
X143510000Y-120650000D03*
X143510000Y-123190000D03*
X146050000Y-120650000D03*
X146050000Y-123190000D03*
X148590000Y-120650000D03*
X148590000Y-123190000D03*
X151130000Y-120650000D03*
X151130000Y-123190000D03*
X153670000Y-120650000D03*
X153670000Y-123190000D03*
X156210000Y-120650000D03*
X156210000Y-123190000D03*
X158750000Y-120650000D03*
X158750000Y-123190000D03*
X161290000Y-120650000D03*
X161290000Y-123190000D03*
X163830000Y-120650000D03*
X163830000Y-123190000D03*
X166370000Y-120650000D03*
X166370000Y-123190000D03*
X168910000Y-120650000D03*
D16*
X168910000Y-123190000D03*
%TD*%
D17*
%TO.C,R2*%
X157480000Y-99060000D03*
D12*
X152400000Y-99060000D03*
%TD*%
D13*
%TO.C,Z4*%
X157480000Y-69850000D03*
X162560000Y-69850000D03*
D14*
X167640000Y-69850000D03*
%TD*%
D13*
%TO.C,Z3*%
X127000000Y-69850000D03*
X132080000Y-69850000D03*
D14*
X137160000Y-69850000D03*
%TD*%
D13*
%TO.C,Z2*%
X96520000Y-69850000D03*
X101600000Y-69850000D03*
D14*
X106680000Y-69850000D03*
%TD*%
D13*
%TO.C,Z1*%
X66040000Y-69850000D03*
X71120000Y-69850000D03*
D14*
X76200000Y-69850000D03*
%TD*%
D18*
%TO.C,U1*%
X173990000Y-99100000D03*
X177490000Y-99100000D03*
X183290000Y-99100000D03*
X186790000Y-99100000D03*
X186790000Y-101600000D03*
X183290000Y-101600000D03*
X177490000Y-101600000D03*
X173990000Y-101600000D03*
%TD*%
D17*
%TO.C,R6*%
X59690000Y-69850000D03*
D12*
X54610000Y-69850000D03*
%TD*%
D17*
%TO.C,R26*%
X143510000Y-93980000D03*
D12*
X140970000Y-93980000D03*
%TD*%
D17*
%TO.C,R25*%
X143510000Y-88900000D03*
D12*
X140970000Y-88900000D03*
%TD*%
D17*
%TO.C,R24*%
X128270000Y-99060000D03*
D12*
X125730000Y-99060000D03*
%TD*%
D17*
%TO.C,R21*%
X152400000Y-88900000D03*
D12*
X149860000Y-88900000D03*
%TD*%
D17*
%TO.C,R5*%
X157480000Y-104140000D03*
D12*
X152400000Y-104140000D03*
%TD*%
D17*
%TO.C,R4*%
X166370000Y-104140000D03*
D12*
X161290000Y-104140000D03*
%TD*%
D17*
%TO.C,R3*%
X166370000Y-99060000D03*
D12*
X161290000Y-99060000D03*
%TD*%
D17*
%TO.C,R20*%
X152400000Y-83820000D03*
D12*
X149860000Y-83820000D03*
%TD*%
D17*
%TO.C,R19*%
X152400000Y-78740000D03*
D12*
X149860000Y-78740000D03*
%TD*%
D17*
%TO.C,R16*%
X121920000Y-88900000D03*
D12*
X119380000Y-88900000D03*
%TD*%
D17*
%TO.C,R15*%
X121920000Y-83820000D03*
D12*
X119380000Y-83820000D03*
%TD*%
D17*
%TO.C,R18*%
X152400000Y-73660000D03*
D12*
X149860000Y-73660000D03*
%TD*%
D17*
%TO.C,R14*%
X121920000Y-78740000D03*
D12*
X119380000Y-78740000D03*
%TD*%
D17*
%TO.C,R17*%
X152400000Y-68580000D03*
D12*
X149860000Y-68580000D03*
%TD*%
D17*
%TO.C,R23*%
X134620000Y-99060000D03*
D12*
X132080000Y-99060000D03*
%TD*%
D17*
%TO.C,R11*%
X91440000Y-88900000D03*
D12*
X88900000Y-88900000D03*
%TD*%
D17*
%TO.C,R22*%
X143510000Y-99060000D03*
D12*
X140970000Y-99060000D03*
%TD*%
D17*
%TO.C,R13*%
X121920000Y-73660000D03*
D12*
X119380000Y-73660000D03*
%TD*%
D17*
%TO.C,R10*%
X91440000Y-83820000D03*
D12*
X88900000Y-83820000D03*
%TD*%
D17*
%TO.C,R12*%
X121920000Y-68580000D03*
D12*
X119380000Y-68580000D03*
%TD*%
D17*
%TO.C,R8*%
X91440000Y-73660000D03*
D12*
X88900000Y-73660000D03*
%TD*%
D17*
%TO.C,R9*%
X91440000Y-78740000D03*
D12*
X88900000Y-78740000D03*
%TD*%
D17*
%TO.C,R7*%
X91440000Y-68580000D03*
D12*
X88900000Y-68580000D03*
%TD*%
D17*
%TO.C,R1*%
X173990000Y-91440000D03*
D12*
X179070000Y-91440000D03*
%TD*%
D19*
%TO.C,Q13*%
X129540000Y-81280000D03*
X132080000Y-81280000D03*
D20*
X134620000Y-81280000D03*
%TD*%
D21*
%TO.C,Q12*%
X128270000Y-91440000D03*
D22*
X125730000Y-91440000D03*
X127000000Y-91440000D03*
%TD*%
D19*
%TO.C,Q10*%
X160020000Y-81280000D03*
X162560000Y-81280000D03*
D20*
X165100000Y-81280000D03*
%TD*%
D23*
%TO.C,Q9*%
X156210000Y-90170000D03*
D24*
X156210000Y-92710000D03*
X156210000Y-91440000D03*
%TD*%
D23*
%TO.C,Q8*%
X163830000Y-90170000D03*
D24*
X163830000Y-92710000D03*
X163830000Y-91440000D03*
%TD*%
D19*
%TO.C,Q7*%
X99060000Y-81280000D03*
X101600000Y-81280000D03*
D20*
X104140000Y-81280000D03*
%TD*%
D21*
%TO.C,Q11*%
X134620000Y-91440000D03*
D22*
X132080000Y-91440000D03*
X133350000Y-91440000D03*
%TD*%
D21*
%TO.C,Q6*%
X105410000Y-91440000D03*
D22*
X102870000Y-91440000D03*
X104140000Y-91440000D03*
%TD*%
D21*
%TO.C,Q5*%
X99060000Y-91440000D03*
D22*
X96520000Y-91440000D03*
X97790000Y-91440000D03*
%TD*%
D19*
%TO.C,Q4*%
X68580000Y-81280000D03*
X71120000Y-81280000D03*
D20*
X73660000Y-81280000D03*
%TD*%
D21*
%TO.C,Q2*%
X69850000Y-91440000D03*
D22*
X67310000Y-91440000D03*
X68580000Y-91440000D03*
%TD*%
D21*
%TO.C,Q3*%
X76200000Y-91440000D03*
D22*
X73660000Y-91440000D03*
X74930000Y-91440000D03*
%TD*%
D19*
%TO.C,Q1*%
X189230000Y-92710000D03*
X186690000Y-92710000D03*
D20*
X184150000Y-92710000D03*
%TD*%
D17*
%TO.C,L1*%
X52070000Y-86360000D03*
D12*
X62230000Y-86360000D03*
%TD*%
D15*
%TO.C,J3*%
X111760000Y-97790000D03*
X109220000Y-97790000D03*
X106680000Y-97790000D03*
X104140000Y-97790000D03*
X101600000Y-97790000D03*
X99060000Y-97790000D03*
X96520000Y-97790000D03*
X93980000Y-97790000D03*
X91440000Y-97790000D03*
X88900000Y-97790000D03*
X86360000Y-97790000D03*
X83820000Y-97790000D03*
X81280000Y-97790000D03*
X78740000Y-97790000D03*
X76200000Y-97790000D03*
X73660000Y-97790000D03*
X71120000Y-97790000D03*
X68580000Y-97790000D03*
D16*
X66040000Y-97790000D03*
%TD*%
D15*
%TO.C,J2*%
X111760000Y-123190000D03*
X111760000Y-120650000D03*
X109220000Y-123190000D03*
X109220000Y-120650000D03*
X106680000Y-123190000D03*
X106680000Y-120650000D03*
X104140000Y-123190000D03*
X104140000Y-120650000D03*
X101600000Y-123190000D03*
X101600000Y-120650000D03*
X99060000Y-123190000D03*
X99060000Y-120650000D03*
X96520000Y-123190000D03*
X96520000Y-120650000D03*
X93980000Y-123190000D03*
X93980000Y-120650000D03*
X91440000Y-123190000D03*
X91440000Y-120650000D03*
X88900000Y-123190000D03*
X88900000Y-120650000D03*
X86360000Y-123190000D03*
X86360000Y-120650000D03*
X83820000Y-123190000D03*
X83820000Y-120650000D03*
X81280000Y-123190000D03*
X81280000Y-120650000D03*
X78740000Y-123190000D03*
X78740000Y-120650000D03*
X76200000Y-123190000D03*
X76200000Y-120650000D03*
X73660000Y-123190000D03*
X73660000Y-120650000D03*
X71120000Y-123190000D03*
X71120000Y-120650000D03*
X68580000Y-123190000D03*
X68580000Y-120650000D03*
X66040000Y-123190000D03*
D16*
X66040000Y-120650000D03*
%TD*%
D25*
%TO.C,IC1*%
X147480000Y-104140000D03*
X147480000Y-106680000D03*
X147480000Y-109220000D03*
X147480000Y-111760000D03*
X139540000Y-111760000D03*
X139540000Y-109220000D03*
X139540000Y-106680000D03*
D26*
X139540000Y-104140000D03*
%TD*%
D27*
%TO.C,IC2*%
X56051000Y-89535000D03*
X56051000Y-90805000D03*
X56051000Y-92075000D03*
X56051000Y-93345000D03*
X50629000Y-93345000D03*
X50629000Y-92075000D03*
X50629000Y-90805000D03*
X50629000Y-89535000D03*
%TD*%
D28*
%TO.C,D1*%
X52070000Y-80010000D03*
D29*
X62230000Y-80010000D03*
%TD*%
D30*
%TO.C,D9*%
X144145000Y-68580000D03*
D14*
X144145000Y-83820000D03*
%TD*%
D30*
%TO.C,D7*%
X174625000Y-68580000D03*
D14*
X174625000Y-83820000D03*
%TD*%
D30*
%TO.C,D5*%
X113665000Y-68580000D03*
D14*
X113665000Y-83820000D03*
%TD*%
D30*
%TO.C,D3*%
X83185000Y-68580000D03*
D14*
X83185000Y-83820000D03*
%TD*%
D12*
%TO.C,C4*%
X47950000Y-101600000D03*
D31*
X44450000Y-101600000D03*
%TD*%
D12*
%TO.C,C3*%
X47950000Y-81280000D03*
D31*
X44450000Y-81280000D03*
%TD*%
D12*
%TO.C,C2*%
X58500000Y-92710000D03*
X63500000Y-92710000D03*
%TD*%
%TO.C,C1*%
X48180000Y-91440000D03*
X43180000Y-91440000D03*
%TD*%
M02*
