%TF.GenerationSoftware,KiCad,Pcbnew,(6.0.0)*%
%TF.CreationDate,2022-02-01T19:12:32-08:00*%
%TF.ProjectId,MakeItRain,4d616b65-4974-4526-9169-6e2e6b696361,rev?*%
%TF.SameCoordinates,Original*%
%TF.FileFunction,Legend,Top*%
%TF.FilePolarity,Positive*%
%FSLAX46Y46*%
G04 Gerber Fmt 4.6, Leading zero omitted, Abs format (unit mm)*
G04 Created by KiCad (PCBNEW (6.0.0)) date 2022-02-01 19:12:32*
%MOMM*%
%LPD*%
G01*
G04 APERTURE LIST*
%ADD10C,0.150000*%
%ADD11C,0.300000*%
%ADD12C,0.254000*%
%ADD13C,0.120000*%
%ADD14C,0.200000*%
%ADD15C,0.100000*%
G04 APERTURE END LIST*
D10*
X80010000Y-59690000D02*
X62230000Y-59690000D01*
X92710000Y-59690000D02*
X92710000Y-78740000D01*
X110490000Y-78740000D02*
X110490000Y-59690000D01*
X110490000Y-59690000D02*
X92710000Y-59690000D01*
X123190000Y-59690000D02*
X123190000Y-78740000D01*
X140970000Y-78740000D02*
X140970000Y-59690000D01*
X140970000Y-59690000D02*
X123190000Y-59690000D01*
X171450000Y-78740000D02*
X171450000Y-59690000D01*
X171450000Y-59690000D02*
X153670000Y-59690000D01*
X153670000Y-59690000D02*
X153670000Y-78740000D01*
X92710000Y-78740000D02*
X110490000Y-78740000D01*
X123190000Y-78740000D02*
X140970000Y-78740000D01*
X153670000Y-78740000D02*
X171450000Y-78740000D01*
X62230000Y-78740000D02*
X80010000Y-78740000D01*
X80010000Y-78740000D02*
X80010000Y-59690000D01*
X62230000Y-59690000D02*
X62230000Y-78740000D01*
X76652380Y-64158571D02*
X75652380Y-64158571D01*
X76652380Y-63682380D02*
X75652380Y-63682380D01*
X76652380Y-63110952D01*
X75652380Y-63110952D01*
X76652380Y-62634761D02*
X75652380Y-62634761D01*
X75652380Y-62253809D01*
X75700000Y-62158571D01*
X75747619Y-62110952D01*
X75842857Y-62063333D01*
X75985714Y-62063333D01*
X76080952Y-62110952D01*
X76128571Y-62158571D01*
X76176190Y-62253809D01*
X76176190Y-62634761D01*
X75652380Y-61634761D02*
X76461904Y-61634761D01*
X76557142Y-61587142D01*
X76604761Y-61539523D01*
X76652380Y-61444285D01*
X76652380Y-61253809D01*
X76604761Y-61158571D01*
X76557142Y-61110952D01*
X76461904Y-61063333D01*
X75652380Y-61063333D01*
X75652380Y-60730000D02*
X75652380Y-60158571D01*
X76652380Y-60444285D02*
X75652380Y-60444285D01*
X107132380Y-64158571D02*
X106132380Y-64158571D01*
X107132380Y-63682380D02*
X106132380Y-63682380D01*
X107132380Y-63110952D01*
X106132380Y-63110952D01*
X107132380Y-62634761D02*
X106132380Y-62634761D01*
X106132380Y-62253809D01*
X106180000Y-62158571D01*
X106227619Y-62110952D01*
X106322857Y-62063333D01*
X106465714Y-62063333D01*
X106560952Y-62110952D01*
X106608571Y-62158571D01*
X106656190Y-62253809D01*
X106656190Y-62634761D01*
X106132380Y-61634761D02*
X106941904Y-61634761D01*
X107037142Y-61587142D01*
X107084761Y-61539523D01*
X107132380Y-61444285D01*
X107132380Y-61253809D01*
X107084761Y-61158571D01*
X107037142Y-61110952D01*
X106941904Y-61063333D01*
X106132380Y-61063333D01*
X106132380Y-60730000D02*
X106132380Y-60158571D01*
X107132380Y-60444285D02*
X106132380Y-60444285D01*
X101052380Y-63230000D02*
X101052380Y-63039523D01*
X101100000Y-62944285D01*
X101195238Y-62849047D01*
X101385714Y-62801428D01*
X101719047Y-62801428D01*
X101909523Y-62849047D01*
X102004761Y-62944285D01*
X102052380Y-63039523D01*
X102052380Y-63230000D01*
X102004761Y-63325238D01*
X101909523Y-63420476D01*
X101719047Y-63468095D01*
X101385714Y-63468095D01*
X101195238Y-63420476D01*
X101100000Y-63325238D01*
X101052380Y-63230000D01*
X101052380Y-62372857D02*
X101861904Y-62372857D01*
X101957142Y-62325238D01*
X102004761Y-62277619D01*
X102052380Y-62182380D01*
X102052380Y-61991904D01*
X102004761Y-61896666D01*
X101957142Y-61849047D01*
X101861904Y-61801428D01*
X101052380Y-61801428D01*
X101052380Y-61468095D02*
X101052380Y-60896666D01*
X102052380Y-61182380D02*
X101052380Y-61182380D01*
X96020000Y-62991904D02*
X95972380Y-63087142D01*
X95972380Y-63230000D01*
X96020000Y-63372857D01*
X96115238Y-63468095D01*
X96210476Y-63515714D01*
X96400952Y-63563333D01*
X96543809Y-63563333D01*
X96734285Y-63515714D01*
X96829523Y-63468095D01*
X96924761Y-63372857D01*
X96972380Y-63230000D01*
X96972380Y-63134761D01*
X96924761Y-62991904D01*
X96877142Y-62944285D01*
X96543809Y-62944285D01*
X96543809Y-63134761D01*
X96972380Y-62515714D02*
X95972380Y-62515714D01*
X96972380Y-61944285D01*
X95972380Y-61944285D01*
X96972380Y-61468095D02*
X95972380Y-61468095D01*
X95972380Y-61230000D01*
X96020000Y-61087142D01*
X96115238Y-60991904D01*
X96210476Y-60944285D01*
X96400952Y-60896666D01*
X96543809Y-60896666D01*
X96734285Y-60944285D01*
X96829523Y-60991904D01*
X96924761Y-61087142D01*
X96972380Y-61230000D01*
X96972380Y-61468095D01*
X126500000Y-62991904D02*
X126452380Y-63087142D01*
X126452380Y-63230000D01*
X126500000Y-63372857D01*
X126595238Y-63468095D01*
X126690476Y-63515714D01*
X126880952Y-63563333D01*
X127023809Y-63563333D01*
X127214285Y-63515714D01*
X127309523Y-63468095D01*
X127404761Y-63372857D01*
X127452380Y-63230000D01*
X127452380Y-63134761D01*
X127404761Y-62991904D01*
X127357142Y-62944285D01*
X127023809Y-62944285D01*
X127023809Y-63134761D01*
X127452380Y-62515714D02*
X126452380Y-62515714D01*
X127452380Y-61944285D01*
X126452380Y-61944285D01*
X127452380Y-61468095D02*
X126452380Y-61468095D01*
X126452380Y-61230000D01*
X126500000Y-61087142D01*
X126595238Y-60991904D01*
X126690476Y-60944285D01*
X126880952Y-60896666D01*
X127023809Y-60896666D01*
X127214285Y-60944285D01*
X127309523Y-60991904D01*
X127404761Y-61087142D01*
X127452380Y-61230000D01*
X127452380Y-61468095D01*
X137612380Y-64158571D02*
X136612380Y-64158571D01*
X137612380Y-63682380D02*
X136612380Y-63682380D01*
X137612380Y-63110952D01*
X136612380Y-63110952D01*
X137612380Y-62634761D02*
X136612380Y-62634761D01*
X136612380Y-62253809D01*
X136660000Y-62158571D01*
X136707619Y-62110952D01*
X136802857Y-62063333D01*
X136945714Y-62063333D01*
X137040952Y-62110952D01*
X137088571Y-62158571D01*
X137136190Y-62253809D01*
X137136190Y-62634761D01*
X136612380Y-61634761D02*
X137421904Y-61634761D01*
X137517142Y-61587142D01*
X137564761Y-61539523D01*
X137612380Y-61444285D01*
X137612380Y-61253809D01*
X137564761Y-61158571D01*
X137517142Y-61110952D01*
X137421904Y-61063333D01*
X136612380Y-61063333D01*
X136612380Y-60730000D02*
X136612380Y-60158571D01*
X137612380Y-60444285D02*
X136612380Y-60444285D01*
X131532380Y-63230000D02*
X131532380Y-63039523D01*
X131580000Y-62944285D01*
X131675238Y-62849047D01*
X131865714Y-62801428D01*
X132199047Y-62801428D01*
X132389523Y-62849047D01*
X132484761Y-62944285D01*
X132532380Y-63039523D01*
X132532380Y-63230000D01*
X132484761Y-63325238D01*
X132389523Y-63420476D01*
X132199047Y-63468095D01*
X131865714Y-63468095D01*
X131675238Y-63420476D01*
X131580000Y-63325238D01*
X131532380Y-63230000D01*
X131532380Y-62372857D02*
X132341904Y-62372857D01*
X132437142Y-62325238D01*
X132484761Y-62277619D01*
X132532380Y-62182380D01*
X132532380Y-61991904D01*
X132484761Y-61896666D01*
X132437142Y-61849047D01*
X132341904Y-61801428D01*
X131532380Y-61801428D01*
X131532380Y-61468095D02*
X131532380Y-60896666D01*
X132532380Y-61182380D02*
X131532380Y-61182380D01*
X156980000Y-62991904D02*
X156932380Y-63087142D01*
X156932380Y-63230000D01*
X156980000Y-63372857D01*
X157075238Y-63468095D01*
X157170476Y-63515714D01*
X157360952Y-63563333D01*
X157503809Y-63563333D01*
X157694285Y-63515714D01*
X157789523Y-63468095D01*
X157884761Y-63372857D01*
X157932380Y-63230000D01*
X157932380Y-63134761D01*
X157884761Y-62991904D01*
X157837142Y-62944285D01*
X157503809Y-62944285D01*
X157503809Y-63134761D01*
X157932380Y-62515714D02*
X156932380Y-62515714D01*
X157932380Y-61944285D01*
X156932380Y-61944285D01*
X157932380Y-61468095D02*
X156932380Y-61468095D01*
X156932380Y-61230000D01*
X156980000Y-61087142D01*
X157075238Y-60991904D01*
X157170476Y-60944285D01*
X157360952Y-60896666D01*
X157503809Y-60896666D01*
X157694285Y-60944285D01*
X157789523Y-60991904D01*
X157884761Y-61087142D01*
X157932380Y-61230000D01*
X157932380Y-61468095D01*
X162012380Y-63230000D02*
X162012380Y-63039523D01*
X162060000Y-62944285D01*
X162155238Y-62849047D01*
X162345714Y-62801428D01*
X162679047Y-62801428D01*
X162869523Y-62849047D01*
X162964761Y-62944285D01*
X163012380Y-63039523D01*
X163012380Y-63230000D01*
X162964761Y-63325238D01*
X162869523Y-63420476D01*
X162679047Y-63468095D01*
X162345714Y-63468095D01*
X162155238Y-63420476D01*
X162060000Y-63325238D01*
X162012380Y-63230000D01*
X162012380Y-62372857D02*
X162821904Y-62372857D01*
X162917142Y-62325238D01*
X162964761Y-62277619D01*
X163012380Y-62182380D01*
X163012380Y-61991904D01*
X162964761Y-61896666D01*
X162917142Y-61849047D01*
X162821904Y-61801428D01*
X162012380Y-61801428D01*
X162012380Y-61468095D02*
X162012380Y-60896666D01*
X163012380Y-61182380D02*
X162012380Y-61182380D01*
X168092380Y-64158571D02*
X167092380Y-64158571D01*
X168092380Y-63682380D02*
X167092380Y-63682380D01*
X168092380Y-63110952D01*
X167092380Y-63110952D01*
X168092380Y-62634761D02*
X167092380Y-62634761D01*
X167092380Y-62253809D01*
X167140000Y-62158571D01*
X167187619Y-62110952D01*
X167282857Y-62063333D01*
X167425714Y-62063333D01*
X167520952Y-62110952D01*
X167568571Y-62158571D01*
X167616190Y-62253809D01*
X167616190Y-62634761D01*
X167092380Y-61634761D02*
X167901904Y-61634761D01*
X167997142Y-61587142D01*
X168044761Y-61539523D01*
X168092380Y-61444285D01*
X168092380Y-61253809D01*
X168044761Y-61158571D01*
X167997142Y-61110952D01*
X167901904Y-61063333D01*
X167092380Y-61063333D01*
X167092380Y-60730000D02*
X167092380Y-60158571D01*
X168092380Y-60444285D02*
X167092380Y-60444285D01*
D11*
X96474642Y-57598571D02*
X97744642Y-57598571D01*
X96474642Y-59098571D01*
X97744642Y-59098571D01*
X98833214Y-57598571D02*
X99196071Y-57598571D01*
X99377500Y-57670000D01*
X99558928Y-57812857D01*
X99649642Y-58098571D01*
X99649642Y-58598571D01*
X99558928Y-58884285D01*
X99377500Y-59027142D01*
X99196071Y-59098571D01*
X98833214Y-59098571D01*
X98651785Y-59027142D01*
X98470357Y-58884285D01*
X98379642Y-58598571D01*
X98379642Y-58098571D01*
X98470357Y-57812857D01*
X98651785Y-57670000D01*
X98833214Y-57598571D01*
X100466071Y-59098571D02*
X100466071Y-57598571D01*
X101554642Y-59098571D01*
X101554642Y-57598571D01*
X102461785Y-58312857D02*
X103096785Y-58312857D01*
X103368928Y-59098571D02*
X102461785Y-59098571D01*
X102461785Y-57598571D01*
X103368928Y-57598571D01*
X105546071Y-57741428D02*
X105636785Y-57670000D01*
X105818214Y-57598571D01*
X106271785Y-57598571D01*
X106453214Y-57670000D01*
X106543928Y-57741428D01*
X106634642Y-57884285D01*
X106634642Y-58027142D01*
X106543928Y-58241428D01*
X105455357Y-59098571D01*
X106634642Y-59098571D01*
X126954642Y-57598571D02*
X128224642Y-57598571D01*
X126954642Y-59098571D01*
X128224642Y-59098571D01*
X129313214Y-57598571D02*
X129676071Y-57598571D01*
X129857500Y-57670000D01*
X130038928Y-57812857D01*
X130129642Y-58098571D01*
X130129642Y-58598571D01*
X130038928Y-58884285D01*
X129857500Y-59027142D01*
X129676071Y-59098571D01*
X129313214Y-59098571D01*
X129131785Y-59027142D01*
X128950357Y-58884285D01*
X128859642Y-58598571D01*
X128859642Y-58098571D01*
X128950357Y-57812857D01*
X129131785Y-57670000D01*
X129313214Y-57598571D01*
X130946071Y-59098571D02*
X130946071Y-57598571D01*
X132034642Y-59098571D01*
X132034642Y-57598571D01*
X132941785Y-58312857D02*
X133576785Y-58312857D01*
X133848928Y-59098571D02*
X132941785Y-59098571D01*
X132941785Y-57598571D01*
X133848928Y-57598571D01*
X135935357Y-57598571D02*
X137114642Y-57598571D01*
X136479642Y-58170000D01*
X136751785Y-58170000D01*
X136933214Y-58241428D01*
X137023928Y-58312857D01*
X137114642Y-58455714D01*
X137114642Y-58812857D01*
X137023928Y-58955714D01*
X136933214Y-59027142D01*
X136751785Y-59098571D01*
X136207500Y-59098571D01*
X136026071Y-59027142D01*
X135935357Y-58955714D01*
X157434642Y-57598571D02*
X158704642Y-57598571D01*
X157434642Y-59098571D01*
X158704642Y-59098571D01*
X159793214Y-57598571D02*
X160156071Y-57598571D01*
X160337500Y-57670000D01*
X160518928Y-57812857D01*
X160609642Y-58098571D01*
X160609642Y-58598571D01*
X160518928Y-58884285D01*
X160337500Y-59027142D01*
X160156071Y-59098571D01*
X159793214Y-59098571D01*
X159611785Y-59027142D01*
X159430357Y-58884285D01*
X159339642Y-58598571D01*
X159339642Y-58098571D01*
X159430357Y-57812857D01*
X159611785Y-57670000D01*
X159793214Y-57598571D01*
X161426071Y-59098571D02*
X161426071Y-57598571D01*
X162514642Y-59098571D01*
X162514642Y-57598571D01*
X163421785Y-58312857D02*
X164056785Y-58312857D01*
X164328928Y-59098571D02*
X163421785Y-59098571D01*
X163421785Y-57598571D01*
X164328928Y-57598571D01*
X167413214Y-58098571D02*
X167413214Y-59098571D01*
X166959642Y-57527142D02*
X166506071Y-58598571D01*
X167685357Y-58598571D01*
X189678571Y-84692857D02*
X191178571Y-84192857D01*
X189678571Y-83692857D01*
X191107142Y-83264285D02*
X191178571Y-83050000D01*
X191178571Y-82692857D01*
X191107142Y-82550000D01*
X191035714Y-82478571D01*
X190892857Y-82407142D01*
X190750000Y-82407142D01*
X190607142Y-82478571D01*
X190535714Y-82550000D01*
X190464285Y-82692857D01*
X190392857Y-82978571D01*
X190321428Y-83121428D01*
X190250000Y-83192857D01*
X190107142Y-83264285D01*
X189964285Y-83264285D01*
X189821428Y-83192857D01*
X189750000Y-83121428D01*
X189678571Y-82978571D01*
X189678571Y-82621428D01*
X189750000Y-82407142D01*
X190607142Y-81764285D02*
X190607142Y-80621428D01*
X191178571Y-81192857D02*
X190035714Y-81192857D01*
D10*
X180094663Y-103993527D02*
X179618472Y-103993527D01*
X179570853Y-104469718D01*
X179618472Y-104422099D01*
X179713710Y-104374480D01*
X179951806Y-104374480D01*
X180047044Y-104422099D01*
X180094663Y-104469718D01*
X180142282Y-104564956D01*
X180142282Y-104803051D01*
X180094663Y-104898289D01*
X180047044Y-104945908D01*
X179951806Y-104993527D01*
X179713710Y-104993527D01*
X179618472Y-104945908D01*
X179570853Y-104898289D01*
X180523234Y-104707813D02*
X180999425Y-104707813D01*
X180427996Y-104993527D02*
X180761329Y-103993527D01*
X181094663Y-104993527D01*
X181427996Y-104993527D02*
X181427996Y-103993527D01*
X181761329Y-104707813D01*
X182094663Y-103993527D01*
X182094663Y-104993527D01*
X182570853Y-104993527D02*
X182570853Y-103993527D01*
X182951806Y-103993527D01*
X183047044Y-104041147D01*
X183094663Y-104088766D01*
X183142282Y-104184004D01*
X183142282Y-104326861D01*
X183094663Y-104422099D01*
X183047044Y-104469718D01*
X182951806Y-104517337D01*
X182570853Y-104517337D01*
X65961904Y-117562380D02*
X65961904Y-118371904D01*
X66009523Y-118467142D01*
X66057142Y-118514761D01*
X66152380Y-118562380D01*
X66342857Y-118562380D01*
X66438095Y-118514761D01*
X66485714Y-118467142D01*
X66533333Y-118371904D01*
X66533333Y-117562380D01*
X66961904Y-118514761D02*
X67057142Y-118562380D01*
X67247619Y-118562380D01*
X67342857Y-118514761D01*
X67390476Y-118419523D01*
X67390476Y-118371904D01*
X67342857Y-118276666D01*
X67247619Y-118229047D01*
X67104761Y-118229047D01*
X67009523Y-118181428D01*
X66961904Y-118086190D01*
X66961904Y-118038571D01*
X67009523Y-117943333D01*
X67104761Y-117895714D01*
X67247619Y-117895714D01*
X67342857Y-117943333D01*
X68200000Y-118514761D02*
X68104761Y-118562380D01*
X67914285Y-118562380D01*
X67819047Y-118514761D01*
X67771428Y-118419523D01*
X67771428Y-118038571D01*
X67819047Y-117943333D01*
X67914285Y-117895714D01*
X68104761Y-117895714D01*
X68200000Y-117943333D01*
X68247619Y-118038571D01*
X68247619Y-118133809D01*
X67771428Y-118229047D01*
X69438095Y-118038571D02*
X69771428Y-118038571D01*
X69914285Y-118562380D02*
X69438095Y-118562380D01*
X69438095Y-117562380D01*
X69914285Y-117562380D01*
X70295238Y-118514761D02*
X70438095Y-118562380D01*
X70676190Y-118562380D01*
X70771428Y-118514761D01*
X70819047Y-118467142D01*
X70866666Y-118371904D01*
X70866666Y-118276666D01*
X70819047Y-118181428D01*
X70771428Y-118133809D01*
X70676190Y-118086190D01*
X70485714Y-118038571D01*
X70390476Y-117990952D01*
X70342857Y-117943333D01*
X70295238Y-117848095D01*
X70295238Y-117752857D01*
X70342857Y-117657619D01*
X70390476Y-117610000D01*
X70485714Y-117562380D01*
X70723809Y-117562380D01*
X70866666Y-117610000D01*
X71295238Y-118562380D02*
X71295238Y-117562380D01*
X71676190Y-117562380D01*
X71771428Y-117610000D01*
X71819047Y-117657619D01*
X71866666Y-117752857D01*
X71866666Y-117895714D01*
X71819047Y-117990952D01*
X71771428Y-118038571D01*
X71676190Y-118086190D01*
X71295238Y-118086190D01*
X72200000Y-117562380D02*
X72819047Y-117562380D01*
X72485714Y-117943333D01*
X72628571Y-117943333D01*
X72723809Y-117990952D01*
X72771428Y-118038571D01*
X72819047Y-118133809D01*
X72819047Y-118371904D01*
X72771428Y-118467142D01*
X72723809Y-118514761D01*
X72628571Y-118562380D01*
X72342857Y-118562380D01*
X72247619Y-118514761D01*
X72200000Y-118467142D01*
X73200000Y-117657619D02*
X73247619Y-117610000D01*
X73342857Y-117562380D01*
X73580952Y-117562380D01*
X73676190Y-117610000D01*
X73723809Y-117657619D01*
X73771428Y-117752857D01*
X73771428Y-117848095D01*
X73723809Y-117990952D01*
X73152380Y-118562380D01*
X73771428Y-118562380D01*
X74200000Y-118181428D02*
X74961904Y-118181428D01*
X75438095Y-118562380D02*
X75438095Y-117562380D01*
X75676190Y-117562380D01*
X75819047Y-117610000D01*
X75914285Y-117705238D01*
X75961904Y-117800476D01*
X76009523Y-117990952D01*
X76009523Y-118133809D01*
X75961904Y-118324285D01*
X75914285Y-118419523D01*
X75819047Y-118514761D01*
X75676190Y-118562380D01*
X75438095Y-118562380D01*
X76819047Y-118514761D02*
X76723809Y-118562380D01*
X76533333Y-118562380D01*
X76438095Y-118514761D01*
X76390476Y-118419523D01*
X76390476Y-118038571D01*
X76438095Y-117943333D01*
X76533333Y-117895714D01*
X76723809Y-117895714D01*
X76819047Y-117943333D01*
X76866666Y-118038571D01*
X76866666Y-118133809D01*
X76390476Y-118229047D01*
X77200000Y-117895714D02*
X77438095Y-118562380D01*
X77676190Y-117895714D01*
X78057142Y-118562380D02*
X78057142Y-117562380D01*
X78628571Y-118562380D02*
X78200000Y-117990952D01*
X78628571Y-117562380D02*
X78057142Y-118133809D01*
X79057142Y-118562380D02*
X79057142Y-117895714D01*
X79057142Y-117562380D02*
X79009523Y-117610000D01*
X79057142Y-117657619D01*
X79104761Y-117610000D01*
X79057142Y-117562380D01*
X79057142Y-117657619D01*
X79390476Y-117895714D02*
X79771428Y-117895714D01*
X79533333Y-117562380D02*
X79533333Y-118419523D01*
X79580952Y-118514761D01*
X79676190Y-118562380D01*
X79771428Y-118562380D01*
X80676190Y-118467142D02*
X80628571Y-118514761D01*
X80485714Y-118562380D01*
X80390476Y-118562380D01*
X80247619Y-118514761D01*
X80152380Y-118419523D01*
X80104761Y-118324285D01*
X80057142Y-118133809D01*
X80057142Y-117990952D01*
X80104761Y-117800476D01*
X80152380Y-117705238D01*
X80247619Y-117610000D01*
X80390476Y-117562380D01*
X80485714Y-117562380D01*
X80628571Y-117610000D01*
X80676190Y-117657619D01*
X81866666Y-118562380D02*
X81866666Y-117562380D01*
X81866666Y-117943333D02*
X81961904Y-117895714D01*
X82152380Y-117895714D01*
X82247619Y-117943333D01*
X82295238Y-117990952D01*
X82342857Y-118086190D01*
X82342857Y-118371904D01*
X82295238Y-118467142D01*
X82247619Y-118514761D01*
X82152380Y-118562380D01*
X81961904Y-118562380D01*
X81866666Y-118514761D01*
X82914285Y-118562380D02*
X82819047Y-118514761D01*
X82771428Y-118467142D01*
X82723809Y-118371904D01*
X82723809Y-118086190D01*
X82771428Y-117990952D01*
X82819047Y-117943333D01*
X82914285Y-117895714D01*
X83057142Y-117895714D01*
X83152380Y-117943333D01*
X83200000Y-117990952D01*
X83247619Y-118086190D01*
X83247619Y-118371904D01*
X83200000Y-118467142D01*
X83152380Y-118514761D01*
X83057142Y-118562380D01*
X82914285Y-118562380D01*
X84104761Y-118562380D02*
X84104761Y-118038571D01*
X84057142Y-117943333D01*
X83961904Y-117895714D01*
X83771428Y-117895714D01*
X83676190Y-117943333D01*
X84104761Y-118514761D02*
X84009523Y-118562380D01*
X83771428Y-118562380D01*
X83676190Y-118514761D01*
X83628571Y-118419523D01*
X83628571Y-118324285D01*
X83676190Y-118229047D01*
X83771428Y-118181428D01*
X84009523Y-118181428D01*
X84104761Y-118133809D01*
X84580952Y-118562380D02*
X84580952Y-117895714D01*
X84580952Y-118086190D02*
X84628571Y-117990952D01*
X84676190Y-117943333D01*
X84771428Y-117895714D01*
X84866666Y-117895714D01*
X85628571Y-118562380D02*
X85628571Y-117562380D01*
X85628571Y-118514761D02*
X85533333Y-118562380D01*
X85342857Y-118562380D01*
X85247619Y-118514761D01*
X85200000Y-118467142D01*
X85152380Y-118371904D01*
X85152380Y-118086190D01*
X85200000Y-117990952D01*
X85247619Y-117943333D01*
X85342857Y-117895714D01*
X85533333Y-117895714D01*
X85628571Y-117943333D01*
X86057142Y-118514761D02*
X86152380Y-118562380D01*
X86342857Y-118562380D01*
X86438095Y-118514761D01*
X86485714Y-118419523D01*
X86485714Y-118371904D01*
X86438095Y-118276666D01*
X86342857Y-118229047D01*
X86199999Y-118229047D01*
X86104761Y-118181428D01*
X86057142Y-118086190D01*
X86057142Y-118038571D01*
X86104761Y-117943333D01*
X86199999Y-117895714D01*
X86342857Y-117895714D01*
X86438095Y-117943333D01*
D12*
X89261761Y-126428125D02*
X88536046Y-126428125D01*
X88898903Y-126428125D02*
X88898903Y-125158125D01*
X88777951Y-125339554D01*
X88656999Y-125460506D01*
X88536046Y-125520982D01*
X89745570Y-125279078D02*
X89806046Y-125218602D01*
X89926999Y-125158125D01*
X90229380Y-125158125D01*
X90350332Y-125218602D01*
X90410808Y-125279078D01*
X90471284Y-125400030D01*
X90471284Y-125520982D01*
X90410808Y-125702411D01*
X89685094Y-126428125D01*
X90471284Y-126428125D01*
X91922713Y-125097649D02*
X90834141Y-126730506D01*
X92285570Y-125279078D02*
X92346046Y-125218602D01*
X92466999Y-125158125D01*
X92769380Y-125158125D01*
X92890332Y-125218602D01*
X92950808Y-125279078D01*
X93011284Y-125400030D01*
X93011284Y-125520982D01*
X92950808Y-125702411D01*
X92225094Y-126428125D01*
X93011284Y-126428125D01*
X94099856Y-125581459D02*
X94099856Y-126428125D01*
X93797475Y-125097649D02*
X93495094Y-126004792D01*
X94281284Y-126004792D01*
X95551284Y-125158125D02*
X95974618Y-126428125D01*
X96397951Y-125158125D01*
X96821284Y-126428125D02*
X96821284Y-125158125D01*
X97123665Y-125158125D01*
X97305094Y-125218602D01*
X97426046Y-125339554D01*
X97486522Y-125460506D01*
X97546999Y-125702411D01*
X97546999Y-125883840D01*
X97486522Y-126125744D01*
X97426046Y-126246697D01*
X97305094Y-126367649D01*
X97123665Y-126428125D01*
X96821284Y-126428125D01*
X98816999Y-126307173D02*
X98756522Y-126367649D01*
X98575094Y-126428125D01*
X98454141Y-126428125D01*
X98272713Y-126367649D01*
X98151761Y-126246697D01*
X98091284Y-126125744D01*
X98030808Y-125883840D01*
X98030808Y-125702411D01*
X98091284Y-125460506D01*
X98151761Y-125339554D01*
X98272713Y-125218602D01*
X98454141Y-125158125D01*
X98575094Y-125158125D01*
X98756522Y-125218602D01*
X98816999Y-125279078D01*
X100268427Y-126367649D02*
X100449856Y-126428125D01*
X100752237Y-126428125D01*
X100873189Y-126367649D01*
X100933665Y-126307173D01*
X100994141Y-126186221D01*
X100994141Y-126065268D01*
X100933665Y-125944316D01*
X100873189Y-125883840D01*
X100752237Y-125823363D01*
X100510332Y-125762887D01*
X100389380Y-125702411D01*
X100328903Y-125641935D01*
X100268427Y-125520982D01*
X100268427Y-125400030D01*
X100328903Y-125279078D01*
X100389380Y-125218602D01*
X100510332Y-125158125D01*
X100812713Y-125158125D01*
X100994141Y-125218602D01*
X101417475Y-125581459D02*
X101719856Y-126428125D01*
X102022237Y-125581459D02*
X101719856Y-126428125D01*
X101598903Y-126730506D01*
X101538427Y-126790982D01*
X101417475Y-126851459D01*
X102445570Y-126367649D02*
X102566522Y-126428125D01*
X102808427Y-126428125D01*
X102929380Y-126367649D01*
X102989856Y-126246697D01*
X102989856Y-126186221D01*
X102929380Y-126065268D01*
X102808427Y-126004792D01*
X102626999Y-126004792D01*
X102506046Y-125944316D01*
X102445570Y-125823363D01*
X102445570Y-125762887D01*
X102506046Y-125641935D01*
X102626999Y-125581459D01*
X102808427Y-125581459D01*
X102929380Y-125641935D01*
X103352713Y-125581459D02*
X103836522Y-125581459D01*
X103534141Y-125158125D02*
X103534141Y-126246697D01*
X103594618Y-126367649D01*
X103715570Y-126428125D01*
X103836522Y-126428125D01*
X104743665Y-126367649D02*
X104622713Y-126428125D01*
X104380808Y-126428125D01*
X104259856Y-126367649D01*
X104199380Y-126246697D01*
X104199380Y-125762887D01*
X104259856Y-125641935D01*
X104380808Y-125581459D01*
X104622713Y-125581459D01*
X104743665Y-125641935D01*
X104804141Y-125762887D01*
X104804141Y-125883840D01*
X104199380Y-126004792D01*
X105348427Y-126428125D02*
X105348427Y-125581459D01*
X105348427Y-125702411D02*
X105408903Y-125641935D01*
X105529856Y-125581459D01*
X105711284Y-125581459D01*
X105832237Y-125641935D01*
X105892713Y-125762887D01*
X105892713Y-126428125D01*
X105892713Y-125762887D02*
X105953189Y-125641935D01*
X106074141Y-125581459D01*
X106255570Y-125581459D01*
X106376522Y-125641935D01*
X106436999Y-125762887D01*
X106436999Y-126428125D01*
D11*
X130658430Y-118918396D02*
X130658430Y-117418396D01*
X131301287Y-118918396D02*
X131301287Y-118132682D01*
X131229858Y-117989825D01*
X131087001Y-117918396D01*
X130872715Y-117918396D01*
X130729858Y-117989825D01*
X130658430Y-118061253D01*
X131801287Y-117918396D02*
X132372715Y-117918396D01*
X132015573Y-117418396D02*
X132015573Y-118704110D01*
X132087001Y-118846967D01*
X132229858Y-118918396D01*
X132372715Y-118918396D01*
X132658430Y-117918396D02*
X133229858Y-117918396D01*
X132872715Y-117418396D02*
X132872715Y-118704110D01*
X132944144Y-118846967D01*
X133087001Y-118918396D01*
X133229858Y-118918396D01*
X133729858Y-117918396D02*
X133729858Y-119418396D01*
X133729858Y-117989825D02*
X133872715Y-117918396D01*
X134158430Y-117918396D01*
X134301287Y-117989825D01*
X134372715Y-118061253D01*
X134444144Y-118204110D01*
X134444144Y-118632682D01*
X134372715Y-118775539D01*
X134301287Y-118846967D01*
X134158430Y-118918396D01*
X133872715Y-118918396D01*
X133729858Y-118846967D01*
X135015573Y-118846967D02*
X135158430Y-118918396D01*
X135444144Y-118918396D01*
X135587001Y-118846967D01*
X135658430Y-118704110D01*
X135658430Y-118632682D01*
X135587001Y-118489825D01*
X135444144Y-118418396D01*
X135229858Y-118418396D01*
X135087001Y-118346967D01*
X135015573Y-118204110D01*
X135015573Y-118132682D01*
X135087001Y-117989825D01*
X135229858Y-117918396D01*
X135444144Y-117918396D01*
X135587001Y-117989825D01*
X136301287Y-118775539D02*
X136372715Y-118846967D01*
X136301287Y-118918396D01*
X136229858Y-118846967D01*
X136301287Y-118775539D01*
X136301287Y-118918396D01*
X136301287Y-117989825D02*
X136372715Y-118061253D01*
X136301287Y-118132682D01*
X136229858Y-118061253D01*
X136301287Y-117989825D01*
X136301287Y-118132682D01*
X138087001Y-117346967D02*
X136801287Y-119275539D01*
X139658430Y-117346967D02*
X138372715Y-119275539D01*
X140801287Y-117918396D02*
X140801287Y-119132682D01*
X140729858Y-119275539D01*
X140658430Y-119346967D01*
X140515573Y-119418396D01*
X140301287Y-119418396D01*
X140158430Y-119346967D01*
X140801287Y-118846967D02*
X140658430Y-118918396D01*
X140372715Y-118918396D01*
X140229858Y-118846967D01*
X140158430Y-118775539D01*
X140087001Y-118632682D01*
X140087001Y-118204110D01*
X140158430Y-118061253D01*
X140229858Y-117989825D01*
X140372715Y-117918396D01*
X140658430Y-117918396D01*
X140801287Y-117989825D01*
X141515573Y-118918396D02*
X141515573Y-117918396D01*
X141515573Y-117418396D02*
X141444144Y-117489825D01*
X141515573Y-117561253D01*
X141587001Y-117489825D01*
X141515573Y-117418396D01*
X141515573Y-117561253D01*
X142015573Y-117918396D02*
X142587001Y-117918396D01*
X142229858Y-117418396D02*
X142229858Y-118704110D01*
X142301287Y-118846967D01*
X142444144Y-118918396D01*
X142587001Y-118918396D01*
X143087001Y-118918396D02*
X143087001Y-117418396D01*
X143729858Y-118918396D02*
X143729858Y-118132682D01*
X143658430Y-117989825D01*
X143515573Y-117918396D01*
X143301287Y-117918396D01*
X143158430Y-117989825D01*
X143087001Y-118061253D01*
X145087001Y-117918396D02*
X145087001Y-118918396D01*
X144444144Y-117918396D02*
X144444144Y-118704110D01*
X144515573Y-118846967D01*
X144658430Y-118918396D01*
X144872715Y-118918396D01*
X145015573Y-118846967D01*
X145087001Y-118775539D01*
X145801287Y-118918396D02*
X145801287Y-117418396D01*
X145801287Y-117989825D02*
X145944144Y-117918396D01*
X146229858Y-117918396D01*
X146372715Y-117989825D01*
X146444144Y-118061253D01*
X146515573Y-118204110D01*
X146515573Y-118632682D01*
X146444144Y-118775539D01*
X146372715Y-118846967D01*
X146229858Y-118918396D01*
X145944144Y-118918396D01*
X145801287Y-118846967D01*
X147158430Y-118775539D02*
X147229858Y-118846967D01*
X147158430Y-118918396D01*
X147087001Y-118846967D01*
X147158430Y-118775539D01*
X147158430Y-118918396D01*
X148515573Y-118846967D02*
X148372715Y-118918396D01*
X148087001Y-118918396D01*
X147944144Y-118846967D01*
X147872715Y-118775539D01*
X147801287Y-118632682D01*
X147801287Y-118204110D01*
X147872715Y-118061253D01*
X147944144Y-117989825D01*
X148087001Y-117918396D01*
X148372715Y-117918396D01*
X148515573Y-117989825D01*
X149372715Y-118918396D02*
X149229858Y-118846967D01*
X149158430Y-118775539D01*
X149087001Y-118632682D01*
X149087001Y-118204110D01*
X149158430Y-118061253D01*
X149229858Y-117989825D01*
X149372715Y-117918396D01*
X149587001Y-117918396D01*
X149729858Y-117989825D01*
X149801287Y-118061253D01*
X149872715Y-118204110D01*
X149872715Y-118632682D01*
X149801287Y-118775539D01*
X149729858Y-118846967D01*
X149587001Y-118918396D01*
X149372715Y-118918396D01*
X150515573Y-118918396D02*
X150515573Y-117918396D01*
X150515573Y-118061253D02*
X150587001Y-117989825D01*
X150729858Y-117918396D01*
X150944144Y-117918396D01*
X151087001Y-117989825D01*
X151158430Y-118132682D01*
X151158430Y-118918396D01*
X151158430Y-118132682D02*
X151229858Y-117989825D01*
X151372715Y-117918396D01*
X151587001Y-117918396D01*
X151729858Y-117989825D01*
X151801287Y-118132682D01*
X151801287Y-118918396D01*
X153587001Y-117346967D02*
X152301287Y-119275539D01*
X153872715Y-117418396D02*
X154729858Y-117418396D01*
X154301287Y-118918396D02*
X154301287Y-117418396D01*
X155658430Y-117418396D02*
X155658430Y-118489825D01*
X155587001Y-118704110D01*
X155444144Y-118846967D01*
X155229858Y-118918396D01*
X155087001Y-118918396D01*
X157087001Y-118918396D02*
X156372715Y-118918396D01*
X156372715Y-117418396D01*
X157372715Y-117418396D02*
X158229858Y-117418396D01*
X157801287Y-118918396D02*
X157801287Y-117418396D01*
X158729858Y-118918396D02*
X158729858Y-117418396D01*
X159229858Y-118489825D01*
X159729858Y-117418396D01*
X159729858Y-118918396D01*
X161515573Y-117346967D02*
X160229858Y-119275539D01*
X162015573Y-118918396D02*
X162015573Y-117418396D01*
X162515573Y-118489825D01*
X163015573Y-117418396D01*
X163015573Y-118918396D01*
X164372715Y-118918396D02*
X164372715Y-118132682D01*
X164301287Y-117989825D01*
X164158430Y-117918396D01*
X163872715Y-117918396D01*
X163729858Y-117989825D01*
X164372715Y-118846967D02*
X164229858Y-118918396D01*
X163872715Y-118918396D01*
X163729858Y-118846967D01*
X163658430Y-118704110D01*
X163658430Y-118561253D01*
X163729858Y-118418396D01*
X163872715Y-118346967D01*
X164229858Y-118346967D01*
X164372715Y-118275539D01*
X165087001Y-118918396D02*
X165087001Y-117418396D01*
X165229858Y-118346967D02*
X165658430Y-118918396D01*
X165658430Y-117918396D02*
X165087001Y-118489825D01*
X166872715Y-118846967D02*
X166729858Y-118918396D01*
X166444144Y-118918396D01*
X166301287Y-118846967D01*
X166229858Y-118704110D01*
X166229858Y-118132682D01*
X166301287Y-117989825D01*
X166444144Y-117918396D01*
X166729858Y-117918396D01*
X166872715Y-117989825D01*
X166944144Y-118132682D01*
X166944144Y-118275539D01*
X166229858Y-118418396D01*
X167587001Y-118918396D02*
X167587001Y-117418396D01*
X168087001Y-117918396D02*
X168658430Y-117918396D01*
X168301287Y-117418396D02*
X168301287Y-118704110D01*
X168372715Y-118846967D01*
X168515573Y-118918396D01*
X168658430Y-118918396D01*
X170015573Y-118918396D02*
X169515573Y-118204110D01*
X169158430Y-118918396D02*
X169158430Y-117418396D01*
X169729858Y-117418396D01*
X169872715Y-117489825D01*
X169944144Y-117561253D01*
X170015573Y-117704110D01*
X170015573Y-117918396D01*
X169944144Y-118061253D01*
X169872715Y-118132682D01*
X169729858Y-118204110D01*
X169158430Y-118204110D01*
X171301287Y-118918396D02*
X171301287Y-118132682D01*
X171229858Y-117989825D01*
X171087001Y-117918396D01*
X170801287Y-117918396D01*
X170658430Y-117989825D01*
X171301287Y-118846967D02*
X171158430Y-118918396D01*
X170801287Y-118918396D01*
X170658430Y-118846967D01*
X170587001Y-118704110D01*
X170587001Y-118561253D01*
X170658430Y-118418396D01*
X170801287Y-118346967D01*
X171158430Y-118346967D01*
X171301287Y-118275539D01*
X172015573Y-118918396D02*
X172015573Y-117918396D01*
X172015573Y-117418396D02*
X171944144Y-117489825D01*
X172015573Y-117561253D01*
X172087001Y-117489825D01*
X172015573Y-117418396D01*
X172015573Y-117561253D01*
X172729858Y-117918396D02*
X172729858Y-118918396D01*
X172729858Y-118061253D02*
X172801287Y-117989825D01*
X172944144Y-117918396D01*
X173158430Y-117918396D01*
X173301287Y-117989825D01*
X173372715Y-118132682D01*
X173372715Y-118918396D01*
X189750000Y-78612857D02*
X189678571Y-78755714D01*
X189678571Y-78970000D01*
X189750000Y-79184285D01*
X189892857Y-79327142D01*
X190035714Y-79398571D01*
X190321428Y-79470000D01*
X190535714Y-79470000D01*
X190821428Y-79398571D01*
X190964285Y-79327142D01*
X191107142Y-79184285D01*
X191178571Y-78970000D01*
X191178571Y-78827142D01*
X191107142Y-78612857D01*
X191035714Y-78541428D01*
X190535714Y-78541428D01*
X190535714Y-78827142D01*
X191178571Y-77898571D02*
X189678571Y-77898571D01*
X191178571Y-77041428D01*
X189678571Y-77041428D01*
X191178571Y-76327142D02*
X189678571Y-76327142D01*
X189678571Y-75970000D01*
X189750000Y-75755714D01*
X189892857Y-75612857D01*
X190035714Y-75541428D01*
X190321428Y-75470000D01*
X190535714Y-75470000D01*
X190821428Y-75541428D01*
X190964285Y-75612857D01*
X191107142Y-75755714D01*
X191178571Y-75970000D01*
X191178571Y-76327142D01*
X49610500Y-79469854D02*
X49467643Y-79398425D01*
X49253358Y-79398425D01*
X49039072Y-79469854D01*
X48896215Y-79612711D01*
X48824786Y-79755568D01*
X48753358Y-80041282D01*
X48753358Y-80255568D01*
X48824786Y-80541282D01*
X48896215Y-80684139D01*
X49039072Y-80826996D01*
X49253358Y-80898425D01*
X49396215Y-80898425D01*
X49610500Y-80826996D01*
X49681929Y-80755568D01*
X49681929Y-80255568D01*
X49396215Y-80255568D01*
X50324786Y-80898425D02*
X50324786Y-79398425D01*
X51181929Y-80898425D01*
X51181929Y-79398425D01*
X51896215Y-80898425D02*
X51896215Y-79398425D01*
X52253358Y-79398425D01*
X52467643Y-79469854D01*
X52610500Y-79612711D01*
X52681929Y-79755568D01*
X52753358Y-80041282D01*
X52753358Y-80255568D01*
X52681929Y-80541282D01*
X52610500Y-80684139D01*
X52467643Y-80826996D01*
X52253358Y-80898425D01*
X51896215Y-80898425D01*
D10*
X136021707Y-126009813D02*
X136355040Y-126009813D01*
X136497897Y-126533622D02*
X136021707Y-126533622D01*
X136021707Y-125533622D01*
X136497897Y-125533622D01*
X136831231Y-126533622D02*
X137355040Y-125866956D01*
X136831231Y-125866956D02*
X137355040Y-126533622D01*
X137735993Y-125866956D02*
X137735993Y-126866956D01*
X137735993Y-125914575D02*
X137831231Y-125866956D01*
X138021707Y-125866956D01*
X138116945Y-125914575D01*
X138164564Y-125962194D01*
X138212183Y-126057432D01*
X138212183Y-126343146D01*
X138164564Y-126438384D01*
X138116945Y-126486003D01*
X138021707Y-126533622D01*
X137831231Y-126533622D01*
X137735993Y-126486003D01*
X139069326Y-126533622D02*
X139069326Y-126009813D01*
X139021707Y-125914575D01*
X138926469Y-125866956D01*
X138735993Y-125866956D01*
X138640755Y-125914575D01*
X139069326Y-126486003D02*
X138974088Y-126533622D01*
X138735993Y-126533622D01*
X138640755Y-126486003D01*
X138593136Y-126390765D01*
X138593136Y-126295527D01*
X138640755Y-126200289D01*
X138735993Y-126152670D01*
X138974088Y-126152670D01*
X139069326Y-126105051D01*
X139545516Y-125866956D02*
X139545516Y-126533622D01*
X139545516Y-125962194D02*
X139593136Y-125914575D01*
X139688374Y-125866956D01*
X139831231Y-125866956D01*
X139926469Y-125914575D01*
X139974088Y-126009813D01*
X139974088Y-126533622D01*
X140402659Y-126486003D02*
X140497897Y-126533622D01*
X140688374Y-126533622D01*
X140783612Y-126486003D01*
X140831231Y-126390765D01*
X140831231Y-126343146D01*
X140783612Y-126247908D01*
X140688374Y-126200289D01*
X140545516Y-126200289D01*
X140450278Y-126152670D01*
X140402659Y-126057432D01*
X140402659Y-126009813D01*
X140450278Y-125914575D01*
X140545516Y-125866956D01*
X140688374Y-125866956D01*
X140783612Y-125914575D01*
X141259802Y-126533622D02*
X141259802Y-125866956D01*
X141259802Y-125533622D02*
X141212183Y-125581242D01*
X141259802Y-125628861D01*
X141307421Y-125581242D01*
X141259802Y-125533622D01*
X141259802Y-125628861D01*
X141878850Y-126533622D02*
X141783612Y-126486003D01*
X141735993Y-126438384D01*
X141688374Y-126343146D01*
X141688374Y-126057432D01*
X141735993Y-125962194D01*
X141783612Y-125914575D01*
X141878850Y-125866956D01*
X142021707Y-125866956D01*
X142116945Y-125914575D01*
X142164564Y-125962194D01*
X142212183Y-126057432D01*
X142212183Y-126343146D01*
X142164564Y-126438384D01*
X142116945Y-126486003D01*
X142021707Y-126533622D01*
X141878850Y-126533622D01*
X142640755Y-125866956D02*
X142640755Y-126533622D01*
X142640755Y-125962194D02*
X142688374Y-125914575D01*
X142783612Y-125866956D01*
X142926469Y-125866956D01*
X143021707Y-125914575D01*
X143069326Y-126009813D01*
X143069326Y-126533622D01*
X144307421Y-126533622D02*
X144307421Y-125533622D01*
X144688374Y-125533622D01*
X144783612Y-125581242D01*
X144831231Y-125628861D01*
X144878850Y-125724099D01*
X144878850Y-125866956D01*
X144831231Y-125962194D01*
X144783612Y-126009813D01*
X144688374Y-126057432D01*
X144307421Y-126057432D01*
X145450278Y-126533622D02*
X145355040Y-126486003D01*
X145307421Y-126390765D01*
X145307421Y-125533622D01*
X146259802Y-125866956D02*
X146259802Y-126533622D01*
X145831231Y-125866956D02*
X145831231Y-126390765D01*
X145878850Y-126486003D01*
X145974088Y-126533622D01*
X146116945Y-126533622D01*
X146212183Y-126486003D01*
X146259802Y-126438384D01*
X147164564Y-125866956D02*
X147164564Y-126676480D01*
X147116945Y-126771718D01*
X147069326Y-126819337D01*
X146974088Y-126866956D01*
X146831231Y-126866956D01*
X146735993Y-126819337D01*
X147164564Y-126486003D02*
X147069326Y-126533622D01*
X146878850Y-126533622D01*
X146783612Y-126486003D01*
X146735993Y-126438384D01*
X146688374Y-126343146D01*
X146688374Y-126057432D01*
X146735993Y-125962194D01*
X146783612Y-125914575D01*
X146878850Y-125866956D01*
X147069326Y-125866956D01*
X147164564Y-125914575D01*
X148259802Y-125866956D02*
X148640755Y-125866956D01*
X148402659Y-126533622D02*
X148402659Y-125676480D01*
X148450278Y-125581242D01*
X148545516Y-125533622D01*
X148640755Y-125533622D01*
X149116945Y-126533622D02*
X149021707Y-126486003D01*
X148974088Y-126438384D01*
X148926469Y-126343146D01*
X148926469Y-126057432D01*
X148974088Y-125962194D01*
X149021707Y-125914575D01*
X149116945Y-125866956D01*
X149259802Y-125866956D01*
X149355040Y-125914575D01*
X149402659Y-125962194D01*
X149450278Y-126057432D01*
X149450278Y-126343146D01*
X149402659Y-126438384D01*
X149355040Y-126486003D01*
X149259802Y-126533622D01*
X149116945Y-126533622D01*
X149878850Y-126533622D02*
X149878850Y-125866956D01*
X149878850Y-126057432D02*
X149926469Y-125962194D01*
X149974088Y-125914575D01*
X150069326Y-125866956D01*
X150164564Y-125866956D01*
X151688374Y-126533622D02*
X151688374Y-125533622D01*
X151688374Y-126486003D02*
X151593136Y-126533622D01*
X151402659Y-126533622D01*
X151307421Y-126486003D01*
X151259802Y-126438384D01*
X151212183Y-126343146D01*
X151212183Y-126057432D01*
X151259802Y-125962194D01*
X151307421Y-125914575D01*
X151402659Y-125866956D01*
X151593136Y-125866956D01*
X151688374Y-125914575D01*
X152593136Y-126533622D02*
X152593136Y-126009813D01*
X152545516Y-125914575D01*
X152450278Y-125866956D01*
X152259802Y-125866956D01*
X152164564Y-125914575D01*
X152593136Y-126486003D02*
X152497897Y-126533622D01*
X152259802Y-126533622D01*
X152164564Y-126486003D01*
X152116945Y-126390765D01*
X152116945Y-126295527D01*
X152164564Y-126200289D01*
X152259802Y-126152670D01*
X152497897Y-126152670D01*
X152593136Y-126105051D01*
X153497897Y-125866956D02*
X153497897Y-126533622D01*
X153069326Y-125866956D02*
X153069326Y-126390765D01*
X153116945Y-126486003D01*
X153212183Y-126533622D01*
X153355040Y-126533622D01*
X153450278Y-126486003D01*
X153497897Y-126438384D01*
X154402659Y-125866956D02*
X154402659Y-126676480D01*
X154355040Y-126771718D01*
X154307421Y-126819337D01*
X154212183Y-126866956D01*
X154069326Y-126866956D01*
X153974088Y-126819337D01*
X154402659Y-126486003D02*
X154307421Y-126533622D01*
X154116945Y-126533622D01*
X154021707Y-126486003D01*
X153974088Y-126438384D01*
X153926469Y-126343146D01*
X153926469Y-126057432D01*
X153974088Y-125962194D01*
X154021707Y-125914575D01*
X154116945Y-125866956D01*
X154307421Y-125866956D01*
X154402659Y-125914575D01*
X154878850Y-126533622D02*
X154878850Y-125533622D01*
X155307421Y-126533622D02*
X155307421Y-126009813D01*
X155259802Y-125914575D01*
X155164564Y-125866956D01*
X155021707Y-125866956D01*
X154926469Y-125914575D01*
X154878850Y-125962194D01*
X155640755Y-125866956D02*
X156021707Y-125866956D01*
X155783612Y-125533622D02*
X155783612Y-126390765D01*
X155831231Y-126486003D01*
X155926469Y-126533622D01*
X156021707Y-126533622D01*
X156735993Y-126486003D02*
X156640755Y-126533622D01*
X156450278Y-126533622D01*
X156355040Y-126486003D01*
X156307421Y-126390765D01*
X156307421Y-126009813D01*
X156355040Y-125914575D01*
X156450278Y-125866956D01*
X156640755Y-125866956D01*
X156735993Y-125914575D01*
X156783612Y-126009813D01*
X156783612Y-126105051D01*
X156307421Y-126200289D01*
X157212183Y-126533622D02*
X157212183Y-125866956D01*
X157212183Y-126057432D02*
X157259802Y-125962194D01*
X157307421Y-125914575D01*
X157402659Y-125866956D01*
X157497897Y-125866956D01*
X158593135Y-126533622D02*
X158593135Y-125533622D01*
X158593135Y-125914575D02*
X158688374Y-125866956D01*
X158878850Y-125866956D01*
X158974088Y-125914575D01*
X159021707Y-125962194D01*
X159069326Y-126057432D01*
X159069326Y-126343146D01*
X159021707Y-126438384D01*
X158974088Y-126486003D01*
X158878850Y-126533622D01*
X158688374Y-126533622D01*
X158593135Y-126486003D01*
X159640755Y-126533622D02*
X159545516Y-126486003D01*
X159497897Y-126438384D01*
X159450278Y-126343146D01*
X159450278Y-126057432D01*
X159497897Y-125962194D01*
X159545516Y-125914575D01*
X159640755Y-125866956D01*
X159783612Y-125866956D01*
X159878850Y-125914575D01*
X159926469Y-125962194D01*
X159974088Y-126057432D01*
X159974088Y-126343146D01*
X159926469Y-126438384D01*
X159878850Y-126486003D01*
X159783612Y-126533622D01*
X159640755Y-126533622D01*
X160831231Y-126533622D02*
X160831231Y-126009813D01*
X160783612Y-125914575D01*
X160688374Y-125866956D01*
X160497897Y-125866956D01*
X160402659Y-125914575D01*
X160831231Y-126486003D02*
X160735993Y-126533622D01*
X160497897Y-126533622D01*
X160402659Y-126486003D01*
X160355040Y-126390765D01*
X160355040Y-126295527D01*
X160402659Y-126200289D01*
X160497897Y-126152670D01*
X160735993Y-126152670D01*
X160831231Y-126105051D01*
X161307421Y-126533622D02*
X161307421Y-125866956D01*
X161307421Y-126057432D02*
X161355040Y-125962194D01*
X161402659Y-125914575D01*
X161497897Y-125866956D01*
X161593135Y-125866956D01*
X162355040Y-126533622D02*
X162355040Y-125533622D01*
X162355040Y-126486003D02*
X162259802Y-126533622D01*
X162069326Y-126533622D01*
X161974088Y-126486003D01*
X161926469Y-126438384D01*
X161878850Y-126343146D01*
X161878850Y-126057432D01*
X161926469Y-125962194D01*
X161974088Y-125914575D01*
X162069326Y-125866956D01*
X162259802Y-125866956D01*
X162355040Y-125914575D01*
X162783612Y-126486003D02*
X162878850Y-126533622D01*
X163069326Y-126533622D01*
X163164564Y-126486003D01*
X163212183Y-126390765D01*
X163212183Y-126343146D01*
X163164564Y-126247908D01*
X163069326Y-126200289D01*
X162926469Y-126200289D01*
X162831231Y-126152670D01*
X162783612Y-126057432D01*
X162783612Y-126009813D01*
X162831231Y-125914575D01*
X162926469Y-125866956D01*
X163069326Y-125866956D01*
X163164564Y-125914575D01*
D11*
X45616438Y-104936638D02*
X46759295Y-104936638D01*
X46187866Y-105508067D02*
X46187866Y-104365210D01*
X47330723Y-104008067D02*
X48259295Y-104008067D01*
X47759295Y-104579496D01*
X47973580Y-104579496D01*
X48116438Y-104650924D01*
X48187866Y-104722353D01*
X48259295Y-104865210D01*
X48259295Y-105222353D01*
X48187866Y-105365210D01*
X48116438Y-105436638D01*
X47973580Y-105508067D01*
X47545009Y-105508067D01*
X47402152Y-105436638D01*
X47330723Y-105365210D01*
X48902152Y-105365210D02*
X48973580Y-105436638D01*
X48902152Y-105508067D01*
X48830723Y-105436638D01*
X48902152Y-105365210D01*
X48902152Y-105508067D01*
X49473580Y-104008067D02*
X50402152Y-104008067D01*
X49902152Y-104579496D01*
X50116438Y-104579496D01*
X50259295Y-104650924D01*
X50330723Y-104722353D01*
X50402152Y-104865210D01*
X50402152Y-105222353D01*
X50330723Y-105365210D01*
X50259295Y-105436638D01*
X50116438Y-105508067D01*
X49687866Y-105508067D01*
X49545009Y-105436638D01*
X49473580Y-105365210D01*
X50830723Y-104008067D02*
X51330723Y-105508067D01*
X51830723Y-104008067D01*
X52330723Y-105508067D02*
X52330723Y-104008067D01*
X52687866Y-104008067D01*
X52902152Y-104079496D01*
X53045009Y-104222353D01*
X53116438Y-104365210D01*
X53187866Y-104650924D01*
X53187866Y-104865210D01*
X53116438Y-105150924D01*
X53045009Y-105293781D01*
X52902152Y-105436638D01*
X52687866Y-105508067D01*
X52330723Y-105508067D01*
X54687866Y-105365210D02*
X54616438Y-105436638D01*
X54402152Y-105508067D01*
X54259295Y-105508067D01*
X54045009Y-105436638D01*
X53902152Y-105293781D01*
X53830723Y-105150924D01*
X53759295Y-104865210D01*
X53759295Y-104650924D01*
X53830723Y-104365210D01*
X53902152Y-104222353D01*
X54045009Y-104079496D01*
X54259295Y-104008067D01*
X54402152Y-104008067D01*
X54616438Y-104079496D01*
X54687866Y-104150924D01*
X48259295Y-107923067D02*
X48259295Y-106423067D01*
X48759295Y-107494496D01*
X49259295Y-106423067D01*
X49259295Y-107923067D01*
X49902152Y-107494496D02*
X50616438Y-107494496D01*
X49759295Y-107923067D02*
X50259295Y-106423067D01*
X50759295Y-107923067D01*
X51116438Y-106423067D02*
X52116438Y-107923067D01*
X52116438Y-106423067D02*
X51116438Y-107923067D01*
X114155837Y-89134132D02*
X114870122Y-89134132D01*
X114012980Y-89562703D02*
X114512980Y-88062703D01*
X115012980Y-89562703D01*
X115512980Y-88062703D02*
X115512980Y-89276989D01*
X115584408Y-89419846D01*
X115655837Y-89491274D01*
X115798694Y-89562703D01*
X116084408Y-89562703D01*
X116227265Y-89491274D01*
X116298694Y-89419846D01*
X116370122Y-89276989D01*
X116370122Y-88062703D01*
X116941551Y-88062703D02*
X117941551Y-89562703D01*
X117941551Y-88062703D02*
X116941551Y-89562703D01*
X114012980Y-90477703D02*
X114512980Y-91977703D01*
X115012980Y-90477703D01*
X115512980Y-91977703D02*
X115512980Y-90477703D01*
X115870122Y-90477703D01*
X116084408Y-90549132D01*
X116227265Y-90691989D01*
X116298694Y-90834846D01*
X116370122Y-91120560D01*
X116370122Y-91334846D01*
X116298694Y-91620560D01*
X116227265Y-91763417D01*
X116084408Y-91906274D01*
X115870122Y-91977703D01*
X115512980Y-91977703D01*
X117870122Y-91834846D02*
X117798694Y-91906274D01*
X117584408Y-91977703D01*
X117441551Y-91977703D01*
X117227265Y-91906274D01*
X117084408Y-91763417D01*
X117012980Y-91620560D01*
X116941551Y-91334846D01*
X116941551Y-91120560D01*
X117012980Y-90834846D01*
X117084408Y-90691989D01*
X117227265Y-90549132D01*
X117441551Y-90477703D01*
X117584408Y-90477703D01*
X117798694Y-90549132D01*
X117870122Y-90620560D01*
X65994642Y-57598571D02*
X67264642Y-57598571D01*
X65994642Y-59098571D01*
X67264642Y-59098571D01*
X68353214Y-57598571D02*
X68716071Y-57598571D01*
X68897500Y-57670000D01*
X69078928Y-57812857D01*
X69169642Y-58098571D01*
X69169642Y-58598571D01*
X69078928Y-58884285D01*
X68897500Y-59027142D01*
X68716071Y-59098571D01*
X68353214Y-59098571D01*
X68171785Y-59027142D01*
X67990357Y-58884285D01*
X67899642Y-58598571D01*
X67899642Y-58098571D01*
X67990357Y-57812857D01*
X68171785Y-57670000D01*
X68353214Y-57598571D01*
X69986071Y-59098571D02*
X69986071Y-57598571D01*
X71074642Y-59098571D01*
X71074642Y-57598571D01*
X71981785Y-58312857D02*
X72616785Y-58312857D01*
X72888928Y-59098571D02*
X71981785Y-59098571D01*
X71981785Y-57598571D01*
X72888928Y-57598571D01*
X76154642Y-59098571D02*
X75066071Y-59098571D01*
X75610357Y-59098571D02*
X75610357Y-57598571D01*
X75428928Y-57812857D01*
X75247500Y-57955714D01*
X75066071Y-58027142D01*
X64410563Y-126728853D02*
X64410563Y-125228853D01*
X64910563Y-126300282D01*
X65410563Y-125228853D01*
X65410563Y-126728853D01*
X66767706Y-126728853D02*
X66767706Y-125943139D01*
X66696277Y-125800282D01*
X66553420Y-125728853D01*
X66267706Y-125728853D01*
X66124849Y-125800282D01*
X66767706Y-126657424D02*
X66624849Y-126728853D01*
X66267706Y-126728853D01*
X66124849Y-126657424D01*
X66053420Y-126514567D01*
X66053420Y-126371710D01*
X66124849Y-126228853D01*
X66267706Y-126157424D01*
X66624849Y-126157424D01*
X66767706Y-126085996D01*
X67481992Y-126728853D02*
X67481992Y-125228853D01*
X67624849Y-126157424D02*
X68053420Y-126728853D01*
X68053420Y-125728853D02*
X67481992Y-126300282D01*
X69267706Y-126657424D02*
X69124849Y-126728853D01*
X68839135Y-126728853D01*
X68696277Y-126657424D01*
X68624849Y-126514567D01*
X68624849Y-125943139D01*
X68696277Y-125800282D01*
X68839135Y-125728853D01*
X69124849Y-125728853D01*
X69267706Y-125800282D01*
X69339135Y-125943139D01*
X69339135Y-126085996D01*
X68624849Y-126228853D01*
X69981992Y-126728853D02*
X69981992Y-125228853D01*
X70481992Y-125728853D02*
X71053420Y-125728853D01*
X70696277Y-125228853D02*
X70696277Y-126514567D01*
X70767706Y-126657424D01*
X70910563Y-126728853D01*
X71053420Y-126728853D01*
X72410563Y-126728853D02*
X71910563Y-126014567D01*
X71553420Y-126728853D02*
X71553420Y-125228853D01*
X72124849Y-125228853D01*
X72267706Y-125300282D01*
X72339135Y-125371710D01*
X72410563Y-125514567D01*
X72410563Y-125728853D01*
X72339135Y-125871710D01*
X72267706Y-125943139D01*
X72124849Y-126014567D01*
X71553420Y-126014567D01*
X73696277Y-126728853D02*
X73696277Y-125943139D01*
X73624849Y-125800282D01*
X73481992Y-125728853D01*
X73196277Y-125728853D01*
X73053420Y-125800282D01*
X73696277Y-126657424D02*
X73553420Y-126728853D01*
X73196277Y-126728853D01*
X73053420Y-126657424D01*
X72981992Y-126514567D01*
X72981992Y-126371710D01*
X73053420Y-126228853D01*
X73196277Y-126157424D01*
X73553420Y-126157424D01*
X73696277Y-126085996D01*
X74410563Y-126728853D02*
X74410563Y-125728853D01*
X74410563Y-125228853D02*
X74339135Y-125300282D01*
X74410563Y-125371710D01*
X74481992Y-125300282D01*
X74410563Y-125228853D01*
X74410563Y-125371710D01*
X75124849Y-125728853D02*
X75124849Y-126728853D01*
X75124849Y-125871710D02*
X75196277Y-125800282D01*
X75339135Y-125728853D01*
X75553420Y-125728853D01*
X75696277Y-125800282D01*
X75767706Y-125943139D01*
X75767706Y-126728853D01*
X77410563Y-125228853D02*
X77910563Y-126728853D01*
X78410563Y-125228853D01*
X79696277Y-126728853D02*
X78839135Y-126728853D01*
X79267706Y-126728853D02*
X79267706Y-125228853D01*
X79124849Y-125443139D01*
X78981992Y-125585996D01*
X78839135Y-125657424D01*
X80339135Y-126585996D02*
X80410563Y-126657424D01*
X80339135Y-126728853D01*
X80267706Y-126657424D01*
X80339135Y-126585996D01*
X80339135Y-126728853D01*
X81339135Y-125228853D02*
X81481992Y-125228853D01*
X81624849Y-125300282D01*
X81696277Y-125371710D01*
X81767706Y-125514567D01*
X81839135Y-125800282D01*
X81839135Y-126157424D01*
X81767706Y-126443139D01*
X81696277Y-126585996D01*
X81624849Y-126657424D01*
X81481992Y-126728853D01*
X81339135Y-126728853D01*
X81196277Y-126657424D01*
X81124849Y-126585996D01*
X81053420Y-126443139D01*
X80981992Y-126157424D01*
X80981992Y-125800282D01*
X81053420Y-125514567D01*
X81124849Y-125371710D01*
X81196277Y-125300282D01*
X81339135Y-125228853D01*
D10*
X70572380Y-63230000D02*
X70572380Y-63039523D01*
X70620000Y-62944285D01*
X70715238Y-62849047D01*
X70905714Y-62801428D01*
X71239047Y-62801428D01*
X71429523Y-62849047D01*
X71524761Y-62944285D01*
X71572380Y-63039523D01*
X71572380Y-63230000D01*
X71524761Y-63325238D01*
X71429523Y-63420476D01*
X71239047Y-63468095D01*
X70905714Y-63468095D01*
X70715238Y-63420476D01*
X70620000Y-63325238D01*
X70572380Y-63230000D01*
X70572380Y-62372857D02*
X71381904Y-62372857D01*
X71477142Y-62325238D01*
X71524761Y-62277619D01*
X71572380Y-62182380D01*
X71572380Y-61991904D01*
X71524761Y-61896666D01*
X71477142Y-61849047D01*
X71381904Y-61801428D01*
X70572380Y-61801428D01*
X70572380Y-61468095D02*
X70572380Y-60896666D01*
X71572380Y-61182380D02*
X70572380Y-61182380D01*
X65540000Y-62991904D02*
X65492380Y-63087142D01*
X65492380Y-63230000D01*
X65540000Y-63372857D01*
X65635238Y-63468095D01*
X65730476Y-63515714D01*
X65920952Y-63563333D01*
X66063809Y-63563333D01*
X66254285Y-63515714D01*
X66349523Y-63468095D01*
X66444761Y-63372857D01*
X66492380Y-63230000D01*
X66492380Y-63134761D01*
X66444761Y-62991904D01*
X66397142Y-62944285D01*
X66063809Y-62944285D01*
X66063809Y-63134761D01*
X66492380Y-62515714D02*
X65492380Y-62515714D01*
X66492380Y-61944285D01*
X65492380Y-61944285D01*
X66492380Y-61468095D02*
X65492380Y-61468095D01*
X65492380Y-61230000D01*
X65540000Y-61087142D01*
X65635238Y-60991904D01*
X65730476Y-60944285D01*
X65920952Y-60896666D01*
X66063809Y-60896666D01*
X66254285Y-60944285D01*
X66349523Y-60991904D01*
X66444761Y-61087142D01*
X66492380Y-61230000D01*
X66492380Y-61468095D01*
%TO.C,C1*%
X60851731Y-85633087D02*
X60899350Y-85680706D01*
X60946969Y-85823563D01*
X60946969Y-85918801D01*
X60899350Y-86061659D01*
X60804112Y-86156897D01*
X60708874Y-86204516D01*
X60518398Y-86252135D01*
X60375541Y-86252135D01*
X60185065Y-86204516D01*
X60089827Y-86156897D01*
X59994589Y-86061659D01*
X59946969Y-85918801D01*
X59946969Y-85823563D01*
X59994589Y-85680706D01*
X60042208Y-85633087D01*
X60946969Y-84680706D02*
X60946969Y-85252135D01*
X60946969Y-84966421D02*
X59946969Y-84966421D01*
X60089827Y-85061659D01*
X60185065Y-85156897D01*
X60232684Y-85252135D01*
%TO.C,C2*%
X92440142Y-71086366D02*
X92487761Y-71133985D01*
X92535380Y-71276842D01*
X92535380Y-71372080D01*
X92487761Y-71514938D01*
X92392523Y-71610176D01*
X92297285Y-71657795D01*
X92106809Y-71705414D01*
X91963952Y-71705414D01*
X91773476Y-71657795D01*
X91678238Y-71610176D01*
X91583000Y-71514938D01*
X91535380Y-71372080D01*
X91535380Y-71276842D01*
X91583000Y-71133985D01*
X91630619Y-71086366D01*
X91630619Y-70705414D02*
X91583000Y-70657795D01*
X91535380Y-70562557D01*
X91535380Y-70324461D01*
X91583000Y-70229223D01*
X91630619Y-70181604D01*
X91725857Y-70133985D01*
X91821095Y-70133985D01*
X91963952Y-70181604D01*
X92535380Y-70753033D01*
X92535380Y-70133985D01*
%TO.C,C3*%
X122780742Y-66251666D02*
X122828361Y-66299285D01*
X122875980Y-66442142D01*
X122875980Y-66537380D01*
X122828361Y-66680238D01*
X122733123Y-66775476D01*
X122637885Y-66823095D01*
X122447409Y-66870714D01*
X122304552Y-66870714D01*
X122114076Y-66823095D01*
X122018838Y-66775476D01*
X121923600Y-66680238D01*
X121875980Y-66537380D01*
X121875980Y-66442142D01*
X121923600Y-66299285D01*
X121971219Y-66251666D01*
X121875980Y-65918333D02*
X121875980Y-65299285D01*
X122256933Y-65632619D01*
X122256933Y-65489761D01*
X122304552Y-65394523D01*
X122352171Y-65346904D01*
X122447409Y-65299285D01*
X122685504Y-65299285D01*
X122780742Y-65346904D01*
X122828361Y-65394523D01*
X122875980Y-65489761D01*
X122875980Y-65775476D01*
X122828361Y-65870714D01*
X122780742Y-65918333D01*
%TO.C,C4*%
X148883998Y-68205682D02*
X148931617Y-68253301D01*
X148979236Y-68396158D01*
X148979236Y-68491396D01*
X148931617Y-68634254D01*
X148836379Y-68729492D01*
X148741141Y-68777111D01*
X148550665Y-68824730D01*
X148407808Y-68824730D01*
X148217332Y-68777111D01*
X148122094Y-68729492D01*
X148026856Y-68634254D01*
X147979236Y-68491396D01*
X147979236Y-68396158D01*
X148026856Y-68253301D01*
X148074475Y-68205682D01*
X148312570Y-67348539D02*
X148979236Y-67348539D01*
X147931617Y-67586635D02*
X148645903Y-67824730D01*
X148645903Y-67205682D01*
%TO.C,D3*%
X87243762Y-76916130D02*
X86243762Y-76916130D01*
X86243762Y-76678035D01*
X86291382Y-76535177D01*
X86386620Y-76439939D01*
X86481858Y-76392320D01*
X86672334Y-76344701D01*
X86815191Y-76344701D01*
X87005667Y-76392320D01*
X87100905Y-76439939D01*
X87196143Y-76535177D01*
X87243762Y-76678035D01*
X87243762Y-76916130D01*
X86243762Y-76011368D02*
X86243762Y-75392320D01*
X86624715Y-75725654D01*
X86624715Y-75582796D01*
X86672334Y-75487558D01*
X86719953Y-75439939D01*
X86815191Y-75392320D01*
X87053286Y-75392320D01*
X87148524Y-75439939D01*
X87196143Y-75487558D01*
X87243762Y-75582796D01*
X87243762Y-75868511D01*
X87196143Y-75963749D01*
X87148524Y-76011368D01*
X81337380Y-84081904D02*
X80337380Y-84081904D01*
X81337380Y-83510476D02*
X80765952Y-83939047D01*
X80337380Y-83510476D02*
X80908809Y-84081904D01*
%TO.C,D5*%
X117851628Y-76864990D02*
X116851628Y-76864990D01*
X116851628Y-76626895D01*
X116899248Y-76484037D01*
X116994486Y-76388799D01*
X117089724Y-76341180D01*
X117280200Y-76293561D01*
X117423057Y-76293561D01*
X117613533Y-76341180D01*
X117708771Y-76388799D01*
X117804009Y-76484037D01*
X117851628Y-76626895D01*
X117851628Y-76864990D01*
X116851628Y-75388799D02*
X116851628Y-75864990D01*
X117327819Y-75912609D01*
X117280200Y-75864990D01*
X117232581Y-75769752D01*
X117232581Y-75531656D01*
X117280200Y-75436418D01*
X117327819Y-75388799D01*
X117423057Y-75341180D01*
X117661152Y-75341180D01*
X117756390Y-75388799D01*
X117804009Y-75436418D01*
X117851628Y-75531656D01*
X117851628Y-75769752D01*
X117804009Y-75864990D01*
X117756390Y-75912609D01*
X111817380Y-84081904D02*
X110817380Y-84081904D01*
X111817380Y-83510476D02*
X111245952Y-83939047D01*
X110817380Y-83510476D02*
X111388809Y-84081904D01*
%TO.C,D7*%
X177279733Y-82916558D02*
X176279733Y-82916558D01*
X176279733Y-82678463D01*
X176327353Y-82535605D01*
X176422591Y-82440367D01*
X176517829Y-82392748D01*
X176708305Y-82345129D01*
X176851162Y-82345129D01*
X177041638Y-82392748D01*
X177136876Y-82440367D01*
X177232114Y-82535605D01*
X177279733Y-82678463D01*
X177279733Y-82916558D01*
X176279733Y-82011796D02*
X176279733Y-81345129D01*
X177279733Y-81773701D01*
X172777380Y-84081904D02*
X171777380Y-84081904D01*
X172777380Y-83510476D02*
X172205952Y-83939047D01*
X171777380Y-83510476D02*
X172348809Y-84081904D01*
%TO.C,D9*%
X148153790Y-76953632D02*
X147153790Y-76953632D01*
X147153790Y-76715537D01*
X147201410Y-76572679D01*
X147296648Y-76477441D01*
X147391886Y-76429822D01*
X147582362Y-76382203D01*
X147725219Y-76382203D01*
X147915695Y-76429822D01*
X148010933Y-76477441D01*
X148106171Y-76572679D01*
X148153790Y-76715537D01*
X148153790Y-76953632D01*
X148153790Y-75906013D02*
X148153790Y-75715537D01*
X148106171Y-75620298D01*
X148058552Y-75572679D01*
X147915695Y-75477441D01*
X147725219Y-75429822D01*
X147344267Y-75429822D01*
X147249029Y-75477441D01*
X147201410Y-75525060D01*
X147153790Y-75620298D01*
X147153790Y-75810775D01*
X147201410Y-75906013D01*
X147249029Y-75953632D01*
X147344267Y-76001251D01*
X147582362Y-76001251D01*
X147677600Y-75953632D01*
X147725219Y-75906013D01*
X147772838Y-75810775D01*
X147772838Y-75620298D01*
X147725219Y-75525060D01*
X147677600Y-75477441D01*
X147582362Y-75429822D01*
X142297380Y-84081904D02*
X141297380Y-84081904D01*
X142297380Y-83510476D02*
X141725952Y-83939047D01*
X141297380Y-83510476D02*
X141868809Y-84081904D01*
%TO.C,D1*%
X127835704Y-126644480D02*
X127835704Y-125644480D01*
X128073800Y-125644480D01*
X128216657Y-125692100D01*
X128311895Y-125787338D01*
X128359514Y-125882576D01*
X128407133Y-126073052D01*
X128407133Y-126215909D01*
X128359514Y-126406385D01*
X128311895Y-126501623D01*
X128216657Y-126596861D01*
X128073800Y-126644480D01*
X127835704Y-126644480D01*
X129359514Y-126644480D02*
X128788085Y-126644480D01*
X129073800Y-126644480D02*
X129073800Y-125644480D01*
X128978561Y-125787338D01*
X128883323Y-125882576D01*
X128788085Y-125930195D01*
D12*
%TO.C,IC2*%
X159967409Y-109636301D02*
X158697409Y-109636301D01*
X159846457Y-108305825D02*
X159906933Y-108366301D01*
X159967409Y-108547730D01*
X159967409Y-108668682D01*
X159906933Y-108850111D01*
X159785981Y-108971063D01*
X159665028Y-109031540D01*
X159423124Y-109092016D01*
X159241695Y-109092016D01*
X158999790Y-109031540D01*
X158878838Y-108971063D01*
X158757886Y-108850111D01*
X158697409Y-108668682D01*
X158697409Y-108547730D01*
X158757886Y-108366301D01*
X158818362Y-108305825D01*
X158818362Y-107822016D02*
X158757886Y-107761540D01*
X158697409Y-107640587D01*
X158697409Y-107338206D01*
X158757886Y-107217254D01*
X158818362Y-107156778D01*
X158939314Y-107096301D01*
X159060266Y-107096301D01*
X159241695Y-107156778D01*
X159967409Y-107882492D01*
X159967409Y-107096301D01*
D10*
%TO.C,J2*%
X62722380Y-122253333D02*
X63436666Y-122253333D01*
X63579523Y-122300952D01*
X63674761Y-122396190D01*
X63722380Y-122539047D01*
X63722380Y-122634285D01*
X62817619Y-121824761D02*
X62770000Y-121777142D01*
X62722380Y-121681904D01*
X62722380Y-121443809D01*
X62770000Y-121348571D01*
X62817619Y-121300952D01*
X62912857Y-121253333D01*
X63008095Y-121253333D01*
X63150952Y-121300952D01*
X63722380Y-121872380D01*
X63722380Y-121253333D01*
%TO.C,J3*%
X69684496Y-100899207D02*
X70398782Y-100899207D01*
X70541639Y-100946826D01*
X70636877Y-101042064D01*
X70684496Y-101184921D01*
X70684496Y-101280159D01*
X69684496Y-100518254D02*
X69684496Y-99899207D01*
X70065449Y-100232540D01*
X70065449Y-100089683D01*
X70113068Y-99994445D01*
X70160687Y-99946826D01*
X70255925Y-99899207D01*
X70494020Y-99899207D01*
X70589258Y-99946826D01*
X70636877Y-99994445D01*
X70684496Y-100089683D01*
X70684496Y-100375397D01*
X70636877Y-100470635D01*
X70589258Y-100518254D01*
%TO.C,L1*%
X151718257Y-106162997D02*
X151718257Y-106639188D01*
X150718257Y-106639188D01*
X151718257Y-105305854D02*
X151718257Y-105877283D01*
X151718257Y-105591569D02*
X150718257Y-105591569D01*
X150861115Y-105686807D01*
X150956353Y-105782045D01*
X151003972Y-105877283D01*
%TO.C,P1*%
X179721833Y-87286730D02*
X178721833Y-87286730D01*
X178721833Y-86905777D01*
X178769453Y-86810539D01*
X178817072Y-86762920D01*
X178912310Y-86715301D01*
X179055167Y-86715301D01*
X179150405Y-86762920D01*
X179198024Y-86810539D01*
X179245643Y-86905777D01*
X179245643Y-87286730D01*
X179721833Y-85762920D02*
X179721833Y-86334349D01*
X179721833Y-86048635D02*
X178721833Y-86048635D01*
X178864691Y-86143873D01*
X178959929Y-86239111D01*
X179007548Y-86334349D01*
D12*
%TO.C,Q3*%
X62257706Y-82854876D02*
X62136754Y-82794400D01*
X62015801Y-82673447D01*
X61834373Y-82492019D01*
X61713420Y-82431542D01*
X61592468Y-82431542D01*
X61652944Y-82733923D02*
X61531992Y-82673447D01*
X61411039Y-82552495D01*
X61350563Y-82310590D01*
X61350563Y-81887257D01*
X61411039Y-81645352D01*
X61531992Y-81524400D01*
X61652944Y-81463923D01*
X61894849Y-81463923D01*
X62015801Y-81524400D01*
X62136754Y-81645352D01*
X62197230Y-81887257D01*
X62197230Y-82310590D01*
X62136754Y-82552495D01*
X62015801Y-82673447D01*
X61894849Y-82733923D01*
X61652944Y-82733923D01*
X62620563Y-81463923D02*
X63406754Y-81463923D01*
X62983420Y-81947733D01*
X63164849Y-81947733D01*
X63285801Y-82008209D01*
X63346278Y-82068685D01*
X63406754Y-82189638D01*
X63406754Y-82492019D01*
X63346278Y-82612971D01*
X63285801Y-82673447D01*
X63164849Y-82733923D01*
X62801992Y-82733923D01*
X62681039Y-82673447D01*
X62620563Y-82612971D01*
%TO.C,Q6*%
X91578834Y-82730074D02*
X91457882Y-82669598D01*
X91336929Y-82548645D01*
X91155501Y-82367217D01*
X91034548Y-82306740D01*
X90913596Y-82306740D01*
X90974072Y-82609121D02*
X90853120Y-82548645D01*
X90732167Y-82427693D01*
X90671691Y-82185788D01*
X90671691Y-81762455D01*
X90732167Y-81520550D01*
X90853120Y-81399598D01*
X90974072Y-81339121D01*
X91215977Y-81339121D01*
X91336929Y-81399598D01*
X91457882Y-81520550D01*
X91518358Y-81762455D01*
X91518358Y-82185788D01*
X91457882Y-82427693D01*
X91336929Y-82548645D01*
X91215977Y-82609121D01*
X90974072Y-82609121D01*
X92606929Y-81339121D02*
X92365025Y-81339121D01*
X92244072Y-81399598D01*
X92183596Y-81460074D01*
X92062644Y-81641502D01*
X92002167Y-81883407D01*
X92002167Y-82367217D01*
X92062644Y-82488169D01*
X92123120Y-82548645D01*
X92244072Y-82609121D01*
X92485977Y-82609121D01*
X92606929Y-82548645D01*
X92667406Y-82488169D01*
X92727882Y-82367217D01*
X92727882Y-82064836D01*
X92667406Y-81943883D01*
X92606929Y-81883407D01*
X92485977Y-81822931D01*
X92244072Y-81822931D01*
X92123120Y-81883407D01*
X92062644Y-81943883D01*
X92002167Y-82064836D01*
D10*
%TO.C,Q7*%
X94521061Y-101614319D02*
X94425823Y-101566700D01*
X94330585Y-101471461D01*
X94187728Y-101328604D01*
X94092490Y-101280985D01*
X93997252Y-101280985D01*
X94044871Y-101519080D02*
X93949633Y-101471461D01*
X93854395Y-101376223D01*
X93806776Y-101185747D01*
X93806776Y-100852414D01*
X93854395Y-100661938D01*
X93949633Y-100566700D01*
X94044871Y-100519080D01*
X94235347Y-100519080D01*
X94330585Y-100566700D01*
X94425823Y-100661938D01*
X94473442Y-100852414D01*
X94473442Y-101185747D01*
X94425823Y-101376223D01*
X94330585Y-101471461D01*
X94235347Y-101519080D01*
X94044871Y-101519080D01*
X94806776Y-100519080D02*
X95473442Y-100519080D01*
X95044871Y-101519080D01*
D12*
%TO.C,Q9*%
X121792913Y-82200933D02*
X121671961Y-82140457D01*
X121551008Y-82019504D01*
X121369580Y-81838076D01*
X121248627Y-81777599D01*
X121127675Y-81777599D01*
X121188151Y-82079980D02*
X121067199Y-82019504D01*
X120946246Y-81898552D01*
X120885770Y-81656647D01*
X120885770Y-81233314D01*
X120946246Y-80991409D01*
X121067199Y-80870457D01*
X121188151Y-80809980D01*
X121430056Y-80809980D01*
X121551008Y-80870457D01*
X121671961Y-80991409D01*
X121732437Y-81233314D01*
X121732437Y-81656647D01*
X121671961Y-81898552D01*
X121551008Y-82019504D01*
X121430056Y-82079980D01*
X121188151Y-82079980D01*
X122337199Y-82079980D02*
X122579104Y-82079980D01*
X122700056Y-82019504D01*
X122760532Y-81959028D01*
X122881485Y-81777599D01*
X122941961Y-81535695D01*
X122941961Y-81051885D01*
X122881485Y-80930933D01*
X122821008Y-80870457D01*
X122700056Y-80809980D01*
X122458151Y-80809980D01*
X122337199Y-80870457D01*
X122276723Y-80930933D01*
X122216246Y-81051885D01*
X122216246Y-81354266D01*
X122276723Y-81475218D01*
X122337199Y-81535695D01*
X122458151Y-81596171D01*
X122700056Y-81596171D01*
X122821008Y-81535695D01*
X122881485Y-81475218D01*
X122941961Y-81354266D01*
%TO.C,Q12*%
X155796403Y-83917643D02*
X155675451Y-83857167D01*
X155554498Y-83736214D01*
X155373070Y-83554786D01*
X155252118Y-83494309D01*
X155131165Y-83494309D01*
X155191641Y-83796690D02*
X155070689Y-83736214D01*
X154949737Y-83615262D01*
X154889260Y-83373357D01*
X154889260Y-82950024D01*
X154949737Y-82708119D01*
X155070689Y-82587167D01*
X155191641Y-82526690D01*
X155433546Y-82526690D01*
X155554498Y-82587167D01*
X155675451Y-82708119D01*
X155735927Y-82950024D01*
X155735927Y-83373357D01*
X155675451Y-83615262D01*
X155554498Y-83736214D01*
X155433546Y-83796690D01*
X155191641Y-83796690D01*
X156945451Y-83796690D02*
X156219737Y-83796690D01*
X156582594Y-83796690D02*
X156582594Y-82526690D01*
X156461641Y-82708119D01*
X156340689Y-82829071D01*
X156219737Y-82889547D01*
X157429260Y-82647643D02*
X157489737Y-82587167D01*
X157610689Y-82526690D01*
X157913070Y-82526690D01*
X158034022Y-82587167D01*
X158094498Y-82647643D01*
X158154975Y-82768595D01*
X158154975Y-82889547D01*
X158094498Y-83070976D01*
X157368784Y-83796690D01*
X158154975Y-83796690D01*
%TO.C,Q13*%
X184041003Y-88820759D02*
X183920051Y-88760283D01*
X183799098Y-88639330D01*
X183617670Y-88457902D01*
X183496718Y-88397425D01*
X183375765Y-88397425D01*
X183436241Y-88699806D02*
X183315289Y-88639330D01*
X183194337Y-88518378D01*
X183133860Y-88276473D01*
X183133860Y-87853140D01*
X183194337Y-87611235D01*
X183315289Y-87490283D01*
X183436241Y-87429806D01*
X183678146Y-87429806D01*
X183799098Y-87490283D01*
X183920051Y-87611235D01*
X183980527Y-87853140D01*
X183980527Y-88276473D01*
X183920051Y-88518378D01*
X183799098Y-88639330D01*
X183678146Y-88699806D01*
X183436241Y-88699806D01*
X185190051Y-88699806D02*
X184464337Y-88699806D01*
X184827194Y-88699806D02*
X184827194Y-87429806D01*
X184706241Y-87611235D01*
X184585289Y-87732187D01*
X184464337Y-87792663D01*
X185613384Y-87429806D02*
X186399575Y-87429806D01*
X185976241Y-87913616D01*
X186157670Y-87913616D01*
X186278622Y-87974092D01*
X186339098Y-88034568D01*
X186399575Y-88155521D01*
X186399575Y-88457902D01*
X186339098Y-88578854D01*
X186278622Y-88639330D01*
X186157670Y-88699806D01*
X185794813Y-88699806D01*
X185673860Y-88639330D01*
X185613384Y-88578854D01*
D10*
%TO.C,R1*%
X42787244Y-83574977D02*
X42453911Y-83098787D01*
X42215815Y-83574977D02*
X42215815Y-82574977D01*
X42596768Y-82574977D01*
X42692006Y-82622597D01*
X42739625Y-82670216D01*
X42787244Y-82765454D01*
X42787244Y-82908311D01*
X42739625Y-83003549D01*
X42692006Y-83051168D01*
X42596768Y-83098787D01*
X42215815Y-83098787D01*
X43739625Y-83574977D02*
X43168196Y-83574977D01*
X43453911Y-83574977D02*
X43453911Y-82574977D01*
X43358672Y-82717835D01*
X43263434Y-82813073D01*
X43168196Y-82860692D01*
D12*
%TO.C,U1*%
X49443780Y-91904123D02*
X49443780Y-92932219D01*
X49504257Y-93053171D01*
X49564733Y-93113647D01*
X49685685Y-93174123D01*
X49927590Y-93174123D01*
X50048542Y-93113647D01*
X50109019Y-93053171D01*
X50169495Y-92932219D01*
X50169495Y-91904123D01*
X51439495Y-93174123D02*
X50713780Y-93174123D01*
X51076638Y-93174123D02*
X51076638Y-91904123D01*
X50955685Y-92085552D01*
X50834733Y-92206504D01*
X50713780Y-92266980D01*
D10*
%TO.C,Z2*%
X100790476Y-76922380D02*
X101457142Y-76922380D01*
X100790476Y-77922380D01*
X101457142Y-77922380D01*
X101790476Y-77017619D02*
X101838095Y-76970000D01*
X101933333Y-76922380D01*
X102171428Y-76922380D01*
X102266666Y-76970000D01*
X102314285Y-77017619D01*
X102361904Y-77112857D01*
X102361904Y-77208095D01*
X102314285Y-77350952D01*
X101742857Y-77922380D01*
X102361904Y-77922380D01*
%TO.C,Z3*%
X131270476Y-76922380D02*
X131937142Y-76922380D01*
X131270476Y-77922380D01*
X131937142Y-77922380D01*
X132222857Y-76922380D02*
X132841904Y-76922380D01*
X132508571Y-77303333D01*
X132651428Y-77303333D01*
X132746666Y-77350952D01*
X132794285Y-77398571D01*
X132841904Y-77493809D01*
X132841904Y-77731904D01*
X132794285Y-77827142D01*
X132746666Y-77874761D01*
X132651428Y-77922380D01*
X132365714Y-77922380D01*
X132270476Y-77874761D01*
X132222857Y-77827142D01*
%TO.C,Z4*%
X161750476Y-76922380D02*
X162417142Y-76922380D01*
X161750476Y-77922380D01*
X162417142Y-77922380D01*
X163226666Y-77255714D02*
X163226666Y-77922380D01*
X162988571Y-76874761D02*
X162750476Y-77589047D01*
X163369523Y-77589047D01*
%TO.C,Z1*%
X70310476Y-76922380D02*
X70977142Y-76922380D01*
X70310476Y-77922380D01*
X70977142Y-77922380D01*
X71881904Y-77922380D02*
X71310476Y-77922380D01*
X71596190Y-77922380D02*
X71596190Y-76922380D01*
X71500952Y-77065238D01*
X71405714Y-77160476D01*
X71310476Y-77208095D01*
%TO.C,J1*%
X172131380Y-122645633D02*
X172845666Y-122645633D01*
X172988523Y-122693252D01*
X173083761Y-122788490D01*
X173131380Y-122931347D01*
X173131380Y-123026585D01*
X173131380Y-121645633D02*
X173131380Y-122217061D01*
X173131380Y-121931347D02*
X172131380Y-121931347D01*
X172274238Y-122026585D01*
X172369476Y-122121823D01*
X172417095Y-122217061D01*
D12*
%TO.C,Z5*%
X61901663Y-85004281D02*
X62748330Y-85004281D01*
X61901663Y-86274281D01*
X62748330Y-86274281D01*
X63836901Y-85004281D02*
X63232139Y-85004281D01*
X63171663Y-85609043D01*
X63232139Y-85548567D01*
X63353092Y-85488091D01*
X63655473Y-85488091D01*
X63776425Y-85548567D01*
X63836901Y-85609043D01*
X63897378Y-85729996D01*
X63897378Y-86032377D01*
X63836901Y-86153329D01*
X63776425Y-86213805D01*
X63655473Y-86274281D01*
X63353092Y-86274281D01*
X63232139Y-86213805D01*
X63171663Y-86153329D01*
%TO.C,Z6*%
X92506700Y-85500704D02*
X93353367Y-85500704D01*
X92506700Y-86770704D01*
X93353367Y-86770704D01*
X94381462Y-85500704D02*
X94139557Y-85500704D01*
X94018605Y-85561181D01*
X93958129Y-85621657D01*
X93837176Y-85803085D01*
X93776700Y-86044990D01*
X93776700Y-86528800D01*
X93837176Y-86649752D01*
X93897653Y-86710228D01*
X94018605Y-86770704D01*
X94260510Y-86770704D01*
X94381462Y-86710228D01*
X94441938Y-86649752D01*
X94502415Y-86528800D01*
X94502415Y-86226419D01*
X94441938Y-86105466D01*
X94381462Y-86044990D01*
X94260510Y-85984514D01*
X94018605Y-85984514D01*
X93897653Y-86044990D01*
X93837176Y-86105466D01*
X93776700Y-86226419D01*
%TO.C,Z8*%
X153752706Y-85189882D02*
X154599373Y-85189882D01*
X153752706Y-86459882D01*
X154599373Y-86459882D01*
X155264611Y-85734168D02*
X155143659Y-85673692D01*
X155083182Y-85613216D01*
X155022706Y-85492263D01*
X155022706Y-85431787D01*
X155083182Y-85310835D01*
X155143659Y-85250359D01*
X155264611Y-85189882D01*
X155506516Y-85189882D01*
X155627468Y-85250359D01*
X155687944Y-85310835D01*
X155748421Y-85431787D01*
X155748421Y-85492263D01*
X155687944Y-85613216D01*
X155627468Y-85673692D01*
X155506516Y-85734168D01*
X155264611Y-85734168D01*
X155143659Y-85794644D01*
X155083182Y-85855120D01*
X155022706Y-85976073D01*
X155022706Y-86217978D01*
X155083182Y-86338930D01*
X155143659Y-86399406D01*
X155264611Y-86459882D01*
X155506516Y-86459882D01*
X155627468Y-86399406D01*
X155687944Y-86338930D01*
X155748421Y-86217978D01*
X155748421Y-85976073D01*
X155687944Y-85855120D01*
X155627468Y-85794644D01*
X155506516Y-85734168D01*
D10*
%TO.C,C8*%
X163669859Y-96462592D02*
X163622240Y-96510211D01*
X163479383Y-96557830D01*
X163384145Y-96557830D01*
X163241287Y-96510211D01*
X163146049Y-96414973D01*
X163098430Y-96319735D01*
X163050811Y-96129259D01*
X163050811Y-95986402D01*
X163098430Y-95795926D01*
X163146049Y-95700688D01*
X163241287Y-95605450D01*
X163384145Y-95557830D01*
X163479383Y-95557830D01*
X163622240Y-95605450D01*
X163669859Y-95653069D01*
X164241287Y-95986402D02*
X164146049Y-95938783D01*
X164098430Y-95891164D01*
X164050811Y-95795926D01*
X164050811Y-95748307D01*
X164098430Y-95653069D01*
X164146049Y-95605450D01*
X164241287Y-95557830D01*
X164431764Y-95557830D01*
X164527002Y-95605450D01*
X164574621Y-95653069D01*
X164622240Y-95748307D01*
X164622240Y-95795926D01*
X164574621Y-95891164D01*
X164527002Y-95938783D01*
X164431764Y-95986402D01*
X164241287Y-95986402D01*
X164146049Y-96034021D01*
X164098430Y-96081640D01*
X164050811Y-96176878D01*
X164050811Y-96367354D01*
X164098430Y-96462592D01*
X164146049Y-96510211D01*
X164241287Y-96557830D01*
X164431764Y-96557830D01*
X164527002Y-96510211D01*
X164574621Y-96462592D01*
X164622240Y-96367354D01*
X164622240Y-96176878D01*
X164574621Y-96081640D01*
X164527002Y-96034021D01*
X164431764Y-95986402D01*
%TO.C,Q4*%
X88923161Y-101627419D02*
X88827923Y-101579800D01*
X88732685Y-101484561D01*
X88589828Y-101341704D01*
X88494590Y-101294085D01*
X88399352Y-101294085D01*
X88446971Y-101532180D02*
X88351733Y-101484561D01*
X88256495Y-101389323D01*
X88208876Y-101198847D01*
X88208876Y-100865514D01*
X88256495Y-100675038D01*
X88351733Y-100579800D01*
X88446971Y-100532180D01*
X88637447Y-100532180D01*
X88732685Y-100579800D01*
X88827923Y-100675038D01*
X88875542Y-100865514D01*
X88875542Y-101198847D01*
X88827923Y-101389323D01*
X88732685Y-101484561D01*
X88637447Y-101532180D01*
X88446971Y-101532180D01*
X89732685Y-100865514D02*
X89732685Y-101532180D01*
X89494590Y-100484561D02*
X89256495Y-101198847D01*
X89875542Y-101198847D01*
%TO.C,R23*%
X77859110Y-106236475D02*
X77525777Y-105760285D01*
X77287682Y-106236475D02*
X77287682Y-105236475D01*
X77668634Y-105236475D01*
X77763872Y-105284095D01*
X77811491Y-105331714D01*
X77859110Y-105426952D01*
X77859110Y-105569809D01*
X77811491Y-105665047D01*
X77763872Y-105712666D01*
X77668634Y-105760285D01*
X77287682Y-105760285D01*
X78240063Y-105331714D02*
X78287682Y-105284095D01*
X78382920Y-105236475D01*
X78621015Y-105236475D01*
X78716253Y-105284095D01*
X78763872Y-105331714D01*
X78811491Y-105426952D01*
X78811491Y-105522190D01*
X78763872Y-105665047D01*
X78192444Y-106236475D01*
X78811491Y-106236475D01*
X79144825Y-105236475D02*
X79763872Y-105236475D01*
X79430539Y-105617428D01*
X79573396Y-105617428D01*
X79668634Y-105665047D01*
X79716253Y-105712666D01*
X79763872Y-105807904D01*
X79763872Y-106045999D01*
X79716253Y-106141237D01*
X79668634Y-106188856D01*
X79573396Y-106236475D01*
X79287682Y-106236475D01*
X79192444Y-106188856D01*
X79144825Y-106141237D01*
%TO.C,R31*%
X90919480Y-115037357D02*
X90443290Y-115370690D01*
X90919480Y-115608785D02*
X89919480Y-115608785D01*
X89919480Y-115227833D01*
X89967100Y-115132595D01*
X90014719Y-115084976D01*
X90109957Y-115037357D01*
X90252814Y-115037357D01*
X90348052Y-115084976D01*
X90395671Y-115132595D01*
X90443290Y-115227833D01*
X90443290Y-115608785D01*
X89919480Y-114704023D02*
X89919480Y-114084976D01*
X90300433Y-114418309D01*
X90300433Y-114275452D01*
X90348052Y-114180214D01*
X90395671Y-114132595D01*
X90490909Y-114084976D01*
X90729004Y-114084976D01*
X90824242Y-114132595D01*
X90871861Y-114180214D01*
X90919480Y-114275452D01*
X90919480Y-114561166D01*
X90871861Y-114656404D01*
X90824242Y-114704023D01*
X90919480Y-113132595D02*
X90919480Y-113704023D01*
X90919480Y-113418309D02*
X89919480Y-113418309D01*
X90062338Y-113513547D01*
X90157576Y-113608785D01*
X90205195Y-113704023D01*
%TO.C,R16*%
X132024119Y-91757193D02*
X131690786Y-91281003D01*
X131452691Y-91757193D02*
X131452691Y-90757193D01*
X131833643Y-90757193D01*
X131928881Y-90804813D01*
X131976500Y-90852432D01*
X132024119Y-90947670D01*
X132024119Y-91090527D01*
X131976500Y-91185765D01*
X131928881Y-91233384D01*
X131833643Y-91281003D01*
X131452691Y-91281003D01*
X132976500Y-91757193D02*
X132405072Y-91757193D01*
X132690786Y-91757193D02*
X132690786Y-90757193D01*
X132595548Y-90900051D01*
X132500310Y-90995289D01*
X132405072Y-91042908D01*
X133833643Y-90757193D02*
X133643167Y-90757193D01*
X133547929Y-90804813D01*
X133500310Y-90852432D01*
X133405072Y-90995289D01*
X133357453Y-91185765D01*
X133357453Y-91566717D01*
X133405072Y-91661955D01*
X133452691Y-91709574D01*
X133547929Y-91757193D01*
X133738405Y-91757193D01*
X133833643Y-91709574D01*
X133881262Y-91661955D01*
X133928881Y-91566717D01*
X133928881Y-91328622D01*
X133881262Y-91233384D01*
X133833643Y-91185765D01*
X133738405Y-91138146D01*
X133547929Y-91138146D01*
X133452691Y-91185765D01*
X133405072Y-91233384D01*
X133357453Y-91328622D01*
%TO.C,Q2*%
X78028075Y-85741667D02*
X77980456Y-85836905D01*
X77885217Y-85932143D01*
X77742360Y-86075000D01*
X77694741Y-86170238D01*
X77694741Y-86265476D01*
X77932836Y-86217857D02*
X77885217Y-86313095D01*
X77789979Y-86408333D01*
X77599503Y-86455952D01*
X77266170Y-86455952D01*
X77075694Y-86408333D01*
X76980456Y-86313095D01*
X76932836Y-86217857D01*
X76932836Y-86027381D01*
X76980456Y-85932143D01*
X77075694Y-85836905D01*
X77266170Y-85789286D01*
X77599503Y-85789286D01*
X77789979Y-85836905D01*
X77885217Y-85932143D01*
X77932836Y-86027381D01*
X77932836Y-86217857D01*
X77028075Y-85408333D02*
X76980456Y-85360714D01*
X76932836Y-85265476D01*
X76932836Y-85027381D01*
X76980456Y-84932143D01*
X77028075Y-84884524D01*
X77123313Y-84836905D01*
X77218551Y-84836905D01*
X77361408Y-84884524D01*
X77932836Y-85455952D01*
X77932836Y-84836905D01*
%TO.C,R24*%
X77701211Y-109217480D02*
X77367878Y-108741290D01*
X77129783Y-109217480D02*
X77129783Y-108217480D01*
X77510735Y-108217480D01*
X77605973Y-108265100D01*
X77653592Y-108312719D01*
X77701211Y-108407957D01*
X77701211Y-108550814D01*
X77653592Y-108646052D01*
X77605973Y-108693671D01*
X77510735Y-108741290D01*
X77129783Y-108741290D01*
X78082164Y-108312719D02*
X78129783Y-108265100D01*
X78225021Y-108217480D01*
X78463116Y-108217480D01*
X78558354Y-108265100D01*
X78605973Y-108312719D01*
X78653592Y-108407957D01*
X78653592Y-108503195D01*
X78605973Y-108646052D01*
X78034545Y-109217480D01*
X78653592Y-109217480D01*
X79510735Y-108550814D02*
X79510735Y-109217480D01*
X79272640Y-108169861D02*
X79034545Y-108884147D01*
X79653592Y-108884147D01*
%TO.C,R5*%
X89710833Y-76811280D02*
X89377500Y-76335090D01*
X89139404Y-76811280D02*
X89139404Y-75811280D01*
X89520357Y-75811280D01*
X89615595Y-75858900D01*
X89663214Y-75906519D01*
X89710833Y-76001757D01*
X89710833Y-76144614D01*
X89663214Y-76239852D01*
X89615595Y-76287471D01*
X89520357Y-76335090D01*
X89139404Y-76335090D01*
X90615595Y-75811280D02*
X90139404Y-75811280D01*
X90091785Y-76287471D01*
X90139404Y-76239852D01*
X90234642Y-76192233D01*
X90472738Y-76192233D01*
X90567976Y-76239852D01*
X90615595Y-76287471D01*
X90663214Y-76382709D01*
X90663214Y-76620804D01*
X90615595Y-76716042D01*
X90567976Y-76763661D01*
X90472738Y-76811280D01*
X90234642Y-76811280D01*
X90139404Y-76763661D01*
X90091785Y-76716042D01*
%TO.C,RV1*%
X113361135Y-95276079D02*
X113027802Y-94799889D01*
X112789707Y-95276079D02*
X112789707Y-94276079D01*
X113170659Y-94276079D01*
X113265897Y-94323699D01*
X113313516Y-94371318D01*
X113361135Y-94466556D01*
X113361135Y-94609413D01*
X113313516Y-94704651D01*
X113265897Y-94752270D01*
X113170659Y-94799889D01*
X112789707Y-94799889D01*
X113646850Y-94276079D02*
X113980183Y-95276079D01*
X114313516Y-94276079D01*
X115170659Y-95276079D02*
X114599231Y-95276079D01*
X114884945Y-95276079D02*
X114884945Y-94276079D01*
X114789707Y-94418937D01*
X114694469Y-94514175D01*
X114599231Y-94561794D01*
%TO.C,J4*%
X121813280Y-90577333D02*
X122527566Y-90577333D01*
X122670423Y-90624952D01*
X122765661Y-90720190D01*
X122813280Y-90863047D01*
X122813280Y-90958285D01*
X122146614Y-89672571D02*
X122813280Y-89672571D01*
X121765661Y-89910666D02*
X122479947Y-90148761D01*
X122479947Y-89529714D01*
%TO.C,R15*%
X127399599Y-91714577D02*
X127066266Y-91238387D01*
X126828171Y-91714577D02*
X126828171Y-90714577D01*
X127209123Y-90714577D01*
X127304361Y-90762197D01*
X127351980Y-90809816D01*
X127399599Y-90905054D01*
X127399599Y-91047911D01*
X127351980Y-91143149D01*
X127304361Y-91190768D01*
X127209123Y-91238387D01*
X126828171Y-91238387D01*
X128351980Y-91714577D02*
X127780552Y-91714577D01*
X128066266Y-91714577D02*
X128066266Y-90714577D01*
X127971028Y-90857435D01*
X127875790Y-90952673D01*
X127780552Y-91000292D01*
X129256742Y-90714577D02*
X128780552Y-90714577D01*
X128732933Y-91190768D01*
X128780552Y-91143149D01*
X128875790Y-91095530D01*
X129113885Y-91095530D01*
X129209123Y-91143149D01*
X129256742Y-91190768D01*
X129304361Y-91286006D01*
X129304361Y-91524101D01*
X129256742Y-91619339D01*
X129209123Y-91666958D01*
X129113885Y-91714577D01*
X128875790Y-91714577D01*
X128780552Y-91666958D01*
X128732933Y-91619339D01*
%TO.C,R2*%
X58593910Y-83467326D02*
X58260577Y-82991136D01*
X58022481Y-83467326D02*
X58022481Y-82467326D01*
X58403434Y-82467326D01*
X58498672Y-82514946D01*
X58546291Y-82562565D01*
X58593910Y-82657803D01*
X58593910Y-82800660D01*
X58546291Y-82895898D01*
X58498672Y-82943517D01*
X58403434Y-82991136D01*
X58022481Y-82991136D01*
X58974862Y-82562565D02*
X59022481Y-82514946D01*
X59117719Y-82467326D01*
X59355815Y-82467326D01*
X59451053Y-82514946D01*
X59498672Y-82562565D01*
X59546291Y-82657803D01*
X59546291Y-82753041D01*
X59498672Y-82895898D01*
X58927243Y-83467326D01*
X59546291Y-83467326D01*
%TO.C,R17*%
X182362680Y-70115657D02*
X181886490Y-70448990D01*
X182362680Y-70687085D02*
X181362680Y-70687085D01*
X181362680Y-70306133D01*
X181410300Y-70210895D01*
X181457919Y-70163276D01*
X181553157Y-70115657D01*
X181696014Y-70115657D01*
X181791252Y-70163276D01*
X181838871Y-70210895D01*
X181886490Y-70306133D01*
X181886490Y-70687085D01*
X182362680Y-69163276D02*
X182362680Y-69734704D01*
X182362680Y-69448990D02*
X181362680Y-69448990D01*
X181505538Y-69544228D01*
X181600776Y-69639466D01*
X181648395Y-69734704D01*
X181362680Y-68829942D02*
X181362680Y-68163276D01*
X182362680Y-68591847D01*
%TO.C,R4*%
X108658033Y-118587180D02*
X108324700Y-118110990D01*
X108086604Y-118587180D02*
X108086604Y-117587180D01*
X108467557Y-117587180D01*
X108562795Y-117634800D01*
X108610414Y-117682419D01*
X108658033Y-117777657D01*
X108658033Y-117920514D01*
X108610414Y-118015752D01*
X108562795Y-118063371D01*
X108467557Y-118110990D01*
X108086604Y-118110990D01*
X109515176Y-117920514D02*
X109515176Y-118587180D01*
X109277080Y-117539561D02*
X109038985Y-118253847D01*
X109658033Y-118253847D01*
%TO.C,R18*%
X174827548Y-89979575D02*
X174494215Y-89503385D01*
X174256120Y-89979575D02*
X174256120Y-88979575D01*
X174637072Y-88979575D01*
X174732310Y-89027195D01*
X174779929Y-89074814D01*
X174827548Y-89170052D01*
X174827548Y-89312909D01*
X174779929Y-89408147D01*
X174732310Y-89455766D01*
X174637072Y-89503385D01*
X174256120Y-89503385D01*
X175779929Y-89979575D02*
X175208501Y-89979575D01*
X175494215Y-89979575D02*
X175494215Y-88979575D01*
X175398977Y-89122433D01*
X175303739Y-89217671D01*
X175208501Y-89265290D01*
X176351358Y-89408147D02*
X176256120Y-89360528D01*
X176208501Y-89312909D01*
X176160882Y-89217671D01*
X176160882Y-89170052D01*
X176208501Y-89074814D01*
X176256120Y-89027195D01*
X176351358Y-88979575D01*
X176541834Y-88979575D01*
X176637072Y-89027195D01*
X176684691Y-89074814D01*
X176732310Y-89170052D01*
X176732310Y-89217671D01*
X176684691Y-89312909D01*
X176637072Y-89360528D01*
X176541834Y-89408147D01*
X176351358Y-89408147D01*
X176256120Y-89455766D01*
X176208501Y-89503385D01*
X176160882Y-89598623D01*
X176160882Y-89789099D01*
X176208501Y-89884337D01*
X176256120Y-89931956D01*
X176351358Y-89979575D01*
X176541834Y-89979575D01*
X176637072Y-89931956D01*
X176684691Y-89884337D01*
X176732310Y-89789099D01*
X176732310Y-89598623D01*
X176684691Y-89503385D01*
X176637072Y-89455766D01*
X176541834Y-89408147D01*
%TO.C,R29*%
X141868142Y-116148480D02*
X141534809Y-115672290D01*
X141296714Y-116148480D02*
X141296714Y-115148480D01*
X141677666Y-115148480D01*
X141772904Y-115196100D01*
X141820523Y-115243719D01*
X141868142Y-115338957D01*
X141868142Y-115481814D01*
X141820523Y-115577052D01*
X141772904Y-115624671D01*
X141677666Y-115672290D01*
X141296714Y-115672290D01*
X142249095Y-115243719D02*
X142296714Y-115196100D01*
X142391952Y-115148480D01*
X142630047Y-115148480D01*
X142725285Y-115196100D01*
X142772904Y-115243719D01*
X142820523Y-115338957D01*
X142820523Y-115434195D01*
X142772904Y-115577052D01*
X142201476Y-116148480D01*
X142820523Y-116148480D01*
X143296714Y-116148480D02*
X143487190Y-116148480D01*
X143582428Y-116100861D01*
X143630047Y-116053242D01*
X143725285Y-115910385D01*
X143772904Y-115719909D01*
X143772904Y-115338957D01*
X143725285Y-115243719D01*
X143677666Y-115196100D01*
X143582428Y-115148480D01*
X143391952Y-115148480D01*
X143296714Y-115196100D01*
X143249095Y-115243719D01*
X143201476Y-115338957D01*
X143201476Y-115577052D01*
X143249095Y-115672290D01*
X143296714Y-115719909D01*
X143391952Y-115767528D01*
X143582428Y-115767528D01*
X143677666Y-115719909D01*
X143725285Y-115672290D01*
X143772904Y-115577052D01*
%TO.C,R25*%
X73942280Y-113441357D02*
X73466090Y-113774690D01*
X73942280Y-114012785D02*
X72942280Y-114012785D01*
X72942280Y-113631833D01*
X72989900Y-113536595D01*
X73037519Y-113488976D01*
X73132757Y-113441357D01*
X73275614Y-113441357D01*
X73370852Y-113488976D01*
X73418471Y-113536595D01*
X73466090Y-113631833D01*
X73466090Y-114012785D01*
X73037519Y-113060404D02*
X72989900Y-113012785D01*
X72942280Y-112917547D01*
X72942280Y-112679452D01*
X72989900Y-112584214D01*
X73037519Y-112536595D01*
X73132757Y-112488976D01*
X73227995Y-112488976D01*
X73370852Y-112536595D01*
X73942280Y-113108023D01*
X73942280Y-112488976D01*
X72942280Y-111584214D02*
X72942280Y-112060404D01*
X73418471Y-112108023D01*
X73370852Y-112060404D01*
X73323233Y-111965166D01*
X73323233Y-111727071D01*
X73370852Y-111631833D01*
X73418471Y-111584214D01*
X73513709Y-111536595D01*
X73751804Y-111536595D01*
X73847042Y-111584214D01*
X73894661Y-111631833D01*
X73942280Y-111727071D01*
X73942280Y-111965166D01*
X73894661Y-112060404D01*
X73847042Y-112108023D01*
%TO.C,R33*%
X100500180Y-115037357D02*
X100023990Y-115370690D01*
X100500180Y-115608785D02*
X99500180Y-115608785D01*
X99500180Y-115227833D01*
X99547800Y-115132595D01*
X99595419Y-115084976D01*
X99690657Y-115037357D01*
X99833514Y-115037357D01*
X99928752Y-115084976D01*
X99976371Y-115132595D01*
X100023990Y-115227833D01*
X100023990Y-115608785D01*
X99500180Y-114704023D02*
X99500180Y-114084976D01*
X99881133Y-114418309D01*
X99881133Y-114275452D01*
X99928752Y-114180214D01*
X99976371Y-114132595D01*
X100071609Y-114084976D01*
X100309704Y-114084976D01*
X100404942Y-114132595D01*
X100452561Y-114180214D01*
X100500180Y-114275452D01*
X100500180Y-114561166D01*
X100452561Y-114656404D01*
X100404942Y-114704023D01*
X99500180Y-113751642D02*
X99500180Y-113132595D01*
X99881133Y-113465928D01*
X99881133Y-113323071D01*
X99928752Y-113227833D01*
X99976371Y-113180214D01*
X100071609Y-113132595D01*
X100309704Y-113132595D01*
X100404942Y-113180214D01*
X100452561Y-113227833D01*
X100500180Y-113323071D01*
X100500180Y-113608785D01*
X100452561Y-113704023D01*
X100404942Y-113751642D01*
%TO.C,R14*%
X137618347Y-91815473D02*
X137285014Y-91339283D01*
X137046919Y-91815473D02*
X137046919Y-90815473D01*
X137427871Y-90815473D01*
X137523109Y-90863093D01*
X137570728Y-90910712D01*
X137618347Y-91005950D01*
X137618347Y-91148807D01*
X137570728Y-91244045D01*
X137523109Y-91291664D01*
X137427871Y-91339283D01*
X137046919Y-91339283D01*
X138570728Y-91815473D02*
X137999300Y-91815473D01*
X138285014Y-91815473D02*
X138285014Y-90815473D01*
X138189776Y-90958331D01*
X138094538Y-91053569D01*
X137999300Y-91101188D01*
X139427871Y-91148807D02*
X139427871Y-91815473D01*
X139189776Y-90767854D02*
X138951681Y-91482140D01*
X139570728Y-91482140D01*
%TO.C,Q11*%
X170890421Y-86351326D02*
X170842802Y-86446564D01*
X170747563Y-86541802D01*
X170604706Y-86684659D01*
X170557087Y-86779898D01*
X170557087Y-86875136D01*
X170795182Y-86827517D02*
X170747563Y-86922755D01*
X170652325Y-87017993D01*
X170461849Y-87065612D01*
X170128516Y-87065612D01*
X169938040Y-87017993D01*
X169842802Y-86922755D01*
X169795182Y-86827517D01*
X169795182Y-86637040D01*
X169842802Y-86541802D01*
X169938040Y-86446564D01*
X170128516Y-86398945D01*
X170461849Y-86398945D01*
X170652325Y-86446564D01*
X170747563Y-86541802D01*
X170795182Y-86637040D01*
X170795182Y-86827517D01*
X170795182Y-85446564D02*
X170795182Y-86017993D01*
X170795182Y-85732278D02*
X169795182Y-85732278D01*
X169938040Y-85827517D01*
X170033278Y-85922755D01*
X170080897Y-86017993D01*
X170795182Y-84494183D02*
X170795182Y-85065612D01*
X170795182Y-84779898D02*
X169795182Y-84779898D01*
X169938040Y-84875136D01*
X170033278Y-84970374D01*
X170080897Y-85065612D01*
%TO.C,R27*%
X141868142Y-106569780D02*
X141534809Y-106093590D01*
X141296714Y-106569780D02*
X141296714Y-105569780D01*
X141677666Y-105569780D01*
X141772904Y-105617400D01*
X141820523Y-105665019D01*
X141868142Y-105760257D01*
X141868142Y-105903114D01*
X141820523Y-105998352D01*
X141772904Y-106045971D01*
X141677666Y-106093590D01*
X141296714Y-106093590D01*
X142249095Y-105665019D02*
X142296714Y-105617400D01*
X142391952Y-105569780D01*
X142630047Y-105569780D01*
X142725285Y-105617400D01*
X142772904Y-105665019D01*
X142820523Y-105760257D01*
X142820523Y-105855495D01*
X142772904Y-105998352D01*
X142201476Y-106569780D01*
X142820523Y-106569780D01*
X143153857Y-105569780D02*
X143820523Y-105569780D01*
X143391952Y-106569780D01*
%TO.C,D4*%
X119362204Y-109743780D02*
X119362204Y-108743780D01*
X119600300Y-108743780D01*
X119743157Y-108791400D01*
X119838395Y-108886638D01*
X119886014Y-108981876D01*
X119933633Y-109172352D01*
X119933633Y-109315209D01*
X119886014Y-109505685D01*
X119838395Y-109600923D01*
X119743157Y-109696161D01*
X119600300Y-109743780D01*
X119362204Y-109743780D01*
X120790776Y-109077114D02*
X120790776Y-109743780D01*
X120552680Y-108696161D02*
X120314585Y-109410447D01*
X120933633Y-109410447D01*
X114758395Y-110113780D02*
X114758395Y-109113780D01*
X115329823Y-110113780D02*
X114901252Y-109542352D01*
X115329823Y-109113780D02*
X114758395Y-109685209D01*
%TO.C,D2*%
X119362204Y-114653180D02*
X119362204Y-113653180D01*
X119600300Y-113653180D01*
X119743157Y-113700800D01*
X119838395Y-113796038D01*
X119886014Y-113891276D01*
X119933633Y-114081752D01*
X119933633Y-114224609D01*
X119886014Y-114415085D01*
X119838395Y-114510323D01*
X119743157Y-114605561D01*
X119600300Y-114653180D01*
X119362204Y-114653180D01*
X120314585Y-113748419D02*
X120362204Y-113700800D01*
X120457442Y-113653180D01*
X120695538Y-113653180D01*
X120790776Y-113700800D01*
X120838395Y-113748419D01*
X120886014Y-113843657D01*
X120886014Y-113938895D01*
X120838395Y-114081752D01*
X120266966Y-114653180D01*
X120886014Y-114653180D01*
X114758395Y-115023180D02*
X114758395Y-114023180D01*
X115329823Y-115023180D02*
X114901252Y-114451752D01*
X115329823Y-114023180D02*
X114758395Y-114594609D01*
D12*
%TO.C,S1*%
X124198833Y-120487976D02*
X124380262Y-120548452D01*
X124682643Y-120548452D01*
X124803595Y-120487976D01*
X124864072Y-120427500D01*
X124924548Y-120306548D01*
X124924548Y-120185595D01*
X124864072Y-120064643D01*
X124803595Y-120004167D01*
X124682643Y-119943690D01*
X124440738Y-119883214D01*
X124319786Y-119822738D01*
X124259310Y-119762262D01*
X124198833Y-119641309D01*
X124198833Y-119520357D01*
X124259310Y-119399405D01*
X124319786Y-119338929D01*
X124440738Y-119278452D01*
X124743119Y-119278452D01*
X124924548Y-119338929D01*
X126134072Y-120548452D02*
X125408357Y-120548452D01*
X125771214Y-120548452D02*
X125771214Y-119278452D01*
X125650262Y-119459881D01*
X125529310Y-119580833D01*
X125408357Y-119641309D01*
D10*
%TO.C,R9*%
X119685533Y-71216080D02*
X119352200Y-70739890D01*
X119114104Y-71216080D02*
X119114104Y-70216080D01*
X119495057Y-70216080D01*
X119590295Y-70263700D01*
X119637914Y-70311319D01*
X119685533Y-70406557D01*
X119685533Y-70549414D01*
X119637914Y-70644652D01*
X119590295Y-70692271D01*
X119495057Y-70739890D01*
X119114104Y-70739890D01*
X120161723Y-71216080D02*
X120352200Y-71216080D01*
X120447438Y-71168461D01*
X120495057Y-71120842D01*
X120590295Y-70977985D01*
X120637914Y-70787509D01*
X120637914Y-70406557D01*
X120590295Y-70311319D01*
X120542676Y-70263700D01*
X120447438Y-70216080D01*
X120256961Y-70216080D01*
X120161723Y-70263700D01*
X120114104Y-70311319D01*
X120066485Y-70406557D01*
X120066485Y-70644652D01*
X120114104Y-70739890D01*
X120161723Y-70787509D01*
X120256961Y-70835128D01*
X120447438Y-70835128D01*
X120542676Y-70787509D01*
X120590295Y-70739890D01*
X120637914Y-70644652D01*
%TO.C,R13*%
X150538142Y-73785180D02*
X150204809Y-73308990D01*
X149966714Y-73785180D02*
X149966714Y-72785180D01*
X150347666Y-72785180D01*
X150442904Y-72832800D01*
X150490523Y-72880419D01*
X150538142Y-72975657D01*
X150538142Y-73118514D01*
X150490523Y-73213752D01*
X150442904Y-73261371D01*
X150347666Y-73308990D01*
X149966714Y-73308990D01*
X151490523Y-73785180D02*
X150919095Y-73785180D01*
X151204809Y-73785180D02*
X151204809Y-72785180D01*
X151109571Y-72928038D01*
X151014333Y-73023276D01*
X150919095Y-73070895D01*
X151823857Y-72785180D02*
X152442904Y-72785180D01*
X152109571Y-73166133D01*
X152252428Y-73166133D01*
X152347666Y-73213752D01*
X152395285Y-73261371D01*
X152442904Y-73356609D01*
X152442904Y-73594704D01*
X152395285Y-73689942D01*
X152347666Y-73737561D01*
X152252428Y-73785180D01*
X151966714Y-73785180D01*
X151871476Y-73737561D01*
X151823857Y-73689942D01*
%TO.C,R6*%
X79035519Y-91739013D02*
X78702186Y-91262823D01*
X78464090Y-91739013D02*
X78464090Y-90739013D01*
X78845043Y-90739013D01*
X78940281Y-90786633D01*
X78987900Y-90834252D01*
X79035519Y-90929490D01*
X79035519Y-91072347D01*
X78987900Y-91167585D01*
X78940281Y-91215204D01*
X78845043Y-91262823D01*
X78464090Y-91262823D01*
X79892662Y-90739013D02*
X79702186Y-90739013D01*
X79606947Y-90786633D01*
X79559328Y-90834252D01*
X79464090Y-90977109D01*
X79416471Y-91167585D01*
X79416471Y-91548537D01*
X79464090Y-91643775D01*
X79511709Y-91691394D01*
X79606947Y-91739013D01*
X79797424Y-91739013D01*
X79892662Y-91691394D01*
X79940281Y-91643775D01*
X79987900Y-91548537D01*
X79987900Y-91310442D01*
X79940281Y-91215204D01*
X79892662Y-91167585D01*
X79797424Y-91119966D01*
X79606947Y-91119966D01*
X79511709Y-91167585D01*
X79464090Y-91215204D01*
X79416471Y-91310442D01*
%TO.C,R11*%
X98323857Y-91739013D02*
X97990524Y-91262823D01*
X97752429Y-91739013D02*
X97752429Y-90739013D01*
X98133381Y-90739013D01*
X98228619Y-90786633D01*
X98276238Y-90834252D01*
X98323857Y-90929490D01*
X98323857Y-91072347D01*
X98276238Y-91167585D01*
X98228619Y-91215204D01*
X98133381Y-91262823D01*
X97752429Y-91262823D01*
X99276238Y-91739013D02*
X98704810Y-91739013D01*
X98990524Y-91739013D02*
X98990524Y-90739013D01*
X98895286Y-90881871D01*
X98800048Y-90977109D01*
X98704810Y-91024728D01*
X100228619Y-91739013D02*
X99657191Y-91739013D01*
X99942905Y-91739013D02*
X99942905Y-90739013D01*
X99847667Y-90881871D01*
X99752429Y-90977109D01*
X99657191Y-91024728D01*
%TO.C,R7*%
X68566289Y-91739013D02*
X68232956Y-91262823D01*
X67994860Y-91739013D02*
X67994860Y-90739013D01*
X68375813Y-90739013D01*
X68471051Y-90786633D01*
X68518670Y-90834252D01*
X68566289Y-90929490D01*
X68566289Y-91072347D01*
X68518670Y-91167585D01*
X68471051Y-91215204D01*
X68375813Y-91262823D01*
X67994860Y-91262823D01*
X68899622Y-90739013D02*
X69566289Y-90739013D01*
X69137717Y-91739013D01*
D12*
%TO.C,U2*%
X170544760Y-105502590D02*
X170544760Y-106530686D01*
X170605237Y-106651638D01*
X170665713Y-106712114D01*
X170786665Y-106772590D01*
X171028570Y-106772590D01*
X171149522Y-106712114D01*
X171209999Y-106651638D01*
X171270475Y-106530686D01*
X171270475Y-105502590D01*
X171814760Y-105623543D02*
X171875237Y-105563067D01*
X171996189Y-105502590D01*
X172298570Y-105502590D01*
X172419522Y-105563067D01*
X172479999Y-105623543D01*
X172540475Y-105744495D01*
X172540475Y-105865447D01*
X172479999Y-106046876D01*
X171754284Y-106772590D01*
X172540475Y-106772590D01*
D10*
%TO.C,Q10*%
X99676671Y-101614319D02*
X99581433Y-101566700D01*
X99486195Y-101471461D01*
X99343338Y-101328604D01*
X99248100Y-101280985D01*
X99152861Y-101280985D01*
X99200480Y-101519080D02*
X99105242Y-101471461D01*
X99010004Y-101376223D01*
X98962385Y-101185747D01*
X98962385Y-100852414D01*
X99010004Y-100661938D01*
X99105242Y-100566700D01*
X99200480Y-100519080D01*
X99390957Y-100519080D01*
X99486195Y-100566700D01*
X99581433Y-100661938D01*
X99629052Y-100852414D01*
X99629052Y-101185747D01*
X99581433Y-101376223D01*
X99486195Y-101471461D01*
X99390957Y-101519080D01*
X99200480Y-101519080D01*
X100581433Y-101519080D02*
X100010004Y-101519080D01*
X100295719Y-101519080D02*
X100295719Y-100519080D01*
X100200480Y-100661938D01*
X100105242Y-100757176D01*
X100010004Y-100804795D01*
X101200480Y-100519080D02*
X101295719Y-100519080D01*
X101390957Y-100566700D01*
X101438576Y-100614319D01*
X101486195Y-100709557D01*
X101533814Y-100900033D01*
X101533814Y-101138128D01*
X101486195Y-101328604D01*
X101438576Y-101423842D01*
X101390957Y-101471461D01*
X101295719Y-101519080D01*
X101200480Y-101519080D01*
X101105242Y-101471461D01*
X101057623Y-101423842D01*
X101010004Y-101328604D01*
X100962385Y-101138128D01*
X100962385Y-100900033D01*
X101010004Y-100709557D01*
X101057623Y-100614319D01*
X101105242Y-100566700D01*
X101200480Y-100519080D01*
%TO.C,D8*%
X119362204Y-99925080D02*
X119362204Y-98925080D01*
X119600300Y-98925080D01*
X119743157Y-98972700D01*
X119838395Y-99067938D01*
X119886014Y-99163176D01*
X119933633Y-99353652D01*
X119933633Y-99496509D01*
X119886014Y-99686985D01*
X119838395Y-99782223D01*
X119743157Y-99877461D01*
X119600300Y-99925080D01*
X119362204Y-99925080D01*
X120505061Y-99353652D02*
X120409823Y-99306033D01*
X120362204Y-99258414D01*
X120314585Y-99163176D01*
X120314585Y-99115557D01*
X120362204Y-99020319D01*
X120409823Y-98972700D01*
X120505061Y-98925080D01*
X120695538Y-98925080D01*
X120790776Y-98972700D01*
X120838395Y-99020319D01*
X120886014Y-99115557D01*
X120886014Y-99163176D01*
X120838395Y-99258414D01*
X120790776Y-99306033D01*
X120695538Y-99353652D01*
X120505061Y-99353652D01*
X120409823Y-99401271D01*
X120362204Y-99448890D01*
X120314585Y-99544128D01*
X120314585Y-99734604D01*
X120362204Y-99829842D01*
X120409823Y-99877461D01*
X120505061Y-99925080D01*
X120695538Y-99925080D01*
X120790776Y-99877461D01*
X120838395Y-99829842D01*
X120886014Y-99734604D01*
X120886014Y-99544128D01*
X120838395Y-99448890D01*
X120790776Y-99401271D01*
X120695538Y-99353652D01*
X114758395Y-100295080D02*
X114758395Y-99295080D01*
X115329823Y-100295080D02*
X114901252Y-99723652D01*
X115329823Y-99295080D02*
X114758395Y-99866509D01*
D12*
%TO.C,IC3*%
X65237610Y-105222857D02*
X65237610Y-103952857D01*
X66568086Y-105101905D02*
X66507610Y-105162381D01*
X66326181Y-105222857D01*
X66205229Y-105222857D01*
X66023800Y-105162381D01*
X65902848Y-105041429D01*
X65842372Y-104920476D01*
X65781895Y-104678572D01*
X65781895Y-104497143D01*
X65842372Y-104255238D01*
X65902848Y-104134286D01*
X66023800Y-104013334D01*
X66205229Y-103952857D01*
X66326181Y-103952857D01*
X66507610Y-104013334D01*
X66568086Y-104073810D01*
X66991419Y-103952857D02*
X67777610Y-103952857D01*
X67354276Y-104436667D01*
X67535705Y-104436667D01*
X67656657Y-104497143D01*
X67717133Y-104557619D01*
X67777610Y-104678572D01*
X67777610Y-104980953D01*
X67717133Y-105101905D01*
X67656657Y-105162381D01*
X67535705Y-105222857D01*
X67172848Y-105222857D01*
X67051895Y-105162381D01*
X66991419Y-105101905D01*
D10*
%TO.C,Q1*%
X83327161Y-101632019D02*
X83231923Y-101584400D01*
X83136685Y-101489161D01*
X82993828Y-101346304D01*
X82898590Y-101298685D01*
X82803352Y-101298685D01*
X82850971Y-101536780D02*
X82755733Y-101489161D01*
X82660495Y-101393923D01*
X82612876Y-101203447D01*
X82612876Y-100870114D01*
X82660495Y-100679638D01*
X82755733Y-100584400D01*
X82850971Y-100536780D01*
X83041447Y-100536780D01*
X83136685Y-100584400D01*
X83231923Y-100679638D01*
X83279542Y-100870114D01*
X83279542Y-101203447D01*
X83231923Y-101393923D01*
X83136685Y-101489161D01*
X83041447Y-101536780D01*
X82850971Y-101536780D01*
X84231923Y-101536780D02*
X83660495Y-101536780D01*
X83946209Y-101536780D02*
X83946209Y-100536780D01*
X83850971Y-100679638D01*
X83755733Y-100774876D01*
X83660495Y-100822495D01*
%TO.C,R26*%
X141868142Y-101780480D02*
X141534809Y-101304290D01*
X141296714Y-101780480D02*
X141296714Y-100780480D01*
X141677666Y-100780480D01*
X141772904Y-100828100D01*
X141820523Y-100875719D01*
X141868142Y-100970957D01*
X141868142Y-101113814D01*
X141820523Y-101209052D01*
X141772904Y-101256671D01*
X141677666Y-101304290D01*
X141296714Y-101304290D01*
X142249095Y-100875719D02*
X142296714Y-100828100D01*
X142391952Y-100780480D01*
X142630047Y-100780480D01*
X142725285Y-100828100D01*
X142772904Y-100875719D01*
X142820523Y-100970957D01*
X142820523Y-101066195D01*
X142772904Y-101209052D01*
X142201476Y-101780480D01*
X142820523Y-101780480D01*
X143677666Y-100780480D02*
X143487190Y-100780480D01*
X143391952Y-100828100D01*
X143344333Y-100875719D01*
X143249095Y-101018576D01*
X143201476Y-101209052D01*
X143201476Y-101590004D01*
X143249095Y-101685242D01*
X143296714Y-101732861D01*
X143391952Y-101780480D01*
X143582428Y-101780480D01*
X143677666Y-101732861D01*
X143725285Y-101685242D01*
X143772904Y-101590004D01*
X143772904Y-101351909D01*
X143725285Y-101256671D01*
X143677666Y-101209052D01*
X143582428Y-101161433D01*
X143391952Y-101161433D01*
X143296714Y-101209052D01*
X143249095Y-101256671D01*
X143201476Y-101351909D01*
%TO.C,R8*%
X73716503Y-91739013D02*
X73383170Y-91262823D01*
X73145074Y-91739013D02*
X73145074Y-90739013D01*
X73526027Y-90739013D01*
X73621265Y-90786633D01*
X73668884Y-90834252D01*
X73716503Y-90929490D01*
X73716503Y-91072347D01*
X73668884Y-91167585D01*
X73621265Y-91215204D01*
X73526027Y-91262823D01*
X73145074Y-91262823D01*
X74287931Y-91167585D02*
X74192693Y-91119966D01*
X74145074Y-91072347D01*
X74097455Y-90977109D01*
X74097455Y-90929490D01*
X74145074Y-90834252D01*
X74192693Y-90786633D01*
X74287931Y-90739013D01*
X74478408Y-90739013D01*
X74573646Y-90786633D01*
X74621265Y-90834252D01*
X74668884Y-90929490D01*
X74668884Y-90977109D01*
X74621265Y-91072347D01*
X74573646Y-91119966D01*
X74478408Y-91167585D01*
X74287931Y-91167585D01*
X74192693Y-91215204D01*
X74145074Y-91262823D01*
X74097455Y-91358061D01*
X74097455Y-91548537D01*
X74145074Y-91643775D01*
X74192693Y-91691394D01*
X74287931Y-91739013D01*
X74478408Y-91739013D01*
X74573646Y-91691394D01*
X74621265Y-91643775D01*
X74668884Y-91548537D01*
X74668884Y-91358061D01*
X74621265Y-91262823D01*
X74573646Y-91215204D01*
X74478408Y-91167585D01*
D12*
%TO.C,IC4*%
X132127138Y-104553923D02*
X132127138Y-103283923D01*
X133457614Y-104432971D02*
X133397138Y-104493447D01*
X133215709Y-104553923D01*
X133094757Y-104553923D01*
X132913328Y-104493447D01*
X132792376Y-104372495D01*
X132731900Y-104251542D01*
X132671423Y-104009638D01*
X132671423Y-103828209D01*
X132731900Y-103586304D01*
X132792376Y-103465352D01*
X132913328Y-103344400D01*
X133094757Y-103283923D01*
X133215709Y-103283923D01*
X133397138Y-103344400D01*
X133457614Y-103404876D01*
X134546185Y-103707257D02*
X134546185Y-104553923D01*
X134243804Y-103223447D02*
X133941423Y-104130590D01*
X134727614Y-104130590D01*
D10*
%TO.C,Q8*%
X140666986Y-84658859D02*
X140619367Y-84754097D01*
X140524128Y-84849335D01*
X140381271Y-84992192D01*
X140333652Y-85087430D01*
X140333652Y-85182668D01*
X140571747Y-85135049D02*
X140524128Y-85230287D01*
X140428890Y-85325525D01*
X140238414Y-85373144D01*
X139905081Y-85373144D01*
X139714605Y-85325525D01*
X139619367Y-85230287D01*
X139571747Y-85135049D01*
X139571747Y-84944573D01*
X139619367Y-84849335D01*
X139714605Y-84754097D01*
X139905081Y-84706478D01*
X140238414Y-84706478D01*
X140428890Y-84754097D01*
X140524128Y-84849335D01*
X140571747Y-84944573D01*
X140571747Y-85135049D01*
X140000319Y-84135049D02*
X139952700Y-84230287D01*
X139905081Y-84277906D01*
X139809843Y-84325525D01*
X139762224Y-84325525D01*
X139666986Y-84277906D01*
X139619367Y-84230287D01*
X139571747Y-84135049D01*
X139571747Y-83944573D01*
X139619367Y-83849335D01*
X139666986Y-83801716D01*
X139762224Y-83754097D01*
X139809843Y-83754097D01*
X139905081Y-83801716D01*
X139952700Y-83849335D01*
X140000319Y-83944573D01*
X140000319Y-84135049D01*
X140047938Y-84230287D01*
X140095557Y-84277906D01*
X140190795Y-84325525D01*
X140381271Y-84325525D01*
X140476509Y-84277906D01*
X140524128Y-84230287D01*
X140571747Y-84135049D01*
X140571747Y-83944573D01*
X140524128Y-83849335D01*
X140476509Y-83801716D01*
X140381271Y-83754097D01*
X140190795Y-83754097D01*
X140095557Y-83801716D01*
X140047938Y-83849335D01*
X140000319Y-83944573D01*
%TO.C,Q5*%
X109996949Y-84470451D02*
X109949330Y-84565689D01*
X109854091Y-84660927D01*
X109711234Y-84803784D01*
X109663615Y-84899022D01*
X109663615Y-84994260D01*
X109901710Y-84946641D02*
X109854091Y-85041879D01*
X109758853Y-85137117D01*
X109568377Y-85184736D01*
X109235044Y-85184736D01*
X109044568Y-85137117D01*
X108949330Y-85041879D01*
X108901710Y-84946641D01*
X108901710Y-84756165D01*
X108949330Y-84660927D01*
X109044568Y-84565689D01*
X109235044Y-84518070D01*
X109568377Y-84518070D01*
X109758853Y-84565689D01*
X109854091Y-84660927D01*
X109901710Y-84756165D01*
X109901710Y-84946641D01*
X108901710Y-83613308D02*
X108901710Y-84089498D01*
X109377901Y-84137117D01*
X109330282Y-84089498D01*
X109282663Y-83994260D01*
X109282663Y-83756165D01*
X109330282Y-83660927D01*
X109377901Y-83613308D01*
X109473139Y-83565689D01*
X109711234Y-83565689D01*
X109806472Y-83613308D01*
X109854091Y-83660927D01*
X109901710Y-83756165D01*
X109901710Y-83994260D01*
X109854091Y-84089498D01*
X109806472Y-84137117D01*
%TO.C,D10*%
X159875814Y-96644580D02*
X159875814Y-95644580D01*
X160113909Y-95644580D01*
X160256766Y-95692200D01*
X160352004Y-95787438D01*
X160399623Y-95882676D01*
X160447242Y-96073152D01*
X160447242Y-96216009D01*
X160399623Y-96406485D01*
X160352004Y-96501723D01*
X160256766Y-96596961D01*
X160113909Y-96644580D01*
X159875814Y-96644580D01*
X161399623Y-96644580D02*
X160828195Y-96644580D01*
X161113909Y-96644580D02*
X161113909Y-95644580D01*
X161018671Y-95787438D01*
X160923433Y-95882676D01*
X160828195Y-95930295D01*
X162018671Y-95644580D02*
X162113909Y-95644580D01*
X162209147Y-95692200D01*
X162256766Y-95739819D01*
X162304385Y-95835057D01*
X162352004Y-96025533D01*
X162352004Y-96263628D01*
X162304385Y-96454104D01*
X162256766Y-96549342D01*
X162209147Y-96596961D01*
X162113909Y-96644580D01*
X162018671Y-96644580D01*
X161923433Y-96596961D01*
X161875814Y-96549342D01*
X161828195Y-96454104D01*
X161780576Y-96263628D01*
X161780576Y-96025533D01*
X161828195Y-95835057D01*
X161875814Y-95739819D01*
X161923433Y-95692200D01*
X162018671Y-95644580D01*
X155748195Y-97014580D02*
X155748195Y-96014580D01*
X156319623Y-97014580D02*
X155891052Y-96443152D01*
X156319623Y-96014580D02*
X155748195Y-96586009D01*
%TO.C,C5*%
X148941542Y-81301066D02*
X148989161Y-81348685D01*
X149036780Y-81491542D01*
X149036780Y-81586780D01*
X148989161Y-81729638D01*
X148893923Y-81824876D01*
X148798685Y-81872495D01*
X148608209Y-81920114D01*
X148465352Y-81920114D01*
X148274876Y-81872495D01*
X148179638Y-81824876D01*
X148084400Y-81729638D01*
X148036780Y-81586780D01*
X148036780Y-81491542D01*
X148084400Y-81348685D01*
X148132019Y-81301066D01*
X148036780Y-80396304D02*
X148036780Y-80872495D01*
X148512971Y-80920114D01*
X148465352Y-80872495D01*
X148417733Y-80777257D01*
X148417733Y-80539161D01*
X148465352Y-80443923D01*
X148512971Y-80396304D01*
X148608209Y-80348685D01*
X148846304Y-80348685D01*
X148941542Y-80396304D01*
X148989161Y-80443923D01*
X149036780Y-80539161D01*
X149036780Y-80777257D01*
X148989161Y-80872495D01*
X148941542Y-80920114D01*
%TO.C,R21*%
X175187342Y-91395580D02*
X174854009Y-90919390D01*
X174615914Y-91395580D02*
X174615914Y-90395580D01*
X174996866Y-90395580D01*
X175092104Y-90443200D01*
X175139723Y-90490819D01*
X175187342Y-90586057D01*
X175187342Y-90728914D01*
X175139723Y-90824152D01*
X175092104Y-90871771D01*
X174996866Y-90919390D01*
X174615914Y-90919390D01*
X175568295Y-90490819D02*
X175615914Y-90443200D01*
X175711152Y-90395580D01*
X175949247Y-90395580D01*
X176044485Y-90443200D01*
X176092104Y-90490819D01*
X176139723Y-90586057D01*
X176139723Y-90681295D01*
X176092104Y-90824152D01*
X175520676Y-91395580D01*
X176139723Y-91395580D01*
X177092104Y-91395580D02*
X176520676Y-91395580D01*
X176806390Y-91395580D02*
X176806390Y-90395580D01*
X176711152Y-90538438D01*
X176615914Y-90633676D01*
X176520676Y-90681295D01*
%TO.C,C9*%
X156174839Y-95341497D02*
X156127220Y-95389116D01*
X155984363Y-95436735D01*
X155889125Y-95436735D01*
X155746267Y-95389116D01*
X155651029Y-95293878D01*
X155603410Y-95198640D01*
X155555791Y-95008164D01*
X155555791Y-94865307D01*
X155603410Y-94674831D01*
X155651029Y-94579593D01*
X155746267Y-94484355D01*
X155889125Y-94436735D01*
X155984363Y-94436735D01*
X156127220Y-94484355D01*
X156174839Y-94531974D01*
X156651029Y-95436735D02*
X156841506Y-95436735D01*
X156936744Y-95389116D01*
X156984363Y-95341497D01*
X157079601Y-95198640D01*
X157127220Y-95008164D01*
X157127220Y-94627212D01*
X157079601Y-94531974D01*
X157031982Y-94484355D01*
X156936744Y-94436735D01*
X156746267Y-94436735D01*
X156651029Y-94484355D01*
X156603410Y-94531974D01*
X156555791Y-94627212D01*
X156555791Y-94865307D01*
X156603410Y-94960545D01*
X156651029Y-95008164D01*
X156746267Y-95055783D01*
X156936744Y-95055783D01*
X157031982Y-95008164D01*
X157079601Y-94960545D01*
X157127220Y-94865307D01*
%TO.C,R3*%
X108791633Y-113740880D02*
X108458300Y-113264690D01*
X108220204Y-113740880D02*
X108220204Y-112740880D01*
X108601157Y-112740880D01*
X108696395Y-112788500D01*
X108744014Y-112836119D01*
X108791633Y-112931357D01*
X108791633Y-113074214D01*
X108744014Y-113169452D01*
X108696395Y-113217071D01*
X108601157Y-113264690D01*
X108220204Y-113264690D01*
X109124966Y-112740880D02*
X109744014Y-112740880D01*
X109410680Y-113121833D01*
X109553538Y-113121833D01*
X109648776Y-113169452D01*
X109696395Y-113217071D01*
X109744014Y-113312309D01*
X109744014Y-113550404D01*
X109696395Y-113645642D01*
X109648776Y-113693261D01*
X109553538Y-113740880D01*
X109267823Y-113740880D01*
X109172585Y-113693261D01*
X109124966Y-113645642D01*
%TO.C,R30*%
X86129080Y-115037357D02*
X85652890Y-115370690D01*
X86129080Y-115608785D02*
X85129080Y-115608785D01*
X85129080Y-115227833D01*
X85176700Y-115132595D01*
X85224319Y-115084976D01*
X85319557Y-115037357D01*
X85462414Y-115037357D01*
X85557652Y-115084976D01*
X85605271Y-115132595D01*
X85652890Y-115227833D01*
X85652890Y-115608785D01*
X85129080Y-114704023D02*
X85129080Y-114084976D01*
X85510033Y-114418309D01*
X85510033Y-114275452D01*
X85557652Y-114180214D01*
X85605271Y-114132595D01*
X85700509Y-114084976D01*
X85938604Y-114084976D01*
X86033842Y-114132595D01*
X86081461Y-114180214D01*
X86129080Y-114275452D01*
X86129080Y-114561166D01*
X86081461Y-114656404D01*
X86033842Y-114704023D01*
X85129080Y-113465928D02*
X85129080Y-113370690D01*
X85176700Y-113275452D01*
X85224319Y-113227833D01*
X85319557Y-113180214D01*
X85510033Y-113132595D01*
X85748128Y-113132595D01*
X85938604Y-113180214D01*
X86033842Y-113227833D01*
X86081461Y-113275452D01*
X86129080Y-113370690D01*
X86129080Y-113465928D01*
X86081461Y-113561166D01*
X86033842Y-113608785D01*
X85938604Y-113656404D01*
X85748128Y-113704023D01*
X85510033Y-113704023D01*
X85319557Y-113656404D01*
X85224319Y-113608785D01*
X85176700Y-113561166D01*
X85129080Y-113465928D01*
%TO.C,R12*%
X103375252Y-91721474D02*
X103041919Y-91245284D01*
X102803824Y-91721474D02*
X102803824Y-90721474D01*
X103184776Y-90721474D01*
X103280014Y-90769094D01*
X103327633Y-90816713D01*
X103375252Y-90911951D01*
X103375252Y-91054808D01*
X103327633Y-91150046D01*
X103280014Y-91197665D01*
X103184776Y-91245284D01*
X102803824Y-91245284D01*
X104327633Y-91721474D02*
X103756205Y-91721474D01*
X104041919Y-91721474D02*
X104041919Y-90721474D01*
X103946681Y-90864332D01*
X103851443Y-90959570D01*
X103756205Y-91007189D01*
X104708586Y-90816713D02*
X104756205Y-90769094D01*
X104851443Y-90721474D01*
X105089538Y-90721474D01*
X105184776Y-90769094D01*
X105232395Y-90816713D01*
X105280014Y-90911951D01*
X105280014Y-91007189D01*
X105232395Y-91150046D01*
X104660967Y-91721474D01*
X105280014Y-91721474D01*
%TO.C,R22*%
X156256794Y-103936774D02*
X155923461Y-103460584D01*
X155685366Y-103936774D02*
X155685366Y-102936774D01*
X156066318Y-102936774D01*
X156161556Y-102984394D01*
X156209175Y-103032013D01*
X156256794Y-103127251D01*
X156256794Y-103270108D01*
X156209175Y-103365346D01*
X156161556Y-103412965D01*
X156066318Y-103460584D01*
X155685366Y-103460584D01*
X156637747Y-103032013D02*
X156685366Y-102984394D01*
X156780604Y-102936774D01*
X157018699Y-102936774D01*
X157113937Y-102984394D01*
X157161556Y-103032013D01*
X157209175Y-103127251D01*
X157209175Y-103222489D01*
X157161556Y-103365346D01*
X156590128Y-103936774D01*
X157209175Y-103936774D01*
X157590128Y-103032013D02*
X157637747Y-102984394D01*
X157732985Y-102936774D01*
X157971080Y-102936774D01*
X158066318Y-102984394D01*
X158113937Y-103032013D01*
X158161556Y-103127251D01*
X158161556Y-103222489D01*
X158113937Y-103365346D01*
X157542509Y-103936774D01*
X158161556Y-103936774D01*
%TO.C,R28*%
X141868142Y-111359180D02*
X141534809Y-110882990D01*
X141296714Y-111359180D02*
X141296714Y-110359180D01*
X141677666Y-110359180D01*
X141772904Y-110406800D01*
X141820523Y-110454419D01*
X141868142Y-110549657D01*
X141868142Y-110692514D01*
X141820523Y-110787752D01*
X141772904Y-110835371D01*
X141677666Y-110882990D01*
X141296714Y-110882990D01*
X142249095Y-110454419D02*
X142296714Y-110406800D01*
X142391952Y-110359180D01*
X142630047Y-110359180D01*
X142725285Y-110406800D01*
X142772904Y-110454419D01*
X142820523Y-110549657D01*
X142820523Y-110644895D01*
X142772904Y-110787752D01*
X142201476Y-111359180D01*
X142820523Y-111359180D01*
X143391952Y-110787752D02*
X143296714Y-110740133D01*
X143249095Y-110692514D01*
X143201476Y-110597276D01*
X143201476Y-110549657D01*
X143249095Y-110454419D01*
X143296714Y-110406800D01*
X143391952Y-110359180D01*
X143582428Y-110359180D01*
X143677666Y-110406800D01*
X143725285Y-110454419D01*
X143772904Y-110549657D01*
X143772904Y-110597276D01*
X143725285Y-110692514D01*
X143677666Y-110740133D01*
X143582428Y-110787752D01*
X143391952Y-110787752D01*
X143296714Y-110835371D01*
X143249095Y-110882990D01*
X143201476Y-110978228D01*
X143201476Y-111168704D01*
X143249095Y-111263942D01*
X143296714Y-111311561D01*
X143391952Y-111359180D01*
X143582428Y-111359180D01*
X143677666Y-111311561D01*
X143725285Y-111263942D01*
X143772904Y-111168704D01*
X143772904Y-110978228D01*
X143725285Y-110882990D01*
X143677666Y-110835371D01*
X143582428Y-110787752D01*
%TO.C,R20*%
X161059695Y-91485228D02*
X160726362Y-91009038D01*
X160488267Y-91485228D02*
X160488267Y-90485228D01*
X160869219Y-90485228D01*
X160964457Y-90532848D01*
X161012076Y-90580467D01*
X161059695Y-90675705D01*
X161059695Y-90818562D01*
X161012076Y-90913800D01*
X160964457Y-90961419D01*
X160869219Y-91009038D01*
X160488267Y-91009038D01*
X161440648Y-90580467D02*
X161488267Y-90532848D01*
X161583505Y-90485228D01*
X161821600Y-90485228D01*
X161916838Y-90532848D01*
X161964457Y-90580467D01*
X162012076Y-90675705D01*
X162012076Y-90770943D01*
X161964457Y-90913800D01*
X161393029Y-91485228D01*
X162012076Y-91485228D01*
X162631124Y-90485228D02*
X162726362Y-90485228D01*
X162821600Y-90532848D01*
X162869219Y-90580467D01*
X162916838Y-90675705D01*
X162964457Y-90866181D01*
X162964457Y-91104276D01*
X162916838Y-91294752D01*
X162869219Y-91389990D01*
X162821600Y-91437609D01*
X162726362Y-91485228D01*
X162631124Y-91485228D01*
X162535886Y-91437609D01*
X162488267Y-91389990D01*
X162440648Y-91294752D01*
X162393029Y-91104276D01*
X162393029Y-90866181D01*
X162440648Y-90675705D01*
X162488267Y-90580467D01*
X162535886Y-90532848D01*
X162631124Y-90485228D01*
%TO.C,R19*%
X155832330Y-91425826D02*
X155498997Y-90949636D01*
X155260902Y-91425826D02*
X155260902Y-90425826D01*
X155641854Y-90425826D01*
X155737092Y-90473446D01*
X155784711Y-90521065D01*
X155832330Y-90616303D01*
X155832330Y-90759160D01*
X155784711Y-90854398D01*
X155737092Y-90902017D01*
X155641854Y-90949636D01*
X155260902Y-90949636D01*
X156784711Y-91425826D02*
X156213283Y-91425826D01*
X156498997Y-91425826D02*
X156498997Y-90425826D01*
X156403759Y-90568684D01*
X156308521Y-90663922D01*
X156213283Y-90711541D01*
X157260902Y-91425826D02*
X157451378Y-91425826D01*
X157546616Y-91378207D01*
X157594235Y-91330588D01*
X157689473Y-91187731D01*
X157737092Y-90997255D01*
X157737092Y-90616303D01*
X157689473Y-90521065D01*
X157641854Y-90473446D01*
X157546616Y-90425826D01*
X157356140Y-90425826D01*
X157260902Y-90473446D01*
X157213283Y-90521065D01*
X157165664Y-90616303D01*
X157165664Y-90854398D01*
X157213283Y-90949636D01*
X157260902Y-90997255D01*
X157356140Y-91044874D01*
X157546616Y-91044874D01*
X157641854Y-90997255D01*
X157689473Y-90949636D01*
X157737092Y-90854398D01*
%TO.C,R10*%
X108251039Y-91742375D02*
X107917706Y-91266185D01*
X107679611Y-91742375D02*
X107679611Y-90742375D01*
X108060563Y-90742375D01*
X108155801Y-90789995D01*
X108203420Y-90837614D01*
X108251039Y-90932852D01*
X108251039Y-91075709D01*
X108203420Y-91170947D01*
X108155801Y-91218566D01*
X108060563Y-91266185D01*
X107679611Y-91266185D01*
X109203420Y-91742375D02*
X108631992Y-91742375D01*
X108917706Y-91742375D02*
X108917706Y-90742375D01*
X108822468Y-90885233D01*
X108727230Y-90980471D01*
X108631992Y-91028090D01*
X109822468Y-90742375D02*
X109917706Y-90742375D01*
X110012944Y-90789995D01*
X110060563Y-90837614D01*
X110108182Y-90932852D01*
X110155801Y-91123328D01*
X110155801Y-91361423D01*
X110108182Y-91551899D01*
X110060563Y-91647137D01*
X110012944Y-91694756D01*
X109917706Y-91742375D01*
X109822468Y-91742375D01*
X109727230Y-91694756D01*
X109679611Y-91647137D01*
X109631992Y-91551899D01*
X109584373Y-91361423D01*
X109584373Y-91123328D01*
X109631992Y-90932852D01*
X109679611Y-90837614D01*
X109727230Y-90789995D01*
X109822468Y-90742375D01*
%TO.C,C7*%
X167193371Y-102814470D02*
X167145752Y-102862089D01*
X167002895Y-102909708D01*
X166907657Y-102909708D01*
X166764799Y-102862089D01*
X166669561Y-102766851D01*
X166621942Y-102671613D01*
X166574323Y-102481137D01*
X166574323Y-102338280D01*
X166621942Y-102147804D01*
X166669561Y-102052566D01*
X166764799Y-101957328D01*
X166907657Y-101909708D01*
X167002895Y-101909708D01*
X167145752Y-101957328D01*
X167193371Y-102004947D01*
X167526704Y-101909708D02*
X168193371Y-101909708D01*
X167764799Y-102909708D01*
%TO.C,D6*%
X119362204Y-104834480D02*
X119362204Y-103834480D01*
X119600300Y-103834480D01*
X119743157Y-103882100D01*
X119838395Y-103977338D01*
X119886014Y-104072576D01*
X119933633Y-104263052D01*
X119933633Y-104405909D01*
X119886014Y-104596385D01*
X119838395Y-104691623D01*
X119743157Y-104786861D01*
X119600300Y-104834480D01*
X119362204Y-104834480D01*
X120790776Y-103834480D02*
X120600300Y-103834480D01*
X120505061Y-103882100D01*
X120457442Y-103929719D01*
X120362204Y-104072576D01*
X120314585Y-104263052D01*
X120314585Y-104644004D01*
X120362204Y-104739242D01*
X120409823Y-104786861D01*
X120505061Y-104834480D01*
X120695538Y-104834480D01*
X120790776Y-104786861D01*
X120838395Y-104739242D01*
X120886014Y-104644004D01*
X120886014Y-104405909D01*
X120838395Y-104310671D01*
X120790776Y-104263052D01*
X120695538Y-104215433D01*
X120505061Y-104215433D01*
X120409823Y-104263052D01*
X120362204Y-104310671D01*
X120314585Y-104405909D01*
X114758395Y-105204480D02*
X114758395Y-104204480D01*
X115329823Y-105204480D02*
X114901252Y-104633052D01*
X115329823Y-104204480D02*
X114758395Y-104775909D01*
%TO.C,R32*%
X95709880Y-115037357D02*
X95233690Y-115370690D01*
X95709880Y-115608785D02*
X94709880Y-115608785D01*
X94709880Y-115227833D01*
X94757500Y-115132595D01*
X94805119Y-115084976D01*
X94900357Y-115037357D01*
X95043214Y-115037357D01*
X95138452Y-115084976D01*
X95186071Y-115132595D01*
X95233690Y-115227833D01*
X95233690Y-115608785D01*
X94709880Y-114704023D02*
X94709880Y-114084976D01*
X95090833Y-114418309D01*
X95090833Y-114275452D01*
X95138452Y-114180214D01*
X95186071Y-114132595D01*
X95281309Y-114084976D01*
X95519404Y-114084976D01*
X95614642Y-114132595D01*
X95662261Y-114180214D01*
X95709880Y-114275452D01*
X95709880Y-114561166D01*
X95662261Y-114656404D01*
X95614642Y-114704023D01*
X94805119Y-113704023D02*
X94757500Y-113656404D01*
X94709880Y-113561166D01*
X94709880Y-113323071D01*
X94757500Y-113227833D01*
X94805119Y-113180214D01*
X94900357Y-113132595D01*
X94995595Y-113132595D01*
X95138452Y-113180214D01*
X95709880Y-113751642D01*
X95709880Y-113132595D01*
%TO.C,C6*%
X159809750Y-114653434D02*
X159857369Y-114701053D01*
X159904988Y-114843910D01*
X159904988Y-114939148D01*
X159857369Y-115082006D01*
X159762131Y-115177244D01*
X159666893Y-115224863D01*
X159476417Y-115272482D01*
X159333560Y-115272482D01*
X159143084Y-115224863D01*
X159047846Y-115177244D01*
X158952608Y-115082006D01*
X158904988Y-114939148D01*
X158904988Y-114843910D01*
X158952608Y-114701053D01*
X159000227Y-114653434D01*
X158904988Y-113796291D02*
X158904988Y-113986768D01*
X158952608Y-114082006D01*
X159000227Y-114129625D01*
X159143084Y-114224863D01*
X159333560Y-114272482D01*
X159714512Y-114272482D01*
X159809750Y-114224863D01*
X159857369Y-114177244D01*
X159904988Y-114082006D01*
X159904988Y-113891529D01*
X159857369Y-113796291D01*
X159809750Y-113748672D01*
X159714512Y-113701053D01*
X159476417Y-113701053D01*
X159381179Y-113748672D01*
X159333560Y-113796291D01*
X159285941Y-113891529D01*
X159285941Y-114082006D01*
X159333560Y-114177244D01*
X159381179Y-114224863D01*
X159476417Y-114272482D01*
D12*
%TO.C,Z7*%
X122022022Y-85555036D02*
X122868689Y-85555036D01*
X122022022Y-86825036D01*
X122868689Y-86825036D01*
X123231546Y-85555036D02*
X124078213Y-85555036D01*
X123533927Y-86825036D01*
D10*
%TO.C,R34*%
X58516542Y-112651280D02*
X58183209Y-112175090D01*
X57945114Y-112651280D02*
X57945114Y-111651280D01*
X58326066Y-111651280D01*
X58421304Y-111698900D01*
X58468923Y-111746519D01*
X58516542Y-111841757D01*
X58516542Y-111984614D01*
X58468923Y-112079852D01*
X58421304Y-112127471D01*
X58326066Y-112175090D01*
X57945114Y-112175090D01*
X58849876Y-111651280D02*
X59468923Y-111651280D01*
X59135590Y-112032233D01*
X59278447Y-112032233D01*
X59373685Y-112079852D01*
X59421304Y-112127471D01*
X59468923Y-112222709D01*
X59468923Y-112460804D01*
X59421304Y-112556042D01*
X59373685Y-112603661D01*
X59278447Y-112651280D01*
X58992733Y-112651280D01*
X58897495Y-112603661D01*
X58849876Y-112556042D01*
X60326066Y-111984614D02*
X60326066Y-112651280D01*
X60087971Y-111603661D02*
X59849876Y-112317947D01*
X60468923Y-112317947D01*
D13*
%TO.C,C1*%
X59974800Y-96136900D02*
X58719800Y-96136900D01*
X62559800Y-86896900D02*
X61304800Y-86896900D01*
X58719800Y-86896900D02*
X58719800Y-96136900D01*
X59974800Y-86896900D02*
X58719800Y-86896900D01*
X62559800Y-86896900D02*
X62559800Y-96136900D01*
X62559800Y-96136900D02*
X61304800Y-96136900D01*
%TO.C,C2*%
X87512000Y-68249700D02*
X87512000Y-73589700D01*
X90954000Y-68249700D02*
X90288000Y-68249700D01*
X90954000Y-73589700D02*
X90288000Y-73589700D01*
X90954000Y-68249700D02*
X90954000Y-73589700D01*
X88178000Y-73589700D02*
X87512000Y-73589700D01*
X88178000Y-68249700D02*
X87512000Y-68249700D01*
%TO.C,C3*%
X121294600Y-63415000D02*
X120628600Y-63415000D01*
X121294600Y-63415000D02*
X121294600Y-68755000D01*
X118518600Y-68755000D02*
X117852600Y-68755000D01*
X117852600Y-63415000D02*
X117852600Y-68755000D01*
X121294600Y-68755000D02*
X120628600Y-68755000D01*
X118518600Y-63415000D02*
X117852600Y-63415000D01*
%TO.C,C4*%
X153202900Y-70568300D02*
X152536900Y-70568300D01*
X150426900Y-65228300D02*
X149760900Y-65228300D01*
X149760900Y-65228300D02*
X149760900Y-70568300D01*
X153202900Y-65228300D02*
X153202900Y-70568300D01*
X153202900Y-65228300D02*
X152536900Y-65228300D01*
X150426900Y-70568300D02*
X149760900Y-70568300D01*
%TO.C,D3*%
X80460000Y-79415500D02*
X85910000Y-79415500D01*
X80460000Y-79655500D02*
X85910000Y-79655500D01*
X85910000Y-81085000D02*
X85910000Y-71315000D01*
X85910000Y-71315000D02*
X80460000Y-71315000D01*
X83185000Y-82280000D02*
X83185000Y-81085000D01*
X80460000Y-71315000D02*
X80460000Y-81085000D01*
X80460000Y-81085000D02*
X85910000Y-81085000D01*
X83185000Y-70120000D02*
X83185000Y-71315000D01*
X80460000Y-79535500D02*
X85910000Y-79535500D01*
%TO.C,D5*%
X116390000Y-81085000D02*
X116390000Y-71315000D01*
X110940000Y-79415500D02*
X116390000Y-79415500D01*
X110940000Y-71315000D02*
X110940000Y-81085000D01*
X110940000Y-79535500D02*
X116390000Y-79535500D01*
X110940000Y-81085000D02*
X116390000Y-81085000D01*
X113665000Y-82280000D02*
X113665000Y-81085000D01*
X116390000Y-71315000D02*
X110940000Y-71315000D01*
X110940000Y-79655500D02*
X116390000Y-79655500D01*
X113665000Y-70120000D02*
X113665000Y-71315000D01*
%TO.C,D7*%
X171900000Y-79655500D02*
X177350000Y-79655500D01*
X171900000Y-81085000D02*
X177350000Y-81085000D01*
X177350000Y-81085000D02*
X177350000Y-71315000D01*
X174625000Y-82280000D02*
X174625000Y-81085000D01*
X177350000Y-71315000D02*
X171900000Y-71315000D01*
X171900000Y-71315000D02*
X171900000Y-81085000D01*
X171900000Y-79415500D02*
X177350000Y-79415500D01*
X174625000Y-70120000D02*
X174625000Y-71315000D01*
X171900000Y-79535500D02*
X177350000Y-79535500D01*
%TO.C,D9*%
X141420000Y-79535500D02*
X146870000Y-79535500D01*
X141420000Y-81085000D02*
X146870000Y-81085000D01*
X141420000Y-79415500D02*
X146870000Y-79415500D01*
X141420000Y-71315000D02*
X141420000Y-81085000D01*
X146870000Y-81085000D02*
X146870000Y-71315000D01*
X144145000Y-70120000D02*
X144145000Y-71315000D01*
X144145000Y-82280000D02*
X144145000Y-81085000D01*
X141420000Y-79655500D02*
X146870000Y-79655500D01*
X146870000Y-71315000D02*
X141420000Y-71315000D01*
%TO.C,D1*%
X130133800Y-124468100D02*
X130133800Y-124312100D01*
X130133800Y-122152100D02*
X130133800Y-121996100D01*
X129614761Y-122152100D02*
G75*
G03*
X127532670Y-122152263I-1040961J-1080000D01*
G01*
X126901465Y-124310708D02*
G75*
G03*
X130133800Y-124467616I1672335J1078609D01*
G01*
X130133800Y-121996584D02*
G75*
G03*
X126901465Y-122153492I-1560000J-1235517D01*
G01*
X127532670Y-124311937D02*
G75*
G03*
X129614761Y-124312100I1041130J1079837D01*
G01*
D14*
%TO.C,IC2*%
X165411800Y-110187900D02*
X160507800Y-110187900D01*
X165411800Y-106991900D02*
X165411800Y-110187900D01*
X160379800Y-112064900D02*
X160379800Y-110537900D01*
X160507800Y-106991900D02*
X165411800Y-106991900D01*
X160507800Y-110187900D02*
X160507800Y-106991900D01*
D13*
%TO.C,J2*%
X64710000Y-121920000D02*
X67310000Y-121920000D01*
X113090000Y-124520000D02*
X113090000Y-119320000D01*
X64710000Y-124520000D02*
X64710000Y-121920000D01*
X64710000Y-120650000D02*
X64710000Y-119320000D01*
X64710000Y-119320000D02*
X66040000Y-119320000D01*
X64710000Y-124520000D02*
X113090000Y-124520000D01*
X67310000Y-119320000D02*
X113090000Y-119320000D01*
X67310000Y-121920000D02*
X67310000Y-119320000D01*
%TO.C,J3*%
X67310000Y-99120000D02*
X113090000Y-99120000D01*
X64710000Y-96460000D02*
X66040000Y-96460000D01*
X67310000Y-96460000D02*
X113090000Y-96460000D01*
X67310000Y-99120000D02*
X67310000Y-96460000D01*
X113090000Y-99120000D02*
X113090000Y-96460000D01*
X64710000Y-97790000D02*
X64710000Y-96460000D01*
%TO.C,L1*%
X155204500Y-103529000D02*
X152264500Y-103529000D01*
X153734500Y-110989000D02*
X153734500Y-110369000D01*
X152264500Y-110369000D02*
X155204500Y-110369000D01*
X152264500Y-103529000D02*
X152264500Y-110369000D01*
X155204500Y-110369000D02*
X155204500Y-103529000D01*
X153734500Y-102909000D02*
X153734500Y-103529000D01*
%TO.C,P1*%
X181849000Y-85150000D02*
X181849000Y-74870000D01*
X189050000Y-85390000D02*
X189050000Y-84890000D01*
X185173000Y-78697000D02*
X185219000Y-78744000D01*
X178889000Y-85150000D02*
X188810000Y-85150000D01*
X178889000Y-74870000D02*
X188810000Y-74870000D01*
X185389000Y-78504000D02*
X185424000Y-78539000D01*
X188250000Y-85150000D02*
X188250000Y-74870000D01*
X188810000Y-85150000D02*
X188810000Y-74870000D01*
X188310000Y-85390000D02*
X189050000Y-85390000D01*
X183081000Y-76195000D02*
X183127000Y-76242000D01*
X186750000Y-85150000D02*
X186750000Y-74870000D01*
X182875000Y-76400000D02*
X182911000Y-76435000D01*
X178889000Y-85150000D02*
X178889000Y-74870000D01*
X184834000Y-81015000D02*
G75*
G03*
X183466958Y-81014573I-684001J-1534993D01*
G01*
X185685000Y-83234000D02*
G75*
G03*
X185830253Y-82521195I-1535001J683999D01*
G01*
X185830000Y-82550000D02*
G75*
G03*
X185684756Y-81866682I-1679992J1D01*
G01*
X182615000Y-81866000D02*
G75*
G03*
X182614573Y-83233042I1534993J-684001D01*
G01*
X183466000Y-84085000D02*
G75*
G03*
X184833042Y-84085427I684001J1534993D01*
G01*
X185830000Y-77470000D02*
G75*
G03*
X185830000Y-77470000I-1680000J0D01*
G01*
D14*
%TO.C,Q3*%
X74543700Y-84334600D02*
X74543700Y-81139600D01*
X64003700Y-79644600D02*
X64003700Y-84334600D01*
X64003700Y-84334600D02*
X74543700Y-84334600D01*
%TO.C,Q6*%
X93422600Y-79532600D02*
X93422600Y-84222600D01*
X103962600Y-84222600D02*
X103962600Y-81027600D01*
X93422600Y-84222600D02*
X103962600Y-84222600D01*
D13*
%TO.C,Q7*%
X92816300Y-106476700D02*
X96416300Y-106476700D01*
X94616300Y-102026699D02*
G75*
G03*
X92777822Y-106465178I0J-2600001D01*
G01*
X96454778Y-106465178D02*
G75*
G03*
X94616300Y-102026700I-1838478J1838478D01*
G01*
D14*
%TO.C,Q9*%
X123399700Y-79532600D02*
X123399700Y-84222600D01*
X133939700Y-84222600D02*
X133939700Y-81027600D01*
X123399700Y-84222600D02*
X133939700Y-84222600D01*
%TO.C,Q12*%
X165083200Y-84222600D02*
X165083200Y-81027600D01*
X154543200Y-84222600D02*
X165083200Y-84222600D01*
X154543200Y-79532600D02*
X154543200Y-84222600D01*
%TO.C,Q13*%
X181525500Y-89455400D02*
X181525500Y-92650400D01*
X192065500Y-94145400D02*
X192065500Y-89455400D01*
X192065500Y-89455400D02*
X181525500Y-89455400D01*
D13*
%TO.C,R1*%
X46257000Y-83085000D02*
X46187000Y-83085000D01*
X48997000Y-83085000D02*
G75*
G03*
X48997000Y-83085000I-1370000J0D01*
G01*
D15*
%TO.C,U1*%
X57655400Y-99320600D02*
X54119400Y-99320600D01*
X43991400Y-99320600D02*
X47553400Y-99320600D01*
X57655400Y-101002600D02*
X57655400Y-99320600D01*
X43991400Y-101002600D02*
X43991400Y-99320600D01*
X57655400Y-101002600D02*
X52313400Y-101002600D01*
X43991400Y-101002600D02*
X49270400Y-101002600D01*
X47526530Y-86070600D02*
G75*
G03*
X47528105Y-99321383I3296870J-6625000D01*
G01*
X54120270Y-99320600D02*
G75*
G03*
X54118687Y-86069813I-3296876J6625000D01*
G01*
D13*
%TO.C,Z2*%
X109280000Y-75111000D02*
X109280000Y-65190000D01*
X97554000Y-68611000D02*
X97589000Y-68576000D01*
X109280000Y-75111000D02*
X93920000Y-75111000D01*
X100325000Y-70919000D02*
X100372000Y-70873000D01*
X102827000Y-68827000D02*
X102874000Y-68781000D01*
X109520000Y-64950000D02*
X109020000Y-64950000D01*
X109280000Y-72151000D02*
X93920000Y-72151000D01*
X109280000Y-65190000D02*
X93920000Y-65190000D01*
X97747000Y-68827000D02*
X97794000Y-68781000D01*
X95245000Y-70919000D02*
X95292000Y-70873000D01*
X109520000Y-65690000D02*
X109520000Y-64950000D01*
X100530000Y-71125000D02*
X100565000Y-71089000D01*
X109280000Y-67250000D02*
X93920000Y-67250000D01*
X93920000Y-75111000D02*
X93920000Y-65190000D01*
X95450000Y-71125000D02*
X95485000Y-71089000D01*
X102634000Y-68611000D02*
X102669000Y-68576000D01*
X109280000Y-65750000D02*
X93920000Y-65750000D01*
X107364000Y-68315000D02*
G75*
G03*
X106651195Y-68169747I-683999J-1535001D01*
G01*
X106680000Y-68170000D02*
G75*
G03*
X105996682Y-68315244I-1J-1679992D01*
G01*
X108215000Y-70534000D02*
G75*
G03*
X108215427Y-69166958I-1534993J684001D01*
G01*
X105996000Y-71385000D02*
G75*
G03*
X107363042Y-71385427I684001J1534993D01*
G01*
X105145000Y-69166000D02*
G75*
G03*
X105144573Y-70533042I1534993J-684001D01*
G01*
X98200000Y-69850000D02*
G75*
G03*
X98200000Y-69850000I-1680000J0D01*
G01*
X103280000Y-69850000D02*
G75*
G03*
X103280000Y-69850000I-1680000J0D01*
G01*
%TO.C,Z3*%
X133307000Y-68827000D02*
X133354000Y-68781000D01*
X130805000Y-70919000D02*
X130852000Y-70873000D01*
X140000000Y-65690000D02*
X140000000Y-64950000D01*
X139760000Y-67250000D02*
X124400000Y-67250000D01*
X133114000Y-68611000D02*
X133149000Y-68576000D01*
X128034000Y-68611000D02*
X128069000Y-68576000D01*
X125725000Y-70919000D02*
X125772000Y-70873000D01*
X125930000Y-71125000D02*
X125965000Y-71089000D01*
X128227000Y-68827000D02*
X128274000Y-68781000D01*
X139760000Y-65750000D02*
X124400000Y-65750000D01*
X124400000Y-75111000D02*
X124400000Y-65190000D01*
X140000000Y-64950000D02*
X139500000Y-64950000D01*
X139760000Y-65190000D02*
X124400000Y-65190000D01*
X131010000Y-71125000D02*
X131045000Y-71089000D01*
X139760000Y-72151000D02*
X124400000Y-72151000D01*
X139760000Y-75111000D02*
X124400000Y-75111000D01*
X139760000Y-75111000D02*
X139760000Y-65190000D01*
X137844000Y-68315000D02*
G75*
G03*
X137131195Y-68169747I-683999J-1535001D01*
G01*
X135625000Y-69166000D02*
G75*
G03*
X135624573Y-70533042I1534993J-684001D01*
G01*
X136476000Y-71385000D02*
G75*
G03*
X137843042Y-71385427I684001J1534993D01*
G01*
X138695000Y-70534000D02*
G75*
G03*
X138695427Y-69166958I-1534993J684001D01*
G01*
X137160000Y-68170000D02*
G75*
G03*
X136476682Y-68315244I-1J-1679992D01*
G01*
X133760000Y-69850000D02*
G75*
G03*
X133760000Y-69850000I-1680000J0D01*
G01*
X128680000Y-69850000D02*
G75*
G03*
X128680000Y-69850000I-1680000J0D01*
G01*
%TO.C,Z4*%
X163594000Y-68611000D02*
X163629000Y-68576000D01*
X170240000Y-65750000D02*
X154880000Y-65750000D01*
X163787000Y-68827000D02*
X163834000Y-68781000D01*
X170240000Y-67250000D02*
X154880000Y-67250000D01*
X170240000Y-65190000D02*
X154880000Y-65190000D01*
X161490000Y-71125000D02*
X161525000Y-71089000D01*
X156410000Y-71125000D02*
X156445000Y-71089000D01*
X170240000Y-75111000D02*
X154880000Y-75111000D01*
X158707000Y-68827000D02*
X158754000Y-68781000D01*
X170480000Y-64950000D02*
X169980000Y-64950000D01*
X156205000Y-70919000D02*
X156252000Y-70873000D01*
X158514000Y-68611000D02*
X158549000Y-68576000D01*
X170240000Y-72151000D02*
X154880000Y-72151000D01*
X154880000Y-75111000D02*
X154880000Y-65190000D01*
X170480000Y-65690000D02*
X170480000Y-64950000D01*
X170240000Y-75111000D02*
X170240000Y-65190000D01*
X161285000Y-70919000D02*
X161332000Y-70873000D01*
X167640000Y-68170000D02*
G75*
G03*
X166956682Y-68315244I-1J-1679992D01*
G01*
X168324000Y-68315000D02*
G75*
G03*
X167611195Y-68169747I-683999J-1535001D01*
G01*
X166956000Y-71385000D02*
G75*
G03*
X168323042Y-71385427I684001J1534993D01*
G01*
X169175000Y-70534000D02*
G75*
G03*
X169175427Y-69166958I-1534993J684001D01*
G01*
X166105000Y-69166000D02*
G75*
G03*
X166104573Y-70533042I1534993J-684001D01*
G01*
X164240000Y-69850000D02*
G75*
G03*
X164240000Y-69850000I-1680000J0D01*
G01*
X159160000Y-69850000D02*
G75*
G03*
X159160000Y-69850000I-1680000J0D01*
G01*
%TO.C,Z1*%
X78800000Y-67250000D02*
X63440000Y-67250000D01*
X78800000Y-75111000D02*
X78800000Y-65190000D01*
X63440000Y-75111000D02*
X63440000Y-65190000D01*
X72154000Y-68611000D02*
X72189000Y-68576000D01*
X67267000Y-68827000D02*
X67314000Y-68781000D01*
X79040000Y-64950000D02*
X78540000Y-64950000D01*
X78800000Y-65750000D02*
X63440000Y-65750000D01*
X78800000Y-72151000D02*
X63440000Y-72151000D01*
X64765000Y-70919000D02*
X64812000Y-70873000D01*
X69845000Y-70919000D02*
X69892000Y-70873000D01*
X67074000Y-68611000D02*
X67109000Y-68576000D01*
X79040000Y-65690000D02*
X79040000Y-64950000D01*
X72347000Y-68827000D02*
X72394000Y-68781000D01*
X78800000Y-65190000D02*
X63440000Y-65190000D01*
X78800000Y-75111000D02*
X63440000Y-75111000D01*
X64970000Y-71125000D02*
X65005000Y-71089000D01*
X70050000Y-71125000D02*
X70085000Y-71089000D01*
X76200000Y-68170000D02*
G75*
G03*
X75516682Y-68315244I-1J-1679992D01*
G01*
X76884000Y-68315000D02*
G75*
G03*
X76171195Y-68169747I-683999J-1535001D01*
G01*
X74665000Y-69166000D02*
G75*
G03*
X74664573Y-70533042I1534993J-684001D01*
G01*
X77735000Y-70534000D02*
G75*
G03*
X77735427Y-69166958I-1534993J684001D01*
G01*
X75516000Y-71385000D02*
G75*
G03*
X76883042Y-71385427I684001J1534993D01*
G01*
X72800000Y-69850000D02*
G75*
G03*
X72800000Y-69850000I-1680000J0D01*
G01*
X67720000Y-69850000D02*
G75*
G03*
X67720000Y-69850000I-1680000J0D01*
G01*
%TO.C,J1*%
X171679000Y-124912300D02*
X133459000Y-124912300D01*
X169079000Y-119712300D02*
X133459000Y-119712300D01*
X133459000Y-119712300D02*
X133459000Y-124912300D01*
X171679000Y-119712300D02*
X171679000Y-121042300D01*
X170349000Y-119712300D02*
X171679000Y-119712300D01*
X169079000Y-122312300D02*
X171679000Y-122312300D01*
X171679000Y-122312300D02*
X171679000Y-124912300D01*
X169079000Y-119712300D02*
X169079000Y-122312300D01*
D14*
%TO.C,Z5*%
X68364500Y-85295400D02*
X72168500Y-85295400D01*
X68364500Y-87015400D02*
X68364500Y-85295400D01*
X68364500Y-86155400D02*
X69224500Y-85295400D01*
X65841500Y-86155400D02*
X68364500Y-86155400D01*
X72168500Y-86155400D02*
X74691500Y-86155400D01*
X72168500Y-87015400D02*
X68364500Y-87015400D01*
X72168500Y-85295400D02*
X72168500Y-87015400D01*
%TO.C,Z6*%
X102794500Y-86196000D02*
X105317500Y-86196000D01*
X98990500Y-87056000D02*
X98990500Y-85336000D01*
X102794500Y-85336000D02*
X102794500Y-87056000D01*
X102794500Y-87056000D02*
X98990500Y-87056000D01*
X98990500Y-86196000D02*
X99850500Y-85336000D01*
X96467500Y-86196000D02*
X98990500Y-86196000D01*
X98990500Y-85336000D02*
X102794500Y-85336000D01*
%TO.C,Z8*%
X163940300Y-85004200D02*
X163940300Y-86724200D01*
X160136300Y-85004200D02*
X163940300Y-85004200D01*
X160136300Y-85864200D02*
X160996300Y-85004200D01*
X160136300Y-86724200D02*
X160136300Y-85004200D01*
X163940300Y-86724200D02*
X160136300Y-86724200D01*
X163940300Y-85864200D02*
X166463300Y-85864200D01*
X157613300Y-85864200D02*
X160136300Y-85864200D01*
D13*
%TO.C,C8*%
X166953100Y-96000800D02*
X166953100Y-93115800D01*
X165793100Y-91035800D02*
X165793100Y-88683800D01*
X165473100Y-95231800D02*
X165473100Y-93115800D01*
X167193100Y-91035800D02*
X167193100Y-88090800D01*
X165313100Y-91035800D02*
X165313100Y-89056800D01*
X165993100Y-91035800D02*
X165993100Y-88558800D01*
X164073100Y-93023800D02*
X164073100Y-91127800D01*
X166193100Y-91035800D02*
X166193100Y-88448800D01*
X166793100Y-91035800D02*
X166793100Y-88198800D01*
X164393100Y-93888800D02*
X164393100Y-90262800D01*
X166753100Y-95938800D02*
X166753100Y-93115800D01*
X165273100Y-95058800D02*
X165273100Y-89092800D01*
X165353100Y-91035800D02*
X165353100Y-89020800D01*
X165673100Y-91035800D02*
X165673100Y-88766800D01*
X166033100Y-95615800D02*
X166033100Y-93115800D01*
X164473100Y-94039800D02*
X164473100Y-90111800D01*
X167273100Y-91035800D02*
X167273100Y-88073800D01*
X165153100Y-94942800D02*
X165153100Y-89208800D01*
X164913100Y-94679800D02*
X164913100Y-89471800D01*
X165553100Y-95295800D02*
X165553100Y-93115800D01*
X166833100Y-91035800D02*
X166833100Y-88186800D01*
X167273100Y-96077800D02*
X167273100Y-93115800D01*
X167033100Y-91035800D02*
X167033100Y-88128800D01*
X164353100Y-93806800D02*
X164353100Y-90344800D01*
X167193100Y-96060800D02*
X167193100Y-93115800D01*
X167674100Y-96136800D02*
X167674100Y-88014800D01*
X166113100Y-91035800D02*
X166113100Y-88491800D01*
X167394100Y-96099800D02*
X167394100Y-88051800D01*
X166193100Y-95702800D02*
X166193100Y-93115800D01*
X167113100Y-96042800D02*
X167113100Y-93115800D01*
X166673100Y-91035800D02*
X166673100Y-88240800D01*
X166913100Y-91035800D02*
X166913100Y-88161800D01*
X165833100Y-95493800D02*
X165833100Y-93115800D01*
X166673100Y-95910800D02*
X166673100Y-93115800D01*
X166553100Y-91035800D02*
X166553100Y-88285800D01*
X167353100Y-91035800D02*
X167353100Y-88058800D01*
X164833100Y-94580800D02*
X164833100Y-89570800D01*
X165433100Y-95199800D02*
X165433100Y-93115800D01*
X167153100Y-96051800D02*
X167153100Y-93115800D01*
X165513100Y-95264800D02*
X165513100Y-93115800D01*
X164513100Y-94109800D02*
X164513100Y-90041800D01*
X167594100Y-96127800D02*
X167594100Y-88023800D01*
X166153100Y-91035800D02*
X166153100Y-88469800D01*
X167754100Y-96143800D02*
X167754100Y-88007800D01*
X172483798Y-94390800D02*
X171683798Y-94390800D01*
X164033100Y-92843800D02*
X164033100Y-91307800D01*
X166633100Y-91035800D02*
X166633100Y-88254800D01*
X166873100Y-91035800D02*
X166873100Y-88173800D01*
X166993100Y-91035800D02*
X166993100Y-88139800D01*
X165673100Y-95384800D02*
X165673100Y-93115800D01*
X165313100Y-95094800D02*
X165313100Y-93115800D01*
X166353100Y-95779800D02*
X166353100Y-93115800D01*
X167313100Y-96085800D02*
X167313100Y-93115800D01*
X165913100Y-95544800D02*
X165913100Y-93115800D01*
X166473100Y-95832800D02*
X166473100Y-93115800D01*
X165033100Y-94816800D02*
X165033100Y-89334800D01*
X165713100Y-95413800D02*
X165713100Y-93115800D01*
X164793100Y-94529800D02*
X164793100Y-89621800D01*
X164593100Y-94241800D02*
X164593100Y-89909800D01*
X166393100Y-91035800D02*
X166393100Y-88353800D01*
X165593100Y-91035800D02*
X165593100Y-88825800D01*
X165073100Y-94859800D02*
X165073100Y-89291800D01*
X167073100Y-96032800D02*
X167073100Y-93115800D01*
X166913100Y-95989800D02*
X166913100Y-93115800D01*
X166273100Y-95741800D02*
X166273100Y-93115800D01*
X165513100Y-91035800D02*
X165513100Y-88886800D01*
X165753100Y-91035800D02*
X165753100Y-88710800D01*
X165553100Y-91035800D02*
X165553100Y-88855800D01*
X166713100Y-95925800D02*
X166713100Y-93115800D01*
X167434100Y-96105800D02*
X167434100Y-88045800D01*
X166713100Y-91035800D02*
X166713100Y-88225800D01*
X167233100Y-96069800D02*
X167233100Y-93115800D01*
X165873100Y-91035800D02*
X165873100Y-88631800D01*
X166513100Y-95849800D02*
X166513100Y-93115800D01*
X165753100Y-95440800D02*
X165753100Y-93115800D01*
X166953100Y-91035800D02*
X166953100Y-88150800D01*
X165433100Y-91035800D02*
X165433100Y-88951800D01*
X166433100Y-91035800D02*
X166433100Y-88335800D01*
X167834100Y-96149800D02*
X167834100Y-88001800D01*
X168074100Y-96155800D02*
X168074100Y-87995800D01*
X167113100Y-91035800D02*
X167113100Y-88108800D01*
X168034100Y-96155800D02*
X168034100Y-87995800D01*
X165193100Y-94982800D02*
X165193100Y-89168800D01*
X167714100Y-96140800D02*
X167714100Y-88010800D01*
X167233100Y-91035800D02*
X167233100Y-88081800D01*
X165913100Y-91035800D02*
X165913100Y-88606800D01*
X166473100Y-91035800D02*
X166473100Y-88318800D01*
X166793100Y-95952800D02*
X166793100Y-93115800D01*
X167554100Y-96123800D02*
X167554100Y-88027800D01*
X166593100Y-95880800D02*
X166593100Y-93115800D01*
X166753100Y-91035800D02*
X166753100Y-88212800D01*
X166593100Y-91035800D02*
X166593100Y-88270800D01*
X167033100Y-96022800D02*
X167033100Y-93115800D01*
X167313100Y-91035800D02*
X167313100Y-88065800D01*
X165793100Y-95467800D02*
X165793100Y-93115800D01*
X166233100Y-91035800D02*
X166233100Y-88428800D01*
X165993100Y-95592800D02*
X165993100Y-93115800D01*
X172083798Y-94790800D02*
X172083798Y-93990800D01*
X167474100Y-96112800D02*
X167474100Y-88038800D01*
X165473100Y-91035800D02*
X165473100Y-88919800D01*
X166513100Y-91035800D02*
X166513100Y-88301800D01*
X164313100Y-93720800D02*
X164313100Y-90430800D01*
X167514100Y-96117800D02*
X167514100Y-88033800D01*
X166153100Y-95681800D02*
X166153100Y-93115800D01*
X166993100Y-96011800D02*
X166993100Y-93115800D01*
X164113100Y-93173800D02*
X164113100Y-90977800D01*
X164193100Y-93421800D02*
X164193100Y-90729800D01*
X167954100Y-96154800D02*
X167954100Y-87996800D01*
X166113100Y-95659800D02*
X166113100Y-93115800D01*
X165393100Y-95165800D02*
X165393100Y-93115800D01*
X164993100Y-94772800D02*
X164993100Y-89378800D01*
X165233100Y-95020800D02*
X165233100Y-89130800D01*
X165593100Y-95325800D02*
X165593100Y-93115800D01*
X164713100Y-94420800D02*
X164713100Y-89730800D01*
X164633100Y-94303800D02*
X164633100Y-89847800D01*
X166073100Y-91035800D02*
X166073100Y-88513800D01*
X166873100Y-95977800D02*
X166873100Y-93115800D01*
X165393100Y-91035800D02*
X165393100Y-88985800D01*
X165953100Y-91035800D02*
X165953100Y-88582800D01*
X166553100Y-95865800D02*
X166553100Y-93115800D01*
X164433100Y-93965800D02*
X164433100Y-90185800D01*
X164153100Y-93304800D02*
X164153100Y-90846800D01*
X165873100Y-95519800D02*
X165873100Y-93115800D01*
X166273100Y-91035800D02*
X166273100Y-88409800D01*
X166353100Y-91035800D02*
X166353100Y-88371800D01*
X166033100Y-91035800D02*
X166033100Y-88535800D01*
X167794100Y-96146800D02*
X167794100Y-88004800D01*
X166833100Y-95964800D02*
X166833100Y-93115800D01*
X167874100Y-96151800D02*
X167874100Y-87999800D01*
X163993100Y-92608800D02*
X163993100Y-91542800D01*
X165633100Y-95355800D02*
X165633100Y-93115800D01*
X164233100Y-93528800D02*
X164233100Y-90622800D01*
X166073100Y-95637800D02*
X166073100Y-93115800D01*
X166393100Y-95797800D02*
X166393100Y-93115800D01*
X165113100Y-94901800D02*
X165113100Y-89249800D01*
X167914100Y-96152800D02*
X167914100Y-87998800D01*
X164953100Y-94726800D02*
X164953100Y-89424800D01*
X167073100Y-91035800D02*
X167073100Y-88118800D01*
X166233100Y-95722800D02*
X166233100Y-93115800D01*
X165833100Y-91035800D02*
X165833100Y-88657800D01*
X164673100Y-94362800D02*
X164673100Y-89788800D01*
X165353100Y-95130800D02*
X165353100Y-93115800D01*
X167353100Y-96092800D02*
X167353100Y-93115800D01*
X165633100Y-91035800D02*
X165633100Y-88795800D01*
X166313100Y-91035800D02*
X166313100Y-88389800D01*
X164553100Y-94177800D02*
X164553100Y-89973800D01*
X167153100Y-91035800D02*
X167153100Y-88099800D01*
X164273100Y-93627800D02*
X164273100Y-90523800D01*
X164753100Y-94475800D02*
X164753100Y-89675800D01*
X165953100Y-95568800D02*
X165953100Y-93115800D01*
X166433100Y-95815800D02*
X166433100Y-93115800D01*
X166313100Y-95761800D02*
X166313100Y-93115800D01*
X167994100Y-96155800D02*
X167994100Y-87995800D01*
X166633100Y-95896800D02*
X166633100Y-93115800D01*
X164873100Y-94631800D02*
X164873100Y-89519800D01*
X165713100Y-91035800D02*
X165713100Y-88737800D01*
X167634100Y-96132800D02*
X167634100Y-88018800D01*
X172194100Y-92075800D02*
G75*
G03*
X172194100Y-92075800I-4120000J0D01*
G01*
%TO.C,Q4*%
X87218400Y-106489800D02*
X90818400Y-106489800D01*
X90856878Y-106478278D02*
G75*
G03*
X89018400Y-102039800I-1838478J1838478D01*
G01*
X89018400Y-102039799D02*
G75*
G03*
X87179922Y-106478278I0J-2600001D01*
G01*
%TO.C,R23*%
X74202300Y-105627200D02*
X74132300Y-105627200D01*
X76942300Y-105627200D02*
G75*
G03*
X76942300Y-105627200I-1370000J0D01*
G01*
%TO.C,R31*%
X88097100Y-114494500D02*
X88097100Y-114564500D01*
X89467100Y-113124500D02*
G75*
G03*
X89467100Y-113124500I-1370000J0D01*
G01*
%TO.C,R16*%
X133271400Y-89145900D02*
X133341400Y-89145900D01*
X133271400Y-89145900D02*
G75*
G03*
X133271400Y-89145900I-1370000J0D01*
G01*
%TO.C,Q2*%
X75348800Y-80046600D02*
X75348800Y-83646600D01*
X79798801Y-81846600D02*
G75*
G03*
X75360322Y-80008122I-2600001J0D01*
G01*
X75360322Y-83685078D02*
G75*
G03*
X79798800Y-81846600I1838478J1838478D01*
G01*
%TO.C,R24*%
X74746700Y-108765100D02*
X74816700Y-108765100D01*
X74746700Y-108765100D02*
G75*
G03*
X74746700Y-108765100I-1370000J0D01*
G01*
%TO.C,R5*%
X89977500Y-78728900D02*
X90047500Y-78728900D01*
X89977500Y-78728900D02*
G75*
G03*
X89977500Y-78728900I-1370000J0D01*
G01*
%TO.C,RV1*%
X125304100Y-97848800D02*
X125304100Y-92778800D01*
X115534100Y-97848800D02*
X115534100Y-92778800D01*
X125304100Y-92778800D02*
X115534100Y-92778800D01*
X125304100Y-97848800D02*
X115534100Y-97848800D01*
%TO.C,J4*%
X120030900Y-88914000D02*
X121360900Y-88914000D01*
X118700900Y-88914000D02*
X118700900Y-91574000D01*
X118760900Y-88914000D02*
X118760900Y-91574000D01*
X118760900Y-91574000D02*
X118700900Y-91574000D01*
X121360900Y-88914000D02*
X121360900Y-90244000D01*
X118760900Y-88914000D02*
X118700900Y-88914000D01*
%TO.C,R15*%
X128108500Y-89152400D02*
X128178500Y-89152400D01*
X128108500Y-89152400D02*
G75*
G03*
X128108500Y-89152400I-1370000J0D01*
G01*
%TO.C,R2*%
X54739000Y-83011900D02*
X54669000Y-83011900D01*
X57479000Y-83011900D02*
G75*
G03*
X57479000Y-83011900I-1370000J0D01*
G01*
%TO.C,R17*%
X179540300Y-69572800D02*
X179540300Y-69642800D01*
X180910300Y-68202800D02*
G75*
G03*
X180910300Y-68202800I-1370000J0D01*
G01*
%TO.C,R4*%
X108724700Y-115764800D02*
X108654700Y-115764800D01*
X111464700Y-115764800D02*
G75*
G03*
X111464700Y-115764800I-1370000J0D01*
G01*
%TO.C,R18*%
X175663400Y-87283100D02*
X175733400Y-87283100D01*
X175663400Y-87283100D02*
G75*
G03*
X175663400Y-87283100I-1370000J0D01*
G01*
%TO.C,R29*%
X142411000Y-113326100D02*
X142341000Y-113326100D01*
X145151000Y-113326100D02*
G75*
G03*
X145151000Y-113326100I-1370000J0D01*
G01*
%TO.C,R25*%
X75859900Y-112698500D02*
X75859900Y-112628500D01*
X77229900Y-114068500D02*
G75*
G03*
X77229900Y-114068500I-1370000J0D01*
G01*
%TO.C,R33*%
X97677800Y-114494500D02*
X97677800Y-114564500D01*
X99047800Y-113124500D02*
G75*
G03*
X99047800Y-113124500I-1370000J0D01*
G01*
%TO.C,R14*%
X138467400Y-89165200D02*
X138537400Y-89165200D01*
X138467400Y-89165200D02*
G75*
G03*
X138467400Y-89165200I-1370000J0D01*
G01*
%TO.C,Q11*%
X165961500Y-79773000D02*
X165961500Y-83373000D01*
X165973022Y-83411478D02*
G75*
G03*
X170411500Y-81573000I1838478J1838478D01*
G01*
X170411501Y-81573000D02*
G75*
G03*
X165973022Y-79734522I-2600001J0D01*
G01*
%TO.C,R27*%
X142411000Y-103747400D02*
X142341000Y-103747400D01*
X145151000Y-103747400D02*
G75*
G03*
X145151000Y-103747400I-1370000J0D01*
G01*
%TO.C,D4*%
X123840300Y-111761400D02*
X122820300Y-111761400D01*
X118400300Y-110291400D02*
X118400300Y-113231400D01*
X122820300Y-110291400D02*
X117380300Y-110291400D01*
X118280300Y-110291400D02*
X118280300Y-113231400D01*
X117380300Y-113231400D02*
X122820300Y-113231400D01*
X122820300Y-113231400D02*
X122820300Y-110291400D01*
X117380300Y-110291400D02*
X117380300Y-113231400D01*
X116360300Y-111761400D02*
X117380300Y-111761400D01*
X118160300Y-110291400D02*
X118160300Y-113231400D01*
%TO.C,D2*%
X118280300Y-115200800D02*
X118280300Y-118140800D01*
X118160300Y-115200800D02*
X118160300Y-118140800D01*
X122820300Y-115200800D02*
X117380300Y-115200800D01*
X123840300Y-116670800D02*
X122820300Y-116670800D01*
X118400300Y-115200800D02*
X118400300Y-118140800D01*
X122820300Y-118140800D02*
X122820300Y-115200800D01*
X117380300Y-115200800D02*
X117380300Y-118140800D01*
X116360300Y-116670800D02*
X117380300Y-116670800D01*
X117380300Y-118140800D02*
X122820300Y-118140800D01*
D14*
%TO.C,S1*%
X121866200Y-123973800D02*
X121866200Y-121573800D01*
X116766200Y-125773800D02*
X120966200Y-125773800D01*
X116766200Y-119773800D02*
X120966200Y-119773800D01*
X114166200Y-120523800D02*
X114266200Y-120523800D01*
X115866200Y-123973800D02*
X115866200Y-121573800D01*
X114266200Y-120523800D02*
X114266200Y-120523800D01*
X114166200Y-120523800D02*
X114166200Y-120523800D01*
X114166200Y-120523800D02*
G75*
G03*
X114266200Y-120523800I50000J0D01*
G01*
X114266200Y-120523800D02*
G75*
G03*
X114166200Y-120523800I-50000J0D01*
G01*
D13*
%TO.C,R9*%
X119952200Y-73133700D02*
X120022200Y-73133700D01*
X119952200Y-73133700D02*
G75*
G03*
X119952200Y-73133700I-1370000J0D01*
G01*
%TO.C,R13*%
X151281000Y-75702800D02*
X151351000Y-75702800D01*
X151281000Y-75702800D02*
G75*
G03*
X151281000Y-75702800I-1370000J0D01*
G01*
%TO.C,R6*%
X79470900Y-89073600D02*
X79540900Y-89073600D01*
X79470900Y-89073600D02*
G75*
G03*
X79470900Y-89073600I-1370000J0D01*
G01*
%TO.C,R11*%
X98922100Y-89073600D02*
X98992100Y-89073600D01*
X98922100Y-89073600D02*
G75*
G03*
X98922100Y-89073600I-1370000J0D01*
G01*
%TO.C,R7*%
X69086100Y-89073600D02*
X69156100Y-89073600D01*
X69086100Y-89073600D02*
G75*
G03*
X69086100Y-89073600I-1370000J0D01*
G01*
D14*
%TO.C,U2*%
X173962900Y-104043100D02*
X173962900Y-104043100D01*
X173962900Y-104043100D02*
X173962900Y-104043100D01*
X173962900Y-104143100D02*
X173962900Y-104143100D01*
D15*
X170362900Y-97293100D02*
X190362900Y-97293100D01*
X190362900Y-97293100D02*
X190362900Y-103293100D01*
X170362900Y-103293100D02*
X170362900Y-97293100D01*
X190362900Y-103293100D02*
X170362900Y-103293100D01*
D14*
X173962900Y-104043100D02*
G75*
G03*
X173962900Y-104143100I0J-50000D01*
G01*
X173962900Y-104143100D02*
G75*
G03*
X173962900Y-104043100I0J50000D01*
G01*
X173962900Y-104043100D02*
G75*
G03*
X173962900Y-104143100I0J-50000D01*
G01*
D13*
%TO.C,Q10*%
X98448100Y-106476700D02*
X102048100Y-106476700D01*
X100248100Y-102026699D02*
G75*
G03*
X98409622Y-106465178I0J-2600001D01*
G01*
X102086578Y-106465178D02*
G75*
G03*
X100248100Y-102026700I-1838478J1838478D01*
G01*
%TO.C,D8*%
X118280300Y-100472700D02*
X118280300Y-103412700D01*
X123840300Y-101942700D02*
X122820300Y-101942700D01*
X118400300Y-100472700D02*
X118400300Y-103412700D01*
X122820300Y-100472700D02*
X117380300Y-100472700D01*
X117380300Y-103412700D02*
X122820300Y-103412700D01*
X117380300Y-100472700D02*
X117380300Y-103412700D01*
X122820300Y-103412700D02*
X122820300Y-100472700D01*
X116360300Y-101942700D02*
X117380300Y-101942700D01*
X118160300Y-100472700D02*
X118160300Y-103412700D01*
D14*
%TO.C,IC3*%
X69850600Y-105689500D02*
X63250600Y-105689500D01*
X71085600Y-115849500D02*
X63250600Y-115849500D01*
D13*
%TO.C,Q1*%
X81622400Y-106494400D02*
X85222400Y-106494400D01*
X85260878Y-106482878D02*
G75*
G03*
X83422400Y-102044400I-1838478J1838478D01*
G01*
X83422400Y-102044399D02*
G75*
G03*
X81583922Y-106482878I0J-2600001D01*
G01*
%TO.C,R26*%
X142411000Y-98958100D02*
X142341000Y-98958100D01*
X145151000Y-98958100D02*
G75*
G03*
X145151000Y-98958100I-1370000J0D01*
G01*
%TO.C,R8*%
X74292600Y-89073600D02*
X74362600Y-89073600D01*
X74292600Y-89073600D02*
G75*
G03*
X74292600Y-89073600I-1370000J0D01*
G01*
D14*
%TO.C,IC4*%
X136516900Y-113899400D02*
X130216900Y-113899400D01*
X130216900Y-113899400D02*
X130216900Y-94059400D01*
X130216900Y-94059400D02*
X136516900Y-94059400D01*
X136516900Y-94059400D02*
X136516900Y-113899400D01*
X138966900Y-113944400D02*
X136866900Y-113944400D01*
D13*
%TO.C,Q8*%
X135816600Y-80052900D02*
X135816600Y-83652900D01*
X135828122Y-83691378D02*
G75*
G03*
X140266600Y-81852900I1838478J1838478D01*
G01*
X140266601Y-81852900D02*
G75*
G03*
X135828122Y-80014422I-2600001J0D01*
G01*
%TO.C,Q5*%
X104947400Y-79979200D02*
X104947400Y-83579200D01*
X104958922Y-83617678D02*
G75*
G03*
X109397400Y-81779200I1838478J1838478D01*
G01*
X109397401Y-81779200D02*
G75*
G03*
X104958922Y-79940722I-2600001J0D01*
G01*
%TO.C,D10*%
X164830100Y-98662200D02*
X163810100Y-98662200D01*
X159150100Y-97192200D02*
X159150100Y-100132200D01*
X159390100Y-97192200D02*
X159390100Y-100132200D01*
X163810100Y-100132200D02*
X163810100Y-97192200D01*
X159270100Y-97192200D02*
X159270100Y-100132200D01*
X158370100Y-100132200D02*
X163810100Y-100132200D01*
X157350100Y-98662200D02*
X158370100Y-98662200D01*
X158370100Y-97192200D02*
X158370100Y-100132200D01*
X163810100Y-97192200D02*
X158370100Y-97192200D01*
%TO.C,C5*%
X152489400Y-78464400D02*
X153155400Y-78464400D01*
X149713400Y-78464400D02*
X150379400Y-78464400D01*
X153155400Y-83804400D02*
X153155400Y-78464400D01*
X149713400Y-83804400D02*
X150379400Y-83804400D01*
X149713400Y-83804400D02*
X149713400Y-78464400D01*
X152489400Y-83804400D02*
X153155400Y-83804400D01*
%TO.C,R21*%
X175930200Y-93313200D02*
X176000200Y-93313200D01*
X175930200Y-93313200D02*
G75*
G03*
X175930200Y-93313200I-1370000J0D01*
G01*
%TO.C,C9*%
X153083600Y-94946000D02*
X153083600Y-97610000D01*
X153443600Y-90389000D02*
X153443600Y-92866000D01*
X153923600Y-94946000D02*
X153923600Y-97095000D01*
X153523600Y-94946000D02*
X153523600Y-97375000D01*
X155283600Y-92677000D02*
X155283600Y-95135000D01*
X152523600Y-89992000D02*
X152523600Y-92866000D01*
X152883600Y-90116000D02*
X152883600Y-92866000D01*
X155203600Y-92453000D02*
X155203600Y-95359000D01*
X153043600Y-94946000D02*
X153043600Y-97628000D01*
X154643600Y-91452000D02*
X154643600Y-96360000D01*
X154043600Y-90816000D02*
X154043600Y-92866000D01*
X155243600Y-92560000D02*
X155243600Y-95252000D01*
X153603600Y-90488000D02*
X153603600Y-92866000D01*
X154003600Y-94946000D02*
X154003600Y-97030000D01*
X152243600Y-89921000D02*
X152243600Y-92866000D01*
X153763600Y-90597000D02*
X153763600Y-92866000D01*
X152563600Y-94946000D02*
X152563600Y-97808000D01*
X153563600Y-90462000D02*
X153563600Y-92866000D01*
X153003600Y-94946000D02*
X153003600Y-97646000D01*
X154563600Y-91350000D02*
X154563600Y-96462000D01*
X153963600Y-94946000D02*
X153963600Y-97062000D01*
X153723600Y-90568000D02*
X153723600Y-92866000D01*
X153443600Y-94946000D02*
X153443600Y-97423000D01*
X153363600Y-94946000D02*
X153363600Y-97468000D01*
X152643600Y-90029000D02*
X152643600Y-92866000D01*
X152042600Y-89882000D02*
X152042600Y-97930000D01*
X154883600Y-91804000D02*
X154883600Y-96008000D01*
X146952902Y-91591000D02*
X147752902Y-91591000D01*
X152123600Y-94946000D02*
X152123600Y-97916000D01*
X152563600Y-90004000D02*
X152563600Y-92866000D01*
X154523600Y-91302000D02*
X154523600Y-96510000D01*
X154323600Y-91080000D02*
X154323600Y-96732000D01*
X152363600Y-89949000D02*
X152363600Y-92866000D01*
X153083600Y-90202000D02*
X153083600Y-92866000D01*
X155163600Y-92354000D02*
X155163600Y-95458000D01*
X153683600Y-94946000D02*
X153683600Y-97271000D01*
X152643600Y-94946000D02*
X152643600Y-97783000D01*
X154803600Y-91678000D02*
X154803600Y-96134000D01*
X153883600Y-94946000D02*
X153883600Y-97126000D01*
X151482600Y-89827000D02*
X151482600Y-97985000D01*
X154083600Y-90851000D02*
X154083600Y-92866000D01*
X151442600Y-89826000D02*
X151442600Y-97986000D01*
X154723600Y-91561000D02*
X154723600Y-96251000D01*
X155363600Y-92958000D02*
X155363600Y-94854000D01*
X153803600Y-94946000D02*
X153803600Y-97186000D01*
X153243600Y-90279000D02*
X153243600Y-92866000D01*
X152163600Y-94946000D02*
X152163600Y-97908000D01*
X152883600Y-94946000D02*
X152883600Y-97696000D01*
X154683600Y-91506000D02*
X154683600Y-96306000D01*
X153523600Y-90437000D02*
X153523600Y-92866000D01*
X152002600Y-89876000D02*
X152002600Y-97936000D01*
X152843600Y-94946000D02*
X152843600Y-97711000D01*
X151562600Y-89830000D02*
X151562600Y-97982000D01*
X151762600Y-89845000D02*
X151762600Y-97967000D01*
X152763600Y-90071000D02*
X152763600Y-92866000D01*
X152483600Y-89981000D02*
X152483600Y-92866000D01*
X152443600Y-94946000D02*
X152443600Y-97842000D01*
X153403600Y-90366000D02*
X153403600Y-92866000D01*
X154083600Y-94946000D02*
X154083600Y-96961000D01*
X152523600Y-94946000D02*
X152523600Y-97820000D01*
X152683600Y-90043000D02*
X152683600Y-92866000D01*
X152283600Y-89930000D02*
X152283600Y-92866000D01*
X155123600Y-92261000D02*
X155123600Y-95551000D01*
X153203600Y-94946000D02*
X153203600Y-97553000D01*
X154443600Y-91209000D02*
X154443600Y-96603000D01*
X154003600Y-90782000D02*
X154003600Y-92866000D01*
X154283600Y-91039000D02*
X154283600Y-96773000D01*
X152243600Y-94946000D02*
X152243600Y-97891000D01*
X154963600Y-91942000D02*
X154963600Y-95870000D01*
X155403600Y-93138000D02*
X155403600Y-94674000D01*
X152723600Y-94946000D02*
X152723600Y-97756000D01*
X154403600Y-91165000D02*
X154403600Y-96647000D01*
X152923600Y-94946000D02*
X152923600Y-97680000D01*
X152963600Y-90149000D02*
X152963600Y-92866000D01*
X154043600Y-94946000D02*
X154043600Y-96996000D01*
X152723600Y-90056000D02*
X152723600Y-92866000D01*
X152203600Y-94946000D02*
X152203600Y-97900000D01*
X153123600Y-94946000D02*
X153123600Y-97592000D01*
X152843600Y-90101000D02*
X152843600Y-92866000D01*
X152323600Y-89939000D02*
X152323600Y-92866000D01*
X153763600Y-94946000D02*
X153763600Y-97215000D01*
X151602600Y-89832000D02*
X151602600Y-97980000D01*
X153363600Y-90344000D02*
X153363600Y-92866000D01*
X153283600Y-94946000D02*
X153283600Y-97512000D01*
X155443600Y-93373000D02*
X155443600Y-94439000D01*
X153163600Y-90240000D02*
X153163600Y-92866000D01*
X151922600Y-89864000D02*
X151922600Y-97948000D01*
X154243600Y-90999000D02*
X154243600Y-96813000D01*
X153403600Y-94946000D02*
X153403600Y-97446000D01*
X153283600Y-90300000D02*
X153283600Y-92866000D01*
X151802600Y-89849000D02*
X151802600Y-97963000D01*
X152123600Y-89896000D02*
X152123600Y-92866000D01*
X152603600Y-94946000D02*
X152603600Y-97795000D01*
X152803600Y-90085000D02*
X152803600Y-92866000D01*
X152443600Y-89970000D02*
X152443600Y-92866000D01*
X155043600Y-92093000D02*
X155043600Y-95719000D01*
X153683600Y-90541000D02*
X153683600Y-92866000D01*
X153843600Y-94946000D02*
X153843600Y-97156000D01*
X152763600Y-94946000D02*
X152763600Y-97741000D01*
X154763600Y-91619000D02*
X154763600Y-96193000D01*
X155003600Y-92016000D02*
X155003600Y-95796000D01*
X153643600Y-90514000D02*
X153643600Y-92866000D01*
X151522600Y-89829000D02*
X151522600Y-97983000D01*
X152483600Y-94946000D02*
X152483600Y-97831000D01*
X153123600Y-90220000D02*
X153123600Y-92866000D01*
X151642600Y-89835000D02*
X151642600Y-97977000D01*
X153323600Y-90322000D02*
X153323600Y-92866000D01*
X154923600Y-91872000D02*
X154923600Y-95940000D01*
X152683600Y-94946000D02*
X152683600Y-97769000D01*
X153923600Y-90717000D02*
X153923600Y-92866000D01*
X152363600Y-94946000D02*
X152363600Y-97863000D01*
X155323600Y-92808000D02*
X155323600Y-95004000D01*
X153843600Y-90656000D02*
X153843600Y-92866000D01*
X151402600Y-89826000D02*
X151402600Y-97986000D01*
X154843600Y-91740000D02*
X154843600Y-96072000D01*
X152083600Y-94946000D02*
X152083600Y-97923000D01*
X151962600Y-89869000D02*
X151962600Y-97943000D01*
X153163600Y-94946000D02*
X153163600Y-97572000D01*
X154203600Y-90961000D02*
X154203600Y-96851000D01*
X154363600Y-91122000D02*
X154363600Y-96690000D01*
X153603600Y-94946000D02*
X153603600Y-97324000D01*
X151682600Y-89838000D02*
X151682600Y-97974000D01*
X153243600Y-94946000D02*
X153243600Y-97533000D01*
X151882600Y-89858000D02*
X151882600Y-97954000D01*
X151362600Y-89826000D02*
X151362600Y-97986000D01*
X152083600Y-89889000D02*
X152083600Y-92866000D01*
X153003600Y-90166000D02*
X153003600Y-92866000D01*
X152963600Y-94946000D02*
X152963600Y-97663000D01*
X151722600Y-89841000D02*
X151722600Y-97971000D01*
X152403600Y-89959000D02*
X152403600Y-92866000D01*
X154123600Y-90887000D02*
X154123600Y-92866000D01*
X153483600Y-94946000D02*
X153483600Y-97399000D01*
X153483600Y-90413000D02*
X153483600Y-92866000D01*
X152203600Y-89912000D02*
X152203600Y-92866000D01*
X153043600Y-90184000D02*
X153043600Y-92866000D01*
X152923600Y-90132000D02*
X152923600Y-92866000D01*
X155083600Y-92175000D02*
X155083600Y-95637000D01*
X147352902Y-91191000D02*
X147352902Y-91991000D01*
X153323600Y-94946000D02*
X153323600Y-97490000D01*
X154603600Y-91401000D02*
X154603600Y-96411000D01*
X153563600Y-94946000D02*
X153563600Y-97350000D01*
X153963600Y-90750000D02*
X153963600Y-92866000D01*
X152803600Y-94946000D02*
X152803600Y-97727000D01*
X152163600Y-89904000D02*
X152163600Y-92866000D01*
X153723600Y-94946000D02*
X153723600Y-97244000D01*
X153803600Y-90626000D02*
X153803600Y-92866000D01*
X151842600Y-89854000D02*
X151842600Y-97958000D01*
X152603600Y-90017000D02*
X152603600Y-92866000D01*
X154483600Y-91255000D02*
X154483600Y-96557000D01*
X154123600Y-94946000D02*
X154123600Y-96925000D01*
X152403600Y-94946000D02*
X152403600Y-97853000D01*
X153203600Y-90259000D02*
X153203600Y-92866000D01*
X154163600Y-90923000D02*
X154163600Y-96889000D01*
X153643600Y-94946000D02*
X153643600Y-97298000D01*
X152323600Y-94946000D02*
X152323600Y-97873000D01*
X152283600Y-94946000D02*
X152283600Y-97882000D01*
X153883600Y-90686000D02*
X153883600Y-92866000D01*
X155482600Y-93906000D02*
G75*
G03*
X155482600Y-93906000I-4120000J0D01*
G01*
%TO.C,R3*%
X108858300Y-110918500D02*
X108788300Y-110918500D01*
X111598300Y-110918500D02*
G75*
G03*
X111598300Y-110918500I-1370000J0D01*
G01*
%TO.C,R30*%
X83306700Y-114494500D02*
X83306700Y-114564500D01*
X84676700Y-113124500D02*
G75*
G03*
X84676700Y-113124500I-1370000J0D01*
G01*
%TO.C,R12*%
X104096700Y-89051400D02*
X104166700Y-89051400D01*
X104096700Y-89051400D02*
G75*
G03*
X104096700Y-89051400I-1370000J0D01*
G01*
%TO.C,R22*%
X156900200Y-107087700D02*
X156900200Y-107157700D01*
X158270200Y-105717700D02*
G75*
G03*
X158270200Y-105717700I-1370000J0D01*
G01*
%TO.C,R28*%
X142411000Y-108536800D02*
X142341000Y-108536800D01*
X145151000Y-108536800D02*
G75*
G03*
X145151000Y-108536800I-1370000J0D01*
G01*
%TO.C,R20*%
X161953300Y-88731000D02*
X162023300Y-88731000D01*
X161953300Y-88731000D02*
G75*
G03*
X161953300Y-88731000I-1370000J0D01*
G01*
%TO.C,R19*%
X156590800Y-88780800D02*
X156660800Y-88780800D01*
X156590800Y-88780800D02*
G75*
G03*
X156590800Y-88780800I-1370000J0D01*
G01*
%TO.C,R10*%
X109298100Y-89045900D02*
X109368100Y-89045900D01*
X109298100Y-89045900D02*
G75*
G03*
X109298100Y-89045900I-1370000J0D01*
G01*
%TO.C,C7*%
X165333200Y-103891700D02*
X160393200Y-103891700D01*
X160393200Y-101466700D02*
X160393200Y-101151700D01*
X160393200Y-103891700D02*
X160393200Y-103576700D01*
X165333200Y-101151700D02*
X160393200Y-101151700D01*
X165333200Y-101466700D02*
X165333200Y-101151700D01*
X165333200Y-103891700D02*
X165333200Y-103576700D01*
%TO.C,D6*%
X118160300Y-105382100D02*
X118160300Y-108322100D01*
X117380300Y-108322100D02*
X122820300Y-108322100D01*
X117380300Y-105382100D02*
X117380300Y-108322100D01*
X118400300Y-105382100D02*
X118400300Y-108322100D01*
X116360300Y-106852100D02*
X117380300Y-106852100D01*
X122820300Y-108322100D02*
X122820300Y-105382100D01*
X123840300Y-106852100D02*
X122820300Y-106852100D01*
X118280300Y-105382100D02*
X118280300Y-108322100D01*
X122820300Y-105382100D02*
X117380300Y-105382100D01*
%TO.C,R32*%
X92887500Y-114494500D02*
X92887500Y-114564500D01*
X94257500Y-113124500D02*
G75*
G03*
X94257500Y-113124500I-1370000J0D01*
G01*
%TO.C,C6*%
X158117800Y-115622200D02*
X158432800Y-115622200D01*
X155692800Y-110682200D02*
X156007800Y-110682200D01*
X155692800Y-115622200D02*
X155692800Y-110682200D01*
X155692800Y-115622200D02*
X156007800Y-115622200D01*
X158432800Y-115622200D02*
X158432800Y-110682200D01*
X158117800Y-110682200D02*
X158432800Y-110682200D01*
D14*
%TO.C,Z7*%
X128540600Y-87056000D02*
X128540600Y-85336000D01*
X128540600Y-85336000D02*
X132344600Y-85336000D01*
X128540600Y-86196000D02*
X129400600Y-85336000D01*
X132344600Y-87056000D02*
X128540600Y-87056000D01*
X126017600Y-86196000D02*
X128540600Y-86196000D01*
X132344600Y-85336000D02*
X132344600Y-87056000D01*
X132344600Y-86196000D02*
X134867600Y-86196000D01*
D13*
%TO.C,R34*%
X59259400Y-114568900D02*
X59329400Y-114568900D01*
X59259400Y-114568900D02*
G75*
G03*
X59259400Y-114568900I-1370000J0D01*
G01*
%TD*%
M02*
