%TF.GenerationSoftware,KiCad,Pcbnew,(5.1.9)-1*%
%TF.CreationDate,2021-10-29T19:30:33-07:00*%
%TF.ProjectId,MakeItRain,4d616b65-4974-4526-9169-6e2e6b696361,rev?*%
%TF.SameCoordinates,Original*%
%TF.FileFunction,Copper,L4,Bot*%
%TF.FilePolarity,Positive*%
%FSLAX46Y46*%
G04 Gerber Fmt 4.6, Leading zero omitted, Abs format (unit mm)*
G04 Created by KiCad (PCBNEW (5.1.9)-1) date 2021-10-29 19:30:33*
%MOMM*%
%LPD*%
G01*
G04 APERTURE LIST*
%TA.AperFunction,ComponentPad*%
%ADD10C,1.150000*%
%TD*%
%TA.AperFunction,ComponentPad*%
%ADD11R,1.150000X1.150000*%
%TD*%
%TA.AperFunction,ComponentPad*%
%ADD12C,2.600000*%
%TD*%
%TA.AperFunction,ComponentPad*%
%ADD13R,2.600000X2.600000*%
%TD*%
%TA.AperFunction,ComponentPad*%
%ADD14O,1.700000X1.700000*%
%TD*%
%TA.AperFunction,ComponentPad*%
%ADD15R,1.700000X1.700000*%
%TD*%
%TA.AperFunction,ComponentPad*%
%ADD16O,1.600000X1.600000*%
%TD*%
%TA.AperFunction,ComponentPad*%
%ADD17C,1.600000*%
%TD*%
%TA.AperFunction,ComponentPad*%
%ADD18C,2.100000*%
%TD*%
%TA.AperFunction,ComponentPad*%
%ADD19C,1.920000*%
%TD*%
%TA.AperFunction,ComponentPad*%
%ADD20R,1.920000X1.920000*%
%TD*%
%TA.AperFunction,ComponentPad*%
%ADD21R,1.050000X1.500000*%
%TD*%
%TA.AperFunction,ComponentPad*%
%ADD22O,1.050000X1.500000*%
%TD*%
%TA.AperFunction,ComponentPad*%
%ADD23R,1.500000X1.050000*%
%TD*%
%TA.AperFunction,ComponentPad*%
%ADD24O,1.500000X1.050000*%
%TD*%
%TA.AperFunction,ComponentPad*%
%ADD25C,1.130000*%
%TD*%
%TA.AperFunction,ComponentPad*%
%ADD26R,1.130000X1.130000*%
%TD*%
%TA.AperFunction,ComponentPad*%
%ADD27O,2.200000X2.200000*%
%TD*%
%TA.AperFunction,ComponentPad*%
%ADD28R,2.200000X2.200000*%
%TD*%
%TA.AperFunction,ComponentPad*%
%ADD29O,2.600000X2.600000*%
%TD*%
%TA.AperFunction,ComponentPad*%
%ADD30R,1.600000X1.600000*%
%TD*%
%TA.AperFunction,ViaPad*%
%ADD31C,0.800000*%
%TD*%
%TA.AperFunction,Conductor*%
%ADD32C,0.250000*%
%TD*%
%TA.AperFunction,Conductor*%
%ADD33C,1.524000*%
%TD*%
%TA.AperFunction,Conductor*%
%ADD34C,1.016000*%
%TD*%
%TA.AperFunction,Conductor*%
%ADD35C,0.254000*%
%TD*%
%TA.AperFunction,Conductor*%
%ADD36C,0.100000*%
%TD*%
G04 APERTURE END LIST*
D10*
%TO.P,Z8,2*%
%TO.N,Net-(Q13-Pad1)*%
X125190000Y-86360000D03*
D11*
%TO.P,Z8,1*%
%TO.N,+VDC*%
X135890000Y-86360000D03*
%TD*%
D10*
%TO.P,Z7,2*%
%TO.N,Net-(Q10-Pad1)*%
X156940000Y-86360000D03*
D11*
%TO.P,Z7,1*%
%TO.N,+VDC*%
X167640000Y-86360000D03*
%TD*%
D10*
%TO.P,Z6,2*%
%TO.N,Net-(Q7-Pad1)*%
X95980000Y-86360000D03*
D11*
%TO.P,Z6,1*%
%TO.N,+VDC*%
X106680000Y-86360000D03*
%TD*%
D10*
%TO.P,Z5,2*%
%TO.N,Net-(Q4-Pad1)*%
X64230000Y-86360000D03*
D11*
%TO.P,Z5,1*%
%TO.N,+VDC*%
X74930000Y-86360000D03*
%TD*%
D12*
%TO.P,P1,2*%
%TO.N,GND*%
X184150000Y-77470000D03*
D13*
%TO.P,P1,1*%
%TO.N,Net-(P1-Pad1)*%
X184150000Y-82550000D03*
%TD*%
D14*
%TO.P,J1,32*%
%TO.N,/D2*%
X130810000Y-120650000D03*
%TO.P,J1,31*%
%TO.N,GND*%
X130810000Y-123190000D03*
%TO.P,J1,30*%
%TO.N,/D23*%
X133350000Y-120650000D03*
%TO.P,J1,29*%
%TO.N,GND*%
X133350000Y-123190000D03*
%TO.P,J1,28*%
%TO.N,/D5*%
X135890000Y-120650000D03*
%TO.P,J1,27*%
%TO.N,GND*%
X135890000Y-123190000D03*
%TO.P,J1,26*%
%TO.N,/D15*%
X138430000Y-120650000D03*
%TO.P,J1,25*%
%TO.N,GND*%
X138430000Y-123190000D03*
%TO.P,J1,24*%
%TO.N,/D0*%
X140970000Y-120650000D03*
%TO.P,J1,23*%
%TO.N,GND*%
X140970000Y-123190000D03*
%TO.P,J1,22*%
%TO.N,/D4*%
X143510000Y-120650000D03*
%TO.P,J1,21*%
%TO.N,GND*%
X143510000Y-123190000D03*
%TO.P,J1,20*%
%TO.N,/D16*%
X146050000Y-120650000D03*
%TO.P,J1,19*%
%TO.N,GND*%
X146050000Y-123190000D03*
%TO.P,J1,18*%
%TO.N,/D18*%
X148590000Y-120650000D03*
%TO.P,J1,17*%
%TO.N,/TX*%
X148590000Y-123190000D03*
%TO.P,J1,16*%
%TO.N,/D26*%
X151130000Y-120650000D03*
%TO.P,J1,15*%
%TO.N,/RX*%
X151130000Y-123190000D03*
%TO.P,J1,14*%
%TO.N,/D19*%
X153670000Y-120650000D03*
%TO.P,J1,13*%
%TO.N,/D17*%
X153670000Y-123190000D03*
%TO.P,J1,12*%
%TO.N,/D25*%
X156210000Y-120650000D03*
%TO.P,J1,11*%
%TO.N,+VDC*%
X156210000Y-123190000D03*
%TO.P,J1,10*%
%TO.N,/D21*%
X158750000Y-120650000D03*
%TO.P,J1,9*%
%TO.N,+VDC*%
X158750000Y-123190000D03*
%TO.P,J1,8*%
%TO.N,/D33*%
X161290000Y-120650000D03*
%TO.P,J1,7*%
%TO.N,+VDC*%
X161290000Y-123190000D03*
%TO.P,J1,6*%
%TO.N,/D22*%
X163830000Y-120650000D03*
%TO.P,J1,5*%
%TO.N,+VDC*%
X163830000Y-123190000D03*
%TO.P,J1,4*%
%TO.N,/D32*%
X166370000Y-120650000D03*
%TO.P,J1,3*%
%TO.N,+VDC*%
X166370000Y-123190000D03*
%TO.P,J1,2*%
%TO.N,+3V3*%
X168910000Y-120650000D03*
D15*
%TO.P,J1,1*%
%TO.N,+VDC*%
X168910000Y-123190000D03*
%TD*%
D16*
%TO.P,R2,2*%
%TO.N,GND*%
X157480000Y-99060000D03*
D17*
%TO.P,R2,1*%
%TO.N,/D2*%
X152400000Y-99060000D03*
%TD*%
D12*
%TO.P,Z4,3*%
%TO.N,GND*%
X157480000Y-69850000D03*
%TO.P,Z4,2*%
%TO.N,/Zone4IO/ZoneOutput*%
X162560000Y-69850000D03*
D13*
%TO.P,Z4,1*%
%TO.N,/Zone4IO/ZoneInput*%
X167640000Y-69850000D03*
%TD*%
D12*
%TO.P,Z3,3*%
%TO.N,GND*%
X127000000Y-69850000D03*
%TO.P,Z3,2*%
%TO.N,/Zone3IO/ZoneOutput*%
X132080000Y-69850000D03*
D13*
%TO.P,Z3,1*%
%TO.N,/Zone3IO/ZoneInput*%
X137160000Y-69850000D03*
%TD*%
D12*
%TO.P,Z2,3*%
%TO.N,GND*%
X96520000Y-69850000D03*
%TO.P,Z2,2*%
%TO.N,/Zone2IO/ZoneOutput*%
X101600000Y-69850000D03*
D13*
%TO.P,Z2,1*%
%TO.N,/Zone2IO/ZoneInput*%
X106680000Y-69850000D03*
%TD*%
D12*
%TO.P,Z1,3*%
%TO.N,GND*%
X66040000Y-69850000D03*
%TO.P,Z1,2*%
%TO.N,/Zone1IO/ZoneOutput*%
X71120000Y-69850000D03*
D13*
%TO.P,Z1,1*%
%TO.N,/Zone1IO/ZoneInput*%
X76200000Y-69850000D03*
%TD*%
D18*
%TO.P,U1,8*%
%TO.N,+VDC*%
X173990000Y-99100000D03*
%TO.P,U1,7*%
X177490000Y-99100000D03*
%TO.P,U1,6*%
%TO.N,Net-(Q1-Pad3)*%
X183290000Y-99100000D03*
%TO.P,U1,5*%
X186790000Y-99100000D03*
%TO.P,U1,4*%
X186790000Y-101600000D03*
%TO.P,U1,3*%
X183290000Y-101600000D03*
%TO.P,U1,2*%
%TO.N,+VDC*%
X177490000Y-101600000D03*
%TO.P,U1,1*%
X173990000Y-101600000D03*
%TD*%
D16*
%TO.P,R6,2*%
%TO.N,Net-(IC2-Pad1)*%
X59690000Y-69850000D03*
D17*
%TO.P,R6,1*%
%TO.N,+VDC*%
X54610000Y-69850000D03*
%TD*%
D16*
%TO.P,R26,2*%
%TO.N,Net-(Q12-Pad3)*%
X143510000Y-93980000D03*
D17*
%TO.P,R26,1*%
%TO.N,Net-(Q13-Pad1)*%
X140970000Y-93980000D03*
%TD*%
D16*
%TO.P,R25,2*%
%TO.N,Net-(Q13-Pad1)*%
X143510000Y-88900000D03*
D17*
%TO.P,R25,1*%
%TO.N,+VDC*%
X140970000Y-88900000D03*
%TD*%
D16*
%TO.P,R24,2*%
%TO.N,GND*%
X128270000Y-99060000D03*
D17*
%TO.P,R24,1*%
%TO.N,/D12*%
X125730000Y-99060000D03*
%TD*%
D16*
%TO.P,R21,2*%
%TO.N,Net-(Q9-Pad3)*%
X152400000Y-88900000D03*
D17*
%TO.P,R21,1*%
%TO.N,Net-(Q10-Pad1)*%
X149860000Y-88900000D03*
%TD*%
D16*
%TO.P,R5,2*%
%TO.N,GND*%
X157480000Y-104140000D03*
D17*
%TO.P,R5,1*%
%TO.N,/D4*%
X152400000Y-104140000D03*
%TD*%
D16*
%TO.P,R4,2*%
%TO.N,GND*%
X166370000Y-104140000D03*
D17*
%TO.P,R4,1*%
%TO.N,Net-(IC1-Pad3)*%
X161290000Y-104140000D03*
%TD*%
D16*
%TO.P,R3,2*%
%TO.N,Net-(IC1-Pad3)*%
X166370000Y-99060000D03*
D17*
%TO.P,R3,1*%
%TO.N,+VDC*%
X161290000Y-99060000D03*
%TD*%
D16*
%TO.P,R20,2*%
%TO.N,Net-(Q10-Pad1)*%
X152400000Y-83820000D03*
D17*
%TO.P,R20,1*%
%TO.N,+VDC*%
X149860000Y-83820000D03*
%TD*%
D16*
%TO.P,R19,2*%
%TO.N,GND*%
X152400000Y-78740000D03*
D17*
%TO.P,R19,1*%
%TO.N,/P23*%
X149860000Y-78740000D03*
%TD*%
D16*
%TO.P,R16,2*%
%TO.N,Net-(Q6-Pad3)*%
X121920000Y-88900000D03*
D17*
%TO.P,R16,1*%
%TO.N,Net-(Q7-Pad1)*%
X119380000Y-88900000D03*
%TD*%
D16*
%TO.P,R15,2*%
%TO.N,Net-(Q7-Pad1)*%
X121920000Y-83820000D03*
D17*
%TO.P,R15,1*%
%TO.N,+VDC*%
X119380000Y-83820000D03*
%TD*%
D16*
%TO.P,R18,2*%
%TO.N,GND*%
X152400000Y-73660000D03*
D17*
%TO.P,R18,1*%
%TO.N,/D35*%
X149860000Y-73660000D03*
%TD*%
D16*
%TO.P,R14,2*%
%TO.N,GND*%
X121920000Y-78740000D03*
D17*
%TO.P,R14,1*%
%TO.N,/D14*%
X119380000Y-78740000D03*
%TD*%
D16*
%TO.P,R17,2*%
%TO.N,GND*%
X152400000Y-68580000D03*
D17*
%TO.P,R17,1*%
%TO.N,/Zone4IO/ZoneInput*%
X149860000Y-68580000D03*
%TD*%
D16*
%TO.P,R23,2*%
%TO.N,GND*%
X134620000Y-99060000D03*
D17*
%TO.P,R23,1*%
%TO.N,/D34*%
X132080000Y-99060000D03*
%TD*%
D16*
%TO.P,R11,2*%
%TO.N,Net-(Q3-Pad3)*%
X91440000Y-88900000D03*
D17*
%TO.P,R11,1*%
%TO.N,Net-(Q4-Pad1)*%
X88900000Y-88900000D03*
%TD*%
D16*
%TO.P,R22,2*%
%TO.N,GND*%
X143510000Y-99060000D03*
D17*
%TO.P,R22,1*%
%TO.N,/Zone3IO/ZoneInput*%
X140970000Y-99060000D03*
%TD*%
D16*
%TO.P,R13,2*%
%TO.N,GND*%
X121920000Y-73660000D03*
D17*
%TO.P,R13,1*%
%TO.N,/SVN*%
X119380000Y-73660000D03*
%TD*%
D16*
%TO.P,R10,2*%
%TO.N,Net-(Q4-Pad1)*%
X91440000Y-83820000D03*
D17*
%TO.P,R10,1*%
%TO.N,+VDC*%
X88900000Y-83820000D03*
%TD*%
D16*
%TO.P,R12,2*%
%TO.N,GND*%
X121920000Y-68580000D03*
D17*
%TO.P,R12,1*%
%TO.N,/Zone2IO/ZoneInput*%
X119380000Y-68580000D03*
%TD*%
D16*
%TO.P,R8,2*%
%TO.N,GND*%
X91440000Y-73660000D03*
D17*
%TO.P,R8,1*%
%TO.N,/SVP*%
X88900000Y-73660000D03*
%TD*%
D16*
%TO.P,R9,2*%
%TO.N,GND*%
X91440000Y-78740000D03*
D17*
%TO.P,R9,1*%
%TO.N,/D27*%
X88900000Y-78740000D03*
%TD*%
D16*
%TO.P,R7,2*%
%TO.N,GND*%
X91440000Y-68580000D03*
D17*
%TO.P,R7,1*%
%TO.N,/Zone1IO/ZoneInput*%
X88900000Y-68580000D03*
%TD*%
D16*
%TO.P,R1,2*%
%TO.N,GND*%
X173990000Y-91440000D03*
D17*
%TO.P,R1,1*%
%TO.N,Net-(Q1-Pad1)*%
X179070000Y-91440000D03*
%TD*%
D19*
%TO.P,Q13,3*%
%TO.N,+VDC*%
X129540000Y-81280000D03*
%TO.P,Q13,2*%
%TO.N,/Zone3IO/ZoneOutput*%
X132080000Y-81280000D03*
D20*
%TO.P,Q13,1*%
%TO.N,Net-(Q13-Pad1)*%
X134620000Y-81280000D03*
%TD*%
D21*
%TO.P,Q12,1*%
%TO.N,GND*%
X128270000Y-91440000D03*
D22*
%TO.P,Q12,3*%
%TO.N,Net-(Q12-Pad3)*%
X125730000Y-91440000D03*
%TO.P,Q12,2*%
%TO.N,/D12*%
X127000000Y-91440000D03*
%TD*%
D19*
%TO.P,Q10,3*%
%TO.N,+VDC*%
X160020000Y-81280000D03*
%TO.P,Q10,2*%
%TO.N,/Zone4IO/ZoneOutput*%
X162560000Y-81280000D03*
D20*
%TO.P,Q10,1*%
%TO.N,Net-(Q10-Pad1)*%
X165100000Y-81280000D03*
%TD*%
D23*
%TO.P,Q9,1*%
%TO.N,GND*%
X156210000Y-90170000D03*
D24*
%TO.P,Q9,3*%
%TO.N,Net-(Q9-Pad3)*%
X156210000Y-92710000D03*
%TO.P,Q9,2*%
%TO.N,/P23*%
X156210000Y-91440000D03*
%TD*%
D23*
%TO.P,Q8,1*%
%TO.N,/D35*%
X163830000Y-90170000D03*
D24*
%TO.P,Q8,3*%
%TO.N,+3V3*%
X163830000Y-92710000D03*
%TO.P,Q8,2*%
%TO.N,/Zone4IO/ZoneInput*%
X163830000Y-91440000D03*
%TD*%
D19*
%TO.P,Q7,3*%
%TO.N,+VDC*%
X99060000Y-81280000D03*
%TO.P,Q7,2*%
%TO.N,/Zone2IO/ZoneOutput*%
X101600000Y-81280000D03*
D20*
%TO.P,Q7,1*%
%TO.N,Net-(Q7-Pad1)*%
X104140000Y-81280000D03*
%TD*%
D21*
%TO.P,Q11,1*%
%TO.N,/D34*%
X134620000Y-91440000D03*
D22*
%TO.P,Q11,3*%
%TO.N,+3V3*%
X132080000Y-91440000D03*
%TO.P,Q11,2*%
%TO.N,/Zone3IO/ZoneInput*%
X133350000Y-91440000D03*
%TD*%
D21*
%TO.P,Q6,1*%
%TO.N,GND*%
X105410000Y-91440000D03*
D22*
%TO.P,Q6,3*%
%TO.N,Net-(Q6-Pad3)*%
X102870000Y-91440000D03*
%TO.P,Q6,2*%
%TO.N,/D14*%
X104140000Y-91440000D03*
%TD*%
D21*
%TO.P,Q5,1*%
%TO.N,/SVN*%
X99060000Y-91440000D03*
D22*
%TO.P,Q5,3*%
%TO.N,+3V3*%
X96520000Y-91440000D03*
%TO.P,Q5,2*%
%TO.N,/Zone2IO/ZoneInput*%
X97790000Y-91440000D03*
%TD*%
D19*
%TO.P,Q4,3*%
%TO.N,+VDC*%
X68580000Y-81280000D03*
%TO.P,Q4,2*%
%TO.N,/Zone1IO/ZoneOutput*%
X71120000Y-81280000D03*
D20*
%TO.P,Q4,1*%
%TO.N,Net-(Q4-Pad1)*%
X73660000Y-81280000D03*
%TD*%
D21*
%TO.P,Q2,1*%
%TO.N,/SVP*%
X69850000Y-91440000D03*
D22*
%TO.P,Q2,3*%
%TO.N,+3V3*%
X67310000Y-91440000D03*
%TO.P,Q2,2*%
%TO.N,/Zone1IO/ZoneInput*%
X68580000Y-91440000D03*
%TD*%
D21*
%TO.P,Q3,1*%
%TO.N,GND*%
X76200000Y-91440000D03*
D22*
%TO.P,Q3,3*%
%TO.N,Net-(Q3-Pad3)*%
X73660000Y-91440000D03*
%TO.P,Q3,2*%
%TO.N,/D27*%
X74930000Y-91440000D03*
%TD*%
D19*
%TO.P,Q1,3*%
%TO.N,Net-(Q1-Pad3)*%
X189230000Y-92710000D03*
%TO.P,Q1,2*%
%TO.N,Net-(P1-Pad1)*%
X186690000Y-92710000D03*
D20*
%TO.P,Q1,1*%
%TO.N,Net-(Q1-Pad1)*%
X184150000Y-92710000D03*
%TD*%
D16*
%TO.P,L1,2*%
%TO.N,+5V*%
X52070000Y-86360000D03*
D17*
%TO.P,L1,1*%
%TO.N,Net-(D1-Pad1)*%
X62230000Y-86360000D03*
%TD*%
D14*
%TO.P,J3,19*%
%TO.N,N/C*%
X111760000Y-97790000D03*
%TO.P,J3,18*%
X109220000Y-97790000D03*
%TO.P,J3,17*%
X106680000Y-97790000D03*
%TO.P,J3,16*%
%TO.N,/D15*%
X104140000Y-97790000D03*
%TO.P,J3,15*%
%TO.N,/D2*%
X101600000Y-97790000D03*
%TO.P,J3,14*%
%TO.N,/D0*%
X99060000Y-97790000D03*
%TO.P,J3,13*%
%TO.N,/D4*%
X96520000Y-97790000D03*
%TO.P,J3,12*%
%TO.N,/D16*%
X93980000Y-97790000D03*
%TO.P,J3,11*%
%TO.N,/D17*%
X91440000Y-97790000D03*
%TO.P,J3,10*%
%TO.N,/D5*%
X88900000Y-97790000D03*
%TO.P,J3,9*%
%TO.N,/D18*%
X86360000Y-97790000D03*
%TO.P,J3,8*%
%TO.N,/D19*%
X83820000Y-97790000D03*
%TO.P,J3,7*%
%TO.N,GND*%
X81280000Y-97790000D03*
%TO.P,J3,6*%
%TO.N,/D21*%
X78740000Y-97790000D03*
%TO.P,J3,5*%
%TO.N,/RX*%
X76200000Y-97790000D03*
%TO.P,J3,4*%
%TO.N,/TX*%
X73660000Y-97790000D03*
%TO.P,J3,3*%
%TO.N,/D22*%
X71120000Y-97790000D03*
%TO.P,J3,2*%
%TO.N,/D23*%
X68580000Y-97790000D03*
D15*
%TO.P,J3,1*%
%TO.N,GND*%
X66040000Y-97790000D03*
%TD*%
D14*
%TO.P,J2,38*%
%TO.N,+5V*%
X111760000Y-123190000D03*
%TO.P,J2,37*%
X111760000Y-120650000D03*
%TO.P,J2,36*%
%TO.N,N/C*%
X109220000Y-123190000D03*
%TO.P,J2,35*%
X109220000Y-120650000D03*
%TO.P,J2,34*%
%TO.N,/SD3*%
X106680000Y-123190000D03*
%TO.P,J2,33*%
X106680000Y-120650000D03*
%TO.P,J2,32*%
%TO.N,/SD2*%
X104140000Y-123190000D03*
%TO.P,J2,31*%
X104140000Y-120650000D03*
%TO.P,J2,30*%
%TO.N,/D13*%
X101600000Y-123190000D03*
%TO.P,J2,29*%
X101600000Y-120650000D03*
%TO.P,J2,28*%
%TO.N,GND*%
X99060000Y-123190000D03*
%TO.P,J2,27*%
X99060000Y-120650000D03*
%TO.P,J2,26*%
%TO.N,/D12*%
X96520000Y-123190000D03*
%TO.P,J2,25*%
X96520000Y-120650000D03*
%TO.P,J2,24*%
%TO.N,/D14*%
X93980000Y-123190000D03*
%TO.P,J2,23*%
X93980000Y-120650000D03*
%TO.P,J2,22*%
%TO.N,/D27*%
X91440000Y-123190000D03*
%TO.P,J2,21*%
X91440000Y-120650000D03*
%TO.P,J2,20*%
%TO.N,/D26*%
X88900000Y-123190000D03*
%TO.P,J2,19*%
X88900000Y-120650000D03*
%TO.P,J2,18*%
%TO.N,/D25*%
X86360000Y-123190000D03*
%TO.P,J2,17*%
X86360000Y-120650000D03*
%TO.P,J2,16*%
%TO.N,/D33*%
X83820000Y-123190000D03*
%TO.P,J2,15*%
X83820000Y-120650000D03*
%TO.P,J2,14*%
%TO.N,/D32*%
X81280000Y-123190000D03*
%TO.P,J2,13*%
X81280000Y-120650000D03*
%TO.P,J2,12*%
%TO.N,/D35*%
X78740000Y-123190000D03*
%TO.P,J2,11*%
X78740000Y-120650000D03*
%TO.P,J2,10*%
%TO.N,/D34*%
X76200000Y-123190000D03*
%TO.P,J2,9*%
X76200000Y-120650000D03*
%TO.P,J2,8*%
%TO.N,/SVN*%
X73660000Y-123190000D03*
%TO.P,J2,7*%
X73660000Y-120650000D03*
%TO.P,J2,6*%
%TO.N,/SVP*%
X71120000Y-123190000D03*
%TO.P,J2,5*%
X71120000Y-120650000D03*
%TO.P,J2,4*%
%TO.N,/EN*%
X68580000Y-123190000D03*
%TO.P,J2,3*%
X68580000Y-120650000D03*
%TO.P,J2,2*%
%TO.N,+3V3*%
X66040000Y-123190000D03*
D15*
%TO.P,J2,1*%
X66040000Y-120650000D03*
%TD*%
D25*
%TO.P,IC1,8*%
%TO.N,+3V3*%
X147480000Y-104140000D03*
%TO.P,IC1,7*%
%TO.N,N/C*%
X147480000Y-106680000D03*
%TO.P,IC1,6*%
X147480000Y-109220000D03*
%TO.P,IC1,5*%
X147480000Y-111760000D03*
%TO.P,IC1,4*%
%TO.N,GND*%
X139540000Y-111760000D03*
%TO.P,IC1,3*%
%TO.N,Net-(IC1-Pad3)*%
X139540000Y-109220000D03*
%TO.P,IC1,2*%
%TO.N,/D4*%
X139540000Y-106680000D03*
D26*
%TO.P,IC1,1*%
X139540000Y-104140000D03*
%TD*%
D27*
%TO.P,D1,2*%
%TO.N,GND*%
X52070000Y-80010000D03*
D28*
%TO.P,D1,1*%
%TO.N,Net-(D1-Pad1)*%
X62230000Y-80010000D03*
%TD*%
D29*
%TO.P,D9,2*%
%TO.N,GND*%
X144145000Y-68580000D03*
D13*
%TO.P,D9,1*%
%TO.N,/Zone3IO/ZoneOutput*%
X144145000Y-83820000D03*
%TD*%
D29*
%TO.P,D7,2*%
%TO.N,GND*%
X174625000Y-68580000D03*
D13*
%TO.P,D7,1*%
%TO.N,/Zone4IO/ZoneOutput*%
X174625000Y-83820000D03*
%TD*%
D29*
%TO.P,D5,2*%
%TO.N,GND*%
X113665000Y-68580000D03*
D13*
%TO.P,D5,1*%
%TO.N,/Zone2IO/ZoneOutput*%
X113665000Y-83820000D03*
%TD*%
D29*
%TO.P,D3,2*%
%TO.N,GND*%
X83185000Y-68580000D03*
D13*
%TO.P,D3,1*%
%TO.N,/Zone1IO/ZoneOutput*%
X83185000Y-83820000D03*
%TD*%
D17*
%TO.P,C4,2*%
%TO.N,GND*%
X47950000Y-101600000D03*
D30*
%TO.P,C4,1*%
%TO.N,+5V*%
X44450000Y-101600000D03*
%TD*%
D17*
%TO.P,C3,2*%
%TO.N,GND*%
X47950000Y-81280000D03*
D30*
%TO.P,C3,1*%
%TO.N,+VDC*%
X44450000Y-81280000D03*
%TD*%
D17*
%TO.P,C2,2*%
%TO.N,GND*%
X58500000Y-92710000D03*
%TO.P,C2,1*%
%TO.N,Net-(C2-Pad1)*%
X63500000Y-92710000D03*
%TD*%
%TO.P,C1,2*%
%TO.N,GND*%
X48180000Y-91440000D03*
%TO.P,C1,1*%
%TO.N,Net-(C1-Pad1)*%
X43180000Y-91440000D03*
%TD*%
D31*
%TO.N,GND*%
X105611900Y-98815200D03*
%TO.N,/D12*%
X114087400Y-109174400D03*
%TO.N,/D27*%
X77506800Y-115576300D03*
%TO.N,/D34*%
X100796500Y-100205700D03*
%TO.N,/RX*%
X146898100Y-116686200D03*
%TO.N,/TX*%
X144618200Y-117131900D03*
%TO.N,/D18*%
X144149500Y-114297400D03*
%TO.N,/D19*%
X147867800Y-115280800D03*
%TO.N,/D0*%
X107348100Y-99852900D03*
%TO.N,/D16*%
X143263800Y-113182100D03*
%TO.N,/D17*%
X116787600Y-110829800D03*
%TO.N,/D5*%
X125934900Y-111555100D03*
%TD*%
D32*
%TO.N,GND*%
X66040000Y-97790000D02*
X66040000Y-98965300D01*
X62230000Y-101600000D02*
X64864700Y-98965300D01*
X64864700Y-98965300D02*
X66040000Y-98965300D01*
D33*
X62230000Y-101600000D02*
X47950000Y-101600000D01*
X81280000Y-101600000D02*
X62230000Y-101600000D01*
D32*
X105410000Y-105410000D02*
X105410000Y-99017100D01*
X105410000Y-99017100D02*
X105611900Y-98815200D01*
D33*
X105410000Y-105410000D02*
X101600000Y-101600000D01*
X101600000Y-101600000D02*
X81280000Y-101600000D01*
X118110000Y-123190000D02*
X118110000Y-118110000D01*
X118110000Y-118110000D02*
X105410000Y-105410000D01*
D32*
X152400000Y-76395600D02*
X152400000Y-78740000D01*
X121920000Y-76906400D02*
X121920000Y-78740000D01*
X91440000Y-78740000D02*
X91440000Y-77614700D01*
X81280000Y-101600000D02*
X81280000Y-97790000D01*
D33*
X130810000Y-123190000D02*
X133350000Y-123190000D01*
X118110000Y-123190000D02*
X130810000Y-123190000D01*
X133350000Y-123190000D02*
X135890000Y-123190000D01*
X135890000Y-123190000D02*
X138430000Y-123190000D01*
X138430000Y-123190000D02*
X140970000Y-123190000D01*
X140970000Y-123190000D02*
X143510000Y-123190000D01*
D34*
X118110000Y-123190000D02*
X115570000Y-125730000D01*
X115570000Y-125730000D02*
X109220000Y-125730000D01*
D33*
X143510000Y-123190000D02*
X146050000Y-123190000D01*
D34*
X99060000Y-123190000D02*
X101600000Y-125730000D01*
X101600000Y-125730000D02*
X109220000Y-125730000D01*
X99060000Y-123190000D02*
X99060000Y-120650000D01*
D32*
X181610000Y-77470000D02*
X184150000Y-77470000D01*
X178694800Y-80385200D02*
X181610000Y-77470000D01*
X178694800Y-86735200D02*
X178694800Y-80385200D01*
X173990000Y-91440000D02*
X178694800Y-86735200D01*
D33*
%TO.N,+VDC*%
X158750000Y-123190000D02*
X161290000Y-123190000D01*
X156210000Y-123190000D02*
X158750000Y-123190000D01*
X161290000Y-123190000D02*
X163830000Y-123190000D01*
X163830000Y-123190000D02*
X166370000Y-123190000D01*
X177490000Y-101600000D02*
X173990000Y-101600000D01*
X177490000Y-99100000D02*
X177490000Y-101600000D01*
X166370000Y-123190000D02*
X168910000Y-123190000D01*
X168910000Y-123190000D02*
X169052000Y-123190000D01*
X173990000Y-99100000D02*
X177490000Y-99100000D01*
X173990000Y-101600000D02*
X173990000Y-99100000D01*
X171284000Y-123190000D02*
X172720000Y-121754000D01*
X168910000Y-123190000D02*
X171284000Y-123190000D01*
X172720000Y-121754000D02*
X172720000Y-114300000D01*
X172720000Y-114300000D02*
X173990000Y-113030000D01*
X173990000Y-113030000D02*
X173990000Y-101600000D01*
%TO.N,/Zone2IO/ZoneOutput*%
X102782355Y-83820000D02*
X113665000Y-83820000D01*
X101600000Y-82637645D02*
X102782355Y-83820000D01*
X101600000Y-81280000D02*
X101600000Y-82637645D01*
D32*
%TO.N,Net-(Q1-Pad1)*%
X182880000Y-91440000D02*
X184150000Y-92710000D01*
X179070000Y-91440000D02*
X182880000Y-91440000D01*
%TO.N,Net-(Q4-Pad1)*%
X73660000Y-81280000D02*
X76200000Y-81280000D01*
X76200000Y-81280000D02*
X83820000Y-88900000D01*
X83820000Y-88900000D02*
X88900000Y-88900000D01*
%TO.N,Net-(Q10-Pad1)*%
X154400000Y-83820000D02*
X156940000Y-86360000D01*
X152400000Y-83820000D02*
X154400000Y-83820000D01*
%TO.N,Net-(Q13-Pad1)*%
X140970000Y-91440000D02*
X143510000Y-88900000D01*
X140970000Y-93980000D02*
X140970000Y-91440000D01*
%TD*%
D35*
%TO.N,GND*%
X177673000Y-74295000D02*
X177675440Y-74319776D01*
X177682667Y-74343601D01*
X177694403Y-74365557D01*
X177710197Y-74384803D01*
X177729443Y-74400597D01*
X177751399Y-74412333D01*
X177775224Y-74419560D01*
X177800000Y-74422000D01*
X182458195Y-74422000D01*
X182458912Y-74429283D01*
X182498081Y-74558406D01*
X182561688Y-74677407D01*
X182647289Y-74781711D01*
X182751593Y-74867312D01*
X182870594Y-74930919D01*
X182999717Y-74970088D01*
X183134000Y-74983314D01*
X183167647Y-74980000D01*
X186563000Y-74980000D01*
X186563000Y-79883000D01*
X166522826Y-79883000D01*
X166511185Y-79868815D01*
X166414494Y-79789463D01*
X166304180Y-79730498D01*
X166184482Y-79694188D01*
X166060000Y-79681928D01*
X164140000Y-79681928D01*
X164015518Y-79694188D01*
X163895820Y-79730498D01*
X163785506Y-79789463D01*
X163688815Y-79868815D01*
X163677174Y-79883000D01*
X163340167Y-79883000D01*
X163315516Y-79866529D01*
X163025244Y-79746294D01*
X162717094Y-79685000D01*
X162402906Y-79685000D01*
X162094756Y-79746294D01*
X161804484Y-79866529D01*
X161779833Y-79883000D01*
X160800167Y-79883000D01*
X160775516Y-79866529D01*
X160485244Y-79746294D01*
X160177094Y-79685000D01*
X159862906Y-79685000D01*
X159554756Y-79746294D01*
X159264484Y-79866529D01*
X159239833Y-79883000D01*
X150732311Y-79883000D01*
X150774759Y-79854637D01*
X150974637Y-79654759D01*
X151131680Y-79419727D01*
X151239853Y-79158574D01*
X151295000Y-78881335D01*
X151295000Y-78598665D01*
X151239853Y-78321426D01*
X151131680Y-78060273D01*
X150974637Y-77825241D01*
X150774759Y-77625363D01*
X150539727Y-77468320D01*
X150278574Y-77360147D01*
X150001335Y-77305000D01*
X149718665Y-77305000D01*
X149441426Y-77360147D01*
X149180273Y-77468320D01*
X148945241Y-77625363D01*
X148745363Y-77825241D01*
X148588320Y-78060273D01*
X148480147Y-78321426D01*
X148425000Y-78598665D01*
X148425000Y-78881335D01*
X148480147Y-79158574D01*
X148588320Y-79419727D01*
X148745363Y-79654759D01*
X148945241Y-79854637D01*
X148987689Y-79883000D01*
X136042826Y-79883000D01*
X136031185Y-79868815D01*
X135934494Y-79789463D01*
X135824180Y-79730498D01*
X135704482Y-79694188D01*
X135580000Y-79681928D01*
X133660000Y-79681928D01*
X133535518Y-79694188D01*
X133415820Y-79730498D01*
X133305506Y-79789463D01*
X133208815Y-79868815D01*
X133197174Y-79883000D01*
X132860167Y-79883000D01*
X132835516Y-79866529D01*
X132545244Y-79746294D01*
X132237094Y-79685000D01*
X131922906Y-79685000D01*
X131614756Y-79746294D01*
X131324484Y-79866529D01*
X131299833Y-79883000D01*
X130320167Y-79883000D01*
X130295516Y-79866529D01*
X130005244Y-79746294D01*
X129697094Y-79685000D01*
X129382906Y-79685000D01*
X129074756Y-79746294D01*
X128784484Y-79866529D01*
X128759833Y-79883000D01*
X120252311Y-79883000D01*
X120294759Y-79854637D01*
X120494637Y-79654759D01*
X120651680Y-79419727D01*
X120759853Y-79158574D01*
X120815000Y-78881335D01*
X120815000Y-78598665D01*
X120759853Y-78321426D01*
X120651680Y-78060273D01*
X120494637Y-77825241D01*
X120294759Y-77625363D01*
X120059727Y-77468320D01*
X119798574Y-77360147D01*
X119521335Y-77305000D01*
X119238665Y-77305000D01*
X118961426Y-77360147D01*
X118700273Y-77468320D01*
X118465241Y-77625363D01*
X118265363Y-77825241D01*
X118108320Y-78060273D01*
X118000147Y-78321426D01*
X117945000Y-78598665D01*
X117945000Y-78881335D01*
X118000147Y-79158574D01*
X118108320Y-79419727D01*
X118265363Y-79654759D01*
X118465241Y-79854637D01*
X118507689Y-79883000D01*
X105562826Y-79883000D01*
X105551185Y-79868815D01*
X105454494Y-79789463D01*
X105344180Y-79730498D01*
X105224482Y-79694188D01*
X105100000Y-79681928D01*
X103180000Y-79681928D01*
X103055518Y-79694188D01*
X102935820Y-79730498D01*
X102825506Y-79789463D01*
X102728815Y-79868815D01*
X102717174Y-79883000D01*
X102380167Y-79883000D01*
X102355516Y-79866529D01*
X102065244Y-79746294D01*
X101757094Y-79685000D01*
X101442906Y-79685000D01*
X101134756Y-79746294D01*
X100844484Y-79866529D01*
X100819833Y-79883000D01*
X99840167Y-79883000D01*
X99815516Y-79866529D01*
X99525244Y-79746294D01*
X99217094Y-79685000D01*
X98902906Y-79685000D01*
X98594756Y-79746294D01*
X98304484Y-79866529D01*
X98279833Y-79883000D01*
X89772311Y-79883000D01*
X89814759Y-79854637D01*
X90014637Y-79654759D01*
X90171680Y-79419727D01*
X90279853Y-79158574D01*
X90335000Y-78881335D01*
X90335000Y-78598665D01*
X90279853Y-78321426D01*
X90171680Y-78060273D01*
X90014637Y-77825241D01*
X89814759Y-77625363D01*
X89579727Y-77468320D01*
X89318574Y-77360147D01*
X89041335Y-77305000D01*
X88758665Y-77305000D01*
X88481426Y-77360147D01*
X88220273Y-77468320D01*
X87985241Y-77625363D01*
X87785363Y-77825241D01*
X87628320Y-78060273D01*
X87520147Y-78321426D01*
X87465000Y-78598665D01*
X87465000Y-78881335D01*
X87520147Y-79158574D01*
X87628320Y-79419727D01*
X87785363Y-79654759D01*
X87985241Y-79854637D01*
X88027689Y-79883000D01*
X75082826Y-79883000D01*
X75071185Y-79868815D01*
X74974494Y-79789463D01*
X74864180Y-79730498D01*
X74744482Y-79694188D01*
X74620000Y-79681928D01*
X72700000Y-79681928D01*
X72575518Y-79694188D01*
X72455820Y-79730498D01*
X72345506Y-79789463D01*
X72248815Y-79868815D01*
X72237174Y-79883000D01*
X71900167Y-79883000D01*
X71875516Y-79866529D01*
X71585244Y-79746294D01*
X71277094Y-79685000D01*
X70962906Y-79685000D01*
X70654756Y-79746294D01*
X70364484Y-79866529D01*
X70339833Y-79883000D01*
X69360167Y-79883000D01*
X69335516Y-79866529D01*
X69045244Y-79746294D01*
X68737094Y-79685000D01*
X68422906Y-79685000D01*
X68114756Y-79746294D01*
X67824484Y-79866529D01*
X67799833Y-79883000D01*
X64897000Y-79883000D01*
X64897000Y-77470000D01*
X64894560Y-77445224D01*
X64887333Y-77421399D01*
X64875597Y-77399443D01*
X64859803Y-77380197D01*
X64840557Y-77364403D01*
X64818601Y-77352667D01*
X64794776Y-77345440D01*
X64770000Y-77343000D01*
X59690000Y-77343000D01*
X59665224Y-77345440D01*
X59641399Y-77352667D01*
X59619443Y-77364403D01*
X59600197Y-77380197D01*
X59584403Y-77399443D01*
X59572667Y-77421399D01*
X59565440Y-77445224D01*
X59563000Y-77470000D01*
X59563000Y-105283000D01*
X47117000Y-105283000D01*
X47117000Y-86218665D01*
X50635000Y-86218665D01*
X50635000Y-86501335D01*
X50690147Y-86778574D01*
X50798320Y-87039727D01*
X50955363Y-87274759D01*
X51155241Y-87474637D01*
X51390273Y-87631680D01*
X51651426Y-87739853D01*
X51928665Y-87795000D01*
X52211335Y-87795000D01*
X52488574Y-87739853D01*
X52749727Y-87631680D01*
X52984759Y-87474637D01*
X53184637Y-87274759D01*
X53341680Y-87039727D01*
X53449853Y-86778574D01*
X53505000Y-86501335D01*
X53505000Y-86218665D01*
X53449853Y-85941426D01*
X53341680Y-85680273D01*
X53184637Y-85445241D01*
X52984759Y-85245363D01*
X52749727Y-85088320D01*
X52488574Y-84980147D01*
X52211335Y-84925000D01*
X51928665Y-84925000D01*
X51651426Y-84980147D01*
X51390273Y-85088320D01*
X51155241Y-85245363D01*
X50955363Y-85445241D01*
X50798320Y-85680273D01*
X50690147Y-85941426D01*
X50635000Y-86218665D01*
X47117000Y-86218665D01*
X47117000Y-77597000D01*
X52705000Y-77597000D01*
X52729776Y-77594560D01*
X52753601Y-77587333D01*
X52775557Y-77575597D01*
X52794803Y-77559803D01*
X52810597Y-77540557D01*
X52822333Y-77518601D01*
X52829560Y-77494776D01*
X52832000Y-77470000D01*
X52832000Y-73518665D01*
X87465000Y-73518665D01*
X87465000Y-73801335D01*
X87520147Y-74078574D01*
X87628320Y-74339727D01*
X87785363Y-74574759D01*
X87985241Y-74774637D01*
X88220273Y-74931680D01*
X88481426Y-75039853D01*
X88758665Y-75095000D01*
X89041335Y-75095000D01*
X89318574Y-75039853D01*
X89579727Y-74931680D01*
X89814759Y-74774637D01*
X90014637Y-74574759D01*
X90171680Y-74339727D01*
X90279853Y-74078574D01*
X90335000Y-73801335D01*
X90335000Y-73518665D01*
X117945000Y-73518665D01*
X117945000Y-73801335D01*
X118000147Y-74078574D01*
X118108320Y-74339727D01*
X118265363Y-74574759D01*
X118465241Y-74774637D01*
X118700273Y-74931680D01*
X118961426Y-75039853D01*
X119238665Y-75095000D01*
X119521335Y-75095000D01*
X119798574Y-75039853D01*
X120059727Y-74931680D01*
X120294759Y-74774637D01*
X120494637Y-74574759D01*
X120651680Y-74339727D01*
X120759853Y-74078574D01*
X120815000Y-73801335D01*
X120815000Y-73518665D01*
X148425000Y-73518665D01*
X148425000Y-73801335D01*
X148480147Y-74078574D01*
X148588320Y-74339727D01*
X148745363Y-74574759D01*
X148945241Y-74774637D01*
X149180273Y-74931680D01*
X149441426Y-75039853D01*
X149718665Y-75095000D01*
X150001335Y-75095000D01*
X150278574Y-75039853D01*
X150539727Y-74931680D01*
X150774759Y-74774637D01*
X150974637Y-74574759D01*
X151131680Y-74339727D01*
X151239853Y-74078574D01*
X151295000Y-73801335D01*
X151295000Y-73518665D01*
X151239853Y-73241426D01*
X151131680Y-72980273D01*
X150974637Y-72745241D01*
X150774759Y-72545363D01*
X150539727Y-72388320D01*
X150278574Y-72280147D01*
X150001335Y-72225000D01*
X149718665Y-72225000D01*
X149441426Y-72280147D01*
X149180273Y-72388320D01*
X148945241Y-72545363D01*
X148745363Y-72745241D01*
X148588320Y-72980273D01*
X148480147Y-73241426D01*
X148425000Y-73518665D01*
X120815000Y-73518665D01*
X120759853Y-73241426D01*
X120651680Y-72980273D01*
X120494637Y-72745241D01*
X120294759Y-72545363D01*
X120059727Y-72388320D01*
X119798574Y-72280147D01*
X119521335Y-72225000D01*
X119238665Y-72225000D01*
X118961426Y-72280147D01*
X118700273Y-72388320D01*
X118465241Y-72545363D01*
X118265363Y-72745241D01*
X118108320Y-72980273D01*
X118000147Y-73241426D01*
X117945000Y-73518665D01*
X90335000Y-73518665D01*
X90279853Y-73241426D01*
X90171680Y-72980273D01*
X90014637Y-72745241D01*
X89814759Y-72545363D01*
X89579727Y-72388320D01*
X89318574Y-72280147D01*
X89041335Y-72225000D01*
X88758665Y-72225000D01*
X88481426Y-72280147D01*
X88220273Y-72388320D01*
X87985241Y-72545363D01*
X87785363Y-72745241D01*
X87628320Y-72980273D01*
X87520147Y-73241426D01*
X87465000Y-73518665D01*
X52832000Y-73518665D01*
X52832000Y-71247000D01*
X54277629Y-71247000D01*
X54468665Y-71285000D01*
X54751335Y-71285000D01*
X54942371Y-71247000D01*
X59357629Y-71247000D01*
X59548665Y-71285000D01*
X59831335Y-71285000D01*
X60022371Y-71247000D01*
X62230000Y-71247000D01*
X62254776Y-71244560D01*
X62278601Y-71237333D01*
X62300557Y-71225597D01*
X62319803Y-71209803D01*
X62335597Y-71190557D01*
X62347333Y-71168601D01*
X62354560Y-71144776D01*
X62357000Y-71120000D01*
X62357000Y-69659419D01*
X69185000Y-69659419D01*
X69185000Y-70040581D01*
X69259361Y-70414419D01*
X69405225Y-70766566D01*
X69616987Y-71083491D01*
X69886509Y-71353013D01*
X70203434Y-71564775D01*
X70555581Y-71710639D01*
X70929419Y-71785000D01*
X71310581Y-71785000D01*
X71684419Y-71710639D01*
X72036566Y-71564775D01*
X72353491Y-71353013D01*
X72623013Y-71083491D01*
X72834775Y-70766566D01*
X72980639Y-70414419D01*
X73055000Y-70040581D01*
X73055000Y-69659419D01*
X72980639Y-69285581D01*
X72834775Y-68933434D01*
X72623013Y-68616509D01*
X72556504Y-68550000D01*
X74261928Y-68550000D01*
X74261928Y-71150000D01*
X74274188Y-71274482D01*
X74310498Y-71394180D01*
X74369463Y-71504494D01*
X74448815Y-71601185D01*
X74545506Y-71680537D01*
X74655820Y-71739502D01*
X74775518Y-71775812D01*
X74900000Y-71788072D01*
X77500000Y-71788072D01*
X77624482Y-71775812D01*
X77744180Y-71739502D01*
X77854494Y-71680537D01*
X77951185Y-71601185D01*
X78030537Y-71504494D01*
X78089502Y-71394180D01*
X78125812Y-71274482D01*
X78138072Y-71150000D01*
X78138072Y-68550000D01*
X78127107Y-68438665D01*
X87465000Y-68438665D01*
X87465000Y-68721335D01*
X87520147Y-68998574D01*
X87628320Y-69259727D01*
X87785363Y-69494759D01*
X87985241Y-69694637D01*
X88220273Y-69851680D01*
X88481426Y-69959853D01*
X88758665Y-70015000D01*
X89041335Y-70015000D01*
X89318574Y-69959853D01*
X89579727Y-69851680D01*
X89814759Y-69694637D01*
X89849977Y-69659419D01*
X99665000Y-69659419D01*
X99665000Y-70040581D01*
X99739361Y-70414419D01*
X99885225Y-70766566D01*
X100096987Y-71083491D01*
X100366509Y-71353013D01*
X100683434Y-71564775D01*
X101035581Y-71710639D01*
X101409419Y-71785000D01*
X101790581Y-71785000D01*
X102164419Y-71710639D01*
X102516566Y-71564775D01*
X102833491Y-71353013D01*
X103103013Y-71083491D01*
X103314775Y-70766566D01*
X103460639Y-70414419D01*
X103535000Y-70040581D01*
X103535000Y-69659419D01*
X103460639Y-69285581D01*
X103314775Y-68933434D01*
X103103013Y-68616509D01*
X103036504Y-68550000D01*
X104741928Y-68550000D01*
X104741928Y-71150000D01*
X104754188Y-71274482D01*
X104790498Y-71394180D01*
X104849463Y-71504494D01*
X104928815Y-71601185D01*
X105025506Y-71680537D01*
X105135820Y-71739502D01*
X105255518Y-71775812D01*
X105380000Y-71788072D01*
X107980000Y-71788072D01*
X108104482Y-71775812D01*
X108224180Y-71739502D01*
X108334494Y-71680537D01*
X108431185Y-71601185D01*
X108510537Y-71504494D01*
X108569502Y-71394180D01*
X108605812Y-71274482D01*
X108618072Y-71150000D01*
X108618072Y-68550000D01*
X108607107Y-68438665D01*
X117945000Y-68438665D01*
X117945000Y-68721335D01*
X118000147Y-68998574D01*
X118108320Y-69259727D01*
X118265363Y-69494759D01*
X118465241Y-69694637D01*
X118700273Y-69851680D01*
X118961426Y-69959853D01*
X119238665Y-70015000D01*
X119521335Y-70015000D01*
X119798574Y-69959853D01*
X120059727Y-69851680D01*
X120294759Y-69694637D01*
X120329977Y-69659419D01*
X130145000Y-69659419D01*
X130145000Y-70040581D01*
X130219361Y-70414419D01*
X130365225Y-70766566D01*
X130576987Y-71083491D01*
X130846509Y-71353013D01*
X131163434Y-71564775D01*
X131515581Y-71710639D01*
X131889419Y-71785000D01*
X132270581Y-71785000D01*
X132644419Y-71710639D01*
X132996566Y-71564775D01*
X133313491Y-71353013D01*
X133583013Y-71083491D01*
X133794775Y-70766566D01*
X133940639Y-70414419D01*
X134015000Y-70040581D01*
X134015000Y-69659419D01*
X133940639Y-69285581D01*
X133794775Y-68933434D01*
X133583013Y-68616509D01*
X133516504Y-68550000D01*
X135221928Y-68550000D01*
X135221928Y-71150000D01*
X135234188Y-71274482D01*
X135270498Y-71394180D01*
X135329463Y-71504494D01*
X135408815Y-71601185D01*
X135505506Y-71680537D01*
X135615820Y-71739502D01*
X135735518Y-71775812D01*
X135860000Y-71788072D01*
X138460000Y-71788072D01*
X138584482Y-71775812D01*
X138704180Y-71739502D01*
X138814494Y-71680537D01*
X138911185Y-71601185D01*
X138990537Y-71504494D01*
X139049502Y-71394180D01*
X139085812Y-71274482D01*
X139098072Y-71150000D01*
X139098072Y-68550000D01*
X139087107Y-68438665D01*
X148425000Y-68438665D01*
X148425000Y-68721335D01*
X148480147Y-68998574D01*
X148588320Y-69259727D01*
X148745363Y-69494759D01*
X148945241Y-69694637D01*
X149180273Y-69851680D01*
X149441426Y-69959853D01*
X149718665Y-70015000D01*
X150001335Y-70015000D01*
X150278574Y-69959853D01*
X150539727Y-69851680D01*
X150774759Y-69694637D01*
X150809977Y-69659419D01*
X160625000Y-69659419D01*
X160625000Y-70040581D01*
X160699361Y-70414419D01*
X160845225Y-70766566D01*
X161056987Y-71083491D01*
X161326509Y-71353013D01*
X161643434Y-71564775D01*
X161995581Y-71710639D01*
X162369419Y-71785000D01*
X162750581Y-71785000D01*
X163124419Y-71710639D01*
X163476566Y-71564775D01*
X163793491Y-71353013D01*
X164063013Y-71083491D01*
X164274775Y-70766566D01*
X164420639Y-70414419D01*
X164495000Y-70040581D01*
X164495000Y-69659419D01*
X164420639Y-69285581D01*
X164274775Y-68933434D01*
X164063013Y-68616509D01*
X163996504Y-68550000D01*
X165701928Y-68550000D01*
X165701928Y-71150000D01*
X165714188Y-71274482D01*
X165750498Y-71394180D01*
X165809463Y-71504494D01*
X165888815Y-71601185D01*
X165985506Y-71680537D01*
X166095820Y-71739502D01*
X166215518Y-71775812D01*
X166340000Y-71788072D01*
X168940000Y-71788072D01*
X169064482Y-71775812D01*
X169184180Y-71739502D01*
X169294494Y-71680537D01*
X169391185Y-71601185D01*
X169470537Y-71504494D01*
X169529502Y-71394180D01*
X169565812Y-71274482D01*
X169578072Y-71150000D01*
X169578072Y-68550000D01*
X169565812Y-68425518D01*
X169529502Y-68305820D01*
X169470537Y-68195506D01*
X169391185Y-68098815D01*
X169294494Y-68019463D01*
X169184180Y-67960498D01*
X169064482Y-67924188D01*
X168940000Y-67911928D01*
X166340000Y-67911928D01*
X166215518Y-67924188D01*
X166095820Y-67960498D01*
X165985506Y-68019463D01*
X165888815Y-68098815D01*
X165809463Y-68195506D01*
X165750498Y-68305820D01*
X165714188Y-68425518D01*
X165701928Y-68550000D01*
X163996504Y-68550000D01*
X163793491Y-68346987D01*
X163476566Y-68135225D01*
X163124419Y-67989361D01*
X162750581Y-67915000D01*
X162369419Y-67915000D01*
X161995581Y-67989361D01*
X161643434Y-68135225D01*
X161326509Y-68346987D01*
X161056987Y-68616509D01*
X160845225Y-68933434D01*
X160699361Y-69285581D01*
X160625000Y-69659419D01*
X150809977Y-69659419D01*
X150974637Y-69494759D01*
X151131680Y-69259727D01*
X151239853Y-68998574D01*
X151295000Y-68721335D01*
X151295000Y-68438665D01*
X151239853Y-68161426D01*
X151131680Y-67900273D01*
X150974637Y-67665241D01*
X150774759Y-67465363D01*
X150539727Y-67308320D01*
X150278574Y-67200147D01*
X150001335Y-67145000D01*
X149718665Y-67145000D01*
X149441426Y-67200147D01*
X149180273Y-67308320D01*
X148945241Y-67465363D01*
X148745363Y-67665241D01*
X148588320Y-67900273D01*
X148480147Y-68161426D01*
X148425000Y-68438665D01*
X139087107Y-68438665D01*
X139085812Y-68425518D01*
X139049502Y-68305820D01*
X138990537Y-68195506D01*
X138911185Y-68098815D01*
X138814494Y-68019463D01*
X138704180Y-67960498D01*
X138584482Y-67924188D01*
X138460000Y-67911928D01*
X135860000Y-67911928D01*
X135735518Y-67924188D01*
X135615820Y-67960498D01*
X135505506Y-68019463D01*
X135408815Y-68098815D01*
X135329463Y-68195506D01*
X135270498Y-68305820D01*
X135234188Y-68425518D01*
X135221928Y-68550000D01*
X133516504Y-68550000D01*
X133313491Y-68346987D01*
X132996566Y-68135225D01*
X132644419Y-67989361D01*
X132270581Y-67915000D01*
X131889419Y-67915000D01*
X131515581Y-67989361D01*
X131163434Y-68135225D01*
X130846509Y-68346987D01*
X130576987Y-68616509D01*
X130365225Y-68933434D01*
X130219361Y-69285581D01*
X130145000Y-69659419D01*
X120329977Y-69659419D01*
X120494637Y-69494759D01*
X120651680Y-69259727D01*
X120759853Y-68998574D01*
X120815000Y-68721335D01*
X120815000Y-68438665D01*
X120759853Y-68161426D01*
X120651680Y-67900273D01*
X120494637Y-67665241D01*
X120294759Y-67465363D01*
X120059727Y-67308320D01*
X119798574Y-67200147D01*
X119521335Y-67145000D01*
X119238665Y-67145000D01*
X118961426Y-67200147D01*
X118700273Y-67308320D01*
X118465241Y-67465363D01*
X118265363Y-67665241D01*
X118108320Y-67900273D01*
X118000147Y-68161426D01*
X117945000Y-68438665D01*
X108607107Y-68438665D01*
X108605812Y-68425518D01*
X108569502Y-68305820D01*
X108510537Y-68195506D01*
X108431185Y-68098815D01*
X108334494Y-68019463D01*
X108224180Y-67960498D01*
X108104482Y-67924188D01*
X107980000Y-67911928D01*
X105380000Y-67911928D01*
X105255518Y-67924188D01*
X105135820Y-67960498D01*
X105025506Y-68019463D01*
X104928815Y-68098815D01*
X104849463Y-68195506D01*
X104790498Y-68305820D01*
X104754188Y-68425518D01*
X104741928Y-68550000D01*
X103036504Y-68550000D01*
X102833491Y-68346987D01*
X102516566Y-68135225D01*
X102164419Y-67989361D01*
X101790581Y-67915000D01*
X101409419Y-67915000D01*
X101035581Y-67989361D01*
X100683434Y-68135225D01*
X100366509Y-68346987D01*
X100096987Y-68616509D01*
X99885225Y-68933434D01*
X99739361Y-69285581D01*
X99665000Y-69659419D01*
X89849977Y-69659419D01*
X90014637Y-69494759D01*
X90171680Y-69259727D01*
X90279853Y-68998574D01*
X90335000Y-68721335D01*
X90335000Y-68438665D01*
X90279853Y-68161426D01*
X90171680Y-67900273D01*
X90014637Y-67665241D01*
X89814759Y-67465363D01*
X89579727Y-67308320D01*
X89318574Y-67200147D01*
X89041335Y-67145000D01*
X88758665Y-67145000D01*
X88481426Y-67200147D01*
X88220273Y-67308320D01*
X87985241Y-67465363D01*
X87785363Y-67665241D01*
X87628320Y-67900273D01*
X87520147Y-68161426D01*
X87465000Y-68438665D01*
X78127107Y-68438665D01*
X78125812Y-68425518D01*
X78089502Y-68305820D01*
X78030537Y-68195506D01*
X77951185Y-68098815D01*
X77854494Y-68019463D01*
X77744180Y-67960498D01*
X77624482Y-67924188D01*
X77500000Y-67911928D01*
X74900000Y-67911928D01*
X74775518Y-67924188D01*
X74655820Y-67960498D01*
X74545506Y-68019463D01*
X74448815Y-68098815D01*
X74369463Y-68195506D01*
X74310498Y-68305820D01*
X74274188Y-68425518D01*
X74261928Y-68550000D01*
X72556504Y-68550000D01*
X72353491Y-68346987D01*
X72036566Y-68135225D01*
X71684419Y-67989361D01*
X71310581Y-67915000D01*
X70929419Y-67915000D01*
X70555581Y-67989361D01*
X70203434Y-68135225D01*
X69886509Y-68346987D01*
X69616987Y-68616509D01*
X69405225Y-68933434D01*
X69259361Y-69285581D01*
X69185000Y-69659419D01*
X62357000Y-69659419D01*
X62357000Y-66802000D01*
X177673000Y-66802000D01*
X177673000Y-74295000D01*
%TA.AperFunction,Conductor*%
D36*
G36*
X177673000Y-74295000D02*
G01*
X177675440Y-74319776D01*
X177682667Y-74343601D01*
X177694403Y-74365557D01*
X177710197Y-74384803D01*
X177729443Y-74400597D01*
X177751399Y-74412333D01*
X177775224Y-74419560D01*
X177800000Y-74422000D01*
X182458195Y-74422000D01*
X182458912Y-74429283D01*
X182498081Y-74558406D01*
X182561688Y-74677407D01*
X182647289Y-74781711D01*
X182751593Y-74867312D01*
X182870594Y-74930919D01*
X182999717Y-74970088D01*
X183134000Y-74983314D01*
X183167647Y-74980000D01*
X186563000Y-74980000D01*
X186563000Y-79883000D01*
X166522826Y-79883000D01*
X166511185Y-79868815D01*
X166414494Y-79789463D01*
X166304180Y-79730498D01*
X166184482Y-79694188D01*
X166060000Y-79681928D01*
X164140000Y-79681928D01*
X164015518Y-79694188D01*
X163895820Y-79730498D01*
X163785506Y-79789463D01*
X163688815Y-79868815D01*
X163677174Y-79883000D01*
X163340167Y-79883000D01*
X163315516Y-79866529D01*
X163025244Y-79746294D01*
X162717094Y-79685000D01*
X162402906Y-79685000D01*
X162094756Y-79746294D01*
X161804484Y-79866529D01*
X161779833Y-79883000D01*
X160800167Y-79883000D01*
X160775516Y-79866529D01*
X160485244Y-79746294D01*
X160177094Y-79685000D01*
X159862906Y-79685000D01*
X159554756Y-79746294D01*
X159264484Y-79866529D01*
X159239833Y-79883000D01*
X150732311Y-79883000D01*
X150774759Y-79854637D01*
X150974637Y-79654759D01*
X151131680Y-79419727D01*
X151239853Y-79158574D01*
X151295000Y-78881335D01*
X151295000Y-78598665D01*
X151239853Y-78321426D01*
X151131680Y-78060273D01*
X150974637Y-77825241D01*
X150774759Y-77625363D01*
X150539727Y-77468320D01*
X150278574Y-77360147D01*
X150001335Y-77305000D01*
X149718665Y-77305000D01*
X149441426Y-77360147D01*
X149180273Y-77468320D01*
X148945241Y-77625363D01*
X148745363Y-77825241D01*
X148588320Y-78060273D01*
X148480147Y-78321426D01*
X148425000Y-78598665D01*
X148425000Y-78881335D01*
X148480147Y-79158574D01*
X148588320Y-79419727D01*
X148745363Y-79654759D01*
X148945241Y-79854637D01*
X148987689Y-79883000D01*
X136042826Y-79883000D01*
X136031185Y-79868815D01*
X135934494Y-79789463D01*
X135824180Y-79730498D01*
X135704482Y-79694188D01*
X135580000Y-79681928D01*
X133660000Y-79681928D01*
X133535518Y-79694188D01*
X133415820Y-79730498D01*
X133305506Y-79789463D01*
X133208815Y-79868815D01*
X133197174Y-79883000D01*
X132860167Y-79883000D01*
X132835516Y-79866529D01*
X132545244Y-79746294D01*
X132237094Y-79685000D01*
X131922906Y-79685000D01*
X131614756Y-79746294D01*
X131324484Y-79866529D01*
X131299833Y-79883000D01*
X130320167Y-79883000D01*
X130295516Y-79866529D01*
X130005244Y-79746294D01*
X129697094Y-79685000D01*
X129382906Y-79685000D01*
X129074756Y-79746294D01*
X128784484Y-79866529D01*
X128759833Y-79883000D01*
X120252311Y-79883000D01*
X120294759Y-79854637D01*
X120494637Y-79654759D01*
X120651680Y-79419727D01*
X120759853Y-79158574D01*
X120815000Y-78881335D01*
X120815000Y-78598665D01*
X120759853Y-78321426D01*
X120651680Y-78060273D01*
X120494637Y-77825241D01*
X120294759Y-77625363D01*
X120059727Y-77468320D01*
X119798574Y-77360147D01*
X119521335Y-77305000D01*
X119238665Y-77305000D01*
X118961426Y-77360147D01*
X118700273Y-77468320D01*
X118465241Y-77625363D01*
X118265363Y-77825241D01*
X118108320Y-78060273D01*
X118000147Y-78321426D01*
X117945000Y-78598665D01*
X117945000Y-78881335D01*
X118000147Y-79158574D01*
X118108320Y-79419727D01*
X118265363Y-79654759D01*
X118465241Y-79854637D01*
X118507689Y-79883000D01*
X105562826Y-79883000D01*
X105551185Y-79868815D01*
X105454494Y-79789463D01*
X105344180Y-79730498D01*
X105224482Y-79694188D01*
X105100000Y-79681928D01*
X103180000Y-79681928D01*
X103055518Y-79694188D01*
X102935820Y-79730498D01*
X102825506Y-79789463D01*
X102728815Y-79868815D01*
X102717174Y-79883000D01*
X102380167Y-79883000D01*
X102355516Y-79866529D01*
X102065244Y-79746294D01*
X101757094Y-79685000D01*
X101442906Y-79685000D01*
X101134756Y-79746294D01*
X100844484Y-79866529D01*
X100819833Y-79883000D01*
X99840167Y-79883000D01*
X99815516Y-79866529D01*
X99525244Y-79746294D01*
X99217094Y-79685000D01*
X98902906Y-79685000D01*
X98594756Y-79746294D01*
X98304484Y-79866529D01*
X98279833Y-79883000D01*
X89772311Y-79883000D01*
X89814759Y-79854637D01*
X90014637Y-79654759D01*
X90171680Y-79419727D01*
X90279853Y-79158574D01*
X90335000Y-78881335D01*
X90335000Y-78598665D01*
X90279853Y-78321426D01*
X90171680Y-78060273D01*
X90014637Y-77825241D01*
X89814759Y-77625363D01*
X89579727Y-77468320D01*
X89318574Y-77360147D01*
X89041335Y-77305000D01*
X88758665Y-77305000D01*
X88481426Y-77360147D01*
X88220273Y-77468320D01*
X87985241Y-77625363D01*
X87785363Y-77825241D01*
X87628320Y-78060273D01*
X87520147Y-78321426D01*
X87465000Y-78598665D01*
X87465000Y-78881335D01*
X87520147Y-79158574D01*
X87628320Y-79419727D01*
X87785363Y-79654759D01*
X87985241Y-79854637D01*
X88027689Y-79883000D01*
X75082826Y-79883000D01*
X75071185Y-79868815D01*
X74974494Y-79789463D01*
X74864180Y-79730498D01*
X74744482Y-79694188D01*
X74620000Y-79681928D01*
X72700000Y-79681928D01*
X72575518Y-79694188D01*
X72455820Y-79730498D01*
X72345506Y-79789463D01*
X72248815Y-79868815D01*
X72237174Y-79883000D01*
X71900167Y-79883000D01*
X71875516Y-79866529D01*
X71585244Y-79746294D01*
X71277094Y-79685000D01*
X70962906Y-79685000D01*
X70654756Y-79746294D01*
X70364484Y-79866529D01*
X70339833Y-79883000D01*
X69360167Y-79883000D01*
X69335516Y-79866529D01*
X69045244Y-79746294D01*
X68737094Y-79685000D01*
X68422906Y-79685000D01*
X68114756Y-79746294D01*
X67824484Y-79866529D01*
X67799833Y-79883000D01*
X64897000Y-79883000D01*
X64897000Y-77470000D01*
X64894560Y-77445224D01*
X64887333Y-77421399D01*
X64875597Y-77399443D01*
X64859803Y-77380197D01*
X64840557Y-77364403D01*
X64818601Y-77352667D01*
X64794776Y-77345440D01*
X64770000Y-77343000D01*
X59690000Y-77343000D01*
X59665224Y-77345440D01*
X59641399Y-77352667D01*
X59619443Y-77364403D01*
X59600197Y-77380197D01*
X59584403Y-77399443D01*
X59572667Y-77421399D01*
X59565440Y-77445224D01*
X59563000Y-77470000D01*
X59563000Y-105283000D01*
X47117000Y-105283000D01*
X47117000Y-86218665D01*
X50635000Y-86218665D01*
X50635000Y-86501335D01*
X50690147Y-86778574D01*
X50798320Y-87039727D01*
X50955363Y-87274759D01*
X51155241Y-87474637D01*
X51390273Y-87631680D01*
X51651426Y-87739853D01*
X51928665Y-87795000D01*
X52211335Y-87795000D01*
X52488574Y-87739853D01*
X52749727Y-87631680D01*
X52984759Y-87474637D01*
X53184637Y-87274759D01*
X53341680Y-87039727D01*
X53449853Y-86778574D01*
X53505000Y-86501335D01*
X53505000Y-86218665D01*
X53449853Y-85941426D01*
X53341680Y-85680273D01*
X53184637Y-85445241D01*
X52984759Y-85245363D01*
X52749727Y-85088320D01*
X52488574Y-84980147D01*
X52211335Y-84925000D01*
X51928665Y-84925000D01*
X51651426Y-84980147D01*
X51390273Y-85088320D01*
X51155241Y-85245363D01*
X50955363Y-85445241D01*
X50798320Y-85680273D01*
X50690147Y-85941426D01*
X50635000Y-86218665D01*
X47117000Y-86218665D01*
X47117000Y-77597000D01*
X52705000Y-77597000D01*
X52729776Y-77594560D01*
X52753601Y-77587333D01*
X52775557Y-77575597D01*
X52794803Y-77559803D01*
X52810597Y-77540557D01*
X52822333Y-77518601D01*
X52829560Y-77494776D01*
X52832000Y-77470000D01*
X52832000Y-73518665D01*
X87465000Y-73518665D01*
X87465000Y-73801335D01*
X87520147Y-74078574D01*
X87628320Y-74339727D01*
X87785363Y-74574759D01*
X87985241Y-74774637D01*
X88220273Y-74931680D01*
X88481426Y-75039853D01*
X88758665Y-75095000D01*
X89041335Y-75095000D01*
X89318574Y-75039853D01*
X89579727Y-74931680D01*
X89814759Y-74774637D01*
X90014637Y-74574759D01*
X90171680Y-74339727D01*
X90279853Y-74078574D01*
X90335000Y-73801335D01*
X90335000Y-73518665D01*
X117945000Y-73518665D01*
X117945000Y-73801335D01*
X118000147Y-74078574D01*
X118108320Y-74339727D01*
X118265363Y-74574759D01*
X118465241Y-74774637D01*
X118700273Y-74931680D01*
X118961426Y-75039853D01*
X119238665Y-75095000D01*
X119521335Y-75095000D01*
X119798574Y-75039853D01*
X120059727Y-74931680D01*
X120294759Y-74774637D01*
X120494637Y-74574759D01*
X120651680Y-74339727D01*
X120759853Y-74078574D01*
X120815000Y-73801335D01*
X120815000Y-73518665D01*
X148425000Y-73518665D01*
X148425000Y-73801335D01*
X148480147Y-74078574D01*
X148588320Y-74339727D01*
X148745363Y-74574759D01*
X148945241Y-74774637D01*
X149180273Y-74931680D01*
X149441426Y-75039853D01*
X149718665Y-75095000D01*
X150001335Y-75095000D01*
X150278574Y-75039853D01*
X150539727Y-74931680D01*
X150774759Y-74774637D01*
X150974637Y-74574759D01*
X151131680Y-74339727D01*
X151239853Y-74078574D01*
X151295000Y-73801335D01*
X151295000Y-73518665D01*
X151239853Y-73241426D01*
X151131680Y-72980273D01*
X150974637Y-72745241D01*
X150774759Y-72545363D01*
X150539727Y-72388320D01*
X150278574Y-72280147D01*
X150001335Y-72225000D01*
X149718665Y-72225000D01*
X149441426Y-72280147D01*
X149180273Y-72388320D01*
X148945241Y-72545363D01*
X148745363Y-72745241D01*
X148588320Y-72980273D01*
X148480147Y-73241426D01*
X148425000Y-73518665D01*
X120815000Y-73518665D01*
X120759853Y-73241426D01*
X120651680Y-72980273D01*
X120494637Y-72745241D01*
X120294759Y-72545363D01*
X120059727Y-72388320D01*
X119798574Y-72280147D01*
X119521335Y-72225000D01*
X119238665Y-72225000D01*
X118961426Y-72280147D01*
X118700273Y-72388320D01*
X118465241Y-72545363D01*
X118265363Y-72745241D01*
X118108320Y-72980273D01*
X118000147Y-73241426D01*
X117945000Y-73518665D01*
X90335000Y-73518665D01*
X90279853Y-73241426D01*
X90171680Y-72980273D01*
X90014637Y-72745241D01*
X89814759Y-72545363D01*
X89579727Y-72388320D01*
X89318574Y-72280147D01*
X89041335Y-72225000D01*
X88758665Y-72225000D01*
X88481426Y-72280147D01*
X88220273Y-72388320D01*
X87985241Y-72545363D01*
X87785363Y-72745241D01*
X87628320Y-72980273D01*
X87520147Y-73241426D01*
X87465000Y-73518665D01*
X52832000Y-73518665D01*
X52832000Y-71247000D01*
X54277629Y-71247000D01*
X54468665Y-71285000D01*
X54751335Y-71285000D01*
X54942371Y-71247000D01*
X59357629Y-71247000D01*
X59548665Y-71285000D01*
X59831335Y-71285000D01*
X60022371Y-71247000D01*
X62230000Y-71247000D01*
X62254776Y-71244560D01*
X62278601Y-71237333D01*
X62300557Y-71225597D01*
X62319803Y-71209803D01*
X62335597Y-71190557D01*
X62347333Y-71168601D01*
X62354560Y-71144776D01*
X62357000Y-71120000D01*
X62357000Y-69659419D01*
X69185000Y-69659419D01*
X69185000Y-70040581D01*
X69259361Y-70414419D01*
X69405225Y-70766566D01*
X69616987Y-71083491D01*
X69886509Y-71353013D01*
X70203434Y-71564775D01*
X70555581Y-71710639D01*
X70929419Y-71785000D01*
X71310581Y-71785000D01*
X71684419Y-71710639D01*
X72036566Y-71564775D01*
X72353491Y-71353013D01*
X72623013Y-71083491D01*
X72834775Y-70766566D01*
X72980639Y-70414419D01*
X73055000Y-70040581D01*
X73055000Y-69659419D01*
X72980639Y-69285581D01*
X72834775Y-68933434D01*
X72623013Y-68616509D01*
X72556504Y-68550000D01*
X74261928Y-68550000D01*
X74261928Y-71150000D01*
X74274188Y-71274482D01*
X74310498Y-71394180D01*
X74369463Y-71504494D01*
X74448815Y-71601185D01*
X74545506Y-71680537D01*
X74655820Y-71739502D01*
X74775518Y-71775812D01*
X74900000Y-71788072D01*
X77500000Y-71788072D01*
X77624482Y-71775812D01*
X77744180Y-71739502D01*
X77854494Y-71680537D01*
X77951185Y-71601185D01*
X78030537Y-71504494D01*
X78089502Y-71394180D01*
X78125812Y-71274482D01*
X78138072Y-71150000D01*
X78138072Y-68550000D01*
X78127107Y-68438665D01*
X87465000Y-68438665D01*
X87465000Y-68721335D01*
X87520147Y-68998574D01*
X87628320Y-69259727D01*
X87785363Y-69494759D01*
X87985241Y-69694637D01*
X88220273Y-69851680D01*
X88481426Y-69959853D01*
X88758665Y-70015000D01*
X89041335Y-70015000D01*
X89318574Y-69959853D01*
X89579727Y-69851680D01*
X89814759Y-69694637D01*
X89849977Y-69659419D01*
X99665000Y-69659419D01*
X99665000Y-70040581D01*
X99739361Y-70414419D01*
X99885225Y-70766566D01*
X100096987Y-71083491D01*
X100366509Y-71353013D01*
X100683434Y-71564775D01*
X101035581Y-71710639D01*
X101409419Y-71785000D01*
X101790581Y-71785000D01*
X102164419Y-71710639D01*
X102516566Y-71564775D01*
X102833491Y-71353013D01*
X103103013Y-71083491D01*
X103314775Y-70766566D01*
X103460639Y-70414419D01*
X103535000Y-70040581D01*
X103535000Y-69659419D01*
X103460639Y-69285581D01*
X103314775Y-68933434D01*
X103103013Y-68616509D01*
X103036504Y-68550000D01*
X104741928Y-68550000D01*
X104741928Y-71150000D01*
X104754188Y-71274482D01*
X104790498Y-71394180D01*
X104849463Y-71504494D01*
X104928815Y-71601185D01*
X105025506Y-71680537D01*
X105135820Y-71739502D01*
X105255518Y-71775812D01*
X105380000Y-71788072D01*
X107980000Y-71788072D01*
X108104482Y-71775812D01*
X108224180Y-71739502D01*
X108334494Y-71680537D01*
X108431185Y-71601185D01*
X108510537Y-71504494D01*
X108569502Y-71394180D01*
X108605812Y-71274482D01*
X108618072Y-71150000D01*
X108618072Y-68550000D01*
X108607107Y-68438665D01*
X117945000Y-68438665D01*
X117945000Y-68721335D01*
X118000147Y-68998574D01*
X118108320Y-69259727D01*
X118265363Y-69494759D01*
X118465241Y-69694637D01*
X118700273Y-69851680D01*
X118961426Y-69959853D01*
X119238665Y-70015000D01*
X119521335Y-70015000D01*
X119798574Y-69959853D01*
X120059727Y-69851680D01*
X120294759Y-69694637D01*
X120329977Y-69659419D01*
X130145000Y-69659419D01*
X130145000Y-70040581D01*
X130219361Y-70414419D01*
X130365225Y-70766566D01*
X130576987Y-71083491D01*
X130846509Y-71353013D01*
X131163434Y-71564775D01*
X131515581Y-71710639D01*
X131889419Y-71785000D01*
X132270581Y-71785000D01*
X132644419Y-71710639D01*
X132996566Y-71564775D01*
X133313491Y-71353013D01*
X133583013Y-71083491D01*
X133794775Y-70766566D01*
X133940639Y-70414419D01*
X134015000Y-70040581D01*
X134015000Y-69659419D01*
X133940639Y-69285581D01*
X133794775Y-68933434D01*
X133583013Y-68616509D01*
X133516504Y-68550000D01*
X135221928Y-68550000D01*
X135221928Y-71150000D01*
X135234188Y-71274482D01*
X135270498Y-71394180D01*
X135329463Y-71504494D01*
X135408815Y-71601185D01*
X135505506Y-71680537D01*
X135615820Y-71739502D01*
X135735518Y-71775812D01*
X135860000Y-71788072D01*
X138460000Y-71788072D01*
X138584482Y-71775812D01*
X138704180Y-71739502D01*
X138814494Y-71680537D01*
X138911185Y-71601185D01*
X138990537Y-71504494D01*
X139049502Y-71394180D01*
X139085812Y-71274482D01*
X139098072Y-71150000D01*
X139098072Y-68550000D01*
X139087107Y-68438665D01*
X148425000Y-68438665D01*
X148425000Y-68721335D01*
X148480147Y-68998574D01*
X148588320Y-69259727D01*
X148745363Y-69494759D01*
X148945241Y-69694637D01*
X149180273Y-69851680D01*
X149441426Y-69959853D01*
X149718665Y-70015000D01*
X150001335Y-70015000D01*
X150278574Y-69959853D01*
X150539727Y-69851680D01*
X150774759Y-69694637D01*
X150809977Y-69659419D01*
X160625000Y-69659419D01*
X160625000Y-70040581D01*
X160699361Y-70414419D01*
X160845225Y-70766566D01*
X161056987Y-71083491D01*
X161326509Y-71353013D01*
X161643434Y-71564775D01*
X161995581Y-71710639D01*
X162369419Y-71785000D01*
X162750581Y-71785000D01*
X163124419Y-71710639D01*
X163476566Y-71564775D01*
X163793491Y-71353013D01*
X164063013Y-71083491D01*
X164274775Y-70766566D01*
X164420639Y-70414419D01*
X164495000Y-70040581D01*
X164495000Y-69659419D01*
X164420639Y-69285581D01*
X164274775Y-68933434D01*
X164063013Y-68616509D01*
X163996504Y-68550000D01*
X165701928Y-68550000D01*
X165701928Y-71150000D01*
X165714188Y-71274482D01*
X165750498Y-71394180D01*
X165809463Y-71504494D01*
X165888815Y-71601185D01*
X165985506Y-71680537D01*
X166095820Y-71739502D01*
X166215518Y-71775812D01*
X166340000Y-71788072D01*
X168940000Y-71788072D01*
X169064482Y-71775812D01*
X169184180Y-71739502D01*
X169294494Y-71680537D01*
X169391185Y-71601185D01*
X169470537Y-71504494D01*
X169529502Y-71394180D01*
X169565812Y-71274482D01*
X169578072Y-71150000D01*
X169578072Y-68550000D01*
X169565812Y-68425518D01*
X169529502Y-68305820D01*
X169470537Y-68195506D01*
X169391185Y-68098815D01*
X169294494Y-68019463D01*
X169184180Y-67960498D01*
X169064482Y-67924188D01*
X168940000Y-67911928D01*
X166340000Y-67911928D01*
X166215518Y-67924188D01*
X166095820Y-67960498D01*
X165985506Y-68019463D01*
X165888815Y-68098815D01*
X165809463Y-68195506D01*
X165750498Y-68305820D01*
X165714188Y-68425518D01*
X165701928Y-68550000D01*
X163996504Y-68550000D01*
X163793491Y-68346987D01*
X163476566Y-68135225D01*
X163124419Y-67989361D01*
X162750581Y-67915000D01*
X162369419Y-67915000D01*
X161995581Y-67989361D01*
X161643434Y-68135225D01*
X161326509Y-68346987D01*
X161056987Y-68616509D01*
X160845225Y-68933434D01*
X160699361Y-69285581D01*
X160625000Y-69659419D01*
X150809977Y-69659419D01*
X150974637Y-69494759D01*
X151131680Y-69259727D01*
X151239853Y-68998574D01*
X151295000Y-68721335D01*
X151295000Y-68438665D01*
X151239853Y-68161426D01*
X151131680Y-67900273D01*
X150974637Y-67665241D01*
X150774759Y-67465363D01*
X150539727Y-67308320D01*
X150278574Y-67200147D01*
X150001335Y-67145000D01*
X149718665Y-67145000D01*
X149441426Y-67200147D01*
X149180273Y-67308320D01*
X148945241Y-67465363D01*
X148745363Y-67665241D01*
X148588320Y-67900273D01*
X148480147Y-68161426D01*
X148425000Y-68438665D01*
X139087107Y-68438665D01*
X139085812Y-68425518D01*
X139049502Y-68305820D01*
X138990537Y-68195506D01*
X138911185Y-68098815D01*
X138814494Y-68019463D01*
X138704180Y-67960498D01*
X138584482Y-67924188D01*
X138460000Y-67911928D01*
X135860000Y-67911928D01*
X135735518Y-67924188D01*
X135615820Y-67960498D01*
X135505506Y-68019463D01*
X135408815Y-68098815D01*
X135329463Y-68195506D01*
X135270498Y-68305820D01*
X135234188Y-68425518D01*
X135221928Y-68550000D01*
X133516504Y-68550000D01*
X133313491Y-68346987D01*
X132996566Y-68135225D01*
X132644419Y-67989361D01*
X132270581Y-67915000D01*
X131889419Y-67915000D01*
X131515581Y-67989361D01*
X131163434Y-68135225D01*
X130846509Y-68346987D01*
X130576987Y-68616509D01*
X130365225Y-68933434D01*
X130219361Y-69285581D01*
X130145000Y-69659419D01*
X120329977Y-69659419D01*
X120494637Y-69494759D01*
X120651680Y-69259727D01*
X120759853Y-68998574D01*
X120815000Y-68721335D01*
X120815000Y-68438665D01*
X120759853Y-68161426D01*
X120651680Y-67900273D01*
X120494637Y-67665241D01*
X120294759Y-67465363D01*
X120059727Y-67308320D01*
X119798574Y-67200147D01*
X119521335Y-67145000D01*
X119238665Y-67145000D01*
X118961426Y-67200147D01*
X118700273Y-67308320D01*
X118465241Y-67465363D01*
X118265363Y-67665241D01*
X118108320Y-67900273D01*
X118000147Y-68161426D01*
X117945000Y-68438665D01*
X108607107Y-68438665D01*
X108605812Y-68425518D01*
X108569502Y-68305820D01*
X108510537Y-68195506D01*
X108431185Y-68098815D01*
X108334494Y-68019463D01*
X108224180Y-67960498D01*
X108104482Y-67924188D01*
X107980000Y-67911928D01*
X105380000Y-67911928D01*
X105255518Y-67924188D01*
X105135820Y-67960498D01*
X105025506Y-68019463D01*
X104928815Y-68098815D01*
X104849463Y-68195506D01*
X104790498Y-68305820D01*
X104754188Y-68425518D01*
X104741928Y-68550000D01*
X103036504Y-68550000D01*
X102833491Y-68346987D01*
X102516566Y-68135225D01*
X102164419Y-67989361D01*
X101790581Y-67915000D01*
X101409419Y-67915000D01*
X101035581Y-67989361D01*
X100683434Y-68135225D01*
X100366509Y-68346987D01*
X100096987Y-68616509D01*
X99885225Y-68933434D01*
X99739361Y-69285581D01*
X99665000Y-69659419D01*
X89849977Y-69659419D01*
X90014637Y-69494759D01*
X90171680Y-69259727D01*
X90279853Y-68998574D01*
X90335000Y-68721335D01*
X90335000Y-68438665D01*
X90279853Y-68161426D01*
X90171680Y-67900273D01*
X90014637Y-67665241D01*
X89814759Y-67465363D01*
X89579727Y-67308320D01*
X89318574Y-67200147D01*
X89041335Y-67145000D01*
X88758665Y-67145000D01*
X88481426Y-67200147D01*
X88220273Y-67308320D01*
X87985241Y-67465363D01*
X87785363Y-67665241D01*
X87628320Y-67900273D01*
X87520147Y-68161426D01*
X87465000Y-68438665D01*
X78127107Y-68438665D01*
X78125812Y-68425518D01*
X78089502Y-68305820D01*
X78030537Y-68195506D01*
X77951185Y-68098815D01*
X77854494Y-68019463D01*
X77744180Y-67960498D01*
X77624482Y-67924188D01*
X77500000Y-67911928D01*
X74900000Y-67911928D01*
X74775518Y-67924188D01*
X74655820Y-67960498D01*
X74545506Y-68019463D01*
X74448815Y-68098815D01*
X74369463Y-68195506D01*
X74310498Y-68305820D01*
X74274188Y-68425518D01*
X74261928Y-68550000D01*
X72556504Y-68550000D01*
X72353491Y-68346987D01*
X72036566Y-68135225D01*
X71684419Y-67989361D01*
X71310581Y-67915000D01*
X70929419Y-67915000D01*
X70555581Y-67989361D01*
X70203434Y-68135225D01*
X69886509Y-68346987D01*
X69616987Y-68616509D01*
X69405225Y-68933434D01*
X69259361Y-69285581D01*
X69185000Y-69659419D01*
X62357000Y-69659419D01*
X62357000Y-66802000D01*
X177673000Y-66802000D01*
X177673000Y-74295000D01*
G37*
%TD.AperFunction*%
%TD*%
D35*
%TO.N,Net-(Q1-Pad3)*%
X191643000Y-104013000D02*
X181737000Y-104013000D01*
X181737000Y-101598082D01*
X181815338Y-101519744D01*
X182016156Y-101219199D01*
X182154482Y-100885250D01*
X182225000Y-100530732D01*
X182225000Y-100169268D01*
X182154482Y-99814750D01*
X182016156Y-99480801D01*
X181815338Y-99180256D01*
X181737000Y-99101918D01*
X181737000Y-96647000D01*
X187960000Y-96647000D01*
X187984776Y-96644560D01*
X188008601Y-96637333D01*
X188030557Y-96625597D01*
X188049803Y-96609803D01*
X188065597Y-96590557D01*
X188077333Y-96568601D01*
X188084560Y-96544776D01*
X188087000Y-96520000D01*
X188087000Y-93490167D01*
X188103471Y-93465516D01*
X188223706Y-93175244D01*
X188285000Y-92867094D01*
X188285000Y-92552906D01*
X188223706Y-92244756D01*
X188103471Y-91954484D01*
X188087000Y-91929833D01*
X188087000Y-89027000D01*
X191643000Y-89027000D01*
X191643000Y-104013000D01*
%TA.AperFunction,Conductor*%
D36*
G36*
X191643000Y-104013000D02*
G01*
X181737000Y-104013000D01*
X181737000Y-101598082D01*
X181815338Y-101519744D01*
X182016156Y-101219199D01*
X182154482Y-100885250D01*
X182225000Y-100530732D01*
X182225000Y-100169268D01*
X182154482Y-99814750D01*
X182016156Y-99480801D01*
X181815338Y-99180256D01*
X181737000Y-99101918D01*
X181737000Y-96647000D01*
X187960000Y-96647000D01*
X187984776Y-96644560D01*
X188008601Y-96637333D01*
X188030557Y-96625597D01*
X188049803Y-96609803D01*
X188065597Y-96590557D01*
X188077333Y-96568601D01*
X188084560Y-96544776D01*
X188087000Y-96520000D01*
X188087000Y-93490167D01*
X188103471Y-93465516D01*
X188223706Y-93175244D01*
X188285000Y-92867094D01*
X188285000Y-92552906D01*
X188223706Y-92244756D01*
X188103471Y-91954484D01*
X188087000Y-91929833D01*
X188087000Y-89027000D01*
X191643000Y-89027000D01*
X191643000Y-104013000D01*
G37*
%TD.AperFunction*%
%TD*%
M02*
