%TF.GenerationSoftware,KiCad,Pcbnew,(6.0.0)*%
%TF.CreationDate,2022-07-05T18:27:05-07:00*%
%TF.ProjectId,MakeItRain,4d616b65-4974-4526-9169-6e2e6b696361,rev?*%
%TF.SameCoordinates,Original*%
%TF.FileFunction,Soldermask,Bot*%
%TF.FilePolarity,Negative*%
%FSLAX46Y46*%
G04 Gerber Fmt 4.6, Leading zero omitted, Abs format (unit mm)*
G04 Created by KiCad (PCBNEW (6.0.0)) date 2022-07-05 18:27:05*
%MOMM*%
%LPD*%
G01*
G04 APERTURE LIST*
%ADD10C,1.600000*%
%ADD11R,2.600000X2.600000*%
%ADD12O,2.600000X2.600000*%
%ADD13R,1.800000X1.800000*%
%ADD14C,1.800000*%
%ADD15R,1.700000X1.700000*%
%ADD16O,1.700000X1.700000*%
%ADD17C,2.600000*%
%ADD18R,1.920000X1.920000*%
%ADD19C,1.920000*%
%ADD20R,1.050000X1.500000*%
%ADD21O,1.050000X1.500000*%
%ADD22R,1.150000X1.150000*%
%ADD23C,1.150000*%
%ADD24O,1.600000X1.600000*%
%ADD25R,1.500000X1.050000*%
%ADD26O,1.500000X1.050000*%
%ADD27C,1.440000*%
%ADD28R,2.200000X2.200000*%
%ADD29O,2.200000X2.200000*%
%ADD30R,1.500000X1.500000*%
%ADD31C,1.500000*%
%ADD32C,2.400000*%
%ADD33C,2.100000*%
%ADD34R,1.130000X1.130000*%
%ADD35C,1.130000*%
G04 APERTURE END LIST*
D10*
%TO.C,C2*%
X89109000Y-69659700D03*
X89109000Y-74659700D03*
%TD*%
%TO.C,C3*%
X119449600Y-64825000D03*
X119449600Y-69825000D03*
%TD*%
%TO.C,C4*%
X151357900Y-66638300D03*
X151357900Y-71638300D03*
%TD*%
D11*
%TO.C,D3*%
X83061000Y-85060000D03*
D12*
X83061000Y-69820000D03*
%TD*%
D11*
%TO.C,D5*%
X113541000Y-85060000D03*
D12*
X113541000Y-69820000D03*
%TD*%
D11*
%TO.C,D7*%
X174501000Y-85060000D03*
D12*
X174501000Y-69820000D03*
%TD*%
D11*
%TO.C,D9*%
X144021000Y-85060000D03*
D12*
X144021000Y-69820000D03*
%TD*%
D13*
%TO.C,D1*%
X128872900Y-123268200D03*
D14*
X126332900Y-123268200D03*
%TD*%
D15*
%TO.C,J2*%
X66040000Y-120650000D03*
D16*
X66040000Y-123190000D03*
X68580000Y-120650000D03*
X68580000Y-123190000D03*
X71120000Y-120650000D03*
X71120000Y-123190000D03*
X73660000Y-120650000D03*
X73660000Y-123190000D03*
X76200000Y-120650000D03*
X76200000Y-123190000D03*
X78740000Y-120650000D03*
X78740000Y-123190000D03*
X81280000Y-120650000D03*
X81280000Y-123190000D03*
X83820000Y-120650000D03*
X83820000Y-123190000D03*
X86360000Y-120650000D03*
X86360000Y-123190000D03*
X88900000Y-120650000D03*
X88900000Y-123190000D03*
X91440000Y-120650000D03*
X91440000Y-123190000D03*
X93980000Y-120650000D03*
X93980000Y-123190000D03*
X96520000Y-120650000D03*
X96520000Y-123190000D03*
X99060000Y-120650000D03*
X99060000Y-123190000D03*
X101600000Y-120650000D03*
X101600000Y-123190000D03*
X104140000Y-120650000D03*
X104140000Y-123190000D03*
X106680000Y-120650000D03*
X106680000Y-123190000D03*
X109220000Y-120650000D03*
X109220000Y-123190000D03*
X111760000Y-120650000D03*
X111760000Y-123190000D03*
%TD*%
D15*
%TO.C,J3*%
X66040000Y-97790000D03*
D16*
X68580000Y-97790000D03*
X71120000Y-97790000D03*
X73660000Y-97790000D03*
X76200000Y-97790000D03*
X78740000Y-97790000D03*
X81280000Y-97790000D03*
X83820000Y-97790000D03*
X86360000Y-97790000D03*
X88900000Y-97790000D03*
X91440000Y-97790000D03*
X93980000Y-97790000D03*
X96520000Y-97790000D03*
X99060000Y-97790000D03*
X101600000Y-97790000D03*
X104140000Y-97790000D03*
X106680000Y-97790000D03*
X109220000Y-97790000D03*
X111760000Y-97790000D03*
%TD*%
D11*
%TO.C,P1*%
X178125700Y-96457800D03*
D17*
X178125700Y-91377800D03*
%TD*%
D18*
%TO.C,Q3*%
X71689700Y-82379600D03*
D19*
X69149700Y-82379600D03*
X66609700Y-82379600D03*
%TD*%
D18*
%TO.C,Q6*%
X101108600Y-82267600D03*
D19*
X98568600Y-82267600D03*
X96028600Y-82267600D03*
%TD*%
D20*
%TO.C,Q7*%
X93346300Y-104626700D03*
D21*
X94616300Y-104626700D03*
X95886300Y-104626700D03*
%TD*%
D18*
%TO.C,Q9*%
X131085700Y-82267600D03*
D19*
X128545700Y-82267600D03*
X126005700Y-82267600D03*
%TD*%
D18*
%TO.C,Q12*%
X162229200Y-82267600D03*
D19*
X159689200Y-82267600D03*
X157149200Y-82267600D03*
%TD*%
D18*
%TO.C,Q13*%
X174341600Y-105164100D03*
D19*
X176881600Y-105164100D03*
X179421600Y-105164100D03*
%TD*%
D11*
%TO.C,Z2*%
X106556000Y-71090000D03*
D17*
X101476000Y-71090000D03*
X96396000Y-71090000D03*
%TD*%
D11*
%TO.C,Z3*%
X137036000Y-71090000D03*
D17*
X131956000Y-71090000D03*
X126876000Y-71090000D03*
%TD*%
D11*
%TO.C,Z4*%
X167516000Y-71090000D03*
D17*
X162436000Y-71090000D03*
X157356000Y-71090000D03*
%TD*%
D11*
%TO.C,Z1*%
X76076000Y-71090000D03*
D17*
X70996000Y-71090000D03*
X65916000Y-71090000D03*
%TD*%
D15*
%TO.C,J1*%
X170349000Y-121042300D03*
D16*
X170349000Y-123582300D03*
X167809000Y-121042300D03*
X167809000Y-123582300D03*
X165269000Y-121042300D03*
X165269000Y-123582300D03*
X162729000Y-121042300D03*
X162729000Y-123582300D03*
X160189000Y-121042300D03*
X160189000Y-123582300D03*
X157649000Y-121042300D03*
X157649000Y-123582300D03*
X155109000Y-121042300D03*
X155109000Y-123582300D03*
X152569000Y-121042300D03*
X152569000Y-123582300D03*
X150029000Y-121042300D03*
X150029000Y-123582300D03*
X147489000Y-121042300D03*
X147489000Y-123582300D03*
X144949000Y-121042300D03*
X144949000Y-123582300D03*
X142409000Y-121042300D03*
X142409000Y-123582300D03*
X139869000Y-121042300D03*
X139869000Y-123582300D03*
X137329000Y-121042300D03*
X137329000Y-123582300D03*
X134789000Y-121042300D03*
X134789000Y-123582300D03*
%TD*%
D22*
%TO.C,Z5*%
X64792500Y-87395400D03*
D23*
X75492500Y-87395400D03*
%TD*%
D22*
%TO.C,Z6*%
X95418500Y-87436000D03*
D23*
X106118500Y-87436000D03*
%TD*%
D22*
%TO.C,Z8*%
X156564300Y-87104200D03*
D23*
X167264300Y-87104200D03*
%TD*%
D20*
%TO.C,Q4*%
X87748400Y-104639800D03*
D21*
X89018400Y-104639800D03*
X90288400Y-104639800D03*
%TD*%
D10*
%TO.C,R23*%
X75572300Y-105627200D03*
D24*
X73032300Y-105627200D03*
%TD*%
D10*
%TO.C,R31*%
X88097100Y-113124500D03*
D24*
X88097100Y-115664500D03*
%TD*%
D10*
%TO.C,R16*%
X131777400Y-90385900D03*
D24*
X134317400Y-90385900D03*
%TD*%
D25*
%TO.C,Q2*%
X77074800Y-81816600D03*
D26*
X77074800Y-83086600D03*
X77074800Y-84356600D03*
%TD*%
D10*
%TO.C,R24*%
X73376700Y-108765100D03*
D24*
X75916700Y-108765100D03*
%TD*%
D10*
%TO.C,R5*%
X88483500Y-79968900D03*
D24*
X91023500Y-79968900D03*
%TD*%
D27*
%TO.C,RV1*%
X150637800Y-101920600D03*
X153177800Y-101920600D03*
X155717800Y-101920600D03*
%TD*%
D15*
%TO.C,J4*%
X155955000Y-96632400D03*
%TD*%
D10*
%TO.C,R15*%
X126614500Y-90392400D03*
D24*
X129154500Y-90392400D03*
%TD*%
D10*
%TO.C,R17*%
X179213800Y-74015100D03*
D24*
X179213800Y-76555100D03*
%TD*%
D15*
%TO.C,J5*%
X59207667Y-91310174D03*
D16*
X59207667Y-88770174D03*
X59207667Y-86230174D03*
X59207667Y-83690174D03*
%TD*%
D10*
%TO.C,R4*%
X105516500Y-115956200D03*
D24*
X102976500Y-115956200D03*
%TD*%
D10*
%TO.C,R18*%
X179350700Y-81833100D03*
D24*
X181890700Y-81833100D03*
%TD*%
D10*
%TO.C,R29*%
X140604000Y-113952700D03*
D24*
X138064000Y-113952700D03*
%TD*%
D10*
%TO.C,R25*%
X75859900Y-114068500D03*
D24*
X75859900Y-111528500D03*
%TD*%
D10*
%TO.C,R33*%
X97677800Y-113124500D03*
D24*
X97677800Y-115664500D03*
%TD*%
D10*
%TO.C,R14*%
X136973400Y-90405200D03*
D24*
X139513400Y-90405200D03*
%TD*%
D25*
%TO.C,Q11*%
X167687500Y-81543000D03*
D26*
X167687500Y-82813000D03*
X167687500Y-84083000D03*
%TD*%
D10*
%TO.C,R27*%
X140604000Y-104374000D03*
D24*
X138064000Y-104374000D03*
%TD*%
D28*
%TO.C,D4*%
X111225100Y-112149400D03*
D29*
X121385100Y-112149400D03*
%TD*%
D28*
%TO.C,D2*%
X111172700Y-117020300D03*
D29*
X121332700Y-117020300D03*
%TD*%
D30*
%TO.C,S1*%
X115616200Y-120523800D03*
D31*
X122116200Y-120523800D03*
X115616200Y-125023800D03*
X122116200Y-125023800D03*
%TD*%
D10*
%TO.C,R9*%
X118458200Y-74373700D03*
D24*
X120998200Y-74373700D03*
%TD*%
D10*
%TO.C,R13*%
X149787000Y-76942800D03*
D24*
X152327000Y-76942800D03*
%TD*%
D10*
%TO.C,R6*%
X77976900Y-90313600D03*
D24*
X80516900Y-90313600D03*
%TD*%
D10*
%TO.C,R11*%
X97428100Y-90313600D03*
D24*
X99968100Y-90313600D03*
%TD*%
D10*
%TO.C,R7*%
X67592100Y-90313600D03*
D24*
X70132100Y-90313600D03*
%TD*%
D32*
%TO.C,U2*%
X171378400Y-111050500D03*
D33*
X164978400Y-112300500D03*
X168478400Y-112300500D03*
X174278400Y-112300500D03*
X177778400Y-112300500D03*
X177778400Y-109800500D03*
X174278400Y-109800500D03*
X168478400Y-109800500D03*
X164978400Y-109800500D03*
%TD*%
D20*
%TO.C,Q10*%
X98978100Y-104626700D03*
D21*
X100248100Y-104626700D03*
X101518100Y-104626700D03*
%TD*%
D28*
%TO.C,D8*%
X111225100Y-102330700D03*
D29*
X121385100Y-102330700D03*
%TD*%
D34*
%TO.C,IC3*%
X70520600Y-114579500D03*
D35*
X70520600Y-112039500D03*
X70520600Y-109499500D03*
X70520600Y-106959500D03*
X62580600Y-106959500D03*
X62580600Y-109499500D03*
X62580600Y-112039500D03*
X62580600Y-114579500D03*
%TD*%
D20*
%TO.C,Q1*%
X82152400Y-104644400D03*
D21*
X83422400Y-104644400D03*
X84692400Y-104644400D03*
%TD*%
D10*
%TO.C,R26*%
X140604000Y-99584700D03*
D24*
X138064000Y-99584700D03*
%TD*%
D10*
%TO.C,R8*%
X72798600Y-90313600D03*
D24*
X75338600Y-90313600D03*
%TD*%
D25*
%TO.C,Q8*%
X137542600Y-81822900D03*
D26*
X137542600Y-83092900D03*
X137542600Y-84362900D03*
%TD*%
D25*
%TO.C,Q5*%
X106673400Y-81749200D03*
D26*
X106673400Y-83019200D03*
X106673400Y-84289200D03*
%TD*%
D10*
%TO.C,C5*%
X151310400Y-84874400D03*
X151310400Y-79874400D03*
%TD*%
%TO.C,R21*%
X167425100Y-105167700D03*
D24*
X169965100Y-105167700D03*
%TD*%
D10*
%TO.C,R3*%
X105650100Y-111109900D03*
D24*
X103110100Y-111109900D03*
%TD*%
D10*
%TO.C,R30*%
X83306700Y-113124500D03*
D24*
X83306700Y-115664500D03*
%TD*%
D10*
%TO.C,R12*%
X102602700Y-90291400D03*
D24*
X105142700Y-90291400D03*
%TD*%
D10*
%TO.C,R28*%
X140604000Y-109163400D03*
D24*
X138064000Y-109163400D03*
%TD*%
D10*
%TO.C,R20*%
X160459300Y-89971000D03*
D24*
X162999300Y-89971000D03*
%TD*%
D10*
%TO.C,R19*%
X155096800Y-90020800D03*
D24*
X157636800Y-90020800D03*
%TD*%
D10*
%TO.C,R10*%
X107804100Y-90285900D03*
D24*
X110344100Y-90285900D03*
%TD*%
D28*
%TO.C,D6*%
X111225100Y-107240100D03*
D29*
X121385100Y-107240100D03*
%TD*%
D10*
%TO.C,R32*%
X92887500Y-113124500D03*
D24*
X92887500Y-115664500D03*
%TD*%
D22*
%TO.C,Z7*%
X124968600Y-87436000D03*
D23*
X135668600Y-87436000D03*
%TD*%
D10*
%TO.C,R34*%
X57889400Y-114568900D03*
D24*
X60429400Y-114568900D03*
%TD*%
M02*
