%TF.GenerationSoftware,KiCad,Pcbnew,(6.0.0)*%
%TF.CreationDate,2022-07-11T07:12:13-07:00*%
%TF.ProjectId,MakeItRain,4d616b65-4974-4526-9169-6e2e6b696361,rev?*%
%TF.SameCoordinates,Original*%
%TF.FileFunction,Copper,L2,Inr*%
%TF.FilePolarity,Positive*%
%FSLAX46Y46*%
G04 Gerber Fmt 4.6, Leading zero omitted, Abs format (unit mm)*
G04 Created by KiCad (PCBNEW (6.0.0)) date 2022-07-11 07:12:13*
%MOMM*%
%LPD*%
G01*
G04 APERTURE LIST*
%TA.AperFunction,ComponentPad*%
%ADD10C,1.600000*%
%TD*%
%TA.AperFunction,ComponentPad*%
%ADD11R,2.600000X2.600000*%
%TD*%
%TA.AperFunction,ComponentPad*%
%ADD12O,2.600000X2.600000*%
%TD*%
%TA.AperFunction,ComponentPad*%
%ADD13R,1.800000X1.800000*%
%TD*%
%TA.AperFunction,ComponentPad*%
%ADD14C,1.800000*%
%TD*%
%TA.AperFunction,ComponentPad*%
%ADD15R,1.700000X1.700000*%
%TD*%
%TA.AperFunction,ComponentPad*%
%ADD16O,1.700000X1.700000*%
%TD*%
%TA.AperFunction,ComponentPad*%
%ADD17C,2.600000*%
%TD*%
%TA.AperFunction,ComponentPad*%
%ADD18R,1.920000X1.920000*%
%TD*%
%TA.AperFunction,ComponentPad*%
%ADD19C,1.920000*%
%TD*%
%TA.AperFunction,ComponentPad*%
%ADD20R,1.050000X1.500000*%
%TD*%
%TA.AperFunction,ComponentPad*%
%ADD21O,1.050000X1.500000*%
%TD*%
%TA.AperFunction,ComponentPad*%
%ADD22R,1.150000X1.150000*%
%TD*%
%TA.AperFunction,ComponentPad*%
%ADD23C,1.150000*%
%TD*%
%TA.AperFunction,ComponentPad*%
%ADD24O,1.600000X1.600000*%
%TD*%
%TA.AperFunction,ComponentPad*%
%ADD25R,1.500000X1.050000*%
%TD*%
%TA.AperFunction,ComponentPad*%
%ADD26O,1.500000X1.050000*%
%TD*%
%TA.AperFunction,ComponentPad*%
%ADD27C,1.440000*%
%TD*%
%TA.AperFunction,ComponentPad*%
%ADD28R,2.200000X2.200000*%
%TD*%
%TA.AperFunction,ComponentPad*%
%ADD29O,2.200000X2.200000*%
%TD*%
%TA.AperFunction,ComponentPad*%
%ADD30R,1.500000X1.500000*%
%TD*%
%TA.AperFunction,ComponentPad*%
%ADD31C,1.500000*%
%TD*%
%TA.AperFunction,ComponentPad*%
%ADD32C,2.100000*%
%TD*%
%TA.AperFunction,ComponentPad*%
%ADD33R,1.130000X1.130000*%
%TD*%
%TA.AperFunction,ComponentPad*%
%ADD34C,1.130000*%
%TD*%
%TA.AperFunction,ViaPad*%
%ADD35C,0.800000*%
%TD*%
%TA.AperFunction,Conductor*%
%ADD36C,0.250000*%
%TD*%
%TA.AperFunction,Conductor*%
%ADD37C,0.508000*%
%TD*%
%TA.AperFunction,Conductor*%
%ADD38C,1.524000*%
%TD*%
%TA.AperFunction,Conductor*%
%ADD39C,1.016000*%
%TD*%
G04 APERTURE END LIST*
D10*
%TO.N,/Zone1IO/ZoneInput*%
%TO.C,C2*%
X89109000Y-69659700D03*
%TO.N,GND*%
X89109000Y-74659700D03*
%TD*%
%TO.N,/Zone2IO/ZoneInput*%
%TO.C,C3*%
X119449600Y-64825000D03*
%TO.N,GND*%
X119449600Y-69825000D03*
%TD*%
%TO.N,/Zone3IO/ZoneInput*%
%TO.C,C4*%
X151357900Y-66638300D03*
%TO.N,GND*%
X151357900Y-71638300D03*
%TD*%
D11*
%TO.N,/Zone1IO/ZoneOutput*%
%TO.C,D3*%
X83061000Y-85060000D03*
D12*
%TO.N,GND*%
X83061000Y-69820000D03*
%TD*%
D11*
%TO.N,/Zone2IO/ZoneOutput*%
%TO.C,D5*%
X113541000Y-85060000D03*
D12*
%TO.N,GND*%
X113541000Y-69820000D03*
%TD*%
D11*
%TO.N,/Zone4IO/ZoneOutput*%
%TO.C,D7*%
X174501000Y-85060000D03*
D12*
%TO.N,GND*%
X174501000Y-69820000D03*
%TD*%
D11*
%TO.N,/Zone3IO/ZoneOutput*%
%TO.C,D9*%
X144021000Y-85060000D03*
D12*
%TO.N,GND*%
X144021000Y-69820000D03*
%TD*%
D13*
%TO.N,Net-(D1-Pad1)*%
%TO.C,D1*%
X128872900Y-123268200D03*
D14*
%TO.N,D21*%
X126332900Y-123268200D03*
%TD*%
D15*
%TO.N,+3V3*%
%TO.C,J2*%
X66040000Y-120650000D03*
D16*
X66040000Y-123190000D03*
%TO.N,EN*%
X68580000Y-120650000D03*
X68580000Y-123190000D03*
%TO.N,D36*%
X71120000Y-120650000D03*
X71120000Y-123190000D03*
%TO.N,D39*%
X73660000Y-120650000D03*
X73660000Y-123190000D03*
%TO.N,D34*%
X76200000Y-120650000D03*
X76200000Y-123190000D03*
%TO.N,D35*%
X78740000Y-120650000D03*
X78740000Y-123190000D03*
%TO.N,D32*%
X81280000Y-120650000D03*
X81280000Y-123190000D03*
%TO.N,D33*%
X83820000Y-120650000D03*
X83820000Y-123190000D03*
%TO.N,D25*%
X86360000Y-120650000D03*
X86360000Y-123190000D03*
%TO.N,D26*%
X88900000Y-120650000D03*
X88900000Y-123190000D03*
%TO.N,D27*%
X91440000Y-120650000D03*
X91440000Y-123190000D03*
%TO.N,D14*%
X93980000Y-120650000D03*
X93980000Y-123190000D03*
%TO.N,D12*%
X96520000Y-120650000D03*
X96520000Y-123190000D03*
%TO.N,GND*%
X99060000Y-120650000D03*
X99060000Y-123190000D03*
%TO.N,unconnected-(J2-Pad29)*%
X101600000Y-120650000D03*
%TO.N,unconnected-(J2-Pad30)*%
X101600000Y-123190000D03*
%TO.N,unconnected-(J2-Pad31)*%
X104140000Y-120650000D03*
%TO.N,unconnected-(J2-Pad32)*%
X104140000Y-123190000D03*
%TO.N,unconnected-(J2-Pad33)*%
X106680000Y-120650000D03*
%TO.N,unconnected-(J2-Pad34)*%
X106680000Y-123190000D03*
%TO.N,unconnected-(J2-Pad35)*%
X109220000Y-120650000D03*
%TO.N,unconnected-(J2-Pad36)*%
X109220000Y-123190000D03*
%TO.N,+5V*%
X111760000Y-120650000D03*
X111760000Y-123190000D03*
%TD*%
D15*
%TO.N,GND*%
%TO.C,J3*%
X66040000Y-97790000D03*
D16*
%TO.N,D23*%
X68580000Y-97790000D03*
%TO.N,D22*%
X71120000Y-97790000D03*
%TO.N,TX*%
X73660000Y-97790000D03*
%TO.N,RX*%
X76200000Y-97790000D03*
%TO.N,D21*%
X78740000Y-97790000D03*
%TO.N,GND*%
X81280000Y-97790000D03*
%TO.N,D19*%
X83820000Y-97790000D03*
%TO.N,D18*%
X86360000Y-97790000D03*
%TO.N,D5*%
X88900000Y-97790000D03*
%TO.N,D17*%
X91440000Y-97790000D03*
%TO.N,D16*%
X93980000Y-97790000D03*
%TO.N,D4*%
X96520000Y-97790000D03*
%TO.N,D0*%
X99060000Y-97790000D03*
%TO.N,D2*%
X101600000Y-97790000D03*
%TO.N,D15*%
X104140000Y-97790000D03*
%TO.N,/SD1*%
X106680000Y-97790000D03*
%TO.N,/SDD*%
X109220000Y-97790000D03*
%TO.N,/CLK*%
X111760000Y-97790000D03*
%TD*%
D11*
%TO.N,Net-(P1-Pad1)*%
%TO.C,P1*%
X178125700Y-96457800D03*
D17*
%TO.N,GND*%
X178125700Y-91377800D03*
%TD*%
D18*
%TO.N,Net-(Q3-Pad1)*%
%TO.C,Q3*%
X71689700Y-82379600D03*
D19*
%TO.N,/Zone1IO/ZoneOutput*%
X69149700Y-82379600D03*
%TO.N,+VDC*%
X66609700Y-82379600D03*
%TD*%
D18*
%TO.N,Net-(Q6-Pad1)*%
%TO.C,Q6*%
X101108600Y-82267600D03*
D19*
%TO.N,/Zone2IO/ZoneOutput*%
X98568600Y-82267600D03*
%TO.N,+VDC*%
X96028600Y-82267600D03*
%TD*%
D20*
%TO.N,GND*%
%TO.C,Q7*%
X93346300Y-104626700D03*
D21*
%TO.N,/Zone3IO/ZoneInput*%
X94616300Y-104626700D03*
%TO.N,Net-(D6-Pad1)*%
X95886300Y-104626700D03*
%TD*%
D18*
%TO.N,Net-(Q9-Pad1)*%
%TO.C,Q9*%
X131085700Y-82267600D03*
D19*
%TO.N,/Zone3IO/ZoneOutput*%
X128545700Y-82267600D03*
%TO.N,+VDC*%
X126005700Y-82267600D03*
%TD*%
D18*
%TO.N,Net-(Q12-Pad1)*%
%TO.C,Q12*%
X162229200Y-82267600D03*
D19*
%TO.N,/Zone4IO/ZoneOutput*%
X159689200Y-82267600D03*
%TO.N,+VDC*%
X157149200Y-82267600D03*
%TD*%
D18*
%TO.N,Net-(Q13-Pad1)*%
%TO.C,Q13*%
X174341600Y-105164100D03*
D19*
%TO.N,Net-(P1-Pad1)*%
X176881600Y-105164100D03*
%TO.N,Net-(Q13-Pad3)*%
X179421600Y-105164100D03*
%TD*%
D11*
%TO.N,/Zone2IO/ZoneInput*%
%TO.C,Z2*%
X106556000Y-71090000D03*
D17*
%TO.N,/Zone2IO/ZoneOutput*%
X101476000Y-71090000D03*
%TO.N,GND*%
X96396000Y-71090000D03*
%TD*%
D11*
%TO.N,/Zone3IO/ZoneInput*%
%TO.C,Z3*%
X137036000Y-71090000D03*
D17*
%TO.N,/Zone3IO/ZoneOutput*%
X131956000Y-71090000D03*
%TO.N,GND*%
X126876000Y-71090000D03*
%TD*%
D11*
%TO.N,/Zone4IO/ZoneInput*%
%TO.C,Z4*%
X167516000Y-71090000D03*
D17*
%TO.N,/Zone4IO/ZoneOutput*%
X162436000Y-71090000D03*
%TO.N,GND*%
X157356000Y-71090000D03*
%TD*%
D11*
%TO.N,/Zone1IO/ZoneInput*%
%TO.C,Z1*%
X76076000Y-71090000D03*
D17*
%TO.N,/Zone1IO/ZoneOutput*%
X70996000Y-71090000D03*
%TO.N,GND*%
X65916000Y-71090000D03*
%TD*%
D15*
%TO.N,+VDC*%
%TO.C,J1*%
X170349000Y-121042300D03*
D16*
%TO.N,D39*%
X170349000Y-123582300D03*
%TO.N,+VDC*%
X167809000Y-121042300D03*
%TO.N,AuxVoltage*%
X167809000Y-123582300D03*
%TO.N,+VDC*%
X165269000Y-121042300D03*
%TO.N,D23*%
X165269000Y-123582300D03*
%TO.N,+VDC*%
X162729000Y-121042300D03*
%TO.N,D19*%
X162729000Y-123582300D03*
%TO.N,+VDC*%
X160189000Y-121042300D03*
%TO.N,D18*%
X160189000Y-123582300D03*
%TO.N,+3V3*%
X157649000Y-121042300D03*
%TO.N,D5*%
X157649000Y-123582300D03*
%TO.N,+5V*%
X155109000Y-121042300D03*
%TO.N,D35*%
X155109000Y-123582300D03*
%TO.N,+5V*%
X152569000Y-121042300D03*
%TO.N,D32*%
X152569000Y-123582300D03*
%TO.N,GND*%
X150029000Y-121042300D03*
%TO.N,D33*%
X150029000Y-123582300D03*
%TO.N,GND*%
X147489000Y-121042300D03*
%TO.N,D25*%
X147489000Y-123582300D03*
%TO.N,GND*%
X144949000Y-121042300D03*
%TO.N,D21*%
X144949000Y-123582300D03*
%TO.N,GND*%
X142409000Y-121042300D03*
%TO.N,D4*%
X142409000Y-123582300D03*
%TO.N,GND*%
X139869000Y-121042300D03*
%TO.N,D0*%
X139869000Y-123582300D03*
%TO.N,GND*%
X137329000Y-121042300D03*
%TO.N,TX*%
X137329000Y-123582300D03*
%TO.N,GND*%
X134789000Y-121042300D03*
%TO.N,RX*%
X134789000Y-123582300D03*
%TD*%
D22*
%TO.N,+VDC*%
%TO.C,Z5*%
X64792500Y-87395400D03*
D23*
%TO.N,Net-(Q3-Pad1)*%
X75492500Y-87395400D03*
%TD*%
D22*
%TO.N,+VDC*%
%TO.C,Z6*%
X95418500Y-87436000D03*
D23*
%TO.N,Net-(Q6-Pad1)*%
X106118500Y-87436000D03*
%TD*%
D22*
%TO.N,+VDC*%
%TO.C,Z8*%
X156564300Y-87104200D03*
D23*
%TO.N,Net-(Q12-Pad1)*%
X167264300Y-87104200D03*
%TD*%
D20*
%TO.N,GND*%
%TO.C,Q4*%
X87748400Y-104639800D03*
D21*
%TO.N,/Zone2IO/ZoneInput*%
X89018400Y-104639800D03*
%TO.N,Net-(D4-Pad1)*%
X90288400Y-104639800D03*
%TD*%
D10*
%TO.N,+VDC*%
%TO.C,R23*%
X75572300Y-105627200D03*
D24*
%TO.N,Net-(IC3-Pad3)*%
X73032300Y-105627200D03*
%TD*%
D10*
%TO.N,+3V3*%
%TO.C,R31*%
X88097100Y-113124500D03*
D24*
%TO.N,D27*%
X88097100Y-115664500D03*
%TD*%
D10*
%TO.N,Net-(Q9-Pad1)*%
%TO.C,R16*%
X131777400Y-90385900D03*
D24*
%TO.N,Net-(Q8-Pad3)*%
X134317400Y-90385900D03*
%TD*%
D25*
%TO.N,GND*%
%TO.C,Q2*%
X77074800Y-81816600D03*
D26*
%TO.N,D17*%
X77074800Y-83086600D03*
%TO.N,Net-(Q2-Pad3)*%
X77074800Y-84356600D03*
%TD*%
D10*
%TO.N,Net-(IC3-Pad3)*%
%TO.C,R24*%
X73376700Y-108765100D03*
D24*
%TO.N,GND*%
X75916700Y-108765100D03*
%TD*%
D10*
%TO.N,/Zone1IO/ZoneInput*%
%TO.C,R5*%
X88483500Y-79968900D03*
D24*
%TO.N,GND*%
X91023500Y-79968900D03*
%TD*%
D27*
%TO.N,AuxVoltage*%
%TO.C,RV1*%
X150637800Y-101920600D03*
%TO.N,Net-(IC3-Pad5)*%
X153177800Y-101920600D03*
%TO.N,GND*%
X155717800Y-101920600D03*
%TD*%
D15*
%TO.N,AuxVoltage*%
%TO.C,J4*%
X155955000Y-96632400D03*
%TD*%
D10*
%TO.N,+VDC*%
%TO.C,R15*%
X126614500Y-90392400D03*
D24*
%TO.N,Net-(Q9-Pad1)*%
X129154500Y-90392400D03*
%TD*%
D10*
%TO.N,/Zone4IO/ZoneInput*%
%TO.C,R17*%
X179213800Y-74015100D03*
D24*
%TO.N,GND*%
X179213800Y-76555100D03*
%TD*%
D15*
%TO.N,+VDC*%
%TO.C,J5*%
X59207667Y-91310174D03*
D16*
%TO.N,+3V3*%
X59207667Y-88770174D03*
%TO.N,+5V*%
X59207667Y-86230174D03*
%TO.N,GND*%
X59207667Y-83690174D03*
%TD*%
D10*
%TO.N,Net-(D1-Pad1)*%
%TO.C,R4*%
X105516500Y-115956200D03*
D24*
%TO.N,GND*%
X102976500Y-115956200D03*
%TD*%
D10*
%TO.N,D2*%
%TO.C,R18*%
X179350700Y-81833100D03*
D24*
%TO.N,GND*%
X181890700Y-81833100D03*
%TD*%
D10*
%TO.N,+3V3*%
%TO.C,R29*%
X140604000Y-113952700D03*
D24*
%TO.N,Net-(IC4-Pad1)*%
X138064000Y-113952700D03*
%TD*%
D10*
%TO.N,D36*%
%TO.C,R25*%
X75859900Y-114068500D03*
D24*
%TO.N,GND*%
X75859900Y-111528500D03*
%TD*%
D10*
%TO.N,+3V3*%
%TO.C,R33*%
X97677800Y-113124500D03*
D24*
%TO.N,D12*%
X97677800Y-115664500D03*
%TD*%
D10*
%TO.N,D15*%
%TO.C,R14*%
X136973400Y-90405200D03*
D24*
%TO.N,GND*%
X139513400Y-90405200D03*
%TD*%
D25*
%TO.N,GND*%
%TO.C,Q11*%
X167687500Y-81543000D03*
D26*
%TO.N,D2*%
X167687500Y-82813000D03*
%TO.N,Net-(Q11-Pad3)*%
X167687500Y-84083000D03*
%TD*%
D10*
%TO.N,+3V3*%
%TO.C,R27*%
X140604000Y-104374000D03*
D24*
%TO.N,Net-(IC4-Pad5)*%
X138064000Y-104374000D03*
%TD*%
D28*
%TO.N,Net-(D4-Pad1)*%
%TO.C,D4*%
X111225100Y-112149400D03*
D29*
%TO.N,/InputIsolation/2in*%
X121385100Y-112149400D03*
%TD*%
D28*
%TO.N,Net-(D2-Pad1)*%
%TO.C,D2*%
X111172700Y-117020300D03*
D29*
%TO.N,/InputIsolation/1in*%
X121332700Y-117020300D03*
%TD*%
D30*
%TO.N,unconnected-(S1-Pad1)*%
%TO.C,S1*%
X115616200Y-120523800D03*
D31*
%TO.N,+3V3*%
X122116200Y-120523800D03*
%TO.N,unconnected-(S1-Pad3)*%
X115616200Y-125023800D03*
%TO.N,D22*%
X122116200Y-125023800D03*
%TD*%
D10*
%TO.N,/Zone2IO/ZoneInput*%
%TO.C,R9*%
X118458200Y-74373700D03*
D24*
%TO.N,GND*%
X120998200Y-74373700D03*
%TD*%
D10*
%TO.N,/Zone3IO/ZoneInput*%
%TO.C,R13*%
X149787000Y-76942800D03*
D24*
%TO.N,GND*%
X152327000Y-76942800D03*
%TD*%
D10*
%TO.N,D17*%
%TO.C,R6*%
X77976900Y-90313600D03*
D24*
%TO.N,GND*%
X80516900Y-90313600D03*
%TD*%
D10*
%TO.N,+VDC*%
%TO.C,R11*%
X97428100Y-90313600D03*
D24*
%TO.N,Net-(Q6-Pad1)*%
X99968100Y-90313600D03*
%TD*%
D10*
%TO.N,+VDC*%
%TO.C,R7*%
X67592100Y-90313600D03*
D24*
%TO.N,Net-(Q3-Pad1)*%
X70132100Y-90313600D03*
%TD*%
D32*
%TO.N,+VDC*%
%TO.C,U2*%
X164978400Y-112300500D03*
X168478400Y-112300500D03*
%TO.N,Net-(Q13-Pad3)*%
X174278400Y-112300500D03*
X177778400Y-112300500D03*
X177778400Y-109800500D03*
X174278400Y-109800500D03*
%TO.N,+VDC*%
X168478400Y-109800500D03*
X164978400Y-109800500D03*
%TD*%
D20*
%TO.N,GND*%
%TO.C,Q10*%
X98978100Y-104626700D03*
D21*
%TO.N,/Zone4IO/ZoneInput*%
X100248100Y-104626700D03*
%TO.N,Net-(D8-Pad1)*%
X101518100Y-104626700D03*
%TD*%
D28*
%TO.N,Net-(D8-Pad1)*%
%TO.C,D8*%
X111225100Y-102330700D03*
D29*
%TO.N,/InputIsolation/4in*%
X121385100Y-102330700D03*
%TD*%
D33*
%TO.N,D36*%
%TO.C,IC3*%
X70520600Y-114579500D03*
D34*
X70520600Y-112039500D03*
%TO.N,Net-(IC3-Pad3)*%
X70520600Y-109499500D03*
%TO.N,GND*%
X70520600Y-106959500D03*
%TO.N,Net-(IC3-Pad5)*%
X62580600Y-106959500D03*
%TO.N,D34*%
X62580600Y-109499500D03*
X62580600Y-112039500D03*
%TO.N,+3V3*%
X62580600Y-114579500D03*
%TD*%
D20*
%TO.N,GND*%
%TO.C,Q1*%
X82152400Y-104644400D03*
D21*
%TO.N,/Zone1IO/ZoneInput*%
X83422400Y-104644400D03*
%TO.N,Net-(D2-Pad1)*%
X84692400Y-104644400D03*
%TD*%
D10*
%TO.N,+3V3*%
%TO.C,R26*%
X140604000Y-99584700D03*
D24*
%TO.N,Net-(IC4-Pad7)*%
X138064000Y-99584700D03*
%TD*%
D10*
%TO.N,Net-(Q3-Pad1)*%
%TO.C,R8*%
X72798600Y-90313600D03*
D24*
%TO.N,Net-(Q2-Pad3)*%
X75338600Y-90313600D03*
%TD*%
D25*
%TO.N,GND*%
%TO.C,Q8*%
X137542600Y-81822900D03*
D26*
%TO.N,D15*%
X137542600Y-83092900D03*
%TO.N,Net-(Q8-Pad3)*%
X137542600Y-84362900D03*
%TD*%
D25*
%TO.N,GND*%
%TO.C,Q5*%
X106673400Y-81749200D03*
D26*
%TO.N,D16*%
X106673400Y-83019200D03*
%TO.N,Net-(Q5-Pad3)*%
X106673400Y-84289200D03*
%TD*%
D10*
%TO.N,/Zone4IO/ZoneInput*%
%TO.C,C5*%
X151310400Y-84874400D03*
%TO.N,GND*%
X151310400Y-79874400D03*
%TD*%
%TO.N,Net-(Q13-Pad1)*%
%TO.C,R21*%
X167425100Y-105167700D03*
D24*
%TO.N,GND*%
X169965100Y-105167700D03*
%TD*%
D10*
%TO.N,D22*%
%TO.C,R3*%
X105650100Y-111109900D03*
D24*
%TO.N,GND*%
X103110100Y-111109900D03*
%TD*%
D10*
%TO.N,+3V3*%
%TO.C,R30*%
X83306700Y-113124500D03*
D24*
%TO.N,D26*%
X83306700Y-115664500D03*
%TD*%
D10*
%TO.N,Net-(Q6-Pad1)*%
%TO.C,R12*%
X102602700Y-90291400D03*
D24*
%TO.N,Net-(Q5-Pad3)*%
X105142700Y-90291400D03*
%TD*%
D10*
%TO.N,+3V3*%
%TO.C,R28*%
X140604000Y-109163400D03*
D24*
%TO.N,Net-(IC4-Pad3)*%
X138064000Y-109163400D03*
%TD*%
D10*
%TO.N,Net-(Q12-Pad1)*%
%TO.C,R20*%
X160459300Y-89971000D03*
D24*
%TO.N,Net-(Q11-Pad3)*%
X162999300Y-89971000D03*
%TD*%
D10*
%TO.N,+VDC*%
%TO.C,R19*%
X155096800Y-90020800D03*
D24*
%TO.N,Net-(Q12-Pad1)*%
X157636800Y-90020800D03*
%TD*%
D10*
%TO.N,D16*%
%TO.C,R10*%
X107804100Y-90285900D03*
D24*
%TO.N,GND*%
X110344100Y-90285900D03*
%TD*%
D28*
%TO.N,Net-(D6-Pad1)*%
%TO.C,D6*%
X111225100Y-107240100D03*
D29*
%TO.N,/InputIsolation/3in*%
X121385100Y-107240100D03*
%TD*%
D10*
%TO.N,+3V3*%
%TO.C,R32*%
X92887500Y-113124500D03*
D24*
%TO.N,D14*%
X92887500Y-115664500D03*
%TD*%
D22*
%TO.N,+VDC*%
%TO.C,Z7*%
X124968600Y-87436000D03*
D23*
%TO.N,Net-(Q9-Pad1)*%
X135668600Y-87436000D03*
%TD*%
D10*
%TO.N,D34*%
%TO.C,R34*%
X57889400Y-114568900D03*
D24*
%TO.N,GND*%
X60429400Y-114568900D03*
%TD*%
D35*
%TO.N,GND*%
X79744100Y-104644400D03*
X110681200Y-85364200D03*
X129949101Y-112732075D03*
X175397800Y-94105800D03*
%TO.N,+VDC*%
X67496700Y-96478900D03*
%TO.N,/InputIsolation/1in*%
X136217200Y-112539200D03*
%TO.N,/InputIsolation/2in*%
X132683200Y-106687700D03*
%TO.N,/InputIsolation/3in*%
X132792400Y-102309000D03*
%TO.N,/InputIsolation/4in*%
X127684800Y-97245100D03*
%TO.N,D21*%
X105595100Y-117698700D03*
%TO.N,Net-(IC4-Pad5)*%
X132828500Y-105687000D03*
%TO.N,Net-(IC4-Pad7)*%
X133129500Y-101084200D03*
%TO.N,D12*%
X127684800Y-101345000D03*
X101599700Y-111728700D03*
%TO.N,D14*%
X121803600Y-104507700D03*
X107503900Y-111581200D03*
%TO.N,D27*%
X116977200Y-110723400D03*
X120811300Y-110343900D03*
%TO.N,D26*%
X123198100Y-113969800D03*
X99940100Y-111709300D03*
%TO.N,D19*%
X84223800Y-93560200D03*
X132837400Y-93560200D03*
%TO.N,D5*%
X131766700Y-95343700D03*
%TO.N,D32*%
X118155200Y-124237800D03*
%TO.N,D4*%
X132446600Y-99415700D03*
X135118800Y-117429700D03*
%TO.N,D0*%
X99131700Y-100864500D03*
%TO.N,Net-(IC3-Pad5)*%
X83483000Y-92763400D03*
X134152800Y-92951000D03*
%TD*%
D36*
%TO.N,GND*%
X87748400Y-104639800D02*
X87748400Y-105715100D01*
X87743800Y-105719700D02*
X87748400Y-105715100D01*
X82152400Y-104644400D02*
X82152400Y-105719700D01*
X82152400Y-104644400D02*
X79744100Y-104644400D01*
X92496000Y-104626700D02*
X91407600Y-105715100D01*
X93346300Y-104626700D02*
X92496000Y-104626700D01*
D37*
X169965000Y-102353200D02*
X169965000Y-99538400D01*
X169965000Y-105168000D02*
X169965000Y-102353200D01*
D36*
X82152400Y-105719700D02*
X87743800Y-105719700D01*
X169965000Y-102353200D02*
X169965100Y-102353300D01*
X91407600Y-105715100D02*
X87748400Y-105715100D01*
D37*
X169965000Y-99538400D02*
X175397800Y-94105800D01*
X175397800Y-94105800D02*
X178126000Y-91377800D01*
D36*
X169965100Y-102353300D02*
X169965100Y-105167700D01*
D38*
%TO.N,/Zone1IO/ZoneOutput*%
X69841600Y-80330100D02*
X78331100Y-80330100D01*
X78331100Y-80330100D02*
X83061000Y-85060000D01*
X69149700Y-82379600D02*
X69149700Y-81021900D01*
X69149700Y-81021900D02*
X69841600Y-80330100D01*
%TO.N,/Zone2IO/ZoneOutput*%
X108744000Y-80262700D02*
X113541000Y-85060000D01*
X98568600Y-80964600D02*
X99270500Y-80262700D01*
X98568600Y-82267600D02*
X98568600Y-80964600D01*
X99270500Y-80262700D02*
X108744000Y-80262700D01*
%TO.N,/Zone4IO/ZoneOutput*%
X159689000Y-80909900D02*
X160543000Y-80056500D01*
X160543000Y-80056500D02*
X169497000Y-80056500D01*
X159689000Y-81737500D02*
X159689000Y-80909900D01*
X169497000Y-80056500D02*
X174501000Y-85060000D01*
D36*
X159689000Y-81737500D02*
X159689200Y-81737700D01*
D38*
X159689000Y-82267600D02*
X159689000Y-81737500D01*
D36*
X159689200Y-81737700D02*
X159689200Y-82267600D01*
D38*
%TO.N,/Zone3IO/ZoneOutput*%
X139297000Y-80336400D02*
X144021000Y-85060000D01*
D36*
X128545700Y-81737800D02*
X128545700Y-82267600D01*
D38*
X129119000Y-80336400D02*
X139297000Y-80336400D01*
X128546000Y-80909900D02*
X129119000Y-80336400D01*
X128546000Y-82267600D02*
X128546000Y-81737500D01*
D36*
X128546000Y-81737500D02*
X128545700Y-81737800D01*
D38*
X128546000Y-81737500D02*
X128546000Y-80909900D01*
D36*
%TO.N,D39*%
X73660000Y-123190000D02*
X74835300Y-123190000D01*
X166542300Y-126581000D02*
X77859000Y-126581000D01*
X170349000Y-123582300D02*
X169173700Y-123582300D01*
X77859000Y-126581000D02*
X74835300Y-123557300D01*
X74835300Y-123557300D02*
X74835300Y-123190000D01*
X169173700Y-123949600D02*
X166542300Y-126581000D01*
X169173700Y-123582300D02*
X169173700Y-123949600D01*
%TO.N,D21*%
X142510400Y-125212900D02*
X128277600Y-125212900D01*
X144949000Y-123582300D02*
X143773700Y-123582300D01*
X108044600Y-120148200D02*
X108044600Y-121144900D01*
X143773700Y-123582300D02*
X143773700Y-123949600D01*
X108044600Y-121144900D02*
X108819700Y-121920000D01*
X124984700Y-121920000D02*
X126332900Y-123268200D01*
X108819700Y-121920000D02*
X124984700Y-121920000D01*
X128277600Y-125212900D02*
X126332900Y-123268200D01*
X105595100Y-117698700D02*
X108044600Y-120148200D01*
X143773700Y-123949600D02*
X142510400Y-125212900D01*
%TO.N,/Zone2IO/ZoneInput*%
X108181300Y-71090000D02*
X111465000Y-74373700D01*
X106556000Y-71090000D02*
X108181300Y-71090000D01*
X111465000Y-74373700D02*
X118458200Y-74373700D01*
%TO.N,/Zone4IO/ZoneInput*%
X179213800Y-74015100D02*
X172066400Y-74015100D01*
X172066400Y-74015100D02*
X169141300Y-71090000D01*
X167516000Y-71090000D02*
X169141300Y-71090000D01*
%TO.N,D22*%
X82118200Y-116069100D02*
X82118200Y-110706200D01*
X92710000Y-120223000D02*
X89331800Y-116844800D01*
X120575100Y-123482700D02*
X114786700Y-123482700D01*
X92710000Y-121081000D02*
X92710000Y-120223000D01*
X93454400Y-121825400D02*
X92710000Y-121081000D01*
X72295300Y-97790000D02*
X72295300Y-98921900D01*
X82118200Y-110706200D02*
X83098900Y-109725500D01*
X113897800Y-124371600D02*
X106135800Y-124371600D01*
X105315400Y-122633600D02*
X104507200Y-121825400D01*
X72295300Y-98921900D02*
X83098900Y-109725500D01*
X114786700Y-123482700D02*
X113897800Y-124371600D01*
X82893900Y-116844800D02*
X82118200Y-116069100D01*
X105315400Y-123551200D02*
X105315400Y-122633600D01*
X106135800Y-124371600D02*
X105315400Y-123551200D01*
X122116200Y-125023800D02*
X120575100Y-123482700D01*
X104265700Y-109725500D02*
X105650100Y-111109900D01*
X89331800Y-116844800D02*
X82893900Y-116844800D01*
X71120000Y-97790000D02*
X72295300Y-97790000D01*
X104507200Y-121825400D02*
X93454400Y-121825400D01*
X83098900Y-109725500D02*
X104265700Y-109725500D01*
%TO.N,D36*%
X75348900Y-114579500D02*
X75859900Y-114068500D01*
X70520600Y-114579500D02*
X75348900Y-114579500D01*
%TO.N,Net-(IC3-Pad3)*%
X70520600Y-109499500D02*
X72642300Y-109499500D01*
X72642300Y-109499500D02*
X73376700Y-108765100D01*
%TO.N,Net-(IC4-Pad5)*%
X132828500Y-105687000D02*
X135625700Y-105687000D01*
X135625700Y-105687000D02*
X136938700Y-104374000D01*
X138064000Y-104374000D02*
X136938700Y-104374000D01*
%TO.N,Net-(IC4-Pad7)*%
X135439200Y-101084200D02*
X133129500Y-101084200D01*
X138064000Y-99584700D02*
X136938700Y-99584700D01*
X136938700Y-99584700D02*
X135439200Y-101084200D01*
%TO.N,D12*%
X98789200Y-114539200D02*
X101599700Y-111728700D01*
X97677800Y-115664500D02*
X97677800Y-114539200D01*
X97677800Y-114539200D02*
X98789200Y-114539200D01*
%TO.N,D14*%
X103083600Y-112991200D02*
X106093900Y-112991200D01*
X93980000Y-120650000D02*
X95155300Y-120650000D01*
X98747400Y-117327400D02*
X103083600Y-112991200D01*
X95155300Y-120650000D02*
X95155300Y-120282600D01*
X95155300Y-120282600D02*
X98110500Y-117327400D01*
X98110500Y-117327400D02*
X98747400Y-117327400D01*
X106093900Y-112991200D02*
X107503900Y-111581200D01*
%TO.N,D27*%
X116977200Y-110723400D02*
X107335900Y-110723400D01*
X98155400Y-116789800D02*
X90347700Y-116789800D01*
X106778500Y-111669700D02*
X106212900Y-112235300D01*
X107335900Y-110723400D02*
X106778500Y-111280800D01*
X90347700Y-116789800D02*
X89222400Y-115664500D01*
X106212900Y-112235300D02*
X102709900Y-112235300D01*
X88097100Y-115664500D02*
X89222400Y-115664500D01*
X102709900Y-112235300D02*
X98155400Y-116789800D01*
X106778500Y-111280800D02*
X106778500Y-111669700D01*
%TO.N,D26*%
X84432000Y-115664500D02*
X84432000Y-115101900D01*
X84432000Y-115101900D02*
X87824600Y-111709300D01*
X83306700Y-115664500D02*
X84432000Y-115664500D01*
X87824600Y-111709300D02*
X99940100Y-111709300D01*
%TO.N,D23*%
X123077800Y-99866000D02*
X133679900Y-110468100D01*
X87630000Y-97381900D02*
X87630000Y-98230800D01*
X99758900Y-99508900D02*
X100116000Y-99866000D01*
X69755300Y-97790000D02*
X69755300Y-97422600D01*
X86862800Y-96614700D02*
X87630000Y-97381900D01*
X87630000Y-98230800D02*
X88908100Y-99508900D01*
X133679900Y-110468100D02*
X153836100Y-110468100D01*
X70563200Y-96614700D02*
X86862800Y-96614700D01*
X165269000Y-123582300D02*
X165269000Y-122407000D01*
X164093700Y-121599100D02*
X164901600Y-122407000D01*
X153836100Y-110468100D02*
X164093700Y-120725700D01*
X100116000Y-99866000D02*
X123077800Y-99866000D01*
X69755300Y-97422600D02*
X70563200Y-96614700D01*
X88908100Y-99508900D02*
X99758900Y-99508900D01*
X164901600Y-122407000D02*
X165269000Y-122407000D01*
X68580000Y-97790000D02*
X69755300Y-97790000D01*
X164093700Y-120725700D02*
X164093700Y-121599100D01*
%TO.N,D19*%
X132837400Y-93560200D02*
X84223800Y-93560200D01*
%TO.N,D18*%
X159013700Y-120724800D02*
X159013700Y-121599100D01*
X149366300Y-111077400D02*
X159013700Y-120724800D01*
X86360000Y-97790000D02*
X88569000Y-99999000D01*
X88569000Y-99999000D02*
X99612100Y-99999000D01*
X99929400Y-100316300D02*
X116586500Y-100316300D01*
X159821600Y-122407000D02*
X160189000Y-122407000D01*
X159013700Y-121599100D02*
X159821600Y-122407000D01*
X160189000Y-123582300D02*
X160189000Y-122407000D01*
X127347600Y-111077400D02*
X149366300Y-111077400D01*
X116586500Y-100316300D02*
X127347600Y-111077400D01*
X99612100Y-99999000D02*
X99929400Y-100316300D01*
%TO.N,D5*%
X97260300Y-95343700D02*
X131766700Y-95343700D01*
X94505000Y-98965300D02*
X95250000Y-98220300D01*
X95250000Y-97354000D02*
X97260300Y-95343700D01*
X88900000Y-97790000D02*
X90075300Y-98965300D01*
X95250000Y-98220300D02*
X95250000Y-97354000D01*
X90075300Y-98965300D02*
X94505000Y-98965300D01*
%TO.N,Net-(D1-Pad1)*%
X127647600Y-123268200D02*
X127647600Y-122808700D01*
X127647600Y-122808700D02*
X123551300Y-118712400D01*
X108272700Y-118712400D02*
X105516500Y-115956200D01*
X128872900Y-123268200D02*
X127647600Y-123268200D01*
X123551300Y-118712400D02*
X108272700Y-118712400D01*
%TO.N,D35*%
X153933700Y-123582300D02*
X153933700Y-123949600D01*
X151783000Y-126100300D02*
X82458300Y-126100300D01*
X153933700Y-123949600D02*
X151783000Y-126100300D01*
X82458300Y-126100300D02*
X79915300Y-123557300D01*
X79915300Y-123557300D02*
X79915300Y-123190000D01*
X78740000Y-123190000D02*
X79915300Y-123190000D01*
X155109000Y-123582300D02*
X153933700Y-123582300D01*
%TO.N,D32*%
X83736800Y-124838800D02*
X82455300Y-123557300D01*
X117850400Y-123933000D02*
X115178900Y-123933000D01*
X82455300Y-123557300D02*
X82455300Y-123190000D01*
X118155200Y-124237800D02*
X117850400Y-123933000D01*
X114273100Y-124838800D02*
X83736800Y-124838800D01*
X115178900Y-123933000D02*
X114273100Y-124838800D01*
X81280000Y-123190000D02*
X82455300Y-123190000D01*
%TO.N,D4*%
X142409000Y-122407000D02*
X142041600Y-122407000D01*
X100077200Y-98965300D02*
X100527600Y-99415700D01*
X142041600Y-122407000D02*
X141233700Y-121599100D01*
X137931800Y-117429700D02*
X135118800Y-117429700D01*
X96520000Y-97790000D02*
X97695300Y-97790000D01*
X142409000Y-123582300D02*
X142409000Y-122407000D01*
X100527600Y-99415700D02*
X132446600Y-99415700D01*
X98503200Y-98965300D02*
X100077200Y-98965300D01*
X97695300Y-97790000D02*
X97695300Y-98157400D01*
X97695300Y-98157400D02*
X98503200Y-98965300D01*
X141233700Y-120731600D02*
X137931800Y-117429700D01*
X141233700Y-121599100D02*
X141233700Y-120731600D01*
%TO.N,D0*%
X138693700Y-123214900D02*
X137885800Y-122407000D01*
X136059000Y-121436500D02*
X136059000Y-120650000D01*
X136059000Y-120650000D02*
X124577300Y-109168300D01*
X137885800Y-122407000D02*
X137029500Y-122407000D01*
X137029500Y-122407000D02*
X136059000Y-121436500D01*
X124577300Y-109168300D02*
X121288000Y-109168300D01*
X138693700Y-123582300D02*
X138693700Y-123214900D01*
X139869000Y-123582300D02*
X138693700Y-123582300D01*
X121288000Y-109168300D02*
X112984200Y-100864500D01*
X112984200Y-100864500D02*
X99131700Y-100864500D01*
%TO.N,TX*%
X136153700Y-123949700D02*
X136153700Y-123582300D01*
X73660000Y-97790000D02*
X73660000Y-98965300D01*
X128797000Y-121592500D02*
X130305500Y-121592500D01*
X117961400Y-110756900D02*
X128797000Y-121592500D01*
X73660000Y-99649700D02*
X83094200Y-109083900D01*
X133470600Y-124757600D02*
X135345800Y-124757600D01*
X116363500Y-109083900D02*
X117961400Y-110681800D01*
X117961400Y-110681800D02*
X117961400Y-110756900D01*
X73660000Y-98965300D02*
X73660000Y-99649700D01*
X130305500Y-121592500D02*
X133470600Y-124757600D01*
X135345800Y-124757600D02*
X136153700Y-123949700D01*
X83094200Y-109083900D02*
X116363500Y-109083900D01*
X137329000Y-123582300D02*
X136153700Y-123582300D01*
%TO.N,RX*%
X93696500Y-101000500D02*
X80218500Y-101000500D01*
X97571800Y-104964200D02*
X97571800Y-104875800D01*
X97571800Y-104875800D02*
X93696500Y-101000500D01*
X80218500Y-101000500D02*
X77375300Y-98157300D01*
X120940600Y-109618600D02*
X117041500Y-105719500D01*
X98327100Y-105719500D02*
X97571800Y-104964200D01*
X134789000Y-122407000D02*
X133900200Y-122407000D01*
X117041500Y-105719500D02*
X98327100Y-105719500D01*
X134789000Y-123582300D02*
X134789000Y-122407000D01*
X77375300Y-98157300D02*
X77375300Y-97790000D01*
X76200000Y-97790000D02*
X77375300Y-97790000D01*
X133900200Y-122407000D02*
X121111800Y-109618600D01*
X121111800Y-109618600D02*
X120940600Y-109618600D01*
%TO.N,D34*%
X62795200Y-119474700D02*
X74216800Y-119474700D01*
X76200000Y-120650000D02*
X75024700Y-120650000D01*
X57889400Y-114568900D02*
X62795200Y-119474700D01*
X74216800Y-119474700D02*
X75024700Y-120282600D01*
X75024700Y-120282600D02*
X75024700Y-120650000D01*
%TO.N,D17*%
X77976900Y-90313600D02*
X82326200Y-94662900D01*
X90264700Y-97422700D02*
X90264700Y-97790000D01*
X82326200Y-94662900D02*
X87504900Y-94662900D01*
X91440000Y-97790000D02*
X90264700Y-97790000D01*
X87504900Y-94662900D02*
X90264700Y-97422700D01*
%TO.N,D2*%
X166612200Y-82813000D02*
X166612200Y-84436400D01*
X166612200Y-84436400D02*
X168174900Y-85999100D01*
X102775300Y-98157400D02*
X102775300Y-97790000D01*
X103583200Y-98965300D02*
X102775300Y-98157400D01*
X167687500Y-82813000D02*
X166612200Y-82813000D01*
X168174900Y-85999100D02*
X168174900Y-87529200D01*
X134768400Y-95151400D02*
X130954500Y-98965300D01*
X160552700Y-95151400D02*
X134768400Y-95151400D01*
X168174900Y-87529200D02*
X160552700Y-95151400D01*
X130954500Y-98965300D02*
X103583200Y-98965300D01*
X101600000Y-97790000D02*
X102775300Y-97790000D01*
%TO.N,D15*%
X131965600Y-96221000D02*
X136973400Y-91213200D01*
X105315300Y-97790000D02*
X105315300Y-97422700D01*
X136973400Y-91213200D02*
X136973400Y-90405200D01*
X106517000Y-96221000D02*
X131965600Y-96221000D01*
X104140000Y-97790000D02*
X105315300Y-97790000D01*
X105315300Y-97422700D02*
X106517000Y-96221000D01*
D37*
%TO.N,Net-(Q3-Pad1)*%
X72798600Y-90313600D02*
X72798600Y-90089300D01*
X75492500Y-86182400D02*
X71689700Y-82379600D01*
D39*
X70132100Y-90313600D02*
X72798600Y-90313600D01*
D37*
X75492500Y-87395400D02*
X75492500Y-86182400D01*
X72798600Y-90089300D02*
X75492500Y-87395400D01*
D36*
%TO.N,Net-(Q6-Pad1)*%
X102603000Y-90291400D02*
X102602700Y-90291400D01*
D37*
X101109000Y-82346800D02*
X101109000Y-82267600D01*
X101109000Y-82426100D02*
X101109000Y-82346800D01*
D39*
X99968100Y-90313600D02*
X102580000Y-90313600D01*
D37*
X103263000Y-90291400D02*
X106118000Y-87436000D01*
X102603000Y-90291400D02*
X103263000Y-90291400D01*
D36*
X101108600Y-82346400D02*
X101108600Y-82267600D01*
X101109000Y-82346800D02*
X101108600Y-82346400D01*
D37*
X106118000Y-87436000D02*
X101109000Y-82426100D01*
D36*
X106118500Y-87436000D02*
X106118000Y-87436000D01*
D39*
X102580000Y-90313600D02*
X102603000Y-90291400D01*
D37*
%TO.N,Net-(Q9-Pad1)*%
X135669000Y-87436000D02*
X131086000Y-82853100D01*
D36*
X131086000Y-82560300D02*
X131085700Y-82560000D01*
D37*
X131086000Y-82560300D02*
X131086000Y-82267600D01*
D39*
X131771000Y-90392400D02*
X131777000Y-90385900D01*
D36*
X131085700Y-82560000D02*
X131085700Y-82267600D01*
D37*
X134727000Y-87436000D02*
X135668600Y-87436000D01*
X135668600Y-87436000D02*
X135669000Y-87436000D01*
D36*
X131777400Y-90385900D02*
X131777000Y-90385900D01*
D37*
X131777000Y-90385900D02*
X134727000Y-87436000D01*
X131086000Y-82853100D02*
X131086000Y-82560300D01*
D39*
X129154500Y-90392400D02*
X131771000Y-90392400D01*
D37*
%TO.N,Net-(Q12-Pad1)*%
X167264000Y-87104200D02*
X162428000Y-82267600D01*
D36*
X165581700Y-87104200D02*
X167264300Y-87104200D01*
D39*
X160409000Y-90020800D02*
X160459000Y-89971000D01*
D37*
X160459000Y-89971000D02*
X163326000Y-87104200D01*
D36*
X160459300Y-89971000D02*
X160459000Y-89971000D01*
X157637000Y-90020800D02*
X157636800Y-90020800D01*
D37*
X163326000Y-87104200D02*
X165581700Y-87104200D01*
D39*
X157637000Y-90020800D02*
X160409000Y-90020800D01*
D37*
X165581700Y-87104200D02*
X167264000Y-87104200D01*
D36*
%TO.N,Net-(D8-Pad1)*%
X111225100Y-102330700D02*
X104664400Y-102330700D01*
X101518100Y-104626700D02*
X102368400Y-104626700D01*
X104664400Y-102330700D02*
X102368400Y-104626700D01*
%TO.N,Net-(IC3-Pad5)*%
X83483000Y-92763400D02*
X133965200Y-92763400D01*
X133965200Y-92763400D02*
X134152800Y-92951000D01*
%TD*%
M02*
