G04 #@! TF.GenerationSoftware,KiCad,Pcbnew,(6.0.0)*
G04 #@! TF.CreationDate,2022-02-21T09:00:57-08:00*
G04 #@! TF.ProjectId,MakeItRain,4d616b65-4974-4526-9169-6e2e6b696361,rev?*
G04 #@! TF.SameCoordinates,Original*
G04 #@! TF.FileFunction,Other,User*
%FSLAX46Y46*%
G04 Gerber Fmt 4.6, Leading zero omitted, Abs format (unit mm)*
G04 Created by KiCad (PCBNEW (6.0.0)) date 2022-02-21 09:00:57*
%MOMM*%
%LPD*%
G01*
G04 APERTURE LIST*
%ADD10C,0.050000*%
%ADD11C,0.100000*%
G04 APERTURE END LIST*
D10*
G04 #@! TO.C,C1*
X58589800Y-86716900D02*
X58589800Y-96316900D01*
X58589800Y-96316900D02*
X62689800Y-96316900D01*
X62689800Y-86716900D02*
X58589800Y-86716900D01*
X62689800Y-96316900D02*
X62689800Y-86716900D01*
G04 #@! TO.C,C2*
X87383000Y-67369700D02*
X87383000Y-74469700D01*
X87383000Y-74469700D02*
X91083000Y-74469700D01*
X91083000Y-74469700D02*
X91083000Y-67369700D01*
X91083000Y-67369700D02*
X87383000Y-67369700D01*
G04 #@! TO.C,C3*
X117723600Y-62535000D02*
X117723600Y-69635000D01*
X117723600Y-69635000D02*
X121423600Y-69635000D01*
X121423600Y-69635000D02*
X121423600Y-62535000D01*
X121423600Y-62535000D02*
X117723600Y-62535000D01*
G04 #@! TO.C,C4*
X149631900Y-64348300D02*
X149631900Y-71448300D01*
X153331900Y-64348300D02*
X149631900Y-64348300D01*
X153331900Y-71448300D02*
X153331900Y-64348300D01*
X149631900Y-71448300D02*
X153331900Y-71448300D01*
G04 #@! TO.C,D3*
X80325000Y-67030000D02*
X80325000Y-85370000D01*
X86045000Y-67030000D02*
X80325000Y-67030000D01*
X86045000Y-85370000D02*
X86045000Y-67030000D01*
X80325000Y-85370000D02*
X86045000Y-85370000D01*
G04 #@! TO.C,D5*
X110805000Y-67030000D02*
X110805000Y-85370000D01*
X110805000Y-85370000D02*
X116525000Y-85370000D01*
X116525000Y-85370000D02*
X116525000Y-67030000D01*
X116525000Y-67030000D02*
X110805000Y-67030000D01*
G04 #@! TO.C,D7*
X177485000Y-85370000D02*
X177485000Y-67030000D01*
X177485000Y-67030000D02*
X171765000Y-67030000D01*
X171765000Y-67030000D02*
X171765000Y-85370000D01*
X171765000Y-85370000D02*
X177485000Y-85370000D01*
G04 #@! TO.C,D9*
X147005000Y-85370000D02*
X147005000Y-67030000D01*
X141285000Y-67030000D02*
X141285000Y-85370000D01*
X141285000Y-85370000D02*
X147005000Y-85370000D01*
X147005000Y-67030000D02*
X141285000Y-67030000D01*
G04 #@! TO.C,D1*
X126143800Y-125482100D02*
X130993800Y-125482100D01*
X130993800Y-120982100D02*
X126143800Y-120982100D01*
X130993800Y-125482100D02*
X130993800Y-120982100D01*
X126143800Y-120982100D02*
X126143800Y-125482100D01*
G04 #@! TO.C,IC2*
X165709800Y-112314900D02*
X160209800Y-112314900D01*
X165709800Y-104864900D02*
X165709800Y-112314900D01*
X160209800Y-112314900D02*
X160209800Y-104864900D01*
X160209800Y-104864900D02*
X165709800Y-104864900D01*
G04 #@! TO.C,J2*
X113540000Y-124990000D02*
X64240000Y-124990000D01*
X113540000Y-118890000D02*
X113540000Y-124990000D01*
X64240000Y-118890000D02*
X113540000Y-118890000D01*
X64240000Y-124990000D02*
X64240000Y-118890000D01*
G04 #@! TO.C,J3*
X113540000Y-99590000D02*
X64240000Y-99590000D01*
X113540000Y-96040000D02*
X113540000Y-99590000D01*
X64240000Y-96040000D02*
X113540000Y-96040000D01*
X64240000Y-99590000D02*
X64240000Y-96040000D01*
G04 #@! TO.C,L1*
X152134500Y-113079000D02*
X155334500Y-113079000D01*
X155334500Y-113079000D02*
X155334500Y-100819000D01*
X152134500Y-100819000D02*
X152134500Y-113079000D01*
X155334500Y-100819000D02*
X152134500Y-100819000D01*
G04 #@! TO.C,P1*
X189250000Y-85590000D02*
X189250000Y-74420000D01*
X178440000Y-74420000D02*
X178440000Y-85590000D01*
X189250000Y-74420000D02*
X178440000Y-74420000D01*
X178440000Y-85590000D02*
X189250000Y-85590000D01*
G04 #@! TO.C,Q3*
X74793700Y-84584600D02*
X63753700Y-84584600D01*
X63753700Y-84584600D02*
X63753700Y-79394600D01*
X63753700Y-79394600D02*
X74793700Y-79394600D01*
X74793700Y-79394600D02*
X74793700Y-84584600D01*
G04 #@! TO.C,Q6*
X104212600Y-84472600D02*
X93172600Y-84472600D01*
X93172600Y-79282600D02*
X104212600Y-79282600D01*
X93172600Y-84472600D02*
X93172600Y-79282600D01*
X104212600Y-79282600D02*
X104212600Y-84472600D01*
G04 #@! TO.C,Q7*
X97346300Y-106636700D02*
X91886300Y-106636700D01*
X91886300Y-101896700D02*
X97346300Y-101896700D01*
X97346300Y-106636700D02*
X97346300Y-101896700D01*
X91886300Y-101896700D02*
X91886300Y-106636700D01*
G04 #@! TO.C,Q9*
X123149700Y-84472600D02*
X123149700Y-79282600D01*
X134189700Y-79282600D02*
X134189700Y-84472600D01*
X123149700Y-79282600D02*
X134189700Y-79282600D01*
X134189700Y-84472600D02*
X123149700Y-84472600D01*
G04 #@! TO.C,Q12*
X165333200Y-79282600D02*
X165333200Y-84472600D01*
X165333200Y-84472600D02*
X154293200Y-84472600D01*
X154293200Y-79282600D02*
X165333200Y-79282600D01*
X154293200Y-84472600D02*
X154293200Y-79282600D01*
G04 #@! TO.C,Q13*
X192315500Y-89205400D02*
X192315500Y-94395400D01*
X181275500Y-94395400D02*
X181275500Y-89205400D01*
X192315500Y-94395400D02*
X181275500Y-94395400D01*
X181275500Y-89205400D02*
X192315500Y-89205400D01*
G04 #@! TO.C,R1*
X44037000Y-81585000D02*
X44037000Y-84585000D01*
X44037000Y-84585000D02*
X49127000Y-84585000D01*
X49127000Y-84585000D02*
X49127000Y-81585000D01*
X49127000Y-81585000D02*
X44037000Y-81585000D01*
G04 #@! TO.C,Z2*
X93470000Y-75560000D02*
X109720000Y-75560000D01*
X93470000Y-64750000D02*
X93470000Y-75560000D01*
X109720000Y-75560000D02*
X109720000Y-64750000D01*
X109720000Y-64750000D02*
X93470000Y-64750000D01*
G04 #@! TO.C,Z3*
X140200000Y-64750000D02*
X123950000Y-64750000D01*
X140200000Y-75560000D02*
X140200000Y-64750000D01*
X123950000Y-75560000D02*
X140200000Y-75560000D01*
X123950000Y-64750000D02*
X123950000Y-75560000D01*
G04 #@! TO.C,Z4*
X170680000Y-75560000D02*
X170680000Y-64750000D01*
X154430000Y-64750000D02*
X154430000Y-75560000D01*
X154430000Y-75560000D02*
X170680000Y-75560000D01*
X170680000Y-64750000D02*
X154430000Y-64750000D01*
G04 #@! TO.C,Z1*
X62990000Y-75560000D02*
X79240000Y-75560000D01*
X62990000Y-64750000D02*
X62990000Y-75560000D01*
X79240000Y-75560000D02*
X79240000Y-64750000D01*
X79240000Y-64750000D02*
X62990000Y-64750000D01*
G04 #@! TO.C,J1*
X172149000Y-119242300D02*
X132999000Y-119242300D01*
X132999000Y-119242300D02*
X132999000Y-125392300D01*
X172149000Y-125392300D02*
X172149000Y-119242300D01*
X132999000Y-125392300D02*
X172149000Y-125392300D01*
G04 #@! TO.C,Z5*
X64091500Y-84945400D02*
X76441500Y-84945400D01*
X76441500Y-84945400D02*
X76441500Y-87365400D01*
X64091500Y-87365400D02*
X64091500Y-84945400D01*
X76441500Y-87365400D02*
X64091500Y-87365400D01*
G04 #@! TO.C,Z6*
X107067500Y-87406000D02*
X94717500Y-87406000D01*
X94717500Y-84986000D02*
X107067500Y-84986000D01*
X94717500Y-87406000D02*
X94717500Y-84986000D01*
X107067500Y-84986000D02*
X107067500Y-87406000D01*
G04 #@! TO.C,Z8*
X168213300Y-87074200D02*
X155863300Y-87074200D01*
X168213300Y-84654200D02*
X168213300Y-87074200D01*
X155863300Y-84654200D02*
X168213300Y-84654200D01*
X155863300Y-87074200D02*
X155863300Y-84654200D01*
G04 #@! TO.C,C8*
X172324100Y-92075800D02*
G75*
G03*
X172324100Y-92075800I-4250000J0D01*
G01*
G04 #@! TO.C,Q4*
X86288400Y-101909800D02*
X86288400Y-106649800D01*
X86288400Y-101909800D02*
X91748400Y-101909800D01*
X91748400Y-106649800D02*
X86288400Y-106649800D01*
X91748400Y-106649800D02*
X91748400Y-101909800D01*
G04 #@! TO.C,R23*
X77072300Y-107127200D02*
X77072300Y-104127200D01*
X71982300Y-104127200D02*
X71982300Y-107127200D01*
X77072300Y-104127200D02*
X71982300Y-104127200D01*
X71982300Y-107127200D02*
X77072300Y-107127200D01*
G04 #@! TO.C,R31*
X86597100Y-111624500D02*
X86597100Y-116714500D01*
X89597100Y-111624500D02*
X86597100Y-111624500D01*
X89597100Y-116714500D02*
X89597100Y-111624500D01*
X86597100Y-116714500D02*
X89597100Y-116714500D01*
G04 #@! TO.C,R16*
X135491400Y-90645900D02*
X135491400Y-87645900D01*
X135491400Y-87645900D02*
X130401400Y-87645900D01*
X130401400Y-87645900D02*
X130401400Y-90645900D01*
X130401400Y-90645900D02*
X135491400Y-90645900D01*
G04 #@! TO.C,Q2*
X75188800Y-84576600D02*
X75188800Y-79116600D01*
X75188800Y-84576600D02*
X79928800Y-84576600D01*
X79928800Y-79116600D02*
X75188800Y-79116600D01*
X79928800Y-79116600D02*
X79928800Y-84576600D01*
G04 #@! TO.C,R24*
X76966700Y-107265100D02*
X71876700Y-107265100D01*
X76966700Y-110265100D02*
X76966700Y-107265100D01*
X71876700Y-110265100D02*
X76966700Y-110265100D01*
X71876700Y-107265100D02*
X71876700Y-110265100D01*
G04 #@! TO.C,R5*
X87107500Y-80228900D02*
X92197500Y-80228900D01*
X87107500Y-77228900D02*
X87107500Y-80228900D01*
X92197500Y-77228900D02*
X87107500Y-77228900D01*
X92197500Y-80228900D02*
X92197500Y-77228900D01*
G04 #@! TO.C,RV1*
X115379100Y-92618800D02*
X115379100Y-98018800D01*
X125479100Y-92618800D02*
X115379100Y-92618800D01*
X125479100Y-98018800D02*
X125479100Y-92618800D01*
X115379100Y-98018800D02*
X125479100Y-98018800D01*
G04 #@! TO.C,J4*
X118230900Y-88444000D02*
X118230900Y-92044000D01*
X118230900Y-92044000D02*
X121830900Y-92044000D01*
X121830900Y-92044000D02*
X121830900Y-88444000D01*
X121830900Y-88444000D02*
X118230900Y-88444000D01*
G04 #@! TO.C,R15*
X125238500Y-87652400D02*
X125238500Y-90652400D01*
X130328500Y-90652400D02*
X130328500Y-87652400D01*
X125238500Y-90652400D02*
X130328500Y-90652400D01*
X130328500Y-87652400D02*
X125238500Y-87652400D01*
G04 #@! TO.C,R2*
X57609000Y-81511900D02*
X52519000Y-81511900D01*
X57609000Y-84511900D02*
X57609000Y-81511900D01*
X52519000Y-81511900D02*
X52519000Y-84511900D01*
X52519000Y-84511900D02*
X57609000Y-84511900D01*
G04 #@! TO.C,R17*
X181040300Y-71792800D02*
X181040300Y-66702800D01*
X178040300Y-66702800D02*
X178040300Y-71792800D01*
X181040300Y-66702800D02*
X178040300Y-66702800D01*
X178040300Y-71792800D02*
X181040300Y-71792800D01*
G04 #@! TO.C,R4*
X106504700Y-117264800D02*
X111594700Y-117264800D01*
X111594700Y-117264800D02*
X111594700Y-114264800D01*
X111594700Y-114264800D02*
X106504700Y-114264800D01*
X106504700Y-114264800D02*
X106504700Y-117264800D01*
G04 #@! TO.C,R18*
X172793400Y-88783100D02*
X177883400Y-88783100D01*
X177883400Y-88783100D02*
X177883400Y-85783100D01*
X172793400Y-85783100D02*
X172793400Y-88783100D01*
X177883400Y-85783100D02*
X172793400Y-85783100D01*
G04 #@! TO.C,R29*
X145281000Y-111826100D02*
X140191000Y-111826100D01*
X140191000Y-114826100D02*
X145281000Y-114826100D01*
X140191000Y-111826100D02*
X140191000Y-114826100D01*
X145281000Y-114826100D02*
X145281000Y-111826100D01*
G04 #@! TO.C,R25*
X77359900Y-110478500D02*
X74359900Y-110478500D01*
X74359900Y-110478500D02*
X74359900Y-115568500D01*
X77359900Y-115568500D02*
X77359900Y-110478500D01*
X74359900Y-115568500D02*
X77359900Y-115568500D01*
G04 #@! TO.C,R33*
X99177800Y-116714500D02*
X99177800Y-111624500D01*
X96177800Y-116714500D02*
X99177800Y-116714500D01*
X96177800Y-111624500D02*
X96177800Y-116714500D01*
X99177800Y-111624500D02*
X96177800Y-111624500D01*
G04 #@! TO.C,R14*
X140687400Y-87665200D02*
X135597400Y-87665200D01*
X140687400Y-90665200D02*
X140687400Y-87665200D01*
X135597400Y-87665200D02*
X135597400Y-90665200D01*
X135597400Y-90665200D02*
X140687400Y-90665200D01*
G04 #@! TO.C,Q11*
X170541500Y-78843000D02*
X165801500Y-78843000D01*
X170541500Y-78843000D02*
X170541500Y-84303000D01*
X165801500Y-84303000D02*
X165801500Y-78843000D01*
X165801500Y-84303000D02*
X170541500Y-84303000D01*
G04 #@! TO.C,R27*
X145281000Y-105247400D02*
X145281000Y-102247400D01*
X140191000Y-105247400D02*
X145281000Y-105247400D01*
X140191000Y-102247400D02*
X140191000Y-105247400D01*
X145281000Y-102247400D02*
X140191000Y-102247400D01*
G04 #@! TO.C,D4*
X113670300Y-113361400D02*
X126530300Y-113361400D01*
X113670300Y-110161400D02*
X113670300Y-113361400D01*
X126530300Y-113361400D02*
X126530300Y-110161400D01*
X126530300Y-110161400D02*
X113670300Y-110161400D01*
G04 #@! TO.C,D2*
X126530300Y-118270800D02*
X126530300Y-115070800D01*
X113670300Y-115070800D02*
X113670300Y-118270800D01*
X126530300Y-115070800D02*
X113670300Y-115070800D01*
X113670300Y-118270800D02*
X126530300Y-118270800D01*
D11*
G04 #@! TO.C,S1*
X123866200Y-118773800D02*
X123866200Y-126773800D01*
X113866200Y-118773800D02*
X123866200Y-118773800D01*
X123866200Y-126773800D02*
X113866200Y-126773800D01*
X113866200Y-126773800D02*
X113866200Y-118773800D01*
D10*
G04 #@! TO.C,R9*
X122172200Y-74633700D02*
X122172200Y-71633700D01*
X117082200Y-74633700D02*
X122172200Y-74633700D01*
X122172200Y-71633700D02*
X117082200Y-71633700D01*
X117082200Y-71633700D02*
X117082200Y-74633700D01*
G04 #@! TO.C,R13*
X153501000Y-74202800D02*
X148411000Y-74202800D01*
X148411000Y-77202800D02*
X153501000Y-77202800D01*
X148411000Y-74202800D02*
X148411000Y-77202800D01*
X153501000Y-77202800D02*
X153501000Y-74202800D01*
G04 #@! TO.C,R6*
X76600900Y-87573600D02*
X76600900Y-90573600D01*
X81690900Y-90573600D02*
X81690900Y-87573600D01*
X81690900Y-87573600D02*
X76600900Y-87573600D01*
X76600900Y-90573600D02*
X81690900Y-90573600D01*
G04 #@! TO.C,R11*
X96052100Y-90573600D02*
X101142100Y-90573600D01*
X96052100Y-87573600D02*
X96052100Y-90573600D01*
X101142100Y-87573600D02*
X96052100Y-87573600D01*
X101142100Y-90573600D02*
X101142100Y-87573600D01*
G04 #@! TO.C,R7*
X71306100Y-90573600D02*
X71306100Y-87573600D01*
X71306100Y-87573600D02*
X66216100Y-87573600D01*
X66216100Y-87573600D02*
X66216100Y-90573600D01*
X66216100Y-90573600D02*
X71306100Y-90573600D01*
D11*
G04 #@! TO.C,U2*
X191362900Y-96293100D02*
X191362900Y-105143100D01*
X191362900Y-105143100D02*
X169362900Y-105143100D01*
X169362900Y-96293100D02*
X191362900Y-96293100D01*
X169362900Y-105143100D02*
X169362900Y-96293100D01*
D10*
G04 #@! TO.C,Q10*
X97518100Y-101896700D02*
X102978100Y-101896700D01*
X97518100Y-101896700D02*
X97518100Y-106636700D01*
X102978100Y-106636700D02*
X97518100Y-106636700D01*
X102978100Y-106636700D02*
X102978100Y-101896700D01*
G04 #@! TO.C,D8*
X126530300Y-103542700D02*
X126530300Y-100342700D01*
X126530300Y-100342700D02*
X113670300Y-100342700D01*
X113670300Y-100342700D02*
X113670300Y-103542700D01*
X113670300Y-103542700D02*
X126530300Y-103542700D01*
G04 #@! TO.C,IC3*
X61605600Y-105439500D02*
X71495600Y-105439500D01*
X61605600Y-116099500D02*
X61605600Y-105439500D01*
X71495600Y-116099500D02*
X61605600Y-116099500D01*
X71495600Y-105439500D02*
X71495600Y-116099500D01*
G04 #@! TO.C,Q1*
X80692400Y-101914400D02*
X80692400Y-106654400D01*
X86152400Y-106654400D02*
X80692400Y-106654400D01*
X80692400Y-101914400D02*
X86152400Y-101914400D01*
X86152400Y-106654400D02*
X86152400Y-101914400D01*
G04 #@! TO.C,R26*
X140191000Y-97458100D02*
X140191000Y-100458100D01*
X145281000Y-100458100D02*
X145281000Y-97458100D01*
X145281000Y-97458100D02*
X140191000Y-97458100D01*
X140191000Y-100458100D02*
X145281000Y-100458100D01*
G04 #@! TO.C,R8*
X76512600Y-87573600D02*
X71422600Y-87573600D01*
X71422600Y-87573600D02*
X71422600Y-90573600D01*
X76512600Y-90573600D02*
X76512600Y-87573600D01*
X71422600Y-90573600D02*
X76512600Y-90573600D01*
G04 #@! TO.C,IC4*
X139216900Y-93559400D02*
X139216900Y-114399400D01*
X127516900Y-114399400D02*
X127516900Y-93559400D01*
X127516900Y-93559400D02*
X139216900Y-93559400D01*
X139216900Y-114399400D02*
X127516900Y-114399400D01*
G04 #@! TO.C,Q8*
X140396600Y-79122900D02*
X135656600Y-79122900D01*
X135656600Y-84582900D02*
X140396600Y-84582900D01*
X135656600Y-84582900D02*
X135656600Y-79122900D01*
X140396600Y-79122900D02*
X140396600Y-84582900D01*
G04 #@! TO.C,Q5*
X109527400Y-79049200D02*
X104787400Y-79049200D01*
X104787400Y-84509200D02*
X104787400Y-79049200D01*
X104787400Y-84509200D02*
X109527400Y-84509200D01*
X109527400Y-79049200D02*
X109527400Y-84509200D01*
G04 #@! TO.C,D10*
X154660100Y-97062200D02*
X154660100Y-100262200D01*
X154660100Y-100262200D02*
X167520100Y-100262200D01*
X167520100Y-97062200D02*
X154660100Y-97062200D01*
X167520100Y-100262200D02*
X167520100Y-97062200D01*
G04 #@! TO.C,C5*
X149584400Y-77584400D02*
X149584400Y-84684400D01*
X149584400Y-84684400D02*
X153284400Y-84684400D01*
X153284400Y-84684400D02*
X153284400Y-77584400D01*
X153284400Y-77584400D02*
X149584400Y-77584400D01*
G04 #@! TO.C,R21*
X178150200Y-91813200D02*
X173060200Y-91813200D01*
X173060200Y-91813200D02*
X173060200Y-94813200D01*
X178150200Y-94813200D02*
X178150200Y-91813200D01*
X173060200Y-94813200D02*
X178150200Y-94813200D01*
G04 #@! TO.C,C9*
X155612600Y-93906000D02*
G75*
G03*
X155612600Y-93906000I-4250000J0D01*
G01*
G04 #@! TO.C,R3*
X106638300Y-112418500D02*
X111728300Y-112418500D01*
X111728300Y-109418500D02*
X106638300Y-109418500D01*
X106638300Y-109418500D02*
X106638300Y-112418500D01*
X111728300Y-112418500D02*
X111728300Y-109418500D01*
G04 #@! TO.C,R30*
X84806700Y-116714500D02*
X84806700Y-111624500D01*
X81806700Y-111624500D02*
X81806700Y-116714500D01*
X84806700Y-111624500D02*
X81806700Y-111624500D01*
X81806700Y-116714500D02*
X84806700Y-116714500D01*
G04 #@! TO.C,R12*
X106316700Y-87551400D02*
X101226700Y-87551400D01*
X106316700Y-90551400D02*
X106316700Y-87551400D01*
X101226700Y-90551400D02*
X106316700Y-90551400D01*
X101226700Y-87551400D02*
X101226700Y-90551400D01*
G04 #@! TO.C,R22*
X158400200Y-109307700D02*
X158400200Y-104217700D01*
X158400200Y-104217700D02*
X155400200Y-104217700D01*
X155400200Y-104217700D02*
X155400200Y-109307700D01*
X155400200Y-109307700D02*
X158400200Y-109307700D01*
G04 #@! TO.C,R28*
X140191000Y-107036800D02*
X140191000Y-110036800D01*
X145281000Y-107036800D02*
X140191000Y-107036800D01*
X140191000Y-110036800D02*
X145281000Y-110036800D01*
X145281000Y-110036800D02*
X145281000Y-107036800D01*
G04 #@! TO.C,R20*
X159083300Y-87231000D02*
X159083300Y-90231000D01*
X164173300Y-87231000D02*
X159083300Y-87231000D01*
X164173300Y-90231000D02*
X164173300Y-87231000D01*
X159083300Y-90231000D02*
X164173300Y-90231000D01*
G04 #@! TO.C,R19*
X153720800Y-90280800D02*
X158810800Y-90280800D01*
X158810800Y-87280800D02*
X153720800Y-87280800D01*
X158810800Y-90280800D02*
X158810800Y-87280800D01*
X153720800Y-87280800D02*
X153720800Y-90280800D01*
G04 #@! TO.C,R10*
X106428100Y-87545900D02*
X106428100Y-90545900D01*
X111518100Y-87545900D02*
X106428100Y-87545900D01*
X111518100Y-90545900D02*
X111518100Y-87545900D01*
X106428100Y-90545900D02*
X111518100Y-90545900D01*
G04 #@! TO.C,C7*
X159313200Y-101021700D02*
X159313200Y-104021700D01*
X166413200Y-104021700D02*
X166413200Y-101021700D01*
X159313200Y-104021700D02*
X166413200Y-104021700D01*
X166413200Y-101021700D02*
X159313200Y-101021700D01*
G04 #@! TO.C,D6*
X113670300Y-105252100D02*
X113670300Y-108452100D01*
X113670300Y-108452100D02*
X126530300Y-108452100D01*
X126530300Y-105252100D02*
X113670300Y-105252100D01*
X126530300Y-108452100D02*
X126530300Y-105252100D01*
G04 #@! TO.C,R32*
X94387500Y-111624500D02*
X91387500Y-111624500D01*
X94387500Y-116714500D02*
X94387500Y-111624500D01*
X91387500Y-116714500D02*
X94387500Y-116714500D01*
X91387500Y-111624500D02*
X91387500Y-116714500D01*
G04 #@! TO.C,C6*
X158562800Y-109602200D02*
X155562800Y-109602200D01*
X155562800Y-116702200D02*
X158562800Y-116702200D01*
X155562800Y-109602200D02*
X155562800Y-116702200D01*
X158562800Y-116702200D02*
X158562800Y-109602200D01*
G04 #@! TO.C,Z7*
X124267600Y-87406000D02*
X124267600Y-84986000D01*
X136617600Y-84986000D02*
X136617600Y-87406000D01*
X136617600Y-87406000D02*
X124267600Y-87406000D01*
X124267600Y-84986000D02*
X136617600Y-84986000D01*
G04 #@! TO.C,R34*
X56389400Y-113068900D02*
X56389400Y-116068900D01*
X56389400Y-116068900D02*
X61479400Y-116068900D01*
X61479400Y-113068900D02*
X56389400Y-113068900D01*
X61479400Y-116068900D02*
X61479400Y-113068900D01*
G04 #@! TD*
M02*
