%TF.GenerationSoftware,KiCad,Pcbnew,(6.0.0)*%
%TF.CreationDate,2022-04-11T12:39:09-07:00*%
%TF.ProjectId,MakeItRain,4d616b65-4974-4526-9169-6e2e6b696361,rev?*%
%TF.SameCoordinates,Original*%
%TF.FileFunction,Copper,L4,Bot*%
%TF.FilePolarity,Positive*%
%FSLAX46Y46*%
G04 Gerber Fmt 4.6, Leading zero omitted, Abs format (unit mm)*
G04 Created by KiCad (PCBNEW (6.0.0)) date 2022-04-11 12:39:09*
%MOMM*%
%LPD*%
G01*
G04 APERTURE LIST*
%TA.AperFunction,ComponentPad*%
%ADD10C,1.600000*%
%TD*%
%TA.AperFunction,ComponentPad*%
%ADD11R,2.600000X2.600000*%
%TD*%
%TA.AperFunction,ComponentPad*%
%ADD12O,2.600000X2.600000*%
%TD*%
%TA.AperFunction,ComponentPad*%
%ADD13R,1.800000X1.800000*%
%TD*%
%TA.AperFunction,ComponentPad*%
%ADD14C,1.800000*%
%TD*%
%TA.AperFunction,ComponentPad*%
%ADD15R,1.700000X1.700000*%
%TD*%
%TA.AperFunction,ComponentPad*%
%ADD16O,1.700000X1.700000*%
%TD*%
%TA.AperFunction,ComponentPad*%
%ADD17O,1.600000X1.600000*%
%TD*%
%TA.AperFunction,ComponentPad*%
%ADD18C,2.600000*%
%TD*%
%TA.AperFunction,ComponentPad*%
%ADD19R,1.920000X1.920000*%
%TD*%
%TA.AperFunction,ComponentPad*%
%ADD20C,1.920000*%
%TD*%
%TA.AperFunction,ComponentPad*%
%ADD21R,1.050000X1.500000*%
%TD*%
%TA.AperFunction,ComponentPad*%
%ADD22O,1.050000X1.500000*%
%TD*%
%TA.AperFunction,ComponentPad*%
%ADD23R,1.150000X1.150000*%
%TD*%
%TA.AperFunction,ComponentPad*%
%ADD24C,1.150000*%
%TD*%
%TA.AperFunction,ComponentPad*%
%ADD25R,1.600000X1.600000*%
%TD*%
%TA.AperFunction,ComponentPad*%
%ADD26R,1.500000X1.050000*%
%TD*%
%TA.AperFunction,ComponentPad*%
%ADD27O,1.500000X1.050000*%
%TD*%
%TA.AperFunction,ComponentPad*%
%ADD28C,1.440000*%
%TD*%
%TA.AperFunction,ComponentPad*%
%ADD29R,2.200000X2.200000*%
%TD*%
%TA.AperFunction,ComponentPad*%
%ADD30O,2.200000X2.200000*%
%TD*%
%TA.AperFunction,ComponentPad*%
%ADD31R,1.500000X1.500000*%
%TD*%
%TA.AperFunction,ComponentPad*%
%ADD32C,1.500000*%
%TD*%
%TA.AperFunction,ComponentPad*%
%ADD33C,2.100000*%
%TD*%
%TA.AperFunction,ComponentPad*%
%ADD34R,1.130000X1.130000*%
%TD*%
%TA.AperFunction,ComponentPad*%
%ADD35C,1.130000*%
%TD*%
%TA.AperFunction,ViaPad*%
%ADD36C,0.800000*%
%TD*%
%TA.AperFunction,Conductor*%
%ADD37C,0.250000*%
%TD*%
%TA.AperFunction,Conductor*%
%ADD38C,2.032000*%
%TD*%
%TA.AperFunction,Conductor*%
%ADD39C,0.508000*%
%TD*%
G04 APERTURE END LIST*
D10*
%TO.P,C2,1*%
%TO.N,/Zone1IO/ZoneInput*%
X89109000Y-69659700D03*
%TO.P,C2,2*%
%TO.N,GND*%
X89109000Y-74659700D03*
%TD*%
%TO.P,C3,1*%
%TO.N,/Zone2IO/ZoneInput*%
X119449600Y-64825000D03*
%TO.P,C3,2*%
%TO.N,GND*%
X119449600Y-69825000D03*
%TD*%
%TO.P,C4,1*%
%TO.N,/Zone3IO/ZoneInput*%
X151357900Y-66638300D03*
%TO.P,C4,2*%
%TO.N,GND*%
X151357900Y-71638300D03*
%TD*%
D11*
%TO.P,D3,1,K*%
%TO.N,/Zone1IO/ZoneOutput*%
X83061000Y-85060000D03*
D12*
%TO.P,D3,2,A*%
%TO.N,GND*%
X83061000Y-69820000D03*
%TD*%
D11*
%TO.P,D5,1,K*%
%TO.N,/Zone2IO/ZoneOutput*%
X113541000Y-85060000D03*
D12*
%TO.P,D5,2,A*%
%TO.N,GND*%
X113541000Y-69820000D03*
%TD*%
D11*
%TO.P,D7,1,K*%
%TO.N,/Zone4IO/ZoneOutput*%
X174501000Y-85060000D03*
D12*
%TO.P,D7,2,A*%
%TO.N,GND*%
X174501000Y-69820000D03*
%TD*%
D11*
%TO.P,D9,1,K*%
%TO.N,/Zone3IO/ZoneOutput*%
X144021000Y-85060000D03*
D12*
%TO.P,D9,2,A*%
%TO.N,GND*%
X144021000Y-69820000D03*
%TD*%
D13*
%TO.P,D1,1,K*%
%TO.N,Net-(D1-Pad1)*%
X128872900Y-123268200D03*
D14*
%TO.P,D1,2,A*%
%TO.N,D21*%
X126332900Y-123268200D03*
%TD*%
D15*
%TO.P,J2,1,Pin_1*%
%TO.N,+3V3*%
X66040000Y-120650000D03*
D16*
%TO.P,J2,2,Pin_2*%
X66040000Y-123190000D03*
%TO.P,J2,3,Pin_3*%
%TO.N,EN*%
X68580000Y-120650000D03*
%TO.P,J2,4,Pin_4*%
X68580000Y-123190000D03*
%TO.P,J2,5,Pin_5*%
%TO.N,D36*%
X71120000Y-120650000D03*
%TO.P,J2,6,Pin_6*%
X71120000Y-123190000D03*
%TO.P,J2,7,Pin_7*%
%TO.N,D39*%
X73660000Y-120650000D03*
%TO.P,J2,8,Pin_8*%
X73660000Y-123190000D03*
%TO.P,J2,9,Pin_9*%
%TO.N,D34*%
X76200000Y-120650000D03*
%TO.P,J2,10,Pin_10*%
X76200000Y-123190000D03*
%TO.P,J2,11,Pin_11*%
%TO.N,D35*%
X78740000Y-120650000D03*
%TO.P,J2,12,Pin_12*%
X78740000Y-123190000D03*
%TO.P,J2,13,Pin_13*%
%TO.N,D32*%
X81280000Y-120650000D03*
%TO.P,J2,14,Pin_14*%
X81280000Y-123190000D03*
%TO.P,J2,15,Pin_15*%
%TO.N,D33*%
X83820000Y-120650000D03*
%TO.P,J2,16,Pin_16*%
X83820000Y-123190000D03*
%TO.P,J2,17,Pin_17*%
%TO.N,D25*%
X86360000Y-120650000D03*
%TO.P,J2,18,Pin_18*%
X86360000Y-123190000D03*
%TO.P,J2,19,Pin_19*%
%TO.N,D26*%
X88900000Y-120650000D03*
%TO.P,J2,20,Pin_20*%
X88900000Y-123190000D03*
%TO.P,J2,21,Pin_21*%
%TO.N,D27*%
X91440000Y-120650000D03*
%TO.P,J2,22,Pin_22*%
X91440000Y-123190000D03*
%TO.P,J2,23,Pin_23*%
%TO.N,D14*%
X93980000Y-120650000D03*
%TO.P,J2,24,Pin_24*%
X93980000Y-123190000D03*
%TO.P,J2,25,Pin_25*%
%TO.N,D12*%
X96520000Y-120650000D03*
%TO.P,J2,26,Pin_26*%
X96520000Y-123190000D03*
%TO.P,J2,27,Pin_27*%
%TO.N,GND*%
X99060000Y-120650000D03*
%TO.P,J2,28,Pin_28*%
X99060000Y-123190000D03*
%TO.P,J2,29,Pin_29*%
%TO.N,unconnected-(J2-Pad29)*%
X101600000Y-120650000D03*
%TO.P,J2,30,Pin_30*%
%TO.N,unconnected-(J2-Pad30)*%
X101600000Y-123190000D03*
%TO.P,J2,31,Pin_31*%
%TO.N,unconnected-(J2-Pad31)*%
X104140000Y-120650000D03*
%TO.P,J2,32,Pin_32*%
%TO.N,unconnected-(J2-Pad32)*%
X104140000Y-123190000D03*
%TO.P,J2,33,Pin_33*%
%TO.N,unconnected-(J2-Pad33)*%
X106680000Y-120650000D03*
%TO.P,J2,34,Pin_34*%
%TO.N,unconnected-(J2-Pad34)*%
X106680000Y-123190000D03*
%TO.P,J2,35,Pin_35*%
%TO.N,unconnected-(J2-Pad35)*%
X109220000Y-120650000D03*
%TO.P,J2,36,Pin_36*%
%TO.N,unconnected-(J2-Pad36)*%
X109220000Y-123190000D03*
%TO.P,J2,37,Pin_37*%
%TO.N,+5V*%
X111760000Y-120650000D03*
%TO.P,J2,38,Pin_38*%
X111760000Y-123190000D03*
%TD*%
D15*
%TO.P,J3,1,Pin_1*%
%TO.N,GND*%
X66040000Y-97790000D03*
D16*
%TO.P,J3,2,Pin_2*%
%TO.N,D23*%
X68580000Y-97790000D03*
%TO.P,J3,3,Pin_3*%
%TO.N,D22*%
X71120000Y-97790000D03*
%TO.P,J3,4,Pin_4*%
%TO.N,TX*%
X73660000Y-97790000D03*
%TO.P,J3,5,Pin_5*%
%TO.N,RX*%
X76200000Y-97790000D03*
%TO.P,J3,6,Pin_6*%
%TO.N,D21*%
X78740000Y-97790000D03*
%TO.P,J3,7,Pin_7*%
%TO.N,GND*%
X81280000Y-97790000D03*
%TO.P,J3,8,Pin_8*%
%TO.N,D19*%
X83820000Y-97790000D03*
%TO.P,J3,9,Pin_9*%
%TO.N,D18*%
X86360000Y-97790000D03*
%TO.P,J3,10,Pin_10*%
%TO.N,D5*%
X88900000Y-97790000D03*
%TO.P,J3,11,Pin_11*%
%TO.N,D17*%
X91440000Y-97790000D03*
%TO.P,J3,12,Pin_12*%
%TO.N,D16*%
X93980000Y-97790000D03*
%TO.P,J3,13,Pin_13*%
%TO.N,D4*%
X96520000Y-97790000D03*
%TO.P,J3,14,Pin_14*%
%TO.N,D0*%
X99060000Y-97790000D03*
%TO.P,J3,15,Pin_15*%
%TO.N,D2*%
X101600000Y-97790000D03*
%TO.P,J3,16,Pin_16*%
%TO.N,D15*%
X104140000Y-97790000D03*
%TO.P,J3,17,Pin_17*%
%TO.N,/SD1*%
X106680000Y-97790000D03*
%TO.P,J3,18,Pin_18*%
%TO.N,/SDD*%
X109220000Y-97790000D03*
%TO.P,J3,19,Pin_19*%
%TO.N,/CLK*%
X111760000Y-97790000D03*
%TD*%
D10*
%TO.P,L1,1,1*%
%TO.N,Net-(D10-Pad1)*%
X45352300Y-88789900D03*
D17*
%TO.P,L1,2,2*%
%TO.N,+5V*%
X45352300Y-98949900D03*
%TD*%
D11*
%TO.P,P1,1,Pin_1*%
%TO.N,Net-(P1-Pad1)*%
X178125700Y-96457800D03*
D18*
%TO.P,P1,2,Pin_2*%
%TO.N,GND*%
X178125700Y-91377800D03*
%TD*%
D19*
%TO.P,Q3,1*%
%TO.N,Net-(Q3-Pad1)*%
X71689700Y-82379600D03*
D20*
%TO.P,Q3,2*%
%TO.N,/Zone1IO/ZoneOutput*%
X69149700Y-82379600D03*
%TO.P,Q3,3*%
%TO.N,+VDC*%
X66609700Y-82379600D03*
%TD*%
D19*
%TO.P,Q6,1*%
%TO.N,Net-(Q6-Pad1)*%
X101108600Y-82267600D03*
D20*
%TO.P,Q6,2*%
%TO.N,/Zone2IO/ZoneOutput*%
X98568600Y-82267600D03*
%TO.P,Q6,3*%
%TO.N,+VDC*%
X96028600Y-82267600D03*
%TD*%
D21*
%TO.P,Q7,1,S*%
%TO.N,GND*%
X93346300Y-104626700D03*
D22*
%TO.P,Q7,2,G*%
%TO.N,/Zone3IO/ZoneInput*%
X94616300Y-104626700D03*
%TO.P,Q7,3,D*%
%TO.N,Net-(D6-Pad1)*%
X95886300Y-104626700D03*
%TD*%
D19*
%TO.P,Q9,1*%
%TO.N,Net-(Q9-Pad1)*%
X131085700Y-82267600D03*
D20*
%TO.P,Q9,2*%
%TO.N,/Zone3IO/ZoneOutput*%
X128545700Y-82267600D03*
%TO.P,Q9,3*%
%TO.N,+VDC*%
X126005700Y-82267600D03*
%TD*%
D19*
%TO.P,Q12,1*%
%TO.N,Net-(Q12-Pad1)*%
X162229200Y-82267600D03*
D20*
%TO.P,Q12,2*%
%TO.N,/Zone4IO/ZoneOutput*%
X159689200Y-82267600D03*
%TO.P,Q12,3*%
%TO.N,+VDC*%
X157149200Y-82267600D03*
%TD*%
D19*
%TO.P,Q13,1*%
%TO.N,Net-(Q13-Pad1)*%
X174341600Y-105164100D03*
D20*
%TO.P,Q13,2*%
%TO.N,Net-(P1-Pad1)*%
X176881600Y-105164100D03*
%TO.P,Q13,3*%
%TO.N,Net-(Q13-Pad3)*%
X179421600Y-105164100D03*
%TD*%
D11*
%TO.P,Z2,1,Pin_1*%
%TO.N,/Zone2IO/ZoneInput*%
X106556000Y-71090000D03*
D18*
%TO.P,Z2,2,Pin_2*%
%TO.N,/Zone2IO/ZoneOutput*%
X101476000Y-71090000D03*
%TO.P,Z2,3,Pin_3*%
%TO.N,GND*%
X96396000Y-71090000D03*
%TD*%
D11*
%TO.P,Z3,1,Pin_1*%
%TO.N,/Zone3IO/ZoneInput*%
X137036000Y-71090000D03*
D18*
%TO.P,Z3,2,Pin_2*%
%TO.N,/Zone3IO/ZoneOutput*%
X131956000Y-71090000D03*
%TO.P,Z3,3,Pin_3*%
%TO.N,GND*%
X126876000Y-71090000D03*
%TD*%
D11*
%TO.P,Z4,1,Pin_1*%
%TO.N,/Zone4IO/ZoneInput*%
X167516000Y-71090000D03*
D18*
%TO.P,Z4,2,Pin_2*%
%TO.N,/Zone4IO/ZoneOutput*%
X162436000Y-71090000D03*
%TO.P,Z4,3,Pin_3*%
%TO.N,GND*%
X157356000Y-71090000D03*
%TD*%
D11*
%TO.P,Z1,1,Pin_1*%
%TO.N,/Zone1IO/ZoneInput*%
X76076000Y-71090000D03*
D18*
%TO.P,Z1,2,Pin_2*%
%TO.N,/Zone1IO/ZoneOutput*%
X70996000Y-71090000D03*
%TO.P,Z1,3,Pin_3*%
%TO.N,GND*%
X65916000Y-71090000D03*
%TD*%
D15*
%TO.P,J1,1,Pin_1*%
%TO.N,+VDC*%
X170349000Y-121042300D03*
D16*
%TO.P,J1,2,Pin_2*%
%TO.N,D39*%
X170349000Y-123582300D03*
%TO.P,J1,3,Pin_3*%
%TO.N,+VDC*%
X167809000Y-121042300D03*
%TO.P,J1,4,Pin_4*%
%TO.N,AuxVoltage*%
X167809000Y-123582300D03*
%TO.P,J1,5,Pin_5*%
%TO.N,+VDC*%
X165269000Y-121042300D03*
%TO.P,J1,6,Pin_6*%
%TO.N,D23*%
X165269000Y-123582300D03*
%TO.P,J1,7,Pin_7*%
%TO.N,+VDC*%
X162729000Y-121042300D03*
%TO.P,J1,8,Pin_8*%
%TO.N,D19*%
X162729000Y-123582300D03*
%TO.P,J1,9,Pin_9*%
%TO.N,+VDC*%
X160189000Y-121042300D03*
%TO.P,J1,10,Pin_10*%
%TO.N,D18*%
X160189000Y-123582300D03*
%TO.P,J1,11,Pin_11*%
%TO.N,+3V3*%
X157649000Y-121042300D03*
%TO.P,J1,12,Pin_12*%
%TO.N,D5*%
X157649000Y-123582300D03*
%TO.P,J1,13,Pin_13*%
%TO.N,+5V*%
X155109000Y-121042300D03*
%TO.P,J1,14,Pin_14*%
%TO.N,D35*%
X155109000Y-123582300D03*
%TO.P,J1,15,Pin_15*%
%TO.N,+5V*%
X152569000Y-121042300D03*
%TO.P,J1,16,Pin_16*%
%TO.N,D32*%
X152569000Y-123582300D03*
%TO.P,J1,17,Pin_17*%
%TO.N,GND*%
X150029000Y-121042300D03*
%TO.P,J1,18,Pin_18*%
%TO.N,D33*%
X150029000Y-123582300D03*
%TO.P,J1,19,Pin_19*%
%TO.N,GND*%
X147489000Y-121042300D03*
%TO.P,J1,20,Pin_20*%
%TO.N,D25*%
X147489000Y-123582300D03*
%TO.P,J1,21,Pin_21*%
%TO.N,GND*%
X144949000Y-121042300D03*
%TO.P,J1,22,Pin_22*%
%TO.N,D21*%
X144949000Y-123582300D03*
%TO.P,J1,23,Pin_23*%
%TO.N,GND*%
X142409000Y-121042300D03*
%TO.P,J1,24,Pin_24*%
%TO.N,D4*%
X142409000Y-123582300D03*
%TO.P,J1,25,Pin_25*%
%TO.N,GND*%
X139869000Y-121042300D03*
%TO.P,J1,26,Pin_26*%
%TO.N,D0*%
X139869000Y-123582300D03*
%TO.P,J1,27,Pin_27*%
%TO.N,GND*%
X137329000Y-121042300D03*
%TO.P,J1,28,Pin_28*%
%TO.N,TX*%
X137329000Y-123582300D03*
%TO.P,J1,29,Pin_29*%
%TO.N,GND*%
X134789000Y-121042300D03*
%TO.P,J1,30,Pin_30*%
%TO.N,RX*%
X134789000Y-123582300D03*
%TD*%
D23*
%TO.P,Z5,1*%
%TO.N,+VDC*%
X64792500Y-87395400D03*
D24*
%TO.P,Z5,2*%
%TO.N,Net-(Q3-Pad1)*%
X75492500Y-87395400D03*
%TD*%
D23*
%TO.P,Z6,1*%
%TO.N,+VDC*%
X95418500Y-87436000D03*
D24*
%TO.P,Z6,2*%
%TO.N,Net-(Q6-Pad1)*%
X106118500Y-87436000D03*
%TD*%
D23*
%TO.P,Z8,1*%
%TO.N,+VDC*%
X156564300Y-87104200D03*
D24*
%TO.P,Z8,2*%
%TO.N,Net-(Q12-Pad1)*%
X167264300Y-87104200D03*
%TD*%
D25*
%TO.P,C8,1*%
%TO.N,+VDC*%
X54934800Y-77231100D03*
D10*
%TO.P,C8,2*%
%TO.N,GND*%
X54934800Y-80731100D03*
%TD*%
D21*
%TO.P,Q4,1,S*%
%TO.N,GND*%
X87748400Y-104639800D03*
D22*
%TO.P,Q4,2,G*%
%TO.N,/Zone2IO/ZoneInput*%
X89018400Y-104639800D03*
%TO.P,Q4,3,D*%
%TO.N,Net-(D4-Pad1)*%
X90288400Y-104639800D03*
%TD*%
D10*
%TO.P,R23,1*%
%TO.N,+VDC*%
X75572300Y-105627200D03*
D17*
%TO.P,R23,2*%
%TO.N,Net-(IC3-Pad3)*%
X73032300Y-105627200D03*
%TD*%
D10*
%TO.P,R31,1*%
%TO.N,+3V3*%
X88097100Y-113124500D03*
D17*
%TO.P,R31,2*%
%TO.N,D27*%
X88097100Y-115664500D03*
%TD*%
D10*
%TO.P,R16,1*%
%TO.N,Net-(Q9-Pad1)*%
X131777400Y-90385900D03*
D17*
%TO.P,R16,2*%
%TO.N,Net-(Q8-Pad3)*%
X134317400Y-90385900D03*
%TD*%
D26*
%TO.P,Q2,1,S*%
%TO.N,GND*%
X77074800Y-81816600D03*
D27*
%TO.P,Q2,2,G*%
%TO.N,D17*%
X77074800Y-83086600D03*
%TO.P,Q2,3,D*%
%TO.N,Net-(Q2-Pad3)*%
X77074800Y-84356600D03*
%TD*%
D10*
%TO.P,R24,1*%
%TO.N,Net-(IC3-Pad3)*%
X73376700Y-108765100D03*
D17*
%TO.P,R24,2*%
%TO.N,GND*%
X75916700Y-108765100D03*
%TD*%
D10*
%TO.P,R5,1*%
%TO.N,/Zone1IO/ZoneInput*%
X88483500Y-79968900D03*
D17*
%TO.P,R5,2*%
%TO.N,GND*%
X91023500Y-79968900D03*
%TD*%
D28*
%TO.P,RV1,1,1*%
%TO.N,AuxVoltage*%
X150637800Y-101920600D03*
%TO.P,RV1,2,2*%
%TO.N,Net-(IC3-Pad5)*%
X153177800Y-101920600D03*
%TO.P,RV1,3,3*%
%TO.N,GND*%
X155717800Y-101920600D03*
%TD*%
D15*
%TO.P,J4,1,Pin_1*%
%TO.N,AuxVoltage*%
X155955000Y-96632400D03*
%TD*%
D10*
%TO.P,R15,1*%
%TO.N,+VDC*%
X126614500Y-90392400D03*
D17*
%TO.P,R15,2*%
%TO.N,Net-(Q9-Pad1)*%
X129154500Y-90392400D03*
%TD*%
D10*
%TO.P,R17,1*%
%TO.N,/Zone4IO/ZoneInput*%
X179213800Y-74015100D03*
D17*
%TO.P,R17,2*%
%TO.N,GND*%
X179213800Y-76555100D03*
%TD*%
D10*
%TO.P,R4,1*%
%TO.N,Net-(D1-Pad1)*%
X105516500Y-115956200D03*
D17*
%TO.P,R4,2*%
%TO.N,GND*%
X102976500Y-115956200D03*
%TD*%
D10*
%TO.P,R18,1*%
%TO.N,D2*%
X179350700Y-81833100D03*
D17*
%TO.P,R18,2*%
%TO.N,GND*%
X181890700Y-81833100D03*
%TD*%
D10*
%TO.P,R29,1*%
%TO.N,+3V3*%
X140604000Y-113952700D03*
D17*
%TO.P,R29,2*%
%TO.N,Net-(IC4-Pad1)*%
X138064000Y-113952700D03*
%TD*%
D10*
%TO.P,R25,1*%
%TO.N,D36*%
X75859900Y-114068500D03*
D17*
%TO.P,R25,2*%
%TO.N,GND*%
X75859900Y-111528500D03*
%TD*%
D10*
%TO.P,R33,1*%
%TO.N,+3V3*%
X97677800Y-113124500D03*
D17*
%TO.P,R33,2*%
%TO.N,D12*%
X97677800Y-115664500D03*
%TD*%
D10*
%TO.P,R14,1*%
%TO.N,D15*%
X136973400Y-90405200D03*
D17*
%TO.P,R14,2*%
%TO.N,GND*%
X139513400Y-90405200D03*
%TD*%
D26*
%TO.P,Q11,1,S*%
%TO.N,GND*%
X167687500Y-81543000D03*
D27*
%TO.P,Q11,2,G*%
%TO.N,D2*%
X167687500Y-82813000D03*
%TO.P,Q11,3,D*%
%TO.N,Net-(Q11-Pad3)*%
X167687500Y-84083000D03*
%TD*%
D10*
%TO.P,R27,1*%
%TO.N,+3V3*%
X140604000Y-104374000D03*
D17*
%TO.P,R27,2*%
%TO.N,Net-(IC4-Pad5)*%
X138064000Y-104374000D03*
%TD*%
D29*
%TO.P,D4,1,K*%
%TO.N,Net-(D4-Pad1)*%
X111225100Y-112149400D03*
D30*
%TO.P,D4,2,A*%
%TO.N,/InputIsolation/2in*%
X121385100Y-112149400D03*
%TD*%
D29*
%TO.P,D2,1,K*%
%TO.N,Net-(D2-Pad1)*%
X111172700Y-117020300D03*
D30*
%TO.P,D2,2,A*%
%TO.N,/InputIsolation/1in*%
X121332700Y-117020300D03*
%TD*%
D31*
%TO.P,S1,1,NO_1*%
%TO.N,unconnected-(S1-Pad1)*%
X115616200Y-120523800D03*
D32*
%TO.P,S1,2,NO_2*%
%TO.N,+3V3*%
X122116200Y-120523800D03*
%TO.P,S1,3,COM_1*%
%TO.N,unconnected-(S1-Pad3)*%
X115616200Y-125023800D03*
%TO.P,S1,4,COM_2*%
%TO.N,D22*%
X122116200Y-125023800D03*
%TD*%
D10*
%TO.P,R9,1*%
%TO.N,/Zone2IO/ZoneInput*%
X118458200Y-74373700D03*
D17*
%TO.P,R9,2*%
%TO.N,GND*%
X120998200Y-74373700D03*
%TD*%
D10*
%TO.P,R13,1*%
%TO.N,/Zone3IO/ZoneInput*%
X149787000Y-76942800D03*
D17*
%TO.P,R13,2*%
%TO.N,GND*%
X152327000Y-76942800D03*
%TD*%
D10*
%TO.P,R6,1*%
%TO.N,D17*%
X77976900Y-90313600D03*
D17*
%TO.P,R6,2*%
%TO.N,GND*%
X80516900Y-90313600D03*
%TD*%
D10*
%TO.P,R11,1*%
%TO.N,+VDC*%
X97428100Y-90313600D03*
D17*
%TO.P,R11,2*%
%TO.N,Net-(Q6-Pad1)*%
X99968100Y-90313600D03*
%TD*%
D10*
%TO.P,R7,1*%
%TO.N,+VDC*%
X67592100Y-90313600D03*
D17*
%TO.P,R7,2*%
%TO.N,Net-(Q3-Pad1)*%
X70132100Y-90313600D03*
%TD*%
D33*
%TO.P,U2,1,1*%
%TO.N,+VDC*%
X164978400Y-112300500D03*
%TO.P,U2,2,2*%
X168478400Y-112300500D03*
%TO.P,U2,3,3*%
%TO.N,Net-(Q13-Pad3)*%
X174278400Y-112300500D03*
%TO.P,U2,4,4*%
X177778400Y-112300500D03*
%TO.P,U2,5,5*%
X177778400Y-109800500D03*
%TO.P,U2,6,6*%
X174278400Y-109800500D03*
%TO.P,U2,7,7*%
%TO.N,+VDC*%
X168478400Y-109800500D03*
%TO.P,U2,8,8*%
X164978400Y-109800500D03*
%TD*%
D21*
%TO.P,Q10,1,S*%
%TO.N,GND*%
X98978100Y-104626700D03*
D22*
%TO.P,Q10,2,G*%
%TO.N,/Zone4IO/ZoneInput*%
X100248100Y-104626700D03*
%TO.P,Q10,3,D*%
%TO.N,Net-(D8-Pad1)*%
X101518100Y-104626700D03*
%TD*%
D29*
%TO.P,D8,1,K*%
%TO.N,Net-(D8-Pad1)*%
X111225100Y-102330700D03*
D30*
%TO.P,D8,2,A*%
%TO.N,/InputIsolation/4in*%
X121385100Y-102330700D03*
%TD*%
D34*
%TO.P,IC3,1,OUTA*%
%TO.N,D36*%
X70520600Y-114579500D03*
D35*
%TO.P,IC3,2,-INA*%
X70520600Y-112039500D03*
%TO.P,IC3,3,+INA*%
%TO.N,Net-(IC3-Pad3)*%
X70520600Y-109499500D03*
%TO.P,IC3,4,V-*%
%TO.N,GND*%
X70520600Y-106959500D03*
%TO.P,IC3,5,+INB*%
%TO.N,Net-(IC3-Pad5)*%
X62580600Y-106959500D03*
%TO.P,IC3,6,-INB*%
%TO.N,D34*%
X62580600Y-109499500D03*
%TO.P,IC3,7,OUTB*%
X62580600Y-112039500D03*
%TO.P,IC3,8,V+*%
%TO.N,+3V3*%
X62580600Y-114579500D03*
%TD*%
D21*
%TO.P,Q1,1,S*%
%TO.N,GND*%
X82152400Y-104644400D03*
D22*
%TO.P,Q1,2,G*%
%TO.N,/Zone1IO/ZoneInput*%
X83422400Y-104644400D03*
%TO.P,Q1,3,D*%
%TO.N,Net-(D2-Pad1)*%
X84692400Y-104644400D03*
%TD*%
D10*
%TO.P,R26,1*%
%TO.N,+3V3*%
X140604000Y-99584700D03*
D17*
%TO.P,R26,2*%
%TO.N,Net-(IC4-Pad7)*%
X138064000Y-99584700D03*
%TD*%
D10*
%TO.P,R8,1*%
%TO.N,Net-(Q3-Pad1)*%
X72798600Y-90313600D03*
D17*
%TO.P,R8,2*%
%TO.N,Net-(Q2-Pad3)*%
X75338600Y-90313600D03*
%TD*%
D26*
%TO.P,Q8,1,S*%
%TO.N,GND*%
X137542600Y-81822900D03*
D27*
%TO.P,Q8,2,G*%
%TO.N,D15*%
X137542600Y-83092900D03*
%TO.P,Q8,3,D*%
%TO.N,Net-(Q8-Pad3)*%
X137542600Y-84362900D03*
%TD*%
D26*
%TO.P,Q5,1,S*%
%TO.N,GND*%
X106673400Y-81749200D03*
D27*
%TO.P,Q5,2,G*%
%TO.N,D16*%
X106673400Y-83019200D03*
%TO.P,Q5,3,D*%
%TO.N,Net-(Q5-Pad3)*%
X106673400Y-84289200D03*
%TD*%
D29*
%TO.P,D10,1,K*%
%TO.N,Net-(D10-Pad1)*%
X45258100Y-85454600D03*
D30*
%TO.P,D10,2,A*%
%TO.N,GND*%
X55418100Y-85454600D03*
%TD*%
D10*
%TO.P,C5,1*%
%TO.N,/Zone4IO/ZoneInput*%
X151310400Y-84874400D03*
%TO.P,C5,2*%
%TO.N,GND*%
X151310400Y-79874400D03*
%TD*%
%TO.P,R21,1*%
%TO.N,Net-(Q13-Pad1)*%
X167425100Y-105167700D03*
D17*
%TO.P,R21,2*%
%TO.N,GND*%
X169965100Y-105167700D03*
%TD*%
D25*
%TO.P,C9,1*%
%TO.N,+5V*%
X46096800Y-77288700D03*
D10*
%TO.P,C9,2*%
%TO.N,GND*%
X46096800Y-80788700D03*
%TD*%
%TO.P,R3,1*%
%TO.N,D22*%
X105650100Y-111109900D03*
D17*
%TO.P,R3,2*%
%TO.N,GND*%
X103110100Y-111109900D03*
%TD*%
D10*
%TO.P,R30,1*%
%TO.N,+3V3*%
X83306700Y-113124500D03*
D17*
%TO.P,R30,2*%
%TO.N,D26*%
X83306700Y-115664500D03*
%TD*%
D10*
%TO.P,R12,1*%
%TO.N,Net-(Q6-Pad1)*%
X102602700Y-90291400D03*
D17*
%TO.P,R12,2*%
%TO.N,Net-(Q5-Pad3)*%
X105142700Y-90291400D03*
%TD*%
D10*
%TO.P,R22,1*%
%TO.N,+VDC*%
X48953700Y-93409700D03*
D17*
%TO.P,R22,2*%
%TO.N,Net-(IC2-Pad1)*%
X48953700Y-95949700D03*
%TD*%
D10*
%TO.P,R28,1*%
%TO.N,+3V3*%
X140604000Y-109163400D03*
D17*
%TO.P,R28,2*%
%TO.N,Net-(IC4-Pad3)*%
X138064000Y-109163400D03*
%TD*%
D10*
%TO.P,R20,1*%
%TO.N,Net-(Q12-Pad1)*%
X160459300Y-89971000D03*
D17*
%TO.P,R20,2*%
%TO.N,Net-(Q11-Pad3)*%
X162999300Y-89971000D03*
%TD*%
D10*
%TO.P,R19,1*%
%TO.N,+VDC*%
X155096800Y-90020800D03*
D17*
%TO.P,R19,2*%
%TO.N,Net-(Q12-Pad1)*%
X157636800Y-90020800D03*
%TD*%
D10*
%TO.P,R10,1*%
%TO.N,D16*%
X107804100Y-90285900D03*
D17*
%TO.P,R10,2*%
%TO.N,GND*%
X110344100Y-90285900D03*
%TD*%
D10*
%TO.P,C7,1*%
%TO.N,Net-(C7-Pad1)*%
X59770100Y-88904000D03*
%TO.P,C7,2*%
%TO.N,GND*%
X54770100Y-88904000D03*
%TD*%
D29*
%TO.P,D6,1,K*%
%TO.N,Net-(D6-Pad1)*%
X111225100Y-107240100D03*
D30*
%TO.P,D6,2,A*%
%TO.N,/InputIsolation/3in*%
X121385100Y-107240100D03*
%TD*%
D10*
%TO.P,R32,1*%
%TO.N,+3V3*%
X92887500Y-113124500D03*
D17*
%TO.P,R32,2*%
%TO.N,D14*%
X92887500Y-115664500D03*
%TD*%
D10*
%TO.P,C6,1*%
%TO.N,Net-(C6-Pad1)*%
X52188800Y-100124300D03*
%TO.P,C6,2*%
%TO.N,GND*%
X57188800Y-100124300D03*
%TD*%
D23*
%TO.P,Z7,1*%
%TO.N,+VDC*%
X124968600Y-87436000D03*
D24*
%TO.P,Z7,2*%
%TO.N,Net-(Q9-Pad1)*%
X135668600Y-87436000D03*
%TD*%
D10*
%TO.P,R34,1*%
%TO.N,D34*%
X57889400Y-114568900D03*
D17*
%TO.P,R34,2*%
%TO.N,GND*%
X60429400Y-114568900D03*
%TD*%
D36*
%TO.N,GND*%
X129949101Y-112732075D03*
X79744100Y-104644400D03*
X110681200Y-85364200D03*
X175397800Y-94105800D03*
%TO.N,+VDC*%
X67496700Y-96478900D03*
%TO.N,/InputIsolation/1in*%
X136217200Y-112539200D03*
%TO.N,/InputIsolation/2in*%
X132683200Y-106687700D03*
%TO.N,/InputIsolation/3in*%
X132792400Y-102309000D03*
%TO.N,/InputIsolation/4in*%
X127684800Y-97245100D03*
%TO.N,D21*%
X105595100Y-117698700D03*
%TO.N,Net-(IC4-Pad5)*%
X132828500Y-105687000D03*
%TO.N,Net-(IC4-Pad7)*%
X133129500Y-101084200D03*
%TO.N,D12*%
X127684800Y-101345000D03*
X101599700Y-111728700D03*
%TO.N,D14*%
X121803600Y-104507700D03*
X107503900Y-111581200D03*
%TO.N,D27*%
X116977200Y-110723400D03*
X120811300Y-110343900D03*
%TO.N,D26*%
X123198100Y-113969800D03*
X99940100Y-111709300D03*
%TO.N,D19*%
X84223800Y-93560200D03*
X132837400Y-93560200D03*
%TO.N,D5*%
X131766700Y-95343700D03*
%TO.N,D32*%
X118155200Y-124237800D03*
%TO.N,D4*%
X132446600Y-99415700D03*
X135118800Y-117429700D03*
%TO.N,D0*%
X99131700Y-100864500D03*
%TO.N,Net-(IC3-Pad5)*%
X83483000Y-92763400D03*
X134152800Y-92951000D03*
%TD*%
D37*
%TO.N,GND*%
X80516900Y-85033700D02*
X80516900Y-90313600D01*
X77074800Y-81816600D02*
X77299800Y-81816600D01*
X77299800Y-81816600D02*
X80516900Y-85033700D01*
X77074800Y-75806200D02*
X83061000Y-69820000D01*
X77074800Y-81816600D02*
X77074800Y-75806200D01*
X129949101Y-116202401D02*
X134789000Y-121042300D01*
X129949101Y-112732075D02*
X129949101Y-116202401D01*
D38*
X150029000Y-116591000D02*
X150029000Y-121042000D01*
D37*
X167687500Y-81059600D02*
X167687500Y-81543000D01*
X150029000Y-121042000D02*
X150029000Y-121042300D01*
D38*
X178125700Y-91377800D02*
X175242000Y-91377800D01*
D37*
X102976500Y-115956200D02*
X101851200Y-115956200D01*
X62076900Y-95002200D02*
X64864700Y-97790000D01*
D39*
X164699000Y-101921000D02*
X165060000Y-101560000D01*
D37*
X99060000Y-119474700D02*
X101851200Y-116683500D01*
X111628300Y-80785100D02*
X110681200Y-81732200D01*
X99060000Y-120650000D02*
X99060000Y-119474700D01*
D39*
X155718200Y-101921000D02*
X164699000Y-101921000D01*
D37*
X175397800Y-93477900D02*
X175397800Y-94105800D01*
X66040000Y-97790000D02*
X64864700Y-97790000D01*
X137542600Y-79845100D02*
X137542600Y-81822900D01*
X106673400Y-80224500D02*
X106673400Y-81749200D01*
X56452000Y-95002200D02*
X62076900Y-95002200D01*
D39*
X155718000Y-101921000D02*
X155718200Y-101921000D01*
D38*
X164699000Y-101921000D02*
X150029000Y-116591000D01*
D37*
X155718200Y-101921000D02*
X155717800Y-101920600D01*
D38*
X165060000Y-101560000D02*
X164699000Y-101921000D01*
D37*
X110681200Y-81732200D02*
X110681200Y-85364200D01*
X176500300Y-92375400D02*
X175397800Y-93477900D01*
X101851200Y-116683500D02*
X101851200Y-115956200D01*
D38*
X175242000Y-91377800D02*
X165060000Y-101560000D01*
D37*
%TO.N,D36*%
X71120000Y-123190000D02*
X71120000Y-120650000D01*
X71120000Y-116069200D02*
X71120000Y-120650000D01*
X70520600Y-114579500D02*
X70520600Y-115469800D01*
X70520600Y-115469800D02*
X71120000Y-116069200D01*
D39*
%TO.N,AuxVoltage*%
X151497800Y-101061100D02*
X155926000Y-96632400D01*
X150638000Y-101921000D02*
X151497800Y-101061100D01*
X155926000Y-96632400D02*
X155955000Y-96632400D01*
D37*
X151497800Y-101061100D02*
X151497300Y-101061100D01*
X151497300Y-101061100D02*
X150637800Y-101920600D01*
%TD*%
%TA.AperFunction,Conductor*%
%TO.N,GND*%
G36*
X151082923Y-67919279D02*
G01*
X151129813Y-67931843D01*
X151357900Y-67951798D01*
X151585987Y-67931843D01*
X151632877Y-67919279D01*
X151665487Y-67914986D01*
X177549999Y-67914986D01*
X177618120Y-67934988D01*
X177664613Y-67988644D01*
X177675999Y-68040986D01*
X177675999Y-75534986D01*
X183545112Y-75510614D01*
X183613315Y-75530333D01*
X183660030Y-75583795D01*
X183671635Y-75636775D01*
X183661914Y-83127122D01*
X183648250Y-93655835D01*
X183628159Y-93723929D01*
X183574444Y-93770352D01*
X183522473Y-93781671D01*
X176510056Y-93794070D01*
X176441900Y-93774188D01*
X176395312Y-93720615D01*
X176383833Y-93667845D01*
X176404958Y-81833100D01*
X178037202Y-81833100D01*
X178057157Y-82061187D01*
X178058581Y-82066500D01*
X178058581Y-82066502D01*
X178101831Y-82227910D01*
X178116416Y-82282343D01*
X178118739Y-82287324D01*
X178118739Y-82287325D01*
X178210851Y-82484862D01*
X178210854Y-82484867D01*
X178213177Y-82489849D01*
X178344502Y-82677400D01*
X178506400Y-82839298D01*
X178510908Y-82842455D01*
X178510911Y-82842457D01*
X178561358Y-82877780D01*
X178693951Y-82970623D01*
X178698933Y-82972946D01*
X178698938Y-82972949D01*
X178813673Y-83026450D01*
X178901457Y-83067384D01*
X178906765Y-83068806D01*
X178906767Y-83068807D01*
X179117298Y-83125219D01*
X179117300Y-83125219D01*
X179122613Y-83126643D01*
X179350700Y-83146598D01*
X179578787Y-83126643D01*
X179584100Y-83125219D01*
X179584102Y-83125219D01*
X179794633Y-83068807D01*
X179794635Y-83068806D01*
X179799943Y-83067384D01*
X179887727Y-83026450D01*
X180002462Y-82972949D01*
X180002467Y-82972946D01*
X180007449Y-82970623D01*
X180140042Y-82877780D01*
X180190489Y-82842457D01*
X180190492Y-82842455D01*
X180195000Y-82839298D01*
X180356898Y-82677400D01*
X180488223Y-82489849D01*
X180490546Y-82484867D01*
X180490549Y-82484862D01*
X180582661Y-82287325D01*
X180582661Y-82287324D01*
X180584984Y-82282343D01*
X180599570Y-82227910D01*
X180642819Y-82066502D01*
X180642819Y-82066500D01*
X180644243Y-82061187D01*
X180664198Y-81833100D01*
X180644243Y-81605013D01*
X180642819Y-81599698D01*
X180586407Y-81389167D01*
X180586406Y-81389165D01*
X180584984Y-81383857D01*
X180579206Y-81371466D01*
X180490549Y-81181338D01*
X180490546Y-81181333D01*
X180488223Y-81176351D01*
X180407380Y-81060895D01*
X180360057Y-80993311D01*
X180360055Y-80993308D01*
X180356898Y-80988800D01*
X180195000Y-80826902D01*
X180190492Y-80823745D01*
X180190489Y-80823743D01*
X180112311Y-80769002D01*
X180007449Y-80695577D01*
X180002467Y-80693254D01*
X180002462Y-80693251D01*
X179804925Y-80601139D01*
X179804924Y-80601139D01*
X179799943Y-80598816D01*
X179794635Y-80597394D01*
X179794633Y-80597393D01*
X179584102Y-80540981D01*
X179584100Y-80540981D01*
X179578787Y-80539557D01*
X179350700Y-80519602D01*
X179122613Y-80539557D01*
X179117300Y-80540981D01*
X179117298Y-80540981D01*
X178906767Y-80597393D01*
X178906765Y-80597394D01*
X178901457Y-80598816D01*
X178896476Y-80601139D01*
X178896475Y-80601139D01*
X178698938Y-80693251D01*
X178698933Y-80693254D01*
X178693951Y-80695577D01*
X178589089Y-80769002D01*
X178510911Y-80823743D01*
X178510908Y-80823745D01*
X178506400Y-80826902D01*
X178344502Y-80988800D01*
X178341345Y-80993308D01*
X178341343Y-80993311D01*
X178294020Y-81060895D01*
X178213177Y-81176351D01*
X178210854Y-81181333D01*
X178210851Y-81181338D01*
X178122194Y-81371466D01*
X178116416Y-81383857D01*
X178114994Y-81389165D01*
X178114993Y-81389167D01*
X178058581Y-81599698D01*
X178057157Y-81605013D01*
X178037202Y-81833100D01*
X176404958Y-81833100D01*
X176405967Y-81268103D01*
X176405967Y-81268102D01*
X176405999Y-81249986D01*
X176392425Y-81249974D01*
X176392423Y-81249974D01*
X164705807Y-81239982D01*
X163793879Y-81239202D01*
X163725776Y-81219142D01*
X163679329Y-81165446D01*
X163676005Y-81157431D01*
X163642968Y-81069305D01*
X163642967Y-81069303D01*
X163639815Y-81060895D01*
X163552461Y-80944339D01*
X163435905Y-80856985D01*
X163299516Y-80805855D01*
X163237334Y-80799100D01*
X161221066Y-80799100D01*
X161158884Y-80805855D01*
X161022495Y-80856985D01*
X160905939Y-80944339D01*
X160818585Y-81060895D01*
X160815433Y-81069303D01*
X160815431Y-81069307D01*
X160813434Y-81074633D01*
X160770792Y-81131397D01*
X160704230Y-81156096D01*
X160634882Y-81140888D01*
X160617361Y-81129284D01*
X160508696Y-81043465D01*
X160508692Y-81043463D01*
X160504641Y-81040263D01*
X160496124Y-81035561D01*
X160419587Y-80993311D01*
X160293235Y-80923561D01*
X160288366Y-80921837D01*
X160288362Y-80921835D01*
X160070483Y-80844680D01*
X160070479Y-80844679D01*
X160065608Y-80842954D01*
X160060515Y-80842047D01*
X160060512Y-80842046D01*
X159957757Y-80823743D01*
X159827872Y-80800607D01*
X159734757Y-80799469D01*
X159591582Y-80797719D01*
X159591580Y-80797719D01*
X159586412Y-80797656D01*
X159347712Y-80834183D01*
X159118183Y-80909204D01*
X159113595Y-80911592D01*
X159113591Y-80911594D01*
X158991601Y-80975098D01*
X158903989Y-81020706D01*
X158899859Y-81023807D01*
X158899853Y-81023811D01*
X158715018Y-81162590D01*
X158710883Y-81165695D01*
X158682108Y-81195806D01*
X158620585Y-81231234D01*
X158590908Y-81234753D01*
X158394204Y-81234585D01*
X158250267Y-81234462D01*
X158182164Y-81214402D01*
X158161637Y-81197031D01*
X158161408Y-81197276D01*
X158157624Y-81193747D01*
X158154147Y-81189926D01*
X158150096Y-81186727D01*
X158150092Y-81186723D01*
X157968696Y-81043465D01*
X157968692Y-81043463D01*
X157964641Y-81040263D01*
X157956124Y-81035561D01*
X157879587Y-80993311D01*
X157753235Y-80923561D01*
X157748366Y-80921837D01*
X157748362Y-80921835D01*
X157530483Y-80844680D01*
X157530479Y-80844679D01*
X157525608Y-80842954D01*
X157520515Y-80842047D01*
X157520512Y-80842046D01*
X157417757Y-80823743D01*
X157287872Y-80800607D01*
X157194757Y-80799469D01*
X157051582Y-80797719D01*
X157051580Y-80797719D01*
X157046412Y-80797656D01*
X156807712Y-80834183D01*
X156578183Y-80909204D01*
X156573595Y-80911592D01*
X156573591Y-80911594D01*
X156451601Y-80975098D01*
X156363989Y-81020706D01*
X156359859Y-81023807D01*
X156359853Y-81023811D01*
X156299259Y-81069307D01*
X156170883Y-81165695D01*
X156167317Y-81169427D01*
X156167307Y-81169436D01*
X156144183Y-81193634D01*
X156082659Y-81229064D01*
X156052981Y-81232583D01*
X132640393Y-81212564D01*
X132572290Y-81192504D01*
X132525843Y-81138808D01*
X132522519Y-81130794D01*
X132501465Y-81074633D01*
X132496315Y-81060895D01*
X132408961Y-80944339D01*
X132292405Y-80856985D01*
X132156016Y-80805855D01*
X132093834Y-80799100D01*
X130077566Y-80799100D01*
X130015384Y-80805855D01*
X129878995Y-80856985D01*
X129762439Y-80944339D01*
X129675085Y-81060895D01*
X129671933Y-81069303D01*
X129671931Y-81069307D01*
X129669934Y-81074633D01*
X129627292Y-81131397D01*
X129560730Y-81156096D01*
X129491382Y-81140888D01*
X129473861Y-81129284D01*
X129365196Y-81043465D01*
X129365192Y-81043463D01*
X129361141Y-81040263D01*
X129352624Y-81035561D01*
X129276087Y-80993311D01*
X129149735Y-80923561D01*
X129144866Y-80921837D01*
X129144862Y-80921835D01*
X128926983Y-80844680D01*
X128926979Y-80844679D01*
X128922108Y-80842954D01*
X128917015Y-80842047D01*
X128917012Y-80842046D01*
X128814257Y-80823743D01*
X128684372Y-80800607D01*
X128591257Y-80799469D01*
X128448082Y-80797719D01*
X128448080Y-80797719D01*
X128442912Y-80797656D01*
X128204212Y-80834183D01*
X127974683Y-80909204D01*
X127970095Y-80911592D01*
X127970091Y-80911594D01*
X127848101Y-80975098D01*
X127760489Y-81020706D01*
X127756359Y-81023807D01*
X127756353Y-81023811D01*
X127571518Y-81162590D01*
X127567383Y-81165695D01*
X127563817Y-81169427D01*
X127559943Y-81172867D01*
X127559170Y-81171996D01*
X127502523Y-81204625D01*
X127472839Y-81208146D01*
X127107719Y-81207833D01*
X127076935Y-81207807D01*
X127008832Y-81187747D01*
X126998951Y-81180689D01*
X126825196Y-81043465D01*
X126825192Y-81043463D01*
X126821141Y-81040263D01*
X126812624Y-81035561D01*
X126736087Y-80993311D01*
X126609735Y-80923561D01*
X126604866Y-80921837D01*
X126604862Y-80921835D01*
X126386983Y-80844680D01*
X126386979Y-80844679D01*
X126382108Y-80842954D01*
X126377015Y-80842047D01*
X126377012Y-80842046D01*
X126274257Y-80823743D01*
X126144372Y-80800607D01*
X126051257Y-80799469D01*
X125908082Y-80797719D01*
X125908080Y-80797719D01*
X125902912Y-80797656D01*
X125664212Y-80834183D01*
X125434683Y-80909204D01*
X125430095Y-80911592D01*
X125430091Y-80911594D01*
X125308101Y-80975098D01*
X125220489Y-81020706D01*
X125216359Y-81023807D01*
X125216353Y-81023811D01*
X125031518Y-81162590D01*
X125027383Y-81165695D01*
X125023817Y-81169427D01*
X125019943Y-81172867D01*
X125018599Y-81171353D01*
X124964580Y-81202458D01*
X124934912Y-81205975D01*
X102653680Y-81186924D01*
X102585577Y-81166864D01*
X102539130Y-81113168D01*
X102535818Y-81105183D01*
X102519215Y-81060895D01*
X102513835Y-81053716D01*
X102513833Y-81053713D01*
X102441110Y-80956680D01*
X102431861Y-80944339D01*
X102315305Y-80856985D01*
X102178916Y-80805855D01*
X102116734Y-80799100D01*
X100100466Y-80799100D01*
X100038284Y-80805855D01*
X99901895Y-80856985D01*
X99785339Y-80944339D01*
X99697985Y-81060895D01*
X99694833Y-81069303D01*
X99694831Y-81069307D01*
X99692834Y-81074633D01*
X99650192Y-81131397D01*
X99583630Y-81156096D01*
X99514282Y-81140888D01*
X99496761Y-81129284D01*
X99388096Y-81043465D01*
X99388092Y-81043463D01*
X99384041Y-81040263D01*
X99375524Y-81035561D01*
X99298987Y-80993311D01*
X99172635Y-80923561D01*
X99167766Y-80921837D01*
X99167762Y-80921835D01*
X98949883Y-80844680D01*
X98949879Y-80844679D01*
X98945008Y-80842954D01*
X98939915Y-80842047D01*
X98939912Y-80842046D01*
X98837157Y-80823743D01*
X98707272Y-80800607D01*
X98614157Y-80799469D01*
X98470982Y-80797719D01*
X98470980Y-80797719D01*
X98465812Y-80797656D01*
X98227112Y-80834183D01*
X97997583Y-80909204D01*
X97992995Y-80911592D01*
X97992991Y-80911594D01*
X97871001Y-80975098D01*
X97783389Y-81020706D01*
X97601462Y-81157301D01*
X97534981Y-81182206D01*
X97525727Y-81182539D01*
X97172791Y-81182237D01*
X97067344Y-81182147D01*
X96999240Y-81162086D01*
X96989360Y-81155029D01*
X96848096Y-81043465D01*
X96848092Y-81043463D01*
X96844041Y-81040263D01*
X96835524Y-81035561D01*
X96758987Y-80993311D01*
X96632635Y-80923561D01*
X96627766Y-80921837D01*
X96627762Y-80921835D01*
X96409883Y-80844680D01*
X96409879Y-80844679D01*
X96405008Y-80842954D01*
X96399915Y-80842047D01*
X96399912Y-80842046D01*
X96297157Y-80823743D01*
X96167272Y-80800607D01*
X96074157Y-80799469D01*
X95930982Y-80797719D01*
X95930980Y-80797719D01*
X95925812Y-80797656D01*
X95687112Y-80834183D01*
X95457583Y-80909204D01*
X95452995Y-80911592D01*
X95452991Y-80911594D01*
X95331001Y-80975098D01*
X95243389Y-81020706D01*
X95239259Y-81023807D01*
X95239253Y-81023811D01*
X95064354Y-81155130D01*
X94997870Y-81180036D01*
X94988598Y-81180370D01*
X91037412Y-81176991D01*
X89431362Y-81175618D01*
X89363259Y-81155558D01*
X89316812Y-81101862D01*
X89306768Y-81031580D01*
X89336316Y-80967024D01*
X89342375Y-80960523D01*
X89489698Y-80813200D01*
X89495439Y-80805002D01*
X89617866Y-80630157D01*
X89621023Y-80625649D01*
X89623346Y-80620667D01*
X89623349Y-80620662D01*
X89715461Y-80423125D01*
X89715461Y-80423124D01*
X89717784Y-80418143D01*
X89777043Y-80196987D01*
X89796998Y-79968900D01*
X89777043Y-79740813D01*
X89717784Y-79519657D01*
X89715461Y-79514675D01*
X89623349Y-79317138D01*
X89623346Y-79317133D01*
X89621023Y-79312151D01*
X89489698Y-79124600D01*
X89327800Y-78962702D01*
X89323292Y-78959545D01*
X89323289Y-78959543D01*
X89245111Y-78904802D01*
X89140249Y-78831377D01*
X89135267Y-78829054D01*
X89135262Y-78829051D01*
X88937725Y-78736939D01*
X88937724Y-78736939D01*
X88932743Y-78734616D01*
X88927435Y-78733194D01*
X88927433Y-78733193D01*
X88716902Y-78676781D01*
X88716900Y-78676781D01*
X88711587Y-78675357D01*
X88483500Y-78655402D01*
X88255413Y-78675357D01*
X88250100Y-78676781D01*
X88250098Y-78676781D01*
X88039567Y-78733193D01*
X88039565Y-78733194D01*
X88034257Y-78734616D01*
X88029276Y-78736939D01*
X88029275Y-78736939D01*
X87831738Y-78829051D01*
X87831733Y-78829054D01*
X87826751Y-78831377D01*
X87721889Y-78904802D01*
X87643711Y-78959543D01*
X87643708Y-78959545D01*
X87639200Y-78962702D01*
X87477302Y-79124600D01*
X87345977Y-79312151D01*
X87343654Y-79317133D01*
X87343651Y-79317138D01*
X87251539Y-79514675D01*
X87249216Y-79519657D01*
X87189957Y-79740813D01*
X87170002Y-79968900D01*
X87189957Y-80196987D01*
X87249216Y-80418143D01*
X87251539Y-80423124D01*
X87251539Y-80423125D01*
X87343651Y-80620662D01*
X87343654Y-80620667D01*
X87345977Y-80625649D01*
X87349134Y-80630157D01*
X87471562Y-80805002D01*
X87477302Y-80813200D01*
X87623003Y-80958901D01*
X87657029Y-81021213D01*
X87651964Y-81092028D01*
X87609417Y-81148864D01*
X87542897Y-81173675D01*
X87533812Y-81173996D01*
X73154843Y-81161701D01*
X73086741Y-81141641D01*
X73054128Y-81111268D01*
X73012961Y-81056339D01*
X72896405Y-80968985D01*
X72760016Y-80917855D01*
X72704140Y-80911785D01*
X72701231Y-80911469D01*
X72697834Y-80911100D01*
X70681566Y-80911100D01*
X70678169Y-80911469D01*
X70675260Y-80911785D01*
X70619384Y-80917855D01*
X70482995Y-80968985D01*
X70366439Y-81056339D01*
X70361059Y-81063518D01*
X70361057Y-81063520D01*
X70327150Y-81108762D01*
X70270291Y-81151277D01*
X70226218Y-81159197D01*
X70009725Y-81159012D01*
X69948944Y-81143322D01*
X69753735Y-81035561D01*
X69748866Y-81033837D01*
X69748862Y-81033835D01*
X69530983Y-80956680D01*
X69530979Y-80956679D01*
X69526108Y-80954954D01*
X69521015Y-80954047D01*
X69521012Y-80954046D01*
X69420125Y-80936076D01*
X69288372Y-80912607D01*
X69195257Y-80911469D01*
X69052082Y-80909719D01*
X69052080Y-80909719D01*
X69046912Y-80909656D01*
X68808212Y-80946183D01*
X68578683Y-81021204D01*
X68574095Y-81023592D01*
X68574091Y-81023594D01*
X68369080Y-81130316D01*
X68364489Y-81132706D01*
X68360362Y-81135805D01*
X68356615Y-81138164D01*
X68289371Y-81157540D01*
X67909670Y-81157216D01*
X67465784Y-81156836D01*
X67405004Y-81141147D01*
X67213735Y-81035561D01*
X67208866Y-81033837D01*
X67208862Y-81033835D01*
X66990983Y-80956680D01*
X66990979Y-80956679D01*
X66986108Y-80954954D01*
X66981015Y-80954047D01*
X66981012Y-80954046D01*
X66880125Y-80936076D01*
X66748372Y-80912607D01*
X66655257Y-80911469D01*
X66512082Y-80909719D01*
X66512080Y-80909719D01*
X66506912Y-80909656D01*
X66268212Y-80946183D01*
X66038683Y-81021204D01*
X66034095Y-81023592D01*
X66034091Y-81023594D01*
X65931586Y-81076955D01*
X65824489Y-81132706D01*
X65820349Y-81135814D01*
X65820067Y-81135992D01*
X65752817Y-81155372D01*
X63195657Y-81153185D01*
X62296245Y-81152416D01*
X62228142Y-81132356D01*
X62181695Y-81078660D01*
X62170355Y-81027034D01*
X62170338Y-81023594D01*
X62150309Y-76942800D01*
X148473502Y-76942800D01*
X148493457Y-77170887D01*
X148552716Y-77392043D01*
X148555039Y-77397024D01*
X148555039Y-77397025D01*
X148647151Y-77594562D01*
X148647154Y-77594567D01*
X148649477Y-77599549D01*
X148780802Y-77787100D01*
X148942700Y-77948998D01*
X148947208Y-77952155D01*
X148947211Y-77952157D01*
X149025389Y-78006898D01*
X149130251Y-78080323D01*
X149135233Y-78082646D01*
X149135238Y-78082649D01*
X149332775Y-78174761D01*
X149337757Y-78177084D01*
X149343065Y-78178506D01*
X149343067Y-78178507D01*
X149553598Y-78234919D01*
X149553600Y-78234919D01*
X149558913Y-78236343D01*
X149787000Y-78256298D01*
X150015087Y-78236343D01*
X150020400Y-78234919D01*
X150020402Y-78234919D01*
X150230933Y-78178507D01*
X150230935Y-78178506D01*
X150236243Y-78177084D01*
X150241225Y-78174761D01*
X150438762Y-78082649D01*
X150438767Y-78082646D01*
X150443749Y-78080323D01*
X150548611Y-78006898D01*
X150626789Y-77952157D01*
X150626792Y-77952155D01*
X150631300Y-77948998D01*
X150793198Y-77787100D01*
X150924523Y-77599549D01*
X150926846Y-77594567D01*
X150926849Y-77594562D01*
X151018961Y-77397025D01*
X151018961Y-77397024D01*
X151021284Y-77392043D01*
X151080543Y-77170887D01*
X151100498Y-76942800D01*
X151080543Y-76714713D01*
X151021284Y-76493557D01*
X151018961Y-76488575D01*
X150926849Y-76291038D01*
X150926846Y-76291033D01*
X150924523Y-76286051D01*
X150793198Y-76098500D01*
X150631300Y-75936602D01*
X150626792Y-75933445D01*
X150626789Y-75933443D01*
X150548611Y-75878702D01*
X150443749Y-75805277D01*
X150438767Y-75802954D01*
X150438762Y-75802951D01*
X150241225Y-75710839D01*
X150241224Y-75710839D01*
X150236243Y-75708516D01*
X150230935Y-75707094D01*
X150230933Y-75707093D01*
X150020402Y-75650681D01*
X150020400Y-75650681D01*
X150015087Y-75649257D01*
X149787000Y-75629302D01*
X149558913Y-75649257D01*
X149553600Y-75650681D01*
X149553598Y-75650681D01*
X149343067Y-75707093D01*
X149343065Y-75707094D01*
X149337757Y-75708516D01*
X149332776Y-75710839D01*
X149332775Y-75710839D01*
X149135238Y-75802951D01*
X149135233Y-75802954D01*
X149130251Y-75805277D01*
X149025389Y-75878702D01*
X148947211Y-75933443D01*
X148947208Y-75933445D01*
X148942700Y-75936602D01*
X148780802Y-76098500D01*
X148649477Y-76286051D01*
X148647154Y-76291033D01*
X148647151Y-76291038D01*
X148555039Y-76488575D01*
X148552716Y-76493557D01*
X148493457Y-76714713D01*
X148473502Y-76942800D01*
X62150309Y-76942800D01*
X62137699Y-74373700D01*
X117144702Y-74373700D01*
X117164657Y-74601787D01*
X117166081Y-74607100D01*
X117166081Y-74607102D01*
X117218462Y-74802587D01*
X117223916Y-74822943D01*
X117226239Y-74827924D01*
X117226239Y-74827925D01*
X117318351Y-75025462D01*
X117318354Y-75025467D01*
X117320677Y-75030449D01*
X117452002Y-75218000D01*
X117613900Y-75379898D01*
X117618408Y-75383055D01*
X117618411Y-75383057D01*
X117696589Y-75437798D01*
X117801451Y-75511223D01*
X117806433Y-75513546D01*
X117806438Y-75513549D01*
X117957083Y-75583795D01*
X118008957Y-75607984D01*
X118014265Y-75609406D01*
X118014267Y-75609407D01*
X118224798Y-75665819D01*
X118224800Y-75665819D01*
X118230113Y-75667243D01*
X118458200Y-75687198D01*
X118686287Y-75667243D01*
X118691600Y-75665819D01*
X118691602Y-75665819D01*
X118902133Y-75609407D01*
X118902135Y-75609406D01*
X118907443Y-75607984D01*
X118959317Y-75583795D01*
X119109962Y-75513549D01*
X119109967Y-75513546D01*
X119114949Y-75511223D01*
X119219811Y-75437798D01*
X119297989Y-75383057D01*
X119297992Y-75383055D01*
X119302500Y-75379898D01*
X119464398Y-75218000D01*
X119595723Y-75030449D01*
X119598046Y-75025467D01*
X119598049Y-75025462D01*
X119690161Y-74827925D01*
X119690161Y-74827924D01*
X119692484Y-74822943D01*
X119697939Y-74802587D01*
X119750319Y-74607102D01*
X119750319Y-74607100D01*
X119751743Y-74601787D01*
X119771698Y-74373700D01*
X119751743Y-74145613D01*
X119692484Y-73924457D01*
X119636408Y-73804201D01*
X119598049Y-73721938D01*
X119598046Y-73721933D01*
X119595723Y-73716951D01*
X119464398Y-73529400D01*
X119302500Y-73367502D01*
X119297992Y-73364345D01*
X119297989Y-73364343D01*
X119219811Y-73309602D01*
X119114949Y-73236177D01*
X119109967Y-73233854D01*
X119109962Y-73233851D01*
X118912425Y-73141739D01*
X118912424Y-73141739D01*
X118907443Y-73139416D01*
X118902135Y-73137994D01*
X118902133Y-73137993D01*
X118691602Y-73081581D01*
X118691600Y-73081581D01*
X118686287Y-73080157D01*
X118458200Y-73060202D01*
X118230113Y-73080157D01*
X118224800Y-73081581D01*
X118224798Y-73081581D01*
X118014267Y-73137993D01*
X118014265Y-73137994D01*
X118008957Y-73139416D01*
X118003976Y-73141739D01*
X118003975Y-73141739D01*
X117806438Y-73233851D01*
X117806433Y-73233854D01*
X117801451Y-73236177D01*
X117696589Y-73309602D01*
X117618411Y-73364343D01*
X117618408Y-73364345D01*
X117613900Y-73367502D01*
X117452002Y-73529400D01*
X117320677Y-73716951D01*
X117318354Y-73721933D01*
X117318351Y-73721938D01*
X117279992Y-73804201D01*
X117223916Y-73924457D01*
X117164657Y-74145613D01*
X117144702Y-74373700D01*
X62137699Y-74373700D01*
X62121349Y-71042526D01*
X69183050Y-71042526D01*
X69195947Y-71311019D01*
X69248388Y-71574656D01*
X69339220Y-71827646D01*
X69466450Y-72064431D01*
X69469241Y-72068168D01*
X69469245Y-72068175D01*
X69550887Y-72177506D01*
X69627281Y-72279810D01*
X69630590Y-72283090D01*
X69630595Y-72283096D01*
X69814863Y-72465762D01*
X69818180Y-72469050D01*
X69821942Y-72471808D01*
X69821945Y-72471811D01*
X69870912Y-72507715D01*
X70034954Y-72627995D01*
X70039089Y-72630171D01*
X70039093Y-72630173D01*
X70268698Y-72750975D01*
X70272840Y-72753154D01*
X70526613Y-72841775D01*
X70531206Y-72842647D01*
X70786109Y-72891042D01*
X70786112Y-72891042D01*
X70790698Y-72891913D01*
X70918370Y-72896929D01*
X71054625Y-72902283D01*
X71054630Y-72902283D01*
X71059293Y-72902466D01*
X71163607Y-72891042D01*
X71321844Y-72873713D01*
X71321850Y-72873712D01*
X71326497Y-72873203D01*
X71438302Y-72843767D01*
X71581918Y-72805956D01*
X71581920Y-72805955D01*
X71586441Y-72804765D01*
X71693795Y-72758642D01*
X71829120Y-72700502D01*
X71829122Y-72700501D01*
X71833414Y-72698657D01*
X71952071Y-72625230D01*
X72058017Y-72559669D01*
X72058021Y-72559666D01*
X72061990Y-72557210D01*
X72202648Y-72438134D01*
X74267500Y-72438134D01*
X74274255Y-72500316D01*
X74325385Y-72636705D01*
X74412739Y-72753261D01*
X74529295Y-72840615D01*
X74665684Y-72891745D01*
X74727866Y-72898500D01*
X77424134Y-72898500D01*
X77486316Y-72891745D01*
X77622705Y-72840615D01*
X77739261Y-72753261D01*
X77826615Y-72636705D01*
X77877745Y-72500316D01*
X77884500Y-72438134D01*
X77884500Y-71042526D01*
X99663050Y-71042526D01*
X99675947Y-71311019D01*
X99728388Y-71574656D01*
X99819220Y-71827646D01*
X99946450Y-72064431D01*
X99949241Y-72068168D01*
X99949245Y-72068175D01*
X100030887Y-72177506D01*
X100107281Y-72279810D01*
X100110590Y-72283090D01*
X100110595Y-72283096D01*
X100294863Y-72465762D01*
X100298180Y-72469050D01*
X100301942Y-72471808D01*
X100301945Y-72471811D01*
X100350912Y-72507715D01*
X100514954Y-72627995D01*
X100519089Y-72630171D01*
X100519093Y-72630173D01*
X100748698Y-72750975D01*
X100752840Y-72753154D01*
X101006613Y-72841775D01*
X101011206Y-72842647D01*
X101266109Y-72891042D01*
X101266112Y-72891042D01*
X101270698Y-72891913D01*
X101398370Y-72896929D01*
X101534625Y-72902283D01*
X101534630Y-72902283D01*
X101539293Y-72902466D01*
X101643607Y-72891042D01*
X101801844Y-72873713D01*
X101801850Y-72873712D01*
X101806497Y-72873203D01*
X101918302Y-72843767D01*
X102061918Y-72805956D01*
X102061920Y-72805955D01*
X102066441Y-72804765D01*
X102173795Y-72758642D01*
X102309120Y-72700502D01*
X102309122Y-72700501D01*
X102313414Y-72698657D01*
X102432071Y-72625230D01*
X102538017Y-72559669D01*
X102538021Y-72559666D01*
X102541990Y-72557210D01*
X102682648Y-72438134D01*
X104747500Y-72438134D01*
X104754255Y-72500316D01*
X104805385Y-72636705D01*
X104892739Y-72753261D01*
X105009295Y-72840615D01*
X105145684Y-72891745D01*
X105207866Y-72898500D01*
X107904134Y-72898500D01*
X107966316Y-72891745D01*
X108102705Y-72840615D01*
X108219261Y-72753261D01*
X108306615Y-72636705D01*
X108357745Y-72500316D01*
X108364500Y-72438134D01*
X108364500Y-71042526D01*
X130143050Y-71042526D01*
X130155947Y-71311019D01*
X130208388Y-71574656D01*
X130299220Y-71827646D01*
X130426450Y-72064431D01*
X130429241Y-72068168D01*
X130429245Y-72068175D01*
X130510887Y-72177506D01*
X130587281Y-72279810D01*
X130590590Y-72283090D01*
X130590595Y-72283096D01*
X130774863Y-72465762D01*
X130778180Y-72469050D01*
X130781942Y-72471808D01*
X130781945Y-72471811D01*
X130830912Y-72507715D01*
X130994954Y-72627995D01*
X130999089Y-72630171D01*
X130999093Y-72630173D01*
X131228698Y-72750975D01*
X131232840Y-72753154D01*
X131486613Y-72841775D01*
X131491206Y-72842647D01*
X131746109Y-72891042D01*
X131746112Y-72891042D01*
X131750698Y-72891913D01*
X131878370Y-72896929D01*
X132014625Y-72902283D01*
X132014630Y-72902283D01*
X132019293Y-72902466D01*
X132123607Y-72891042D01*
X132281844Y-72873713D01*
X132281850Y-72873712D01*
X132286497Y-72873203D01*
X132398302Y-72843767D01*
X132541918Y-72805956D01*
X132541920Y-72805955D01*
X132546441Y-72804765D01*
X132653795Y-72758642D01*
X132789120Y-72700502D01*
X132789122Y-72700501D01*
X132793414Y-72698657D01*
X132912071Y-72625230D01*
X133018017Y-72559669D01*
X133018021Y-72559666D01*
X133021990Y-72557210D01*
X133162648Y-72438134D01*
X135227500Y-72438134D01*
X135234255Y-72500316D01*
X135285385Y-72636705D01*
X135372739Y-72753261D01*
X135489295Y-72840615D01*
X135625684Y-72891745D01*
X135687866Y-72898500D01*
X138384134Y-72898500D01*
X138446316Y-72891745D01*
X138582705Y-72840615D01*
X138699261Y-72753261D01*
X138786615Y-72636705D01*
X138837745Y-72500316D01*
X138844500Y-72438134D01*
X138844500Y-71042526D01*
X160623050Y-71042526D01*
X160635947Y-71311019D01*
X160688388Y-71574656D01*
X160779220Y-71827646D01*
X160906450Y-72064431D01*
X160909241Y-72068168D01*
X160909245Y-72068175D01*
X160990887Y-72177506D01*
X161067281Y-72279810D01*
X161070590Y-72283090D01*
X161070595Y-72283096D01*
X161254863Y-72465762D01*
X161258180Y-72469050D01*
X161261942Y-72471808D01*
X161261945Y-72471811D01*
X161310912Y-72507715D01*
X161474954Y-72627995D01*
X161479089Y-72630171D01*
X161479093Y-72630173D01*
X161708698Y-72750975D01*
X161712840Y-72753154D01*
X161966613Y-72841775D01*
X161971206Y-72842647D01*
X162226109Y-72891042D01*
X162226112Y-72891042D01*
X162230698Y-72891913D01*
X162358370Y-72896929D01*
X162494625Y-72902283D01*
X162494630Y-72902283D01*
X162499293Y-72902466D01*
X162603607Y-72891042D01*
X162761844Y-72873713D01*
X162761850Y-72873712D01*
X162766497Y-72873203D01*
X162878302Y-72843767D01*
X163021918Y-72805956D01*
X163021920Y-72805955D01*
X163026441Y-72804765D01*
X163133795Y-72758642D01*
X163269120Y-72700502D01*
X163269122Y-72700501D01*
X163273414Y-72698657D01*
X163392071Y-72625230D01*
X163498017Y-72559669D01*
X163498021Y-72559666D01*
X163501990Y-72557210D01*
X163642648Y-72438134D01*
X165707500Y-72438134D01*
X165714255Y-72500316D01*
X165765385Y-72636705D01*
X165852739Y-72753261D01*
X165969295Y-72840615D01*
X166105684Y-72891745D01*
X166167866Y-72898500D01*
X168864134Y-72898500D01*
X168926316Y-72891745D01*
X169062705Y-72840615D01*
X169179261Y-72753261D01*
X169266615Y-72636705D01*
X169317745Y-72500316D01*
X169324500Y-72438134D01*
X169324500Y-69741866D01*
X169317745Y-69679684D01*
X169266615Y-69543295D01*
X169179261Y-69426739D01*
X169062705Y-69339385D01*
X168926316Y-69288255D01*
X168864134Y-69281500D01*
X166167866Y-69281500D01*
X166105684Y-69288255D01*
X165969295Y-69339385D01*
X165852739Y-69426739D01*
X165765385Y-69543295D01*
X165714255Y-69679684D01*
X165707500Y-69741866D01*
X165707500Y-72438134D01*
X163642648Y-72438134D01*
X163707149Y-72383530D01*
X163884382Y-72181434D01*
X164029797Y-71955361D01*
X164140199Y-71710278D01*
X164177209Y-71579051D01*
X164211893Y-71456072D01*
X164211894Y-71456069D01*
X164213163Y-71451568D01*
X164231043Y-71311019D01*
X164246688Y-71188045D01*
X164246688Y-71188041D01*
X164247086Y-71184915D01*
X164249571Y-71090000D01*
X164229650Y-70821937D01*
X164228619Y-70817379D01*
X164171361Y-70564331D01*
X164171360Y-70564326D01*
X164170327Y-70559763D01*
X164072902Y-70309238D01*
X163939518Y-70075864D01*
X163773105Y-69864769D01*
X163577317Y-69680591D01*
X163379407Y-69543295D01*
X163360299Y-69530039D01*
X163360296Y-69530037D01*
X163356457Y-69527374D01*
X163352264Y-69525306D01*
X163119564Y-69410551D01*
X163119561Y-69410550D01*
X163115376Y-69408486D01*
X163067745Y-69393239D01*
X162889657Y-69336233D01*
X162859370Y-69326538D01*
X162854763Y-69325788D01*
X162854760Y-69325787D01*
X162641337Y-69291029D01*
X162594063Y-69283330D01*
X162463719Y-69281624D01*
X162329961Y-69279873D01*
X162329958Y-69279873D01*
X162325284Y-69279812D01*
X162058937Y-69316060D01*
X161800874Y-69391278D01*
X161556763Y-69503815D01*
X161552854Y-69506378D01*
X161335881Y-69648631D01*
X161335876Y-69648635D01*
X161331968Y-69651197D01*
X161131426Y-69830188D01*
X160959544Y-70036854D01*
X160820096Y-70266656D01*
X160716148Y-70514545D01*
X160649981Y-70775077D01*
X160623050Y-71042526D01*
X138844500Y-71042526D01*
X138844500Y-69741866D01*
X138837745Y-69679684D01*
X138786615Y-69543295D01*
X138699261Y-69426739D01*
X138582705Y-69339385D01*
X138446316Y-69288255D01*
X138384134Y-69281500D01*
X135687866Y-69281500D01*
X135625684Y-69288255D01*
X135489295Y-69339385D01*
X135372739Y-69426739D01*
X135285385Y-69543295D01*
X135234255Y-69679684D01*
X135227500Y-69741866D01*
X135227500Y-72438134D01*
X133162648Y-72438134D01*
X133227149Y-72383530D01*
X133404382Y-72181434D01*
X133549797Y-71955361D01*
X133660199Y-71710278D01*
X133697209Y-71579051D01*
X133731893Y-71456072D01*
X133731894Y-71456069D01*
X133733163Y-71451568D01*
X133751043Y-71311019D01*
X133766688Y-71188045D01*
X133766688Y-71188041D01*
X133767086Y-71184915D01*
X133769571Y-71090000D01*
X133749650Y-70821937D01*
X133748619Y-70817379D01*
X133691361Y-70564331D01*
X133691360Y-70564326D01*
X133690327Y-70559763D01*
X133592902Y-70309238D01*
X133459518Y-70075864D01*
X133293105Y-69864769D01*
X133097317Y-69680591D01*
X132899407Y-69543295D01*
X132880299Y-69530039D01*
X132880296Y-69530037D01*
X132876457Y-69527374D01*
X132872264Y-69525306D01*
X132639564Y-69410551D01*
X132639561Y-69410550D01*
X132635376Y-69408486D01*
X132587745Y-69393239D01*
X132409657Y-69336233D01*
X132379370Y-69326538D01*
X132374763Y-69325788D01*
X132374760Y-69325787D01*
X132161337Y-69291029D01*
X132114063Y-69283330D01*
X131983719Y-69281624D01*
X131849961Y-69279873D01*
X131849958Y-69279873D01*
X131845284Y-69279812D01*
X131578937Y-69316060D01*
X131320874Y-69391278D01*
X131076763Y-69503815D01*
X131072854Y-69506378D01*
X130855881Y-69648631D01*
X130855876Y-69648635D01*
X130851968Y-69651197D01*
X130651426Y-69830188D01*
X130479544Y-70036854D01*
X130340096Y-70266656D01*
X130236148Y-70514545D01*
X130169981Y-70775077D01*
X130143050Y-71042526D01*
X108364500Y-71042526D01*
X108364500Y-69741866D01*
X108357745Y-69679684D01*
X108306615Y-69543295D01*
X108219261Y-69426739D01*
X108102705Y-69339385D01*
X107966316Y-69288255D01*
X107904134Y-69281500D01*
X105207866Y-69281500D01*
X105145684Y-69288255D01*
X105009295Y-69339385D01*
X104892739Y-69426739D01*
X104805385Y-69543295D01*
X104754255Y-69679684D01*
X104747500Y-69741866D01*
X104747500Y-72438134D01*
X102682648Y-72438134D01*
X102747149Y-72383530D01*
X102924382Y-72181434D01*
X103069797Y-71955361D01*
X103180199Y-71710278D01*
X103217209Y-71579051D01*
X103251893Y-71456072D01*
X103251894Y-71456069D01*
X103253163Y-71451568D01*
X103271043Y-71311019D01*
X103286688Y-71188045D01*
X103286688Y-71188041D01*
X103287086Y-71184915D01*
X103289571Y-71090000D01*
X103269650Y-70821937D01*
X103268619Y-70817379D01*
X103211361Y-70564331D01*
X103211360Y-70564326D01*
X103210327Y-70559763D01*
X103112902Y-70309238D01*
X102979518Y-70075864D01*
X102813105Y-69864769D01*
X102617317Y-69680591D01*
X102419407Y-69543295D01*
X102400299Y-69530039D01*
X102400296Y-69530037D01*
X102396457Y-69527374D01*
X102392264Y-69525306D01*
X102159564Y-69410551D01*
X102159561Y-69410550D01*
X102155376Y-69408486D01*
X102107745Y-69393239D01*
X101929657Y-69336233D01*
X101899370Y-69326538D01*
X101894763Y-69325788D01*
X101894760Y-69325787D01*
X101681337Y-69291029D01*
X101634063Y-69283330D01*
X101503719Y-69281624D01*
X101369961Y-69279873D01*
X101369958Y-69279873D01*
X101365284Y-69279812D01*
X101098937Y-69316060D01*
X100840874Y-69391278D01*
X100596763Y-69503815D01*
X100592854Y-69506378D01*
X100375881Y-69648631D01*
X100375876Y-69648635D01*
X100371968Y-69651197D01*
X100171426Y-69830188D01*
X99999544Y-70036854D01*
X99860096Y-70266656D01*
X99756148Y-70514545D01*
X99689981Y-70775077D01*
X99663050Y-71042526D01*
X77884500Y-71042526D01*
X77884500Y-69741866D01*
X77877745Y-69679684D01*
X77870253Y-69659700D01*
X87795502Y-69659700D01*
X87815457Y-69887787D01*
X87816881Y-69893100D01*
X87816881Y-69893102D01*
X87856470Y-70040847D01*
X87874716Y-70108943D01*
X87877039Y-70113924D01*
X87877039Y-70113925D01*
X87969151Y-70311462D01*
X87969154Y-70311467D01*
X87971477Y-70316449D01*
X88102802Y-70504000D01*
X88264700Y-70665898D01*
X88269208Y-70669055D01*
X88269211Y-70669057D01*
X88347389Y-70723798D01*
X88452251Y-70797223D01*
X88457233Y-70799546D01*
X88457238Y-70799549D01*
X88515233Y-70826592D01*
X88659757Y-70893984D01*
X88665065Y-70895406D01*
X88665067Y-70895407D01*
X88875598Y-70951819D01*
X88875600Y-70951819D01*
X88880913Y-70953243D01*
X89109000Y-70973198D01*
X89337087Y-70953243D01*
X89342400Y-70951819D01*
X89342402Y-70951819D01*
X89552933Y-70895407D01*
X89552935Y-70895406D01*
X89558243Y-70893984D01*
X89702767Y-70826592D01*
X89760762Y-70799549D01*
X89760767Y-70799546D01*
X89765749Y-70797223D01*
X89870611Y-70723798D01*
X89948789Y-70669057D01*
X89948792Y-70669055D01*
X89953300Y-70665898D01*
X90115198Y-70504000D01*
X90246523Y-70316449D01*
X90248846Y-70311467D01*
X90248849Y-70311462D01*
X90340961Y-70113925D01*
X90340961Y-70113924D01*
X90343284Y-70108943D01*
X90361531Y-70040847D01*
X90401119Y-69893102D01*
X90401119Y-69893100D01*
X90402543Y-69887787D01*
X90422498Y-69659700D01*
X90402543Y-69431613D01*
X90399795Y-69421358D01*
X90344707Y-69215767D01*
X90344706Y-69215765D01*
X90343284Y-69210457D01*
X90340961Y-69205475D01*
X90248849Y-69007938D01*
X90248846Y-69007933D01*
X90246523Y-69002951D01*
X90115198Y-68815400D01*
X89953300Y-68653502D01*
X89948792Y-68650345D01*
X89948789Y-68650343D01*
X89870611Y-68595602D01*
X89765749Y-68522177D01*
X89760767Y-68519854D01*
X89760762Y-68519851D01*
X89563225Y-68427739D01*
X89563224Y-68427739D01*
X89558243Y-68425416D01*
X89552935Y-68423994D01*
X89552933Y-68423993D01*
X89342402Y-68367581D01*
X89342400Y-68367581D01*
X89337087Y-68366157D01*
X89109000Y-68346202D01*
X88880913Y-68366157D01*
X88875600Y-68367581D01*
X88875598Y-68367581D01*
X88665067Y-68423993D01*
X88665065Y-68423994D01*
X88659757Y-68425416D01*
X88654776Y-68427739D01*
X88654775Y-68427739D01*
X88457238Y-68519851D01*
X88457233Y-68519854D01*
X88452251Y-68522177D01*
X88347389Y-68595602D01*
X88269211Y-68650343D01*
X88269208Y-68650345D01*
X88264700Y-68653502D01*
X88102802Y-68815400D01*
X87971477Y-69002951D01*
X87969154Y-69007933D01*
X87969151Y-69007938D01*
X87877039Y-69205475D01*
X87874716Y-69210457D01*
X87873294Y-69215765D01*
X87873293Y-69215767D01*
X87818205Y-69421358D01*
X87815457Y-69431613D01*
X87795502Y-69659700D01*
X77870253Y-69659700D01*
X77826615Y-69543295D01*
X77739261Y-69426739D01*
X77622705Y-69339385D01*
X77486316Y-69288255D01*
X77424134Y-69281500D01*
X74727866Y-69281500D01*
X74665684Y-69288255D01*
X74529295Y-69339385D01*
X74412739Y-69426739D01*
X74325385Y-69543295D01*
X74274255Y-69679684D01*
X74267500Y-69741866D01*
X74267500Y-72438134D01*
X72202648Y-72438134D01*
X72267149Y-72383530D01*
X72444382Y-72181434D01*
X72589797Y-71955361D01*
X72700199Y-71710278D01*
X72737209Y-71579051D01*
X72771893Y-71456072D01*
X72771894Y-71456069D01*
X72773163Y-71451568D01*
X72791043Y-71311019D01*
X72806688Y-71188045D01*
X72806688Y-71188041D01*
X72807086Y-71184915D01*
X72809571Y-71090000D01*
X72789650Y-70821937D01*
X72788619Y-70817379D01*
X72731361Y-70564331D01*
X72731360Y-70564326D01*
X72730327Y-70559763D01*
X72632902Y-70309238D01*
X72499518Y-70075864D01*
X72333105Y-69864769D01*
X72137317Y-69680591D01*
X71939407Y-69543295D01*
X71920299Y-69530039D01*
X71920296Y-69530037D01*
X71916457Y-69527374D01*
X71912264Y-69525306D01*
X71679564Y-69410551D01*
X71679561Y-69410550D01*
X71675376Y-69408486D01*
X71627745Y-69393239D01*
X71449657Y-69336233D01*
X71419370Y-69326538D01*
X71414763Y-69325788D01*
X71414760Y-69325787D01*
X71201337Y-69291029D01*
X71154063Y-69283330D01*
X71023719Y-69281624D01*
X70889961Y-69279873D01*
X70889958Y-69279873D01*
X70885284Y-69279812D01*
X70618937Y-69316060D01*
X70360874Y-69391278D01*
X70116763Y-69503815D01*
X70112854Y-69506378D01*
X69895881Y-69648631D01*
X69895876Y-69648635D01*
X69891968Y-69651197D01*
X69691426Y-69830188D01*
X69519544Y-70036854D01*
X69380096Y-70266656D01*
X69276148Y-70514545D01*
X69209981Y-70775077D01*
X69183050Y-71042526D01*
X62121349Y-71042526D01*
X62106620Y-68041602D01*
X62126287Y-67973386D01*
X62179714Y-67926631D01*
X62232618Y-67914986D01*
X151050313Y-67914986D01*
X151082923Y-67919279D01*
G37*
%TD.AperFunction*%
%TD*%
%TA.AperFunction,Conductor*%
%TO.N,Net-(Q13-Pad3)*%
G36*
X179768501Y-103340567D02*
G01*
X181246640Y-103346603D01*
X181314677Y-103366883D01*
X181360950Y-103420728D01*
X181372124Y-103472623D01*
X181371882Y-104928595D01*
X181370805Y-111402575D01*
X181370389Y-113899758D01*
X181350376Y-113967875D01*
X181296712Y-114014359D01*
X181245018Y-114025735D01*
X176095941Y-114051352D01*
X172719843Y-114068148D01*
X172651623Y-114048486D01*
X172604864Y-113995062D01*
X172593216Y-113941994D01*
X172595243Y-112300609D01*
X172615329Y-112232513D01*
X172627828Y-112216210D01*
X172675678Y-112163347D01*
X172732353Y-112100733D01*
X172875633Y-111883849D01*
X172984459Y-111647788D01*
X173056326Y-111397982D01*
X173089580Y-111140179D01*
X173083456Y-110880313D01*
X173038094Y-110624363D01*
X172954540Y-110378219D01*
X172834715Y-110147546D01*
X172681377Y-109937653D01*
X172678005Y-109934263D01*
X172677997Y-109934254D01*
X172635001Y-109891032D01*
X172601140Y-109828631D01*
X172598330Y-109802015D01*
X172600342Y-108173627D01*
X172620428Y-108105531D01*
X172674141Y-108059105D01*
X172726205Y-108047783D01*
X178062991Y-108042070D01*
X178063047Y-108028693D01*
X178071207Y-106065306D01*
X178094883Y-105992304D01*
X178141646Y-105927226D01*
X178144664Y-105923026D01*
X178251656Y-105706544D01*
X178267939Y-105652952D01*
X178320351Y-105480446D01*
X178320352Y-105480440D01*
X178321855Y-105475494D01*
X178353374Y-105236082D01*
X178355133Y-105164100D01*
X178335347Y-104923434D01*
X178276519Y-104689231D01*
X178180230Y-104467781D01*
X178098862Y-104342005D01*
X178078655Y-104273041D01*
X178082035Y-103459670D01*
X178102320Y-103391634D01*
X178156168Y-103345365D01*
X178208549Y-103334196D01*
X179768501Y-103340567D01*
G37*
%TD.AperFunction*%
%TD*%
%TA.AperFunction,Conductor*%
%TO.N,GND*%
G36*
X58373245Y-79107001D02*
G01*
X58419902Y-79160514D01*
X58431448Y-79213696D01*
X58389607Y-89990062D01*
X58354178Y-99114943D01*
X58353512Y-99286407D01*
X58333246Y-99354450D01*
X58286137Y-99397449D01*
X58262366Y-99409944D01*
X57560822Y-100111488D01*
X57553208Y-100125432D01*
X57553339Y-100127265D01*
X57557590Y-100133880D01*
X58263087Y-100839377D01*
X58281400Y-100849377D01*
X58331601Y-100899580D01*
X58347012Y-100960453D01*
X58344520Y-101602223D01*
X58324254Y-101670266D01*
X58270418Y-101716550D01*
X58218847Y-101727734D01*
X42391393Y-101768686D01*
X42323222Y-101748860D01*
X42276590Y-101695325D01*
X42265068Y-101642929D01*
X42259877Y-98949900D01*
X44038802Y-98949900D01*
X44058757Y-99177987D01*
X44118016Y-99399143D01*
X44120339Y-99404124D01*
X44120339Y-99404125D01*
X44212451Y-99601662D01*
X44212454Y-99601667D01*
X44214777Y-99606649D01*
X44346102Y-99794200D01*
X44508000Y-99956098D01*
X44512508Y-99959255D01*
X44512511Y-99959257D01*
X44590689Y-100013998D01*
X44695551Y-100087423D01*
X44700533Y-100089746D01*
X44700538Y-100089749D01*
X44898075Y-100181861D01*
X44903057Y-100184184D01*
X44908365Y-100185606D01*
X44908367Y-100185607D01*
X45118898Y-100242019D01*
X45118900Y-100242019D01*
X45124213Y-100243443D01*
X45352300Y-100263398D01*
X45580387Y-100243443D01*
X45585700Y-100242019D01*
X45585702Y-100242019D01*
X45796233Y-100185607D01*
X45796235Y-100185606D01*
X45801543Y-100184184D01*
X45806525Y-100181861D01*
X45929966Y-100124300D01*
X50875302Y-100124300D01*
X50895257Y-100352387D01*
X50896681Y-100357700D01*
X50896681Y-100357702D01*
X50933825Y-100496322D01*
X50954516Y-100573543D01*
X50956839Y-100578524D01*
X50956839Y-100578525D01*
X51048951Y-100776062D01*
X51048954Y-100776067D01*
X51051277Y-100781049D01*
X51054434Y-100785557D01*
X51134274Y-100899580D01*
X51182602Y-100968600D01*
X51344500Y-101130498D01*
X51349008Y-101133655D01*
X51349011Y-101133657D01*
X51427189Y-101188398D01*
X51532051Y-101261823D01*
X51537033Y-101264146D01*
X51537038Y-101264149D01*
X51733565Y-101355790D01*
X51739557Y-101358584D01*
X51744865Y-101360006D01*
X51744867Y-101360007D01*
X51955398Y-101416419D01*
X51955400Y-101416419D01*
X51960713Y-101417843D01*
X52188800Y-101437798D01*
X52416887Y-101417843D01*
X52422200Y-101416419D01*
X52422202Y-101416419D01*
X52632733Y-101360007D01*
X52632735Y-101360006D01*
X52638043Y-101358584D01*
X52644035Y-101355790D01*
X52840562Y-101264149D01*
X52840567Y-101264146D01*
X52845549Y-101261823D01*
X52919043Y-101210362D01*
X56467293Y-101210362D01*
X56476589Y-101222377D01*
X56527794Y-101258231D01*
X56537289Y-101263714D01*
X56734747Y-101355790D01*
X56745039Y-101359536D01*
X56955488Y-101415925D01*
X56966281Y-101417828D01*
X57183325Y-101436817D01*
X57194275Y-101436817D01*
X57411319Y-101417828D01*
X57422112Y-101415925D01*
X57632561Y-101359536D01*
X57642853Y-101355790D01*
X57840311Y-101263714D01*
X57849806Y-101258231D01*
X57901848Y-101221791D01*
X57910224Y-101211312D01*
X57903156Y-101197866D01*
X57201612Y-100496322D01*
X57187668Y-100488708D01*
X57185835Y-100488839D01*
X57179220Y-100493090D01*
X56473723Y-101198587D01*
X56467293Y-101210362D01*
X52919043Y-101210362D01*
X52950411Y-101188398D01*
X53028589Y-101133657D01*
X53028592Y-101133655D01*
X53033100Y-101130498D01*
X53194998Y-100968600D01*
X53243327Y-100899580D01*
X53323166Y-100785557D01*
X53326323Y-100781049D01*
X53328646Y-100776067D01*
X53328649Y-100776062D01*
X53420761Y-100578525D01*
X53420761Y-100578524D01*
X53423084Y-100573543D01*
X53443776Y-100496322D01*
X53480919Y-100357702D01*
X53480919Y-100357700D01*
X53482343Y-100352387D01*
X53501819Y-100129775D01*
X55876283Y-100129775D01*
X55895272Y-100346819D01*
X55897175Y-100357612D01*
X55953564Y-100568061D01*
X55957310Y-100578353D01*
X56049386Y-100775811D01*
X56054869Y-100785306D01*
X56091309Y-100837348D01*
X56101788Y-100845724D01*
X56115234Y-100838656D01*
X56816778Y-100137112D01*
X56824392Y-100123168D01*
X56824261Y-100121335D01*
X56820010Y-100114720D01*
X56114513Y-99409223D01*
X56102738Y-99402793D01*
X56090723Y-99412089D01*
X56054869Y-99463294D01*
X56049386Y-99472789D01*
X55957310Y-99670247D01*
X55953564Y-99680539D01*
X55897175Y-99890988D01*
X55895272Y-99901781D01*
X55876283Y-100118825D01*
X55876283Y-100129775D01*
X53501819Y-100129775D01*
X53502298Y-100124300D01*
X53482343Y-99896213D01*
X53445781Y-99759761D01*
X53424507Y-99680367D01*
X53424506Y-99680365D01*
X53423084Y-99675057D01*
X53328766Y-99472789D01*
X53328649Y-99472538D01*
X53328646Y-99472533D01*
X53326323Y-99467551D01*
X53247129Y-99354450D01*
X53198157Y-99284511D01*
X53198155Y-99284508D01*
X53194998Y-99280000D01*
X53033100Y-99118102D01*
X53028592Y-99114945D01*
X53028589Y-99114943D01*
X52917686Y-99037288D01*
X56467376Y-99037288D01*
X56474444Y-99050734D01*
X57175988Y-99752278D01*
X57189932Y-99759892D01*
X57191765Y-99759761D01*
X57198380Y-99755510D01*
X57903877Y-99050013D01*
X57910307Y-99038238D01*
X57901011Y-99026223D01*
X57849806Y-98990369D01*
X57840311Y-98984886D01*
X57642853Y-98892810D01*
X57632561Y-98889064D01*
X57422112Y-98832675D01*
X57411319Y-98830772D01*
X57194275Y-98811783D01*
X57183325Y-98811783D01*
X56966281Y-98830772D01*
X56955488Y-98832675D01*
X56745039Y-98889064D01*
X56734747Y-98892810D01*
X56537289Y-98984886D01*
X56527794Y-98990369D01*
X56475752Y-99026809D01*
X56467376Y-99037288D01*
X52917686Y-99037288D01*
X52902720Y-99026809D01*
X52845549Y-98986777D01*
X52840567Y-98984454D01*
X52840562Y-98984451D01*
X52643025Y-98892339D01*
X52643024Y-98892339D01*
X52638043Y-98890016D01*
X52632735Y-98888594D01*
X52632733Y-98888593D01*
X52422202Y-98832181D01*
X52422200Y-98832181D01*
X52416887Y-98830757D01*
X52188800Y-98810802D01*
X51960713Y-98830757D01*
X51955400Y-98832181D01*
X51955398Y-98832181D01*
X51744867Y-98888593D01*
X51744865Y-98888594D01*
X51739557Y-98890016D01*
X51734576Y-98892339D01*
X51734575Y-98892339D01*
X51537038Y-98984451D01*
X51537033Y-98984454D01*
X51532051Y-98986777D01*
X51474880Y-99026809D01*
X51349011Y-99114943D01*
X51349008Y-99114945D01*
X51344500Y-99118102D01*
X51182602Y-99280000D01*
X51179445Y-99284508D01*
X51179443Y-99284511D01*
X51130471Y-99354450D01*
X51051277Y-99467551D01*
X51048954Y-99472533D01*
X51048951Y-99472538D01*
X51048834Y-99472789D01*
X50954516Y-99675057D01*
X50953094Y-99680365D01*
X50953093Y-99680367D01*
X50931819Y-99759761D01*
X50895257Y-99896213D01*
X50875302Y-100124300D01*
X45929966Y-100124300D01*
X46004062Y-100089749D01*
X46004067Y-100089746D01*
X46009049Y-100087423D01*
X46113911Y-100013998D01*
X46192089Y-99959257D01*
X46192092Y-99959255D01*
X46196600Y-99956098D01*
X46358498Y-99794200D01*
X46489823Y-99606649D01*
X46492146Y-99601667D01*
X46492149Y-99601662D01*
X46584261Y-99404125D01*
X46584261Y-99404124D01*
X46586584Y-99399143D01*
X46645843Y-99177987D01*
X46665798Y-98949900D01*
X46645843Y-98721813D01*
X46586584Y-98500657D01*
X46584261Y-98495675D01*
X46492149Y-98298138D01*
X46492146Y-98298133D01*
X46489823Y-98293151D01*
X46358498Y-98105600D01*
X46196600Y-97943702D01*
X46192092Y-97940545D01*
X46192089Y-97940543D01*
X46113911Y-97885802D01*
X46009049Y-97812377D01*
X46004067Y-97810054D01*
X46004062Y-97810051D01*
X45806525Y-97717939D01*
X45806524Y-97717939D01*
X45801543Y-97715616D01*
X45796235Y-97714194D01*
X45796233Y-97714193D01*
X45585702Y-97657781D01*
X45585700Y-97657781D01*
X45580387Y-97656357D01*
X45352300Y-97636402D01*
X45124213Y-97656357D01*
X45118900Y-97657781D01*
X45118898Y-97657781D01*
X44908367Y-97714193D01*
X44908365Y-97714194D01*
X44903057Y-97715616D01*
X44898076Y-97717939D01*
X44898075Y-97717939D01*
X44700538Y-97810051D01*
X44700533Y-97810054D01*
X44695551Y-97812377D01*
X44590689Y-97885802D01*
X44512511Y-97940543D01*
X44512508Y-97940545D01*
X44508000Y-97943702D01*
X44346102Y-98105600D01*
X44214777Y-98293151D01*
X44212454Y-98298133D01*
X44212451Y-98298138D01*
X44120339Y-98495675D01*
X44118016Y-98500657D01*
X44058757Y-98721813D01*
X44038802Y-98949900D01*
X42259877Y-98949900D01*
X42254095Y-95949700D01*
X47640202Y-95949700D01*
X47660157Y-96177787D01*
X47719416Y-96398943D01*
X47721739Y-96403924D01*
X47721739Y-96403925D01*
X47813851Y-96601462D01*
X47813854Y-96601467D01*
X47816177Y-96606449D01*
X47947502Y-96794000D01*
X48109400Y-96955898D01*
X48113908Y-96959055D01*
X48113911Y-96959057D01*
X48192089Y-97013798D01*
X48296951Y-97087223D01*
X48301933Y-97089546D01*
X48301938Y-97089549D01*
X48499475Y-97181661D01*
X48504457Y-97183984D01*
X48509765Y-97185406D01*
X48509767Y-97185407D01*
X48720298Y-97241819D01*
X48720300Y-97241819D01*
X48725613Y-97243243D01*
X48953700Y-97263198D01*
X49181787Y-97243243D01*
X49187100Y-97241819D01*
X49187102Y-97241819D01*
X49397633Y-97185407D01*
X49397635Y-97185406D01*
X49402943Y-97183984D01*
X49407925Y-97181661D01*
X49605462Y-97089549D01*
X49605467Y-97089546D01*
X49610449Y-97087223D01*
X49715311Y-97013798D01*
X49793489Y-96959057D01*
X49793492Y-96959055D01*
X49798000Y-96955898D01*
X49959898Y-96794000D01*
X50091223Y-96606449D01*
X50093546Y-96601467D01*
X50093549Y-96601462D01*
X50185661Y-96403925D01*
X50185661Y-96403924D01*
X50187984Y-96398943D01*
X50247243Y-96177787D01*
X50267198Y-95949700D01*
X50247243Y-95721613D01*
X50187984Y-95500457D01*
X50185661Y-95495475D01*
X50093549Y-95297938D01*
X50093546Y-95297933D01*
X50091223Y-95292951D01*
X49959898Y-95105400D01*
X49798000Y-94943502D01*
X49793492Y-94940345D01*
X49793489Y-94940343D01*
X49715311Y-94885602D01*
X49610449Y-94812177D01*
X49605467Y-94809854D01*
X49605462Y-94809851D01*
X49571243Y-94793895D01*
X49517958Y-94746978D01*
X49498497Y-94678701D01*
X49519039Y-94610741D01*
X49571243Y-94565505D01*
X49605462Y-94549549D01*
X49605467Y-94549546D01*
X49610449Y-94547223D01*
X49715311Y-94473798D01*
X49793489Y-94419057D01*
X49793492Y-94419055D01*
X49798000Y-94415898D01*
X49959898Y-94254000D01*
X50091223Y-94066449D01*
X50093546Y-94061467D01*
X50093549Y-94061462D01*
X50185661Y-93863925D01*
X50185661Y-93863924D01*
X50187984Y-93858943D01*
X50247243Y-93637787D01*
X50267198Y-93409700D01*
X50247243Y-93181613D01*
X50187984Y-92960457D01*
X50185661Y-92955475D01*
X50093549Y-92757938D01*
X50093546Y-92757933D01*
X50091223Y-92752951D01*
X49959898Y-92565400D01*
X49798000Y-92403502D01*
X49793492Y-92400345D01*
X49793489Y-92400343D01*
X49715311Y-92345602D01*
X49610449Y-92272177D01*
X49605467Y-92269854D01*
X49605462Y-92269851D01*
X49407925Y-92177739D01*
X49407924Y-92177739D01*
X49402943Y-92175416D01*
X49397635Y-92173994D01*
X49397633Y-92173993D01*
X49187102Y-92117581D01*
X49187100Y-92117581D01*
X49181787Y-92116157D01*
X48953700Y-92096202D01*
X48725613Y-92116157D01*
X48720300Y-92117581D01*
X48720298Y-92117581D01*
X48509767Y-92173993D01*
X48509765Y-92173994D01*
X48504457Y-92175416D01*
X48499476Y-92177739D01*
X48499475Y-92177739D01*
X48301938Y-92269851D01*
X48301933Y-92269854D01*
X48296951Y-92272177D01*
X48192089Y-92345602D01*
X48113911Y-92400343D01*
X48113908Y-92400345D01*
X48109400Y-92403502D01*
X47947502Y-92565400D01*
X47816177Y-92752951D01*
X47813854Y-92757933D01*
X47813851Y-92757938D01*
X47721739Y-92955475D01*
X47719416Y-92960457D01*
X47660157Y-93181613D01*
X47640202Y-93409700D01*
X47660157Y-93637787D01*
X47719416Y-93858943D01*
X47721739Y-93863924D01*
X47721739Y-93863925D01*
X47813851Y-94061462D01*
X47813854Y-94061467D01*
X47816177Y-94066449D01*
X47947502Y-94254000D01*
X48109400Y-94415898D01*
X48113908Y-94419055D01*
X48113911Y-94419057D01*
X48192089Y-94473798D01*
X48296951Y-94547223D01*
X48301933Y-94549546D01*
X48301938Y-94549549D01*
X48336157Y-94565505D01*
X48389442Y-94612422D01*
X48408903Y-94680699D01*
X48388361Y-94748659D01*
X48336157Y-94793895D01*
X48301938Y-94809851D01*
X48301933Y-94809854D01*
X48296951Y-94812177D01*
X48192089Y-94885602D01*
X48113911Y-94940343D01*
X48113908Y-94940345D01*
X48109400Y-94943502D01*
X47947502Y-95105400D01*
X47816177Y-95292951D01*
X47813854Y-95297933D01*
X47813851Y-95297938D01*
X47721739Y-95495475D01*
X47719416Y-95500457D01*
X47660157Y-95721613D01*
X47640202Y-95949700D01*
X42254095Y-95949700D01*
X42240295Y-88789900D01*
X44038802Y-88789900D01*
X44058757Y-89017987D01*
X44118016Y-89239143D01*
X44120339Y-89244124D01*
X44120339Y-89244125D01*
X44212451Y-89441662D01*
X44212454Y-89441667D01*
X44214777Y-89446649D01*
X44217934Y-89451157D01*
X44335513Y-89619077D01*
X44346102Y-89634200D01*
X44508000Y-89796098D01*
X44512508Y-89799255D01*
X44512511Y-89799257D01*
X44590689Y-89853998D01*
X44695551Y-89927423D01*
X44700533Y-89929746D01*
X44700538Y-89929749D01*
X44854391Y-90001491D01*
X44903057Y-90024184D01*
X44908365Y-90025606D01*
X44908367Y-90025607D01*
X45118898Y-90082019D01*
X45118900Y-90082019D01*
X45124213Y-90083443D01*
X45352300Y-90103398D01*
X45580387Y-90083443D01*
X45585700Y-90082019D01*
X45585702Y-90082019D01*
X45796233Y-90025607D01*
X45796235Y-90025606D01*
X45801543Y-90024184D01*
X45850209Y-90001491D01*
X45874719Y-89990062D01*
X54048593Y-89990062D01*
X54057889Y-90002077D01*
X54109094Y-90037931D01*
X54118589Y-90043414D01*
X54316047Y-90135490D01*
X54326339Y-90139236D01*
X54536788Y-90195625D01*
X54547581Y-90197528D01*
X54764625Y-90216517D01*
X54775575Y-90216517D01*
X54992619Y-90197528D01*
X55003412Y-90195625D01*
X55213861Y-90139236D01*
X55224153Y-90135490D01*
X55421611Y-90043414D01*
X55431106Y-90037931D01*
X55483148Y-90001491D01*
X55491524Y-89991012D01*
X55484456Y-89977566D01*
X54782912Y-89276022D01*
X54768968Y-89268408D01*
X54767135Y-89268539D01*
X54760520Y-89272790D01*
X54055023Y-89978287D01*
X54048593Y-89990062D01*
X45874719Y-89990062D01*
X46004062Y-89929749D01*
X46004067Y-89929746D01*
X46009049Y-89927423D01*
X46113911Y-89853998D01*
X46192089Y-89799257D01*
X46192092Y-89799255D01*
X46196600Y-89796098D01*
X46358498Y-89634200D01*
X46369088Y-89619077D01*
X46486666Y-89451157D01*
X46489823Y-89446649D01*
X46492146Y-89441667D01*
X46492149Y-89441662D01*
X46584261Y-89244125D01*
X46584261Y-89244124D01*
X46586584Y-89239143D01*
X46645843Y-89017987D01*
X46655337Y-88909475D01*
X53457583Y-88909475D01*
X53476572Y-89126519D01*
X53478475Y-89137312D01*
X53534864Y-89347761D01*
X53538610Y-89358053D01*
X53630686Y-89555511D01*
X53636169Y-89565006D01*
X53672609Y-89617048D01*
X53683088Y-89625424D01*
X53696534Y-89618356D01*
X54398078Y-88916812D01*
X54404456Y-88905132D01*
X55134508Y-88905132D01*
X55134639Y-88906965D01*
X55138890Y-88913580D01*
X55844387Y-89619077D01*
X55856162Y-89625507D01*
X55868177Y-89616211D01*
X55904031Y-89565006D01*
X55909514Y-89555511D01*
X56001590Y-89358053D01*
X56005336Y-89347761D01*
X56061725Y-89137312D01*
X56063628Y-89126519D01*
X56082617Y-88909475D01*
X56082617Y-88898525D01*
X56063628Y-88681481D01*
X56061725Y-88670688D01*
X56005336Y-88460239D01*
X56001590Y-88449947D01*
X55909514Y-88252489D01*
X55904031Y-88242994D01*
X55867591Y-88190952D01*
X55857112Y-88182576D01*
X55843666Y-88189644D01*
X55142122Y-88891188D01*
X55134508Y-88905132D01*
X54404456Y-88905132D01*
X54405692Y-88902868D01*
X54405561Y-88901035D01*
X54401310Y-88894420D01*
X53695813Y-88188923D01*
X53684038Y-88182493D01*
X53672023Y-88191789D01*
X53636169Y-88242994D01*
X53630686Y-88252489D01*
X53538610Y-88449947D01*
X53534864Y-88460239D01*
X53478475Y-88670688D01*
X53476572Y-88681481D01*
X53457583Y-88898525D01*
X53457583Y-88909475D01*
X46655337Y-88909475D01*
X46665798Y-88789900D01*
X46645843Y-88561813D01*
X46618626Y-88460239D01*
X46588007Y-88345967D01*
X46588006Y-88345965D01*
X46586584Y-88340657D01*
X46545471Y-88252489D01*
X46492149Y-88138138D01*
X46492146Y-88138133D01*
X46489823Y-88133151D01*
X46358498Y-87945600D01*
X46229886Y-87816988D01*
X54048676Y-87816988D01*
X54055744Y-87830434D01*
X54757288Y-88531978D01*
X54771232Y-88539592D01*
X54773065Y-88539461D01*
X54779680Y-88535210D01*
X55485177Y-87829713D01*
X55491607Y-87817938D01*
X55482311Y-87805923D01*
X55431106Y-87770069D01*
X55421611Y-87764586D01*
X55224153Y-87672510D01*
X55213861Y-87668764D01*
X55003412Y-87612375D01*
X54992619Y-87610472D01*
X54775575Y-87591483D01*
X54764625Y-87591483D01*
X54547581Y-87610472D01*
X54536788Y-87612375D01*
X54326339Y-87668764D01*
X54316047Y-87672510D01*
X54118589Y-87764586D01*
X54109094Y-87770069D01*
X54057052Y-87806509D01*
X54048676Y-87816988D01*
X46229886Y-87816988D01*
X46196600Y-87783702D01*
X46192092Y-87780545D01*
X46192089Y-87780543D01*
X46113911Y-87725802D01*
X46009049Y-87652377D01*
X46004067Y-87650054D01*
X46004062Y-87650051D01*
X45806525Y-87557939D01*
X45806524Y-87557939D01*
X45801543Y-87555616D01*
X45796235Y-87554194D01*
X45796233Y-87554193D01*
X45585702Y-87497781D01*
X45585700Y-87497781D01*
X45580387Y-87496357D01*
X45352300Y-87476402D01*
X45124213Y-87496357D01*
X45118900Y-87497781D01*
X45118898Y-87497781D01*
X44908367Y-87554193D01*
X44908365Y-87554194D01*
X44903057Y-87555616D01*
X44898076Y-87557939D01*
X44898075Y-87557939D01*
X44700538Y-87650051D01*
X44700533Y-87650054D01*
X44695551Y-87652377D01*
X44590689Y-87725802D01*
X44512511Y-87780543D01*
X44512508Y-87780545D01*
X44508000Y-87783702D01*
X44346102Y-87945600D01*
X44214777Y-88133151D01*
X44212454Y-88138133D01*
X44212451Y-88138138D01*
X44159129Y-88252489D01*
X44118016Y-88340657D01*
X44116594Y-88345965D01*
X44116593Y-88345967D01*
X44085974Y-88460239D01*
X44058757Y-88561813D01*
X44038802Y-88789900D01*
X42240295Y-88789900D01*
X42236079Y-86602734D01*
X43649600Y-86602734D01*
X43656355Y-86664916D01*
X43707485Y-86801305D01*
X43794839Y-86917861D01*
X43911395Y-87005215D01*
X44047784Y-87056345D01*
X44109966Y-87063100D01*
X46406234Y-87063100D01*
X46468416Y-87056345D01*
X46604805Y-87005215D01*
X46721361Y-86917861D01*
X46808715Y-86801305D01*
X46859845Y-86664916D01*
X46866600Y-86602734D01*
X46866600Y-85722031D01*
X53828612Y-85722031D01*
X53882917Y-85948224D01*
X53885966Y-85957609D01*
X53979036Y-86182300D01*
X53983517Y-86191094D01*
X54110596Y-86398467D01*
X54116389Y-86406440D01*
X54274349Y-86591387D01*
X54281313Y-86598351D01*
X54466260Y-86756311D01*
X54474233Y-86762104D01*
X54681606Y-86889183D01*
X54690400Y-86893664D01*
X54915091Y-86986734D01*
X54924476Y-86989783D01*
X55146485Y-87043083D01*
X55160570Y-87042378D01*
X55164100Y-87033499D01*
X55164100Y-87029197D01*
X55672100Y-87029197D01*
X55676073Y-87042728D01*
X55685531Y-87044088D01*
X55911724Y-86989783D01*
X55921109Y-86986734D01*
X56145800Y-86893664D01*
X56154594Y-86889183D01*
X56361967Y-86762104D01*
X56369940Y-86756311D01*
X56554887Y-86598351D01*
X56561851Y-86591387D01*
X56719811Y-86406440D01*
X56725604Y-86398467D01*
X56852683Y-86191094D01*
X56857164Y-86182300D01*
X56950234Y-85957609D01*
X56953283Y-85948224D01*
X57006583Y-85726215D01*
X57005878Y-85712130D01*
X56996999Y-85708600D01*
X55690215Y-85708600D01*
X55674976Y-85713075D01*
X55673771Y-85714465D01*
X55672100Y-85722148D01*
X55672100Y-87029197D01*
X55164100Y-87029197D01*
X55164100Y-85726715D01*
X55159625Y-85711476D01*
X55158235Y-85710271D01*
X55150552Y-85708600D01*
X53843503Y-85708600D01*
X53829972Y-85712573D01*
X53828612Y-85722031D01*
X46866600Y-85722031D01*
X46866600Y-85182985D01*
X53829617Y-85182985D01*
X53830322Y-85197070D01*
X53839201Y-85200600D01*
X55145985Y-85200600D01*
X55161224Y-85196125D01*
X55162429Y-85194735D01*
X55164100Y-85187052D01*
X55164100Y-85182485D01*
X55672100Y-85182485D01*
X55676575Y-85197724D01*
X55677965Y-85198929D01*
X55685648Y-85200600D01*
X56992697Y-85200600D01*
X57006228Y-85196627D01*
X57007588Y-85187169D01*
X56953283Y-84960976D01*
X56950234Y-84951591D01*
X56857164Y-84726900D01*
X56852683Y-84718106D01*
X56725604Y-84510733D01*
X56719811Y-84502760D01*
X56561851Y-84317813D01*
X56554887Y-84310849D01*
X56369940Y-84152889D01*
X56361967Y-84147096D01*
X56154594Y-84020017D01*
X56145800Y-84015536D01*
X55921109Y-83922466D01*
X55911724Y-83919417D01*
X55689715Y-83866117D01*
X55675630Y-83866822D01*
X55672100Y-83875701D01*
X55672100Y-85182485D01*
X55164100Y-85182485D01*
X55164100Y-83880003D01*
X55160127Y-83866472D01*
X55150669Y-83865112D01*
X54924476Y-83919417D01*
X54915091Y-83922466D01*
X54690400Y-84015536D01*
X54681606Y-84020017D01*
X54474233Y-84147096D01*
X54466260Y-84152889D01*
X54281313Y-84310849D01*
X54274349Y-84317813D01*
X54116389Y-84502760D01*
X54110596Y-84510733D01*
X53983517Y-84718106D01*
X53979036Y-84726900D01*
X53885966Y-84951591D01*
X53882917Y-84960976D01*
X53829617Y-85182985D01*
X46866600Y-85182985D01*
X46866600Y-84306466D01*
X46859845Y-84244284D01*
X46808715Y-84107895D01*
X46721361Y-83991339D01*
X46604805Y-83903985D01*
X46468416Y-83852855D01*
X46406234Y-83846100D01*
X44109966Y-83846100D01*
X44047784Y-83852855D01*
X43911395Y-83903985D01*
X43794839Y-83991339D01*
X43707485Y-84107895D01*
X43656355Y-84244284D01*
X43649600Y-84306466D01*
X43649600Y-86602734D01*
X42236079Y-86602734D01*
X42226967Y-81874762D01*
X45375293Y-81874762D01*
X45384589Y-81886777D01*
X45435794Y-81922631D01*
X45445289Y-81928114D01*
X45642747Y-82020190D01*
X45653039Y-82023936D01*
X45863488Y-82080325D01*
X45874281Y-82082228D01*
X46091325Y-82101217D01*
X46102275Y-82101217D01*
X46319319Y-82082228D01*
X46330112Y-82080325D01*
X46540561Y-82023936D01*
X46550853Y-82020190D01*
X46748311Y-81928114D01*
X46757806Y-81922631D01*
X46809848Y-81886191D01*
X46818224Y-81875712D01*
X46811156Y-81862266D01*
X46766052Y-81817162D01*
X54213293Y-81817162D01*
X54222589Y-81829177D01*
X54273794Y-81865031D01*
X54283289Y-81870514D01*
X54480747Y-81962590D01*
X54491039Y-81966336D01*
X54701488Y-82022725D01*
X54712281Y-82024628D01*
X54929325Y-82043617D01*
X54940275Y-82043617D01*
X55157319Y-82024628D01*
X55168112Y-82022725D01*
X55378561Y-81966336D01*
X55388853Y-81962590D01*
X55586311Y-81870514D01*
X55595806Y-81865031D01*
X55647848Y-81828591D01*
X55656224Y-81818112D01*
X55649156Y-81804666D01*
X54947612Y-81103122D01*
X54933668Y-81095508D01*
X54931835Y-81095639D01*
X54925220Y-81099890D01*
X54219723Y-81805387D01*
X54213293Y-81817162D01*
X46766052Y-81817162D01*
X46109612Y-81160722D01*
X46095668Y-81153108D01*
X46093835Y-81153239D01*
X46087220Y-81157490D01*
X45381723Y-81862987D01*
X45375293Y-81874762D01*
X42226967Y-81874762D01*
X42224884Y-80794175D01*
X44784283Y-80794175D01*
X44803272Y-81011219D01*
X44805175Y-81022012D01*
X44861564Y-81232461D01*
X44865310Y-81242753D01*
X44957386Y-81440211D01*
X44962869Y-81449706D01*
X44999309Y-81501748D01*
X45009788Y-81510124D01*
X45023234Y-81503056D01*
X45724778Y-80801512D01*
X45731156Y-80789832D01*
X46461208Y-80789832D01*
X46461339Y-80791665D01*
X46465590Y-80798280D01*
X47171087Y-81503777D01*
X47182862Y-81510207D01*
X47194877Y-81500911D01*
X47230731Y-81449706D01*
X47236214Y-81440211D01*
X47328290Y-81242753D01*
X47332036Y-81232461D01*
X47388425Y-81022012D01*
X47390328Y-81011219D01*
X47409317Y-80794175D01*
X47409317Y-80783225D01*
X47405236Y-80736575D01*
X53622283Y-80736575D01*
X53641272Y-80953619D01*
X53643175Y-80964412D01*
X53699564Y-81174861D01*
X53703310Y-81185153D01*
X53795386Y-81382611D01*
X53800869Y-81392106D01*
X53837309Y-81444148D01*
X53847788Y-81452524D01*
X53861234Y-81445456D01*
X54562778Y-80743912D01*
X54569156Y-80732232D01*
X55299208Y-80732232D01*
X55299339Y-80734065D01*
X55303590Y-80740680D01*
X56009087Y-81446177D01*
X56020862Y-81452607D01*
X56032877Y-81443311D01*
X56068731Y-81392106D01*
X56074214Y-81382611D01*
X56166290Y-81185153D01*
X56170036Y-81174861D01*
X56226425Y-80964412D01*
X56228328Y-80953619D01*
X56247317Y-80736575D01*
X56247317Y-80725625D01*
X56228328Y-80508581D01*
X56226425Y-80497788D01*
X56170036Y-80287339D01*
X56166290Y-80277047D01*
X56074214Y-80079589D01*
X56068731Y-80070094D01*
X56032291Y-80018052D01*
X56021812Y-80009676D01*
X56008366Y-80016744D01*
X55306822Y-80718288D01*
X55299208Y-80732232D01*
X54569156Y-80732232D01*
X54570392Y-80729968D01*
X54570261Y-80728135D01*
X54566010Y-80721520D01*
X53860513Y-80016023D01*
X53848738Y-80009593D01*
X53836723Y-80018889D01*
X53800869Y-80070094D01*
X53795386Y-80079589D01*
X53703310Y-80277047D01*
X53699564Y-80287339D01*
X53643175Y-80497788D01*
X53641272Y-80508581D01*
X53622283Y-80725625D01*
X53622283Y-80736575D01*
X47405236Y-80736575D01*
X47390328Y-80566181D01*
X47388425Y-80555388D01*
X47332036Y-80344939D01*
X47328290Y-80334647D01*
X47236214Y-80137189D01*
X47230731Y-80127694D01*
X47194291Y-80075652D01*
X47183812Y-80067276D01*
X47170366Y-80074344D01*
X46468822Y-80775888D01*
X46461208Y-80789832D01*
X45731156Y-80789832D01*
X45732392Y-80787568D01*
X45732261Y-80785735D01*
X45728010Y-80779120D01*
X45022513Y-80073623D01*
X45010738Y-80067193D01*
X44998723Y-80076489D01*
X44962869Y-80127694D01*
X44957386Y-80137189D01*
X44865310Y-80334647D01*
X44861564Y-80344939D01*
X44805175Y-80555388D01*
X44803272Y-80566181D01*
X44784283Y-80783225D01*
X44784283Y-80794175D01*
X42224884Y-80794175D01*
X42222778Y-79701688D01*
X45375376Y-79701688D01*
X45382444Y-79715134D01*
X46083988Y-80416678D01*
X46097932Y-80424292D01*
X46099765Y-80424161D01*
X46106380Y-80419910D01*
X46811877Y-79714413D01*
X46818307Y-79702638D01*
X46809011Y-79690623D01*
X46757806Y-79654769D01*
X46748311Y-79649286D01*
X46737164Y-79644088D01*
X54213376Y-79644088D01*
X54220444Y-79657534D01*
X54921988Y-80359078D01*
X54935932Y-80366692D01*
X54937765Y-80366561D01*
X54944380Y-80362310D01*
X55649877Y-79656813D01*
X55656307Y-79645038D01*
X55647011Y-79633023D01*
X55595806Y-79597169D01*
X55586311Y-79591686D01*
X55388853Y-79499610D01*
X55378561Y-79495864D01*
X55168112Y-79439475D01*
X55157319Y-79437572D01*
X54940275Y-79418583D01*
X54929325Y-79418583D01*
X54712281Y-79437572D01*
X54701488Y-79439475D01*
X54491039Y-79495864D01*
X54480747Y-79499610D01*
X54283289Y-79591686D01*
X54273794Y-79597169D01*
X54221752Y-79633609D01*
X54213376Y-79644088D01*
X46737164Y-79644088D01*
X46550853Y-79557210D01*
X46540561Y-79553464D01*
X46330112Y-79497075D01*
X46319319Y-79495172D01*
X46102275Y-79476183D01*
X46091325Y-79476183D01*
X45874281Y-79495172D01*
X45863488Y-79497075D01*
X45653039Y-79553464D01*
X45642747Y-79557210D01*
X45445289Y-79649286D01*
X45435794Y-79654769D01*
X45383752Y-79691209D01*
X45375376Y-79701688D01*
X42222778Y-79701688D01*
X42221931Y-79262247D01*
X42241802Y-79194088D01*
X42295368Y-79147491D01*
X42347545Y-79136005D01*
X56448224Y-79092886D01*
X58305064Y-79087208D01*
X58373245Y-79107001D01*
G37*
%TD.AperFunction*%
%TD*%
M02*
