%TF.GenerationSoftware,KiCad,Pcbnew,(6.0.0)*%
%TF.CreationDate,2022-02-01T19:12:32-08:00*%
%TF.ProjectId,MakeItRain,4d616b65-4974-4526-9169-6e2e6b696361,rev?*%
%TF.SameCoordinates,Original*%
%TF.FileFunction,Copper,L2,Inr*%
%TF.FilePolarity,Positive*%
%FSLAX46Y46*%
G04 Gerber Fmt 4.6, Leading zero omitted, Abs format (unit mm)*
G04 Created by KiCad (PCBNEW (6.0.0)) date 2022-02-01 19:12:32*
%MOMM*%
%LPD*%
G01*
G04 APERTURE LIST*
%TA.AperFunction,ComponentPad*%
%ADD10C,1.600000*%
%TD*%
%TA.AperFunction,ComponentPad*%
%ADD11R,2.600000X2.600000*%
%TD*%
%TA.AperFunction,ComponentPad*%
%ADD12O,2.600000X2.600000*%
%TD*%
%TA.AperFunction,ComponentPad*%
%ADD13R,1.800000X1.800000*%
%TD*%
%TA.AperFunction,ComponentPad*%
%ADD14C,1.800000*%
%TD*%
%TA.AperFunction,ComponentPad*%
%ADD15R,1.700000X1.700000*%
%TD*%
%TA.AperFunction,ComponentPad*%
%ADD16O,1.700000X1.700000*%
%TD*%
%TA.AperFunction,ComponentPad*%
%ADD17O,1.600000X1.600000*%
%TD*%
%TA.AperFunction,ComponentPad*%
%ADD18C,2.600000*%
%TD*%
%TA.AperFunction,ComponentPad*%
%ADD19R,1.920000X1.920000*%
%TD*%
%TA.AperFunction,ComponentPad*%
%ADD20C,1.920000*%
%TD*%
%TA.AperFunction,ComponentPad*%
%ADD21R,1.050000X1.500000*%
%TD*%
%TA.AperFunction,ComponentPad*%
%ADD22O,1.050000X1.500000*%
%TD*%
%TA.AperFunction,ComponentPad*%
%ADD23R,1.150000X1.150000*%
%TD*%
%TA.AperFunction,ComponentPad*%
%ADD24C,1.150000*%
%TD*%
%TA.AperFunction,ComponentPad*%
%ADD25R,1.600000X1.600000*%
%TD*%
%TA.AperFunction,ComponentPad*%
%ADD26R,1.500000X1.050000*%
%TD*%
%TA.AperFunction,ComponentPad*%
%ADD27O,1.500000X1.050000*%
%TD*%
%TA.AperFunction,ComponentPad*%
%ADD28C,1.440000*%
%TD*%
%TA.AperFunction,ComponentPad*%
%ADD29R,2.200000X2.200000*%
%TD*%
%TA.AperFunction,ComponentPad*%
%ADD30O,2.200000X2.200000*%
%TD*%
%TA.AperFunction,ComponentPad*%
%ADD31R,1.500000X1.500000*%
%TD*%
%TA.AperFunction,ComponentPad*%
%ADD32C,1.500000*%
%TD*%
%TA.AperFunction,ComponentPad*%
%ADD33C,2.100000*%
%TD*%
%TA.AperFunction,ComponentPad*%
%ADD34R,1.130000X1.130000*%
%TD*%
%TA.AperFunction,ComponentPad*%
%ADD35C,1.130000*%
%TD*%
%TA.AperFunction,ViaPad*%
%ADD36C,0.800000*%
%TD*%
%TA.AperFunction,Conductor*%
%ADD37C,0.250000*%
%TD*%
%TA.AperFunction,Conductor*%
%ADD38C,1.524000*%
%TD*%
G04 APERTURE END LIST*
D10*
%TO.N,+3V3*%
%TO.C,C1*%
X60639800Y-87766900D03*
%TO.N,GND*%
X60639800Y-95266900D03*
%TD*%
%TO.N,/Zone1IO/ZoneInput*%
%TO.C,C2*%
X89233000Y-68419700D03*
%TO.N,GND*%
X89233000Y-73419700D03*
%TD*%
%TO.N,/Zone2IO/ZoneInput*%
%TO.C,C3*%
X119573600Y-63585000D03*
%TO.N,GND*%
X119573600Y-68585000D03*
%TD*%
%TO.N,/Zone3IO/ZoneInput*%
%TO.C,C4*%
X151481900Y-65398300D03*
%TO.N,GND*%
X151481900Y-70398300D03*
%TD*%
D11*
%TO.N,/Zone1IO/ZoneOutput*%
%TO.C,D3*%
X83185000Y-83820000D03*
D12*
%TO.N,GND*%
X83185000Y-68580000D03*
%TD*%
D11*
%TO.N,/Zone2IO/ZoneOutput*%
%TO.C,D5*%
X113665000Y-83820000D03*
D12*
%TO.N,GND*%
X113665000Y-68580000D03*
%TD*%
D11*
%TO.N,/Zone4IO/ZoneOutput*%
%TO.C,D7*%
X174625000Y-83820000D03*
D12*
%TO.N,GND*%
X174625000Y-68580000D03*
%TD*%
D11*
%TO.N,/Zone3IO/ZoneOutput*%
%TO.C,D9*%
X144145000Y-83820000D03*
D12*
%TO.N,GND*%
X144145000Y-68580000D03*
%TD*%
D13*
%TO.N,Net-(D1-Pad1)*%
%TO.C,D1*%
X129843800Y-123232100D03*
D14*
%TO.N,D21*%
X127303800Y-123232100D03*
%TD*%
D15*
%TO.N,+3V3*%
%TO.C,J2*%
X66040000Y-120650000D03*
D16*
X66040000Y-123190000D03*
%TO.N,EN*%
X68580000Y-120650000D03*
X68580000Y-123190000D03*
%TO.N,D36*%
X71120000Y-120650000D03*
X71120000Y-123190000D03*
%TO.N,D39*%
X73660000Y-120650000D03*
X73660000Y-123190000D03*
%TO.N,D34*%
X76200000Y-120650000D03*
X76200000Y-123190000D03*
%TO.N,D35*%
X78740000Y-120650000D03*
X78740000Y-123190000D03*
%TO.N,D32*%
X81280000Y-120650000D03*
X81280000Y-123190000D03*
%TO.N,D33*%
X83820000Y-120650000D03*
X83820000Y-123190000D03*
%TO.N,D25*%
X86360000Y-120650000D03*
X86360000Y-123190000D03*
%TO.N,D26*%
X88900000Y-120650000D03*
X88900000Y-123190000D03*
%TO.N,D27*%
X91440000Y-120650000D03*
X91440000Y-123190000D03*
%TO.N,D14*%
X93980000Y-120650000D03*
X93980000Y-123190000D03*
%TO.N,D12*%
X96520000Y-120650000D03*
X96520000Y-123190000D03*
%TO.N,GND*%
X99060000Y-120650000D03*
X99060000Y-123190000D03*
%TO.N,unconnected-(J2-Pad29)*%
X101600000Y-120650000D03*
%TO.N,unconnected-(J2-Pad30)*%
X101600000Y-123190000D03*
%TO.N,unconnected-(J2-Pad31)*%
X104140000Y-120650000D03*
%TO.N,unconnected-(J2-Pad32)*%
X104140000Y-123190000D03*
%TO.N,unconnected-(J2-Pad33)*%
X106680000Y-120650000D03*
%TO.N,unconnected-(J2-Pad34)*%
X106680000Y-123190000D03*
%TO.N,unconnected-(J2-Pad35)*%
X109220000Y-120650000D03*
%TO.N,unconnected-(J2-Pad36)*%
X109220000Y-123190000D03*
%TO.N,+5V*%
X111760000Y-120650000D03*
X111760000Y-123190000D03*
%TD*%
D15*
%TO.N,GND*%
%TO.C,J3*%
X66040000Y-97790000D03*
D16*
%TO.N,D23*%
X68580000Y-97790000D03*
%TO.N,D22*%
X71120000Y-97790000D03*
%TO.N,TX*%
X73660000Y-97790000D03*
%TO.N,RX*%
X76200000Y-97790000D03*
%TO.N,D21*%
X78740000Y-97790000D03*
%TO.N,GND*%
X81280000Y-97790000D03*
%TO.N,D19*%
X83820000Y-97790000D03*
%TO.N,D18*%
X86360000Y-97790000D03*
%TO.N,D5*%
X88900000Y-97790000D03*
%TO.N,D17*%
X91440000Y-97790000D03*
%TO.N,D16*%
X93980000Y-97790000D03*
%TO.N,D4*%
X96520000Y-97790000D03*
%TO.N,D0*%
X99060000Y-97790000D03*
%TO.N,D2*%
X101600000Y-97790000D03*
%TO.N,D15*%
X104140000Y-97790000D03*
%TO.N,/SD1*%
X106680000Y-97790000D03*
%TO.N,/SDD*%
X109220000Y-97790000D03*
%TO.N,/CLK*%
X111760000Y-97790000D03*
%TD*%
D10*
%TO.N,Net-(D10-Pad1)*%
%TO.C,L1*%
X153734500Y-101869000D03*
D17*
%TO.N,+5V*%
X153734500Y-112029000D03*
%TD*%
D11*
%TO.N,Net-(P1-Pad1)*%
%TO.C,P1*%
X184150000Y-82550000D03*
D18*
%TO.N,GND*%
X184150000Y-77470000D03*
%TD*%
D19*
%TO.N,Net-(Q3-Pad1)*%
%TO.C,Q3*%
X71813700Y-81139600D03*
D20*
%TO.N,/Zone1IO/ZoneOutput*%
X69273700Y-81139600D03*
%TO.N,+VDC*%
X66733700Y-81139600D03*
%TD*%
D19*
%TO.N,Net-(Q6-Pad1)*%
%TO.C,Q6*%
X101232600Y-81027600D03*
D20*
%TO.N,/Zone2IO/ZoneOutput*%
X98692600Y-81027600D03*
%TO.N,+VDC*%
X96152600Y-81027600D03*
%TD*%
D21*
%TO.N,GND*%
%TO.C,Q7*%
X93346300Y-104626700D03*
D22*
%TO.N,/Zone3IO/ZoneInput*%
X94616300Y-104626700D03*
%TO.N,Net-(D6-Pad1)*%
X95886300Y-104626700D03*
%TD*%
D19*
%TO.N,Net-(Q9-Pad1)*%
%TO.C,Q9*%
X131209700Y-81027600D03*
D20*
%TO.N,/Zone3IO/ZoneOutput*%
X128669700Y-81027600D03*
%TO.N,+VDC*%
X126129700Y-81027600D03*
%TD*%
D19*
%TO.N,Net-(Q12-Pad1)*%
%TO.C,Q12*%
X162353200Y-81027600D03*
D20*
%TO.N,/Zone4IO/ZoneOutput*%
X159813200Y-81027600D03*
%TO.N,+VDC*%
X157273200Y-81027600D03*
%TD*%
D19*
%TO.N,Net-(Q13-Pad1)*%
%TO.C,Q13*%
X184255500Y-92650400D03*
D20*
%TO.N,Net-(P1-Pad1)*%
X186795500Y-92650400D03*
%TO.N,Net-(Q13-Pad3)*%
X189335500Y-92650400D03*
%TD*%
D10*
%TO.N,+3V3*%
%TO.C,R1*%
X47627000Y-83085000D03*
D17*
%TO.N,D22*%
X45087000Y-83085000D03*
%TD*%
D11*
%TO.N,/Zone2IO/ZoneInput*%
%TO.C,Z2*%
X106680000Y-69850000D03*
D18*
%TO.N,/Zone2IO/ZoneOutput*%
X101600000Y-69850000D03*
%TO.N,GND*%
X96520000Y-69850000D03*
%TD*%
D11*
%TO.N,/Zone3IO/ZoneInput*%
%TO.C,Z3*%
X137160000Y-69850000D03*
D18*
%TO.N,/Zone3IO/ZoneOutput*%
X132080000Y-69850000D03*
%TO.N,GND*%
X127000000Y-69850000D03*
%TD*%
D11*
%TO.N,/Zone4IO/ZoneInput*%
%TO.C,Z4*%
X167640000Y-69850000D03*
D18*
%TO.N,/Zone4IO/ZoneOutput*%
X162560000Y-69850000D03*
%TO.N,GND*%
X157480000Y-69850000D03*
%TD*%
D11*
%TO.N,/Zone1IO/ZoneInput*%
%TO.C,Z1*%
X76200000Y-69850000D03*
D18*
%TO.N,/Zone1IO/ZoneOutput*%
X71120000Y-69850000D03*
%TO.N,GND*%
X66040000Y-69850000D03*
%TD*%
D15*
%TO.N,+VDC*%
%TO.C,J1*%
X170349000Y-121042300D03*
D16*
%TO.N,+3V3*%
X170349000Y-123582300D03*
%TO.N,+VDC*%
X167809000Y-121042300D03*
%TO.N,AuxVoltage*%
X167809000Y-123582300D03*
%TO.N,+VDC*%
X165269000Y-121042300D03*
%TO.N,D23*%
X165269000Y-123582300D03*
%TO.N,+VDC*%
X162729000Y-121042300D03*
%TO.N,D19*%
X162729000Y-123582300D03*
%TO.N,+VDC*%
X160189000Y-121042300D03*
%TO.N,D18*%
X160189000Y-123582300D03*
%TO.N,+5V*%
X157649000Y-121042300D03*
%TO.N,D5*%
X157649000Y-123582300D03*
%TO.N,+5V*%
X155109000Y-121042300D03*
%TO.N,D35*%
X155109000Y-123582300D03*
%TO.N,+5V*%
X152569000Y-121042300D03*
%TO.N,D32*%
X152569000Y-123582300D03*
%TO.N,GND*%
X150029000Y-121042300D03*
%TO.N,D33*%
X150029000Y-123582300D03*
%TO.N,GND*%
X147489000Y-121042300D03*
%TO.N,D25*%
X147489000Y-123582300D03*
%TO.N,GND*%
X144949000Y-121042300D03*
%TO.N,D21*%
X144949000Y-123582300D03*
%TO.N,GND*%
X142409000Y-121042300D03*
%TO.N,D4*%
X142409000Y-123582300D03*
%TO.N,GND*%
X139869000Y-121042300D03*
%TO.N,D0*%
X139869000Y-123582300D03*
%TO.N,GND*%
X137329000Y-121042300D03*
%TO.N,TX*%
X137329000Y-123582300D03*
%TO.N,GND*%
X134789000Y-121042300D03*
%TO.N,RX*%
X134789000Y-123582300D03*
%TD*%
D23*
%TO.N,+VDC*%
%TO.C,Z5*%
X64916500Y-86155400D03*
D24*
%TO.N,Net-(Q3-Pad1)*%
X75616500Y-86155400D03*
%TD*%
D23*
%TO.N,+VDC*%
%TO.C,Z6*%
X95542500Y-86196000D03*
D24*
%TO.N,Net-(Q6-Pad1)*%
X106242500Y-86196000D03*
%TD*%
D23*
%TO.N,+VDC*%
%TO.C,Z8*%
X156688300Y-85864200D03*
D24*
%TO.N,Net-(Q12-Pad1)*%
X167388300Y-85864200D03*
%TD*%
D25*
%TO.N,+VDC*%
%TO.C,C8*%
X169824100Y-92075800D03*
D10*
%TO.N,GND*%
X166324100Y-92075800D03*
%TD*%
D21*
%TO.N,GND*%
%TO.C,Q4*%
X87748400Y-104639800D03*
D22*
%TO.N,/Zone2IO/ZoneInput*%
X89018400Y-104639800D03*
%TO.N,Net-(D4-Pad1)*%
X90288400Y-104639800D03*
%TD*%
D10*
%TO.N,+VDC*%
%TO.C,R23*%
X75572300Y-105627200D03*
D17*
%TO.N,Net-(IC3-Pad3)*%
X73032300Y-105627200D03*
%TD*%
D10*
%TO.N,+3V3*%
%TO.C,R31*%
X88097100Y-113124500D03*
D17*
%TO.N,D27*%
X88097100Y-115664500D03*
%TD*%
D10*
%TO.N,Net-(Q9-Pad1)*%
%TO.C,R16*%
X131901400Y-89145900D03*
D17*
%TO.N,Net-(Q8-Pad3)*%
X134441400Y-89145900D03*
%TD*%
D26*
%TO.N,GND*%
%TO.C,Q2*%
X77198800Y-80576600D03*
D27*
%TO.N,D17*%
X77198800Y-81846600D03*
%TO.N,Net-(Q2-Pad3)*%
X77198800Y-83116600D03*
%TD*%
D10*
%TO.N,Net-(IC3-Pad3)*%
%TO.C,R24*%
X73376700Y-108765100D03*
D17*
%TO.N,GND*%
X75916700Y-108765100D03*
%TD*%
D10*
%TO.N,/Zone1IO/ZoneInput*%
%TO.C,R5*%
X88607500Y-78728900D03*
D17*
%TO.N,GND*%
X91147500Y-78728900D03*
%TD*%
D28*
%TO.N,AuxVoltage*%
%TO.C,RV1*%
X117879100Y-95318800D03*
%TO.N,Net-(IC3-Pad5)*%
X120419100Y-95318800D03*
%TO.N,GND*%
X122959100Y-95318800D03*
%TD*%
D15*
%TO.N,AuxVoltage*%
%TO.C,J4*%
X120030900Y-90244000D03*
%TD*%
D10*
%TO.N,+VDC*%
%TO.C,R15*%
X126738500Y-89152400D03*
D17*
%TO.N,Net-(Q9-Pad1)*%
X129278500Y-89152400D03*
%TD*%
D10*
%TO.N,+3V3*%
%TO.C,R2*%
X56109000Y-83011900D03*
D17*
%TO.N,D21*%
X53569000Y-83011900D03*
%TD*%
D10*
%TO.N,/Zone4IO/ZoneInput*%
%TO.C,R17*%
X179540300Y-68202800D03*
D17*
%TO.N,GND*%
X179540300Y-70742800D03*
%TD*%
D10*
%TO.N,Net-(D1-Pad1)*%
%TO.C,R4*%
X110094700Y-115764800D03*
D17*
%TO.N,GND*%
X107554700Y-115764800D03*
%TD*%
D10*
%TO.N,D2*%
%TO.C,R18*%
X174293400Y-87283100D03*
D17*
%TO.N,GND*%
X176833400Y-87283100D03*
%TD*%
D10*
%TO.N,+3V3*%
%TO.C,R29*%
X143781000Y-113326100D03*
D17*
%TO.N,Net-(IC4-Pad1)*%
X141241000Y-113326100D03*
%TD*%
D10*
%TO.N,D36*%
%TO.C,R25*%
X75859900Y-114068500D03*
D17*
%TO.N,GND*%
X75859900Y-111528500D03*
%TD*%
D10*
%TO.N,+3V3*%
%TO.C,R33*%
X97677800Y-113124500D03*
D17*
%TO.N,D12*%
X97677800Y-115664500D03*
%TD*%
D10*
%TO.N,D15*%
%TO.C,R14*%
X137097400Y-89165200D03*
D17*
%TO.N,GND*%
X139637400Y-89165200D03*
%TD*%
D26*
%TO.N,GND*%
%TO.C,Q11*%
X167811500Y-80303000D03*
D27*
%TO.N,D2*%
X167811500Y-81573000D03*
%TO.N,Net-(Q11-Pad3)*%
X167811500Y-82843000D03*
%TD*%
D10*
%TO.N,+3V3*%
%TO.C,R27*%
X143781000Y-103747400D03*
D17*
%TO.N,Net-(IC4-Pad5)*%
X141241000Y-103747400D03*
%TD*%
D29*
%TO.N,Net-(D4-Pad1)*%
%TO.C,D4*%
X115020300Y-111761400D03*
D30*
%TO.N,/InputIsolation/2in*%
X125180300Y-111761400D03*
%TD*%
D29*
%TO.N,Net-(D2-Pad1)*%
%TO.C,D2*%
X115020300Y-116670800D03*
D30*
%TO.N,/InputIsolation/1in*%
X125180300Y-116670800D03*
%TD*%
D31*
%TO.N,unconnected-(S1-Pad1)*%
%TO.C,S1*%
X115616200Y-120523800D03*
D32*
%TO.N,+3V3*%
X122116200Y-120523800D03*
%TO.N,unconnected-(S1-Pad3)*%
X115616200Y-125023800D03*
%TO.N,D22*%
X122116200Y-125023800D03*
%TD*%
D10*
%TO.N,/Zone2IO/ZoneInput*%
%TO.C,R9*%
X118582200Y-73133700D03*
D17*
%TO.N,GND*%
X121122200Y-73133700D03*
%TD*%
D10*
%TO.N,/Zone3IO/ZoneInput*%
%TO.C,R13*%
X149911000Y-75702800D03*
D17*
%TO.N,GND*%
X152451000Y-75702800D03*
%TD*%
D10*
%TO.N,D17*%
%TO.C,R6*%
X78100900Y-89073600D03*
D17*
%TO.N,GND*%
X80640900Y-89073600D03*
%TD*%
D10*
%TO.N,+VDC*%
%TO.C,R11*%
X97552100Y-89073600D03*
D17*
%TO.N,Net-(Q6-Pad1)*%
X100092100Y-89073600D03*
%TD*%
D10*
%TO.N,+VDC*%
%TO.C,R7*%
X67716100Y-89073600D03*
D17*
%TO.N,Net-(Q3-Pad1)*%
X70256100Y-89073600D03*
%TD*%
D33*
%TO.N,+VDC*%
%TO.C,U2*%
X173962900Y-101543100D03*
X177462900Y-101543100D03*
%TO.N,Net-(Q13-Pad3)*%
X183262900Y-101543100D03*
X186762900Y-101543100D03*
X186762900Y-99043100D03*
X183262900Y-99043100D03*
%TO.N,+VDC*%
X177462900Y-99043100D03*
X173962900Y-99043100D03*
%TD*%
D21*
%TO.N,GND*%
%TO.C,Q10*%
X98978100Y-104626700D03*
D22*
%TO.N,/Zone4IO/ZoneInput*%
X100248100Y-104626700D03*
%TO.N,Net-(D8-Pad1)*%
X101518100Y-104626700D03*
%TD*%
D29*
%TO.N,Net-(D8-Pad1)*%
%TO.C,D8*%
X115020300Y-101942700D03*
D30*
%TO.N,/InputIsolation/4in*%
X125180300Y-101942700D03*
%TD*%
D34*
%TO.N,D36*%
%TO.C,IC3*%
X70520600Y-114579500D03*
D35*
X70520600Y-112039500D03*
%TO.N,Net-(IC3-Pad3)*%
X70520600Y-109499500D03*
%TO.N,GND*%
X70520600Y-106959500D03*
%TO.N,Net-(IC3-Pad5)*%
X62580600Y-106959500D03*
%TO.N,D34*%
X62580600Y-109499500D03*
X62580600Y-112039500D03*
%TO.N,+3V3*%
X62580600Y-114579500D03*
%TD*%
D21*
%TO.N,GND*%
%TO.C,Q1*%
X82152400Y-104644400D03*
D22*
%TO.N,/Zone1IO/ZoneInput*%
X83422400Y-104644400D03*
%TO.N,Net-(D2-Pad1)*%
X84692400Y-104644400D03*
%TD*%
D10*
%TO.N,+3V3*%
%TO.C,R26*%
X143781000Y-98958100D03*
D17*
%TO.N,Net-(IC4-Pad7)*%
X141241000Y-98958100D03*
%TD*%
D10*
%TO.N,Net-(Q3-Pad1)*%
%TO.C,R8*%
X72922600Y-89073600D03*
D17*
%TO.N,Net-(Q2-Pad3)*%
X75462600Y-89073600D03*
%TD*%
D26*
%TO.N,GND*%
%TO.C,Q8*%
X137666600Y-80582900D03*
D27*
%TO.N,D15*%
X137666600Y-81852900D03*
%TO.N,Net-(Q8-Pad3)*%
X137666600Y-83122900D03*
%TD*%
D26*
%TO.N,GND*%
%TO.C,Q5*%
X106797400Y-80509200D03*
D27*
%TO.N,D16*%
X106797400Y-81779200D03*
%TO.N,Net-(Q5-Pad3)*%
X106797400Y-83049200D03*
%TD*%
D29*
%TO.N,Net-(D10-Pad1)*%
%TO.C,D10*%
X156010100Y-98662200D03*
D30*
%TO.N,GND*%
X166170100Y-98662200D03*
%TD*%
D10*
%TO.N,/Zone4IO/ZoneInput*%
%TO.C,C5*%
X151434400Y-83634400D03*
%TO.N,GND*%
X151434400Y-78634400D03*
%TD*%
%TO.N,Net-(Q13-Pad1)*%
%TO.C,R21*%
X174560200Y-93313200D03*
D17*
%TO.N,GND*%
X177100200Y-93313200D03*
%TD*%
D25*
%TO.N,+5V*%
%TO.C,C9*%
X149612600Y-93906000D03*
D10*
%TO.N,GND*%
X153112600Y-93906000D03*
%TD*%
%TO.N,D22*%
%TO.C,R3*%
X110228300Y-110918500D03*
D17*
%TO.N,GND*%
X107688300Y-110918500D03*
%TD*%
D10*
%TO.N,+3V3*%
%TO.C,R30*%
X83306700Y-113124500D03*
D17*
%TO.N,D26*%
X83306700Y-115664500D03*
%TD*%
D10*
%TO.N,Net-(Q6-Pad1)*%
%TO.C,R12*%
X102726700Y-89051400D03*
D17*
%TO.N,Net-(Q5-Pad3)*%
X105266700Y-89051400D03*
%TD*%
D10*
%TO.N,+VDC*%
%TO.C,R22*%
X156900200Y-105717700D03*
D17*
%TO.N,Net-(IC2-Pad1)*%
X156900200Y-108257700D03*
%TD*%
D10*
%TO.N,+3V3*%
%TO.C,R28*%
X143781000Y-108536800D03*
D17*
%TO.N,Net-(IC4-Pad3)*%
X141241000Y-108536800D03*
%TD*%
D10*
%TO.N,Net-(Q12-Pad1)*%
%TO.C,R20*%
X160583300Y-88731000D03*
D17*
%TO.N,Net-(Q11-Pad3)*%
X163123300Y-88731000D03*
%TD*%
D10*
%TO.N,+VDC*%
%TO.C,R19*%
X155220800Y-88780800D03*
D17*
%TO.N,Net-(Q12-Pad1)*%
X157760800Y-88780800D03*
%TD*%
D10*
%TO.N,D16*%
%TO.C,R10*%
X107928100Y-89045900D03*
D17*
%TO.N,GND*%
X110468100Y-89045900D03*
%TD*%
D10*
%TO.N,Net-(C7-Pad1)*%
%TO.C,C7*%
X165363200Y-102521700D03*
%TO.N,GND*%
X160363200Y-102521700D03*
%TD*%
D29*
%TO.N,Net-(D6-Pad1)*%
%TO.C,D6*%
X115020300Y-106852100D03*
D30*
%TO.N,/InputIsolation/3in*%
X125180300Y-106852100D03*
%TD*%
D10*
%TO.N,+3V3*%
%TO.C,R32*%
X92887500Y-113124500D03*
D17*
%TO.N,D14*%
X92887500Y-115664500D03*
%TD*%
D10*
%TO.N,Net-(C6-Pad1)*%
%TO.C,C6*%
X157062800Y-115652200D03*
%TO.N,GND*%
X157062800Y-110652200D03*
%TD*%
D23*
%TO.N,+VDC*%
%TO.C,Z7*%
X125092600Y-86196000D03*
D24*
%TO.N,Net-(Q9-Pad1)*%
X135792600Y-86196000D03*
%TD*%
D10*
%TO.N,D34*%
%TO.C,R34*%
X57889400Y-114568900D03*
D17*
%TO.N,GND*%
X60429400Y-114568900D03*
%TD*%
D36*
%TO.N,GND*%
X63320100Y-95266900D03*
X82068300Y-88771500D03*
X110683900Y-85495800D03*
X79589900Y-81706200D03*
X99046800Y-110141200D03*
X62014400Y-108229500D03*
X114502100Y-94249400D03*
%TO.N,+VDC*%
X69417600Y-95613200D03*
%TO.N,+3V3*%
X98610600Y-118847600D03*
X53649100Y-89037000D03*
%TO.N,Net-(D2-Pad1)*%
X111110500Y-112843400D03*
%TO.N,/InputIsolation/1in*%
X139575300Y-110371700D03*
%TO.N,/InputIsolation/2in*%
X139292800Y-106515800D03*
%TO.N,/InputIsolation/3in*%
X139582600Y-100287700D03*
%TO.N,/InputIsolation/4in*%
X138870800Y-93750000D03*
%TO.N,D39*%
X53883200Y-90997000D03*
X51258000Y-97858100D03*
%TO.N,/Zone3IO/ZoneInput*%
X112452200Y-107093700D03*
%TO.N,/Zone4IO/ZoneInput*%
X112781300Y-104784900D03*
%TO.N,D22*%
X75172600Y-102076300D03*
%TO.N,Net-(IC4-Pad3)*%
X136216800Y-107789400D03*
%TO.N,Net-(IC4-Pad5)*%
X136545100Y-101433800D03*
%TO.N,Net-(IC4-Pad7)*%
X136247400Y-98441600D03*
%TO.N,D12*%
X130476100Y-103576100D03*
%TO.N,D14*%
X131392100Y-108318600D03*
%TO.N,D27*%
X130585000Y-107132800D03*
%TO.N,D26*%
X121043800Y-118122300D03*
%TO.N,D23*%
X106931100Y-99936000D03*
%TO.N,D19*%
X134442600Y-91189400D03*
%TO.N,D18*%
X133666800Y-91971300D03*
%TO.N,D5*%
X115044700Y-99180100D03*
%TO.N,Net-(IC4-Pad1)*%
X137923300Y-114403700D03*
%TO.N,RX*%
X92027200Y-110124600D03*
X112796700Y-111734200D03*
%TO.N,D17*%
X85551100Y-87909600D03*
%TD*%
D37*
%TO.N,GND*%
X70520600Y-106959500D02*
X69250600Y-108229500D01*
X122959100Y-95318800D02*
X121889700Y-94249400D01*
X105785700Y-110141200D02*
X106563000Y-110918500D01*
X99046800Y-110141200D02*
X105785700Y-110141200D01*
X121889700Y-94249400D02*
X114502100Y-94249400D01*
X69250600Y-108229500D02*
X62014400Y-108229500D01*
X107688300Y-110918500D02*
X106563000Y-110918500D01*
X80640900Y-89073600D02*
X81766200Y-89073600D01*
X60639800Y-95266900D02*
X63320100Y-95266900D01*
X81766200Y-89073600D02*
X82068300Y-88771500D01*
%TO.N,+5V*%
X123258500Y-123047800D02*
X113077500Y-123047800D01*
X111760000Y-123190000D02*
X112935300Y-123190000D01*
X113077500Y-123047800D02*
X112935300Y-123190000D01*
X151393700Y-120674900D02*
X150585800Y-119867000D01*
X150585800Y-119867000D02*
X126439300Y-119867000D01*
X126439300Y-119867000D02*
X123258500Y-123047800D01*
X151393700Y-121042300D02*
X151393700Y-120674900D01*
X152569000Y-121042300D02*
X151393700Y-121042300D01*
D38*
%TO.N,/Zone1IO/ZoneOutput*%
X83185000Y-83820000D02*
X83185000Y-81915000D01*
X71120000Y-69850000D02*
X69273700Y-71696300D01*
X83185000Y-81915000D02*
X71120000Y-69850000D01*
X69273700Y-71696300D02*
X69273700Y-81139600D01*
%TO.N,/Zone2IO/ZoneOutput*%
X101600000Y-69850000D02*
X98692600Y-72757400D01*
X113665000Y-81915000D02*
X101600000Y-69850000D01*
X113665000Y-83820000D02*
X113665000Y-81915000D01*
X98692600Y-72757400D02*
X98692600Y-81027600D01*
%TO.N,/Zone4IO/ZoneOutput*%
X162560000Y-69850000D02*
X159813000Y-72596800D01*
D37*
X159813000Y-76812200D02*
X159813200Y-76812400D01*
D38*
X159813000Y-72596800D02*
X159813000Y-76812200D01*
X174625000Y-81915000D02*
X162560000Y-69850000D01*
X174625000Y-83820000D02*
X174625000Y-81915000D01*
X159813000Y-76812200D02*
X159813000Y-81027600D01*
D37*
X159813200Y-76812400D02*
X159813200Y-81027600D01*
D38*
%TO.N,/Zone3IO/ZoneOutput*%
X132080000Y-69850000D02*
X128670000Y-73260300D01*
X144145000Y-83820000D02*
X144145000Y-81915000D01*
X128670000Y-73260300D02*
X128670000Y-77143900D01*
D37*
X128670000Y-77143900D02*
X128669700Y-77144200D01*
D38*
X128670000Y-77143900D02*
X128670000Y-81027600D01*
X144145000Y-81915000D02*
X132080000Y-69850000D01*
D37*
X128669700Y-77144200D02*
X128669700Y-81027600D01*
%TO.N,+3V3*%
X166539000Y-120569600D02*
X159295500Y-113326100D01*
X122116200Y-120523800D02*
X120440000Y-118847600D01*
X92887500Y-113124500D02*
X88097100Y-113124500D01*
X167472700Y-122407000D02*
X166539000Y-121473300D01*
X166539000Y-121473300D02*
X166539000Y-120569600D01*
X64219000Y-112941100D02*
X62580600Y-114579500D01*
X170349000Y-123582300D02*
X169173700Y-123582300D01*
X168365800Y-122407000D02*
X167472700Y-122407000D01*
X83306700Y-113124500D02*
X88097100Y-113124500D01*
X120440000Y-118847600D02*
X98610600Y-118847600D01*
X122116200Y-120523800D02*
X123223400Y-119416600D01*
X169173700Y-123582300D02*
X169173700Y-123214900D01*
X123223400Y-119416600D02*
X137690500Y-119416600D01*
X83306700Y-113124500D02*
X83123300Y-112941100D01*
X97677800Y-113124500D02*
X92887500Y-113124500D01*
X159295500Y-113326100D02*
X143781000Y-113326100D01*
X169173700Y-123214900D02*
X168365800Y-122407000D01*
X83123300Y-112941100D02*
X64219000Y-112941100D01*
X137690500Y-119416600D02*
X143781000Y-113326100D01*
%TO.N,Net-(D2-Pad1)*%
X85542700Y-104962800D02*
X91948800Y-111368900D01*
X98128200Y-111368900D02*
X99602700Y-112843400D01*
X91948800Y-111368900D02*
X98128200Y-111368900D01*
X84692400Y-104644400D02*
X85542700Y-104644400D01*
X99602700Y-112843400D02*
X111110500Y-112843400D01*
X85542700Y-104644400D02*
X85542700Y-104962800D01*
%TO.N,Net-(D4-Pad1)*%
X110153400Y-108065100D02*
X94564000Y-108065100D01*
X113595000Y-111761400D02*
X113595000Y-111506700D01*
X90288400Y-104639800D02*
X91138700Y-104639800D01*
X113595000Y-111506700D02*
X110153400Y-108065100D01*
X115020300Y-111761400D02*
X113595000Y-111761400D01*
X94564000Y-108065100D02*
X91138700Y-104639800D01*
%TO.N,Net-(D6-Pad1)*%
X98478300Y-106368400D02*
X96736600Y-104626700D01*
X115020300Y-106852100D02*
X113595000Y-106852100D01*
X95886300Y-104626700D02*
X96736600Y-104626700D01*
X113595000Y-106852100D02*
X113111300Y-106368400D01*
X113111300Y-106368400D02*
X98478300Y-106368400D01*
%TO.N,/InputIsolation/1in*%
X133276200Y-116670800D02*
X125180300Y-116670800D01*
X139575300Y-110371700D02*
X133276200Y-116670800D01*
%TO.N,/InputIsolation/2in*%
X139292800Y-106515800D02*
X134047200Y-111761400D01*
X134047200Y-111761400D02*
X125180300Y-111761400D01*
%TO.N,D21*%
X143773700Y-123949600D02*
X142956300Y-124767000D01*
X128838700Y-124767000D02*
X127303800Y-123232100D01*
X144949000Y-123582300D02*
X143773700Y-123582300D01*
X143773700Y-123582300D02*
X143773700Y-123949600D01*
X142956300Y-124767000D02*
X128838700Y-124767000D01*
%TO.N,/Zone2IO/ZoneInput*%
X106680000Y-69850000D02*
X108305300Y-69850000D01*
X108305300Y-69850000D02*
X111589000Y-73133700D01*
X111589000Y-73133700D02*
X118582200Y-73133700D01*
%TO.N,/Zone3IO/ZoneInput*%
X94616300Y-104626700D02*
X94616300Y-105702000D01*
X96008000Y-107093700D02*
X112452200Y-107093700D01*
X94616300Y-105702000D02*
X96008000Y-107093700D01*
%TO.N,/Zone4IO/ZoneInput*%
X100248100Y-104626700D02*
X100248100Y-105702000D01*
X167640000Y-69850000D02*
X169265300Y-69850000D01*
X179540300Y-68202800D02*
X177525000Y-70218100D01*
X177525000Y-70218100D02*
X169633400Y-70218100D01*
X112781300Y-104784900D02*
X111864200Y-105702000D01*
X169633400Y-70218100D02*
X169265300Y-69850000D01*
X111864200Y-105702000D02*
X100248100Y-105702000D01*
%TO.N,D22*%
X75172600Y-102076300D02*
X83611600Y-102076300D01*
X83611600Y-102076300D02*
X86171100Y-104635800D01*
X90516300Y-109220100D02*
X108529900Y-109220100D01*
X86171100Y-104635800D02*
X86171100Y-104874900D01*
X108529900Y-109220100D02*
X110228300Y-110918500D01*
X86171100Y-104874900D02*
X90516300Y-109220100D01*
%TO.N,D36*%
X75348900Y-114579500D02*
X75859900Y-114068500D01*
X70520600Y-114579500D02*
X75348900Y-114579500D01*
%TO.N,Net-(IC3-Pad3)*%
X70520600Y-109499500D02*
X72642300Y-109499500D01*
X72642300Y-109499500D02*
X73376700Y-108765100D01*
%TO.N,Net-(IC4-Pad5)*%
X141241000Y-103747400D02*
X140115700Y-103747400D01*
X140115700Y-103747400D02*
X137802100Y-101433800D01*
X137802100Y-101433800D02*
X136545100Y-101433800D01*
%TO.N,Net-(IC4-Pad7)*%
X141241000Y-98958100D02*
X140115700Y-98958100D01*
X136247400Y-98441600D02*
X139599200Y-98441600D01*
X139599200Y-98441600D02*
X140115700Y-98958100D01*
%TO.N,D12*%
X123381600Y-109043000D02*
X118335500Y-114089100D01*
X97677800Y-115664500D02*
X98803100Y-115664500D01*
X125009200Y-109043000D02*
X123381600Y-109043000D01*
X130476100Y-103576100D02*
X125009200Y-109043000D01*
X118335500Y-114089100D02*
X100378500Y-114089100D01*
X100378500Y-114089100D02*
X98803100Y-115664500D01*
%TO.N,D14*%
X95238800Y-116890500D02*
X94012800Y-115664500D01*
X131392100Y-108318600D02*
X130217400Y-109493300D01*
X92887500Y-115664500D02*
X94012800Y-115664500D01*
X119473300Y-114539400D02*
X113745300Y-114539400D01*
X130217400Y-109493300D02*
X124519400Y-109493300D01*
X113745300Y-114539400D02*
X111394200Y-116890500D01*
X124519400Y-109493300D02*
X119473300Y-114539400D01*
X111394200Y-116890500D02*
X95238800Y-116890500D01*
%TO.N,D27*%
X90946900Y-117389000D02*
X89222400Y-115664500D01*
X132146300Y-108030500D02*
X132146300Y-108595400D01*
X130798100Y-109943600D02*
X124706000Y-109943600D01*
X88097100Y-115664500D02*
X89222400Y-115664500D01*
X119659900Y-114989700D02*
X114024900Y-114989700D01*
X111625600Y-117389000D02*
X90946900Y-117389000D01*
X124706000Y-109943600D02*
X119659900Y-114989700D01*
X114024900Y-114989700D02*
X111625600Y-117389000D01*
X132146300Y-108595400D02*
X130798100Y-109943600D01*
X131248600Y-107132800D02*
X132146300Y-108030500D01*
X130585000Y-107132800D02*
X131248600Y-107132800D01*
%TO.N,D26*%
X121043800Y-118122300D02*
X92235700Y-118122300D01*
X88900000Y-120650000D02*
X90075300Y-120650000D01*
X92235700Y-118122300D02*
X90075300Y-120282700D01*
X90075300Y-120282700D02*
X90075300Y-120650000D01*
%TO.N,D23*%
X68580000Y-97790000D02*
X69755300Y-97790000D01*
X106931100Y-99936000D02*
X71534000Y-99936000D01*
X69755300Y-98157300D02*
X69755300Y-97790000D01*
X71534000Y-99936000D02*
X69755300Y-98157300D01*
%TO.N,D19*%
X127594100Y-91189400D02*
X127364200Y-91419300D01*
X84995300Y-97422700D02*
X84995300Y-97790000D01*
X127364200Y-91419300D02*
X90998700Y-91419300D01*
X90998700Y-91419300D02*
X84995300Y-97422700D01*
X134442600Y-91189400D02*
X127594100Y-91189400D01*
X83820000Y-97790000D02*
X84995300Y-97790000D01*
%TO.N,D18*%
X86360000Y-97790000D02*
X87535300Y-97790000D01*
X92986700Y-91971300D02*
X133666800Y-91971300D01*
X87535300Y-97790000D02*
X87535300Y-97422700D01*
X87535300Y-97422700D02*
X92986700Y-91971300D01*
%TO.N,D5*%
X88900000Y-97790000D02*
X90075300Y-97790000D01*
X90075300Y-98157300D02*
X90075300Y-97790000D01*
X91098100Y-99180100D02*
X90075300Y-98157300D01*
X115044700Y-99180100D02*
X91098100Y-99180100D01*
%TO.N,D35*%
X79915300Y-123557300D02*
X79915300Y-123190000D01*
X82950700Y-126592700D02*
X79915300Y-123557300D01*
X155109000Y-123582300D02*
X153933700Y-123582300D01*
X78740000Y-123190000D02*
X79915300Y-123190000D01*
X153933700Y-123582300D02*
X153933700Y-123949600D01*
X151290600Y-126592700D02*
X82950700Y-126592700D01*
X153933700Y-123949600D02*
X151290600Y-126592700D01*
%TO.N,D32*%
X82455300Y-123557300D02*
X84998300Y-126100300D01*
X81280000Y-123190000D02*
X82455300Y-123190000D01*
X84998300Y-126100300D02*
X149243000Y-126100300D01*
X149243000Y-126100300D02*
X151393700Y-123949600D01*
X82455300Y-123190000D02*
X82455300Y-123557300D01*
X151393700Y-123949600D02*
X151393700Y-123582300D01*
X152569000Y-123582300D02*
X151393700Y-123582300D01*
%TO.N,D33*%
X123567300Y-123948400D02*
X115053600Y-123948400D01*
X84995300Y-123557300D02*
X84995300Y-123190000D01*
X83820000Y-123190000D02*
X84995300Y-123190000D01*
X115053600Y-123948400D02*
X114108500Y-124893500D01*
X147517000Y-125286300D02*
X124905200Y-125286300D01*
X114108500Y-124893500D02*
X86331500Y-124893500D01*
X150029000Y-123582300D02*
X148853700Y-123582300D01*
X148853700Y-123582300D02*
X148853700Y-123949600D01*
X124905200Y-125286300D02*
X123567300Y-123948400D01*
X86331500Y-124893500D02*
X84995300Y-123557300D01*
X148853700Y-123949600D02*
X147517000Y-125286300D01*
%TO.N,D25*%
X86360000Y-123190000D02*
X87535300Y-123190000D01*
X132779000Y-122407000D02*
X132378700Y-122006700D01*
X114185000Y-123498100D02*
X113278000Y-124405100D01*
X124149700Y-123498100D02*
X114185000Y-123498100D01*
X113278000Y-124405100D02*
X88383100Y-124405100D01*
X132378700Y-122006700D02*
X125641100Y-122006700D01*
X125641100Y-122006700D02*
X124149700Y-123498100D01*
X87535300Y-123557300D02*
X87535300Y-123190000D01*
X88383100Y-124405100D02*
X87535300Y-123557300D01*
X145505800Y-122407000D02*
X132779000Y-122407000D01*
X146313700Y-123214900D02*
X145505800Y-122407000D01*
X147489000Y-123582300D02*
X146313700Y-123582300D01*
X146313700Y-123582300D02*
X146313700Y-123214900D01*
%TO.N,RX*%
X112796700Y-111734200D02*
X112487000Y-112043900D01*
X112487000Y-112043900D02*
X99923700Y-112043900D01*
X98004400Y-110124600D02*
X92027200Y-110124600D01*
X99923700Y-112043900D02*
X98004400Y-110124600D01*
%TO.N,D34*%
X57889400Y-114568900D02*
X60418800Y-112039500D01*
X60418800Y-112039500D02*
X62580600Y-112039500D01*
%TO.N,D17*%
X79264900Y-87909600D02*
X85551100Y-87909600D01*
X78100900Y-89073600D02*
X79264900Y-87909600D01*
%TO.N,D2*%
X136603000Y-88020600D02*
X135966400Y-88657200D01*
X101600000Y-97790000D02*
X102775300Y-97790000D01*
X107323900Y-92874100D02*
X102775300Y-97422700D01*
X171666500Y-89910000D02*
X144389800Y-89910000D01*
X144389800Y-89910000D02*
X142500400Y-88020600D01*
X135966400Y-88657200D02*
X135966400Y-90707900D01*
X135966400Y-90707900D02*
X133800200Y-92874100D01*
X142500400Y-88020600D02*
X136603000Y-88020600D01*
X174293400Y-87283100D02*
X171666500Y-89910000D01*
X133800200Y-92874100D02*
X107323900Y-92874100D01*
X102775300Y-97422700D02*
X102775300Y-97790000D01*
%TO.N,D15*%
X104140000Y-97790000D02*
X105315300Y-97790000D01*
X105315300Y-97422600D02*
X109254200Y-93483700D01*
X137097400Y-90213800D02*
X137097400Y-89165200D01*
X105315300Y-97790000D02*
X105315300Y-97422600D01*
X133827500Y-93483700D02*
X137097400Y-90213800D01*
X109254200Y-93483700D02*
X133827500Y-93483700D01*
D38*
%TO.N,Net-(Q3-Pad1)*%
X72922600Y-89073600D02*
X72922600Y-88849300D01*
X72922600Y-89073600D02*
X70256100Y-89073600D01*
X71813700Y-82352500D02*
X75616500Y-86155400D01*
X72922600Y-88849300D02*
X75616500Y-86155400D01*
X71813700Y-81139600D02*
X71813700Y-82352500D01*
D37*
%TO.N,Net-(Q6-Pad1)*%
X101232600Y-81106400D02*
X101232600Y-81027600D01*
D38*
X105582000Y-86196000D02*
X102727000Y-89051400D01*
D37*
X100092100Y-89073400D02*
X100092100Y-89073600D01*
D38*
X102727000Y-89051400D02*
X102726700Y-89051400D01*
X101233000Y-81186000D02*
X106243000Y-86196000D01*
X100114000Y-89051400D02*
X100103000Y-89062500D01*
D37*
X101233000Y-81106800D02*
X101232600Y-81106400D01*
D38*
X106242500Y-86196000D02*
X105582000Y-86196000D01*
X106243000Y-86196000D02*
X106242500Y-86196000D01*
X100103000Y-89062500D02*
X100092000Y-89073600D01*
X101233000Y-81106800D02*
X101233000Y-81186000D01*
X102726700Y-89051400D02*
X100114000Y-89051400D01*
X101233000Y-81027600D02*
X101233000Y-81106800D01*
D37*
X100103000Y-89062500D02*
X100092100Y-89073400D01*
D38*
%TO.N,Net-(Q9-Pad1)*%
X135792600Y-86196000D02*
X135793000Y-86196000D01*
X134851000Y-86196000D02*
X135792600Y-86196000D01*
D37*
X131209700Y-81027600D02*
X131210000Y-81027600D01*
X129278500Y-89152400D02*
X129279000Y-89152400D01*
D38*
X131895000Y-89152400D02*
X131901000Y-89145900D01*
X135793000Y-86196000D02*
X135793000Y-85610400D01*
X131901000Y-89145900D02*
X134851000Y-86196000D01*
X135793000Y-85610400D02*
X131210000Y-81027600D01*
D37*
X131901400Y-89145900D02*
X131901000Y-89145900D01*
D38*
X129279000Y-89152400D02*
X131895000Y-89152400D01*
%TO.N,Net-(Q12-Pad1)*%
X157786000Y-88755900D02*
X157761000Y-88780800D01*
X167388000Y-85864200D02*
X163450000Y-85864200D01*
D37*
X157786000Y-88755900D02*
X157785700Y-88755900D01*
X157785700Y-88755900D02*
X157760800Y-88780800D01*
D38*
X163450000Y-85864200D02*
X160583000Y-88731000D01*
D37*
X160583300Y-88731000D02*
X160583000Y-88731000D01*
X167388300Y-85864200D02*
X167388000Y-85864200D01*
D38*
X157811000Y-88731000D02*
X157786000Y-88755900D01*
X162353200Y-81027600D02*
X162552000Y-81027600D01*
X162552000Y-81027600D02*
X167388000Y-85864200D01*
X160583000Y-88731000D02*
X157811000Y-88731000D01*
D37*
%TO.N,Net-(D8-Pad1)*%
X115020300Y-101942700D02*
X113595000Y-101942700D01*
X110911000Y-104626700D02*
X101518100Y-104626700D01*
X113595000Y-101942700D02*
X110911000Y-104626700D01*
%TO.N,Net-(IC3-Pad5)*%
X62580600Y-106959500D02*
X68798300Y-100741800D01*
X68798300Y-100741800D02*
X107312100Y-100741800D01*
X115335200Y-100402700D02*
X120419100Y-95318800D01*
X107651200Y-100402700D02*
X115335200Y-100402700D01*
X107312100Y-100741800D02*
X107651200Y-100402700D01*
%TD*%
M02*
