M48
INCH,TZ
T1C0.0157
T2C0.0287
T3C0.0295
T4C0.0315
T5C0.0354
T6C0.0394
T7C0.0433
T8C0.0504
T9C0.0512
T10C0.0551
%
G90
G05
T1
X20180Y-38527
X21122Y-35054
X21214Y-35826
X24415Y-42610
X24929Y-37507
X27330Y-37643
X29596Y-40188
X31335Y-32168
X32310Y-34949
X33682Y-34610
X36231Y-43356
X38823Y-46790
X38995Y-43363
X42099Y-39345
X43576Y-33660
X43744Y-44427
X44273Y-42163
X44402Y-41254
X44408Y-43990
X45080Y-37106
X45293Y-39047
X47655Y-46505
X51369Y-40778
X51411Y-42178
X51729Y-42645
X52625Y-36209
X52930Y-35901
X53629Y-42437
X53641Y-38757
X53758Y-39935
X54301Y-45041
X54674Y-36909
X54840Y-41935
X54951Y-43453
X54954Y-39483
T2
X24638Y-42110
X24638Y-43110
X24638Y-44110
X24638Y-45110
X27764Y-42110
X27764Y-43110
X27764Y-44110
X27764Y-45110
T3
X25558Y-33919
X29770Y-33919
X30393Y-31723
X30393Y-32223
X30393Y-32723
X32343Y-41199
X32843Y-41199
X33343Y-41199
X34547Y-41197
X35047Y-41197
X35547Y-41197
X36751Y-41192
X37251Y-41192
X37615Y-33935
X37751Y-41192
X38968Y-41192
X39468Y-41192
X39968Y-41192
X41828Y-33935
X42046Y-31697
X42046Y-32197
X42046Y-32697
X49249Y-33935
X53462Y-33935
X54199Y-31726
X54199Y-32226
X54199Y-32726
X61688Y-33805
X65901Y-33805
X66068Y-31615
X66068Y-32115
X66068Y-32615
T4
X17751Y-32711
X18751Y-32711
X21090Y-32682
X22090Y-32682
X22791Y-45106
X23791Y-45106
X23874Y-34554
X23874Y-37507
X26660Y-35068
X27660Y-35068
X28710Y-35068
X28753Y-41586
X28888Y-42821
X29710Y-35068
X29753Y-41586
X29866Y-43909
X29866Y-44909
X29888Y-42821
X30748Y-35068
X31748Y-35068
X32798Y-44537
X32798Y-45537
X34684Y-44537
X34684Y-45537
X34885Y-30996
X35131Y-26937
X35131Y-28905
X35885Y-30996
X36570Y-44537
X36570Y-45537
X38406Y-35068
X38456Y-44537
X38456Y-45537
X39406Y-35068
X40444Y-35060
X41444Y-35060
X42344Y-45577
X42397Y-43669
X42491Y-35057
X43344Y-45577
X43397Y-43669
X43491Y-35057
X46409Y-37527
X46686Y-28793
X47076Y-25033
X47076Y-27002
X47409Y-37527
X47686Y-28793
X48409Y-37527
X49897Y-35099
X50897Y-35099
X51930Y-35097
X52930Y-35097
X53975Y-35104
X54975Y-35104
X55607Y-38960
X55607Y-40845
X55607Y-42731
X55607Y-44617
X56607Y-38960
X56607Y-40845
X56607Y-42731
X56607Y-44617
X58903Y-36971
X59020Y-29804
X59620Y-30958
X59620Y-32927
X59639Y-25747
X59639Y-27716
X60020Y-29804
X60281Y-36971
X60525Y-40106
X60525Y-44106
X61111Y-34953
X61772Y-41621
X61772Y-42621
X61836Y-43564
X61836Y-45532
X62111Y-34953
X63135Y-40363
X63222Y-34933
X64222Y-34933
X65104Y-40363
X65482Y-36250
X66860Y-36250
X68619Y-34363
X68724Y-36737
X69619Y-34363
X69724Y-36737
X70685Y-26851
X70685Y-27851
T5
X50120Y-48517
X51120Y-48517
T6
X26000Y-38500
X26000Y-47500
X26000Y-48500
X27000Y-38500
X27000Y-47500
X27000Y-48500
X28000Y-38500
X28000Y-47500
X28000Y-48500
X29000Y-38500
X29000Y-47500
X29000Y-48500
X30000Y-38500
X30000Y-47500
X30000Y-48500
X31000Y-38500
X31000Y-47500
X31000Y-48500
X32000Y-38500
X32000Y-47500
X32000Y-48500
X33000Y-38500
X33000Y-47500
X33000Y-48500
X34000Y-38500
X34000Y-47500
X34000Y-48500
X35000Y-38500
X35000Y-47500
X35000Y-48500
X36000Y-38500
X36000Y-47500
X36000Y-48500
X37000Y-38500
X37000Y-47500
X37000Y-48500
X38000Y-38500
X38000Y-47500
X38000Y-48500
X39000Y-38500
X39000Y-47500
X39000Y-48500
X40000Y-38500
X40000Y-47500
X40000Y-48500
X41000Y-38500
X41000Y-47500
X41000Y-48500
X42000Y-38500
X42000Y-47500
X42000Y-48500
X43000Y-38500
X43000Y-47500
X43000Y-48500
X44000Y-38500
X44000Y-47500
X44000Y-48500
X45518Y-47450
X45518Y-49222
X47256Y-35529
X48077Y-47450
X48077Y-49222
X53067Y-47654
X53067Y-48654
X54067Y-47654
X54067Y-48654
X55067Y-47654
X55067Y-48654
X56067Y-47654
X56067Y-48654
X57067Y-47654
X57067Y-48654
X58067Y-47654
X58067Y-48654
X59067Y-47654
X59067Y-48654
X60067Y-47654
X60067Y-48654
X61067Y-47654
X61067Y-48654
X62067Y-47654
X62067Y-48654
X63067Y-47654
X63067Y-48654
X64067Y-47654
X64067Y-48654
X65067Y-47654
X65067Y-48654
X66067Y-47654
X66067Y-48654
X67067Y-47654
X67067Y-48654
T7
X45284Y-40135
X45284Y-42068
X45284Y-44001
X45284Y-45933
X49284Y-40135
X49284Y-42068
X49284Y-44001
X49284Y-45933
X61421Y-38843
X65421Y-38843
T8
X26273Y-31945
X27273Y-31945
X28273Y-31945
X37855Y-31901
X38855Y-31901
X39855Y-31901
X49657Y-31901
X50657Y-31901
X51657Y-31901
X61919Y-31901
X62919Y-31901
X63919Y-31901
X72542Y-36477
X73542Y-36477
X74542Y-36477
T9
X26000Y-27500
X28000Y-27500
X30000Y-27500
X32750Y-27000
X32750Y-33000
X38000Y-27500
X40000Y-27500
X42000Y-27500
X44750Y-27000
X44750Y-33000
X50000Y-27500
X52000Y-27500
X54000Y-27500
X56750Y-27000
X56750Y-33000
X62000Y-27500
X64000Y-27500
X66000Y-27500
X68750Y-27000
X68750Y-33000
X72500Y-30500
X72500Y-32500
T10
X68489Y-38993
X68489Y-39978
X69867Y-38993
X69867Y-39978
X72151Y-38993
X72151Y-39978
X73529Y-38993
X73529Y-39978
T0
M30
