M48
INCH,TZ
T1C0.0157
T2C0.0287
T3C0.0295
T4C0.0315
T5C0.0354
T6C0.0394
T7C0.0433
T8C0.0504
T9C0.0512
T10C0.0551
%
G90
G05
T1
X26574Y-37984
X31395Y-41199
X32867Y-36521
X33159Y-36835
X39028Y-39710
X39346Y-43980
X40000Y-43988
X41573Y-46338
X42324Y-43930
X43575Y-33608
X46054Y-43592
X46518Y-48913
X47564Y-43442
X47954Y-41145
X48503Y-44870
X50270Y-38285
X50270Y-39900
X51161Y-44383
X51877Y-37537
X52144Y-39140
X52237Y-42003
X52280Y-40279
X52295Y-41609
X52298Y-36835
X52413Y-39797
X52816Y-36595
X53196Y-46232
X53629Y-44307
X69054Y-37050
T2
X24638Y-42110
X24638Y-43110
X24638Y-44110
X24638Y-45110
X27764Y-42110
X27764Y-43110
X27764Y-44110
X27764Y-45110
T3
X25509Y-34408
X29721Y-34408
X30344Y-32211
X30344Y-32711
X30344Y-33211
X32343Y-41199
X32843Y-41199
X33343Y-41199
X34547Y-41197
X35047Y-41197
X35547Y-41197
X36751Y-41192
X37251Y-41192
X37566Y-34424
X37751Y-41192
X38968Y-41192
X39468Y-41192
X39968Y-41192
X41779Y-34424
X41997Y-32185
X41997Y-32685
X41997Y-33185
X49200Y-34424
X53413Y-34424
X54151Y-32214
X54151Y-32714
X54151Y-33214
X61639Y-34293
X65852Y-34293
X66019Y-32104
X66019Y-32604
X66019Y-33104
T4
X17855Y-34957
X17855Y-38957
X18148Y-30429
X18148Y-31807
X19273Y-36775
X19273Y-37775
X20547Y-39419
X21563Y-35002
X21628Y-30406
X21628Y-31784
X22515Y-39419
X22791Y-45106
X23532Y-35002
X23791Y-45106
X26611Y-35557
X27611Y-35557
X28661Y-35557
X28753Y-41586
X28888Y-42821
X29661Y-35557
X29753Y-41586
X29866Y-43909
X29866Y-44909
X29888Y-42821
X30700Y-35557
X31700Y-35557
X32798Y-44537
X32798Y-45537
X34684Y-44537
X34684Y-45537
X34836Y-31484
X35082Y-27425
X35082Y-29394
X35836Y-31484
X36570Y-44537
X36570Y-45537
X38358Y-35557
X38456Y-44537
X38456Y-45537
X39358Y-35557
X40395Y-35548
X40542Y-45652
X40595Y-43744
X41395Y-35548
X41542Y-45652
X41595Y-43744
X42443Y-35546
X43443Y-35546
X46637Y-29281
X47027Y-25522
X47027Y-27490
X47637Y-29281
X49848Y-35588
X50848Y-35588
X51881Y-35585
X52881Y-35585
X53927Y-35593
X54356Y-39207
X54356Y-41092
X54356Y-42978
X54356Y-44863
X54927Y-35593
X55356Y-39207
X55356Y-41092
X55356Y-42978
X55356Y-44863
X58971Y-30292
X59306Y-40126
X59571Y-31447
X59571Y-33415
X59590Y-26236
X59590Y-28204
X59971Y-30292
X60306Y-40126
X61062Y-35441
X61306Y-40126
X62062Y-35441
X63173Y-35422
X64173Y-35422
X65915Y-41405
X66915Y-41405
X70557Y-29140
X70557Y-30140
X70611Y-32218
X71611Y-32218
T5
X49737Y-48531
X50737Y-48531
T6
X26000Y-38500
X26000Y-47500
X26000Y-48500
X27000Y-38500
X27000Y-47500
X27000Y-48500
X28000Y-38500
X28000Y-47500
X28000Y-48500
X29000Y-38500
X29000Y-47500
X29000Y-48500
X30000Y-38500
X30000Y-47500
X30000Y-48500
X31000Y-38500
X31000Y-47500
X31000Y-48500
X32000Y-38500
X32000Y-47500
X32000Y-48500
X33000Y-38500
X33000Y-47500
X33000Y-48500
X34000Y-38500
X34000Y-47500
X34000Y-48500
X35000Y-38500
X35000Y-47500
X35000Y-48500
X36000Y-38500
X36000Y-47500
X36000Y-48500
X37000Y-38500
X37000Y-47500
X37000Y-48500
X38000Y-38500
X38000Y-47500
X38000Y-48500
X39000Y-38500
X39000Y-47500
X39000Y-48500
X40000Y-38500
X40000Y-47500
X40000Y-48500
X41000Y-38500
X41000Y-47500
X41000Y-48500
X42000Y-38500
X42000Y-47500
X42000Y-48500
X43000Y-38500
X43000Y-47500
X43000Y-48500
X44000Y-38500
X44000Y-47500
X44000Y-48500
X45518Y-47450
X45518Y-49222
X48077Y-47450
X48077Y-49222
X53067Y-47654
X53067Y-48654
X54067Y-47654
X54067Y-48654
X55067Y-47654
X55067Y-48654
X56067Y-47654
X56067Y-48654
X57067Y-47654
X57067Y-48654
X58067Y-47654
X58067Y-48654
X59067Y-47654
X59067Y-48654
X60067Y-47654
X60067Y-48654
X61067Y-47654
X61067Y-48654
X61400Y-38044
X62067Y-47654
X62067Y-48654
X63067Y-47654
X63067Y-48654
X64067Y-47654
X64067Y-48654
X65067Y-47654
X65067Y-48654
X66067Y-47654
X66067Y-48654
X67067Y-47654
X67067Y-48654
T7
X17818Y-33644
X21818Y-33644
X43769Y-46071
X43789Y-40288
X43789Y-42221
X43789Y-44153
X47769Y-46071
X47789Y-40288
X47789Y-42221
X47789Y-44153
T8
X26224Y-32433
X27224Y-32433
X28224Y-32433
X37807Y-32389
X38807Y-32389
X39807Y-32389
X49609Y-32389
X50609Y-32389
X51609Y-32389
X61870Y-32389
X62870Y-32389
X63870Y-32389
X68638Y-41403
X69638Y-41403
X70638Y-41403
T9
X25951Y-27988
X27951Y-27988
X29951Y-27988
X32701Y-27488
X32701Y-33488
X37951Y-27988
X39951Y-27988
X41951Y-27988
X44701Y-27488
X44701Y-33488
X49951Y-27988
X51951Y-27988
X53951Y-27988
X56701Y-27488
X56701Y-33488
X61951Y-27988
X63951Y-27988
X65951Y-27988
X68701Y-27488
X68701Y-33488
X70128Y-35976
X70128Y-37976
T10
X64952Y-43229
X64952Y-44213
X66330Y-43229
X66330Y-44213
X68614Y-43229
X68614Y-44213
X69991Y-43229
X69991Y-44213
T0
M30
