%TF.GenerationSoftware,KiCad,Pcbnew,(5.1.9)-1*%
%TF.CreationDate,2021-10-29T19:30:33-07:00*%
%TF.ProjectId,MakeItRain,4d616b65-4974-4526-9169-6e2e6b696361,rev?*%
%TF.SameCoordinates,Original*%
%TF.FileFunction,Copper,L2,Inr*%
%TF.FilePolarity,Positive*%
%FSLAX46Y46*%
G04 Gerber Fmt 4.6, Leading zero omitted, Abs format (unit mm)*
G04 Created by KiCad (PCBNEW (5.1.9)-1) date 2021-10-29 19:30:33*
%MOMM*%
%LPD*%
G01*
G04 APERTURE LIST*
%TA.AperFunction,ComponentPad*%
%ADD10C,1.150000*%
%TD*%
%TA.AperFunction,ComponentPad*%
%ADD11R,1.150000X1.150000*%
%TD*%
%TA.AperFunction,ComponentPad*%
%ADD12C,2.600000*%
%TD*%
%TA.AperFunction,ComponentPad*%
%ADD13R,2.600000X2.600000*%
%TD*%
%TA.AperFunction,ComponentPad*%
%ADD14O,1.700000X1.700000*%
%TD*%
%TA.AperFunction,ComponentPad*%
%ADD15R,1.700000X1.700000*%
%TD*%
%TA.AperFunction,ComponentPad*%
%ADD16O,1.600000X1.600000*%
%TD*%
%TA.AperFunction,ComponentPad*%
%ADD17C,1.600000*%
%TD*%
%TA.AperFunction,ComponentPad*%
%ADD18C,2.100000*%
%TD*%
%TA.AperFunction,ComponentPad*%
%ADD19C,1.920000*%
%TD*%
%TA.AperFunction,ComponentPad*%
%ADD20R,1.920000X1.920000*%
%TD*%
%TA.AperFunction,ComponentPad*%
%ADD21R,1.050000X1.500000*%
%TD*%
%TA.AperFunction,ComponentPad*%
%ADD22O,1.050000X1.500000*%
%TD*%
%TA.AperFunction,ComponentPad*%
%ADD23R,1.500000X1.050000*%
%TD*%
%TA.AperFunction,ComponentPad*%
%ADD24O,1.500000X1.050000*%
%TD*%
%TA.AperFunction,ComponentPad*%
%ADD25C,1.130000*%
%TD*%
%TA.AperFunction,ComponentPad*%
%ADD26R,1.130000X1.130000*%
%TD*%
%TA.AperFunction,ComponentPad*%
%ADD27O,2.200000X2.200000*%
%TD*%
%TA.AperFunction,ComponentPad*%
%ADD28R,2.200000X2.200000*%
%TD*%
%TA.AperFunction,ComponentPad*%
%ADD29O,2.600000X2.600000*%
%TD*%
%TA.AperFunction,ComponentPad*%
%ADD30R,1.600000X1.600000*%
%TD*%
%TA.AperFunction,ViaPad*%
%ADD31C,0.800000*%
%TD*%
%TA.AperFunction,Conductor*%
%ADD32C,0.250000*%
%TD*%
%TA.AperFunction,Conductor*%
%ADD33C,1.524000*%
%TD*%
%TA.AperFunction,Conductor*%
%ADD34C,0.381000*%
%TD*%
G04 APERTURE END LIST*
D10*
%TO.N,Net-(Q13-Pad1)*%
%TO.C,Z8*%
X125190000Y-86360000D03*
D11*
%TO.N,+VDC*%
X135890000Y-86360000D03*
%TD*%
D10*
%TO.N,Net-(Q10-Pad1)*%
%TO.C,Z7*%
X156940000Y-86360000D03*
D11*
%TO.N,+VDC*%
X167640000Y-86360000D03*
%TD*%
D10*
%TO.N,Net-(Q7-Pad1)*%
%TO.C,Z6*%
X95980000Y-86360000D03*
D11*
%TO.N,+VDC*%
X106680000Y-86360000D03*
%TD*%
D10*
%TO.N,Net-(Q4-Pad1)*%
%TO.C,Z5*%
X64230000Y-86360000D03*
D11*
%TO.N,+VDC*%
X74930000Y-86360000D03*
%TD*%
D12*
%TO.N,GND*%
%TO.C,P1*%
X184150000Y-77470000D03*
D13*
%TO.N,Net-(P1-Pad1)*%
X184150000Y-82550000D03*
%TD*%
D14*
%TO.N,/D2*%
%TO.C,J1*%
X130810000Y-120650000D03*
%TO.N,GND*%
X130810000Y-123190000D03*
%TO.N,/D23*%
X133350000Y-120650000D03*
%TO.N,GND*%
X133350000Y-123190000D03*
%TO.N,/D5*%
X135890000Y-120650000D03*
%TO.N,GND*%
X135890000Y-123190000D03*
%TO.N,/D15*%
X138430000Y-120650000D03*
%TO.N,GND*%
X138430000Y-123190000D03*
%TO.N,/D0*%
X140970000Y-120650000D03*
%TO.N,GND*%
X140970000Y-123190000D03*
%TO.N,/D4*%
X143510000Y-120650000D03*
%TO.N,GND*%
X143510000Y-123190000D03*
%TO.N,/D16*%
X146050000Y-120650000D03*
%TO.N,GND*%
X146050000Y-123190000D03*
%TO.N,/D18*%
X148590000Y-120650000D03*
%TO.N,/TX*%
X148590000Y-123190000D03*
%TO.N,/D26*%
X151130000Y-120650000D03*
%TO.N,/RX*%
X151130000Y-123190000D03*
%TO.N,/D19*%
X153670000Y-120650000D03*
%TO.N,/D17*%
X153670000Y-123190000D03*
%TO.N,/D25*%
X156210000Y-120650000D03*
%TO.N,+VDC*%
X156210000Y-123190000D03*
%TO.N,/D21*%
X158750000Y-120650000D03*
%TO.N,+VDC*%
X158750000Y-123190000D03*
%TO.N,/D33*%
X161290000Y-120650000D03*
%TO.N,+VDC*%
X161290000Y-123190000D03*
%TO.N,/D22*%
X163830000Y-120650000D03*
%TO.N,+VDC*%
X163830000Y-123190000D03*
%TO.N,/D32*%
X166370000Y-120650000D03*
%TO.N,+VDC*%
X166370000Y-123190000D03*
%TO.N,+3V3*%
X168910000Y-120650000D03*
D15*
%TO.N,+VDC*%
X168910000Y-123190000D03*
%TD*%
D16*
%TO.N,GND*%
%TO.C,R2*%
X157480000Y-99060000D03*
D17*
%TO.N,/D2*%
X152400000Y-99060000D03*
%TD*%
D12*
%TO.N,GND*%
%TO.C,Z4*%
X157480000Y-69850000D03*
%TO.N,/Zone4IO/ZoneOutput*%
X162560000Y-69850000D03*
D13*
%TO.N,/Zone4IO/ZoneInput*%
X167640000Y-69850000D03*
%TD*%
D12*
%TO.N,GND*%
%TO.C,Z3*%
X127000000Y-69850000D03*
%TO.N,/Zone3IO/ZoneOutput*%
X132080000Y-69850000D03*
D13*
%TO.N,/Zone3IO/ZoneInput*%
X137160000Y-69850000D03*
%TD*%
D12*
%TO.N,GND*%
%TO.C,Z2*%
X96520000Y-69850000D03*
%TO.N,/Zone2IO/ZoneOutput*%
X101600000Y-69850000D03*
D13*
%TO.N,/Zone2IO/ZoneInput*%
X106680000Y-69850000D03*
%TD*%
D12*
%TO.N,GND*%
%TO.C,Z1*%
X66040000Y-69850000D03*
%TO.N,/Zone1IO/ZoneOutput*%
X71120000Y-69850000D03*
D13*
%TO.N,/Zone1IO/ZoneInput*%
X76200000Y-69850000D03*
%TD*%
D18*
%TO.N,+VDC*%
%TO.C,U1*%
X173990000Y-99100000D03*
X177490000Y-99100000D03*
%TO.N,Net-(Q1-Pad3)*%
X183290000Y-99100000D03*
X186790000Y-99100000D03*
X186790000Y-101600000D03*
X183290000Y-101600000D03*
%TO.N,+VDC*%
X177490000Y-101600000D03*
X173990000Y-101600000D03*
%TD*%
D16*
%TO.N,Net-(IC2-Pad1)*%
%TO.C,R6*%
X59690000Y-69850000D03*
D17*
%TO.N,+VDC*%
X54610000Y-69850000D03*
%TD*%
D16*
%TO.N,Net-(Q12-Pad3)*%
%TO.C,R26*%
X143510000Y-93980000D03*
D17*
%TO.N,Net-(Q13-Pad1)*%
X140970000Y-93980000D03*
%TD*%
D16*
%TO.N,Net-(Q13-Pad1)*%
%TO.C,R25*%
X143510000Y-88900000D03*
D17*
%TO.N,+VDC*%
X140970000Y-88900000D03*
%TD*%
D16*
%TO.N,GND*%
%TO.C,R24*%
X128270000Y-99060000D03*
D17*
%TO.N,/D12*%
X125730000Y-99060000D03*
%TD*%
D16*
%TO.N,Net-(Q9-Pad3)*%
%TO.C,R21*%
X152400000Y-88900000D03*
D17*
%TO.N,Net-(Q10-Pad1)*%
X149860000Y-88900000D03*
%TD*%
D16*
%TO.N,GND*%
%TO.C,R5*%
X157480000Y-104140000D03*
D17*
%TO.N,/D4*%
X152400000Y-104140000D03*
%TD*%
D16*
%TO.N,GND*%
%TO.C,R4*%
X166370000Y-104140000D03*
D17*
%TO.N,Net-(IC1-Pad3)*%
X161290000Y-104140000D03*
%TD*%
D16*
%TO.N,Net-(IC1-Pad3)*%
%TO.C,R3*%
X166370000Y-99060000D03*
D17*
%TO.N,+VDC*%
X161290000Y-99060000D03*
%TD*%
D16*
%TO.N,Net-(Q10-Pad1)*%
%TO.C,R20*%
X152400000Y-83820000D03*
D17*
%TO.N,+VDC*%
X149860000Y-83820000D03*
%TD*%
D16*
%TO.N,GND*%
%TO.C,R19*%
X152400000Y-78740000D03*
D17*
%TO.N,/P23*%
X149860000Y-78740000D03*
%TD*%
D16*
%TO.N,Net-(Q6-Pad3)*%
%TO.C,R16*%
X121920000Y-88900000D03*
D17*
%TO.N,Net-(Q7-Pad1)*%
X119380000Y-88900000D03*
%TD*%
D16*
%TO.N,Net-(Q7-Pad1)*%
%TO.C,R15*%
X121920000Y-83820000D03*
D17*
%TO.N,+VDC*%
X119380000Y-83820000D03*
%TD*%
D16*
%TO.N,GND*%
%TO.C,R18*%
X152400000Y-73660000D03*
D17*
%TO.N,/D35*%
X149860000Y-73660000D03*
%TD*%
D16*
%TO.N,GND*%
%TO.C,R14*%
X121920000Y-78740000D03*
D17*
%TO.N,/D14*%
X119380000Y-78740000D03*
%TD*%
D16*
%TO.N,GND*%
%TO.C,R17*%
X152400000Y-68580000D03*
D17*
%TO.N,/Zone4IO/ZoneInput*%
X149860000Y-68580000D03*
%TD*%
D16*
%TO.N,GND*%
%TO.C,R23*%
X134620000Y-99060000D03*
D17*
%TO.N,/D34*%
X132080000Y-99060000D03*
%TD*%
D16*
%TO.N,Net-(Q3-Pad3)*%
%TO.C,R11*%
X91440000Y-88900000D03*
D17*
%TO.N,Net-(Q4-Pad1)*%
X88900000Y-88900000D03*
%TD*%
D16*
%TO.N,GND*%
%TO.C,R22*%
X143510000Y-99060000D03*
D17*
%TO.N,/Zone3IO/ZoneInput*%
X140970000Y-99060000D03*
%TD*%
D16*
%TO.N,GND*%
%TO.C,R13*%
X121920000Y-73660000D03*
D17*
%TO.N,/SVN*%
X119380000Y-73660000D03*
%TD*%
D16*
%TO.N,Net-(Q4-Pad1)*%
%TO.C,R10*%
X91440000Y-83820000D03*
D17*
%TO.N,+VDC*%
X88900000Y-83820000D03*
%TD*%
D16*
%TO.N,GND*%
%TO.C,R12*%
X121920000Y-68580000D03*
D17*
%TO.N,/Zone2IO/ZoneInput*%
X119380000Y-68580000D03*
%TD*%
D16*
%TO.N,GND*%
%TO.C,R8*%
X91440000Y-73660000D03*
D17*
%TO.N,/SVP*%
X88900000Y-73660000D03*
%TD*%
D16*
%TO.N,GND*%
%TO.C,R9*%
X91440000Y-78740000D03*
D17*
%TO.N,/D27*%
X88900000Y-78740000D03*
%TD*%
D16*
%TO.N,GND*%
%TO.C,R7*%
X91440000Y-68580000D03*
D17*
%TO.N,/Zone1IO/ZoneInput*%
X88900000Y-68580000D03*
%TD*%
D16*
%TO.N,GND*%
%TO.C,R1*%
X173990000Y-91440000D03*
D17*
%TO.N,Net-(Q1-Pad1)*%
X179070000Y-91440000D03*
%TD*%
D19*
%TO.N,+VDC*%
%TO.C,Q13*%
X129540000Y-81280000D03*
%TO.N,/Zone3IO/ZoneOutput*%
X132080000Y-81280000D03*
D20*
%TO.N,Net-(Q13-Pad1)*%
X134620000Y-81280000D03*
%TD*%
D21*
%TO.N,GND*%
%TO.C,Q12*%
X128270000Y-91440000D03*
D22*
%TO.N,Net-(Q12-Pad3)*%
X125730000Y-91440000D03*
%TO.N,/D12*%
X127000000Y-91440000D03*
%TD*%
D19*
%TO.N,+VDC*%
%TO.C,Q10*%
X160020000Y-81280000D03*
%TO.N,/Zone4IO/ZoneOutput*%
X162560000Y-81280000D03*
D20*
%TO.N,Net-(Q10-Pad1)*%
X165100000Y-81280000D03*
%TD*%
D23*
%TO.N,GND*%
%TO.C,Q9*%
X156210000Y-90170000D03*
D24*
%TO.N,Net-(Q9-Pad3)*%
X156210000Y-92710000D03*
%TO.N,/P23*%
X156210000Y-91440000D03*
%TD*%
D23*
%TO.N,/D35*%
%TO.C,Q8*%
X163830000Y-90170000D03*
D24*
%TO.N,+3V3*%
X163830000Y-92710000D03*
%TO.N,/Zone4IO/ZoneInput*%
X163830000Y-91440000D03*
%TD*%
D19*
%TO.N,+VDC*%
%TO.C,Q7*%
X99060000Y-81280000D03*
%TO.N,/Zone2IO/ZoneOutput*%
X101600000Y-81280000D03*
D20*
%TO.N,Net-(Q7-Pad1)*%
X104140000Y-81280000D03*
%TD*%
D21*
%TO.N,/D34*%
%TO.C,Q11*%
X134620000Y-91440000D03*
D22*
%TO.N,+3V3*%
X132080000Y-91440000D03*
%TO.N,/Zone3IO/ZoneInput*%
X133350000Y-91440000D03*
%TD*%
D21*
%TO.N,GND*%
%TO.C,Q6*%
X105410000Y-91440000D03*
D22*
%TO.N,Net-(Q6-Pad3)*%
X102870000Y-91440000D03*
%TO.N,/D14*%
X104140000Y-91440000D03*
%TD*%
D21*
%TO.N,/SVN*%
%TO.C,Q5*%
X99060000Y-91440000D03*
D22*
%TO.N,+3V3*%
X96520000Y-91440000D03*
%TO.N,/Zone2IO/ZoneInput*%
X97790000Y-91440000D03*
%TD*%
D19*
%TO.N,+VDC*%
%TO.C,Q4*%
X68580000Y-81280000D03*
%TO.N,/Zone1IO/ZoneOutput*%
X71120000Y-81280000D03*
D20*
%TO.N,Net-(Q4-Pad1)*%
X73660000Y-81280000D03*
%TD*%
D21*
%TO.N,/SVP*%
%TO.C,Q2*%
X69850000Y-91440000D03*
D22*
%TO.N,+3V3*%
X67310000Y-91440000D03*
%TO.N,/Zone1IO/ZoneInput*%
X68580000Y-91440000D03*
%TD*%
D21*
%TO.N,GND*%
%TO.C,Q3*%
X76200000Y-91440000D03*
D22*
%TO.N,Net-(Q3-Pad3)*%
X73660000Y-91440000D03*
%TO.N,/D27*%
X74930000Y-91440000D03*
%TD*%
D19*
%TO.N,Net-(Q1-Pad3)*%
%TO.C,Q1*%
X189230000Y-92710000D03*
%TO.N,Net-(P1-Pad1)*%
X186690000Y-92710000D03*
D20*
%TO.N,Net-(Q1-Pad1)*%
X184150000Y-92710000D03*
%TD*%
D16*
%TO.N,+5V*%
%TO.C,L1*%
X52070000Y-86360000D03*
D17*
%TO.N,Net-(D1-Pad1)*%
X62230000Y-86360000D03*
%TD*%
D14*
%TO.N,N/C*%
%TO.C,J3*%
X111760000Y-97790000D03*
X109220000Y-97790000D03*
X106680000Y-97790000D03*
%TO.N,/D15*%
X104140000Y-97790000D03*
%TO.N,/D2*%
X101600000Y-97790000D03*
%TO.N,/D0*%
X99060000Y-97790000D03*
%TO.N,/D4*%
X96520000Y-97790000D03*
%TO.N,/D16*%
X93980000Y-97790000D03*
%TO.N,/D17*%
X91440000Y-97790000D03*
%TO.N,/D5*%
X88900000Y-97790000D03*
%TO.N,/D18*%
X86360000Y-97790000D03*
%TO.N,/D19*%
X83820000Y-97790000D03*
%TO.N,GND*%
X81280000Y-97790000D03*
%TO.N,/D21*%
X78740000Y-97790000D03*
%TO.N,/RX*%
X76200000Y-97790000D03*
%TO.N,/TX*%
X73660000Y-97790000D03*
%TO.N,/D22*%
X71120000Y-97790000D03*
%TO.N,/D23*%
X68580000Y-97790000D03*
D15*
%TO.N,GND*%
X66040000Y-97790000D03*
%TD*%
D14*
%TO.N,+5V*%
%TO.C,J2*%
X111760000Y-123190000D03*
X111760000Y-120650000D03*
%TO.N,N/C*%
X109220000Y-123190000D03*
X109220000Y-120650000D03*
%TO.N,/SD3*%
X106680000Y-123190000D03*
X106680000Y-120650000D03*
%TO.N,/SD2*%
X104140000Y-123190000D03*
X104140000Y-120650000D03*
%TO.N,/D13*%
X101600000Y-123190000D03*
X101600000Y-120650000D03*
%TO.N,GND*%
X99060000Y-123190000D03*
X99060000Y-120650000D03*
%TO.N,/D12*%
X96520000Y-123190000D03*
X96520000Y-120650000D03*
%TO.N,/D14*%
X93980000Y-123190000D03*
X93980000Y-120650000D03*
%TO.N,/D27*%
X91440000Y-123190000D03*
X91440000Y-120650000D03*
%TO.N,/D26*%
X88900000Y-123190000D03*
X88900000Y-120650000D03*
%TO.N,/D25*%
X86360000Y-123190000D03*
X86360000Y-120650000D03*
%TO.N,/D33*%
X83820000Y-123190000D03*
X83820000Y-120650000D03*
%TO.N,/D32*%
X81280000Y-123190000D03*
X81280000Y-120650000D03*
%TO.N,/D35*%
X78740000Y-123190000D03*
X78740000Y-120650000D03*
%TO.N,/D34*%
X76200000Y-123190000D03*
X76200000Y-120650000D03*
%TO.N,/SVN*%
X73660000Y-123190000D03*
X73660000Y-120650000D03*
%TO.N,/SVP*%
X71120000Y-123190000D03*
X71120000Y-120650000D03*
%TO.N,/EN*%
X68580000Y-123190000D03*
X68580000Y-120650000D03*
%TO.N,+3V3*%
X66040000Y-123190000D03*
D15*
X66040000Y-120650000D03*
%TD*%
D25*
%TO.N,+3V3*%
%TO.C,IC1*%
X147480000Y-104140000D03*
%TO.N,N/C*%
X147480000Y-106680000D03*
X147480000Y-109220000D03*
X147480000Y-111760000D03*
%TO.N,GND*%
X139540000Y-111760000D03*
%TO.N,Net-(IC1-Pad3)*%
X139540000Y-109220000D03*
%TO.N,/D4*%
X139540000Y-106680000D03*
D26*
X139540000Y-104140000D03*
%TD*%
D27*
%TO.N,GND*%
%TO.C,D1*%
X52070000Y-80010000D03*
D28*
%TO.N,Net-(D1-Pad1)*%
X62230000Y-80010000D03*
%TD*%
D29*
%TO.N,GND*%
%TO.C,D9*%
X144145000Y-68580000D03*
D13*
%TO.N,/Zone3IO/ZoneOutput*%
X144145000Y-83820000D03*
%TD*%
D29*
%TO.N,GND*%
%TO.C,D7*%
X174625000Y-68580000D03*
D13*
%TO.N,/Zone4IO/ZoneOutput*%
X174625000Y-83820000D03*
%TD*%
D29*
%TO.N,GND*%
%TO.C,D5*%
X113665000Y-68580000D03*
D13*
%TO.N,/Zone2IO/ZoneOutput*%
X113665000Y-83820000D03*
%TD*%
D29*
%TO.N,GND*%
%TO.C,D3*%
X83185000Y-68580000D03*
D13*
%TO.N,/Zone1IO/ZoneOutput*%
X83185000Y-83820000D03*
%TD*%
D17*
%TO.N,GND*%
%TO.C,C4*%
X47950000Y-101600000D03*
D30*
%TO.N,+5V*%
X44450000Y-101600000D03*
%TD*%
D17*
%TO.N,GND*%
%TO.C,C3*%
X47950000Y-81280000D03*
D30*
%TO.N,+VDC*%
X44450000Y-81280000D03*
%TD*%
D17*
%TO.N,GND*%
%TO.C,C2*%
X58500000Y-92710000D03*
%TO.N,Net-(C2-Pad1)*%
X63500000Y-92710000D03*
%TD*%
%TO.N,GND*%
%TO.C,C1*%
X48180000Y-91440000D03*
%TO.N,Net-(C1-Pad1)*%
X43180000Y-91440000D03*
%TD*%
D31*
%TO.N,GND*%
X105611900Y-98815200D03*
%TO.N,/D12*%
X114087400Y-109174400D03*
%TO.N,/D27*%
X77506800Y-115576300D03*
%TO.N,/D34*%
X100796500Y-100205700D03*
%TO.N,/RX*%
X146898100Y-116686200D03*
%TO.N,/TX*%
X144618200Y-117131900D03*
%TO.N,/D18*%
X144149500Y-114297400D03*
%TO.N,/D19*%
X147867800Y-115280800D03*
%TO.N,/D0*%
X107348100Y-99852900D03*
%TO.N,/D16*%
X143263800Y-113182100D03*
%TO.N,/D17*%
X116787600Y-110829800D03*
%TO.N,/D5*%
X125934900Y-111555100D03*
%TD*%
D32*
%TO.N,GND*%
X152400000Y-78740000D02*
X152400000Y-79865300D01*
X152400000Y-79865300D02*
X155134700Y-82600000D01*
X155134700Y-82600000D02*
X155134700Y-90170000D01*
X156210000Y-90170000D02*
X155134700Y-90170000D01*
X154676800Y-97382100D02*
X146313200Y-97382100D01*
X146313200Y-97382100D02*
X144635300Y-99060000D01*
X156354700Y-99060000D02*
X154676800Y-97382100D01*
X154676800Y-97382100D02*
X154676800Y-90627900D01*
X154676800Y-90627900D02*
X155134700Y-90170000D01*
X143510000Y-99060000D02*
X144635300Y-99060000D01*
X134620000Y-99060000D02*
X135745300Y-99060000D01*
X143510000Y-99060000D02*
X142384700Y-99060000D01*
X142384700Y-99060000D02*
X142384700Y-98778700D01*
X142384700Y-98778700D02*
X141540700Y-97934700D01*
X141540700Y-97934700D02*
X136870600Y-97934700D01*
X136870600Y-97934700D02*
X135745300Y-99060000D01*
X157480000Y-99060000D02*
X156354700Y-99060000D01*
%TO.N,+VDC*%
X119380000Y-83820000D02*
X116840000Y-86360000D01*
X116840000Y-86360000D02*
X106680000Y-86360000D01*
X88900000Y-83820000D02*
X86360000Y-86360000D01*
X86360000Y-86360000D02*
X74930000Y-86360000D01*
X66040000Y-83820000D02*
X68580000Y-81280000D01*
X46990000Y-83820000D02*
X66040000Y-83820000D01*
X44450000Y-81280000D02*
X46990000Y-83820000D01*
D33*
%TO.N,/Zone1IO/ZoneOutput*%
X71120000Y-81280000D02*
X71120000Y-69850000D01*
X71120000Y-71755000D02*
X83185000Y-83820000D01*
X71120000Y-69850000D02*
X71120000Y-71755000D01*
%TO.N,/Zone2IO/ZoneOutput*%
X101600000Y-81280000D02*
X101600000Y-69850000D01*
%TO.N,/Zone4IO/ZoneOutput*%
X162560000Y-81280000D02*
X162560000Y-69850000D01*
X162560000Y-71755000D02*
X174625000Y-83820000D01*
X162560000Y-69850000D02*
X162560000Y-71755000D01*
%TO.N,/Zone3IO/ZoneOutput*%
X132080000Y-81280000D02*
X132080000Y-69850000D01*
X132080000Y-71755000D02*
X144145000Y-83820000D01*
X132080000Y-69850000D02*
X132080000Y-71755000D01*
D32*
%TO.N,+3V3*%
X132080000Y-91440000D02*
X131229700Y-91440000D01*
X96520000Y-92515300D02*
X130154400Y-92515300D01*
X130154400Y-92515300D02*
X131229700Y-91440000D01*
X67310000Y-92515300D02*
X96520000Y-92515300D01*
X66040000Y-120650000D02*
X66040000Y-119474700D01*
X66040000Y-119474700D02*
X67310000Y-118204700D01*
X67310000Y-118204700D02*
X67310000Y-92515300D01*
X67310000Y-91440000D02*
X67310000Y-92515300D01*
X96520000Y-91440000D02*
X96520000Y-92515300D01*
%TO.N,/D27*%
X91440000Y-123190000D02*
X90264700Y-123190000D01*
X90264700Y-123190000D02*
X90264700Y-123557300D01*
X90264700Y-123557300D02*
X89435300Y-124386700D01*
X89435300Y-124386700D02*
X83305700Y-124386700D01*
X83305700Y-124386700D02*
X82644700Y-123725700D01*
X82644700Y-123725700D02*
X82644700Y-122890500D01*
X82644700Y-122890500D02*
X81579600Y-121825400D01*
X81579600Y-121825400D02*
X80754400Y-121825400D01*
X80754400Y-121825400D02*
X80010000Y-121081000D01*
X80010000Y-121081000D02*
X80010000Y-118079500D01*
X80010000Y-118079500D02*
X77506800Y-115576300D01*
%TO.N,/D26*%
X90075300Y-120650000D02*
X90075300Y-120282600D01*
X90075300Y-120282600D02*
X90883200Y-119474700D01*
X90883200Y-119474700D02*
X149080700Y-119474700D01*
X149080700Y-119474700D02*
X149954700Y-120348700D01*
X149954700Y-120348700D02*
X149954700Y-120650000D01*
X151130000Y-120650000D02*
X149954700Y-120650000D01*
X88900000Y-120650000D02*
X90075300Y-120650000D01*
%TO.N,/D25*%
X87535300Y-120650000D02*
X87535300Y-120282600D01*
X87535300Y-120282600D02*
X88793500Y-119024400D01*
X88793500Y-119024400D02*
X153776500Y-119024400D01*
X153776500Y-119024400D02*
X155034700Y-120282600D01*
X155034700Y-120282600D02*
X155034700Y-120650000D01*
X156210000Y-120650000D02*
X155034700Y-120650000D01*
X86360000Y-120650000D02*
X87535300Y-120650000D01*
%TO.N,/D33*%
X83820000Y-120650000D02*
X84995300Y-120650000D01*
X84995300Y-120650000D02*
X84995300Y-120282700D01*
X84995300Y-120282700D02*
X86704400Y-118573600D01*
X86704400Y-118573600D02*
X159213600Y-118573600D01*
X159213600Y-118573600D02*
X161290000Y-120650000D01*
%TO.N,/D34*%
X100796500Y-100205700D02*
X101169000Y-100578200D01*
X101169000Y-100578200D02*
X130561800Y-100578200D01*
X130561800Y-100578200D02*
X132080000Y-99060000D01*
X132080000Y-99060000D02*
X134620000Y-96520000D01*
X134620000Y-96520000D02*
X134620000Y-91440000D01*
%TO.N,/Zone1IO/ZoneInput*%
X76200000Y-69850000D02*
X77825300Y-69850000D01*
X77825300Y-69850000D02*
X78192400Y-70217100D01*
X78192400Y-70217100D02*
X87262900Y-70217100D01*
X87262900Y-70217100D02*
X88900000Y-68580000D01*
%TO.N,/Zone2IO/ZoneInput*%
X106680000Y-69850000D02*
X108305300Y-69850000D01*
X108305300Y-69850000D02*
X108672400Y-70217100D01*
X108672400Y-70217100D02*
X117742900Y-70217100D01*
X117742900Y-70217100D02*
X119380000Y-68580000D01*
%TO.N,Net-(Q6-Pad3)*%
X121920000Y-88900000D02*
X120794700Y-88900000D01*
X102870000Y-91440000D02*
X102870000Y-90364700D01*
X102870000Y-90364700D02*
X119611300Y-90364700D01*
X119611300Y-90364700D02*
X120794700Y-89181300D01*
X120794700Y-89181300D02*
X120794700Y-88900000D01*
%TO.N,/Zone4IO/ZoneInput*%
X167640000Y-69850000D02*
X166014700Y-69850000D01*
X166014700Y-69850000D02*
X163600000Y-67435300D01*
X163600000Y-67435300D02*
X151004700Y-67435300D01*
X151004700Y-67435300D02*
X149860000Y-68580000D01*
%TO.N,Net-(IC1-Pad3)*%
X139540000Y-109220000D02*
X143208400Y-105551600D01*
X143208400Y-105551600D02*
X159878400Y-105551600D01*
X159878400Y-105551600D02*
X161290000Y-104140000D01*
X165244700Y-99060000D02*
X161290000Y-103014700D01*
X161290000Y-103014700D02*
X161290000Y-104140000D01*
X166370000Y-99060000D02*
X165244700Y-99060000D01*
%TO.N,Net-(Q3-Pad3)*%
X91440000Y-88900000D02*
X90314700Y-88900000D01*
X73660000Y-91440000D02*
X73660000Y-90364700D01*
X73660000Y-90364700D02*
X89131300Y-90364700D01*
X89131300Y-90364700D02*
X90314700Y-89181300D01*
X90314700Y-89181300D02*
X90314700Y-88900000D01*
%TO.N,Net-(Q12-Pad3)*%
X143510000Y-93980000D02*
X142384700Y-93980000D01*
X125730000Y-91440000D02*
X125730000Y-90364700D01*
X125730000Y-90364700D02*
X139050700Y-90364700D01*
X139050700Y-90364700D02*
X142384700Y-93698700D01*
X142384700Y-93698700D02*
X142384700Y-93980000D01*
%TO.N,/RX*%
X77375300Y-97790000D02*
X77375300Y-98157300D01*
X77375300Y-98157300D02*
X95624500Y-116406500D01*
X95624500Y-116406500D02*
X146618400Y-116406500D01*
X146618400Y-116406500D02*
X146898100Y-116686200D01*
X76200000Y-97790000D02*
X77375300Y-97790000D01*
%TO.N,/TX*%
X74835300Y-97790000D02*
X74835300Y-98157300D01*
X74835300Y-98157300D02*
X93809900Y-117131900D01*
X93809900Y-117131900D02*
X144618200Y-117131900D01*
X73660000Y-97790000D02*
X74835300Y-97790000D01*
%TO.N,/D4*%
X97695300Y-97790000D02*
X97695300Y-98146000D01*
X97695300Y-98146000D02*
X103689300Y-104140000D01*
X103689300Y-104140000D02*
X138649700Y-104140000D01*
X139540000Y-104140000D02*
X138649700Y-104140000D01*
X141255200Y-104964800D02*
X140430300Y-104140000D01*
X152400000Y-104140000D02*
X151509700Y-105030300D01*
X151509700Y-105030300D02*
X141320600Y-105030300D01*
X141320600Y-105030300D02*
X141255200Y-104964800D01*
X141255200Y-104964800D02*
X139540000Y-106680000D01*
X139540000Y-104140000D02*
X140430300Y-104140000D01*
X96520000Y-97790000D02*
X97695300Y-97790000D01*
%TO.N,/D18*%
X86360000Y-97790000D02*
X87535300Y-97790000D01*
X87535300Y-97790000D02*
X87535300Y-98157300D01*
X87535300Y-98157300D02*
X103675400Y-114297400D01*
X103675400Y-114297400D02*
X144149500Y-114297400D01*
%TO.N,/D19*%
X84995300Y-97790000D02*
X84995300Y-98157300D01*
X84995300Y-98157300D02*
X102118800Y-115280800D01*
X102118800Y-115280800D02*
X147867800Y-115280800D01*
X83820000Y-97790000D02*
X84995300Y-97790000D01*
%TO.N,/D21*%
X158750000Y-120650000D02*
X159925300Y-120650000D01*
X79915300Y-97790000D02*
X79915300Y-98157300D01*
X79915300Y-98157300D02*
X97714100Y-115956100D01*
X97714100Y-115956100D02*
X147517400Y-115956100D01*
X147517400Y-115956100D02*
X147808700Y-116247400D01*
X147808700Y-116247400D02*
X161092300Y-116247400D01*
X161092300Y-116247400D02*
X165014100Y-120169200D01*
X165014100Y-120169200D02*
X165014100Y-121224400D01*
X165014100Y-121224400D02*
X164413200Y-121825300D01*
X164413200Y-121825300D02*
X160733200Y-121825300D01*
X160733200Y-121825300D02*
X159925300Y-121017400D01*
X159925300Y-121017400D02*
X159925300Y-120650000D01*
X78740000Y-97790000D02*
X79915300Y-97790000D01*
%TO.N,/D22*%
X72295300Y-97790000D02*
X72295300Y-98157300D01*
X72295300Y-98157300D02*
X91995200Y-117857200D01*
X91995200Y-117857200D02*
X160229200Y-117857200D01*
X160229200Y-117857200D02*
X162654700Y-120282700D01*
X162654700Y-120282700D02*
X162654700Y-120650000D01*
X163830000Y-120650000D02*
X162654700Y-120650000D01*
X71120000Y-97790000D02*
X72295300Y-97790000D01*
%TO.N,/D0*%
X99060000Y-97790000D02*
X100235300Y-97790000D01*
X100235300Y-97790000D02*
X100235300Y-98138000D01*
X100235300Y-98138000D02*
X101950200Y-99852900D01*
X101950200Y-99852900D02*
X107348100Y-99852900D01*
%TO.N,/D16*%
X93980000Y-97790000D02*
X95155300Y-97790000D01*
X95155300Y-97790000D02*
X95155300Y-98157300D01*
X95155300Y-98157300D02*
X102774600Y-105776600D01*
X102774600Y-105776600D02*
X131519900Y-105776600D01*
X131519900Y-105776600D02*
X138925400Y-113182100D01*
X138925400Y-113182100D02*
X143263800Y-113182100D01*
%TO.N,/D17*%
X92615300Y-97790000D02*
X92615300Y-98157300D01*
X92615300Y-98157300D02*
X105287800Y-110829800D01*
X105287800Y-110829800D02*
X116787600Y-110829800D01*
X91440000Y-97790000D02*
X92615300Y-97790000D01*
%TO.N,/D5*%
X90075300Y-97790000D02*
X90075300Y-98157300D01*
X90075300Y-98157300D02*
X103473100Y-111555100D01*
X103473100Y-111555100D02*
X125934900Y-111555100D01*
X88900000Y-97790000D02*
X90075300Y-97790000D01*
X125934900Y-111555100D02*
X125987100Y-111555100D01*
%TO.N,/D23*%
X133350000Y-120650000D02*
X132174700Y-120650000D01*
X68580000Y-97790000D02*
X68580000Y-98965300D01*
X68580000Y-98965300D02*
X82550000Y-112935300D01*
X82550000Y-112935300D02*
X82550000Y-121075500D01*
X82550000Y-121075500D02*
X83299800Y-121825300D01*
X83299800Y-121825300D02*
X131366800Y-121825300D01*
X131366800Y-121825300D02*
X132174700Y-121017400D01*
X132174700Y-121017400D02*
X132174700Y-120650000D01*
D34*
%TO.N,Net-(Q7-Pad1)*%
X119380000Y-86360000D02*
X121920000Y-83820000D01*
X119380000Y-88900000D02*
X119380000Y-86360000D01*
X99060000Y-86360000D02*
X104140000Y-81280000D01*
X95980000Y-86360000D02*
X99060000Y-86360000D01*
X119380000Y-81280000D02*
X121920000Y-83820000D01*
X104140000Y-81280000D02*
X119380000Y-81280000D01*
D32*
%TO.N,Net-(Q10-Pad1)*%
X160020000Y-86360000D02*
X165100000Y-81280000D01*
X156940000Y-86360000D02*
X160020000Y-86360000D01*
%TO.N,Net-(Q13-Pad1)*%
X135890000Y-81280000D02*
X143510000Y-88900000D01*
X134620000Y-81280000D02*
X135890000Y-81280000D01*
X129540000Y-86360000D02*
X125190000Y-86360000D01*
X134620000Y-81280000D02*
X129540000Y-86360000D01*
%TD*%
M02*
