M48
INCH,TZ
T1C0.0157
T2C0.0287
T3C0.0295
T4C0.0315
T5C0.0394
T6C0.0433
T7C0.0504
T8C0.0512
T9C0.0551
%
G90
G05
T1
X30514Y-45502
X39684Y-39451
X41579Y-38904
X42263Y-39312
X44916Y-42982
X45979Y-43634
X49581Y-43919
X56403Y-44560
X56752Y-44999
X56936Y-46115
X57834Y-45939
X58216Y-45386
T2
X54937Y-41000
X54937Y-42000
X54937Y-43000
X54937Y-44000
X58063Y-41000
X58063Y-42000
X58063Y-43000
X58063Y-44000
T3
X25287Y-34000
X26500Y-36000
X27000Y-36000
X27500Y-36000
X29000Y-36000
X29500Y-34000
X29500Y-36000
X30000Y-36000
X37787Y-34000
X38000Y-36000
X38500Y-36000
X39000Y-36000
X40500Y-36000
X41000Y-36000
X41500Y-36000
X42000Y-34000
X49287Y-34000
X49500Y-36000
X50000Y-36000
X50500Y-36000
X52000Y-36000
X52500Y-36000
X53000Y-36000
X53500Y-34000
X61500Y-35500
X61500Y-36000
X61500Y-36500
X61787Y-34000
X64500Y-35500
X64500Y-36000
X64500Y-36500
X66000Y-34000
T4
X17000Y-36000
X17500Y-32000
X17500Y-40000
X18878Y-32000
X18878Y-40000
X18969Y-36000
X20500Y-34000
X21500Y-27500
X23031Y-36500
X23500Y-27500
X24500Y-34000
X25000Y-36500
X35000Y-27000
X35000Y-29000
X35000Y-31000
X35000Y-33000
X35000Y-35000
X36000Y-27000
X36000Y-29000
X36000Y-31000
X36000Y-33000
X36000Y-35000
X44500Y-23000
X44500Y-24969
X47000Y-27000
X47000Y-29000
X47000Y-31000
X47000Y-33000
X47000Y-35000
X47500Y-23000
X47500Y-24969
X48000Y-27000
X48000Y-29000
X48000Y-31000
X48000Y-33000
X48000Y-35000
X49500Y-39000
X50500Y-39000
X52000Y-39000
X53000Y-39000
X55500Y-35000
X55500Y-37000
X55500Y-39000
X56500Y-35000
X56500Y-37000
X56500Y-39000
X57500Y-22750
X59000Y-27000
X59000Y-29000
X59000Y-31000
X59000Y-33000
X59000Y-35000
X59469Y-22750
X60000Y-27000
X60000Y-29000
X60000Y-31000
X60000Y-33000
X60000Y-35000
X60000Y-39000
X60000Y-41000
X62000Y-39000
X62000Y-41000
X63500Y-39000
X63500Y-41000
X65500Y-39000
X65500Y-41000
X68500Y-36000
X70500Y-36000
X71000Y-26781
X71000Y-28750
T5
X26000Y-38500
X26000Y-47500
X26000Y-48500
X27000Y-38500
X27000Y-47500
X27000Y-48500
X28000Y-38500
X28000Y-47500
X28000Y-48500
X29000Y-38500
X29000Y-47500
X29000Y-48500
X30000Y-38500
X30000Y-47500
X30000Y-48500
X31000Y-38500
X31000Y-47500
X31000Y-48500
X32000Y-38500
X32000Y-47500
X32000Y-48500
X33000Y-38500
X33000Y-47500
X33000Y-48500
X34000Y-38500
X34000Y-47500
X34000Y-48500
X35000Y-38500
X35000Y-47500
X35000Y-48500
X36000Y-38500
X36000Y-47500
X36000Y-48500
X37000Y-38500
X37000Y-47500
X37000Y-48500
X38000Y-38500
X38000Y-47500
X38000Y-48500
X39000Y-38500
X39000Y-47500
X39000Y-48500
X40000Y-38500
X40000Y-47500
X40000Y-48500
X41000Y-38500
X41000Y-47500
X41000Y-48500
X42000Y-38500
X42000Y-47500
X42000Y-48500
X43000Y-38500
X43000Y-47500
X43000Y-48500
X44000Y-38500
X44000Y-47500
X44000Y-48500
X51500Y-47500
X51500Y-48500
X52500Y-47500
X52500Y-48500
X53500Y-47500
X53500Y-48500
X54500Y-47500
X54500Y-48500
X55500Y-47500
X55500Y-48500
X56500Y-47500
X56500Y-48500
X57500Y-47500
X57500Y-48500
X58500Y-47500
X58500Y-48500
X59500Y-47500
X59500Y-48500
X60500Y-47500
X60500Y-48500
X61500Y-47500
X61500Y-48500
X62500Y-47500
X62500Y-48500
X63500Y-47500
X63500Y-48500
X64500Y-47500
X64500Y-48500
X65500Y-47500
X65500Y-48500
X66500Y-47500
X66500Y-48500
T6
X20500Y-31500
X24500Y-31500
T7
X27000Y-32000
X28000Y-32000
X29000Y-32000
X39000Y-32000
X40000Y-32000
X41000Y-32000
X51000Y-32000
X52000Y-32000
X53000Y-32000
X63000Y-32000
X64000Y-32000
X65000Y-32000
X72500Y-36500
X73500Y-36500
X74500Y-36500
T8
X26000Y-27500
X28000Y-27500
X30000Y-27500
X32750Y-27000
X32750Y-33000
X38000Y-27500
X40000Y-27500
X42000Y-27500
X44750Y-27000
X44750Y-33000
X50000Y-27500
X52000Y-27500
X54000Y-27500
X56750Y-27000
X56750Y-33000
X62000Y-27500
X64000Y-27500
X66000Y-27500
X68750Y-27000
X68750Y-33000
X72500Y-30500
X72500Y-32500
T9
X68500Y-39016
X68500Y-40000
X69878Y-39016
X69878Y-40000
X72161Y-39016
X72161Y-40000
X73539Y-39016
X73539Y-40000
T0
M30
