G04 #@! TF.GenerationSoftware,KiCad,Pcbnew,(6.0.0)*
G04 #@! TF.CreationDate,2022-02-21T09:00:56-08:00*
G04 #@! TF.ProjectId,MakeItRain,4d616b65-4974-4526-9169-6e2e6b696361,rev?*
G04 #@! TF.SameCoordinates,Original*
G04 #@! TF.FileFunction,Copper,L1,Top*
G04 #@! TF.FilePolarity,Positive*
%FSLAX46Y46*%
G04 Gerber Fmt 4.6, Leading zero omitted, Abs format (unit mm)*
G04 Created by KiCad (PCBNEW (6.0.0)) date 2022-02-21 09:00:56*
%MOMM*%
%LPD*%
G01*
G04 APERTURE LIST*
G04 #@! TA.AperFunction,ComponentPad*
%ADD10C,1.600000*%
G04 #@! TD*
G04 #@! TA.AperFunction,ComponentPad*
%ADD11R,2.600000X2.600000*%
G04 #@! TD*
G04 #@! TA.AperFunction,ComponentPad*
%ADD12O,2.600000X2.600000*%
G04 #@! TD*
G04 #@! TA.AperFunction,ComponentPad*
%ADD13R,1.800000X1.800000*%
G04 #@! TD*
G04 #@! TA.AperFunction,ComponentPad*
%ADD14C,1.800000*%
G04 #@! TD*
G04 #@! TA.AperFunction,SMDPad,CuDef*
%ADD15R,0.650000X1.528000*%
G04 #@! TD*
G04 #@! TA.AperFunction,ComponentPad*
%ADD16R,1.700000X1.700000*%
G04 #@! TD*
G04 #@! TA.AperFunction,ComponentPad*
%ADD17O,1.700000X1.700000*%
G04 #@! TD*
G04 #@! TA.AperFunction,ComponentPad*
%ADD18O,1.600000X1.600000*%
G04 #@! TD*
G04 #@! TA.AperFunction,ComponentPad*
%ADD19C,2.600000*%
G04 #@! TD*
G04 #@! TA.AperFunction,ComponentPad*
%ADD20R,1.920000X1.920000*%
G04 #@! TD*
G04 #@! TA.AperFunction,ComponentPad*
%ADD21C,1.920000*%
G04 #@! TD*
G04 #@! TA.AperFunction,ComponentPad*
%ADD22R,1.050000X1.500000*%
G04 #@! TD*
G04 #@! TA.AperFunction,ComponentPad*
%ADD23O,1.050000X1.500000*%
G04 #@! TD*
G04 #@! TA.AperFunction,SMDPad,CuDef*
%ADD24R,2.300000X4.500000*%
G04 #@! TD*
G04 #@! TA.AperFunction,ComponentPad*
%ADD25R,1.150000X1.150000*%
G04 #@! TD*
G04 #@! TA.AperFunction,ComponentPad*
%ADD26C,1.150000*%
G04 #@! TD*
G04 #@! TA.AperFunction,ComponentPad*
%ADD27R,1.600000X1.600000*%
G04 #@! TD*
G04 #@! TA.AperFunction,ComponentPad*
%ADD28R,1.500000X1.050000*%
G04 #@! TD*
G04 #@! TA.AperFunction,ComponentPad*
%ADD29O,1.500000X1.050000*%
G04 #@! TD*
G04 #@! TA.AperFunction,ComponentPad*
%ADD30C,1.440000*%
G04 #@! TD*
G04 #@! TA.AperFunction,ComponentPad*
%ADD31R,2.200000X2.200000*%
G04 #@! TD*
G04 #@! TA.AperFunction,ComponentPad*
%ADD32O,2.200000X2.200000*%
G04 #@! TD*
G04 #@! TA.AperFunction,ComponentPad*
%ADD33R,1.500000X1.500000*%
G04 #@! TD*
G04 #@! TA.AperFunction,ComponentPad*
%ADD34C,1.500000*%
G04 #@! TD*
G04 #@! TA.AperFunction,ComponentPad*
%ADD35C,2.100000*%
G04 #@! TD*
G04 #@! TA.AperFunction,ComponentPad*
%ADD36R,1.130000X1.130000*%
G04 #@! TD*
G04 #@! TA.AperFunction,ComponentPad*
%ADD37C,1.130000*%
G04 #@! TD*
G04 #@! TA.AperFunction,SMDPad,CuDef*
%ADD38R,2.100000X1.450000*%
G04 #@! TD*
G04 #@! TA.AperFunction,ViaPad*
%ADD39C,0.800000*%
G04 #@! TD*
G04 #@! TA.AperFunction,Conductor*
%ADD40C,0.250000*%
G04 #@! TD*
G04 #@! TA.AperFunction,Conductor*
%ADD41C,1.524000*%
G04 #@! TD*
G04 #@! TA.AperFunction,Conductor*
%ADD42C,0.508000*%
G04 #@! TD*
G04 #@! TA.AperFunction,Conductor*
%ADD43C,0.762000*%
G04 #@! TD*
G04 APERTURE END LIST*
D10*
G04 #@! TO.P,C1,1*
G04 #@! TO.N,+3V3*
X60639800Y-87766900D03*
G04 #@! TO.P,C1,2*
G04 #@! TO.N,GND*
X60639800Y-95266900D03*
G04 #@! TD*
G04 #@! TO.P,C2,1*
G04 #@! TO.N,/Zone1IO/ZoneInput*
X89233000Y-68419700D03*
G04 #@! TO.P,C2,2*
G04 #@! TO.N,GND*
X89233000Y-73419700D03*
G04 #@! TD*
G04 #@! TO.P,C3,1*
G04 #@! TO.N,/Zone2IO/ZoneInput*
X119573600Y-63585000D03*
G04 #@! TO.P,C3,2*
G04 #@! TO.N,GND*
X119573600Y-68585000D03*
G04 #@! TD*
G04 #@! TO.P,C4,1*
G04 #@! TO.N,/Zone3IO/ZoneInput*
X151481900Y-65398300D03*
G04 #@! TO.P,C4,2*
G04 #@! TO.N,GND*
X151481900Y-70398300D03*
G04 #@! TD*
D11*
G04 #@! TO.P,D3,1,K*
G04 #@! TO.N,/Zone1IO/ZoneOutput*
X83185000Y-83820000D03*
D12*
G04 #@! TO.P,D3,2,A*
G04 #@! TO.N,GND*
X83185000Y-68580000D03*
G04 #@! TD*
D11*
G04 #@! TO.P,D5,1,K*
G04 #@! TO.N,/Zone2IO/ZoneOutput*
X113665000Y-83820000D03*
D12*
G04 #@! TO.P,D5,2,A*
G04 #@! TO.N,GND*
X113665000Y-68580000D03*
G04 #@! TD*
D11*
G04 #@! TO.P,D7,1,K*
G04 #@! TO.N,/Zone4IO/ZoneOutput*
X174625000Y-83820000D03*
D12*
G04 #@! TO.P,D7,2,A*
G04 #@! TO.N,GND*
X174625000Y-68580000D03*
G04 #@! TD*
D11*
G04 #@! TO.P,D9,1,K*
G04 #@! TO.N,/Zone3IO/ZoneOutput*
X144145000Y-83820000D03*
D12*
G04 #@! TO.P,D9,2,A*
G04 #@! TO.N,GND*
X144145000Y-68580000D03*
G04 #@! TD*
D13*
G04 #@! TO.P,D1,1,K*
G04 #@! TO.N,Net-(D1-Pad1)*
X129843800Y-123232100D03*
D14*
G04 #@! TO.P,D1,2,A*
G04 #@! TO.N,D21*
X127303800Y-123232100D03*
G04 #@! TD*
D15*
G04 #@! TO.P,IC2,1,ERROR_FLAG*
G04 #@! TO.N,Net-(IC2-Pad1)*
X161054800Y-111300900D03*
G04 #@! TO.P,IC2,2,DELAY*
G04 #@! TO.N,Net-(C6-Pad1)*
X162324800Y-111300900D03*
G04 #@! TO.P,IC2,3,BIAS_SUPPLY*
G04 #@! TO.N,+5V*
X163594800Y-111300900D03*
G04 #@! TO.P,IC2,4,FEEDBACK*
X164864800Y-111300900D03*
G04 #@! TO.P,IC2,5,~{SHUTDOWN}/SOFT-START*
G04 #@! TO.N,Net-(C7-Pad1)*
X164864800Y-105878900D03*
G04 #@! TO.P,IC2,6,GROUND*
G04 #@! TO.N,GND*
X163594800Y-105878900D03*
G04 #@! TO.P,IC2,7,+VIN*
G04 #@! TO.N,+VDC*
X162324800Y-105878900D03*
G04 #@! TO.P,IC2,8,OUTPUT*
G04 #@! TO.N,Net-(D10-Pad1)*
X161054800Y-105878900D03*
G04 #@! TD*
D16*
G04 #@! TO.P,J2,1,Pin_1*
G04 #@! TO.N,+3V3*
X66040000Y-120650000D03*
D17*
G04 #@! TO.P,J2,2,Pin_2*
X66040000Y-123190000D03*
G04 #@! TO.P,J2,3,Pin_3*
G04 #@! TO.N,EN*
X68580000Y-120650000D03*
G04 #@! TO.P,J2,4,Pin_4*
X68580000Y-123190000D03*
G04 #@! TO.P,J2,5,Pin_5*
G04 #@! TO.N,D36*
X71120000Y-120650000D03*
G04 #@! TO.P,J2,6,Pin_6*
X71120000Y-123190000D03*
G04 #@! TO.P,J2,7,Pin_7*
G04 #@! TO.N,D39*
X73660000Y-120650000D03*
G04 #@! TO.P,J2,8,Pin_8*
X73660000Y-123190000D03*
G04 #@! TO.P,J2,9,Pin_9*
G04 #@! TO.N,D34*
X76200000Y-120650000D03*
G04 #@! TO.P,J2,10,Pin_10*
X76200000Y-123190000D03*
G04 #@! TO.P,J2,11,Pin_11*
G04 #@! TO.N,D35*
X78740000Y-120650000D03*
G04 #@! TO.P,J2,12,Pin_12*
X78740000Y-123190000D03*
G04 #@! TO.P,J2,13,Pin_13*
G04 #@! TO.N,D32*
X81280000Y-120650000D03*
G04 #@! TO.P,J2,14,Pin_14*
X81280000Y-123190000D03*
G04 #@! TO.P,J2,15,Pin_15*
G04 #@! TO.N,D33*
X83820000Y-120650000D03*
G04 #@! TO.P,J2,16,Pin_16*
X83820000Y-123190000D03*
G04 #@! TO.P,J2,17,Pin_17*
G04 #@! TO.N,D25*
X86360000Y-120650000D03*
G04 #@! TO.P,J2,18,Pin_18*
X86360000Y-123190000D03*
G04 #@! TO.P,J2,19,Pin_19*
G04 #@! TO.N,D26*
X88900000Y-120650000D03*
G04 #@! TO.P,J2,20,Pin_20*
X88900000Y-123190000D03*
G04 #@! TO.P,J2,21,Pin_21*
G04 #@! TO.N,D27*
X91440000Y-120650000D03*
G04 #@! TO.P,J2,22,Pin_22*
X91440000Y-123190000D03*
G04 #@! TO.P,J2,23,Pin_23*
G04 #@! TO.N,D14*
X93980000Y-120650000D03*
G04 #@! TO.P,J2,24,Pin_24*
X93980000Y-123190000D03*
G04 #@! TO.P,J2,25,Pin_25*
G04 #@! TO.N,D12*
X96520000Y-120650000D03*
G04 #@! TO.P,J2,26,Pin_26*
X96520000Y-123190000D03*
G04 #@! TO.P,J2,27,Pin_27*
G04 #@! TO.N,GND*
X99060000Y-120650000D03*
G04 #@! TO.P,J2,28,Pin_28*
X99060000Y-123190000D03*
G04 #@! TO.P,J2,29,Pin_29*
G04 #@! TO.N,unconnected-(J2-Pad29)*
X101600000Y-120650000D03*
G04 #@! TO.P,J2,30,Pin_30*
G04 #@! TO.N,unconnected-(J2-Pad30)*
X101600000Y-123190000D03*
G04 #@! TO.P,J2,31,Pin_31*
G04 #@! TO.N,unconnected-(J2-Pad31)*
X104140000Y-120650000D03*
G04 #@! TO.P,J2,32,Pin_32*
G04 #@! TO.N,unconnected-(J2-Pad32)*
X104140000Y-123190000D03*
G04 #@! TO.P,J2,33,Pin_33*
G04 #@! TO.N,unconnected-(J2-Pad33)*
X106680000Y-120650000D03*
G04 #@! TO.P,J2,34,Pin_34*
G04 #@! TO.N,unconnected-(J2-Pad34)*
X106680000Y-123190000D03*
G04 #@! TO.P,J2,35,Pin_35*
G04 #@! TO.N,unconnected-(J2-Pad35)*
X109220000Y-120650000D03*
G04 #@! TO.P,J2,36,Pin_36*
G04 #@! TO.N,unconnected-(J2-Pad36)*
X109220000Y-123190000D03*
G04 #@! TO.P,J2,37,Pin_37*
G04 #@! TO.N,+5V*
X111760000Y-120650000D03*
G04 #@! TO.P,J2,38,Pin_38*
X111760000Y-123190000D03*
G04 #@! TD*
D16*
G04 #@! TO.P,J3,1,Pin_1*
G04 #@! TO.N,GND*
X66040000Y-97790000D03*
D17*
G04 #@! TO.P,J3,2,Pin_2*
G04 #@! TO.N,D23*
X68580000Y-97790000D03*
G04 #@! TO.P,J3,3,Pin_3*
G04 #@! TO.N,D22*
X71120000Y-97790000D03*
G04 #@! TO.P,J3,4,Pin_4*
G04 #@! TO.N,TX*
X73660000Y-97790000D03*
G04 #@! TO.P,J3,5,Pin_5*
G04 #@! TO.N,RX*
X76200000Y-97790000D03*
G04 #@! TO.P,J3,6,Pin_6*
G04 #@! TO.N,D21*
X78740000Y-97790000D03*
G04 #@! TO.P,J3,7,Pin_7*
G04 #@! TO.N,GND*
X81280000Y-97790000D03*
G04 #@! TO.P,J3,8,Pin_8*
G04 #@! TO.N,D19*
X83820000Y-97790000D03*
G04 #@! TO.P,J3,9,Pin_9*
G04 #@! TO.N,D18*
X86360000Y-97790000D03*
G04 #@! TO.P,J3,10,Pin_10*
G04 #@! TO.N,D5*
X88900000Y-97790000D03*
G04 #@! TO.P,J3,11,Pin_11*
G04 #@! TO.N,D17*
X91440000Y-97790000D03*
G04 #@! TO.P,J3,12,Pin_12*
G04 #@! TO.N,D16*
X93980000Y-97790000D03*
G04 #@! TO.P,J3,13,Pin_13*
G04 #@! TO.N,D4*
X96520000Y-97790000D03*
G04 #@! TO.P,J3,14,Pin_14*
G04 #@! TO.N,D0*
X99060000Y-97790000D03*
G04 #@! TO.P,J3,15,Pin_15*
G04 #@! TO.N,D2*
X101600000Y-97790000D03*
G04 #@! TO.P,J3,16,Pin_16*
G04 #@! TO.N,D15*
X104140000Y-97790000D03*
G04 #@! TO.P,J3,17,Pin_17*
G04 #@! TO.N,/SD1*
X106680000Y-97790000D03*
G04 #@! TO.P,J3,18,Pin_18*
G04 #@! TO.N,/SDD*
X109220000Y-97790000D03*
G04 #@! TO.P,J3,19,Pin_19*
G04 #@! TO.N,/CLK*
X111760000Y-97790000D03*
G04 #@! TD*
D10*
G04 #@! TO.P,L1,1,1*
G04 #@! TO.N,Net-(D10-Pad1)*
X153734500Y-101869000D03*
D18*
G04 #@! TO.P,L1,2,2*
G04 #@! TO.N,+5V*
X153734500Y-112029000D03*
G04 #@! TD*
D11*
G04 #@! TO.P,P1,1,Pin_1*
G04 #@! TO.N,Net-(P1-Pad1)*
X184150000Y-82550000D03*
D19*
G04 #@! TO.P,P1,2,Pin_2*
G04 #@! TO.N,GND*
X184150000Y-77470000D03*
G04 #@! TD*
D20*
G04 #@! TO.P,Q3,1*
G04 #@! TO.N,Net-(Q3-Pad1)*
X71813700Y-81139600D03*
D21*
G04 #@! TO.P,Q3,2*
G04 #@! TO.N,/Zone1IO/ZoneOutput*
X69273700Y-81139600D03*
G04 #@! TO.P,Q3,3*
G04 #@! TO.N,+VDC*
X66733700Y-81139600D03*
G04 #@! TD*
D20*
G04 #@! TO.P,Q6,1*
G04 #@! TO.N,Net-(Q6-Pad1)*
X101232600Y-81027600D03*
D21*
G04 #@! TO.P,Q6,2*
G04 #@! TO.N,/Zone2IO/ZoneOutput*
X98692600Y-81027600D03*
G04 #@! TO.P,Q6,3*
G04 #@! TO.N,+VDC*
X96152600Y-81027600D03*
G04 #@! TD*
D22*
G04 #@! TO.P,Q7,1,S*
G04 #@! TO.N,GND*
X93346300Y-104626700D03*
D23*
G04 #@! TO.P,Q7,2,G*
G04 #@! TO.N,/Zone3IO/ZoneInput*
X94616300Y-104626700D03*
G04 #@! TO.P,Q7,3,D*
G04 #@! TO.N,Net-(D6-Pad1)*
X95886300Y-104626700D03*
G04 #@! TD*
D20*
G04 #@! TO.P,Q9,1*
G04 #@! TO.N,Net-(Q9-Pad1)*
X131209700Y-81027600D03*
D21*
G04 #@! TO.P,Q9,2*
G04 #@! TO.N,/Zone3IO/ZoneOutput*
X128669700Y-81027600D03*
G04 #@! TO.P,Q9,3*
G04 #@! TO.N,+VDC*
X126129700Y-81027600D03*
G04 #@! TD*
D20*
G04 #@! TO.P,Q12,1*
G04 #@! TO.N,Net-(Q12-Pad1)*
X162353200Y-81027600D03*
D21*
G04 #@! TO.P,Q12,2*
G04 #@! TO.N,/Zone4IO/ZoneOutput*
X159813200Y-81027600D03*
G04 #@! TO.P,Q12,3*
G04 #@! TO.N,+VDC*
X157273200Y-81027600D03*
G04 #@! TD*
D20*
G04 #@! TO.P,Q13,1*
G04 #@! TO.N,Net-(Q13-Pad1)*
X184255500Y-92650400D03*
D21*
G04 #@! TO.P,Q13,2*
G04 #@! TO.N,Net-(P1-Pad1)*
X186795500Y-92650400D03*
G04 #@! TO.P,Q13,3*
G04 #@! TO.N,Net-(Q13-Pad3)*
X189335500Y-92650400D03*
G04 #@! TD*
D10*
G04 #@! TO.P,R1,1*
G04 #@! TO.N,+3V3*
X47627000Y-83085000D03*
D18*
G04 #@! TO.P,R1,2*
G04 #@! TO.N,D22*
X45087000Y-83085000D03*
G04 #@! TD*
D24*
G04 #@! TO.P,U1,1,+*
G04 #@! TO.N,D39*
X50823400Y-100895600D03*
G04 #@! TO.P,U1,2,-*
G04 #@! TO.N,GND*
X50823400Y-84495600D03*
G04 #@! TD*
D11*
G04 #@! TO.P,Z2,1,Pin_1*
G04 #@! TO.N,/Zone2IO/ZoneInput*
X106680000Y-69850000D03*
D19*
G04 #@! TO.P,Z2,2,Pin_2*
G04 #@! TO.N,/Zone2IO/ZoneOutput*
X101600000Y-69850000D03*
G04 #@! TO.P,Z2,3,Pin_3*
G04 #@! TO.N,GND*
X96520000Y-69850000D03*
G04 #@! TD*
D11*
G04 #@! TO.P,Z3,1,Pin_1*
G04 #@! TO.N,/Zone3IO/ZoneInput*
X137160000Y-69850000D03*
D19*
G04 #@! TO.P,Z3,2,Pin_2*
G04 #@! TO.N,/Zone3IO/ZoneOutput*
X132080000Y-69850000D03*
G04 #@! TO.P,Z3,3,Pin_3*
G04 #@! TO.N,GND*
X127000000Y-69850000D03*
G04 #@! TD*
D11*
G04 #@! TO.P,Z4,1,Pin_1*
G04 #@! TO.N,/Zone4IO/ZoneInput*
X167640000Y-69850000D03*
D19*
G04 #@! TO.P,Z4,2,Pin_2*
G04 #@! TO.N,/Zone4IO/ZoneOutput*
X162560000Y-69850000D03*
G04 #@! TO.P,Z4,3,Pin_3*
G04 #@! TO.N,GND*
X157480000Y-69850000D03*
G04 #@! TD*
D11*
G04 #@! TO.P,Z1,1,Pin_1*
G04 #@! TO.N,/Zone1IO/ZoneInput*
X76200000Y-69850000D03*
D19*
G04 #@! TO.P,Z1,2,Pin_2*
G04 #@! TO.N,/Zone1IO/ZoneOutput*
X71120000Y-69850000D03*
G04 #@! TO.P,Z1,3,Pin_3*
G04 #@! TO.N,GND*
X66040000Y-69850000D03*
G04 #@! TD*
D16*
G04 #@! TO.P,J1,1,Pin_1*
G04 #@! TO.N,+VDC*
X170349000Y-121042300D03*
D17*
G04 #@! TO.P,J1,2,Pin_2*
G04 #@! TO.N,+3V3*
X170349000Y-123582300D03*
G04 #@! TO.P,J1,3,Pin_3*
G04 #@! TO.N,+VDC*
X167809000Y-121042300D03*
G04 #@! TO.P,J1,4,Pin_4*
G04 #@! TO.N,AuxVoltage*
X167809000Y-123582300D03*
G04 #@! TO.P,J1,5,Pin_5*
G04 #@! TO.N,+VDC*
X165269000Y-121042300D03*
G04 #@! TO.P,J1,6,Pin_6*
G04 #@! TO.N,D23*
X165269000Y-123582300D03*
G04 #@! TO.P,J1,7,Pin_7*
G04 #@! TO.N,+VDC*
X162729000Y-121042300D03*
G04 #@! TO.P,J1,8,Pin_8*
G04 #@! TO.N,D19*
X162729000Y-123582300D03*
G04 #@! TO.P,J1,9,Pin_9*
G04 #@! TO.N,+VDC*
X160189000Y-121042300D03*
G04 #@! TO.P,J1,10,Pin_10*
G04 #@! TO.N,D18*
X160189000Y-123582300D03*
G04 #@! TO.P,J1,11,Pin_11*
G04 #@! TO.N,+5V*
X157649000Y-121042300D03*
G04 #@! TO.P,J1,12,Pin_12*
G04 #@! TO.N,D5*
X157649000Y-123582300D03*
G04 #@! TO.P,J1,13,Pin_13*
G04 #@! TO.N,+5V*
X155109000Y-121042300D03*
G04 #@! TO.P,J1,14,Pin_14*
G04 #@! TO.N,D35*
X155109000Y-123582300D03*
G04 #@! TO.P,J1,15,Pin_15*
G04 #@! TO.N,+5V*
X152569000Y-121042300D03*
G04 #@! TO.P,J1,16,Pin_16*
G04 #@! TO.N,D32*
X152569000Y-123582300D03*
G04 #@! TO.P,J1,17,Pin_17*
G04 #@! TO.N,GND*
X150029000Y-121042300D03*
G04 #@! TO.P,J1,18,Pin_18*
G04 #@! TO.N,D33*
X150029000Y-123582300D03*
G04 #@! TO.P,J1,19,Pin_19*
G04 #@! TO.N,GND*
X147489000Y-121042300D03*
G04 #@! TO.P,J1,20,Pin_20*
G04 #@! TO.N,D25*
X147489000Y-123582300D03*
G04 #@! TO.P,J1,21,Pin_21*
G04 #@! TO.N,GND*
X144949000Y-121042300D03*
G04 #@! TO.P,J1,22,Pin_22*
G04 #@! TO.N,D21*
X144949000Y-123582300D03*
G04 #@! TO.P,J1,23,Pin_23*
G04 #@! TO.N,GND*
X142409000Y-121042300D03*
G04 #@! TO.P,J1,24,Pin_24*
G04 #@! TO.N,D4*
X142409000Y-123582300D03*
G04 #@! TO.P,J1,25,Pin_25*
G04 #@! TO.N,GND*
X139869000Y-121042300D03*
G04 #@! TO.P,J1,26,Pin_26*
G04 #@! TO.N,D0*
X139869000Y-123582300D03*
G04 #@! TO.P,J1,27,Pin_27*
G04 #@! TO.N,GND*
X137329000Y-121042300D03*
G04 #@! TO.P,J1,28,Pin_28*
G04 #@! TO.N,TX*
X137329000Y-123582300D03*
G04 #@! TO.P,J1,29,Pin_29*
G04 #@! TO.N,GND*
X134789000Y-121042300D03*
G04 #@! TO.P,J1,30,Pin_30*
G04 #@! TO.N,RX*
X134789000Y-123582300D03*
G04 #@! TD*
D25*
G04 #@! TO.P,Z5,1*
G04 #@! TO.N,+VDC*
X64916500Y-86155400D03*
D26*
G04 #@! TO.P,Z5,2*
G04 #@! TO.N,Net-(Q3-Pad1)*
X75616500Y-86155400D03*
G04 #@! TD*
D25*
G04 #@! TO.P,Z6,1*
G04 #@! TO.N,+VDC*
X95542500Y-86196000D03*
D26*
G04 #@! TO.P,Z6,2*
G04 #@! TO.N,Net-(Q6-Pad1)*
X106242500Y-86196000D03*
G04 #@! TD*
D25*
G04 #@! TO.P,Z8,1*
G04 #@! TO.N,+VDC*
X156688300Y-85864200D03*
D26*
G04 #@! TO.P,Z8,2*
G04 #@! TO.N,Net-(Q12-Pad1)*
X167388300Y-85864200D03*
G04 #@! TD*
D27*
G04 #@! TO.P,C8,1*
G04 #@! TO.N,+VDC*
X169824100Y-92075800D03*
D10*
G04 #@! TO.P,C8,2*
G04 #@! TO.N,GND*
X166324100Y-92075800D03*
G04 #@! TD*
D22*
G04 #@! TO.P,Q4,1,S*
G04 #@! TO.N,GND*
X87748400Y-104639800D03*
D23*
G04 #@! TO.P,Q4,2,G*
G04 #@! TO.N,/Zone2IO/ZoneInput*
X89018400Y-104639800D03*
G04 #@! TO.P,Q4,3,D*
G04 #@! TO.N,Net-(D4-Pad1)*
X90288400Y-104639800D03*
G04 #@! TD*
D10*
G04 #@! TO.P,R23,1*
G04 #@! TO.N,+VDC*
X75572300Y-105627200D03*
D18*
G04 #@! TO.P,R23,2*
G04 #@! TO.N,Net-(IC3-Pad3)*
X73032300Y-105627200D03*
G04 #@! TD*
D10*
G04 #@! TO.P,R31,1*
G04 #@! TO.N,+3V3*
X88097100Y-113124500D03*
D18*
G04 #@! TO.P,R31,2*
G04 #@! TO.N,D27*
X88097100Y-115664500D03*
G04 #@! TD*
D10*
G04 #@! TO.P,R16,1*
G04 #@! TO.N,Net-(Q9-Pad1)*
X131901400Y-89145900D03*
D18*
G04 #@! TO.P,R16,2*
G04 #@! TO.N,Net-(Q8-Pad3)*
X134441400Y-89145900D03*
G04 #@! TD*
D28*
G04 #@! TO.P,Q2,1,S*
G04 #@! TO.N,GND*
X77198800Y-80576600D03*
D29*
G04 #@! TO.P,Q2,2,G*
G04 #@! TO.N,D17*
X77198800Y-81846600D03*
G04 #@! TO.P,Q2,3,D*
G04 #@! TO.N,Net-(Q2-Pad3)*
X77198800Y-83116600D03*
G04 #@! TD*
D10*
G04 #@! TO.P,R24,1*
G04 #@! TO.N,Net-(IC3-Pad3)*
X73376700Y-108765100D03*
D18*
G04 #@! TO.P,R24,2*
G04 #@! TO.N,GND*
X75916700Y-108765100D03*
G04 #@! TD*
D10*
G04 #@! TO.P,R5,1*
G04 #@! TO.N,/Zone1IO/ZoneInput*
X88607500Y-78728900D03*
D18*
G04 #@! TO.P,R5,2*
G04 #@! TO.N,GND*
X91147500Y-78728900D03*
G04 #@! TD*
D30*
G04 #@! TO.P,RV1,1,1*
G04 #@! TO.N,AuxVoltage*
X117879100Y-95318800D03*
G04 #@! TO.P,RV1,2,2*
G04 #@! TO.N,Net-(IC3-Pad5)*
X120419100Y-95318800D03*
G04 #@! TO.P,RV1,3,3*
G04 #@! TO.N,GND*
X122959100Y-95318800D03*
G04 #@! TD*
D16*
G04 #@! TO.P,J4,1,Pin_1*
G04 #@! TO.N,AuxVoltage*
X120030900Y-90244000D03*
G04 #@! TD*
D10*
G04 #@! TO.P,R15,1*
G04 #@! TO.N,+VDC*
X126738500Y-89152400D03*
D18*
G04 #@! TO.P,R15,2*
G04 #@! TO.N,Net-(Q9-Pad1)*
X129278500Y-89152400D03*
G04 #@! TD*
D10*
G04 #@! TO.P,R2,1*
G04 #@! TO.N,+3V3*
X56109000Y-83011900D03*
D18*
G04 #@! TO.P,R2,2*
G04 #@! TO.N,D21*
X53569000Y-83011900D03*
G04 #@! TD*
D10*
G04 #@! TO.P,R17,1*
G04 #@! TO.N,/Zone4IO/ZoneInput*
X179540300Y-68202800D03*
D18*
G04 #@! TO.P,R17,2*
G04 #@! TO.N,GND*
X179540300Y-70742800D03*
G04 #@! TD*
D10*
G04 #@! TO.P,R4,1*
G04 #@! TO.N,Net-(D1-Pad1)*
X110094700Y-115764800D03*
D18*
G04 #@! TO.P,R4,2*
G04 #@! TO.N,GND*
X107554700Y-115764800D03*
G04 #@! TD*
D10*
G04 #@! TO.P,R18,1*
G04 #@! TO.N,D2*
X174293400Y-87283100D03*
D18*
G04 #@! TO.P,R18,2*
G04 #@! TO.N,GND*
X176833400Y-87283100D03*
G04 #@! TD*
D10*
G04 #@! TO.P,R29,1*
G04 #@! TO.N,+3V3*
X143781000Y-113326100D03*
D18*
G04 #@! TO.P,R29,2*
G04 #@! TO.N,Net-(IC4-Pad1)*
X141241000Y-113326100D03*
G04 #@! TD*
D10*
G04 #@! TO.P,R25,1*
G04 #@! TO.N,D36*
X75859900Y-114068500D03*
D18*
G04 #@! TO.P,R25,2*
G04 #@! TO.N,GND*
X75859900Y-111528500D03*
G04 #@! TD*
D10*
G04 #@! TO.P,R33,1*
G04 #@! TO.N,+3V3*
X97677800Y-113124500D03*
D18*
G04 #@! TO.P,R33,2*
G04 #@! TO.N,D12*
X97677800Y-115664500D03*
G04 #@! TD*
D10*
G04 #@! TO.P,R14,1*
G04 #@! TO.N,D15*
X137097400Y-89165200D03*
D18*
G04 #@! TO.P,R14,2*
G04 #@! TO.N,GND*
X139637400Y-89165200D03*
G04 #@! TD*
D28*
G04 #@! TO.P,Q11,1,S*
G04 #@! TO.N,GND*
X167811500Y-80303000D03*
D29*
G04 #@! TO.P,Q11,2,G*
G04 #@! TO.N,D2*
X167811500Y-81573000D03*
G04 #@! TO.P,Q11,3,D*
G04 #@! TO.N,Net-(Q11-Pad3)*
X167811500Y-82843000D03*
G04 #@! TD*
D10*
G04 #@! TO.P,R27,1*
G04 #@! TO.N,+3V3*
X143781000Y-103747400D03*
D18*
G04 #@! TO.P,R27,2*
G04 #@! TO.N,Net-(IC4-Pad5)*
X141241000Y-103747400D03*
G04 #@! TD*
D31*
G04 #@! TO.P,D4,1,K*
G04 #@! TO.N,Net-(D4-Pad1)*
X115020300Y-111761400D03*
D32*
G04 #@! TO.P,D4,2,A*
G04 #@! TO.N,/InputIsolation/2in*
X125180300Y-111761400D03*
G04 #@! TD*
D31*
G04 #@! TO.P,D2,1,K*
G04 #@! TO.N,Net-(D2-Pad1)*
X115020300Y-116670800D03*
D32*
G04 #@! TO.P,D2,2,A*
G04 #@! TO.N,/InputIsolation/1in*
X125180300Y-116670800D03*
G04 #@! TD*
D33*
G04 #@! TO.P,S1,1,NO_1*
G04 #@! TO.N,unconnected-(S1-Pad1)*
X115616200Y-120523800D03*
D34*
G04 #@! TO.P,S1,2,NO_2*
G04 #@! TO.N,+3V3*
X122116200Y-120523800D03*
G04 #@! TO.P,S1,3,COM_1*
G04 #@! TO.N,unconnected-(S1-Pad3)*
X115616200Y-125023800D03*
G04 #@! TO.P,S1,4,COM_2*
G04 #@! TO.N,D22*
X122116200Y-125023800D03*
G04 #@! TD*
D10*
G04 #@! TO.P,R9,1*
G04 #@! TO.N,/Zone2IO/ZoneInput*
X118582200Y-73133700D03*
D18*
G04 #@! TO.P,R9,2*
G04 #@! TO.N,GND*
X121122200Y-73133700D03*
G04 #@! TD*
D10*
G04 #@! TO.P,R13,1*
G04 #@! TO.N,/Zone3IO/ZoneInput*
X149911000Y-75702800D03*
D18*
G04 #@! TO.P,R13,2*
G04 #@! TO.N,GND*
X152451000Y-75702800D03*
G04 #@! TD*
D10*
G04 #@! TO.P,R6,1*
G04 #@! TO.N,D17*
X78100900Y-89073600D03*
D18*
G04 #@! TO.P,R6,2*
G04 #@! TO.N,GND*
X80640900Y-89073600D03*
G04 #@! TD*
D10*
G04 #@! TO.P,R11,1*
G04 #@! TO.N,+VDC*
X97552100Y-89073600D03*
D18*
G04 #@! TO.P,R11,2*
G04 #@! TO.N,Net-(Q6-Pad1)*
X100092100Y-89073600D03*
G04 #@! TD*
D10*
G04 #@! TO.P,R7,1*
G04 #@! TO.N,+VDC*
X67716100Y-89073600D03*
D18*
G04 #@! TO.P,R7,2*
G04 #@! TO.N,Net-(Q3-Pad1)*
X70256100Y-89073600D03*
G04 #@! TD*
D35*
G04 #@! TO.P,U2,1,1*
G04 #@! TO.N,+VDC*
X173962900Y-101543100D03*
G04 #@! TO.P,U2,2,2*
X177462900Y-101543100D03*
G04 #@! TO.P,U2,3,3*
G04 #@! TO.N,Net-(Q13-Pad3)*
X183262900Y-101543100D03*
G04 #@! TO.P,U2,4,4*
X186762900Y-101543100D03*
G04 #@! TO.P,U2,5,5*
X186762900Y-99043100D03*
G04 #@! TO.P,U2,6,6*
X183262900Y-99043100D03*
G04 #@! TO.P,U2,7,7*
G04 #@! TO.N,+VDC*
X177462900Y-99043100D03*
G04 #@! TO.P,U2,8,8*
X173962900Y-99043100D03*
G04 #@! TD*
D22*
G04 #@! TO.P,Q10,1,S*
G04 #@! TO.N,GND*
X98978100Y-104626700D03*
D23*
G04 #@! TO.P,Q10,2,G*
G04 #@! TO.N,/Zone4IO/ZoneInput*
X100248100Y-104626700D03*
G04 #@! TO.P,Q10,3,D*
G04 #@! TO.N,Net-(D8-Pad1)*
X101518100Y-104626700D03*
G04 #@! TD*
D31*
G04 #@! TO.P,D8,1,K*
G04 #@! TO.N,Net-(D8-Pad1)*
X115020300Y-101942700D03*
D32*
G04 #@! TO.P,D8,2,A*
G04 #@! TO.N,/InputIsolation/4in*
X125180300Y-101942700D03*
G04 #@! TD*
D36*
G04 #@! TO.P,IC3,1,OUTA*
G04 #@! TO.N,D36*
X70520600Y-114579500D03*
D37*
G04 #@! TO.P,IC3,2,-INA*
X70520600Y-112039500D03*
G04 #@! TO.P,IC3,3,+INA*
G04 #@! TO.N,Net-(IC3-Pad3)*
X70520600Y-109499500D03*
G04 #@! TO.P,IC3,4,V-*
G04 #@! TO.N,GND*
X70520600Y-106959500D03*
G04 #@! TO.P,IC3,5,+INB*
G04 #@! TO.N,Net-(IC3-Pad5)*
X62580600Y-106959500D03*
G04 #@! TO.P,IC3,6,-INB*
G04 #@! TO.N,D34*
X62580600Y-109499500D03*
G04 #@! TO.P,IC3,7,OUTB*
X62580600Y-112039500D03*
G04 #@! TO.P,IC3,8,V+*
G04 #@! TO.N,+3V3*
X62580600Y-114579500D03*
G04 #@! TD*
D22*
G04 #@! TO.P,Q1,1,S*
G04 #@! TO.N,GND*
X82152400Y-104644400D03*
D23*
G04 #@! TO.P,Q1,2,G*
G04 #@! TO.N,/Zone1IO/ZoneInput*
X83422400Y-104644400D03*
G04 #@! TO.P,Q1,3,D*
G04 #@! TO.N,Net-(D2-Pad1)*
X84692400Y-104644400D03*
G04 #@! TD*
D10*
G04 #@! TO.P,R26,1*
G04 #@! TO.N,+3V3*
X143781000Y-98958100D03*
D18*
G04 #@! TO.P,R26,2*
G04 #@! TO.N,Net-(IC4-Pad7)*
X141241000Y-98958100D03*
G04 #@! TD*
D10*
G04 #@! TO.P,R8,1*
G04 #@! TO.N,Net-(Q3-Pad1)*
X72922600Y-89073600D03*
D18*
G04 #@! TO.P,R8,2*
G04 #@! TO.N,Net-(Q2-Pad3)*
X75462600Y-89073600D03*
G04 #@! TD*
D38*
G04 #@! TO.P,IC4,1,A_1*
G04 #@! TO.N,Net-(IC4-Pad1)*
X137916900Y-112869400D03*
G04 #@! TO.P,IC4,2,K_1*
G04 #@! TO.N,/InputIsolation/1in*
X137916900Y-110329400D03*
G04 #@! TO.P,IC4,3,A_2*
G04 #@! TO.N,Net-(IC4-Pad3)*
X137916900Y-107789400D03*
G04 #@! TO.P,IC4,4,K_2*
G04 #@! TO.N,/InputIsolation/2in*
X137916900Y-105249400D03*
G04 #@! TO.P,IC4,5,A_3*
G04 #@! TO.N,Net-(IC4-Pad5)*
X137916900Y-102709400D03*
G04 #@! TO.P,IC4,6,K_3*
G04 #@! TO.N,/InputIsolation/3in*
X137916900Y-100169400D03*
G04 #@! TO.P,IC4,7,A_4*
G04 #@! TO.N,Net-(IC4-Pad7)*
X137916900Y-97629400D03*
G04 #@! TO.P,IC4,8,K_4*
G04 #@! TO.N,/InputIsolation/4in*
X137916900Y-95089400D03*
G04 #@! TO.P,IC4,9,E_1*
G04 #@! TO.N,GND*
X128816900Y-95089400D03*
G04 #@! TO.P,IC4,10,C_1*
G04 #@! TO.N,D12*
X128816900Y-97629400D03*
G04 #@! TO.P,IC4,11,E_2*
G04 #@! TO.N,GND*
X128816900Y-100169400D03*
G04 #@! TO.P,IC4,12,C_2*
G04 #@! TO.N,D14*
X128816900Y-102709400D03*
G04 #@! TO.P,IC4,13,E_3*
G04 #@! TO.N,GND*
X128816900Y-105249400D03*
G04 #@! TO.P,IC4,14,C_3*
G04 #@! TO.N,D27*
X128816900Y-107789400D03*
G04 #@! TO.P,IC4,15,E_4*
G04 #@! TO.N,GND*
X128816900Y-110329400D03*
G04 #@! TO.P,IC4,16,C_4*
G04 #@! TO.N,D26*
X128816900Y-112869400D03*
G04 #@! TD*
D28*
G04 #@! TO.P,Q8,1,S*
G04 #@! TO.N,GND*
X137666600Y-80582900D03*
D29*
G04 #@! TO.P,Q8,2,G*
G04 #@! TO.N,D15*
X137666600Y-81852900D03*
G04 #@! TO.P,Q8,3,D*
G04 #@! TO.N,Net-(Q8-Pad3)*
X137666600Y-83122900D03*
G04 #@! TD*
D28*
G04 #@! TO.P,Q5,1,S*
G04 #@! TO.N,GND*
X106797400Y-80509200D03*
D29*
G04 #@! TO.P,Q5,2,G*
G04 #@! TO.N,D16*
X106797400Y-81779200D03*
G04 #@! TO.P,Q5,3,D*
G04 #@! TO.N,Net-(Q5-Pad3)*
X106797400Y-83049200D03*
G04 #@! TD*
D31*
G04 #@! TO.P,D10,1,K*
G04 #@! TO.N,Net-(D10-Pad1)*
X156010100Y-98662200D03*
D32*
G04 #@! TO.P,D10,2,A*
G04 #@! TO.N,GND*
X166170100Y-98662200D03*
G04 #@! TD*
D10*
G04 #@! TO.P,C5,1*
G04 #@! TO.N,/Zone4IO/ZoneInput*
X151434400Y-83634400D03*
G04 #@! TO.P,C5,2*
G04 #@! TO.N,GND*
X151434400Y-78634400D03*
G04 #@! TD*
G04 #@! TO.P,R21,1*
G04 #@! TO.N,Net-(Q13-Pad1)*
X174560200Y-93313200D03*
D18*
G04 #@! TO.P,R21,2*
G04 #@! TO.N,GND*
X177100200Y-93313200D03*
G04 #@! TD*
D27*
G04 #@! TO.P,C9,1*
G04 #@! TO.N,+5V*
X149612600Y-93906000D03*
D10*
G04 #@! TO.P,C9,2*
G04 #@! TO.N,GND*
X153112600Y-93906000D03*
G04 #@! TD*
G04 #@! TO.P,R3,1*
G04 #@! TO.N,D22*
X110228300Y-110918500D03*
D18*
G04 #@! TO.P,R3,2*
G04 #@! TO.N,GND*
X107688300Y-110918500D03*
G04 #@! TD*
D10*
G04 #@! TO.P,R30,1*
G04 #@! TO.N,+3V3*
X83306700Y-113124500D03*
D18*
G04 #@! TO.P,R30,2*
G04 #@! TO.N,D26*
X83306700Y-115664500D03*
G04 #@! TD*
D10*
G04 #@! TO.P,R12,1*
G04 #@! TO.N,Net-(Q6-Pad1)*
X102726700Y-89051400D03*
D18*
G04 #@! TO.P,R12,2*
G04 #@! TO.N,Net-(Q5-Pad3)*
X105266700Y-89051400D03*
G04 #@! TD*
D10*
G04 #@! TO.P,R22,1*
G04 #@! TO.N,+VDC*
X156900200Y-105717700D03*
D18*
G04 #@! TO.P,R22,2*
G04 #@! TO.N,Net-(IC2-Pad1)*
X156900200Y-108257700D03*
G04 #@! TD*
D10*
G04 #@! TO.P,R28,1*
G04 #@! TO.N,+3V3*
X143781000Y-108536800D03*
D18*
G04 #@! TO.P,R28,2*
G04 #@! TO.N,Net-(IC4-Pad3)*
X141241000Y-108536800D03*
G04 #@! TD*
D10*
G04 #@! TO.P,R20,1*
G04 #@! TO.N,Net-(Q12-Pad1)*
X160583300Y-88731000D03*
D18*
G04 #@! TO.P,R20,2*
G04 #@! TO.N,Net-(Q11-Pad3)*
X163123300Y-88731000D03*
G04 #@! TD*
D10*
G04 #@! TO.P,R19,1*
G04 #@! TO.N,+VDC*
X155220800Y-88780800D03*
D18*
G04 #@! TO.P,R19,2*
G04 #@! TO.N,Net-(Q12-Pad1)*
X157760800Y-88780800D03*
G04 #@! TD*
D10*
G04 #@! TO.P,R10,1*
G04 #@! TO.N,D16*
X107928100Y-89045900D03*
D18*
G04 #@! TO.P,R10,2*
G04 #@! TO.N,GND*
X110468100Y-89045900D03*
G04 #@! TD*
D10*
G04 #@! TO.P,C7,1*
G04 #@! TO.N,Net-(C7-Pad1)*
X165363200Y-102521700D03*
G04 #@! TO.P,C7,2*
G04 #@! TO.N,GND*
X160363200Y-102521700D03*
G04 #@! TD*
D31*
G04 #@! TO.P,D6,1,K*
G04 #@! TO.N,Net-(D6-Pad1)*
X115020300Y-106852100D03*
D32*
G04 #@! TO.P,D6,2,A*
G04 #@! TO.N,/InputIsolation/3in*
X125180300Y-106852100D03*
G04 #@! TD*
D10*
G04 #@! TO.P,R32,1*
G04 #@! TO.N,+3V3*
X92887500Y-113124500D03*
D18*
G04 #@! TO.P,R32,2*
G04 #@! TO.N,D14*
X92887500Y-115664500D03*
G04 #@! TD*
D10*
G04 #@! TO.P,C6,1*
G04 #@! TO.N,Net-(C6-Pad1)*
X157062800Y-115652200D03*
G04 #@! TO.P,C6,2*
G04 #@! TO.N,GND*
X157062800Y-110652200D03*
G04 #@! TD*
D25*
G04 #@! TO.P,Z7,1*
G04 #@! TO.N,+VDC*
X125092600Y-86196000D03*
D26*
G04 #@! TO.P,Z7,2*
G04 #@! TO.N,Net-(Q9-Pad1)*
X135792600Y-86196000D03*
G04 #@! TD*
D10*
G04 #@! TO.P,R34,1*
G04 #@! TO.N,D34*
X57889400Y-114568900D03*
D18*
G04 #@! TO.P,R34,2*
G04 #@! TO.N,GND*
X60429400Y-114568900D03*
G04 #@! TD*
D39*
G04 #@! TO.N,GND*
X63320100Y-95266900D03*
X82068300Y-88771500D03*
X110683900Y-85495800D03*
X79589900Y-81706200D03*
X99046800Y-110141200D03*
X62014400Y-108229500D03*
X114502100Y-94249400D03*
G04 #@! TO.N,+VDC*
X69417600Y-95613200D03*
G04 #@! TO.N,+3V3*
X98610600Y-118847600D03*
X53649100Y-89037000D03*
G04 #@! TO.N,Net-(D2-Pad1)*
X111110500Y-112843400D03*
G04 #@! TO.N,/InputIsolation/1in*
X139575300Y-110371700D03*
G04 #@! TO.N,/InputIsolation/2in*
X139292800Y-106515800D03*
G04 #@! TO.N,/InputIsolation/3in*
X139582600Y-100287700D03*
G04 #@! TO.N,/InputIsolation/4in*
X138870800Y-93750000D03*
G04 #@! TO.N,D39*
X53883200Y-90997000D03*
X51258000Y-97858100D03*
G04 #@! TO.N,/Zone3IO/ZoneInput*
X112452200Y-107093700D03*
G04 #@! TO.N,/Zone4IO/ZoneInput*
X112781300Y-104784900D03*
G04 #@! TO.N,D22*
X75172600Y-102076300D03*
G04 #@! TO.N,Net-(IC4-Pad3)*
X136216800Y-107789400D03*
G04 #@! TO.N,Net-(IC4-Pad5)*
X136545100Y-101433800D03*
G04 #@! TO.N,Net-(IC4-Pad7)*
X136247400Y-98441600D03*
G04 #@! TO.N,D12*
X130476100Y-103576100D03*
G04 #@! TO.N,D14*
X131392100Y-108318600D03*
G04 #@! TO.N,D27*
X130585000Y-107132800D03*
G04 #@! TO.N,D26*
X121043800Y-118122300D03*
G04 #@! TO.N,D23*
X106931100Y-99936000D03*
G04 #@! TO.N,D19*
X134442600Y-91189400D03*
G04 #@! TO.N,D18*
X133666800Y-91971300D03*
G04 #@! TO.N,D5*
X115044700Y-99180100D03*
G04 #@! TO.N,Net-(IC4-Pad1)*
X137923300Y-114403700D03*
G04 #@! TO.N,RX*
X92027200Y-110124600D03*
X112796700Y-111734200D03*
G04 #@! TO.N,D17*
X85551100Y-87909600D03*
G04 #@! TD*
D40*
G04 #@! TO.N,GND*
X107554700Y-114639500D02*
X107688300Y-114505900D01*
X150029000Y-121042300D02*
X150029000Y-121042000D01*
X147489000Y-121042300D02*
X147489000Y-121042000D01*
X139869000Y-121042200D02*
X139869000Y-121042300D01*
X127212200Y-95318800D02*
X127441600Y-95089400D01*
D41*
X139869200Y-121042000D02*
X142409000Y-121042000D01*
D40*
X134789300Y-121042000D02*
X134789000Y-121042300D01*
X163594800Y-103558700D02*
X163594800Y-105878900D01*
X126662629Y-97243671D02*
X126662629Y-98015129D01*
X81162700Y-104644400D02*
X77042000Y-108765100D01*
D42*
X163595000Y-105879000D02*
X163595000Y-103558500D01*
D41*
X142409000Y-121042000D02*
X144949000Y-121042000D01*
D42*
X163595000Y-103558500D02*
X163595000Y-101238000D01*
D40*
X128816900Y-105249400D02*
X127442389Y-106623911D01*
X107554700Y-115764800D02*
X107554700Y-114639500D01*
D43*
X50823400Y-84495600D02*
X50823400Y-83395600D01*
D41*
X147489000Y-121042000D02*
X150029000Y-121042000D01*
D40*
X139869200Y-121042000D02*
X139869000Y-121042200D01*
D43*
X64369000Y-69850000D02*
X66040000Y-69850000D01*
D40*
X127442389Y-106623911D02*
X127442389Y-108954889D01*
X166170100Y-98662200D02*
X166170000Y-98662200D01*
D41*
X134789300Y-121042000D02*
X137329300Y-121042000D01*
D40*
X128816900Y-95089400D02*
X126662629Y-97243671D01*
X163595000Y-103558500D02*
X163594800Y-103558700D01*
X127442389Y-103874889D02*
X128816900Y-105249400D01*
X128816900Y-95089400D02*
X127441600Y-95089400D01*
X75916700Y-108765100D02*
X77042000Y-108765100D01*
X128816900Y-100169400D02*
X127442389Y-101543911D01*
X127442389Y-101543911D02*
X127442389Y-103874889D01*
X127442389Y-108954889D02*
X128816900Y-110329400D01*
X122959100Y-95318800D02*
X127212200Y-95318800D01*
X144949000Y-121042300D02*
X144949000Y-121042000D01*
X107688300Y-114505900D02*
X107688300Y-110918500D01*
X126662629Y-98015129D02*
X128816900Y-100169400D01*
X137329300Y-121042000D02*
X137329000Y-121042300D01*
X82152400Y-104644400D02*
X81162700Y-104644400D01*
D41*
X134789000Y-121042000D02*
X134789300Y-121042000D01*
D42*
X163595000Y-101238000D02*
X166170000Y-98662200D01*
D40*
X99060000Y-120650000D02*
X99060000Y-123190000D01*
X142409000Y-121042300D02*
X142409000Y-121042000D01*
D41*
X144949000Y-121042000D02*
X147489000Y-121042000D01*
D43*
X50823400Y-83395600D02*
X64369000Y-69850000D01*
D41*
X137329300Y-121042000D02*
X139869200Y-121042000D01*
G04 #@! TO.N,+VDC*
X167809200Y-121042000D02*
X170348700Y-121042000D01*
D40*
X167809200Y-121042000D02*
X167809000Y-121042200D01*
D43*
X97552100Y-88205600D02*
X95542500Y-86196000D01*
D40*
X69417600Y-90715700D02*
X69417600Y-95613200D01*
D43*
X155221000Y-88056300D02*
X155221000Y-87331800D01*
D40*
X162325000Y-103363100D02*
X162324800Y-103363300D01*
X126738500Y-88497600D02*
X126738500Y-89152400D01*
D42*
X169824000Y-92075800D02*
X162325000Y-99575200D01*
D43*
X155221000Y-87331800D02*
X156688000Y-85864200D01*
D40*
X160189300Y-121042000D02*
X160189000Y-121042300D01*
D43*
X67716100Y-89073600D02*
X67716100Y-89014200D01*
D40*
X155220800Y-88056500D02*
X155220800Y-88780800D01*
D42*
X162325000Y-99575200D02*
X162325000Y-103363100D01*
X173962900Y-101543100D02*
X173963000Y-101543000D01*
X156900200Y-105718200D02*
X158895000Y-107713000D01*
D41*
X170349000Y-121042000D02*
X170349000Y-105157000D01*
D40*
X156900200Y-105718200D02*
X156900200Y-105717700D01*
D42*
X158895000Y-107713000D02*
X161763000Y-107713000D01*
D40*
X162729300Y-121042000D02*
X162729000Y-121042300D01*
D43*
X126739000Y-89152400D02*
X126739000Y-88497100D01*
D40*
X155221000Y-88056300D02*
X155220800Y-88056500D01*
D42*
X167793000Y-107713000D02*
X170349000Y-105157000D01*
D41*
X170349000Y-105157000D02*
X173962900Y-101543100D01*
D40*
X126739000Y-88497100D02*
X126738500Y-88497600D01*
D42*
X161763000Y-107713000D02*
X167793000Y-107713000D01*
X156900000Y-105718000D02*
X156900200Y-105718200D01*
D41*
X173962900Y-101543100D02*
X173963000Y-101543000D01*
D42*
X170349000Y-105157000D02*
X173962900Y-101543100D01*
D43*
X126739000Y-87841900D02*
X125093000Y-86196000D01*
X97552100Y-89073600D02*
X97552100Y-88205600D01*
X67716100Y-89014200D02*
X67716100Y-88954900D01*
D40*
X67716100Y-89014200D02*
X69417600Y-90715700D01*
X167809000Y-121042200D02*
X167809000Y-121042300D01*
D42*
X162325000Y-103363100D02*
X162325000Y-107151000D01*
D40*
X162324800Y-103363300D02*
X162324800Y-105878900D01*
D43*
X126739000Y-88497100D02*
X126739000Y-87841900D01*
D41*
X162729300Y-121042000D02*
X165269300Y-121042000D01*
D43*
X155221000Y-88780800D02*
X155221000Y-88056300D01*
D41*
X160189000Y-121042000D02*
X160189300Y-121042000D01*
D43*
X67716100Y-88954900D02*
X64916500Y-86155400D01*
D41*
X170348700Y-121042000D02*
X170349000Y-121042000D01*
X165269300Y-121042000D02*
X167809200Y-121042000D01*
D40*
X170348700Y-121042000D02*
X170349000Y-121042300D01*
D42*
X162325000Y-107151000D02*
X161763000Y-107713000D01*
D41*
X160189300Y-121042000D02*
X162729300Y-121042000D01*
D40*
X165269300Y-121042000D02*
X165269000Y-121042300D01*
D42*
G04 #@! TO.N,+5V*
X155526000Y-118107000D02*
X153954000Y-118107000D01*
X152569000Y-119492000D02*
X153954000Y-118107000D01*
X155109000Y-121042000D02*
X155109000Y-118524000D01*
D40*
X164050246Y-111300900D02*
X163594800Y-111300900D01*
D42*
X157649000Y-118880000D02*
X158423000Y-118107000D01*
D40*
X155109000Y-121042300D02*
X155109000Y-121042000D01*
D42*
X157649000Y-121042000D02*
X157649000Y-118880000D01*
X160350907Y-118107000D02*
X164050246Y-114407661D01*
D40*
X149612600Y-93906000D02*
X149613000Y-93906000D01*
D42*
X149613000Y-107907000D02*
X153734000Y-112029000D01*
X153734000Y-112029000D02*
X153734000Y-117888000D01*
X149613000Y-93906000D02*
X149613000Y-107907000D01*
D40*
X111760000Y-123190000D02*
X111760000Y-120650000D01*
X153734500Y-112029000D02*
X153734000Y-112029000D01*
D42*
X153734000Y-117888000D02*
X153954000Y-118107000D01*
X158423000Y-118107000D02*
X160350907Y-118107000D01*
X158423000Y-118107000D02*
X155526000Y-118107000D01*
D40*
X157649000Y-121042300D02*
X157649000Y-121042000D01*
D42*
X155109000Y-118524000D02*
X155526000Y-118107000D01*
X152569000Y-121042000D02*
X152569000Y-119492000D01*
X164050246Y-114407661D02*
X164050246Y-111300900D01*
D40*
X164050246Y-111300900D02*
X164864800Y-111300900D01*
X152569000Y-121042300D02*
X152569000Y-121042000D01*
G04 #@! TO.N,+3V3*
X60639800Y-87542700D02*
X60639800Y-87766900D01*
X143781000Y-98958100D02*
X143781000Y-103747400D01*
X56109000Y-83011900D02*
X60639800Y-87542700D01*
X143781000Y-103747400D02*
X143781000Y-108536800D01*
X143781000Y-108536800D02*
X143781000Y-113326100D01*
D42*
G04 #@! TO.N,Net-(C6-Pad1)*
X162325000Y-111937000D02*
X162325000Y-112573000D01*
D40*
X162325000Y-111937000D02*
X162324800Y-111936800D01*
D42*
X162325000Y-112573000D02*
X159245000Y-115652000D01*
X162325000Y-111301000D02*
X162325000Y-111937000D01*
D40*
X157062800Y-115652200D02*
X157063000Y-115652000D01*
D42*
X159245000Y-115652000D02*
X157063000Y-115652000D01*
D40*
X162324800Y-111936800D02*
X162324800Y-111300900D01*
D42*
G04 #@! TO.N,Net-(C7-Pad1)*
X164865000Y-105446900D02*
X164865000Y-103020000D01*
D40*
X164865000Y-105446900D02*
X164864800Y-105447100D01*
X164864800Y-105447100D02*
X164864800Y-105878900D01*
D42*
X164865000Y-103020000D02*
X165363000Y-102522000D01*
X164865000Y-105879000D02*
X164865000Y-105446900D01*
D40*
X165363200Y-102521700D02*
X165363000Y-102521900D01*
X165363000Y-102521900D02*
X165363000Y-102522000D01*
G04 #@! TO.N,/InputIsolation/1in*
X139533000Y-110329400D02*
X139575300Y-110371700D01*
X137916900Y-110329400D02*
X139533000Y-110329400D01*
G04 #@! TO.N,/InputIsolation/2in*
X137916900Y-105249400D02*
X139292200Y-105249400D01*
X139292200Y-106515200D02*
X139292800Y-106515800D01*
X139292200Y-105249400D02*
X139292200Y-106515200D01*
G04 #@! TO.N,/InputIsolation/3in*
X137916900Y-100169400D02*
X139464300Y-100169400D01*
X139464300Y-100169400D02*
X139582600Y-100287700D01*
G04 #@! TO.N,/InputIsolation/4in*
X137916900Y-95089400D02*
X137916900Y-94039100D01*
X137916900Y-94039100D02*
X138581700Y-94039100D01*
X138581700Y-94039100D02*
X138870800Y-93750000D01*
G04 #@! TO.N,D39*
X50823400Y-98320300D02*
X51258000Y-97885700D01*
X73660000Y-123190000D02*
X73660000Y-120650000D01*
X50823400Y-100895600D02*
X50823400Y-98320300D01*
X51258000Y-97885700D02*
X51258000Y-97858100D01*
D41*
G04 #@! TO.N,Net-(P1-Pad1)*
X184150000Y-85774600D02*
X186795000Y-88420100D01*
X184150000Y-82550000D02*
X184150000Y-85774600D01*
X186795000Y-90535200D02*
X186795000Y-92650400D01*
X186795000Y-88420100D02*
X186795000Y-90535200D01*
D40*
X186795000Y-90535200D02*
X186795500Y-90535700D01*
X186795500Y-90535700D02*
X186795500Y-92650400D01*
D43*
G04 #@! TO.N,Net-(IC2-Pad1)*
X161054800Y-111300900D02*
X159943400Y-111300900D01*
X159943400Y-111300900D02*
X156900200Y-108257700D01*
D40*
G04 #@! TO.N,D36*
X70520600Y-115469800D02*
X71120000Y-116069200D01*
X71120000Y-116069200D02*
X71120000Y-120650000D01*
X70520600Y-114579500D02*
X70520600Y-115469800D01*
X70520600Y-112039500D02*
X70520600Y-114579500D01*
X71120000Y-123190000D02*
X71120000Y-120650000D01*
G04 #@! TO.N,Net-(IC3-Pad3)*
X73032300Y-108420700D02*
X73032300Y-105627200D01*
X73376700Y-108765100D02*
X73032300Y-108420700D01*
G04 #@! TO.N,Net-(IC4-Pad3)*
X137916900Y-107789400D02*
X136216800Y-107789400D01*
G04 #@! TO.N,Net-(IC4-Pad5)*
X137916900Y-102709400D02*
X136541600Y-102709400D01*
X136541600Y-101437300D02*
X136545100Y-101433800D01*
X136541600Y-102709400D02*
X136541600Y-101437300D01*
G04 #@! TO.N,Net-(IC4-Pad7)*
X136541600Y-97629400D02*
X136541600Y-98147400D01*
X137916900Y-97629400D02*
X136541600Y-97629400D01*
X136541600Y-98147400D02*
X136247400Y-98441600D01*
G04 #@! TO.N,D12*
X96520000Y-117947600D02*
X96520000Y-120650000D01*
X128816900Y-98679700D02*
X129604600Y-98679700D01*
X130476100Y-99551200D02*
X130476100Y-103576100D01*
X97677800Y-116789800D02*
X96520000Y-117947600D01*
X129604600Y-98679700D02*
X130476100Y-99551200D01*
X96520000Y-123190000D02*
X96520000Y-120650000D01*
X128816900Y-97629400D02*
X128816900Y-98679700D01*
X97677800Y-115664500D02*
X97677800Y-116789800D01*
G04 #@! TO.N,D14*
X93980000Y-117882300D02*
X93980000Y-120650000D01*
X93980000Y-123190000D02*
X93980000Y-120650000D01*
X129604600Y-103759700D02*
X131392100Y-105547200D01*
X92887500Y-115664500D02*
X92887500Y-116789800D01*
X128816900Y-102709400D02*
X128816900Y-103759700D01*
X92887500Y-116789800D02*
X93980000Y-117882300D01*
X128816900Y-103759700D02*
X129604600Y-103759700D01*
X131392100Y-105547200D02*
X131392100Y-108318600D01*
G04 #@! TO.N,D27*
X130192200Y-107789400D02*
X130192200Y-107525600D01*
X130192200Y-107525600D02*
X130585000Y-107132800D01*
X128816900Y-107789400D02*
X130192200Y-107789400D01*
G04 #@! TO.N,D26*
X126296700Y-112869400D02*
X121043800Y-118122300D01*
X128816900Y-112869400D02*
X126296700Y-112869400D01*
G04 #@! TO.N,Net-(IC4-Pad1)*
X137923300Y-113926100D02*
X137923300Y-114403700D01*
X137916900Y-113919700D02*
X137923300Y-113926100D01*
X137916900Y-112869400D02*
X137916900Y-113919700D01*
G04 #@! TO.N,D35*
X78740000Y-123190000D02*
X78740000Y-120650000D01*
G04 #@! TO.N,D32*
X81280000Y-123190000D02*
X81280000Y-120650000D01*
G04 #@! TO.N,D33*
X83820000Y-123190000D02*
X83820000Y-120650000D01*
G04 #@! TO.N,D25*
X86360000Y-123190000D02*
X86360000Y-120650000D01*
G04 #@! TO.N,EN*
X68580000Y-123190000D02*
X68580000Y-120650000D01*
G04 #@! TO.N,D34*
X62580600Y-112039500D02*
X62580600Y-109499500D01*
D42*
G04 #@! TO.N,Net-(D10-Pad1)*
X156010000Y-99593300D02*
X153734000Y-101869000D01*
D40*
X156010100Y-98662200D02*
X156010000Y-98662200D01*
D42*
X156445000Y-101869000D02*
X153734500Y-101869000D01*
X153734000Y-101869000D02*
X153734500Y-101869000D01*
D43*
X160454900Y-105878900D02*
X156445000Y-101869000D01*
D42*
X156010000Y-98662200D02*
X156010000Y-99593300D01*
X156445000Y-101869000D02*
X160455000Y-105879000D01*
D43*
X161054800Y-105878900D02*
X160454900Y-105878900D01*
G04 #@! TD*
G04 #@! TA.AperFunction,Conductor*
G04 #@! TO.N,+VDC*
G36*
X136350221Y-80030002D02*
G01*
X136396714Y-80083658D01*
X136408100Y-80136000D01*
X136408100Y-81156034D01*
X136414855Y-81218216D01*
X136420276Y-81232676D01*
X136462832Y-81346196D01*
X136462834Y-81346199D01*
X136465985Y-81354605D01*
X136471373Y-81361794D01*
X136471506Y-81362037D01*
X136486676Y-81431394D01*
X136481352Y-81459807D01*
X136424310Y-81644080D01*
X136423666Y-81650205D01*
X136423666Y-81650206D01*
X136405610Y-81821995D01*
X136403124Y-81845650D01*
X136407718Y-81896128D01*
X136420921Y-82041196D01*
X136421494Y-82047496D01*
X136423232Y-82053402D01*
X136423233Y-82053406D01*
X136452062Y-82151358D01*
X136478719Y-82241929D01*
X136481572Y-82247386D01*
X136481573Y-82247389D01*
X136495766Y-82274538D01*
X136572523Y-82421360D01*
X136572523Y-82421362D01*
X136572619Y-82421545D01*
X136572584Y-82421563D01*
X136592489Y-82487341D01*
X136577329Y-82548309D01*
X136484244Y-82720465D01*
X136480215Y-82733480D01*
X136428083Y-82901893D01*
X136424310Y-82914080D01*
X136423666Y-82920205D01*
X136423666Y-82920206D01*
X136404430Y-83103222D01*
X136403124Y-83115650D01*
X136408996Y-83180175D01*
X136420921Y-83311196D01*
X136421494Y-83317496D01*
X136423232Y-83323402D01*
X136423233Y-83323406D01*
X136425680Y-83331720D01*
X136478719Y-83511929D01*
X136481572Y-83517386D01*
X136481573Y-83517389D01*
X136511765Y-83575141D01*
X136572619Y-83691545D01*
X136576479Y-83696345D01*
X136576479Y-83696346D01*
X136579321Y-83699881D01*
X136699619Y-83849501D01*
X136854881Y-83979781D01*
X136860273Y-83982745D01*
X136860277Y-83982748D01*
X137015634Y-84068156D01*
X137032491Y-84077423D01*
X137225684Y-84138707D01*
X137231801Y-84139393D01*
X137231805Y-84139394D01*
X137305948Y-84147710D01*
X137383417Y-84156400D01*
X137942604Y-84156400D01*
X138093313Y-84141623D01*
X138287342Y-84083042D01*
X138466298Y-83987890D01*
X138623363Y-83859790D01*
X138631875Y-83849501D01*
X138748627Y-83708372D01*
X138748629Y-83708369D01*
X138752556Y-83703622D01*
X138848956Y-83525335D01*
X138908890Y-83331720D01*
X138911693Y-83305057D01*
X138929432Y-83136278D01*
X138929432Y-83136277D01*
X138930076Y-83130150D01*
X138911706Y-82928304D01*
X138908113Y-82916094D01*
X138856220Y-82739780D01*
X138854481Y-82733871D01*
X138851188Y-82727571D01*
X138797588Y-82625043D01*
X138760581Y-82554255D01*
X138760616Y-82554237D01*
X138740711Y-82488459D01*
X138755871Y-82427491D01*
X138760252Y-82419388D01*
X138848956Y-82255335D01*
X138884078Y-82141875D01*
X138907068Y-82067607D01*
X138907069Y-82067604D01*
X138908890Y-82061720D01*
X138911693Y-82035057D01*
X138929432Y-81866278D01*
X138929432Y-81866277D01*
X138930076Y-81860150D01*
X138917481Y-81721758D01*
X138912265Y-81664443D01*
X138912264Y-81664440D01*
X138911706Y-81658304D01*
X138907469Y-81643906D01*
X138856220Y-81469779D01*
X138856219Y-81469777D01*
X138854481Y-81463871D01*
X138855340Y-81463618D01*
X138848886Y-81398238D01*
X138862052Y-81361494D01*
X138867215Y-81354605D01*
X138870368Y-81346196D01*
X138912924Y-81232676D01*
X138918345Y-81218216D01*
X138925100Y-81156034D01*
X138925100Y-80136000D01*
X138945102Y-80067879D01*
X138998758Y-80021386D01*
X139051099Y-80010000D01*
X158491157Y-80010000D01*
X158559278Y-80030002D01*
X158605771Y-80083658D01*
X158615875Y-80153932D01*
X158595245Y-80207004D01*
X158531971Y-80299760D01*
X158430300Y-80518792D01*
X158365767Y-80751487D01*
X158340107Y-80991598D01*
X158340404Y-80996751D01*
X158340404Y-80996754D01*
X158351488Y-81188991D01*
X158354007Y-81232676D01*
X158355144Y-81237722D01*
X158355145Y-81237728D01*
X158378170Y-81339896D01*
X158407095Y-81468246D01*
X158409037Y-81473028D01*
X158409038Y-81473032D01*
X158484269Y-81658304D01*
X158497945Y-81691983D01*
X158624117Y-81897877D01*
X158782223Y-82080399D01*
X158786198Y-82083699D01*
X158786202Y-82083703D01*
X158856271Y-82141875D01*
X158968016Y-82234648D01*
X159176507Y-82356480D01*
X159181327Y-82358320D01*
X159181332Y-82358323D01*
X159296459Y-82402285D01*
X159402097Y-82442624D01*
X159407163Y-82443655D01*
X159407164Y-82443655D01*
X159457869Y-82453971D01*
X159638728Y-82490767D01*
X159774098Y-82495731D01*
X159874880Y-82499427D01*
X159874884Y-82499427D01*
X159880044Y-82499616D01*
X159885164Y-82498960D01*
X159885166Y-82498960D01*
X160114437Y-82469590D01*
X160114438Y-82469590D01*
X160119565Y-82468933D01*
X160129765Y-82465873D01*
X160345905Y-82401027D01*
X160350858Y-82399541D01*
X160567712Y-82293306D01*
X160571914Y-82290309D01*
X160571927Y-82290301D01*
X160747382Y-82165149D01*
X160814456Y-82141875D01*
X160883464Y-82158558D01*
X160932498Y-82209901D01*
X160938532Y-82223495D01*
X160939432Y-82225895D01*
X160942585Y-82234305D01*
X161029939Y-82350861D01*
X161146495Y-82438215D01*
X161282884Y-82489345D01*
X161345066Y-82496100D01*
X163361334Y-82496100D01*
X163423516Y-82489345D01*
X163559905Y-82438215D01*
X163676461Y-82350861D01*
X163763815Y-82234305D01*
X163814945Y-82097916D01*
X163821700Y-82035734D01*
X163821700Y-80136000D01*
X163841702Y-80067879D01*
X163895358Y-80021386D01*
X163947700Y-80010000D01*
X166427000Y-80010000D01*
X166495121Y-80030002D01*
X166541614Y-80083658D01*
X166553000Y-80136000D01*
X166553000Y-80876134D01*
X166559755Y-80938316D01*
X166562529Y-80945715D01*
X166607732Y-81066296D01*
X166607734Y-81066299D01*
X166610885Y-81074705D01*
X166616273Y-81081894D01*
X166616406Y-81082137D01*
X166631576Y-81151494D01*
X166626252Y-81179907D01*
X166594988Y-81280905D01*
X166575248Y-81344676D01*
X166569210Y-81364180D01*
X166568566Y-81370305D01*
X166568566Y-81370306D01*
X166548668Y-81559622D01*
X166548024Y-81565750D01*
X166550299Y-81590743D01*
X166558525Y-81681128D01*
X166566394Y-81767596D01*
X166568132Y-81773502D01*
X166568133Y-81773506D01*
X166591174Y-81851790D01*
X166623619Y-81962029D01*
X166626472Y-81967486D01*
X166626473Y-81967489D01*
X166665006Y-82041196D01*
X166717423Y-82141460D01*
X166717423Y-82141462D01*
X166717519Y-82141645D01*
X166717484Y-82141663D01*
X166737389Y-82207441D01*
X166722229Y-82268409D01*
X166629144Y-82440565D01*
X166611576Y-82497318D01*
X166571061Y-82628202D01*
X166569210Y-82634180D01*
X166568566Y-82640305D01*
X166568566Y-82640306D01*
X166567070Y-82654543D01*
X166548024Y-82835750D01*
X166566394Y-83037596D01*
X166568132Y-83043502D01*
X166568133Y-83043506D01*
X166593634Y-83130150D01*
X166623619Y-83232029D01*
X166626472Y-83237486D01*
X166626473Y-83237489D01*
X166640284Y-83263907D01*
X166717519Y-83411645D01*
X166721379Y-83416445D01*
X166721379Y-83416446D01*
X166727229Y-83423722D01*
X166844519Y-83569601D01*
X166999781Y-83699881D01*
X167005173Y-83702845D01*
X167005177Y-83702848D01*
X167137879Y-83775801D01*
X167177391Y-83797523D01*
X167370584Y-83858807D01*
X167376701Y-83859493D01*
X167376705Y-83859494D01*
X167450774Y-83867802D01*
X167528317Y-83876500D01*
X168087504Y-83876500D01*
X168238213Y-83861723D01*
X168432242Y-83803142D01*
X168611198Y-83707990D01*
X168623201Y-83698201D01*
X168763487Y-83583785D01*
X168768263Y-83579890D01*
X168813395Y-83525335D01*
X168893527Y-83428472D01*
X168893529Y-83428469D01*
X168897456Y-83423722D01*
X168993856Y-83245435D01*
X169035928Y-83109522D01*
X169051968Y-83057707D01*
X169051969Y-83057704D01*
X169053790Y-83051820D01*
X169054828Y-83041950D01*
X169074332Y-82856378D01*
X169074332Y-82856377D01*
X169074976Y-82850250D01*
X169064349Y-82733480D01*
X169057165Y-82654543D01*
X169057164Y-82654540D01*
X169056606Y-82648404D01*
X169051808Y-82632099D01*
X169003978Y-82469590D01*
X168999381Y-82453971D01*
X168995451Y-82446452D01*
X168943900Y-82347845D01*
X168905481Y-82274355D01*
X168905516Y-82274337D01*
X168885611Y-82208559D01*
X168900771Y-82147591D01*
X168944761Y-82066233D01*
X168993856Y-81975435D01*
X169029543Y-81860150D01*
X169051968Y-81787707D01*
X169051969Y-81787704D01*
X169053790Y-81781820D01*
X169054828Y-81771950D01*
X169074332Y-81586378D01*
X169074332Y-81586377D01*
X169074976Y-81580250D01*
X169064361Y-81463618D01*
X169057165Y-81384543D01*
X169057164Y-81384540D01*
X169056606Y-81378404D01*
X169051537Y-81361179D01*
X169001120Y-81189879D01*
X169001119Y-81189877D01*
X168999381Y-81183971D01*
X169000240Y-81183718D01*
X168993786Y-81118338D01*
X169006952Y-81081594D01*
X169012115Y-81074705D01*
X169015268Y-81066296D01*
X169060471Y-80945715D01*
X169063245Y-80938316D01*
X169070000Y-80876134D01*
X169070000Y-80136000D01*
X169090002Y-80067879D01*
X169143658Y-80021386D01*
X169196000Y-80010000D01*
X172594000Y-80010000D01*
X172662121Y-80030002D01*
X172708614Y-80083658D01*
X172720000Y-80136000D01*
X172720000Y-97287519D01*
X178944000Y-97287519D01*
X179012121Y-97307521D01*
X179058614Y-97361177D01*
X179070000Y-97413519D01*
X179070000Y-99126861D01*
X179049998Y-99194982D01*
X179037415Y-99211416D01*
X179008947Y-99242867D01*
X179006306Y-99246865D01*
X179006305Y-99246866D01*
X178972784Y-99297607D01*
X178865667Y-99459751D01*
X178863666Y-99464091D01*
X178863664Y-99464095D01*
X178791413Y-99620819D01*
X178756841Y-99695812D01*
X178755517Y-99700413D01*
X178755517Y-99700414D01*
X178726177Y-99802400D01*
X178684974Y-99945618D01*
X178651720Y-100203421D01*
X178653327Y-100271598D01*
X178656546Y-100408195D01*
X178657844Y-100463287D01*
X178658678Y-100467991D01*
X178692576Y-100659256D01*
X178703206Y-100719237D01*
X178786760Y-100965381D01*
X178906585Y-101196054D01*
X178930038Y-101228157D01*
X179045742Y-101386536D01*
X179069775Y-101453341D01*
X179070000Y-101460864D01*
X179070000Y-103144754D01*
X179049998Y-103212875D01*
X178996342Y-103259368D01*
X178944000Y-103270754D01*
X168048786Y-103270754D01*
X167980665Y-103250752D01*
X167934172Y-103197096D01*
X167922786Y-103144754D01*
X167922786Y-87630000D01*
X163871937Y-87630000D01*
X163799666Y-87607213D01*
X163799322Y-87606972D01*
X163780049Y-87593477D01*
X163775067Y-87591154D01*
X163775062Y-87591151D01*
X163577525Y-87499039D01*
X163577524Y-87499039D01*
X163572543Y-87496716D01*
X163567235Y-87495294D01*
X163567233Y-87495293D01*
X163356702Y-87438881D01*
X163356700Y-87438881D01*
X163351387Y-87437457D01*
X163123300Y-87417502D01*
X162895213Y-87437457D01*
X162889900Y-87438881D01*
X162889898Y-87438881D01*
X162679367Y-87495293D01*
X162679365Y-87495294D01*
X162674057Y-87496716D01*
X162669076Y-87499039D01*
X162669075Y-87499039D01*
X162471538Y-87591151D01*
X162471533Y-87591154D01*
X162466551Y-87593477D01*
X162447278Y-87606972D01*
X162446934Y-87607213D01*
X162374663Y-87630000D01*
X161331937Y-87630000D01*
X161259666Y-87607213D01*
X161259322Y-87606972D01*
X161240049Y-87593477D01*
X161235067Y-87591154D01*
X161235062Y-87591151D01*
X161037525Y-87499039D01*
X161037524Y-87499039D01*
X161032543Y-87496716D01*
X161027235Y-87495294D01*
X161027233Y-87495293D01*
X160816702Y-87438881D01*
X160816700Y-87438881D01*
X160811387Y-87437457D01*
X160583300Y-87417502D01*
X160355213Y-87437457D01*
X160349900Y-87438881D01*
X160349898Y-87438881D01*
X160139367Y-87495293D01*
X160139365Y-87495294D01*
X160134057Y-87496716D01*
X160129076Y-87499039D01*
X160129075Y-87499039D01*
X159931538Y-87591151D01*
X159931533Y-87591154D01*
X159926551Y-87593477D01*
X159907278Y-87606972D01*
X159906934Y-87607213D01*
X159834663Y-87630000D01*
X158417010Y-87630000D01*
X158363760Y-87618195D01*
X158215025Y-87548839D01*
X158215024Y-87548839D01*
X158210043Y-87546516D01*
X158204735Y-87545094D01*
X158204733Y-87545093D01*
X157994202Y-87488681D01*
X157994200Y-87488681D01*
X157988887Y-87487257D01*
X157760800Y-87467302D01*
X157532713Y-87487257D01*
X157527400Y-87488681D01*
X157527398Y-87488681D01*
X157316867Y-87545093D01*
X157316865Y-87545094D01*
X157311557Y-87546516D01*
X157306576Y-87548839D01*
X157306575Y-87548839D01*
X157157840Y-87618195D01*
X157104590Y-87630000D01*
X153670000Y-87630000D01*
X86507049Y-87630001D01*
X86438929Y-87609999D01*
X86392436Y-87556343D01*
X86388381Y-87545928D01*
X86387669Y-87544329D01*
X86385627Y-87538044D01*
X86290140Y-87372656D01*
X86184119Y-87254907D01*
X86166775Y-87235645D01*
X86166774Y-87235644D01*
X86162353Y-87230734D01*
X86007852Y-87118482D01*
X86001824Y-87115798D01*
X86001822Y-87115797D01*
X85839419Y-87043491D01*
X85839418Y-87043491D01*
X85833388Y-87040806D01*
X85739988Y-87020953D01*
X85653044Y-87002472D01*
X85653039Y-87002472D01*
X85646587Y-87001100D01*
X85455613Y-87001100D01*
X85449161Y-87002472D01*
X85449156Y-87002472D01*
X85362212Y-87020953D01*
X85268812Y-87040806D01*
X85262782Y-87043491D01*
X85262781Y-87043491D01*
X85100378Y-87115797D01*
X85100376Y-87115798D01*
X85094348Y-87118482D01*
X84939847Y-87230734D01*
X84935426Y-87235644D01*
X84935425Y-87235645D01*
X84918082Y-87254907D01*
X84812060Y-87372656D01*
X84716573Y-87538044D01*
X84714532Y-87544325D01*
X84711846Y-87550358D01*
X84710360Y-87549696D01*
X84674912Y-87601541D01*
X84609517Y-87629179D01*
X84595154Y-87630001D01*
X63969603Y-87630001D01*
X63901482Y-87609999D01*
X63854989Y-87556343D01*
X63843603Y-87504001D01*
X63843603Y-86126916D01*
X74528731Y-86126916D01*
X74541755Y-86325623D01*
X74590772Y-86518629D01*
X74674141Y-86699471D01*
X74677474Y-86704187D01*
X74784372Y-86855444D01*
X74789070Y-86862092D01*
X74931710Y-87001045D01*
X75097284Y-87111678D01*
X75102587Y-87113956D01*
X75102590Y-87113958D01*
X75197089Y-87154558D01*
X75280246Y-87190285D01*
X75351776Y-87206471D01*
X75468832Y-87232958D01*
X75468837Y-87232959D01*
X75474469Y-87234233D01*
X75480240Y-87234460D01*
X75480242Y-87234460D01*
X75540469Y-87236826D01*
X75673449Y-87242051D01*
X75789006Y-87225296D01*
X75864800Y-87214307D01*
X75864804Y-87214306D01*
X75870522Y-87213477D01*
X75875994Y-87211619D01*
X75875996Y-87211619D01*
X75973992Y-87178353D01*
X76059087Y-87149467D01*
X76232830Y-87052166D01*
X76245481Y-87041645D01*
X76381501Y-86928519D01*
X76385933Y-86924833D01*
X76475393Y-86817268D01*
X76509577Y-86776166D01*
X76509579Y-86776164D01*
X76513266Y-86771730D01*
X76610567Y-86597987D01*
X76660795Y-86450022D01*
X76672719Y-86414896D01*
X76672719Y-86414894D01*
X76674577Y-86409422D01*
X76675505Y-86403026D01*
X76693791Y-86276902D01*
X76703151Y-86212349D01*
X76704325Y-86167516D01*
X105154731Y-86167516D01*
X105167755Y-86366223D01*
X105216772Y-86559229D01*
X105300141Y-86740071D01*
X105318954Y-86766691D01*
X105383674Y-86858267D01*
X105415070Y-86902692D01*
X105557710Y-87041645D01*
X105723284Y-87152278D01*
X105728587Y-87154556D01*
X105728590Y-87154558D01*
X105900939Y-87228605D01*
X105906246Y-87230885D01*
X105954590Y-87241824D01*
X106094832Y-87273558D01*
X106094837Y-87273559D01*
X106100469Y-87274833D01*
X106106240Y-87275060D01*
X106106242Y-87275060D01*
X106166469Y-87277426D01*
X106299449Y-87282651D01*
X106415006Y-87265896D01*
X106490800Y-87254907D01*
X106490804Y-87254906D01*
X106496522Y-87254077D01*
X106501994Y-87252219D01*
X106501996Y-87252219D01*
X106679619Y-87191923D01*
X106685087Y-87190067D01*
X106858830Y-87092766D01*
X106912083Y-87048477D01*
X107007501Y-86969119D01*
X107011933Y-86965433D01*
X107066053Y-86900360D01*
X107135577Y-86816766D01*
X107135579Y-86816764D01*
X107139266Y-86812330D01*
X107236567Y-86638587D01*
X107300577Y-86450022D01*
X107307207Y-86404300D01*
X107328618Y-86256623D01*
X107329151Y-86252949D01*
X107330642Y-86196000D01*
X107315265Y-86028655D01*
X107312950Y-86003456D01*
X107312949Y-86003453D01*
X107312421Y-85997702D01*
X107306160Y-85975500D01*
X107259936Y-85811604D01*
X107259935Y-85811602D01*
X107258368Y-85806045D01*
X107255814Y-85800865D01*
X107172849Y-85632627D01*
X107172846Y-85632623D01*
X107170294Y-85627447D01*
X107143845Y-85592027D01*
X107071988Y-85495800D01*
X109770396Y-85495800D01*
X109771086Y-85502365D01*
X109778591Y-85573767D01*
X109790358Y-85685728D01*
X109849373Y-85867356D01*
X109944860Y-86032744D01*
X109949278Y-86037651D01*
X109949279Y-86037652D01*
X110021825Y-86118222D01*
X110072647Y-86174666D01*
X110227148Y-86286918D01*
X110233176Y-86289602D01*
X110233178Y-86289603D01*
X110395581Y-86361909D01*
X110401612Y-86364594D01*
X110495013Y-86384447D01*
X110581956Y-86402928D01*
X110581961Y-86402928D01*
X110588413Y-86404300D01*
X110779387Y-86404300D01*
X110785839Y-86402928D01*
X110785844Y-86402928D01*
X110872787Y-86384447D01*
X110966188Y-86364594D01*
X110972219Y-86361909D01*
X111134622Y-86289603D01*
X111134624Y-86289602D01*
X111140652Y-86286918D01*
X111295153Y-86174666D01*
X111301591Y-86167516D01*
X134704831Y-86167516D01*
X134717855Y-86366223D01*
X134766872Y-86559229D01*
X134850241Y-86740071D01*
X134869054Y-86766691D01*
X134933774Y-86858267D01*
X134965170Y-86902692D01*
X135107810Y-87041645D01*
X135273384Y-87152278D01*
X135278687Y-87154556D01*
X135278690Y-87154558D01*
X135451039Y-87228605D01*
X135456346Y-87230885D01*
X135504690Y-87241824D01*
X135644932Y-87273558D01*
X135644937Y-87273559D01*
X135650569Y-87274833D01*
X135656340Y-87275060D01*
X135656342Y-87275060D01*
X135716569Y-87277426D01*
X135849549Y-87282651D01*
X135965106Y-87265896D01*
X136040900Y-87254907D01*
X136040904Y-87254906D01*
X136046622Y-87254077D01*
X136052094Y-87252219D01*
X136052096Y-87252219D01*
X136229719Y-87191923D01*
X136235187Y-87190067D01*
X136408930Y-87092766D01*
X136462183Y-87048477D01*
X136557601Y-86969119D01*
X136562033Y-86965433D01*
X136616153Y-86900360D01*
X136685677Y-86816766D01*
X136685679Y-86816764D01*
X136689366Y-86812330D01*
X136786667Y-86638587D01*
X136850677Y-86450022D01*
X136857307Y-86404300D01*
X136878718Y-86256623D01*
X136879251Y-86252949D01*
X136880742Y-86196000D01*
X136865365Y-86028655D01*
X136863050Y-86003456D01*
X136863049Y-86003453D01*
X136862521Y-85997702D01*
X136856260Y-85975500D01*
X136816836Y-85835716D01*
X166300531Y-85835716D01*
X166313555Y-86034423D01*
X166362572Y-86227429D01*
X166445941Y-86408271D01*
X166449274Y-86412987D01*
X166556336Y-86564476D01*
X166560870Y-86570892D01*
X166703510Y-86709845D01*
X166869084Y-86820478D01*
X166874387Y-86822756D01*
X166874390Y-86822758D01*
X166975334Y-86866127D01*
X167052046Y-86899085D01*
X167123576Y-86915271D01*
X167240632Y-86941758D01*
X167240637Y-86941759D01*
X167246269Y-86943033D01*
X167252040Y-86943260D01*
X167252042Y-86943260D01*
X167312269Y-86945626D01*
X167445249Y-86950851D01*
X167560806Y-86934096D01*
X167636600Y-86923107D01*
X167636604Y-86923106D01*
X167642322Y-86922277D01*
X167647794Y-86920419D01*
X167647796Y-86920419D01*
X167825419Y-86860123D01*
X167830887Y-86858267D01*
X168004630Y-86760966D01*
X168024084Y-86744787D01*
X168153301Y-86637319D01*
X168157733Y-86633633D01*
X168215250Y-86564476D01*
X168281377Y-86484966D01*
X168281379Y-86484964D01*
X168285066Y-86480530D01*
X168322892Y-86412987D01*
X168379544Y-86311828D01*
X168379544Y-86311827D01*
X168382367Y-86306787D01*
X168421229Y-86192305D01*
X168444519Y-86123696D01*
X168444519Y-86123694D01*
X168446377Y-86118222D01*
X168459364Y-86028655D01*
X168465032Y-85989557D01*
X168474951Y-85921149D01*
X168476442Y-85864200D01*
X168458221Y-85665902D01*
X168451960Y-85643700D01*
X168405736Y-85479804D01*
X168405735Y-85479802D01*
X168404168Y-85474245D01*
X168401035Y-85467891D01*
X168318649Y-85300827D01*
X168318646Y-85300823D01*
X168316094Y-85295647D01*
X168262831Y-85224319D01*
X168200400Y-85140715D01*
X168196947Y-85136091D01*
X168050719Y-85000919D01*
X168045836Y-84997838D01*
X167887186Y-84897737D01*
X167882306Y-84894658D01*
X167697349Y-84820868D01*
X167691689Y-84819742D01*
X167691685Y-84819741D01*
X167507710Y-84783146D01*
X167507705Y-84783146D01*
X167502042Y-84782019D01*
X167496267Y-84781943D01*
X167496263Y-84781943D01*
X167398690Y-84780666D01*
X167302925Y-84779412D01*
X167106668Y-84813136D01*
X166919843Y-84882059D01*
X166914882Y-84885011D01*
X166914881Y-84885011D01*
X166799009Y-84953948D01*
X166748706Y-84983875D01*
X166598990Y-85115172D01*
X166595418Y-85119703D01*
X166514411Y-85222460D01*
X166475707Y-85271555D01*
X166473019Y-85276664D01*
X166466509Y-85289038D01*
X166382988Y-85447786D01*
X166323937Y-85637963D01*
X166300531Y-85835716D01*
X136816836Y-85835716D01*
X136810036Y-85811604D01*
X136810035Y-85811602D01*
X136808468Y-85806045D01*
X136805914Y-85800865D01*
X136722949Y-85632627D01*
X136722946Y-85632623D01*
X136720394Y-85627447D01*
X136693945Y-85592027D01*
X136604700Y-85472515D01*
X136601247Y-85467891D01*
X136455019Y-85332719D01*
X136450136Y-85329638D01*
X136291486Y-85229537D01*
X136286606Y-85226458D01*
X136140415Y-85168134D01*
X142336500Y-85168134D01*
X142343255Y-85230316D01*
X142394385Y-85366705D01*
X142481739Y-85483261D01*
X142598295Y-85570615D01*
X142734684Y-85621745D01*
X142796866Y-85628500D01*
X145493134Y-85628500D01*
X145555316Y-85621745D01*
X145691705Y-85570615D01*
X145808261Y-85483261D01*
X145895615Y-85366705D01*
X145946745Y-85230316D01*
X145953500Y-85168134D01*
X145953500Y-83634400D01*
X150120902Y-83634400D01*
X150140857Y-83862487D01*
X150142281Y-83867800D01*
X150142281Y-83867802D01*
X150195307Y-84065694D01*
X150200116Y-84083643D01*
X150202439Y-84088624D01*
X150202439Y-84088625D01*
X150294551Y-84286162D01*
X150294554Y-84286167D01*
X150296877Y-84291149D01*
X150428202Y-84478700D01*
X150590100Y-84640598D01*
X150594608Y-84643755D01*
X150594611Y-84643757D01*
X150672789Y-84698498D01*
X150777651Y-84771923D01*
X150782633Y-84774246D01*
X150782638Y-84774249D01*
X150980175Y-84866361D01*
X150985157Y-84868684D01*
X150990465Y-84870106D01*
X150990467Y-84870107D01*
X151200998Y-84926519D01*
X151201000Y-84926519D01*
X151206313Y-84927943D01*
X151434400Y-84947898D01*
X151662487Y-84927943D01*
X151667800Y-84926519D01*
X151667802Y-84926519D01*
X151878333Y-84870107D01*
X151878335Y-84870106D01*
X151883643Y-84868684D01*
X151888625Y-84866361D01*
X152086162Y-84774249D01*
X152086167Y-84774246D01*
X152091149Y-84771923D01*
X152196011Y-84698498D01*
X152274189Y-84643757D01*
X152274192Y-84643755D01*
X152278700Y-84640598D01*
X152440598Y-84478700D01*
X152571923Y-84291149D01*
X152574246Y-84286167D01*
X152574249Y-84286162D01*
X152666361Y-84088625D01*
X152666361Y-84088624D01*
X152668684Y-84083643D01*
X152673494Y-84065694D01*
X152726519Y-83867802D01*
X152726519Y-83867800D01*
X152727943Y-83862487D01*
X152747898Y-83634400D01*
X152727943Y-83406313D01*
X152704626Y-83319294D01*
X152670107Y-83190467D01*
X152670106Y-83190465D01*
X152668684Y-83185157D01*
X152666361Y-83180175D01*
X152574249Y-82982638D01*
X152574246Y-82982633D01*
X152571923Y-82977651D01*
X152490063Y-82860743D01*
X152443757Y-82794611D01*
X152443755Y-82794608D01*
X152440598Y-82790100D01*
X152278700Y-82628202D01*
X152274192Y-82625045D01*
X152274189Y-82625043D01*
X152180891Y-82559715D01*
X152091149Y-82496877D01*
X152086167Y-82494554D01*
X152086162Y-82494551D01*
X151888625Y-82402439D01*
X151888624Y-82402439D01*
X151883643Y-82400116D01*
X151878335Y-82398694D01*
X151878333Y-82398693D01*
X151667802Y-82342281D01*
X151667800Y-82342281D01*
X151662487Y-82340857D01*
X151434400Y-82320902D01*
X151206313Y-82340857D01*
X151201000Y-82342281D01*
X151200998Y-82342281D01*
X150990467Y-82398693D01*
X150990465Y-82398694D01*
X150985157Y-82400116D01*
X150980176Y-82402439D01*
X150980175Y-82402439D01*
X150782638Y-82494551D01*
X150782633Y-82494554D01*
X150777651Y-82496877D01*
X150687909Y-82559715D01*
X150594611Y-82625043D01*
X150594608Y-82625045D01*
X150590100Y-82628202D01*
X150428202Y-82790100D01*
X150425045Y-82794608D01*
X150425043Y-82794611D01*
X150378737Y-82860743D01*
X150296877Y-82977651D01*
X150294554Y-82982633D01*
X150294551Y-82982638D01*
X150202439Y-83180175D01*
X150200116Y-83185157D01*
X150198694Y-83190465D01*
X150198693Y-83190467D01*
X150164174Y-83319294D01*
X150140857Y-83406313D01*
X150120902Y-83634400D01*
X145953500Y-83634400D01*
X145953500Y-82471866D01*
X145946745Y-82409684D01*
X145895615Y-82273295D01*
X145808261Y-82156739D01*
X145691705Y-82069385D01*
X145555316Y-82018255D01*
X145493134Y-82011500D01*
X142796866Y-82011500D01*
X142734684Y-82018255D01*
X142598295Y-82069385D01*
X142481739Y-82156739D01*
X142394385Y-82273295D01*
X142343255Y-82409684D01*
X142336500Y-82471866D01*
X142336500Y-85168134D01*
X136140415Y-85168134D01*
X136101649Y-85152668D01*
X136095989Y-85151542D01*
X136095985Y-85151541D01*
X135912010Y-85114946D01*
X135912005Y-85114946D01*
X135906342Y-85113819D01*
X135900567Y-85113743D01*
X135900563Y-85113743D01*
X135802990Y-85112466D01*
X135707225Y-85111212D01*
X135510968Y-85144936D01*
X135324143Y-85213859D01*
X135319182Y-85216811D01*
X135319181Y-85216811D01*
X135180036Y-85299594D01*
X135153006Y-85315675D01*
X135003290Y-85446972D01*
X134999718Y-85451503D01*
X134896669Y-85582220D01*
X134880007Y-85603355D01*
X134787288Y-85779586D01*
X134728237Y-85969763D01*
X134704831Y-86167516D01*
X111301591Y-86167516D01*
X111345975Y-86118222D01*
X111418521Y-86037652D01*
X111418522Y-86037651D01*
X111422940Y-86032744D01*
X111518427Y-85867356D01*
X111577442Y-85685728D01*
X111589210Y-85573767D01*
X111596714Y-85502365D01*
X111597404Y-85495800D01*
X111591821Y-85442676D01*
X111578132Y-85312435D01*
X111578132Y-85312433D01*
X111577442Y-85305872D01*
X111532688Y-85168134D01*
X111856500Y-85168134D01*
X111863255Y-85230316D01*
X111914385Y-85366705D01*
X112001739Y-85483261D01*
X112118295Y-85570615D01*
X112254684Y-85621745D01*
X112316866Y-85628500D01*
X115013134Y-85628500D01*
X115075316Y-85621745D01*
X115211705Y-85570615D01*
X115328261Y-85483261D01*
X115415615Y-85366705D01*
X115466745Y-85230316D01*
X115473500Y-85168134D01*
X115473500Y-82471866D01*
X115466745Y-82409684D01*
X115415615Y-82273295D01*
X115328261Y-82156739D01*
X115211705Y-82069385D01*
X115075316Y-82018255D01*
X115013134Y-82011500D01*
X112316866Y-82011500D01*
X112254684Y-82018255D01*
X112118295Y-82069385D01*
X112001739Y-82156739D01*
X111914385Y-82273295D01*
X111863255Y-82409684D01*
X111856500Y-82471866D01*
X111856500Y-85168134D01*
X111532688Y-85168134D01*
X111518427Y-85124244D01*
X111510993Y-85111367D01*
X111426241Y-84964574D01*
X111422940Y-84958856D01*
X111413074Y-84947898D01*
X111299575Y-84821845D01*
X111299574Y-84821844D01*
X111295153Y-84816934D01*
X111140652Y-84704682D01*
X111134624Y-84701998D01*
X111134622Y-84701997D01*
X110972219Y-84629691D01*
X110972218Y-84629691D01*
X110966188Y-84627006D01*
X110872787Y-84607153D01*
X110785844Y-84588672D01*
X110785839Y-84588672D01*
X110779387Y-84587300D01*
X110588413Y-84587300D01*
X110581961Y-84588672D01*
X110581956Y-84588672D01*
X110495013Y-84607153D01*
X110401612Y-84627006D01*
X110395582Y-84629691D01*
X110395581Y-84629691D01*
X110233178Y-84701997D01*
X110233176Y-84701998D01*
X110227148Y-84704682D01*
X110072647Y-84816934D01*
X110068226Y-84821844D01*
X110068225Y-84821845D01*
X109954727Y-84947898D01*
X109944860Y-84958856D01*
X109941559Y-84964574D01*
X109856808Y-85111367D01*
X109849373Y-85124244D01*
X109790358Y-85305872D01*
X109789668Y-85312433D01*
X109789668Y-85312435D01*
X109775979Y-85442676D01*
X109770396Y-85495800D01*
X107071988Y-85495800D01*
X107054600Y-85472515D01*
X107051147Y-85467891D01*
X106904919Y-85332719D01*
X106900036Y-85329638D01*
X106741386Y-85229537D01*
X106736506Y-85226458D01*
X106551549Y-85152668D01*
X106545889Y-85151542D01*
X106545885Y-85151541D01*
X106361910Y-85114946D01*
X106361905Y-85114946D01*
X106356242Y-85113819D01*
X106350467Y-85113743D01*
X106350463Y-85113743D01*
X106252890Y-85112466D01*
X106157125Y-85111212D01*
X105960868Y-85144936D01*
X105774043Y-85213859D01*
X105769082Y-85216811D01*
X105769081Y-85216811D01*
X105629936Y-85299594D01*
X105602906Y-85315675D01*
X105453190Y-85446972D01*
X105449618Y-85451503D01*
X105346569Y-85582220D01*
X105329907Y-85603355D01*
X105237188Y-85779586D01*
X105178137Y-85969763D01*
X105154731Y-86167516D01*
X76704325Y-86167516D01*
X76704642Y-86155400D01*
X76688112Y-85975500D01*
X76686950Y-85962856D01*
X76686949Y-85962853D01*
X76686421Y-85957102D01*
X76680160Y-85934900D01*
X76633936Y-85771004D01*
X76633935Y-85771002D01*
X76632368Y-85765445D01*
X76629814Y-85760265D01*
X76546849Y-85592027D01*
X76546846Y-85592023D01*
X76544294Y-85586847D01*
X76476306Y-85495800D01*
X76428600Y-85431915D01*
X76425147Y-85427291D01*
X76293797Y-85305872D01*
X76283160Y-85296039D01*
X76283158Y-85296037D01*
X76278919Y-85292119D01*
X76274036Y-85289038D01*
X76115386Y-85188937D01*
X76110506Y-85185858D01*
X76066080Y-85168134D01*
X81376500Y-85168134D01*
X81383255Y-85230316D01*
X81434385Y-85366705D01*
X81521739Y-85483261D01*
X81638295Y-85570615D01*
X81774684Y-85621745D01*
X81836866Y-85628500D01*
X84533134Y-85628500D01*
X84595316Y-85621745D01*
X84731705Y-85570615D01*
X84848261Y-85483261D01*
X84935615Y-85366705D01*
X84986745Y-85230316D01*
X84993500Y-85168134D01*
X84993500Y-82471866D01*
X84986745Y-82409684D01*
X84935615Y-82273295D01*
X84848261Y-82156739D01*
X84731705Y-82069385D01*
X84595316Y-82018255D01*
X84533134Y-82011500D01*
X81836866Y-82011500D01*
X81774684Y-82018255D01*
X81638295Y-82069385D01*
X81521739Y-82156739D01*
X81434385Y-82273295D01*
X81383255Y-82409684D01*
X81376500Y-82471866D01*
X81376500Y-85168134D01*
X76066080Y-85168134D01*
X75925549Y-85112068D01*
X75919889Y-85110942D01*
X75919885Y-85110941D01*
X75735910Y-85074346D01*
X75735905Y-85074346D01*
X75730242Y-85073219D01*
X75724467Y-85073143D01*
X75724463Y-85073143D01*
X75626890Y-85071866D01*
X75531125Y-85070612D01*
X75334868Y-85104336D01*
X75148043Y-85173259D01*
X75143082Y-85176211D01*
X75143081Y-85176211D01*
X74982823Y-85271555D01*
X74976906Y-85275075D01*
X74827190Y-85406372D01*
X74823618Y-85410903D01*
X74769301Y-85479804D01*
X74703907Y-85562755D01*
X74611188Y-85738986D01*
X74552137Y-85929163D01*
X74528731Y-86126916D01*
X63843603Y-86126916D01*
X63843603Y-80136001D01*
X63863605Y-80067880D01*
X63917261Y-80021387D01*
X63969603Y-80010001D01*
X68028730Y-80010001D01*
X68096851Y-80030003D01*
X68143344Y-80083659D01*
X68153448Y-80153933D01*
X68128104Y-80211971D01*
X68128550Y-80212276D01*
X67992471Y-80411760D01*
X67890800Y-80630792D01*
X67826267Y-80863487D01*
X67825719Y-80868617D01*
X67825718Y-80868621D01*
X67815090Y-80968076D01*
X67800607Y-81103598D01*
X67800904Y-81108751D01*
X67800904Y-81108754D01*
X67810830Y-81280905D01*
X67814507Y-81344676D01*
X67815644Y-81349722D01*
X67815645Y-81349728D01*
X67839033Y-81453508D01*
X67867595Y-81580246D01*
X67869537Y-81585028D01*
X67869538Y-81585032D01*
X67951836Y-81787707D01*
X67958445Y-81803983D01*
X68084617Y-82009877D01*
X68242723Y-82192399D01*
X68246698Y-82195699D01*
X68246702Y-82195703D01*
X68316771Y-82253875D01*
X68428516Y-82346648D01*
X68637007Y-82468480D01*
X68641827Y-82470320D01*
X68641832Y-82470323D01*
X68791649Y-82527532D01*
X68862597Y-82554624D01*
X68867663Y-82555655D01*
X68867664Y-82555655D01*
X68871385Y-82556412D01*
X69099228Y-82602767D01*
X69234598Y-82607731D01*
X69335380Y-82611427D01*
X69335384Y-82611427D01*
X69340544Y-82611616D01*
X69345664Y-82610960D01*
X69345666Y-82610960D01*
X69574937Y-82581590D01*
X69574938Y-82581590D01*
X69580065Y-82580933D01*
X69595288Y-82576366D01*
X69806405Y-82513027D01*
X69811358Y-82511541D01*
X70028212Y-82405306D01*
X70032414Y-82402309D01*
X70032427Y-82402301D01*
X70207882Y-82277149D01*
X70274956Y-82253875D01*
X70343964Y-82270558D01*
X70392998Y-82321901D01*
X70399032Y-82335495D01*
X70399932Y-82337895D01*
X70403085Y-82346305D01*
X70490439Y-82462861D01*
X70606995Y-82550215D01*
X70743384Y-82601345D01*
X70805566Y-82608100D01*
X72821834Y-82608100D01*
X72884016Y-82601345D01*
X73020405Y-82550215D01*
X73136961Y-82462861D01*
X73224315Y-82346305D01*
X73275445Y-82209916D01*
X73282200Y-82147734D01*
X73282200Y-80136000D01*
X73302202Y-80067880D01*
X73355858Y-80021387D01*
X73408200Y-80010001D01*
X75814300Y-80010001D01*
X75882421Y-80030003D01*
X75928914Y-80083659D01*
X75940300Y-80136000D01*
X75940300Y-81149734D01*
X75947055Y-81211916D01*
X75962540Y-81253223D01*
X75995032Y-81339896D01*
X75995034Y-81339899D01*
X75998185Y-81348305D01*
X76003573Y-81355494D01*
X76003706Y-81355737D01*
X76018876Y-81425094D01*
X76013552Y-81453507D01*
X75956510Y-81637780D01*
X75955866Y-81643905D01*
X75955866Y-81643906D01*
X75941763Y-81778090D01*
X75935324Y-81839350D01*
X75937217Y-81860150D01*
X75951859Y-82021029D01*
X75953694Y-82041196D01*
X75955432Y-82047102D01*
X75955433Y-82047106D01*
X75991082Y-82168229D01*
X76010919Y-82235629D01*
X76013772Y-82241086D01*
X76013773Y-82241089D01*
X76041071Y-82293306D01*
X76104723Y-82415060D01*
X76104723Y-82415062D01*
X76104819Y-82415245D01*
X76104784Y-82415263D01*
X76124689Y-82481041D01*
X76109529Y-82542009D01*
X76016444Y-82714165D01*
X75992938Y-82790100D01*
X75972422Y-82856378D01*
X75956510Y-82907780D01*
X75955866Y-82913905D01*
X75955866Y-82913906D01*
X75941763Y-83048090D01*
X75935324Y-83109350D01*
X75953694Y-83311196D01*
X75955432Y-83317102D01*
X75955433Y-83317106D01*
X75983258Y-83411645D01*
X76010919Y-83505629D01*
X76013772Y-83511086D01*
X76013773Y-83511089D01*
X76057869Y-83595437D01*
X76104819Y-83685245D01*
X76108679Y-83690045D01*
X76108679Y-83690046D01*
X76119975Y-83704095D01*
X76231819Y-83843201D01*
X76387081Y-83973481D01*
X76392473Y-83976445D01*
X76392477Y-83976448D01*
X76455551Y-84011123D01*
X76564691Y-84071123D01*
X76757884Y-84132407D01*
X76764001Y-84133093D01*
X76764005Y-84133094D01*
X76838148Y-84141410D01*
X76915617Y-84150100D01*
X77474804Y-84150100D01*
X77625513Y-84135323D01*
X77819542Y-84076742D01*
X77998498Y-83981590D01*
X78155563Y-83853490D01*
X78195741Y-83804923D01*
X78280827Y-83702072D01*
X78280829Y-83702069D01*
X78284756Y-83697322D01*
X78381156Y-83519035D01*
X78417695Y-83400998D01*
X78439268Y-83331307D01*
X78439269Y-83331304D01*
X78441090Y-83325420D01*
X78448420Y-83255685D01*
X78461632Y-83129978D01*
X78461632Y-83129977D01*
X78462276Y-83123850D01*
X78449424Y-82982638D01*
X78444465Y-82928143D01*
X78444464Y-82928140D01*
X78443906Y-82922004D01*
X78439925Y-82908475D01*
X78388420Y-82733480D01*
X78386681Y-82727571D01*
X78382751Y-82720052D01*
X78324031Y-82607731D01*
X78292781Y-82547955D01*
X78292816Y-82547937D01*
X78272911Y-82482159D01*
X78288071Y-82421191D01*
X78294293Y-82409684D01*
X78381156Y-82249035D01*
X78383492Y-82241491D01*
X78439268Y-82061307D01*
X78439269Y-82061304D01*
X78441090Y-82055420D01*
X78445466Y-82013785D01*
X78454169Y-81930984D01*
X78481182Y-81865327D01*
X78539404Y-81824698D01*
X78610349Y-81821995D01*
X78671493Y-81858077D01*
X78699312Y-81905219D01*
X78755373Y-82077756D01*
X78758676Y-82083478D01*
X78758677Y-82083479D01*
X78762477Y-82090060D01*
X78850860Y-82243144D01*
X78855278Y-82248051D01*
X78855279Y-82248052D01*
X78956007Y-82359922D01*
X78978647Y-82385066D01*
X79059288Y-82443655D01*
X79122714Y-82489737D01*
X79133148Y-82497318D01*
X79139176Y-82500002D01*
X79139178Y-82500003D01*
X79301581Y-82572309D01*
X79307612Y-82574994D01*
X79401012Y-82594847D01*
X79487956Y-82613328D01*
X79487961Y-82613328D01*
X79494413Y-82614700D01*
X79685387Y-82614700D01*
X79691839Y-82613328D01*
X79691844Y-82613328D01*
X79778788Y-82594847D01*
X79872188Y-82574994D01*
X79878219Y-82572309D01*
X80040622Y-82500003D01*
X80040624Y-82500002D01*
X80046652Y-82497318D01*
X80057087Y-82489737D01*
X80120512Y-82443655D01*
X80201153Y-82385066D01*
X80223793Y-82359922D01*
X80324521Y-82248052D01*
X80324522Y-82248051D01*
X80328940Y-82243144D01*
X80417323Y-82090060D01*
X80421123Y-82083479D01*
X80421124Y-82083478D01*
X80424427Y-82077756D01*
X80483442Y-81896128D01*
X80486580Y-81866278D01*
X80502714Y-81712765D01*
X80503404Y-81706200D01*
X80483442Y-81516272D01*
X80424427Y-81334644D01*
X80328940Y-81169256D01*
X80311363Y-81149734D01*
X80205575Y-81032245D01*
X80205574Y-81032244D01*
X80201153Y-81027334D01*
X80046652Y-80915082D01*
X80040624Y-80912398D01*
X80040622Y-80912397D01*
X79878219Y-80840091D01*
X79878218Y-80840091D01*
X79872188Y-80837406D01*
X79778788Y-80817553D01*
X79691844Y-80799072D01*
X79691839Y-80799072D01*
X79685387Y-80797700D01*
X79494413Y-80797700D01*
X79487961Y-80799072D01*
X79487956Y-80799072D01*
X79401012Y-80817553D01*
X79307612Y-80837406D01*
X79301582Y-80840091D01*
X79301581Y-80840091D01*
X79139178Y-80912397D01*
X79139176Y-80912398D01*
X79133148Y-80915082D01*
X78978647Y-81027334D01*
X78974226Y-81032244D01*
X78974225Y-81032245D01*
X78868438Y-81149734D01*
X78850860Y-81169256D01*
X78755373Y-81334644D01*
X78696358Y-81516272D01*
X78695668Y-81522833D01*
X78695668Y-81522835D01*
X78685932Y-81615471D01*
X78658919Y-81681128D01*
X78600697Y-81721758D01*
X78529752Y-81724461D01*
X78468608Y-81688379D01*
X78439749Y-81637876D01*
X78388424Y-81463488D01*
X78388418Y-81463474D01*
X78388011Y-81462091D01*
X78388011Y-81462088D01*
X78386682Y-81457571D01*
X78387540Y-81457318D01*
X78381086Y-81391938D01*
X78394252Y-81355194D01*
X78399415Y-81348305D01*
X78402568Y-81339896D01*
X78432824Y-81259186D01*
X78450545Y-81211916D01*
X78457300Y-81149734D01*
X78457300Y-80136000D01*
X78477302Y-80067880D01*
X78530958Y-80021387D01*
X78583300Y-80010001D01*
X88316389Y-80010001D01*
X88349000Y-80014294D01*
X88374098Y-80021019D01*
X88374100Y-80021019D01*
X88379413Y-80022443D01*
X88607500Y-80042398D01*
X88835587Y-80022443D01*
X88840900Y-80021019D01*
X88840902Y-80021019D01*
X88866000Y-80014294D01*
X88898611Y-80010001D01*
X90856389Y-80010001D01*
X90889000Y-80014294D01*
X90914098Y-80021019D01*
X90914100Y-80021019D01*
X90919413Y-80022443D01*
X91147500Y-80042398D01*
X91375587Y-80022443D01*
X91380900Y-80021019D01*
X91380902Y-80021019D01*
X91406000Y-80014294D01*
X91438611Y-80010001D01*
X97370556Y-80010001D01*
X97438677Y-80030003D01*
X97485170Y-80083659D01*
X97495274Y-80153933D01*
X97474644Y-80207005D01*
X97414290Y-80295480D01*
X97414287Y-80295485D01*
X97411371Y-80299760D01*
X97309700Y-80518792D01*
X97245167Y-80751487D01*
X97219507Y-80991598D01*
X97219804Y-80996751D01*
X97219804Y-80996754D01*
X97230888Y-81188991D01*
X97233407Y-81232676D01*
X97234544Y-81237722D01*
X97234545Y-81237728D01*
X97257570Y-81339896D01*
X97286495Y-81468246D01*
X97288437Y-81473028D01*
X97288438Y-81473032D01*
X97363669Y-81658304D01*
X97377345Y-81691983D01*
X97503517Y-81897877D01*
X97661623Y-82080399D01*
X97665598Y-82083699D01*
X97665602Y-82083703D01*
X97735671Y-82141875D01*
X97847416Y-82234648D01*
X98055907Y-82356480D01*
X98060727Y-82358320D01*
X98060732Y-82358323D01*
X98175859Y-82402285D01*
X98281497Y-82442624D01*
X98286563Y-82443655D01*
X98286564Y-82443655D01*
X98337269Y-82453971D01*
X98518128Y-82490767D01*
X98653498Y-82495731D01*
X98754280Y-82499427D01*
X98754284Y-82499427D01*
X98759444Y-82499616D01*
X98764564Y-82498960D01*
X98764566Y-82498960D01*
X98993837Y-82469590D01*
X98993838Y-82469590D01*
X98998965Y-82468933D01*
X99009165Y-82465873D01*
X99225305Y-82401027D01*
X99230258Y-82399541D01*
X99447112Y-82293306D01*
X99451314Y-82290309D01*
X99451327Y-82290301D01*
X99626782Y-82165149D01*
X99693856Y-82141875D01*
X99762864Y-82158558D01*
X99811898Y-82209901D01*
X99817932Y-82223495D01*
X99818832Y-82225895D01*
X99821985Y-82234305D01*
X99909339Y-82350861D01*
X100025895Y-82438215D01*
X100162284Y-82489345D01*
X100224466Y-82496100D01*
X102240734Y-82496100D01*
X102302916Y-82489345D01*
X102439305Y-82438215D01*
X102555861Y-82350861D01*
X102643215Y-82234305D01*
X102694345Y-82097916D01*
X102701100Y-82035734D01*
X102701100Y-80136000D01*
X102721102Y-80067880D01*
X102774758Y-80021387D01*
X102827100Y-80010001D01*
X105412900Y-80010001D01*
X105481021Y-80030003D01*
X105527514Y-80083659D01*
X105538900Y-80136000D01*
X105538900Y-81082334D01*
X105545655Y-81144516D01*
X105553090Y-81164348D01*
X105593632Y-81272496D01*
X105593634Y-81272499D01*
X105596785Y-81280905D01*
X105602173Y-81288094D01*
X105602306Y-81288337D01*
X105617476Y-81357694D01*
X105612152Y-81386107D01*
X105555110Y-81570380D01*
X105554466Y-81576505D01*
X105554466Y-81576506D01*
X105543470Y-81681128D01*
X105533924Y-81771950D01*
X105536404Y-81799196D01*
X105548398Y-81930984D01*
X105552294Y-81973796D01*
X105554032Y-81979702D01*
X105554033Y-81979706D01*
X105588825Y-82097916D01*
X105609519Y-82168229D01*
X105612372Y-82173686D01*
X105612373Y-82173689D01*
X105644959Y-82236020D01*
X105703323Y-82347660D01*
X105703323Y-82347662D01*
X105703419Y-82347845D01*
X105703384Y-82347863D01*
X105723289Y-82413641D01*
X105708129Y-82474609D01*
X105615044Y-82646765D01*
X105590408Y-82726352D01*
X105571881Y-82786203D01*
X105555110Y-82840380D01*
X105554466Y-82846505D01*
X105554466Y-82846506D01*
X105541156Y-82973143D01*
X105533924Y-83041950D01*
X105536939Y-83075076D01*
X105547441Y-83190467D01*
X105552294Y-83243796D01*
X105554032Y-83249702D01*
X105554033Y-83249706D01*
X105579904Y-83337607D01*
X105609519Y-83438229D01*
X105612372Y-83443686D01*
X105612373Y-83443689D01*
X105644959Y-83506020D01*
X105703419Y-83617845D01*
X105707279Y-83622645D01*
X105707279Y-83622646D01*
X105716948Y-83634672D01*
X105830419Y-83775801D01*
X105985681Y-83906081D01*
X105991073Y-83909045D01*
X105991077Y-83909048D01*
X106134491Y-83987890D01*
X106163291Y-84003723D01*
X106356484Y-84065007D01*
X106362601Y-84065693D01*
X106362605Y-84065694D01*
X106435319Y-84073850D01*
X106514217Y-84082700D01*
X107073404Y-84082700D01*
X107224113Y-84067923D01*
X107418142Y-84009342D01*
X107597098Y-83914190D01*
X107754163Y-83786090D01*
X107766646Y-83771001D01*
X107879427Y-83634672D01*
X107879429Y-83634669D01*
X107883356Y-83629922D01*
X107979756Y-83451635D01*
X108019450Y-83323406D01*
X108037868Y-83263907D01*
X108037869Y-83263904D01*
X108039690Y-83258020D01*
X108041632Y-83239548D01*
X108060232Y-83062578D01*
X108060232Y-83062577D01*
X108060876Y-83056450D01*
X108049772Y-82934443D01*
X108043065Y-82860743D01*
X108043064Y-82860740D01*
X108042506Y-82854604D01*
X108039418Y-82844110D01*
X107987020Y-82666080D01*
X107985281Y-82660171D01*
X107981351Y-82652652D01*
X107927744Y-82550112D01*
X107891381Y-82480555D01*
X107891416Y-82480537D01*
X107871511Y-82414759D01*
X107886671Y-82353791D01*
X107891052Y-82345688D01*
X107979756Y-82181635D01*
X108019450Y-82053406D01*
X108037868Y-81993907D01*
X108037869Y-81993904D01*
X108039690Y-81988020D01*
X108041632Y-81969548D01*
X108060232Y-81792578D01*
X108060232Y-81792577D01*
X108060876Y-81786450D01*
X108049772Y-81664443D01*
X108043065Y-81590743D01*
X108043064Y-81590740D01*
X108042506Y-81584604D01*
X108039740Y-81575204D01*
X107987020Y-81396079D01*
X107987019Y-81396077D01*
X107985281Y-81390171D01*
X107986140Y-81389918D01*
X107979686Y-81324538D01*
X107992852Y-81287794D01*
X107998015Y-81280905D01*
X108001168Y-81272496D01*
X108041710Y-81164348D01*
X108049145Y-81144516D01*
X108055900Y-81082334D01*
X108055900Y-80136000D01*
X108075902Y-80067880D01*
X108129558Y-80021387D01*
X108181900Y-80010001D01*
X117654322Y-80010001D01*
X127347658Y-80010000D01*
X127415778Y-80030002D01*
X127462271Y-80083658D01*
X127472375Y-80153932D01*
X127451745Y-80207004D01*
X127388471Y-80299760D01*
X127286800Y-80518792D01*
X127222267Y-80751487D01*
X127196607Y-80991598D01*
X127196904Y-80996751D01*
X127196904Y-80996754D01*
X127207988Y-81188991D01*
X127210507Y-81232676D01*
X127211644Y-81237722D01*
X127211645Y-81237728D01*
X127234670Y-81339896D01*
X127263595Y-81468246D01*
X127265537Y-81473028D01*
X127265538Y-81473032D01*
X127340769Y-81658304D01*
X127354445Y-81691983D01*
X127480617Y-81897877D01*
X127638723Y-82080399D01*
X127642698Y-82083699D01*
X127642702Y-82083703D01*
X127712771Y-82141875D01*
X127824516Y-82234648D01*
X128033007Y-82356480D01*
X128037827Y-82358320D01*
X128037832Y-82358323D01*
X128152959Y-82402285D01*
X128258597Y-82442624D01*
X128263663Y-82443655D01*
X128263664Y-82443655D01*
X128314369Y-82453971D01*
X128495228Y-82490767D01*
X128630598Y-82495731D01*
X128731380Y-82499427D01*
X128731384Y-82499427D01*
X128736544Y-82499616D01*
X128741664Y-82498960D01*
X128741666Y-82498960D01*
X128970937Y-82469590D01*
X128970938Y-82469590D01*
X128976065Y-82468933D01*
X128986265Y-82465873D01*
X129202405Y-82401027D01*
X129207358Y-82399541D01*
X129424212Y-82293306D01*
X129428414Y-82290309D01*
X129428427Y-82290301D01*
X129603882Y-82165149D01*
X129670956Y-82141875D01*
X129739964Y-82158558D01*
X129788998Y-82209901D01*
X129795032Y-82223495D01*
X129795932Y-82225895D01*
X129799085Y-82234305D01*
X129886439Y-82350861D01*
X130002995Y-82438215D01*
X130139384Y-82489345D01*
X130201566Y-82496100D01*
X132217834Y-82496100D01*
X132280016Y-82489345D01*
X132416405Y-82438215D01*
X132532961Y-82350861D01*
X132620315Y-82234305D01*
X132671445Y-82097916D01*
X132678200Y-82035734D01*
X132678200Y-80136000D01*
X132698202Y-80067879D01*
X132751858Y-80021386D01*
X132804198Y-80010000D01*
X136282101Y-80010000D01*
X136350221Y-80030002D01*
G37*
G04 #@! TD.AperFunction*
G04 #@! TD*
M02*
