%TF.GenerationSoftware,KiCad,Pcbnew,(5.1.9)-1*%
%TF.CreationDate,2021-10-06T20:04:51-07:00*%
%TF.ProjectId,MakeItRain,4d616b65-4974-4526-9169-6e2e6b696361,rev?*%
%TF.SameCoordinates,Original*%
%TF.FileFunction,Copper,L1,Top*%
%TF.FilePolarity,Positive*%
%FSLAX46Y46*%
G04 Gerber Fmt 4.6, Leading zero omitted, Abs format (unit mm)*
G04 Created by KiCad (PCBNEW (5.1.9)-1) date 2021-10-06 20:04:51*
%MOMM*%
%LPD*%
G01*
G04 APERTURE LIST*
%TA.AperFunction,ComponentPad*%
%ADD10C,1.150000*%
%TD*%
%TA.AperFunction,ComponentPad*%
%ADD11R,1.150000X1.150000*%
%TD*%
%TA.AperFunction,ComponentPad*%
%ADD12O,1.700000X1.700000*%
%TD*%
%TA.AperFunction,ComponentPad*%
%ADD13R,1.700000X1.700000*%
%TD*%
%TA.AperFunction,ComponentPad*%
%ADD14O,1.600000X1.600000*%
%TD*%
%TA.AperFunction,ComponentPad*%
%ADD15C,1.600000*%
%TD*%
%TA.AperFunction,ComponentPad*%
%ADD16C,2.600000*%
%TD*%
%TA.AperFunction,ComponentPad*%
%ADD17R,2.600000X2.600000*%
%TD*%
%TA.AperFunction,ComponentPad*%
%ADD18C,2.100000*%
%TD*%
%TA.AperFunction,ComponentPad*%
%ADD19C,1.920000*%
%TD*%
%TA.AperFunction,ComponentPad*%
%ADD20R,1.920000X1.920000*%
%TD*%
%TA.AperFunction,ComponentPad*%
%ADD21R,1.050000X1.500000*%
%TD*%
%TA.AperFunction,ComponentPad*%
%ADD22O,1.050000X1.500000*%
%TD*%
%TA.AperFunction,ComponentPad*%
%ADD23R,1.500000X1.050000*%
%TD*%
%TA.AperFunction,ComponentPad*%
%ADD24O,1.500000X1.050000*%
%TD*%
%TA.AperFunction,ComponentPad*%
%ADD25C,1.130000*%
%TD*%
%TA.AperFunction,ComponentPad*%
%ADD26R,1.130000X1.130000*%
%TD*%
%TA.AperFunction,SMDPad,CuDef*%
%ADD27R,1.528000X0.650000*%
%TD*%
%TA.AperFunction,ComponentPad*%
%ADD28O,2.200000X2.200000*%
%TD*%
%TA.AperFunction,ComponentPad*%
%ADD29R,2.200000X2.200000*%
%TD*%
%TA.AperFunction,ComponentPad*%
%ADD30O,2.600000X2.600000*%
%TD*%
%TA.AperFunction,ComponentPad*%
%ADD31R,1.600000X1.600000*%
%TD*%
%TA.AperFunction,ViaPad*%
%ADD32C,0.800000*%
%TD*%
%TA.AperFunction,Conductor*%
%ADD33C,0.250000*%
%TD*%
%TA.AperFunction,Conductor*%
%ADD34C,0.381000*%
%TD*%
%TA.AperFunction,Conductor*%
%ADD35C,0.508000*%
%TD*%
%TA.AperFunction,Conductor*%
%ADD36C,1.524000*%
%TD*%
%TA.AperFunction,Conductor*%
%ADD37C,0.254000*%
%TD*%
%TA.AperFunction,Conductor*%
%ADD38C,0.100000*%
%TD*%
G04 APERTURE END LIST*
D10*
%TO.P,Z8,2*%
%TO.N,Net-(Q13-Pad1)*%
X125190000Y-86360000D03*
D11*
%TO.P,Z8,1*%
%TO.N,+VDC*%
X135890000Y-86360000D03*
%TD*%
D10*
%TO.P,Z7,2*%
%TO.N,Net-(Q10-Pad1)*%
X156940000Y-86360000D03*
D11*
%TO.P,Z7,1*%
%TO.N,+VDC*%
X167640000Y-86360000D03*
%TD*%
D10*
%TO.P,Z6,2*%
%TO.N,Net-(Q7-Pad1)*%
X95980000Y-86360000D03*
D11*
%TO.P,Z6,1*%
%TO.N,+VDC*%
X106680000Y-86360000D03*
%TD*%
D10*
%TO.P,Z5,2*%
%TO.N,Net-(Q4-Pad1)*%
X64230000Y-86360000D03*
D11*
%TO.P,Z5,1*%
%TO.N,+VDC*%
X74930000Y-86360000D03*
%TD*%
D12*
%TO.P,J1,32*%
%TO.N,/D2*%
X130810000Y-120650000D03*
%TO.P,J1,31*%
%TO.N,GND*%
X130810000Y-123190000D03*
%TO.P,J1,30*%
%TO.N,/D23*%
X133350000Y-120650000D03*
%TO.P,J1,29*%
%TO.N,GND*%
X133350000Y-123190000D03*
%TO.P,J1,28*%
%TO.N,/D5*%
X135890000Y-120650000D03*
%TO.P,J1,27*%
%TO.N,GND*%
X135890000Y-123190000D03*
%TO.P,J1,26*%
%TO.N,/D15*%
X138430000Y-120650000D03*
%TO.P,J1,25*%
%TO.N,GND*%
X138430000Y-123190000D03*
%TO.P,J1,24*%
%TO.N,/D0*%
X140970000Y-120650000D03*
%TO.P,J1,23*%
%TO.N,GND*%
X140970000Y-123190000D03*
%TO.P,J1,22*%
%TO.N,/D4*%
X143510000Y-120650000D03*
%TO.P,J1,21*%
%TO.N,GND*%
X143510000Y-123190000D03*
%TO.P,J1,20*%
%TO.N,/D16*%
X146050000Y-120650000D03*
%TO.P,J1,19*%
%TO.N,GND*%
X146050000Y-123190000D03*
%TO.P,J1,18*%
%TO.N,/D18*%
X148590000Y-120650000D03*
%TO.P,J1,17*%
%TO.N,/TX*%
X148590000Y-123190000D03*
%TO.P,J1,16*%
%TO.N,/D26*%
X151130000Y-120650000D03*
%TO.P,J1,15*%
%TO.N,/RX*%
X151130000Y-123190000D03*
%TO.P,J1,14*%
%TO.N,/D19*%
X153670000Y-120650000D03*
%TO.P,J1,13*%
%TO.N,/D17*%
X153670000Y-123190000D03*
%TO.P,J1,12*%
%TO.N,/D25*%
X156210000Y-120650000D03*
%TO.P,J1,11*%
%TO.N,+VDC*%
X156210000Y-123190000D03*
%TO.P,J1,10*%
%TO.N,/D21*%
X158750000Y-120650000D03*
%TO.P,J1,9*%
%TO.N,+VDC*%
X158750000Y-123190000D03*
%TO.P,J1,8*%
%TO.N,/D33*%
X161290000Y-120650000D03*
%TO.P,J1,7*%
%TO.N,+VDC*%
X161290000Y-123190000D03*
%TO.P,J1,6*%
%TO.N,/D22*%
X163830000Y-120650000D03*
%TO.P,J1,5*%
%TO.N,+VDC*%
X163830000Y-123190000D03*
%TO.P,J1,4*%
%TO.N,/D32*%
X166370000Y-120650000D03*
%TO.P,J1,3*%
%TO.N,+VDC*%
X166370000Y-123190000D03*
%TO.P,J1,2*%
%TO.N,+3V3*%
X168910000Y-120650000D03*
D13*
%TO.P,J1,1*%
%TO.N,+VDC*%
X168910000Y-123190000D03*
%TD*%
D14*
%TO.P,R2,2*%
%TO.N,GND*%
X157480000Y-99060000D03*
D15*
%TO.P,R2,1*%
%TO.N,/D2*%
X152400000Y-99060000D03*
%TD*%
D16*
%TO.P,Z4,3*%
%TO.N,GND*%
X157480000Y-69850000D03*
%TO.P,Z4,2*%
%TO.N,/Zone4IO/ZoneOutput*%
X162560000Y-69850000D03*
D17*
%TO.P,Z4,1*%
%TO.N,/Zone4IO/ZoneInput*%
X167640000Y-69850000D03*
%TD*%
D16*
%TO.P,Z3,3*%
%TO.N,GND*%
X127000000Y-69850000D03*
%TO.P,Z3,2*%
%TO.N,/Zone3IO/ZoneOutput*%
X132080000Y-69850000D03*
D17*
%TO.P,Z3,1*%
%TO.N,/Zone3IO/ZoneInput*%
X137160000Y-69850000D03*
%TD*%
D16*
%TO.P,Z2,3*%
%TO.N,GND*%
X96520000Y-69850000D03*
%TO.P,Z2,2*%
%TO.N,/Zone2IO/ZoneOutput*%
X101600000Y-69850000D03*
D17*
%TO.P,Z2,1*%
%TO.N,/Zone2IO/ZoneInput*%
X106680000Y-69850000D03*
%TD*%
D16*
%TO.P,Z1,3*%
%TO.N,GND*%
X66040000Y-69850000D03*
%TO.P,Z1,2*%
%TO.N,/Zone1IO/ZoneOutput*%
X71120000Y-69850000D03*
D17*
%TO.P,Z1,1*%
%TO.N,/Zone1IO/ZoneInput*%
X76200000Y-69850000D03*
%TD*%
D18*
%TO.P,U1,8*%
%TO.N,+VDC*%
X173990000Y-99100000D03*
%TO.P,U1,7*%
X177490000Y-99100000D03*
%TO.P,U1,6*%
%TO.N,Net-(Q1-Pad3)*%
X183290000Y-99100000D03*
%TO.P,U1,5*%
X186790000Y-99100000D03*
%TO.P,U1,4*%
X186790000Y-101600000D03*
%TO.P,U1,3*%
X183290000Y-101600000D03*
%TO.P,U1,2*%
%TO.N,+VDC*%
X177490000Y-101600000D03*
%TO.P,U1,1*%
X173990000Y-101600000D03*
%TD*%
D14*
%TO.P,R6,2*%
%TO.N,Net-(IC2-Pad1)*%
X59690000Y-69850000D03*
D15*
%TO.P,R6,1*%
%TO.N,+VDC*%
X54610000Y-69850000D03*
%TD*%
D14*
%TO.P,R26,2*%
%TO.N,Net-(Q12-Pad3)*%
X143510000Y-93980000D03*
D15*
%TO.P,R26,1*%
%TO.N,Net-(Q13-Pad1)*%
X140970000Y-93980000D03*
%TD*%
D14*
%TO.P,R25,2*%
%TO.N,Net-(Q13-Pad1)*%
X143510000Y-88900000D03*
D15*
%TO.P,R25,1*%
%TO.N,+VDC*%
X140970000Y-88900000D03*
%TD*%
D14*
%TO.P,R24,2*%
%TO.N,GND*%
X128270000Y-99060000D03*
D15*
%TO.P,R24,1*%
%TO.N,/D12*%
X125730000Y-99060000D03*
%TD*%
D14*
%TO.P,R21,2*%
%TO.N,Net-(Q9-Pad3)*%
X152400000Y-88900000D03*
D15*
%TO.P,R21,1*%
%TO.N,Net-(Q10-Pad1)*%
X149860000Y-88900000D03*
%TD*%
D14*
%TO.P,R5,2*%
%TO.N,GND*%
X157480000Y-104140000D03*
D15*
%TO.P,R5,1*%
%TO.N,/D4*%
X152400000Y-104140000D03*
%TD*%
D14*
%TO.P,R4,2*%
%TO.N,GND*%
X166370000Y-104140000D03*
D15*
%TO.P,R4,1*%
%TO.N,Net-(IC1-Pad3)*%
X161290000Y-104140000D03*
%TD*%
D14*
%TO.P,R3,2*%
%TO.N,Net-(IC1-Pad3)*%
X166370000Y-99060000D03*
D15*
%TO.P,R3,1*%
%TO.N,+VDC*%
X161290000Y-99060000D03*
%TD*%
D14*
%TO.P,R20,2*%
%TO.N,Net-(Q10-Pad1)*%
X152400000Y-83820000D03*
D15*
%TO.P,R20,1*%
%TO.N,+VDC*%
X149860000Y-83820000D03*
%TD*%
D14*
%TO.P,R19,2*%
%TO.N,GND*%
X152400000Y-78740000D03*
D15*
%TO.P,R19,1*%
%TO.N,/P23*%
X149860000Y-78740000D03*
%TD*%
D14*
%TO.P,R16,2*%
%TO.N,Net-(Q6-Pad3)*%
X121920000Y-88900000D03*
D15*
%TO.P,R16,1*%
%TO.N,Net-(Q7-Pad1)*%
X119380000Y-88900000D03*
%TD*%
D14*
%TO.P,R15,2*%
%TO.N,Net-(Q7-Pad1)*%
X121920000Y-83820000D03*
D15*
%TO.P,R15,1*%
%TO.N,+VDC*%
X119380000Y-83820000D03*
%TD*%
D14*
%TO.P,R18,2*%
%TO.N,GND*%
X152400000Y-73660000D03*
D15*
%TO.P,R18,1*%
%TO.N,/D35*%
X149860000Y-73660000D03*
%TD*%
D14*
%TO.P,R14,2*%
%TO.N,GND*%
X121920000Y-78740000D03*
D15*
%TO.P,R14,1*%
%TO.N,/D14*%
X119380000Y-78740000D03*
%TD*%
D14*
%TO.P,R17,2*%
%TO.N,GND*%
X152400000Y-68580000D03*
D15*
%TO.P,R17,1*%
%TO.N,/Zone4IO/ZoneInput*%
X149860000Y-68580000D03*
%TD*%
D14*
%TO.P,R23,2*%
%TO.N,GND*%
X134620000Y-99060000D03*
D15*
%TO.P,R23,1*%
%TO.N,/D34*%
X132080000Y-99060000D03*
%TD*%
D14*
%TO.P,R11,2*%
%TO.N,Net-(Q3-Pad3)*%
X91440000Y-88900000D03*
D15*
%TO.P,R11,1*%
%TO.N,Net-(Q4-Pad1)*%
X88900000Y-88900000D03*
%TD*%
D14*
%TO.P,R22,2*%
%TO.N,GND*%
X143510000Y-99060000D03*
D15*
%TO.P,R22,1*%
%TO.N,/Zone3IO/ZoneInput*%
X140970000Y-99060000D03*
%TD*%
D14*
%TO.P,R13,2*%
%TO.N,GND*%
X121920000Y-73660000D03*
D15*
%TO.P,R13,1*%
%TO.N,/SVN*%
X119380000Y-73660000D03*
%TD*%
D14*
%TO.P,R10,2*%
%TO.N,Net-(Q4-Pad1)*%
X91440000Y-83820000D03*
D15*
%TO.P,R10,1*%
%TO.N,+VDC*%
X88900000Y-83820000D03*
%TD*%
D14*
%TO.P,R12,2*%
%TO.N,GND*%
X121920000Y-68580000D03*
D15*
%TO.P,R12,1*%
%TO.N,/Zone2IO/ZoneInput*%
X119380000Y-68580000D03*
%TD*%
D14*
%TO.P,R8,2*%
%TO.N,GND*%
X91440000Y-73660000D03*
D15*
%TO.P,R8,1*%
%TO.N,/SVP*%
X88900000Y-73660000D03*
%TD*%
D14*
%TO.P,R9,2*%
%TO.N,GND*%
X91440000Y-78740000D03*
D15*
%TO.P,R9,1*%
%TO.N,/D27*%
X88900000Y-78740000D03*
%TD*%
D14*
%TO.P,R7,2*%
%TO.N,GND*%
X91440000Y-68580000D03*
D15*
%TO.P,R7,1*%
%TO.N,/Zone1IO/ZoneInput*%
X88900000Y-68580000D03*
%TD*%
D14*
%TO.P,R1,2*%
%TO.N,GND*%
X173990000Y-91440000D03*
D15*
%TO.P,R1,1*%
%TO.N,Net-(Q1-Pad1)*%
X179070000Y-91440000D03*
%TD*%
D19*
%TO.P,Q13,3*%
%TO.N,+VDC*%
X134620000Y-82550000D03*
%TO.P,Q13,2*%
%TO.N,/Zone3IO/ZoneOutput*%
X132080000Y-82550000D03*
D20*
%TO.P,Q13,1*%
%TO.N,Net-(Q13-Pad1)*%
X129540000Y-82550000D03*
%TD*%
D21*
%TO.P,Q12,1*%
%TO.N,GND*%
X128270000Y-91440000D03*
D22*
%TO.P,Q12,3*%
%TO.N,Net-(Q12-Pad3)*%
X125730000Y-91440000D03*
%TO.P,Q12,2*%
%TO.N,/D12*%
X127000000Y-91440000D03*
%TD*%
D19*
%TO.P,Q10,3*%
%TO.N,+VDC*%
X165100000Y-82550000D03*
%TO.P,Q10,2*%
%TO.N,/Zone4IO/ZoneOutput*%
X162560000Y-82550000D03*
D20*
%TO.P,Q10,1*%
%TO.N,Net-(Q10-Pad1)*%
X160020000Y-82550000D03*
%TD*%
D23*
%TO.P,Q9,1*%
%TO.N,GND*%
X156210000Y-90170000D03*
D24*
%TO.P,Q9,3*%
%TO.N,Net-(Q9-Pad3)*%
X156210000Y-92710000D03*
%TO.P,Q9,2*%
%TO.N,/P23*%
X156210000Y-91440000D03*
%TD*%
D23*
%TO.P,Q8,1*%
%TO.N,/D35*%
X163830000Y-90170000D03*
D24*
%TO.P,Q8,3*%
%TO.N,+3V3*%
X163830000Y-92710000D03*
%TO.P,Q8,2*%
%TO.N,/Zone4IO/ZoneInput*%
X163830000Y-91440000D03*
%TD*%
D19*
%TO.P,Q7,3*%
%TO.N,+VDC*%
X104140000Y-82550000D03*
%TO.P,Q7,2*%
%TO.N,/Zone2IO/ZoneOutput*%
X101600000Y-82550000D03*
D20*
%TO.P,Q7,1*%
%TO.N,Net-(Q7-Pad1)*%
X99060000Y-82550000D03*
%TD*%
D21*
%TO.P,Q11,1*%
%TO.N,/D34*%
X134620000Y-91440000D03*
D22*
%TO.P,Q11,3*%
%TO.N,+3V3*%
X132080000Y-91440000D03*
%TO.P,Q11,2*%
%TO.N,/Zone3IO/ZoneInput*%
X133350000Y-91440000D03*
%TD*%
D21*
%TO.P,Q6,1*%
%TO.N,GND*%
X105410000Y-91440000D03*
D22*
%TO.P,Q6,3*%
%TO.N,Net-(Q6-Pad3)*%
X102870000Y-91440000D03*
%TO.P,Q6,2*%
%TO.N,/D14*%
X104140000Y-91440000D03*
%TD*%
D21*
%TO.P,Q5,1*%
%TO.N,/SVN*%
X99060000Y-91440000D03*
D22*
%TO.P,Q5,3*%
%TO.N,+3V3*%
X96520000Y-91440000D03*
%TO.P,Q5,2*%
%TO.N,/Zone2IO/ZoneInput*%
X97790000Y-91440000D03*
%TD*%
D19*
%TO.P,Q4,3*%
%TO.N,+VDC*%
X73660000Y-82550000D03*
%TO.P,Q4,2*%
%TO.N,/Zone1IO/ZoneOutput*%
X71120000Y-82550000D03*
D20*
%TO.P,Q4,1*%
%TO.N,Net-(Q4-Pad1)*%
X68580000Y-82550000D03*
%TD*%
D21*
%TO.P,Q2,1*%
%TO.N,/SVP*%
X69850000Y-91440000D03*
D22*
%TO.P,Q2,3*%
%TO.N,+3V3*%
X67310000Y-91440000D03*
%TO.P,Q2,2*%
%TO.N,/Zone1IO/ZoneInput*%
X68580000Y-91440000D03*
%TD*%
D21*
%TO.P,Q3,1*%
%TO.N,GND*%
X76200000Y-91440000D03*
D22*
%TO.P,Q3,3*%
%TO.N,Net-(Q3-Pad3)*%
X73660000Y-91440000D03*
%TO.P,Q3,2*%
%TO.N,/D27*%
X74930000Y-91440000D03*
%TD*%
D19*
%TO.P,Q1,3*%
%TO.N,Net-(Q1-Pad3)*%
X189230000Y-91440000D03*
%TO.P,Q1,2*%
%TO.N,Net-(P1-Pad1)*%
X186690000Y-91440000D03*
D20*
%TO.P,Q1,1*%
%TO.N,Net-(Q1-Pad1)*%
X184150000Y-91440000D03*
%TD*%
D16*
%TO.P,P1,2*%
%TO.N,GND*%
X184150000Y-78740000D03*
D17*
%TO.P,P1,1*%
%TO.N,Net-(P1-Pad1)*%
X184150000Y-83820000D03*
%TD*%
D14*
%TO.P,L1,2*%
%TO.N,+5V*%
X52070000Y-86360000D03*
D15*
%TO.P,L1,1*%
%TO.N,Net-(D1-Pad1)*%
X62230000Y-86360000D03*
%TD*%
D12*
%TO.P,J3,19*%
%TO.N,N/C*%
X111760000Y-97790000D03*
%TO.P,J3,18*%
X109220000Y-97790000D03*
%TO.P,J3,17*%
X106680000Y-97790000D03*
%TO.P,J3,16*%
%TO.N,/D15*%
X104140000Y-97790000D03*
%TO.P,J3,15*%
%TO.N,/D2*%
X101600000Y-97790000D03*
%TO.P,J3,14*%
%TO.N,/D0*%
X99060000Y-97790000D03*
%TO.P,J3,13*%
%TO.N,/D4*%
X96520000Y-97790000D03*
%TO.P,J3,12*%
%TO.N,/D16*%
X93980000Y-97790000D03*
%TO.P,J3,11*%
%TO.N,/D17*%
X91440000Y-97790000D03*
%TO.P,J3,10*%
%TO.N,/D5*%
X88900000Y-97790000D03*
%TO.P,J3,9*%
%TO.N,/D18*%
X86360000Y-97790000D03*
%TO.P,J3,8*%
%TO.N,/D19*%
X83820000Y-97790000D03*
%TO.P,J3,7*%
%TO.N,GND*%
X81280000Y-97790000D03*
%TO.P,J3,6*%
%TO.N,/D21*%
X78740000Y-97790000D03*
%TO.P,J3,5*%
%TO.N,/RX*%
X76200000Y-97790000D03*
%TO.P,J3,4*%
%TO.N,/TX*%
X73660000Y-97790000D03*
%TO.P,J3,3*%
%TO.N,/D22*%
X71120000Y-97790000D03*
%TO.P,J3,2*%
%TO.N,/D23*%
X68580000Y-97790000D03*
D13*
%TO.P,J3,1*%
%TO.N,GND*%
X66040000Y-97790000D03*
%TD*%
D12*
%TO.P,J2,38*%
%TO.N,+5V*%
X111760000Y-123190000D03*
%TO.P,J2,37*%
X111760000Y-120650000D03*
%TO.P,J2,36*%
%TO.N,GND*%
X109220000Y-123190000D03*
%TO.P,J2,35*%
X109220000Y-120650000D03*
%TO.P,J2,34*%
%TO.N,/SD3*%
X106680000Y-123190000D03*
%TO.P,J2,33*%
X106680000Y-120650000D03*
%TO.P,J2,32*%
%TO.N,/SD2*%
X104140000Y-123190000D03*
%TO.P,J2,31*%
X104140000Y-120650000D03*
%TO.P,J2,30*%
%TO.N,/D13*%
X101600000Y-123190000D03*
%TO.P,J2,29*%
X101600000Y-120650000D03*
%TO.P,J2,28*%
%TO.N,GND*%
X99060000Y-123190000D03*
%TO.P,J2,27*%
X99060000Y-120650000D03*
%TO.P,J2,26*%
%TO.N,/D12*%
X96520000Y-123190000D03*
%TO.P,J2,25*%
X96520000Y-120650000D03*
%TO.P,J2,24*%
%TO.N,/D14*%
X93980000Y-123190000D03*
%TO.P,J2,23*%
X93980000Y-120650000D03*
%TO.P,J2,22*%
%TO.N,/D27*%
X91440000Y-123190000D03*
%TO.P,J2,21*%
X91440000Y-120650000D03*
%TO.P,J2,20*%
%TO.N,/D26*%
X88900000Y-123190000D03*
%TO.P,J2,19*%
X88900000Y-120650000D03*
%TO.P,J2,18*%
%TO.N,/D25*%
X86360000Y-123190000D03*
%TO.P,J2,17*%
X86360000Y-120650000D03*
%TO.P,J2,16*%
%TO.N,/D33*%
X83820000Y-123190000D03*
%TO.P,J2,15*%
X83820000Y-120650000D03*
%TO.P,J2,14*%
%TO.N,/D32*%
X81280000Y-123190000D03*
%TO.P,J2,13*%
X81280000Y-120650000D03*
%TO.P,J2,12*%
%TO.N,/D35*%
X78740000Y-123190000D03*
%TO.P,J2,11*%
X78740000Y-120650000D03*
%TO.P,J2,10*%
%TO.N,/D34*%
X76200000Y-123190000D03*
%TO.P,J2,9*%
X76200000Y-120650000D03*
%TO.P,J2,8*%
%TO.N,/SVN*%
X73660000Y-123190000D03*
%TO.P,J2,7*%
X73660000Y-120650000D03*
%TO.P,J2,6*%
%TO.N,/SVP*%
X71120000Y-123190000D03*
%TO.P,J2,5*%
X71120000Y-120650000D03*
%TO.P,J2,4*%
%TO.N,/EN*%
X68580000Y-123190000D03*
%TO.P,J2,3*%
X68580000Y-120650000D03*
%TO.P,J2,2*%
%TO.N,+3V3*%
X66040000Y-123190000D03*
D13*
%TO.P,J2,1*%
X66040000Y-120650000D03*
%TD*%
D25*
%TO.P,IC1,8*%
%TO.N,+3V3*%
X147480000Y-104140000D03*
%TO.P,IC1,7*%
%TO.N,N/C*%
X147480000Y-106680000D03*
%TO.P,IC1,6*%
X147480000Y-109220000D03*
%TO.P,IC1,5*%
X147480000Y-111760000D03*
%TO.P,IC1,4*%
%TO.N,GND*%
X139540000Y-111760000D03*
%TO.P,IC1,3*%
%TO.N,Net-(IC1-Pad3)*%
X139540000Y-109220000D03*
%TO.P,IC1,2*%
%TO.N,/D4*%
X139540000Y-106680000D03*
D26*
%TO.P,IC1,1*%
X139540000Y-104140000D03*
%TD*%
D27*
%TO.P,IC2,8*%
%TO.N,Net-(D1-Pad1)*%
X56051000Y-89535000D03*
%TO.P,IC2,7*%
%TO.N,+VDC*%
X56051000Y-90805000D03*
%TO.P,IC2,6*%
%TO.N,GND*%
X56051000Y-92075000D03*
%TO.P,IC2,5*%
%TO.N,Net-(C2-Pad1)*%
X56051000Y-93345000D03*
%TO.P,IC2,4*%
%TO.N,+5V*%
X50629000Y-93345000D03*
%TO.P,IC2,3*%
X50629000Y-92075000D03*
%TO.P,IC2,2*%
%TO.N,Net-(C1-Pad1)*%
X50629000Y-90805000D03*
%TO.P,IC2,1*%
%TO.N,Net-(IC2-Pad1)*%
X50629000Y-89535000D03*
%TD*%
D28*
%TO.P,D1,2*%
%TO.N,GND*%
X52070000Y-80010000D03*
D29*
%TO.P,D1,1*%
%TO.N,Net-(D1-Pad1)*%
X62230000Y-80010000D03*
%TD*%
D30*
%TO.P,D9,2*%
%TO.N,GND*%
X144145000Y-68580000D03*
D17*
%TO.P,D9,1*%
%TO.N,/Zone3IO/ZoneOutput*%
X144145000Y-83820000D03*
%TD*%
D30*
%TO.P,D7,2*%
%TO.N,GND*%
X174625000Y-68580000D03*
D17*
%TO.P,D7,1*%
%TO.N,/Zone4IO/ZoneOutput*%
X174625000Y-83820000D03*
%TD*%
D30*
%TO.P,D5,2*%
%TO.N,GND*%
X113665000Y-68580000D03*
D17*
%TO.P,D5,1*%
%TO.N,/Zone2IO/ZoneOutput*%
X113665000Y-83820000D03*
%TD*%
D30*
%TO.P,D3,2*%
%TO.N,GND*%
X83185000Y-68580000D03*
D17*
%TO.P,D3,1*%
%TO.N,/Zone1IO/ZoneOutput*%
X83185000Y-83820000D03*
%TD*%
D15*
%TO.P,C4,2*%
%TO.N,GND*%
X47950000Y-101600000D03*
D31*
%TO.P,C4,1*%
%TO.N,+5V*%
X44450000Y-101600000D03*
%TD*%
D15*
%TO.P,C3,2*%
%TO.N,GND*%
X47950000Y-81280000D03*
D31*
%TO.P,C3,1*%
%TO.N,+VDC*%
X44450000Y-81280000D03*
%TD*%
D15*
%TO.P,C2,2*%
%TO.N,GND*%
X58500000Y-92710000D03*
%TO.P,C2,1*%
%TO.N,Net-(C2-Pad1)*%
X63500000Y-92710000D03*
%TD*%
%TO.P,C1,2*%
%TO.N,GND*%
X48180000Y-91440000D03*
%TO.P,C1,1*%
%TO.N,Net-(C1-Pad1)*%
X43180000Y-91440000D03*
%TD*%
D32*
%TO.N,GND*%
X178694800Y-81533500D03*
X105611900Y-98815200D03*
%TO.N,/D12*%
X114087400Y-109174400D03*
%TO.N,/D27*%
X77506800Y-115576300D03*
%TO.N,/D34*%
X100796500Y-100205700D03*
%TO.N,/RX*%
X146898100Y-116686200D03*
%TO.N,/TX*%
X144618200Y-117131900D03*
%TO.N,/D18*%
X144149500Y-114297400D03*
%TO.N,/D19*%
X147867800Y-115280800D03*
%TO.N,/D0*%
X107348100Y-99852900D03*
%TO.N,/D16*%
X143263800Y-113182100D03*
%TO.N,/D17*%
X116787600Y-110829800D03*
%TO.N,/D5*%
X125934900Y-111555100D03*
%TD*%
D33*
%TO.N,GND*%
X58500000Y-92710000D02*
X57865000Y-92075000D01*
X57865000Y-92075000D02*
X56051000Y-92075000D01*
D34*
%TO.N,Net-(C1-Pad1)*%
X50629000Y-90805000D02*
X49306900Y-90805000D01*
X49306900Y-90805000D02*
X48751400Y-90249500D01*
X48751400Y-90249500D02*
X44370500Y-90249500D01*
X44370500Y-90249500D02*
X43180000Y-91440000D01*
%TO.N,Net-(C2-Pad1)*%
X56051000Y-93345000D02*
X56606500Y-93900500D01*
X56606500Y-93900500D02*
X62309500Y-93900500D01*
X62309500Y-93900500D02*
X63500000Y-92710000D01*
D35*
%TO.N,+VDC*%
X54610000Y-69850000D02*
X54610000Y-71197800D01*
X54610000Y-71197800D02*
X44527800Y-81280000D01*
X44527800Y-81280000D02*
X44450000Y-81280000D01*
X68580000Y-86360000D02*
X64135000Y-90805000D01*
X74930000Y-86360000D02*
X68580000Y-86360000D01*
X56051000Y-90805000D02*
X64135000Y-90805000D01*
D36*
X165100000Y-82550000D02*
X165100000Y-83820000D01*
D33*
X172904999Y-100185001D02*
X173990000Y-99100000D01*
X162415001Y-100185001D02*
X172904999Y-100185001D01*
X161290000Y-99060000D02*
X162415001Y-100185001D01*
%TO.N,+5V*%
X111760000Y-120650000D02*
X111760000Y-123190000D01*
D35*
X44450000Y-101600000D02*
X44450000Y-99524000D01*
X44450000Y-99524000D02*
X50629000Y-93345000D01*
D34*
X50629000Y-92075000D02*
X51774000Y-92075000D01*
X51774000Y-92075000D02*
X52070000Y-91779000D01*
X52070000Y-91779000D02*
X52070000Y-86360000D01*
X50629000Y-92075000D02*
X50629000Y-93345000D01*
D36*
%TO.N,/Zone1IO/ZoneOutput*%
X71120000Y-82550000D02*
X71120000Y-69850000D01*
%TO.N,/Zone2IO/ZoneOutput*%
X101600000Y-82550000D02*
X101600000Y-69850000D01*
%TO.N,/Zone4IO/ZoneOutput*%
X162560000Y-82550000D02*
X162560000Y-69850000D01*
%TO.N,/Zone3IO/ZoneOutput*%
X132080000Y-82550000D02*
X132080000Y-69850000D01*
D33*
%TO.N,+3V3*%
X66040000Y-120650000D02*
X66040000Y-123190000D01*
%TO.N,/SD3*%
X106680000Y-120650000D02*
X106680000Y-123190000D01*
%TO.N,/SD2*%
X104140000Y-120650000D02*
X104140000Y-123190000D01*
%TO.N,/D13*%
X101600000Y-120650000D02*
X101600000Y-123190000D01*
%TO.N,/D12*%
X125730000Y-99060000D02*
X124201800Y-99060000D01*
X124201800Y-99060000D02*
X114087400Y-109174400D01*
X96520000Y-120650000D02*
X96520000Y-123190000D01*
%TO.N,/D14*%
X93980000Y-120650000D02*
X93980000Y-123190000D01*
%TO.N,/D27*%
X91440000Y-120650000D02*
X91440000Y-123190000D01*
%TO.N,/D26*%
X88900000Y-120650000D02*
X88900000Y-123190000D01*
%TO.N,/D25*%
X86360000Y-120650000D02*
X86360000Y-123190000D01*
%TO.N,/D33*%
X83820000Y-120650000D02*
X83820000Y-123190000D01*
%TO.N,/D32*%
X81280000Y-120650000D02*
X81280000Y-123190000D01*
%TO.N,/D35*%
X78740000Y-120650000D02*
X78740000Y-123190000D01*
%TO.N,/SVN*%
X73660000Y-120650000D02*
X73660000Y-123190000D01*
%TO.N,/SVP*%
X71120000Y-120650000D02*
X71120000Y-123190000D01*
%TO.N,/EN*%
X68580000Y-120650000D02*
X68580000Y-123190000D01*
D35*
%TO.N,Net-(D1-Pad1)*%
X56051000Y-89535000D02*
X56515000Y-89535000D01*
X56515000Y-89535000D02*
X59690000Y-86360000D01*
X59690000Y-86360000D02*
X62230000Y-86360000D01*
%TO.N,Net-(IC2-Pad1)*%
X50629000Y-89535000D02*
X50165000Y-89535000D01*
X50165000Y-89535000D02*
X49530000Y-88900000D01*
X49530000Y-88900000D02*
X49530000Y-86360000D01*
X49530000Y-86360000D02*
X59690000Y-76200000D01*
X59690000Y-76200000D02*
X59690000Y-69850000D01*
D34*
%TO.N,Net-(Q4-Pad1)*%
X68580000Y-82550000D02*
X68040000Y-82550000D01*
X68040000Y-82550000D02*
X64230000Y-86360000D01*
%TO.N,Net-(Q7-Pad1)*%
X99060000Y-83280000D02*
X99060000Y-82550000D01*
%TO.N,Net-(Q13-Pad1)*%
X129000000Y-82550000D02*
X129540000Y-82550000D01*
D33*
%TO.N,/D2*%
X124460000Y-120650000D02*
X130810000Y-120650000D01*
X101600000Y-97790000D02*
X124460000Y-120650000D01*
%TD*%
D37*
%TO.N,+VDC*%
X88758665Y-80175000D02*
X89041335Y-80175000D01*
X89232371Y-80137000D01*
X91107629Y-80137000D01*
X91298665Y-80175000D01*
X91581335Y-80175000D01*
X91772371Y-80137000D01*
X100203000Y-80137000D01*
X100203000Y-80981939D01*
X100144482Y-80964188D01*
X100020000Y-80951928D01*
X98100000Y-80951928D01*
X97975518Y-80964188D01*
X97855820Y-81000498D01*
X97745506Y-81059463D01*
X97648815Y-81138815D01*
X97569463Y-81235506D01*
X97510498Y-81345820D01*
X97474188Y-81465518D01*
X97461928Y-81590000D01*
X97461928Y-83510000D01*
X97474188Y-83634482D01*
X97510498Y-83754180D01*
X97569463Y-83864494D01*
X97648815Y-83961185D01*
X97745506Y-84040537D01*
X97855820Y-84099502D01*
X97975518Y-84135812D01*
X98100000Y-84148072D01*
X100020000Y-84148072D01*
X100144482Y-84135812D01*
X100264180Y-84099502D01*
X100374494Y-84040537D01*
X100471185Y-83961185D01*
X100550537Y-83864494D01*
X100588911Y-83792703D01*
X100844484Y-83963471D01*
X101134756Y-84083706D01*
X101442906Y-84145000D01*
X101757094Y-84145000D01*
X102065244Y-84083706D01*
X102355516Y-83963471D01*
X102616754Y-83788918D01*
X102838918Y-83566754D01*
X103013471Y-83305516D01*
X103133706Y-83015244D01*
X103195000Y-82707094D01*
X103195000Y-82520000D01*
X111726928Y-82520000D01*
X111726928Y-85120000D01*
X111739188Y-85244482D01*
X111775498Y-85364180D01*
X111834463Y-85474494D01*
X111913815Y-85571185D01*
X112010506Y-85650537D01*
X112120820Y-85709502D01*
X112240518Y-85745812D01*
X112365000Y-85758072D01*
X114965000Y-85758072D01*
X115089482Y-85745812D01*
X115209180Y-85709502D01*
X115319494Y-85650537D01*
X115416185Y-85571185D01*
X115495537Y-85474494D01*
X115554502Y-85364180D01*
X115590812Y-85244482D01*
X115603072Y-85120000D01*
X115603072Y-83678665D01*
X120485000Y-83678665D01*
X120485000Y-83961335D01*
X120540147Y-84238574D01*
X120648320Y-84499727D01*
X120805363Y-84734759D01*
X121005241Y-84934637D01*
X121240273Y-85091680D01*
X121501426Y-85199853D01*
X121778665Y-85255000D01*
X122061335Y-85255000D01*
X122338574Y-85199853D01*
X122599727Y-85091680D01*
X122834759Y-84934637D01*
X123034637Y-84734759D01*
X123191680Y-84499727D01*
X123299853Y-84238574D01*
X123355000Y-83961335D01*
X123355000Y-83678665D01*
X123299853Y-83401426D01*
X123191680Y-83140273D01*
X123034637Y-82905241D01*
X122834759Y-82705363D01*
X122599727Y-82548320D01*
X122338574Y-82440147D01*
X122061335Y-82385000D01*
X121778665Y-82385000D01*
X121501426Y-82440147D01*
X121240273Y-82548320D01*
X121005241Y-82705363D01*
X120805363Y-82905241D01*
X120648320Y-83140273D01*
X120540147Y-83401426D01*
X120485000Y-83678665D01*
X115603072Y-83678665D01*
X115603072Y-82520000D01*
X115590812Y-82395518D01*
X115554502Y-82275820D01*
X115495537Y-82165506D01*
X115416185Y-82068815D01*
X115319494Y-81989463D01*
X115209180Y-81930498D01*
X115089482Y-81894188D01*
X114965000Y-81881928D01*
X112365000Y-81881928D01*
X112240518Y-81894188D01*
X112120820Y-81930498D01*
X112010506Y-81989463D01*
X111913815Y-82068815D01*
X111834463Y-82165506D01*
X111775498Y-82275820D01*
X111739188Y-82395518D01*
X111726928Y-82520000D01*
X103195000Y-82520000D01*
X103195000Y-82392906D01*
X103133706Y-82084756D01*
X103013471Y-81794484D01*
X102997000Y-81769833D01*
X102997000Y-80137000D01*
X119047629Y-80137000D01*
X119238665Y-80175000D01*
X119521335Y-80175000D01*
X119712371Y-80137000D01*
X121587629Y-80137000D01*
X121778665Y-80175000D01*
X122061335Y-80175000D01*
X122252371Y-80137000D01*
X130683000Y-80137000D01*
X130683000Y-80981939D01*
X130624482Y-80964188D01*
X130500000Y-80951928D01*
X128580000Y-80951928D01*
X128455518Y-80964188D01*
X128335820Y-81000498D01*
X128225506Y-81059463D01*
X128128815Y-81138815D01*
X128049463Y-81235506D01*
X127990498Y-81345820D01*
X127954188Y-81465518D01*
X127941928Y-81590000D01*
X127941928Y-83510000D01*
X127954188Y-83634482D01*
X127990498Y-83754180D01*
X128049463Y-83864494D01*
X128128815Y-83961185D01*
X128225506Y-84040537D01*
X128335820Y-84099502D01*
X128455518Y-84135812D01*
X128580000Y-84148072D01*
X130500000Y-84148072D01*
X130624482Y-84135812D01*
X130744180Y-84099502D01*
X130854494Y-84040537D01*
X130951185Y-83961185D01*
X131030537Y-83864494D01*
X131068911Y-83792703D01*
X131324484Y-83963471D01*
X131614756Y-84083706D01*
X131922906Y-84145000D01*
X132237094Y-84145000D01*
X132545244Y-84083706D01*
X132835516Y-83963471D01*
X133096754Y-83788918D01*
X133318918Y-83566754D01*
X133493471Y-83305516D01*
X133613706Y-83015244D01*
X133675000Y-82707094D01*
X133675000Y-82520000D01*
X142206928Y-82520000D01*
X142206928Y-85120000D01*
X142219188Y-85244482D01*
X142255498Y-85364180D01*
X142314463Y-85474494D01*
X142393815Y-85571185D01*
X142490506Y-85650537D01*
X142600820Y-85709502D01*
X142720518Y-85745812D01*
X142845000Y-85758072D01*
X145445000Y-85758072D01*
X145569482Y-85745812D01*
X145689180Y-85709502D01*
X145799494Y-85650537D01*
X145896185Y-85571185D01*
X145975537Y-85474494D01*
X146034502Y-85364180D01*
X146070812Y-85244482D01*
X146083072Y-85120000D01*
X146083072Y-83678665D01*
X150965000Y-83678665D01*
X150965000Y-83961335D01*
X151020147Y-84238574D01*
X151128320Y-84499727D01*
X151285363Y-84734759D01*
X151485241Y-84934637D01*
X151720273Y-85091680D01*
X151981426Y-85199853D01*
X152258665Y-85255000D01*
X152541335Y-85255000D01*
X152818574Y-85199853D01*
X153079727Y-85091680D01*
X153314759Y-84934637D01*
X153514637Y-84734759D01*
X153671680Y-84499727D01*
X153779853Y-84238574D01*
X153835000Y-83961335D01*
X153835000Y-83678665D01*
X153779853Y-83401426D01*
X153671680Y-83140273D01*
X153514637Y-82905241D01*
X153314759Y-82705363D01*
X153079727Y-82548320D01*
X152818574Y-82440147D01*
X152541335Y-82385000D01*
X152258665Y-82385000D01*
X151981426Y-82440147D01*
X151720273Y-82548320D01*
X151485241Y-82705363D01*
X151285363Y-82905241D01*
X151128320Y-83140273D01*
X151020147Y-83401426D01*
X150965000Y-83678665D01*
X146083072Y-83678665D01*
X146083072Y-82520000D01*
X146070812Y-82395518D01*
X146034502Y-82275820D01*
X145975537Y-82165506D01*
X145896185Y-82068815D01*
X145799494Y-81989463D01*
X145689180Y-81930498D01*
X145569482Y-81894188D01*
X145445000Y-81881928D01*
X142845000Y-81881928D01*
X142720518Y-81894188D01*
X142600820Y-81930498D01*
X142490506Y-81989463D01*
X142393815Y-82068815D01*
X142314463Y-82165506D01*
X142255498Y-82275820D01*
X142219188Y-82395518D01*
X142206928Y-82520000D01*
X133675000Y-82520000D01*
X133675000Y-82392906D01*
X133613706Y-82084756D01*
X133493471Y-81794484D01*
X133477000Y-81769833D01*
X133477000Y-80137000D01*
X149527629Y-80137000D01*
X149718665Y-80175000D01*
X150001335Y-80175000D01*
X150192371Y-80137000D01*
X152067629Y-80137000D01*
X152258665Y-80175000D01*
X152541335Y-80175000D01*
X152732371Y-80137000D01*
X161163000Y-80137000D01*
X161163000Y-80981939D01*
X161104482Y-80964188D01*
X160980000Y-80951928D01*
X159060000Y-80951928D01*
X158935518Y-80964188D01*
X158815820Y-81000498D01*
X158705506Y-81059463D01*
X158608815Y-81138815D01*
X158529463Y-81235506D01*
X158470498Y-81345820D01*
X158434188Y-81465518D01*
X158421928Y-81590000D01*
X158421928Y-83510000D01*
X158434188Y-83634482D01*
X158470498Y-83754180D01*
X158529463Y-83864494D01*
X158608815Y-83961185D01*
X158705506Y-84040537D01*
X158815820Y-84099502D01*
X158935518Y-84135812D01*
X159060000Y-84148072D01*
X160980000Y-84148072D01*
X161104482Y-84135812D01*
X161224180Y-84099502D01*
X161334494Y-84040537D01*
X161431185Y-83961185D01*
X161510537Y-83864494D01*
X161548911Y-83792703D01*
X161804484Y-83963471D01*
X162094756Y-84083706D01*
X162402906Y-84145000D01*
X162717094Y-84145000D01*
X163025244Y-84083706D01*
X163315516Y-83963471D01*
X163576754Y-83788918D01*
X163798918Y-83566754D01*
X163973471Y-83305516D01*
X164093706Y-83015244D01*
X164155000Y-82707094D01*
X164155000Y-82392906D01*
X164093706Y-82084756D01*
X163973471Y-81794484D01*
X163957000Y-81769833D01*
X163957000Y-80137000D01*
X172593000Y-80137000D01*
X172593000Y-91107629D01*
X172555000Y-91298665D01*
X172555000Y-91581335D01*
X172593000Y-91772371D01*
X172593000Y-96520000D01*
X172595440Y-96544776D01*
X172602667Y-96568601D01*
X172614403Y-96590557D01*
X172630197Y-96609803D01*
X172649443Y-96625597D01*
X172671399Y-96637333D01*
X172695224Y-96644560D01*
X172720000Y-96647000D01*
X178943000Y-96647000D01*
X178943000Y-99212675D01*
X178763844Y-99480801D01*
X178625518Y-99814750D01*
X178555000Y-100169268D01*
X178555000Y-100530732D01*
X178625518Y-100885250D01*
X178763844Y-101219199D01*
X178943000Y-101487325D01*
X178943000Y-104013000D01*
X167805000Y-104013000D01*
X167805000Y-103998665D01*
X167767000Y-103807629D01*
X167767000Y-99392371D01*
X167805000Y-99201335D01*
X167805000Y-98918665D01*
X167767000Y-98727629D01*
X167767000Y-87630000D01*
X167764560Y-87605224D01*
X167757333Y-87581399D01*
X167745597Y-87559443D01*
X167729803Y-87540197D01*
X167710557Y-87524403D01*
X167688601Y-87512667D01*
X167664776Y-87505440D01*
X167640000Y-87503000D01*
X157342437Y-87503000D01*
X157513150Y-87432288D01*
X157711330Y-87299869D01*
X157879869Y-87131330D01*
X158012288Y-86933150D01*
X158103501Y-86712944D01*
X158150000Y-86479175D01*
X158150000Y-86240825D01*
X158103501Y-86007056D01*
X158012288Y-85786850D01*
X157879869Y-85588670D01*
X157711330Y-85420131D01*
X157513150Y-85287712D01*
X157292944Y-85196499D01*
X157059175Y-85150000D01*
X156820825Y-85150000D01*
X156587056Y-85196499D01*
X156366850Y-85287712D01*
X156168670Y-85420131D01*
X156000131Y-85588670D01*
X155867712Y-85786850D01*
X155776499Y-86007056D01*
X155730000Y-86240825D01*
X155730000Y-86479175D01*
X155776499Y-86712944D01*
X155867712Y-86933150D01*
X156000131Y-87131330D01*
X156168670Y-87299869D01*
X156366850Y-87432288D01*
X156537563Y-87503000D01*
X152732371Y-87503000D01*
X152541335Y-87465000D01*
X152258665Y-87465000D01*
X152067629Y-87503000D01*
X150192371Y-87503000D01*
X150001335Y-87465000D01*
X149718665Y-87465000D01*
X149527629Y-87503000D01*
X143842371Y-87503000D01*
X143651335Y-87465000D01*
X143368665Y-87465000D01*
X143177629Y-87503000D01*
X125592437Y-87503000D01*
X125763150Y-87432288D01*
X125961330Y-87299869D01*
X126129869Y-87131330D01*
X126262288Y-86933150D01*
X126353501Y-86712944D01*
X126400000Y-86479175D01*
X126400000Y-86240825D01*
X126353501Y-86007056D01*
X126262288Y-85786850D01*
X126129869Y-85588670D01*
X125961330Y-85420131D01*
X125763150Y-85287712D01*
X125542944Y-85196499D01*
X125309175Y-85150000D01*
X125070825Y-85150000D01*
X124837056Y-85196499D01*
X124616850Y-85287712D01*
X124418670Y-85420131D01*
X124250131Y-85588670D01*
X124117712Y-85786850D01*
X124026499Y-86007056D01*
X123980000Y-86240825D01*
X123980000Y-86479175D01*
X124026499Y-86712944D01*
X124117712Y-86933150D01*
X124250131Y-87131330D01*
X124418670Y-87299869D01*
X124616850Y-87432288D01*
X124787563Y-87503000D01*
X122252371Y-87503000D01*
X122061335Y-87465000D01*
X121778665Y-87465000D01*
X121587629Y-87503000D01*
X119712371Y-87503000D01*
X119521335Y-87465000D01*
X119238665Y-87465000D01*
X119047629Y-87503000D01*
X96382437Y-87503000D01*
X96553150Y-87432288D01*
X96751330Y-87299869D01*
X96919869Y-87131330D01*
X97052288Y-86933150D01*
X97143501Y-86712944D01*
X97190000Y-86479175D01*
X97190000Y-86240825D01*
X97143501Y-86007056D01*
X97052288Y-85786850D01*
X96919869Y-85588670D01*
X96751330Y-85420131D01*
X96553150Y-85287712D01*
X96332944Y-85196499D01*
X96099175Y-85150000D01*
X95860825Y-85150000D01*
X95627056Y-85196499D01*
X95406850Y-85287712D01*
X95208670Y-85420131D01*
X95040131Y-85588670D01*
X94907712Y-85786850D01*
X94816499Y-86007056D01*
X94770000Y-86240825D01*
X94770000Y-86479175D01*
X94816499Y-86712944D01*
X94907712Y-86933150D01*
X95040131Y-87131330D01*
X95208670Y-87299869D01*
X95406850Y-87432288D01*
X95577563Y-87503000D01*
X91772371Y-87503000D01*
X91581335Y-87465000D01*
X91298665Y-87465000D01*
X91107629Y-87503000D01*
X89232371Y-87503000D01*
X89041335Y-87465000D01*
X88758665Y-87465000D01*
X88567629Y-87503000D01*
X72517000Y-87503000D01*
X72517000Y-83330167D01*
X72533471Y-83305516D01*
X72653706Y-83015244D01*
X72715000Y-82707094D01*
X72715000Y-82520000D01*
X81246928Y-82520000D01*
X81246928Y-85120000D01*
X81259188Y-85244482D01*
X81295498Y-85364180D01*
X81354463Y-85474494D01*
X81433815Y-85571185D01*
X81530506Y-85650537D01*
X81640820Y-85709502D01*
X81760518Y-85745812D01*
X81885000Y-85758072D01*
X84485000Y-85758072D01*
X84609482Y-85745812D01*
X84729180Y-85709502D01*
X84839494Y-85650537D01*
X84936185Y-85571185D01*
X85015537Y-85474494D01*
X85074502Y-85364180D01*
X85110812Y-85244482D01*
X85123072Y-85120000D01*
X85123072Y-83678665D01*
X90005000Y-83678665D01*
X90005000Y-83961335D01*
X90060147Y-84238574D01*
X90168320Y-84499727D01*
X90325363Y-84734759D01*
X90525241Y-84934637D01*
X90760273Y-85091680D01*
X91021426Y-85199853D01*
X91298665Y-85255000D01*
X91581335Y-85255000D01*
X91858574Y-85199853D01*
X92119727Y-85091680D01*
X92354759Y-84934637D01*
X92554637Y-84734759D01*
X92711680Y-84499727D01*
X92819853Y-84238574D01*
X92875000Y-83961335D01*
X92875000Y-83678665D01*
X92819853Y-83401426D01*
X92711680Y-83140273D01*
X92554637Y-82905241D01*
X92354759Y-82705363D01*
X92119727Y-82548320D01*
X91858574Y-82440147D01*
X91581335Y-82385000D01*
X91298665Y-82385000D01*
X91021426Y-82440147D01*
X90760273Y-82548320D01*
X90525241Y-82705363D01*
X90325363Y-82905241D01*
X90168320Y-83140273D01*
X90060147Y-83401426D01*
X90005000Y-83678665D01*
X85123072Y-83678665D01*
X85123072Y-82520000D01*
X85110812Y-82395518D01*
X85074502Y-82275820D01*
X85015537Y-82165506D01*
X84936185Y-82068815D01*
X84839494Y-81989463D01*
X84729180Y-81930498D01*
X84609482Y-81894188D01*
X84485000Y-81881928D01*
X81885000Y-81881928D01*
X81760518Y-81894188D01*
X81640820Y-81930498D01*
X81530506Y-81989463D01*
X81433815Y-82068815D01*
X81354463Y-82165506D01*
X81295498Y-82275820D01*
X81259188Y-82395518D01*
X81246928Y-82520000D01*
X72715000Y-82520000D01*
X72715000Y-82392906D01*
X72653706Y-82084756D01*
X72533471Y-81794484D01*
X72517000Y-81769833D01*
X72517000Y-80137000D01*
X88567629Y-80137000D01*
X88758665Y-80175000D01*
%TA.AperFunction,Conductor*%
D38*
G36*
X88758665Y-80175000D02*
G01*
X89041335Y-80175000D01*
X89232371Y-80137000D01*
X91107629Y-80137000D01*
X91298665Y-80175000D01*
X91581335Y-80175000D01*
X91772371Y-80137000D01*
X100203000Y-80137000D01*
X100203000Y-80981939D01*
X100144482Y-80964188D01*
X100020000Y-80951928D01*
X98100000Y-80951928D01*
X97975518Y-80964188D01*
X97855820Y-81000498D01*
X97745506Y-81059463D01*
X97648815Y-81138815D01*
X97569463Y-81235506D01*
X97510498Y-81345820D01*
X97474188Y-81465518D01*
X97461928Y-81590000D01*
X97461928Y-83510000D01*
X97474188Y-83634482D01*
X97510498Y-83754180D01*
X97569463Y-83864494D01*
X97648815Y-83961185D01*
X97745506Y-84040537D01*
X97855820Y-84099502D01*
X97975518Y-84135812D01*
X98100000Y-84148072D01*
X100020000Y-84148072D01*
X100144482Y-84135812D01*
X100264180Y-84099502D01*
X100374494Y-84040537D01*
X100471185Y-83961185D01*
X100550537Y-83864494D01*
X100588911Y-83792703D01*
X100844484Y-83963471D01*
X101134756Y-84083706D01*
X101442906Y-84145000D01*
X101757094Y-84145000D01*
X102065244Y-84083706D01*
X102355516Y-83963471D01*
X102616754Y-83788918D01*
X102838918Y-83566754D01*
X103013471Y-83305516D01*
X103133706Y-83015244D01*
X103195000Y-82707094D01*
X103195000Y-82520000D01*
X111726928Y-82520000D01*
X111726928Y-85120000D01*
X111739188Y-85244482D01*
X111775498Y-85364180D01*
X111834463Y-85474494D01*
X111913815Y-85571185D01*
X112010506Y-85650537D01*
X112120820Y-85709502D01*
X112240518Y-85745812D01*
X112365000Y-85758072D01*
X114965000Y-85758072D01*
X115089482Y-85745812D01*
X115209180Y-85709502D01*
X115319494Y-85650537D01*
X115416185Y-85571185D01*
X115495537Y-85474494D01*
X115554502Y-85364180D01*
X115590812Y-85244482D01*
X115603072Y-85120000D01*
X115603072Y-83678665D01*
X120485000Y-83678665D01*
X120485000Y-83961335D01*
X120540147Y-84238574D01*
X120648320Y-84499727D01*
X120805363Y-84734759D01*
X121005241Y-84934637D01*
X121240273Y-85091680D01*
X121501426Y-85199853D01*
X121778665Y-85255000D01*
X122061335Y-85255000D01*
X122338574Y-85199853D01*
X122599727Y-85091680D01*
X122834759Y-84934637D01*
X123034637Y-84734759D01*
X123191680Y-84499727D01*
X123299853Y-84238574D01*
X123355000Y-83961335D01*
X123355000Y-83678665D01*
X123299853Y-83401426D01*
X123191680Y-83140273D01*
X123034637Y-82905241D01*
X122834759Y-82705363D01*
X122599727Y-82548320D01*
X122338574Y-82440147D01*
X122061335Y-82385000D01*
X121778665Y-82385000D01*
X121501426Y-82440147D01*
X121240273Y-82548320D01*
X121005241Y-82705363D01*
X120805363Y-82905241D01*
X120648320Y-83140273D01*
X120540147Y-83401426D01*
X120485000Y-83678665D01*
X115603072Y-83678665D01*
X115603072Y-82520000D01*
X115590812Y-82395518D01*
X115554502Y-82275820D01*
X115495537Y-82165506D01*
X115416185Y-82068815D01*
X115319494Y-81989463D01*
X115209180Y-81930498D01*
X115089482Y-81894188D01*
X114965000Y-81881928D01*
X112365000Y-81881928D01*
X112240518Y-81894188D01*
X112120820Y-81930498D01*
X112010506Y-81989463D01*
X111913815Y-82068815D01*
X111834463Y-82165506D01*
X111775498Y-82275820D01*
X111739188Y-82395518D01*
X111726928Y-82520000D01*
X103195000Y-82520000D01*
X103195000Y-82392906D01*
X103133706Y-82084756D01*
X103013471Y-81794484D01*
X102997000Y-81769833D01*
X102997000Y-80137000D01*
X119047629Y-80137000D01*
X119238665Y-80175000D01*
X119521335Y-80175000D01*
X119712371Y-80137000D01*
X121587629Y-80137000D01*
X121778665Y-80175000D01*
X122061335Y-80175000D01*
X122252371Y-80137000D01*
X130683000Y-80137000D01*
X130683000Y-80981939D01*
X130624482Y-80964188D01*
X130500000Y-80951928D01*
X128580000Y-80951928D01*
X128455518Y-80964188D01*
X128335820Y-81000498D01*
X128225506Y-81059463D01*
X128128815Y-81138815D01*
X128049463Y-81235506D01*
X127990498Y-81345820D01*
X127954188Y-81465518D01*
X127941928Y-81590000D01*
X127941928Y-83510000D01*
X127954188Y-83634482D01*
X127990498Y-83754180D01*
X128049463Y-83864494D01*
X128128815Y-83961185D01*
X128225506Y-84040537D01*
X128335820Y-84099502D01*
X128455518Y-84135812D01*
X128580000Y-84148072D01*
X130500000Y-84148072D01*
X130624482Y-84135812D01*
X130744180Y-84099502D01*
X130854494Y-84040537D01*
X130951185Y-83961185D01*
X131030537Y-83864494D01*
X131068911Y-83792703D01*
X131324484Y-83963471D01*
X131614756Y-84083706D01*
X131922906Y-84145000D01*
X132237094Y-84145000D01*
X132545244Y-84083706D01*
X132835516Y-83963471D01*
X133096754Y-83788918D01*
X133318918Y-83566754D01*
X133493471Y-83305516D01*
X133613706Y-83015244D01*
X133675000Y-82707094D01*
X133675000Y-82520000D01*
X142206928Y-82520000D01*
X142206928Y-85120000D01*
X142219188Y-85244482D01*
X142255498Y-85364180D01*
X142314463Y-85474494D01*
X142393815Y-85571185D01*
X142490506Y-85650537D01*
X142600820Y-85709502D01*
X142720518Y-85745812D01*
X142845000Y-85758072D01*
X145445000Y-85758072D01*
X145569482Y-85745812D01*
X145689180Y-85709502D01*
X145799494Y-85650537D01*
X145896185Y-85571185D01*
X145975537Y-85474494D01*
X146034502Y-85364180D01*
X146070812Y-85244482D01*
X146083072Y-85120000D01*
X146083072Y-83678665D01*
X150965000Y-83678665D01*
X150965000Y-83961335D01*
X151020147Y-84238574D01*
X151128320Y-84499727D01*
X151285363Y-84734759D01*
X151485241Y-84934637D01*
X151720273Y-85091680D01*
X151981426Y-85199853D01*
X152258665Y-85255000D01*
X152541335Y-85255000D01*
X152818574Y-85199853D01*
X153079727Y-85091680D01*
X153314759Y-84934637D01*
X153514637Y-84734759D01*
X153671680Y-84499727D01*
X153779853Y-84238574D01*
X153835000Y-83961335D01*
X153835000Y-83678665D01*
X153779853Y-83401426D01*
X153671680Y-83140273D01*
X153514637Y-82905241D01*
X153314759Y-82705363D01*
X153079727Y-82548320D01*
X152818574Y-82440147D01*
X152541335Y-82385000D01*
X152258665Y-82385000D01*
X151981426Y-82440147D01*
X151720273Y-82548320D01*
X151485241Y-82705363D01*
X151285363Y-82905241D01*
X151128320Y-83140273D01*
X151020147Y-83401426D01*
X150965000Y-83678665D01*
X146083072Y-83678665D01*
X146083072Y-82520000D01*
X146070812Y-82395518D01*
X146034502Y-82275820D01*
X145975537Y-82165506D01*
X145896185Y-82068815D01*
X145799494Y-81989463D01*
X145689180Y-81930498D01*
X145569482Y-81894188D01*
X145445000Y-81881928D01*
X142845000Y-81881928D01*
X142720518Y-81894188D01*
X142600820Y-81930498D01*
X142490506Y-81989463D01*
X142393815Y-82068815D01*
X142314463Y-82165506D01*
X142255498Y-82275820D01*
X142219188Y-82395518D01*
X142206928Y-82520000D01*
X133675000Y-82520000D01*
X133675000Y-82392906D01*
X133613706Y-82084756D01*
X133493471Y-81794484D01*
X133477000Y-81769833D01*
X133477000Y-80137000D01*
X149527629Y-80137000D01*
X149718665Y-80175000D01*
X150001335Y-80175000D01*
X150192371Y-80137000D01*
X152067629Y-80137000D01*
X152258665Y-80175000D01*
X152541335Y-80175000D01*
X152732371Y-80137000D01*
X161163000Y-80137000D01*
X161163000Y-80981939D01*
X161104482Y-80964188D01*
X160980000Y-80951928D01*
X159060000Y-80951928D01*
X158935518Y-80964188D01*
X158815820Y-81000498D01*
X158705506Y-81059463D01*
X158608815Y-81138815D01*
X158529463Y-81235506D01*
X158470498Y-81345820D01*
X158434188Y-81465518D01*
X158421928Y-81590000D01*
X158421928Y-83510000D01*
X158434188Y-83634482D01*
X158470498Y-83754180D01*
X158529463Y-83864494D01*
X158608815Y-83961185D01*
X158705506Y-84040537D01*
X158815820Y-84099502D01*
X158935518Y-84135812D01*
X159060000Y-84148072D01*
X160980000Y-84148072D01*
X161104482Y-84135812D01*
X161224180Y-84099502D01*
X161334494Y-84040537D01*
X161431185Y-83961185D01*
X161510537Y-83864494D01*
X161548911Y-83792703D01*
X161804484Y-83963471D01*
X162094756Y-84083706D01*
X162402906Y-84145000D01*
X162717094Y-84145000D01*
X163025244Y-84083706D01*
X163315516Y-83963471D01*
X163576754Y-83788918D01*
X163798918Y-83566754D01*
X163973471Y-83305516D01*
X164093706Y-83015244D01*
X164155000Y-82707094D01*
X164155000Y-82392906D01*
X164093706Y-82084756D01*
X163973471Y-81794484D01*
X163957000Y-81769833D01*
X163957000Y-80137000D01*
X172593000Y-80137000D01*
X172593000Y-91107629D01*
X172555000Y-91298665D01*
X172555000Y-91581335D01*
X172593000Y-91772371D01*
X172593000Y-96520000D01*
X172595440Y-96544776D01*
X172602667Y-96568601D01*
X172614403Y-96590557D01*
X172630197Y-96609803D01*
X172649443Y-96625597D01*
X172671399Y-96637333D01*
X172695224Y-96644560D01*
X172720000Y-96647000D01*
X178943000Y-96647000D01*
X178943000Y-99212675D01*
X178763844Y-99480801D01*
X178625518Y-99814750D01*
X178555000Y-100169268D01*
X178555000Y-100530732D01*
X178625518Y-100885250D01*
X178763844Y-101219199D01*
X178943000Y-101487325D01*
X178943000Y-104013000D01*
X167805000Y-104013000D01*
X167805000Y-103998665D01*
X167767000Y-103807629D01*
X167767000Y-99392371D01*
X167805000Y-99201335D01*
X167805000Y-98918665D01*
X167767000Y-98727629D01*
X167767000Y-87630000D01*
X167764560Y-87605224D01*
X167757333Y-87581399D01*
X167745597Y-87559443D01*
X167729803Y-87540197D01*
X167710557Y-87524403D01*
X167688601Y-87512667D01*
X167664776Y-87505440D01*
X167640000Y-87503000D01*
X157342437Y-87503000D01*
X157513150Y-87432288D01*
X157711330Y-87299869D01*
X157879869Y-87131330D01*
X158012288Y-86933150D01*
X158103501Y-86712944D01*
X158150000Y-86479175D01*
X158150000Y-86240825D01*
X158103501Y-86007056D01*
X158012288Y-85786850D01*
X157879869Y-85588670D01*
X157711330Y-85420131D01*
X157513150Y-85287712D01*
X157292944Y-85196499D01*
X157059175Y-85150000D01*
X156820825Y-85150000D01*
X156587056Y-85196499D01*
X156366850Y-85287712D01*
X156168670Y-85420131D01*
X156000131Y-85588670D01*
X155867712Y-85786850D01*
X155776499Y-86007056D01*
X155730000Y-86240825D01*
X155730000Y-86479175D01*
X155776499Y-86712944D01*
X155867712Y-86933150D01*
X156000131Y-87131330D01*
X156168670Y-87299869D01*
X156366850Y-87432288D01*
X156537563Y-87503000D01*
X152732371Y-87503000D01*
X152541335Y-87465000D01*
X152258665Y-87465000D01*
X152067629Y-87503000D01*
X150192371Y-87503000D01*
X150001335Y-87465000D01*
X149718665Y-87465000D01*
X149527629Y-87503000D01*
X143842371Y-87503000D01*
X143651335Y-87465000D01*
X143368665Y-87465000D01*
X143177629Y-87503000D01*
X125592437Y-87503000D01*
X125763150Y-87432288D01*
X125961330Y-87299869D01*
X126129869Y-87131330D01*
X126262288Y-86933150D01*
X126353501Y-86712944D01*
X126400000Y-86479175D01*
X126400000Y-86240825D01*
X126353501Y-86007056D01*
X126262288Y-85786850D01*
X126129869Y-85588670D01*
X125961330Y-85420131D01*
X125763150Y-85287712D01*
X125542944Y-85196499D01*
X125309175Y-85150000D01*
X125070825Y-85150000D01*
X124837056Y-85196499D01*
X124616850Y-85287712D01*
X124418670Y-85420131D01*
X124250131Y-85588670D01*
X124117712Y-85786850D01*
X124026499Y-86007056D01*
X123980000Y-86240825D01*
X123980000Y-86479175D01*
X124026499Y-86712944D01*
X124117712Y-86933150D01*
X124250131Y-87131330D01*
X124418670Y-87299869D01*
X124616850Y-87432288D01*
X124787563Y-87503000D01*
X122252371Y-87503000D01*
X122061335Y-87465000D01*
X121778665Y-87465000D01*
X121587629Y-87503000D01*
X119712371Y-87503000D01*
X119521335Y-87465000D01*
X119238665Y-87465000D01*
X119047629Y-87503000D01*
X96382437Y-87503000D01*
X96553150Y-87432288D01*
X96751330Y-87299869D01*
X96919869Y-87131330D01*
X97052288Y-86933150D01*
X97143501Y-86712944D01*
X97190000Y-86479175D01*
X97190000Y-86240825D01*
X97143501Y-86007056D01*
X97052288Y-85786850D01*
X96919869Y-85588670D01*
X96751330Y-85420131D01*
X96553150Y-85287712D01*
X96332944Y-85196499D01*
X96099175Y-85150000D01*
X95860825Y-85150000D01*
X95627056Y-85196499D01*
X95406850Y-85287712D01*
X95208670Y-85420131D01*
X95040131Y-85588670D01*
X94907712Y-85786850D01*
X94816499Y-86007056D01*
X94770000Y-86240825D01*
X94770000Y-86479175D01*
X94816499Y-86712944D01*
X94907712Y-86933150D01*
X95040131Y-87131330D01*
X95208670Y-87299869D01*
X95406850Y-87432288D01*
X95577563Y-87503000D01*
X91772371Y-87503000D01*
X91581335Y-87465000D01*
X91298665Y-87465000D01*
X91107629Y-87503000D01*
X89232371Y-87503000D01*
X89041335Y-87465000D01*
X88758665Y-87465000D01*
X88567629Y-87503000D01*
X72517000Y-87503000D01*
X72517000Y-83330167D01*
X72533471Y-83305516D01*
X72653706Y-83015244D01*
X72715000Y-82707094D01*
X72715000Y-82520000D01*
X81246928Y-82520000D01*
X81246928Y-85120000D01*
X81259188Y-85244482D01*
X81295498Y-85364180D01*
X81354463Y-85474494D01*
X81433815Y-85571185D01*
X81530506Y-85650537D01*
X81640820Y-85709502D01*
X81760518Y-85745812D01*
X81885000Y-85758072D01*
X84485000Y-85758072D01*
X84609482Y-85745812D01*
X84729180Y-85709502D01*
X84839494Y-85650537D01*
X84936185Y-85571185D01*
X85015537Y-85474494D01*
X85074502Y-85364180D01*
X85110812Y-85244482D01*
X85123072Y-85120000D01*
X85123072Y-83678665D01*
X90005000Y-83678665D01*
X90005000Y-83961335D01*
X90060147Y-84238574D01*
X90168320Y-84499727D01*
X90325363Y-84734759D01*
X90525241Y-84934637D01*
X90760273Y-85091680D01*
X91021426Y-85199853D01*
X91298665Y-85255000D01*
X91581335Y-85255000D01*
X91858574Y-85199853D01*
X92119727Y-85091680D01*
X92354759Y-84934637D01*
X92554637Y-84734759D01*
X92711680Y-84499727D01*
X92819853Y-84238574D01*
X92875000Y-83961335D01*
X92875000Y-83678665D01*
X92819853Y-83401426D01*
X92711680Y-83140273D01*
X92554637Y-82905241D01*
X92354759Y-82705363D01*
X92119727Y-82548320D01*
X91858574Y-82440147D01*
X91581335Y-82385000D01*
X91298665Y-82385000D01*
X91021426Y-82440147D01*
X90760273Y-82548320D01*
X90525241Y-82705363D01*
X90325363Y-82905241D01*
X90168320Y-83140273D01*
X90060147Y-83401426D01*
X90005000Y-83678665D01*
X85123072Y-83678665D01*
X85123072Y-82520000D01*
X85110812Y-82395518D01*
X85074502Y-82275820D01*
X85015537Y-82165506D01*
X84936185Y-82068815D01*
X84839494Y-81989463D01*
X84729180Y-81930498D01*
X84609482Y-81894188D01*
X84485000Y-81881928D01*
X81885000Y-81881928D01*
X81760518Y-81894188D01*
X81640820Y-81930498D01*
X81530506Y-81989463D01*
X81433815Y-82068815D01*
X81354463Y-82165506D01*
X81295498Y-82275820D01*
X81259188Y-82395518D01*
X81246928Y-82520000D01*
X72715000Y-82520000D01*
X72715000Y-82392906D01*
X72653706Y-82084756D01*
X72533471Y-81794484D01*
X72517000Y-81769833D01*
X72517000Y-80137000D01*
X88567629Y-80137000D01*
X88758665Y-80175000D01*
G37*
%TD.AperFunction*%
%TD*%
M02*
